<svg xmlns="http://www.w3.org/2000/svg" width="150" height="112" fill="none" viewBox="0 0 150 112"><path fill="#DEE1EF" fill-opacity=".5" fill-rule="evenodd" d="M0 10C0 4.477 4.477 0 10 0h113.066c5.523 0 10 4.477 10 10v8.297H0V10zm0 33.246h133.066v11.172a31.957 31.957 0 0 0-11.227-2.023c-17.684 0-32.02 14.335-32.02 32.019 0 2.429.271 4.795.784 7.069H10c-5.523 0-10-4.477-10-10V43.246z" clip-rule="evenodd"/><path fill="#E1E2E9" fill-opacity=".5" fill-rule="evenodd" d="M122 112c15.464 0 28-12.536 28-28s-12.536-28-28-28-28 12.536-28 28 12.536 28 28 28zm-2-43h5v12h12v5h-12v13h-5V86h-13v-5h13V69z" clip-rule="evenodd"/></svg>