<svg xmlns="http://www.w3.org/2000/svg" xmlns:xlink="http://www.w3.org/1999/xlink" width="120" height="120" viewBox="0 0 120 120"><defs><path id="a" d="M0 .887h117.999V48H0z"/></defs><g fill="none" fill-rule="evenodd" opacity=".401"><g transform="translate(1 2)"><mask id="b" fill="#fff"><use xlink:href="#a"/></mask><path fill="#DEE1EF" d="M56.114 1.725L.825 36.809A1.777 1.777 0 0 0 0 38.308v7.915C0 47.203.8 48 1.787 48h114.425c.988 0 1.787-.796 1.787-1.777v-7.915a1.77 1.77 0 0 0-.826-1.499L61.887 1.725a5.392 5.392 0 0 0-5.773 0" mask="url(#b)"/></g><path fill="#DEE1EF" d="M113.226 103h-9.315V62.111h3.549c.49 0 .887-.398.887-.889V55.89a.89.89 0 0 0-.887-.889H82.62a.888.888 0 0 0-.887.889v5.333c0 .49.397.89.887.89h3.548V103H68.871V62.111h3.548c.49 0 .887-.398.887-.889V55.89a.889.889 0 0 0-.887-.889H47.581a.888.888 0 0 0-.887.889v5.333c0 .49.397.89.887.89h3.548V103H33.831V62.111h3.548c.49 0 .887-.398.887-.889V55.89a.889.889 0 0 0-.887-.889H12.54a.888.888 0 0 0-.887.889v5.333c0 .49.398.89.887.89h3.549V103H6.774c-.98 0-1.774.796-1.774 1.778v12.444c0 .982.793 1.778 1.774 1.778h106.452c.98 0 1.774-.796 1.774-1.778v-12.444c0-.982-.793-1.778-1.774-1.778"/></g></svg>