<svg xmlns="http://www.w3.org/2000/svg" width="120" height="120" viewBox="0 0 120 120"><g fill="#DEE1EF" fill-rule="evenodd" opacity=".5"><path d="M69.625 5v27.5H97V113a2 2 0 0 1-2 2H26a2 2 0 0 1-2-2V7a2 2 0 0 1 2-2h43.625zM82 100H40a2 2 0 1 0 0 4h42a2 2 0 1 0 0-4zm0-12H40a2 2 0 1 0 0 4h42a2 2 0 1 0 0-4zM63.594 47h-5.02v2.948C54.997 50.742 53 53.293 53 56.497c0 4.167 2.607 6.264 6.434 7.03l1.692.368c2.135.426 2.884 1.22 2.884 2.552s-.804 2.24-2.413 2.24c-1.608 0-2.413-.908-2.413-2.24v-.51h-5.99v.453c0 3.373 2.052 5.925 5.907 6.69V76h5.02v-2.92C68.003 72.286 70 69.622 70 66.163c0-4.054-2.302-6.35-6.35-7.2l-1.692-.312c-2.136-.454-2.968-1.162-2.968-2.438 0-1.162.721-1.87 2.08-1.87 1.331 0 2.08.708 2.08 1.87v.397h5.99v-.397c0-2.891-1.941-5.443-5.546-6.265V47z"/><path d="M73 28V5l24 23z"/></g></svg>