<svg xmlns="http://www.w3.org/2000/svg" width="150" height="150" viewBox="0 0 150 150"><g fill="#DEE1EF" fill-rule="evenodd" opacity=".5"><path d="M133.332 60v12.009a34.469 34.469 0 0 0-13.75-2.842c-19.1 0-34.584 15.483-34.584 34.583 0 .983.04 1.956.121 2.918L10 106.667c-5.524 0-10-4.477-10-10V60h133.333zm-10-43.333c5.523 0 10 4.477 10 10V35H0v-8.333c0-5.523 4.476-10 10-10h113.333z"/><path d="M119.583 73.334c16.799 0 30.417 13.618 30.417 30.416 0 16.799-13.618 30.417-30.417 30.417-16.798 0-30.416-13.618-30.416-30.417 0-16.798 13.618-30.416 30.416-30.416zm-14.875 20.833c-4.725 0-8.875 3.55-8.875 9.75 0 6.3 4 9.55 8.725 9.55 2.425 0 4.5-.925 6.075-2.75l-2.35-2.8c-.875.95-2.075 1.7-3.55 1.7-2.625 0-4.325-2.15-4.325-5.85 0-3.625 1.975-5.775 4.375-5.775 1.325 0 2.3.6 3.225 1.45l2.35-2.85c-1.275-1.3-3.225-2.425-5.65-2.425zm31.9 0c-4.725 0-8.875 3.55-8.875 9.75 0 6.3 4 9.55 8.725 9.55 2.425 0 4.5-.925 6.075-2.75l-2.35-2.8c-.875.95-2.075 1.7-3.55 1.7-2.625 0-4.325-2.15-4.325-5.85 0-3.625 1.975-5.775 4.375-5.775 1.325 0 2.3.6 3.225 1.45l2.35-2.85c-1.275-1.3-3.225-2.425-5.65-2.425zm-18.4 0c-2.65 0-4.35.95-6.175 2.875l2.425 2.4c.875-.95 1.875-1.8 3.15-1.8 1.475 0 2.425.925 2.425 2.625 0 2.7-3.125 6.075-7.775 10.3v2.55h12.9v-3.75h-3.425c-.825 0-2.1.125-3.025.25 2.85-2.875 5.6-6.4 5.6-9.6 0-3.55-2.5-5.85-6.1-5.85z"/></g></svg>