<svg xmlns="http://www.w3.org/2000/svg" width="120" height="120" viewBox="0 0 120 120"><path d="M18.709 12.224c8.42-3.445 21.677-7.642 40.487-7.19 18.811-.452 32.069 3.745 40.488 7.19 2.042.836 3.709 3.364 3.709 5.622V60.1c0 24.545-29.088 46.303-40.068 53.642a7.408 7.408 0 0 1-8.257 0C44.088 106.404 15 84.646 15 60.1V17.846c0-2.258 1.667-4.786 3.709-5.622zm53.903 26.09L57.363 59.696a.607.607 0 0 1-.945.049l-6.023-6.799c-1.631-1.84-4.471-2.034-6.346-.434a4.363 4.363 0 0 0-.447 6.232l2.47 2.79.393.445 5.134 5.8 2.216 2.492c1.872 2.106 5.24 2 6.969-.22l2.228-2.86 16.977-23.805a4.37 4.37 0 0 0-1.106-6.157c-2.037-1.401-4.845-.915-6.271 1.085z" fill="#DEE1EF" fill-rule="evenodd" opacity=".5"/></svg>