<svg xmlns="http://www.w3.org/2000/svg" width="114" height="114" viewBox="0 0 114 114"><path d="M57 0c31.48 0 57 25.52 57 57s-25.52 57-57 57S0 88.48 0 57 25.52 0 57 0zm38.53 30.692l-31.471.156-31.472.233-2.144 6.45-2.144 6.372 28.328.001c19.32.014 24.498.254 24.201.932-.153.544-1.99 6.14-4.058 12.434l-3.676 11.5-26.417.156-26.342.233-1.76 5.207-.192.582-.191.586c-.798 2.444-1.574 4.856-1.838 5.593l-.46 1.632h31.67c20.634-.013 30.092-.324 32.269-.933 2.067-.622 4.594-2.409 7.35-5.284 3.363-3.413 4.093-4.205 6.842-12.405l.227-.681c.58-1.745 1.249-3.805 2.044-6.265 5.666-17.485 5.82-20.516 1.685-24.324l-2.45-2.176zM50.606 49.875l-16.43.152-16.506.227-2.258 6.063c-1.246 3.334-2.258 6.138-2.258 6.29 0 .032 1.372.05 3.657.055l.503.001h1.967c2.824-.005 6.411-.024 10.302-.056l16.429-.228 1.79-4.547c.15-.4.302-.808.452-1.215l.224-.608c.705-1.919 1.346-3.718 1.583-4.467l.545-1.667z" fill="#DEE1EF" fill-rule="evenodd" opacity=".5"/></svg>