<svg xmlns="http://www.w3.org/2000/svg" width="114" height="114" viewBox="0 0 114 114"><path d="M57 0c31.48 0 57 25.52 57 57s-25.52 57-57 57S0 88.48 0 57 25.52 0 57 0zm25.832 31.565c-2.451-6.682-9.384-10.653-16.442-9.418-7.058 1.235-12.203 7.32-12.203 14.43 0 2.839 1.017 5.451 2.316 7.874 1.092 2.038 1.645 5.82-2.101 7.966-2.786 1.596-6.264.585-8-2.173-1.468-2.33-3.24-4.512-5.719-5.933-6.206-3.555-14.09-2.176-18.697 3.271a14.565 14.565 0 0 0 0 18.836c4.607 5.447 12.49 6.826 18.697 3.27 2.48-1.42 4.25-3.6 5.717-5.928 1.204-1.912 4.21-4.349 8.002-2.176 2.782 1.595 3.642 5.09 2.1 7.967-1.299 2.423-2.315 5.035-2.315 7.873 0 7.11 5.146 13.194 12.203 14.429 7.058 1.235 13.99-2.736 16.442-9.418 2.451-6.681-.287-14.145-6.493-17.7-2.5-1.432-5.316-1.847-8.104-1.944-2.34-.08-5.83-1.568-5.83-5.79 0-3.147 2.57-5.679 5.831-5.792 2.788-.097 5.603-.512 8.103-1.944 6.207-3.555 8.944-11.018 6.493-17.7z" fill="#DEE1EF" fill-rule="evenodd" opacity=".5"/></svg>