<svg xmlns="http://www.w3.org/2000/svg" width="114" height="114" viewBox="0 0 114 114"><path d="M57 0c31.48 0 57 25.52 57 57s-25.52 57-57 57S0 88.48 0 57 25.52 0 57 0zm27.85 68.523L58.224 84.244v21.776L84.85 68.523zm-55.865 0l26.609 37.495V84.244L28.985 68.523zm29.24-23.207V75.02l28.407-16.793-28.408-12.912zm-2.632 0L27.185 58.228 55.593 75.02V45.315zM58.224 8.77v33.656l27.938 12.698L58.224 8.77zm-2.63-.001L27.656 55.124l27.938-12.698V8.769z" fill="#DEE1EF" fill-rule="evenodd" opacity=".5"/></svg>