<svg xmlns="http://www.w3.org/2000/svg" width="114" height="114" viewBox="0 0 114 114"><path d="M57 0C25.7 0 0 25.7 0 57s25.7 57 57 57 57-25.7 57-57S88.4 0 57 0zm-1.1 90.9c0 .6 0 .6-.3.6s-.6-.3-.6-.3L30.2 73c-1.1-.9-1.7-2-1.7-3.4V53c0-.3 0-1.4.9-2l9.4-7.1s.6-.6.6-.3v18.8L55.6 75c.3.3.3.9.3.9v15zm-3.5-22.5h-.3l-9.7-7.7V30.5l9.7-7.7H63l10 7.7V41H62.7v-8H52.4v25.1h10.3v-8H73v10.5l-10 7.7H52.4zm34.2-15.2v16.4c0 1.4-.6 2.6-1.7 3.4L59.8 91s-.3.3-.6.3-.3 0-.3-.6V75.5s0-.6.3-.9l16.5-12.3V43.6c0-.3.6.3.6.3l9.4 7.1c.9.6.9 1.7.9 1.7v.5z" fill="#dee0ee" fill-opacity=".5"/></svg>