<svg xmlns="http://www.w3.org/2000/svg" width="114" height="114" viewBox="0 0 114 114"><path d="M57 0c31.48 0 57 25.52 57 57s-25.52 57-57 57S0 88.48 0 57 25.52 0 57 0zm-.088 6.138L13.154 31.394v50.51l43.758 25.256 43.759-25.255V31.394L56.912 6.138zm-21.31 45.425l10.173 6.49v11.662l7.716 7.367v3.508l-7.453 6.927h-6.313l-15.697-27.36 11.574-8.594zm42.707-.088l11.487 8.682-15.61 27.272h-6.224l-7.454-6.839v-3.508l7.717-7.367V58.052l10.084-6.577zm-10.26-3.244l-3.683 9.821 1.052 10.962H48.406l1.14-10.962-3.771-9.821h22.273zm6.05-20.257l4.122 17.538H35.602l4.034-17.538h34.463z" fill="#DEE1EF" fill-rule="evenodd" opacity=".5"/></svg>