<svg xmlns="http://www.w3.org/2000/svg" width="120" height="120" viewBox="0 0 120 120"><path d="M45.63 5c22.44 0 40.631 18.191 40.631 40.63 0 22.44-18.19 40.631-40.63 40.631S5 68.071 5 45.631 23.191 5 45.63 5zm-.124 10.033c-16.83 0-30.473 13.644-30.473 30.473 0 16.83 13.644 30.473 30.473 30.473 16.83 0 30.473-13.643 30.473-30.473S62.336 15.033 45.506 15.033zm2.627 13.976v3.38c4.308.942 6.628 3.867 6.628 7.181v.455h-7.158v-.455c0-1.332-.895-2.145-2.486-2.145-1.624 0-2.486.813-2.486 2.145 0 1.462.995 2.275 3.546 2.795l2.022.357c4.839.975 7.59 3.607 7.59 8.254 0 3.965-2.387 7.02-7.027 7.93v3.346h-5.998v-3.347c-4.607-.877-7.059-3.802-7.059-7.669v-.52h7.158v.585c0 1.527.961 2.567 2.884 2.567 1.922 0 2.883-1.04 2.883-2.567 0-1.527-.895-2.437-3.447-2.924l-2.021-.423c-4.574-.877-7.689-3.282-7.689-8.059 0-3.672 2.386-6.597 6.661-7.506v-3.38h5.999zm33.903 44.457l27.124 27.124a6.467 6.467 0 0 1-9.145 9.145L72.838 82.558a46.458 46.458 0 0 0 9.198-9.092z" fill="#DEE1EF" fill-rule="evenodd" opacity=".5"/></svg>