<svg xmlns="http://www.w3.org/2000/svg" width="150" height="150" viewBox="0 0 150 150"><g fill="#DEE1EF" fill-rule="evenodd" opacity=".5"><path d="M118.86 5.29c.915 0 1.802.313 2.514.889l27.058 21.866a4 4 0 0 1 0 6.222l-19.589 15.831a36.289 36.289 0 0 0-13.983-9.186V37.51h-60.5a2 2 0 0 1-2-2V26.8a2 2 0 0 1 2-2h60.5V9.29c0-2.21 1.79-4 4-4zM31.141 144.711a4 4 0 0 1-2.514-.889L1.568 121.956a4 4 0 0 1 0-6.223l19.59-15.83a36.285 36.285 0 0 0 13.982 9.186v3.4h60.5a2 2 0 0 1 2 2v8.71a2 2 0 0 1-2 2h-60.5v15.512c0 2.21-1.79 4-4 4z"/><path d="M47.5 42.5C65.45 42.5 80 57.05 80 75s-14.55 32.5-32.5 32.5S15 92.95 15 75s14.55-32.5 32.5-32.5zM44.873 55h-3.696v5.73H36.25v30.438h4.927v5.082h3.696l-.001-5.082h3.696v5.082h3.696v-5.215c5.826-.637 8.986-3.558 8.986-8.866 0-3.403-2.114-5.861-5.488-6.882 2.846-.945 4.594-2.95 4.594-6.163 0-4.665-2.715-7.498-8.092-8.214V55h-3.696v5.729h-3.695V55zm4.06 23.236c2.398 0 3.496 1.06 3.496 3.517 0 2.458-1.098 3.516-3.496 3.516H45.07v-7.033zm-.488-11.608c2.236 0 3.333.87 3.333 3.138 0 2.27-1.097 3.139-3.333 3.139h-3.374v-6.277z"/><path d="M102.42 42.5c17.948 0 32.5 14.55 32.5 32.5s-14.553 32.5-32.5 32.5c-10.009 0-18.959-4.523-24.92-11.635A36.083 36.083 0 0 0 84.103 75a36.077 36.077 0 0 0-6.604-20.865C83.462 47.023 92.412 42.5 102.42 42.5zm3.938 12.5h-7.75v4.194C93.082 60.323 90 63.952 90 68.508c0 5.927 4.025 8.911 9.935 10l2.612.524c3.297.605 4.453 1.734 4.453 3.63 0 1.894-1.241 3.185-3.725 3.185s-3.726-1.29-3.726-3.186v-.726H90.3v.646c0 4.798 3.17 8.427 9.122 9.516v4.153h7.75v-4.153c5.996-1.13 9.079-4.92 9.079-9.839 0-5.766-3.554-9.032-9.806-10.242l-2.612-.443c-3.298-.646-4.582-1.654-4.582-3.468 0-1.653 1.113-2.661 3.211-2.661 2.056 0 3.212 1.008 3.212 2.66v.565h9.25v-.564c0-4.113-2.998-7.742-8.565-8.911V55z"/></g></svg>