<svg xmlns="http://www.w3.org/2000/svg" xmlns:xlink="http://www.w3.org/1999/xlink" width="100" height="100" viewBox="0 0 100 100"><defs><circle id="a" cx="50" cy="50" r="50"/></defs><g fill="none" fill-rule="evenodd"><mask id="b" fill="#fff"><use xlink:href="#a"/></mask><path fill="#FFF" d="M0 0h100v100H0z" mask="url(#b)"/><g mask="url(#b)"><path fill="#FFF" d="M-12.307 92.307h126.153V7.692H-12.307z"/><path fill="#000" d="M16.264 40l11.43-17.308M11.978 37.115l11.429-17.308M7.693 34.23l11.428-17.307M9.039 35.502l-2.885-2.01 11.54-18.108 2.884 2.012L9.04 35.503zm4.327 3.018l-2.885-2.011 11.538-18.107 2.885 2.012L13.366 38.52zm4.327 3.018l-2.885-2.012L26.347 21.42l2.884 2.012-11.537 18.106zm63.186 41.539l11.429-17.308M76.594 80.192l11.428-17.308M72.308 77.307L83.737 60M73.654 78.58l-2.884-2.012 11.538-18.107 2.885 2.012L73.654 78.58zm4.327 3.017l-2.885-2.012 11.539-18.106 2.885 2.012-11.539 18.106zm4.327 3.018l-2.884-2.012 11.538-18.106 2.884 2.012-11.538 18.106zm-6.923-16.923l15.385 9.231"/><path fill="#FFF" d="M89.808 76.923l-14.423-9.365.962-1.404 14.423 9.364z"/><path fill="#CD2E3A" d="M32.517 38.147C38.954 28.327 52 25.675 61.656 32.22c9.656 6.547 12.265 19.813 5.828 29.632-6.438 9.819-19.484 12.472-29.14 5.926-9.655-6.546-12.265-19.812-5.827-29.631"/><path fill="#0047A0" d="M32.517 38.147c-3.219 4.91-1.914 11.543 2.914 14.815 4.828 3.273 11.35 1.947 14.57-2.963 3.218-4.91 9.74-6.236 14.569-2.963 4.828 3.273 6.132 9.906 2.914 14.816-6.438 9.819-19.484 12.472-29.14 5.926-9.655-6.546-12.265-19.812-5.827-29.631"/><path fill="#000" d="M28.146 77.655L16.49 59.877m7.285 20.742l-11.656-17.78m7.285 20.743L7.748 65.802m18.941 12.842l-11.656-17.78 2.914-1.975 11.657 17.779-2.914 1.975zm-4.371 2.962L10.662 63.827l2.914-1.975 11.656 17.779-2.914 1.975zm-4.37 2.963L6.29 66.791l2.914-1.976 11.657 17.779-2.914 1.975zm74.304-50.373L80.596 16.417m7.285 20.742L76.225 19.38m7.285 20.742L71.855 22.344m18.94 12.84l-11.656-17.78 2.915-1.974L93.71 33.21l-2.916 1.974zm-4.37 2.963L74.767 20.368l2.914-1.975 11.656 17.778-2.914 1.976zm-4.372 2.963L70.398 23.331l2.913-1.975 11.656 17.778-2.913 1.976zm2.186-14.322l4.37-2.963m-13.84 9.383l5.099-3.457m-64.106 43.46l4.37-2.964"/><path fill="#FFF" d="M84.724 27.529l-.971-1.482 4.37-2.963.972 1.482-4.37 2.963zm-9.47 6.42l-.971-1.482 5.1-3.457.97 1.482-5.099 3.457zM16.247 73.951l-.97-1.481 4.37-2.963.971 1.481-4.37 2.963z"/></g></g></svg>