<svg xmlns="http://www.w3.org/2000/svg" xmlns:xlink="http://www.w3.org/1999/xlink" width="100" height="100" viewBox="0 0 100 100"><defs><circle id="a" cx="50" cy="50" r="50"/></defs><g fill="none" fill-rule="evenodd"><mask id="b" fill="#fff"><use xlink:href="#a"/></mask><use fill="#D8D8D8" xlink:href="#a"/><g mask="url(#b)"><g fill-rule="nonzero" transform="translate(-24.615)"><path fill="#FE0000" d="M0 .68h148.98V100H0z"/><path fill="#000095" d="M0 .68h74.83v49.66H0z"/><path fill="#FFF" d="M42.063 25.51l-4.988 18.708-4.989-18.708 4.989-18.707m0 23.696l18.707-4.989-18.707-4.988-18.708 4.988"/><path fill="#FFF" d="M41.546 27.938L27.932 41.586l5.012-18.614L46.558 9.325M34.76 29.757l18.611 5.01-13.644-13.613-18.61-5.01"/><path fill="#FFF" d="M39.728 29.756l-18.614 5.012 13.648-13.613 18.613-5.013M32.943 27.94l13.613 13.644-5.01-18.611L27.934 9.328"/><circle cx="37.075" cy="25.51" r="10.544" fill="#000095"/><circle cx="37.075" cy="25.51" r="9.184" fill="#FFF"/></g></g></g></svg>