<svg xmlns="http://www.w3.org/2000/svg" xmlns:xlink="http://www.w3.org/1999/xlink" width="100" height="100" viewBox="0 0 100 100"><defs><circle id="a" cx="50" cy="50" r="50"/></defs><g fill="none" fill-rule="evenodd"><mask id="b" fill="#fff"><use xlink:href="#a"/></mask><use fill="#D8D8D8" xlink:href="#a"/><g mask="url(#b)"><path fill="#B22234" d="M-23.077 100h190V0h-190z"/><path fill="#000" d="M-23.077 11.538h190-190zm0 15.385h190-190zm0 15.385h190-190zm0 15.384h190-190zm0 15.385h190-190zm0 15.385h190-190z"/><path fill="#FFF" d="M-23.077 15.385h190V7.692h-190v7.693zm0 15.384h190v-7.692h-190v7.692zm0 15.385h190v-7.692h-190v7.692zm0 15.384h190v-7.692h-190v7.692zm0 15.385h190v-7.692h-190v7.692zm0 15.385h190v-7.692h-190v7.692z"/><path fill="#3C3B6E" d="M-23.077 53.846h76V0h-76z"/><path fill="#FFF" d="M1.139 11.132l-.691 2.126 1.808-1.314 1.809 1.314-.691-2.126 1.809-1.314H2.947l-.691-2.126-.69 2.126H-.67zm1.117 7.33l-.69 2.126H-.67l1.809 1.314-.691 2.126 1.808-1.314 1.809 1.314-.691-2.126 1.809-1.314H2.947zm0 10.769l-.69 2.126H-.67l1.809 1.314-.691 2.126 1.808-1.314 1.809 1.314-.691-2.126 1.809-1.314H2.947zm.691 12.895L2.256 40l-.69 2.126H-.67l1.809 1.314-.691 2.126 1.808-1.314 1.809 1.314-.691-2.126 1.809-1.314zM8.59 2.308l-.691 2.126H5.663l1.809 1.314-.691 2.126L8.59 6.56l1.808 1.314-.691-2.126 1.809-1.314H9.28zm0 10.769l-.691 2.126H5.663l1.809 1.314-.691 2.126 1.809-1.314 1.808 1.314-.691-2.126 1.809-1.314H9.28zm0 10.769l-.691 2.126H5.663l1.809 1.314-.691 2.126 1.809-1.314 1.808 1.314-.691-2.126 1.809-1.314H9.28zm0 10.769l-.691 2.127H5.663l1.809 1.314-.691 2.126 1.809-1.314 1.808 1.314-.691-2.126 1.809-1.314H9.28zm.69 12.896l-.69-2.126-.691 2.126H5.663l1.809 1.314-.691 2.126 1.809-1.314 1.808 1.314-.691-2.126 1.809-1.314zm5.643-39.819l-.691 2.126h-2.235l1.808 1.314-.691 2.126 1.809-1.314 1.809 1.314-.691-2.126 1.808-1.314h-2.235zm0 10.77l-.691 2.126h-2.235l1.808 1.314-.691 2.126 1.809-1.314 1.809 1.314-.691-2.126 1.808-1.314h-2.235zm0 10.769l-.691 2.126h-2.235l1.808 1.314-.691 2.126 1.809-1.314 1.809 1.314-.691-2.126 1.808-1.314h-2.235zm.691 12.895L14.923 40l-.691 2.126h-2.235l1.808 1.314-.691 2.126 1.809-1.314 1.809 1.314-.691-2.126 1.808-1.314zm5.642-39.818l-.69 2.126H18.33l1.809 1.314-.691 2.126 1.808-1.314 1.809 1.314-.691-2.126 1.809-1.314h-2.236zm0 10.769l-.69 2.126H18.33l1.809 1.314-.691 2.126 1.808-1.314 1.809 1.314-.691-2.126 1.809-1.314h-2.236zm0 10.769l-.69 2.126H18.33l1.809 1.314-.691 2.126 1.808-1.314 1.809 1.314-.691-2.126 1.809-1.314h-2.236zm0 10.769l-.69 2.127H18.33l1.809 1.314-.691 2.126 1.808-1.314 1.809 1.314-.691-2.126 1.809-1.314h-2.236zm.691 12.896l-.691-2.126-.69 2.126H18.33l1.809 1.314-.691 2.126 1.808-1.314 1.809 1.314-.691-2.126 1.809-1.314zm4.525-36.379l-.691 2.126 1.809-1.314 1.808 1.314-.691-2.126 1.809-1.314h-2.235l-.691-2.126-.691 2.126h-2.236zm1.118 7.33l-.691 2.126h-2.236l1.809 1.314-.691 2.126 1.809-1.314 1.808 1.314-.691-2.126 1.809-1.314H28.28zm0 10.769l-.691 2.126h-2.236l1.809 1.314-.691 2.126 1.809-1.314 1.808 1.314-.691-2.126 1.809-1.314H28.28zm.69 12.895L27.59 40l-.691 2.126h-2.236l1.809 1.314-.691 2.126 1.809-1.314 1.808 1.314-.691-2.126 1.809-1.314zm5.643-39.818l-.691 2.126h-2.235l1.808 1.314-.691 2.126 1.809-1.314 1.809 1.314-.691-2.126 1.808-1.314h-2.235zm0 10.769l-.691 2.126h-2.235l1.808 1.314-.691 2.126 1.809-1.314 1.809 1.314-.691-2.126 1.808-1.314h-2.235zm0 10.769l-.691 2.126h-2.235l1.808 1.314-.691 2.126 1.809-1.314 1.809 1.314-.691-2.126 1.808-1.314h-2.235zm0 10.769l-.691 2.127h-2.235l1.808 1.314-.691 2.126 1.809-1.314 1.809 1.314-.691-2.126 1.808-1.314h-2.235zm.691 12.896l-.691-2.126-.691 2.126h-2.235l1.808 1.314-.691 2.126 1.809-1.314 1.809 1.314-.691-2.126 1.808-1.314zm4.525-36.379l-.691 2.126 1.808-1.314 1.809 1.314-.691-2.126 1.809-1.314h-2.236l-.691-2.126-.69 2.126H37.33zm1.117 7.33l-.69 2.126H37.33l1.809 1.314-.691 2.126 1.808-1.314 1.809 1.314-.691-2.126 1.809-1.314h-2.236zm0 10.769l-.69 2.126H37.33l1.809 1.314-.691 2.126 1.808-1.314 1.809 1.314-.691-2.126 1.809-1.314h-2.236zm.691 12.895L40.256 40l-.69 2.126H37.33l1.809 1.314-.691 2.126 1.808-1.314 1.809 1.314-.691-2.126 1.809-1.314zm4.525-36.378l-.691 2.126L46.59 6.56l1.808 1.314-.691-2.126 1.809-1.314h-2.235l-.691-2.126-.691 2.126h-2.236zm1.118 7.329l-.691 2.126h-2.236l1.809 1.314-.691 2.126 1.809-1.314 1.808 1.314-.691-2.126 1.809-1.314H47.28zm0 10.769l-.691 2.126h-2.236l1.809 1.314-.691 2.126 1.809-1.314 1.808 1.314-.691-2.126 1.809-1.314H47.28zm0 10.769l-.691 2.127h-2.236l1.809 1.314-.691 2.126 1.809-1.314 1.808 1.314-.691-2.126 1.809-1.314H47.28zm.69 12.896l-.69-2.126-.691 2.126h-2.236l1.809 1.314-.691 2.126 1.809-1.314 1.808 1.314-.691-2.126 1.809-1.314z"/></g></g></svg>