<svg xmlns="http://www.w3.org/2000/svg" xmlns:xlink="http://www.w3.org/1999/xlink" width="100" height="100" viewBox="0 0 100 100"><defs><circle id="a" cx="50" cy="50" r="50"/></defs><g fill="none" fill-rule="evenodd"><mask id="b" fill="#fff"><use xlink:href="#a"/></mask><use fill="#D8D8D8" xlink:href="#a"/><path fill="#DE2910" d="M0 0h100v100H0z" mask="url(#b)"/><g mask="url(#b)"><path fill="#DE2910" d="M24.615 124.615h150v-100h-150z"/><path fill="#FFDE00" d="M55.064 51.385l8.817-6.405H52.983l-3.368-10.365-3.368 10.365H35.349l8.817 6.405-3.368 10.365 8.817-6.405 8.817 6.405zm18.804-15.012l1.869 3.115.319-3.619 3.54-.815-3.343-1.422.319-3.618-2.385 2.74-3.343-1.422 1.869 3.115-2.385 2.741zm9.376 9.572l.514 3.596 1.698-3.211 3.579.622-2.529-2.607 1.698-3.211-3.262 1.599-2.529-2.607.514 3.596-3.262 1.6zm3.207 14.195l2.861-2.24-3.63.131-1.246-3.413-.998 3.493-3.631.13 3.014 2.029-.998 3.493 2.861-2.239 3.013 2.028zm-10.24 8.425l.168-3.628-2.269 2.836-3.399-1.281 1.996 3.034-2.269 2.837 3.503-.961 1.997 3.035.168-3.629 3.504-.961z"/></g></g></svg>