<svg xmlns="http://www.w3.org/2000/svg" width="400" height="400" fill="none" viewBox="0 0 400 400"><circle cx="200" cy="200" r="200" fill="#C31F5C"/><path fill="#fff" fill-rule="evenodd" d="M126.06 104.471c-5.961-5.961-15.627-5.961-21.588 0-5.962 5.962-5.962 15.627 0 21.589l73.94 73.94-73.941 73.94c-5.961 5.962-5.961 15.627 0 21.589 5.962 5.961 15.627 5.961 21.589 0L200 221.588l73.941 73.941c5.961 5.961 15.627 5.961 21.588 0 5.962-5.962 5.962-15.627 0-21.589L221.589 200l73.94-73.94c5.961-5.962 5.961-15.627 0-21.589-5.962-5.961-15.627-5.961-21.589 0L200 178.411l-73.94-73.94z" clip-rule="evenodd"/></svg>