<svg width="48" height="48" viewBox="0 0 48 48" fill="none" xmlns="http://www.w3.org/2000/svg"><path fill-rule="evenodd" clip-rule="evenodd" d="M19.963 39.712c11.026 0 19.964-8.89 19.964-19.856C39.927 8.89 30.99 0 19.964 0 8.938 0 0 8.89 0 19.856c0 10.966 8.938 19.856 19.963 19.856zm-.06-5.025c8.269 0 14.972-6.667 14.972-14.891 0-8.225-6.703-14.893-14.973-14.893-8.269 0-14.972 6.668-14.972 14.893 0 8.224 6.703 14.892 14.972 14.892z" fill="#768098"/><path d="M31.387 35.945l4.493-4.47 9.874 9.821a3.148 3.148 0 0 1 0 4.47 3.19 3.19 0 0 1-4.493 0l-9.874-9.821z" fill="#768098"/></svg>