<svg xmlns="http://www.w3.org/2000/svg" width="400" height="400" fill="none" viewBox="0 0 400 400"><g clip-path="url(#clip0)"><path fill="#616161" d="M200.008 400.016c110.461 0 200.008-89.547 200.008-200.008C400.016 89.547 310.469 0 200.008 0 89.547 0 0 89.547 0 200.008c0 110.461 89.547 200.008 200.008 200.008z"/><path fill="#9E9E9E" d="M200.008 327.281c-70.301 0-127.273-56.972-127.273-127.273 0-70.301 56.972-127.273 127.273-127.273 35.134 0 66.949 14.247 89.996 37.277l51.428-51.428C305.234 22.386 255.224 0 200.008 0 89.544 0 0 89.544 0 200.008c0 110.464 89.544 200.008 200.008 200.008 55.232 0 105.226-22.386 141.44-58.568L290.02 290.02c-23.063 23.014-54.878 37.261-90.012 37.261z"/><path fill="#424242" d="M327.282 200.008h-63.645c0-35.134-28.495-63.645-63.645-63.645-35.151 0-63.629 28.495-63.629 63.645 0 17.116 6.769 32.636 17.777 44.095l-.048.049 78.794 78.794.016.016c54.346-14.505 94.38-64.047 94.38-122.954z"/><path fill="#616161" d="M400 200.008h-72.735c0 58.907-40.05 108.449-94.363 122.954l56.167 56.167C354.825 346.364 400 278.464 400 200.008z"/><path fill="#212121" fill-opacity=".1" d="M200.008 397.728C89.931 397.728.645 308.796.016 198.864c0 .387-.016.757-.016 1.144 0 110.464 89.544 200.008 200.008 200.008 110.464 0 200.008-89.544 200.008-200.008 0-.387-.016-.757-.016-1.144-.629 109.932-89.931 198.864-199.992 198.864z"/><path fill="#fff" fill-opacity=".05" d="M232.918 322.962l1.773 1.773c53.411-15.085 92.591-64.177 92.591-122.454v-2.273c0 58.907-40.05 108.449-94.364 122.954z"/><path fill="#9E9E9E" d="M363.65 181.821H200.001c-10.041 0-18.18 8.139-18.18 18.18 0 10.04 8.139 18.179 18.18 18.179h163.632c10.041 0 18.18-8.139 18.18-18.179.016-10.041-8.123-18.18-18.163-18.18z"/><path fill="#BDBDBD" d="M363.65 181.821H200.001c-10.041 0-18.18 8.139-18.18 18.18 0 10.04 8.139 18.179 18.18 18.179h163.632c10.041 0 18.18-8.139 18.18-18.179.016-10.041-8.123-18.18-18.163-18.18z" opacity=".5"/><path fill="#BDBDBD" d="M36.36 213.643c7.53 0 13.634-6.105 13.634-13.635 0-7.53-6.105-13.635-13.635-13.635-7.53 0-13.635 6.105-13.635 13.635 0 7.53 6.105 13.635 13.635 13.635zM200.008 49.994c7.53 0 13.635-6.105 13.635-13.635 0-7.53-6.105-13.635-13.635-13.635-7.53 0-13.635 6.105-13.635 13.635 0 7.53 6.105 13.635 13.635 13.635zm0 327.281c7.53 0 13.635-6.104 13.635-13.634s-6.105-13.635-13.635-13.635c-7.53 0-13.635 6.105-13.635 13.635 0 7.53 6.105 13.634 13.635 13.634zM84.097 97.925c7.53 0 13.635-6.105 13.635-13.635 0-7.53-6.105-13.635-13.635-13.635-7.53 0-13.635 6.105-13.635 13.635 0 7.53 6.105 13.635 13.635 13.635zm0 231.629c7.53 0 13.635-6.104 13.635-13.635 0-7.53-6.105-13.634-13.635-13.634-7.53 0-13.635 6.104-13.635 13.634 0 7.531 6.105 13.635 13.635 13.635z"/><path fill="#757575" d="M315.919 329.554c7.531 0 13.635-6.104 13.635-13.635 0-7.53-6.104-13.634-13.635-13.634-7.53 0-13.634 6.104-13.634 13.634 0 7.531 6.104 13.635 13.634 13.635z"/><path fill="#fff" fill-opacity=".2" d="M200.008 184.101h163.633c9.654 0 17.551 7.543 18.115 17.051.016-.386.064-.757.064-1.144 0-10.041-8.139-18.18-18.179-18.18H200.008c-10.041 0-18.18 8.139-18.18 18.18 0 .387.017.758.065 1.144.564-9.508 8.445-17.051 18.115-17.051z"/><path fill="#212121" fill-opacity=".2" d="M381.756 201.136c-.596 9.493-8.477 17.052-18.115 17.052H200.008c-9.654 0-17.551-7.543-18.115-17.052a9.072 9.072 0 0 0-.065 1.128c0 10.041 8.139 18.18 18.18 18.18h163.633c10.04 0 18.179-8.139 18.179-18.18 0-.37-.016-.741-.064-1.128z"/><path fill="#212121" fill-opacity=".1" d="M200.008 75.007c35.134 0 66.949 14.247 89.996 37.278l52.54-52.573c-.387-.387-.758-.773-1.128-1.144l-51.412 51.428c-23.047-23.03-54.862-37.277-89.996-37.277-70.301 0-127.273 56.972-127.273 127.273 0 .387.016.757.016 1.144.612-69.769 57.343-126.129 127.257-126.129z"/><path fill="url(#paint0_radial)" d="M200.008 400.016c110.461 0 200.008-89.547 200.008-200.008C400.016 89.547 310.469 0 200.008 0 89.547 0 0 89.547 0 200.008c0 110.461 89.547 200.008 200.008 200.008z"/></g><defs><radialGradient id="paint0_radial" cx="0" cy="0" r="1" gradientTransform="translate(58.654 58.198) scale(399.325)" gradientUnits="userSpaceOnUse"><stop stop-color="#fff" stop-opacity=".1"/><stop offset="1" stop-color="#fff" stop-opacity="0"/></radialGradient><clipPath id="clip0"><path fill="#fff" d="M0 0h400v400H0z"/></clipPath></defs></svg>