<svg xmlns="http://www.w3.org/2000/svg" viewBox="0 0 50 50"><path d="M43.6 27.4c.1-.8.2-1.6.2-2.4s-.1-1.7-.2-2.4l5.3-4.1c.5-.4.6-1.1.3-1.6l-5-8.7c-.3-.6-1-.8-1.5-.6l-6.2 2.5c-1.3-1-2.7-1.8-4.2-2.4l-.9-6.6C31.2.4 30.6 0 30 0H20c-.6 0-1.1.4-1.2 1.1l-.9 6.6c-1.5.6-2.9 1.5-4.2 2.4L7.4 7.6c-.6-.2-1.2 0-1.5.6l-5 8.7c-.3.6-.2 1.2.3 1.6l5.3 4.1c-.1.8-.2 1.6-.2 2.4 0 .8.1 1.7.2 2.4l-5.3 4.1c-.5.4-.6 1.1-.3 1.6l5 8.7c.3.6 1 .8 1.5.6l6.2-2.5c1.3 1 2.7 1.8 4.2 2.4l.9 6.6c.1.6.6 1.1 1.2 1.1h10c.6 0 1.2-.4 1.2-1.1l.9-6.6c1.5-.6 2.9-1.5 4.2-2.4l6.2 2.5c.6.2 1.2 0 1.5-.6l5-8.7c.3-.6.2-1.2-.3-1.6.2.1-5-4.1-5-4.1zm-18.6 7c-5.2 0-9.4-4.2-9.4-9.4s4.2-9.4 9.4-9.4 9.4 4.2 9.4 9.4-4.2 9.4-9.4 9.4z" fill="#29304d"/></svg>