<svg xmlns="http://www.w3.org/2000/svg" width="50" height="50" fill="none" viewBox="0 0 50 50"><path fill="#29304D" fill-rule="evenodd" d="M20.795 41.367c11.485 0 20.796-9.26 20.796-20.684C41.59 9.26 32.28 0 20.795 0S0 9.26 0 20.683c0 11.424 9.31 20.684 20.795 20.684zm-.063-5.234c8.614 0 15.596-6.945 15.596-15.513 0-8.567-6.982-15.512-15.596-15.512S5.135 12.053 5.135 20.62c0 8.568 6.983 15.513 15.597 15.513z" clip-rule="evenodd"/><path fill="#29304D" d="M32.694 37.443l4.68-4.656 10.286 10.23a3.28 3.28 0 0 1 0 4.655 3.32 3.32 0 0 1-4.68 0l-10.286-10.23z"/></svg>