<svg xmlns="http://www.w3.org/2000/svg" width="100" height="100" fill="none" viewBox="0 0 100 100"><circle cx="50" cy="50" r="50" fill="#DEE1EF"/><path fill="#367FC1" d="M42 33h18a2 2 0 0 1 2 2v5a2 2 0 0 1-2 2H42v-9z"/><path fill="#367FC1" fill-rule="evenodd" d="M22.32 39.135a2 2 0 0 1 0-3.27l16.528-11.644c1.325-.934 3.152.014 3.152 1.635v23.288c0 1.621-1.827 2.569-3.152 1.635L22.321 39.135z" clip-rule="evenodd"/><path fill="#367FC1" d="M58 68H40a2 2 0 0 1-2-2v-5a2 2 0 0 1 2-2h18v9z"/><path fill="#367FC1" fill-rule="evenodd" d="M77.68 61.865a2 2 0 0 1 0 3.27L61.151 76.779c-1.325.934-3.152-.014-3.152-1.635V51.856c0-1.621 1.827-2.569 3.152-1.635l16.527 11.644z" clip-rule="evenodd"/></svg>