<svg xmlns="http://www.w3.org/2000/svg" width="400" height="400" fill="none" viewBox="0 0 400 400"><path fill="#0068C1" d="M199.8 0C89.4 0 0 89.6 0 200s89.4 200 199.8 200C310.4 400 400 310.4 400 200S310.4 0 199.8 0zm.2 360c-88.4 0-160-71.6-160-160S111.6 40 200 40s160 71.6 160 160-71.6 160-160 160z"/><path fill="#0068C1" d="M210 115c0-8.284-6.716-15-15-15-8.284 0-15 6.716-15 15v99.338a10 10 0 0 0 4.855 8.575l87.91 52.746c6.771 4.063 15.552 1.901 19.663-4.841 4.167-6.834 1.947-15.755-4.936-19.84l-75.043-44.525a5 5 0 0 1-2.449-4.3V115z"/></svg>