<svg xmlns="http://www.w3.org/2000/svg" width="54" height="54" fill="none" viewBox="0 0 54 54"><path fill="#DEE1EF" d="M24.278 1.88c1.073-2.319 4.37-2.319 5.444 0l6.173 13.334c.439.948 1.34 1.6 2.379 1.72l12.277 1.414c2.541.293 3.573 3.427 1.704 5.173l-8.877 8.288a3 3 0 0 0-.911 2.69l2.577 15.31c.42 2.487-2.231 4.35-4.429 3.113L28.471 46.09a3 3 0 0 0-2.942 0l-12.144 6.832c-2.198 1.236-4.848-.626-4.43-3.113l2.578-15.31a3.002 3.002 0 0 0-.91-2.69L1.744 23.52c-1.87-1.746-.837-4.88 1.704-5.173l12.277-1.414a3.004 3.004 0 0 0 2.38-1.72L24.277 1.88z"/></svg>