<svg xmlns="http://www.w3.org/2000/svg" width="1080" height="162" viewBox="0 0 1080 162"><defs><filter id="a" width="109%" height="839.4%" x="-6.3%" y="-710.6%" filterUnits="objectBoundingBox"><feOffset dy="5" in="SourceAlpha" result="shadowOffsetOuter1"/><feGaussianBlur in="shadowOffsetOuter1" result="shadowBlurOuter1" stdDeviation="5"/><feColorMatrix in="shadowBlurOuter1" result="shadowMatrixOuter1" values="0 0 0 0 0 0 0 0 0 0 0 0 0 0 0 0 0 0 0.0988581731 0"/><feMerge><feMergeNode in="shadowMatrixOuter1"/><feMergeNode in="SourceGraphic"/></feMerge></filter><filter id="b" width="152.2%" height="219.1%" x="-26.1%" y="-59.5%" filterUnits="objectBoundingBox"><feGaussianBlur in="SourceGraphic" stdDeviation="12"/></filter></defs><g fill="none" fill-rule="evenodd"><path d="M0 0h1080v162H0V0z" fill="#C5DCE4"/><g filter="url(#a)" transform="translate(-3.259 -26.783)"><g opacity=".8"><path d="M197.824 40.67l69.997 22.221-9.743 30.69-69.997-22.22 9.743-30.69z"/><path fill="#E2AE44" d="M188.362 53.67l7.403 2.35c8.512-1.603 21.263-.363 34.762 3.922 13.5 4.286 24.633 10.628 30.662 16.846l7.402 2.35-2.906 9.153c-3.032 8.23-22.98 9.301-44.9 2.343-21.921-6.958-37.598-19.338-35.323-27.809l-.006-.002 2.906-9.153z"/><path fill="#EDDA4B" d="M222.33 84.832c22.303 7.08 42.9 4.892 46.005-4.887s-12.46-23.446-34.763-30.526-42.9-4.893-46.005 4.886c-3.104 9.78 12.46 23.447 34.763 30.527z"/><path fill="#EDC44B" fill-rule="nonzero" d="M214.762 79.324c-18.098-7.999-26.874-19.954-19.583-26.688 7.28-6.736 27.859-5.716 45.954 2.289 18.11 8.002 26.872 19.954 19.593 26.69-7.28 6.738-27.868 5.714-45.964-2.29z"/><path fill="#EFEA62" d="M237.608 63.524l2.454-2.267-3.706-1.64-2.387 2.208c-.97-.43-1.976-.865-2.973-1.292l2.403-2.22-3.706-1.64-2.453 2.266c-.805-.345-1.598-.692-2.37-1.032l.004-.01-5.11-2.26-1.588 1.475c1.842.796 2.74 1.192 2.693 1.188 1.498.666 1.64 1.207 1.483 1.548l-2.794 2.581c.107.044.243.109.376.183a27.69 27.69 0 0 0-.391-.172l-3.916 3.613c-.252.147-.832.306-1.888-.16.024.025-.873-.373-2.692-1.193l-2.515 1.324 4.825 2.133c.898.396 1.77.794 2.636 1.18l-2.474 2.292 3.706 1.641 2.453-2.267c1.01.458 1.991.896 2.952 1.322l-2.462 2.254 3.705 1.641 2.472-2.288c6.38 2.622 11.37 3.969 14.263 2.026 2.338-1.56.96-3.327-2.236-5.208 2.608.548 4.719.421 5.708-.912 1.348-1.82-1.858-4.047-6.472-6.314zm-16.062 5.844l3.287-3.037c2.523 1.118 10.69 4.328 8.751 6.114-1.845 1.716-9.525-1.968-12.038-3.077zm4.798-4.42l2.982-2.755c2.09.923 8.929 3.58 7.172 5.207-1.687 1.56-8.063-1.53-10.154-2.453z"/></g><g opacity=".495"><path d="M1014.623 57.011l29.526 20.675-9.065 12.946-29.526-20.675 9.065-12.946z"/><path fill="#E2AE44" d="M1042.127 85.408l-2.704 3.861c-2.627 3.41-12.127.986-21.373-5.489-9.346-6.543-14.893-14.746-12.39-18.32l-.075.115-.004-.002 2.704-3.86 3.123 2.185c4.221.498 10.012 2.95 15.706 6.937 5.695 3.986 9.978 8.59 11.89 12.387l3.123 2.186z"/><path fill="#EDDA4B" d="M1019.624 81.29c9.408 6.588 19.377 8.585 22.265 4.46 2.888-4.126-2.397-12.81-11.805-19.397-9.408-6.588-19.376-8.584-22.264-4.459-2.889 4.125 2.396 12.81 11.804 19.397z"/><path fill="#EEC44C" fill-rule="nonzero" d="M1016.888 77.6c-7.304-6.4-9.661-13.286-5.258-15.371 4.398-2.088 13.886 1.409 21.188 7.812 7.308 6.404 9.66 13.287 5.263 15.375-4.399 2.087-13.892-1.413-21.193-7.815z"/><path fill="#EFEA62" d="M1029.906 73.551l1.482-.702-1.495-1.311-1.442.685a130.35 130.35 0 0 0-1.203-1.042l1.45-.687-1.494-1.313-1.482.703c-.326-.28-.647-.56-.958-.83l.002-.006-2.061-1.808-.96.459c.746.643 1.108.96 1.087.95.604.533.59.806.468.943l-1.688.799c.044.036.098.087.15.14l-.158-.137-2.365 1.119c-.139.031-.434.02-.86-.353.008.015-.354-.303-1.086-.953l-1.372.25 1.947 1.708c.362.317.712.631 1.062.939l-1.496.71 1.495 1.313 1.482-.702c.406.362.801.711 1.189 1.052l-1.484.695 1.495 1.311 1.494-.709c2.603 2.164 4.742 3.527 6.383 3.041 1.323-.388.937-1.418-.284-2.766 1.14.639 2.148.889 2.807.41.9-.656-.276-2.169-2.105-3.908zm-8.38.382l1.985-.94c1.018.894 4.372 3.595 3.202 4.147-1.117.533-4.173-2.32-5.187-3.207zm2.896-1.367l1.8-.853c.844.74 3.657 2.986 2.596 3.491-1.02.484-3.552-1.9-4.396-2.638z"/></g><g opacity=".8"><path fill="#E2AE44" d="M869.977 56.64l5.304-3.92c3.136-6.653 10.34-14.809 20.013-21.96 9.671-7.152 19.579-11.65 26.86-12.7l5.301-3.922 4.85 6.558c4.15 6.185-5.048 20.44-20.752 32.052-15.704 11.613-32.029 16.232-36.722 10.447l-.005.004-4.85-6.558z"/><path d="M866.518 43.087l50.15-37.083 16.259 21.989-50.15 37.082-16.259-21.988z"/><path fill="#EDDA4B" d="M909.103 48.225c15.978-11.816 24.732-27.073 19.552-34.079s-22.334-3.108-38.313 8.708c-15.98 11.816-24.732 27.074-19.551 34.08 5.18 7.006 22.333 3.107 38.312-8.708z"/><path fill="#EDC44B" d="M907.852 46.534c13.85-10.24 21.436-23.464 16.946-29.536-4.49-6.071-19.356-2.693-33.205 7.548-13.848 10.24-21.435 23.463-16.945 29.535 4.49 6.072 19.356 2.693 33.204-7.547z"/><path fill="#EFEA62" d="M876.782 44.863l15.648-19.105 22.852-9.362 7.205 9.742-15.647 19.105-22.855 9.363-7.204-9.742zm28.028-12.771l1.663 2.249-2.343 3.932.501.676 4.254-1.106 2.738-2.025 2.977-10.337-6.291 2.062-3.499 4.549zm-16.866 3.497l.727 4.695 18.748-13.863-4.314-2.042-15.162 11.21zm5.59 1.911l3.06.668 1.061 2.485 3.703-2.739 3.78-2.795-2.025-1.773.219-3.092-9.798 7.245zm-7.866 9.375l10.808.17 2.777-2.054 2.291-3.76-.501-.676-4.446 1.088-1.663-2.249-5.4 2.058-3.867 5.423z"/></g><g opacity=".7"><path fill="#C4C4C4" d="M101.488 9.869l5.267 4.074c4.636 3.935.578 17.178-9.177 29.791-9.756 12.613-21.553 19.87-26.526 16.37l-.002.003-.135-.105-.02-.015-.023-.018-5.09-3.936 3.295-4.259c.986-5.924 4.833-13.93 10.84-21.699 6.009-7.767 12.791-13.503 18.277-15.946l3.295-4.26z"/><path fill="#F1F2F6" d="M92.81 40.295c9.926-12.834 14.019-26.295 9.142-30.067S85.076 13.802 75.15 26.635C65.224 39.47 61.131 52.93 66.008 56.702s16.876-3.574 26.802-16.407z"/><path fill="#DEE1EF" d="M91.632 39.384c8.603-11.123 12.15-22.79 7.925-26.058-4.227-3.269-14.627 3.097-23.23 14.22-8.602 11.121-12.15 22.788-7.923 26.057 4.226 3.27 14.626-3.098 23.229-14.22z"/><path fill="#F1F2F6" fill-rule="nonzero" d="M78.175 28.808l12.863-4.687-8.666 7.933-4.197-3.246zm3.835 3.714l-5.5 10.383 1.303-13.63 4.197 3.247zm10.06-7.234l-2.123 12.625-2.776-2.148 4.899-10.477zm-5.261 10.944l2.776 2.148-11.683 5.224 8.907-7.37zM91.313 24.2l-5.067 10.849-3.678-2.845 8.745-8.004zm-9.106 8.473l3.675 2.843-9.226 7.635 5.55-10.478z"/></g><g opacity=".511"><path fill="#C4C4C4" d="M1097.051 142.492l2.218 4.908c1.815 4.568-6.3 12.406-18.292 17.612-12.12 5.261-23.608 5.843-25.662 1.298l.068.143-.002.001-2.218-4.908 4.05-1.758c3.029-3.824 8.944-8.028 16.328-11.234 7.385-3.206 14.536-4.675 19.461-4.304l4.05-1.758z"/><path fill="#F1F2F6" d="M1078.953 160.013c12.12-5.298 20.29-13.277 18.251-17.82-2.04-4.546-13.518-3.936-25.637 1.36-12.12 5.298-20.29 13.277-18.251 17.82 2.04 4.546 13.518 3.936 25.637-1.36z"/><path fill="#DEE1EF" d="M1078.461 158.915c10.504-4.591 17.586-11.505 15.818-15.445-1.768-3.938-11.715-3.41-22.22 1.181-10.503 4.59-17.585 11.505-15.817 15.444 1.767 3.94 11.715 3.41 22.22-1.18z"/><path fill="#F1F2F6" fill-rule="nonzero" d="M1072.896 146.254l11.066 1.608-9.31 2.304-1.755-3.912zm1.315 4.104l-7.986 5.256 6.23-9.168 1.755 3.913zm10.039-1.274l-6.429 8.142-1.161-2.589 7.591-5.553zm-8.032 5.746l1.161 2.588-10.424-.774 9.263-1.814zm7.912-6.807l-7.858 5.75-1.538-3.425 9.395-2.325zm-9.837 2.517l1.537 3.427-9.597 1.877 8.06-5.304z"/></g><path fill="#C4C4C4" d="M891.165 111.747l7.568 8.611c12.705 3.825 28.354 14.695 42.156 30.399 13.803 15.704 22.575 32.618 24.737 45.709l7.569 8.61-12.339 10.846c-11.647 9.45-38.926-3.305-61.337-28.804s-31.559-54.189-20.686-64.52l-.006-.007 12.338-10.844z"/><path d="M917.168 98.885l71.57 81.429-41.37 36.36-71.569-81.428 41.37-36.36z"/><path fill="#F1F2F6" d="M908.401 178.757c22.805 25.946 51.976 37.587 65.157 26.001 13.183-11.586 5.382-42.01-17.423-67.956-22.803-25.945-51.975-37.585-65.158-25.999s-5.38 42.01 17.424 67.955z"/><path fill="#DFE0E4" d="M911.584 175.96c19.763 22.486 45.046 32.575 56.47 22.535 11.423-10.042 4.663-36.41-15.101-58.895-19.762-22.485-45.046-32.575-56.47-22.534-11.423 10.04-4.662 36.408 15.1 58.894z"/><path fill="#F1F2F6" d="M924.65 160.257l7.38-1.8 6.663 5.236 4.34-1.056.028-.117-6.559-5.157 12.392-3.023-11.064-12.589-16.183 3.935-5.16-4.056-4.471 1.092 5.156 4.053-9.538 2.318 29.446 33.503 5.953-1.424-18.382-20.915z"/><path d="M13 53h137.89v60.46H13V53z" filter="url(#b)" transform="rotate(-45 173.724 120.989)"/><path fill="#E2AE44" d="M137.253 101.81l12.75 12.75-.008.009c11.11 12.155-4.335 46.336-34.867 76.868-30.533 30.532-64.713 45.977-76.869 34.868l-.008.008-12.75-12.75 10.31-10.312c4.681-15.574 17.762-35.761 36.566-54.565 18.803-18.804 38.99-31.885 54.565-36.565l10.311-10.311z"/><path fill="#EDDA4B" d="M106.792 183.85c31.067-31.067 45.209-67.293 31.587-80.915-13.622-13.622-49.848.52-80.915 31.587-31.067 31.068-45.21 67.294-31.588 80.916 13.622 13.621 49.848-.52 80.916-31.588z"/><path fill="#EDC44B" fill-rule="nonzero" d="M91.072 191.71c-28.965 23.262-56.476 27.565-61.405 9.595-4.944-17.955 14.533-51.379 43.507-74.633 28.98-23.278 56.474-27.565 61.417-9.611 4.945 17.955-14.546 51.394-43.52 74.648z"/><path fill="#EFEA62" d="M84.465 139.976l-1.66-6.049-5.936 4.76 1.62 5.887a561.095 561.095 0 0 0-4.721 3.84l-1.626-5.922-5.936 4.76 1.66 6.048a478.714 478.714 0 0 1-3.766 3.06l-.014-.014-8.182 6.566 1.088 3.921c2.918-2.383 4.354-3.538 4.306-3.464 2.404-1.923 3.428-1.691 3.861-1.136l1.89 6.888c.166-.14.391-.31.63-.469a74.37 74.37 0 0 0-.625.504l2.642 9.65c.028.546-.208 1.65-1.899 3.007.063-.018-1.374 1.134-4.312 3.458l.034 5.336 7.724-6.201c1.435-1.155 2.854-2.266 4.243-3.375l1.685 6.104 5.936-4.76-1.66-6.049a772.844 772.844 0 0 0 4.753-3.778l1.632 6.05 5.936-4.76-1.679-6.097c9.881-8.371 16.437-15.528 15.696-22.028-.582-5.243-4.718-4.474-10.613-.77 3.166-3.873 4.778-7.503 3.41-10.303-1.871-3.82-8.352-.399-16.117 5.335zm-4.13 31.825l-2.224-8.104c4.042-3.24 16.449-14.084 17.751-9.308 1.267 4.558-11.508 14.18-15.528 17.412zm-3.226-11.818l-2.016-7.349c3.344-2.69 13.679-11.795 14.875-7.46 1.143 4.16-9.515 12.12-12.859 14.809z"/></g></g></svg>