<svg xmlns="http://www.w3.org/2000/svg" width="400" height="400" fill="none" viewBox="0 0 400 400"><path fill="#000" d="M303.934 161.03c.278-5.519.532-11.016.832-17.089h15.576V128.33h32.076v15.426h31.66v15.842h15.853v48.011h-15.946l.208.208v-32.192h-16.038V160.43h-15.922v31.522h-31.406v32.123h31.314c.254 5.75.485 10.9.716 16.05l.162-.162h-16.2v47.665c5.616.369 10.908.693 16.223 1.039l-.185-.116c-.254 4.919-.485 9.861-.763 15.427h-15.298v15.634h31.544c0-3.349.301-6.72-.069-10.023-.532-4.757 1.502-5.981 5.893-5.727 3.166.185 6.378-.462 9.567-.716l-.092-.115c.231 8.429.485 16.835.693 25.264.046 2.263 0 4.549 0 7.39h15.576v64.107h-15.53v-47.849h-16.592l.231.184v-15.772H352.88v15.772l.231-.184h-16.523v-15.542h-15.645v31.568h15.16c.3 5.751.554 11.016.832 16.281l.161-.184c-11.023.254-22.046.508-33.069.739v-32.447h-15.992v15.981h-15.437v16.281h31.567v15.265h-79.796v-63.831h-15.738v-16.511l-.208.231h15.992v-15.889h31.29V272.04H208.47v-15.912h31.659v-48.334h15.461v-16.119h-15.83v-47.549l-.255.207h16.547v15.519c12.479 0 24.311-.092 36.166.046 3.929.047 7.857.624 11.786.947-.023 4.665-.023 9.33-.047 13.995-2.218.3-4.437.831-6.678.854-8.204.093-16.431.046-24.796.046v47.665h31.544v-15.842H288.59V191.49h15.298v-16.743c5.362.416 10.7.832 16.13 1.247v-16.65c-5.661.647-10.884 1.155-16.084 1.686zm16.177 158.674v-47.226h-47.49v47.226h47.49zm-63.967 32.239h15.553v-15.704h-31.082v47.573h15.529v-31.869zm48.669-111.61v15.449h15.252v-15.449h-15.252zM127.656 272.34H95.673c.439-5.796.832-10.762 1.201-15.75 4.877-.3 9.753-.577 14.559-.877v-15.265H95.511c.508 5.727.994 10.992 1.479 16.258-5.338-.3-10.676-.624-16.824-.97v-15.38h-16.06v15.611h-16.2v15.796H32.168v-47.711h47.49v-32.169H64.313v-15.958h15.368v-47.526h47.79v15.981l.208-.231H96.412v16.327h31.244l-.115-.139c-.116 4.85-.255 9.722-.37 14.572-10.214.462-20.429.901-30.805 1.363v15.657h15.09v16.004h-15.16v15.564h47.098v-16.049h-15.553c0-2.841.046-5.127 0-7.39-.231-8.383-.485-16.812-.739-25.218l32.954.623-.162-.161v48.519h16.338v16.442h-16.338v16.05l.162-.162H143.74v-15.634h-16.222v31.985l.138-.162zM400 111.587H288.52V.231H400v111.356zm-15.876-95.352h-79.311v79.071h79.311V16.235zM.023.07h111.48v111.333H.023V.07zM15.9 95.307h79.59V16.166H15.9v79.14zM111.318 400H0V288.459h111.318V400zm-95.396-16.165H95.58v-79.442H15.922v79.442z"/><path fill="#000" d="M127.471 144.38c5.154-.231 10.284-.462 16.223-.716v-15.427h16.038v15.219h16.269v-31.407l-.162.185 16.87.069-.162-.185v15.357h31.475v-31.43h15.483v48.312l.255-.208h-47.929v16.881l.139-.162c-5.131-.392-10.284-.808-16.061-1.247v15.681h-16.015l.161.161V160.36h-32.514l.115.139c0-5.45.023-10.877.023-16.327l-.208.208zm16.2 223.728v-31.846h16.408v-16.65l-.185.208h32.515l-.162-.162v32.239h-15.784v16.096h15.761v16.534l.161-.161h-32.283v-16.42h-16.616l.185.162zm64.983-48.519c-5.453.023-10.93.023-16.384.046l.162.162V303.77h-16.523v-15.265h-15.992l.162.162v-32.516l-.162.162h16.454v15.888h15.899v15.935h16.2v31.684l.184-.231zM143.856 79.464h-15.715V47.826h15.599V32.261h48.507v14.965l.185-.116h-32.631v16.581h-16.084v15.935l.139-.162z"/><path fill="#000" d="M160.079 319.612h-32.423V272.34l-.139.185h16.524v15.126c5.754.369 10.884.693 16.014 1.039l-.161-.162v31.292l.185-.208zm223.929-112.003v15.958h15.923v32.146H384.54v-15.75h-16.731l.231.185v-32.331h16.199l-.231-.208zm-368.941-.3c.185 10.161.44 20.322.509 30.483.092 11.131.023 22.285.023 33.878H.046v-64.222H15.23l-.162-.139zm177.18-160.06c10.838 0 21.676.023 32.538.023l-.139-.092v16.304h15.137l-.231-.231c.254 5.126.508 10.253.785 15.888h-31.96V63.299H192.27l.139.162c0-5.45 0-10.9.023-16.35l-.185.138z"/><path fill="#000" d="M239.621 47.272h16.246V16.235h15.853v47.04h-32.168l.231.232c0-5.45-.023-10.877-.023-16.327l-.139.092zm32.053 80.411h-15.183V80.065h15.183v47.618zM143.625 95.56c.069-5.357.161-10.715.231-16.096l-.139.162h32.515l-.185-.185-.208 32.77.162-.185h-15.807v-16.72H143.44l.185.254zM31.22 144.818h32.377v14.942H47.998v15.657H31.29v-30.691l-.07.092zm336.589 95.145v47.734c-5.061.3-10.007.577-14.929.854l.185.116v-48.704l-.162.162h15.137l-.231-.162z"/><path fill="#000" d="M224.785 47.272c-.185-13.764-.393-27.527-.555-41.29-.023-1.871.162-3.719.278-5.89h15.113v47.18l.139-.115h-15.091l.116.115zM31.313 144.703c-7.788-.254-15.575-.531-23.363-.739-2.473-.069-4.946 0-7.88 0v-15.496h31.174v16.35c-.023 0 .07-.115.07-.115zm-16.061 62.768v-15.242h16.13v15.126H15.09c-.023-.046.162.116.162.116zm177.48-95.145V96.091h15.067v16.027H192.57c0 .023.162.208.162.208zm-49.269-16.95v16.188h-15.206v-15.98h15.391c-.023-.024-.185-.209-.185-.209zm48.807-32.077v16.165h-16.223l.185.185V63.484h16.177l-.139-.185zM160.356 0h15.414v15.31h-15.414V0zm223.398 303.146c.324-4.734.647-9.445 1.017-14.618H400v15.704c-5.5-.393-10.908-.785-16.338-1.178 0-.023.092.092.092.092zm-15.968 48.82c.231 5.219.485 10.438.739 15.957h-16.223c.278-5.542.555-10.738.832-15.957l-.231.185h15.137l-.254-.185zm-159.178-95.63h-16.361v-32.515h16.361v32.515z"/><path fill="#000" d="M192.409 223.982H176.07v-16.073h16.431l-.162-.161c.046 5.404.07 10.831.07 16.234zm.115-16.073V192.16h15.252v15.588h-15.414l.162.161zm-.693-46.879c5.223-.508 10.422-.993 16.061-1.524v15.773h-15.899c0-4.642 0-9.515-.023-14.411l-.139.162zm112.242 142.763h-15.368v-15.242h15.368v15.242zm63.921-224.421h-47.167V32.238h47.167v47.134zm-288.521-.069H32.03V32.215h47.444v47.088zM31.868 367.877v-47.48H79.45v47.48H31.868z"/></svg>