<svg xmlns="http://www.w3.org/2000/svg" width="120" height="120" viewBox="0 0 120 120"><g fill="#DEE1EF" fill-rule="evenodd" opacity=".5"><path d="M45 5c22.091 0 40 17.909 40 40S67.091 85 45 85 5 67.091 5 45 22.909 5 45 5zm3.115 15h-8.583v5.083C33.414 26.452 30 30.85 30 36.373c0 7.185 4.458 10.802 11.002 12.122l2.893.635c3.651.733 4.932 2.102 4.932 4.399S47.45 57.39 44.7 57.39s-4.126-1.564-4.126-3.861v-.88H30.332v.782c0 5.816 3.51 10.215 10.1 11.535V70h8.584v-5.034c6.64-1.369 10.054-5.963 10.054-11.926 0-6.99-3.936-10.948-10.86-12.414l-2.893-.538c-3.651-.782-5.074-2.004-5.074-4.203 0-2.004 1.233-3.226 3.557-3.226 2.276 0 3.557 1.222 3.557 3.226v.684H57.6v-.684c0-4.986-3.32-9.385-9.485-10.802V20z"/><path d="M86.89 69.99a4 4 0 0 1 2.437.829l24.096 18.509a4 4 0 0 1 0 6.344l-24.096 18.51a4 4 0 0 1-6.437-3.173v-10.531H27a2 2 0 0 1-2-2V86.522c0-.066.003-.132.01-.196A44.802 44.802 0 0 0 45 91a44.786 44.786 0 0 0 23.273-6.478H82.89V73.991a4 4 0 0 1 4-4z"/></g></svg>