<svg xmlns="http://www.w3.org/2000/svg" width="120" height="120" viewBox="0 0 120 120"><g fill="#DEE1EF" fill-rule="evenodd" opacity=".5"><path d="M60 25c19.33 0 35 15.67 35 35S79.33 95 60 95 25 79.33 25 60s15.67-35 35-35zm3.202 13h-7.677v4.473C50.054 43.677 47 47.548 47 52.41c0 6.322 3.987 9.505 9.84 10.666l2.587.56c3.266.645 4.411 1.849 4.411 3.87 0 2.022-1.23 3.398-3.69 3.398s-3.69-1.376-3.69-3.398v-.774h-9.161v.688c0 5.119 3.139 8.99 9.034 10.15V82h7.677v-4.43C69.946 76.366 73 72.323 73 67.075c0-6.15-3.52-9.634-9.713-10.924l-2.587-.474c-3.266-.688-4.538-1.763-4.538-3.699 0-1.763 1.102-2.838 3.18-2.838 2.036 0 3.182 1.075 3.182 2.838v.603h9.161v-.603c0-4.387-2.969-8.258-8.483-9.505V38z"/><path d="M96 5c.915 0 1.802.314 2.514.889l19.574 15.818a4 4 0 0 1 0 6.222L98.514 43.748c-.213.172-.44.32-.674.44a40.981 40.981 0 0 0-5.839-9.821L92 32.818h-1.305C83.185 24.344 72.216 19 60 19c-12.216 0-23.184 5.343-30.695 13.819H24a2 2 0 0 1-2-2v-12a2 2 0 0 1 2-2h68V9c0-2.21 1.79-4 4-4zm-.426 81.818a2 2 0 0 1 2 2v12a2 2 0 0 1-2 2h-68v7.819a4 4 0 0 1-6.514 3.11L1.486 97.93a4 4 0 0 1 0-6.223L21.06 75.89c.283-.229.587-.413.905-.552a40.917 40.917 0 0 0 5.608 9.755v1.726l1.414.001C36.505 95.505 47.611 101 60 101c12.39 0 23.495-5.495 31.013-14.181h4.56z"/></g></svg>