<svg xmlns="http://www.w3.org/2000/svg" width="120" height="120" viewBox="0 0 120 120"><g fill="#DEE1EF" fill-rule="evenodd" opacity=".5"><g fill-rule="nonzero" transform="translate(4 5)"><path d="M106.909.174c2.8 0 5.091 2.285 5.091 5.077v55.846c0 2.793-2.291 5.077-5.091 5.077H5.09C2.291 66.174 0 63.89 0 61.097V5.251C0 2.46 2.291.174 5.091.174h101.818zM97.16 4.822H15.773c0 5.578-4.578 10.14-10.173 10.14v35.494c5.595 0 10.173 4.563 10.173 10.14H97.16c0-5.577 4.578-10.14 10.173-10.14V14.963c-5.595 0-10.173-4.563-10.173-10.14z"/><path d="M55.5 10.174c11.322 0 20.5 10.074 20.5 22.5 0 12.427-9.178 22.5-20.5 22.5S35 45.101 35 32.674c0-12.426 9.178-22.5 20.5-22.5zm2.733 7.448h-5.247v3.029c-3.74.815-5.827 3.436-5.827 6.727 0 4.28 2.725 6.436 6.726 7.222l1.768.379c2.233.437 3.015 1.252 3.015 2.62 0 1.37-.84 2.301-2.522 2.301-1.681 0-2.522-.932-2.522-2.3v-.524h-6.262v.466c0 3.465 2.145 6.086 6.175 6.872v3h5.247v-3c4.059-.815 6.146-3.553 6.146-7.105 0-4.165-2.406-6.524-6.639-7.397l-1.768-.32c-2.232-.467-3.102-1.195-3.102-2.505 0-1.194.754-1.922 2.174-1.922 1.392 0 2.175.728 2.175 1.922v.407h6.262v-.407c0-2.97-2.03-5.592-5.799-6.436v-3.029z"/><circle cx="23" cy="33.174" r="5"/><circle cx="89" cy="33.174" r="5"/></g><path d="M38.656 93.82a2 2 0 0 1 1.472-.646l11.372.001v-14.5a2 2 0 0 1 2-2h13a2 2 0 0 1 2 2v14.5h11.372a2 2 0 0 1 1.354 3.471l-19.872 18.282a1.998 1.998 0 0 1-2.708 0L38.774 96.646a2 2 0 0 1-.118-2.826z"/></g></svg>