<svg xmlns="http://www.w3.org/2000/svg" width="22" height="20" fill="none" viewBox="0 0 22 20"><g clip-path="url(#clip0)"><path fill="#3CC8C8" d="M10.73.06c.48-.247 1.065.324.81.795-.148.384-.71.487-.996.194-.303-.281-.204-.837.186-.99zM5.573.605c.291-.118.66.145.63.457.03.34-.39.589-.687.428-.394-.15-.349-.779.057-.885zm10.563.894c-.456-.054-.528-.758-.09-.9.34-.163.652.142.702.46-.071.27-.302.518-.612.44zm-9.39 1.265c.487-.303 1.182.149 1.107.705-.025.562-.784.888-1.212.508-.413-.299-.351-.983.105-1.212zm7.434.322c.217-.55 1.098-.568 1.345-.03.244.417-.056.933-.492 1.075-.576.106-1.124-.507-.853-1.044zM10.109 4.1c-.005-.474.434-.827.891-.859.303.06.634.187.764.488.243.416.027.988-.41 1.179-.201.11-.438.069-.656.056-.334-.161-.615-.477-.589-.864zm-7.67.69c.445-.27 1.045.222.877.697-.093.411-.655.579-.976.316-.343-.246-.289-.837.1-1.013zm16.47-.001c.377-.289 1 .042.955.51.026.428-.513.75-.888.53-.412-.182-.454-.807-.067-1.04zm-6.643.85c.623-.22 1.363.044 1.717.59.469.668.22 1.685-.507 2.068-.753.454-1.853.07-2.13-.758-.316-.74.144-1.667.92-1.9zm-3.654.074c.69-.32 1.619-.052 1.952.643.393.676.09 1.618-.612 1.967-.702.392-1.693.095-2.033-.631-.381-.702-.043-1.656.693-1.98zm-3.66 1.23c.054-.437.473-.722.896-.751.456.054.82.402.87.857-.03.45-.383.889-.867.886-.533.045-1-.476-.898-.991zm10.808-.656c.547-.313 1.306.143 1.282.761.038.655-.803 1.117-1.348.733-.565-.32-.521-1.221.066-1.494zM7.125 8.596c.64-.173 1.37.124 1.684.702.344.583.204 1.392-.33 1.819-.685.626-1.947.374-2.311-.48-.42-.784.09-1.834.957-2.04zm6.93-.003c.622-.175 1.353.06 1.687.618.442.638.231 1.589-.427 2-.69.477-1.757.226-2.136-.52-.46-.772.003-1.862.877-2.098zM3.01 9.32c.553-.205 1.165.395.942.934-.137.49-.84.672-1.204.31-.425-.34-.267-1.096.263-1.244zm14.977.783a.838.838 0 0 1 .789-.875c.378.06.746.36.716.765.035.535-.62.899-1.084.647-.218-.108-.33-.328-.42-.538zM.294 9.584c.332-.142.743.141.668.504-.018.412-.635.57-.862.226-.2-.238-.08-.606.194-.73zm20.96-.008c.234-.164.61-.046.702.223.157.294-.131.696-.468.646-.471.043-.624-.665-.235-.87zM8.93 11.55c.875-.224 1.815.493 1.82 1.38.058.895-.868 1.69-1.764 1.482-.692-.11-1.235-.765-1.212-1.453-.002-.658.503-1.27 1.156-1.41zm3.465-.002c.887-.244 1.856.486 1.841 1.393.047.879-.85 1.646-1.727 1.472-.825-.105-1.433-.997-1.203-1.785.116-.524.562-.951 1.089-1.08zm-6.68.545c.615-.103 1.19.572.941 1.146-.181.611-1.086.777-1.486.277-.469-.48-.119-1.356.545-1.423zm10.16.028c.547-.226 1.22.24 1.177.826.022.644-.808 1.088-1.344.712-.607-.338-.496-1.33.166-1.538zm2.839 2.802c-.215-.393.175-.914.619-.842.22-.003.376.168.517.312.029.233.078.51-.119.691-.267.333-.872.238-1.017-.16zm-16.276-.732c.415-.272 1.012.133.918.61-.05.423-.59.664-.946.425-.382-.217-.368-.836.028-1.035zm8.197.884c.543-.236 1.235.23 1.184.818.04.65-.816 1.101-1.347.71-.59-.335-.491-1.322.163-1.528zm-3.797.871c.462-.24 1.083.174 1.041.684.014.418-.4.775-.82.713-.348-.007-.575-.314-.686-.605.006-.318.139-.672.465-.792zm7.69.008c.476-.29 1.152.126 1.107.67.012.57-.752.935-1.195.56-.429-.292-.376-.997.088-1.23zm1.338 3.253c-.211-.315.037-.695.38-.767.277.056.57.26.511.575-.04.427-.674.558-.891.192zM5.25 18.933c.084-.25.288-.498.587-.433.435.03.565.676.183.875-.342.228-.74-.084-.77-.442zm5.121.287c.084-.37.57-.55.89-.353.211.09.273.322.328.52-.03.103-.055.207-.08.31-.132.153-.3.306-.519.3-.405.047-.771-.404-.619-.777z"/></g><defs><clipPath id="clip0"><path fill="#fff" d="M0 0h22v20H0z"/></clipPath></defs></svg>