<svg xmlns="http://www.w3.org/2000/svg" width="23" height="20" fill="none" viewBox="0 0 23 20"><g clip-path="url(#clip0)"><path fill="#000" d="M19.475 1.917L15.88 0H7.014L3.596 1.953 0 6.763l11.5 13.273L23 6.763l-3.525-4.846zm2.35 4.63L17.34 8.86l-1.46-4.521 3.311-1.628 2.635 3.834zM7.3.722h8.295l2.813 1.483L15.56 3.58H7.263L4.771 2.242 7.299.723zm-3.454 1.99l2.92 1.627-1.033 4.52-4.736-2.42 2.848-3.726zM1.923 7.811L5.59 9.729l4.486 7.848-8.153-9.765zm9.541 10.741l-5.09-8.969L7.618 4.34h7.584l1.353 5.1-5.092 9.113zm1.282-1.012l4.557-7.776 3.81-1.953-8.367 9.729z"/><path fill="#FCC339" d="M14.74 10.416a2.197 2.197 0 0 0-1.033-1.157 1.08 1.08 0 0 0 .641-.615c.071-.217.071-.398.036-.615 0 0-.036-.326-.143-.615-.213-.47-.925-.904-1.922-1.013V5.244h-.89v1.157h-.677V5.244h-.925v1.157h-1.46v.76a1.08 1.08 0 0 1 .783.506c.143.217.143.398.178.507l.071 2.893c0 .362-.142.687-.427.868-.356.217-.712.108-.783.108v.832H9.79v1.23h.961V13.02h.677l.035 1.085h.89V12.91h.855c.325.004.646-.084.926-.253.676-.47.89-1.483.605-2.242zm-3.917-2.857h1.14c.427 0 .783.325.783.76 0 .433-.32.795-.748.795h-1.175V7.559zm1.425 4.267h-1.353v-1.7h1.353c.427.037.783.398.819.796.035.47-.32.868-.82.904z"/></g><defs><clipPath id="clip0"><path fill="#fff" d="M0 0h23v20H0z"/></clipPath></defs></svg>