<svg xmlns="http://www.w3.org/2000/svg" width="20" height="20" fill="none" viewBox="0 0 20 20"><g clip-path="url(#clip0)"><path fill="#fff" d="M0 3.746h20v12.501H0v-12.5z"/><path fill="#F7931A" d="M0 3.746h5.712a7.674 7.674 0 0 0-3.215 6.248c0 1.225.291 2.436.853 3.526a7.58 7.58 0 0 0 2.362 2.727H0v-12.5zm9.997 0a6.115 6.115 0 0 0-4.352 1.828 6.31 6.31 0 0 0-1.8 4.42c0 1.658.65 3.248 1.8 4.42a6.106 6.106 0 0 0 4.352 1.827 6.12 6.12 0 0 0 4.352-1.828 6.31 6.31 0 0 0 1.8-4.42c0-1.658-.65-3.248-1.8-4.42a6.11 6.11 0 0 0-4.352-1.827zm10.003 0h-5.712a7.592 7.592 0 0 1 2.362 2.728A7.679 7.679 0 0 1 17.502 10c0 1.225-.29 2.437-.852 3.527a7.589 7.589 0 0 1-2.362 2.727H20V3.746z"/><path fill="#fff" d="M12.717 8.164c-.277-.791-1.035-.886-1.922-.744l-.277-1.124-.677.17.27 1.096c-.175.048-.358.095-.534.142l-.27-1.103-.678.17.278 1.123c-.142.04-.291.081-.427.115v-.007l-.934.237.183.731s.494-.135.487-.122c.271-.067.4.068.46.203l.319 1.286c.027-.006.047-.013.074-.013l-.074.02.44 1.8c.006.088-.007.244-.197.291a8.5 8.5 0 0 1-.494.122l.068.853.88-.223c.162-.04.325-.081.48-.115l.278 1.137.677-.17-.278-1.13c.19-.04.366-.088.541-.129l.278 1.124.677-.17-.278-1.136c1.117-.352 1.841-.846 1.672-1.956-.135-.894-.636-1.178-1.32-1.171.345-.305.501-.724.298-1.307zm-.345 2.674c.21.853-1.252 1.117-1.706 1.232l-.372-1.51c.46-.108 1.861-.602 2.078.278zm-.832-2.044c.19.771-1.03.988-1.408 1.083L9.793 8.51c.38-.102 1.543-.528 1.747.284z"/></g><defs><clipPath id="clip0"><path fill="#fff" d="M0 0h20v20H0z"/></clipPath></defs></svg>