<svg xmlns="http://www.w3.org/2000/svg" width="20" height="20" fill="none" viewBox="0 0 20 20"><g clip-path="url(#clip0)"><path fill="#0F2068" d="M9.47 0h1.042c1.087.072 2.168.289 3.178.697 2.5.983 4.563 3.022 5.57 5.514 1.386 3.318.791 7.365-1.523 10.126-1.566 1.922-3.869 3.231-6.327 3.564-2.307.329-4.728-.168-6.702-1.415a9.987 9.987 0 0 1-3.598-3.91 9.99 9.99 0 0 1-.905-6.593 10.007 10.007 0 0 1 4-6.136C5.735.74 7.59.117 9.47 0zm-.62.453C5.808.802 3.012 2.718 1.562 5.412a9.56 9.56 0 0 0-1.077 5.926 9.64 9.64 0 0 0 3.6 6.223 9.574 9.574 0 0 0 5.18 2.02 9.543 9.543 0 0 0 6.065-1.595 9.657 9.657 0 0 0 4.139-6.331c.254-1.507.168-3.077-.298-4.534a9.663 9.663 0 0 0-3.96-5.192A9.56 9.56 0 0 0 8.85.453z"/><path fill="#0F2068" d="M9.091 4.391c1.739-.291 3.604.279 4.855 1.527a5.554 5.554 0 0 1 1.726 4.098 5.553 5.553 0 0 1-1.734 4.069c-1.203 1.196-2.972 1.767-4.649 1.546a5.677 5.677 0 0 1-3.957-2.403c-.994-1.408-1.268-3.282-.752-4.923.604-2.02 2.428-3.599 4.511-3.914zm.347.346c.001.497.002.994.001 1.491l.744.001c.001-.51.002-1.02 0-1.529-.248.008-.497.02-.745.037zm1.789 1.515c.653.088 1.355.188 1.876.629.795.714.692 2.213-.281 2.731.583.136 1.16.525 1.304 1.137.187.803.038 1.767-.607 2.333-.639.526-1.504.595-2.294.67.004.465.002.93.001 1.396 1.663-.407 3.098-1.645 3.708-3.247.579-1.478.442-3.217-.375-4.578a5.423 5.423 0 0 0-3.329-2.476c-.004.468-.004.936-.003 1.405zm-4.963-.02c.72.035 1.441.027 2.162.026 0-.439.001-.877-.002-1.316-.807.262-1.526.732-2.16 1.29zm-.086.058c-.191.235-.545.679-.755 1.072-.847 1.443-.943 3.295-.236 4.813.61 1.36 1.82 2.42 3.237 2.876.002-.438.001-.876.001-1.313-.723-.007-1.448.019-2.17-.02.008-.403.103-.797.24-1.177.354-.007.723.055 1.065-.061.2-.168.143-.446.154-.676-.011-1.315.005-2.63-.007-3.944.013-.212-.12-.441-.34-.483-.363-.073-.737-.044-1.104-.047a6.843 6.843 0 0 1-.052-.894s.005-.094-.027-.155l-.006.009zm3.291 1.13v1.938c.647-.012 1.365.06 1.931-.316.47-.308.44-1.087-.045-1.364-.567-.335-1.258-.24-1.886-.258zm0 2.981v2.15c.799-.064 1.695.07 2.39-.412.497-.33.437-1.147-.075-1.433-.696-.416-1.542-.284-2.315-.305zm-.029 3.366l-.002 1.492c.259.017.517.027.776.035.002-.51.001-1.018.001-1.527H9.44z"/><path fill="#DDAB34" d="M8.908.972c1.752-.188 3.566.079 5.14.887a9.076 9.076 0 0 1 4.442 4.887 9.154 9.154 0 0 1-.047 6.63c-1.282 3.313-4.667 5.695-8.231 5.7a8.958 8.958 0 0 1-5.838-1.93 9.065 9.065 0 0 1-3.33-5.573c-.381-2.162.046-4.459 1.202-6.328C3.659 2.901 6.19 1.281 8.908.972zm-.305 2.934a6.243 6.243 0 0 0-4.808 6.829 6.208 6.208 0 0 0 2.481 4.285 6.235 6.235 0 0 0 4.545 1.172c1.965-.24 3.772-1.491 4.689-3.246.687-1.252.875-2.74.623-4.137a6.263 6.263 0 0 0-2.851-4.131 6.298 6.298 0 0 0-4.679-.772z"/></g><defs><clipPath id="clip0"><path fill="#fff" d="M0 0h19.999v20H0z"/></clipPath></defs></svg>