<svg xmlns="http://www.w3.org/2000/svg" width="20" height="20" fill="none" viewBox="0 0 20 20"><circle cx="10" cy="10" r="10" fill="#101010"/><path fill="url(#paint0_linear)" fill-rule="evenodd" d="M9.968 7.132h3.362c1.473 0 2.67 1.145 2.67 2.554v3.76C16 14.855 14.803 16 13.33 16H9.973c-1.473 0-2.67-1.145-2.67-2.554V9.989H4.256A.251.251 0 0 1 4 9.744V7.377c0-.135.115-.245.256-.245h5.712zm.323 2.851h2.728v3.16H10.29v-3.16z" clip-rule="evenodd"/><path fill="url(#paint1_linear)" d="M10.034 4H7.56a.25.25 0 0 0-.256.245v8.893h2.987V4.245A.251.251 0 0 0 10.034 4z"/><defs><linearGradient id="paint0_linear" x1="10.288" x2="10.288" y1="7.129" y2="16" gradientUnits="userSpaceOnUse"><stop stop-color="#75B1C9"/><stop offset="1" stop-color="#285A79"/></linearGradient><linearGradient id="paint1_linear" x1="8.795" x2="8.795" y1="13.138" y2="4" gradientUnits="userSpaceOnUse"><stop stop-color="#407592"/><stop offset="1" stop-color="#6D68D4"/></linearGradient></defs></svg>