<svg xmlns="http://www.w3.org/2000/svg" width="26" height="20" fill="none" viewBox="0 0 26 20"><g clip-path="url(#clip0)"><path fill="url(#paint0_linear)" d="M11.429 12.415h6.411c2.382 0 4.334-1.922 4.334-4.324s-1.927-4.298-4.308-4.298h-2.053L11.429 0h6.411c4.486-.025 8.135 3.59 8.135 8.066.025 3.312-2.002 6.296-5.094 7.534l5.068 4.375h-5.777l-8.743-7.56z"/><path fill="#4971FA" d="M14.57 7.585H8.16c-2.383 0-4.334 1.922-4.334 4.324s1.926 4.324 4.333 4.324h2.053l4.358 3.792H8.16C3.673 20.025.024 16.41 0 11.96A8.07 8.07 0 0 1 5.092 4.4L.025 0h5.803l8.742 7.585z"/><path fill="url(#paint1_linear)" d="M14.57 7.585H8.16c-2.383 0-4.334 1.922-4.334 4.324s1.926 4.324 4.333 4.324h2.053l4.358 3.792H8.16C3.673 20.025.024 16.41 0 11.96A8.07 8.07 0 0 1 5.092 4.4L.025 0h5.803l8.742 7.585z"/></g><defs><linearGradient id="paint0_linear" x1="11.441" x2="25.969" y1="9.989" y2="9.989" gradientUnits="userSpaceOnUse"><stop stop-color="#62D0C9"/><stop offset="1" stop-color="#7DE2AC"/></linearGradient><linearGradient id="paint1_linear" x1=".045" x2="14.573" y1="10" y2="10" gradientUnits="userSpaceOnUse"><stop stop-color="#3268FB"/><stop offset="1" stop-color="#4795FA"/></linearGradient><clipPath id="clip0"><path fill="#fff" d="M0 0h26v20H0z"/></clipPath></defs></svg>