<svg xmlns="http://www.w3.org/2000/svg" width="15" height="20" fill="none" viewBox="0 0 15 20"><path fill="#1E1E1E" d="M7.6 0C3.41.017.018 3.4 0 7.577c0 .836.135 1.667.4 2.46.199.54.786.832 1.338.665.533-.204.816-.785.646-1.328a4.988 4.988 0 0 1-.296-1.932c.091-3.017 2.619-5.39 5.646-5.298 3.026.09 5.406 2.61 5.315 5.627a5.472 5.472 0 0 1-5.148 5.29s-1.067.066-1.597.13c-.196.028-.39.067-.582.115a.07.07 0 0 1-.099.001.068.068 0 0 1 0-.085l.164-.898L6.79 7.83a1.042 1.042 0 0 0-2.037-.434S2.37 18.391 2.37 18.491a.997.997 0 0 0 .723 1.214l.018.004h.055a1 1 0 0 0 1.22-.717l.007-.027a.209.209 0 0 1 0-.05c.03-.129.33-1.592.33-1.592a2.7 2.7 0 0 1 2.238-2.121c.23-.036 1.197-.1 1.197-.1 4.175-.415 7.221-4.125 6.804-8.286C14.581 3.02 11.427.099 7.601 0z"/><path fill="#E6007A" d="M8.062 17.47a1.266 1.266 0 0 0-1.499.978l-.004.02a1.257 1.257 0 0 0 .965 1.496h.036a1.241 1.241 0 0 0 1.499-.912l.004-.015v-.07a1.31 1.31 0 0 0-1.002-1.498z"/></svg>