<svg xmlns="http://www.w3.org/2000/svg" width="23" height="20" fill="none" viewBox="0 0 23 20"><g clip-path="url(#clip0)"><path fill="#02A6C2" d="M6.502.001h16.495c.002 1.778.002 3.554 0 5.331-5.498.002-10.997.002-16.495 0-.002-1.777-.002-3.554 0-5.33z"/><path fill="#5FCADE" d="M.007 7.338c1.774-.01 3.548-.01 5.322 0 .01 1.773.01 3.548 0 5.322-1.774.01-3.548.01-5.322 0-.01-1.774-.01-3.548 0-5.322zm6.499 0c3.968-.009 7.937-.009 11.904 0 .009 1.773.009 3.548 0 5.322-3.968.008-7.936.008-11.904 0a590.08 590.08 0 0 1 0-5.322z"/><path fill="#ABEBF4" d="M6.51 14.675c1.772-.019 3.542-.019 5.312 0 .019 1.77.02 3.54.001 5.312-1.77.018-3.541.017-5.311 0-.019-1.77-.019-3.54-.001-5.312z"/></g><defs><clipPath id="clip0"><path fill="#fff" d="M0 0h22.998v20H0z"/></clipPath></defs></svg>