<svg xmlns="http://www.w3.org/2000/svg" width="14" height="20" fill="none" viewBox="0 0 14 20"><g fill="#31CB9E" clip-path="url(#clip0)"><path d="M5.957 9.998l7.447 4.272a.395.395 0 0 0 .596-.341V6.062a.4.4 0 0 0-.052-.2.389.389 0 0 0-.544-.137L5.957 9.998zm7.289-6.165L8.156.083a.415.415 0 0 0-.18-.078.401.401 0 0 0-.458.293L5.66 8.65l7.542-4.176a.375.375 0 0 0 .044-.641M8.15 19.91l5.096-3.749a.378.378 0 0 0 .162-.337.397.397 0 0 0-.06-.183.396.396 0 0 0-.143-.13L5.66 11.335l1.858 8.352a.405.405 0 0 0 .45.305.407.407 0 0 0 .182-.076"/><path d="M4.021 9.843L5.957.776a.39.39 0 0 0-.022-.224.383.383 0 0 0-.573-.167L.402 4.194a1.027 1.027 0 0 0-.402.82v9.665a1.03 1.03 0 0 0 .403.832l4.935 3.797a.38.38 0 0 0 .429.005.384.384 0 0 0 .167-.396L4.02 9.843z"/></g><defs><clipPath id="clip0"><path fill="#fff" d="M0 0h14v20H0z"/></clipPath></defs></svg>