<svg xmlns="http://www.w3.org/2000/svg" width="20" height="20" fill="none" viewBox="0 0 20 20"><path fill="#88BDF3" d="M10 9.057a4.53 4.53 0 1 0-.002-9.058A4.53 4.53 0 0 0 10 9.057z"/><path fill="#3075EE" d="M10 20a4.528 4.528 0 1 0 0-9.057A4.528 4.528 0 0 0 10 20z"/><path fill="#5795F1" d="M15.472 14.528a4.528 4.528 0 1 0 0-9.057 4.528 4.528 0 0 0 0 9.057z"/><path fill="#205FEC" d="M4.528 14.528a4.529 4.529 0 1 0 0-9.057 4.529 4.529 0 0 0 0 9.057z"/><path fill="#134BEF" d="M8.934 8.934a4.52 4.52 0 0 1-2.132-1.198 4.537 4.537 0 0 1-1.198-2.132 4.555 4.555 0 0 1 3.33 3.33z"/><path fill="#0932E8" d="M5.594 14.406a4.531 4.531 0 0 1 3.331-3.33 4.566 4.566 0 0 1-3.331 3.33z"/><path fill="#164BEA" d="M11.066 11.066a4.524 4.524 0 0 1 3.33 3.33 4.554 4.554 0 0 1-3.33-3.33z"/><path fill="#3170F1" d="M14.406 5.594a4.53 4.53 0 0 1-3.331 3.331 4.56 4.56 0 0 1 3.331-3.33z"/></svg>