<svg xmlns="http://www.w3.org/2000/svg" width="17" height="20" fill="none" viewBox="0 0 17 20"><path fill="#9290B0" d="M12.752 7.501V12.5L17 10.005V4.998L12.752 7.5z"/><path fill="#A2EEE3" d="M17 15.002L12.752 12.5v5.007L17 20v-4.998z"/><path fill="#46DDC8" d="M8.505 4.998V0L0 4.998 4.248 7.5l4.256-2.503z"/><path fill="#262261" d="M8.505 15.002L4.248 12.5 0 15.002l4.248 2.504L8.504 20v-4.998z"/><path fill="#9290B0" d="M0 4.998v10.004L4.248 12.5v-5L0 4.998z"/><path fill="#46DDC8" d="M12.752 12.499l-4.247 2.503V20l4.247-2.494v-5.007z"/><path fill="#262261" d="M12.752 7.501L17 4.998l-4.248-2.495L8.505 0v4.998L12.752 7.5z"/></svg>