<svg xmlns="http://www.w3.org/2000/svg" width="22" height="20" fill="none" viewBox="0 0 22 20"><g fill="#5A97CD" clip-path="url(#clip0)"><path d="M13.336 19.379H7.288l-4.88-3.6-1.86-5.813 1.856-5.814 4.88-3.6h6.052l4.88 3.6 1.856 5.814-1.856 5.813-.068.069-4.812 3.53zm-5.912-.419H13.2l4.676-3.458 1.788-5.536-1.788-5.536L13.2.972H7.424L2.752 4.43.964 9.966l1.788 5.536 4.672 3.458z"/><path d="M20.764 18.408l-2.82-2.56-2.752-1.039-4.88.624-4.948-.624-2.752 1.039-.136-.415 2.816-1.107h.072l4.948.692 4.952-.692.068.068 2.888 1.108 2.816 2.629-.272.277z"/><path d="M13.2 19.584l-2.888-4.014-3.024 4.014-2.2-4.912.412-.209 1.924 4.292 2.888-3.946 2.82 3.946 1.924-4.292 2.612-5.258.62 6.434h-.412l-.484-4.912-1.924 3.945-2.268 4.912z"/><path d="M.824 9.756h19.112v.415H.824v-.415z"/><path d="M17.668 10.727l-2.404-4.775-2.064 4.497-2.888-5.19-2.956 5.19-2.064-4.497-2.404 4.775-.552-6.366.416-.068.412 4.98 2.128-4.219 2.064 4.497 2.956-5.121 2.82 5.121 2.132-4.497 2.128 4.15.344-4.911h.416l-.484 6.434z"/><path d="M15.056 5.606l-1.924-4.36-2.82 4.013-2.888-4.014L5.5 5.605 5.156 5.4 7.288.416l3.024 4.082L13.2.416 15.468 5.4l-.412.206zm2.82 10.033l-.484-4.912-2.128 4.292-2.132-4.57-2.82 5.19-2.956-5.19-2.064 4.57-2.128-4.292-.412 4.912h-.416l.552-6.434 2.404 4.843 2.064-4.497 2.956 5.19L13.2 9.55l2.064 4.566 2.404-4.912.62 6.434h-.412z"/><path d="M15.264 5.746l-5.02-.692-4.952.692-2.816-1.248.136-.414 2.752 1.175 4.88-.62 5.02.62 2.68-1.175.208.414-2.888 1.248zM7.356 19.999a.827.827 0 0 0 .824-.83.826.826 0 0 0-.824-.829.827.827 0 0 0-.824.83c0 .457.369.829.824.829zm5.776 0a.827.827 0 0 0 .824-.83.826.826 0 0 0-.824-.829.827.827 0 0 0-.824.83c0 .457.369.829.824.829zM7.356 1.66A.827.827 0 0 0 8.18.83a.827.827 0 0 0-.824-.829.827.827 0 0 0-.824.83c0 .458.369.829.824.829zm5.776 0a.827.827 0 0 0 .824-.83.827.827 0 0 0-.824-.829.827.827 0 0 0-.824.83c0 .458.369.829.824.829z"/><path d="M17.944 5.122c.455 0 .824-.37.824-.829a.827.827 0 0 0-.824-.83.827.827 0 0 0-.824.83c0 .458.369.83.824.83zm-15.4 0c.455 0 .824-.37.824-.829a.827.827 0 0 0-.824-.83.827.827 0 0 0-.824.83c0 .458.369.83.824.83zm0 11.418c.455 0 .824-.37.824-.829a.827.827 0 0 0-.824-.83.827.827 0 0 0-.824.83c0 .458.369.83.824.83zm-1.72-5.745a.827.827 0 0 0 .824-.83.827.827 0 0 0-.824-.829.827.827 0 0 0-.824.83c0 .458.369.83.824.83zm19.044 0a.827.827 0 0 0 .824-.83.827.827 0 0 0-.824-.829.827.827 0 0 0-.824.83c0 .458.369.83.824.83zm-2.336 0a.827.827 0 0 0 .824-.83.827.827 0 0 0-.824-.829.827.827 0 0 0-.824.83c0 .458.369.83.824.83zm-14.508 0a.827.827 0 0 0 .824-.83.827.827 0 0 0-.824-.829.827.827 0 0 0-.824.83c0 .458.369.83.824.83zm4.332 0a.827.827 0 0 0 .824-.83.827.827 0 0 0-.824-.829.827.827 0 0 0-.824.83c0 .458.369.83.824.83zm5.776 0a.827.827 0 0 0 .824-.83.827.827 0 0 0-.824-.829.827.827 0 0 0-.824.83c0 .458.369.83.824.83zm-2.006-5.817a.824.824 0 0 0-1.627-.265.824.824 0 1 0 1.627.265zM5.292 6.367a.827.827 0 0 0 .824-.83.827.827 0 0 0-.824-.83.827.827 0 0 0-.824.83c0 .458.369.83.824.83zm9.972 0a.827.827 0 0 0 .824-.83.827.827 0 0 0-.824-.83.827.827 0 0 0-.824.83c0 .458.369.83.824.83zm-4.952 9.686a.827.827 0 0 0 .824-.83.827.827 0 0 0-.824-.829.827.827 0 0 0-.824.83c0 .458.369.83.824.83zm-5.02-.693c.455 0 .824-.37.824-.829a.826.826 0 0 0-.824-.829.827.827 0 0 0-.824.83c0 .457.369.829.824.829zm9.972 0c.455 0 .824-.37.824-.829a.826.826 0 0 0-.824-.829.827.827 0 0 0-.824.83c0 .457.369.829.824.829zm5.636 4.019c.608 0 1.1-.496 1.1-1.107 0-.612-.492-1.108-1.1-1.108-.607 0-1.1.496-1.1 1.108 0 .611.492 1.107 1.1 1.107z"/></g><defs><clipPath id="clip0"><path fill="#fff" d="M0 0h22v20H0z"/></clipPath></defs></svg>