<svg xmlns="http://www.w3.org/2000/svg" width="12" height="20" fill="none" viewBox="0 0 12 20"><g clip-path="url(#clip0)"><path fill="#384182" d="M5.202 16.228L0 20 3.302 4.652l1.9 11.576zm.105-.036l3.168.042L3.425 4.71l1.882 11.481zm3.466-.253l2.426-9.08-.918-1.133L8.773 15.94zM7.604 1.706L3.612 4.421l5.834-1.906-1.842-.809zm-.502 0l-2.479.083-.362 1.044 2.84-1.127z"/><path fill="#F79534" d="M10.106 5.378l-6.389-.886 5.758-1.83.631 2.716zM8.592 1.966l.351-.962-1.841-.81 1.49 1.772zM9.124.909L9.54 2.42l2.455-.655L9.124.91z"/><path fill="#F0513A" d="M8.616 16.175l-5.12-11.57 6.675.944-1.555 10.626zM7.412 1.706L4.255 2.952l-.76 1.416 3.917-2.662zM5.453.762l-.789.88 2.619-.066-1.83-.814zm1.38-.685L5.583.66l2.851 1.27L6.833.076zM8.259 0H6.915l2.08.815L8.26 0zm.778 1.08l-.322.968.643.313-.321-1.28z"/></g><defs><clipPath id="clip0"><path fill="#fff" d="M0 0h12v20H0z"/></clipPath></defs></svg>