<svg xmlns="http://www.w3.org/2000/svg" width="20" height="20" fill="none" viewBox="0 0 20 20"><g clip-path="url(#clip0)"><path fill="#000" d="M10.005 20l-.115-.058A20.129 20.129 0 0 1 .173 5.27 22.766 22.766 0 0 1 0 2.712c0-.145-.019-.125.115-.193A19.853 19.853 0 0 1 7.551.038a21.402 21.402 0 0 1 2.931-.144 19.941 19.941 0 0 1 9.355 2.586c.038.02.067.04.105.058a.1.1 0 0 1 .058.097v.144c-.01.5-.03.99-.067 1.49a19.843 19.843 0 0 1-.287 2.116 19.688 19.688 0 0 1-1.355 4.355 19.91 19.91 0 0 1-4.029 5.933 19.9 19.9 0 0 1-4.095 3.221c-.057.039-.105.068-.162.106zM.917 3.202v.115c0 .702.048 1.414.133 2.106.077.635.182 1.26.325 1.885.029.105.057.211.105.317.86 1.837 2.845 2.817 4.811 2.365a4.264 4.264 0 0 0 3.131-3c.115-.413.153-.836.172-1.26a5.075 5.075 0 0 1 3.103-4.586c.086-.038.181-.067.267-.106.01-.01.029-.01.029-.028-.248-.087-1.728-.24-2.616-.26-1.91-.038-3.78.212-5.604.77-1.355.413-2.634.97-3.856 1.682zm14.08 11.52a.311.311 0 0 0 .096-.097 18.251 18.251 0 0 0 3.914-9.778c.047-.51.067-1.02.067-1.54 0-.038 0-.067-.01-.105l-.143-.087c-.392-.22-.793-.432-1.193-.625a15.553 15.553 0 0 0-1.805-.73 4.09 4.09 0 0 0-2.281-.077 4.25 4.25 0 0 0-3.17 4.913c.23 1.231.888 2.192 1.938 2.866.067.048.144.086.21.134a4.95 4.95 0 0 1 1.805 1.914c.458.836.658 1.74.601 2.692.01.163-.01.337-.029.52zm-4.992 4.297a.837.837 0 0 0 .124-.077 18.428 18.428 0 0 0 3.322-2.519.676.676 0 0 0 .153-.211c.067-.125.133-.26.19-.385.478-1 .583-2.038.268-3.115a4.245 4.245 0 0 0-4.601-3.02 4.087 4.087 0 0 0-1.595.539 5.025 5.025 0 0 1-3.045.654 4.935 4.935 0 0 1-1.527-.404 5.063 5.063 0 0 1-1.07-.644c-.018-.02-.047-.03-.095-.058.01.048.02.077.029.096.43 1.096.954 2.135 1.575 3.125a18.344 18.344 0 0 0 2.33 2.962 18.25 18.25 0 0 0 2.882 2.413c.477.308.926.587 1.06.644z"/><path fill="#E7AC33" d="M.917 3.202a18.095 18.095 0 0 1 9.45-2.443c.888.02 2.368.164 2.616.26.01.02-.01.03-.028.03-.086.038-.182.066-.268.105A5.07 5.07 0 0 0 9.585 5.74c-.01.423-.048.847-.172 1.26a4.28 4.28 0 0 1-3.131 3c-1.967.452-3.952-.529-4.811-2.365a1.414 1.414 0 0 1-.106-.318 18.044 18.044 0 0 1-.324-1.884 17.324 17.324 0 0 1-.134-2.106c.01-.048.01-.077.01-.125z"/><path fill="#7FB0E5" d="M14.997 14.721c.02-.183.039-.346.048-.52a5.073 5.073 0 0 0-.601-2.691 5.013 5.013 0 0 0-1.805-1.914c-.066-.048-.143-.086-.21-.134-1.06-.674-1.708-1.625-1.937-2.866-.41-2.23.983-4.384 3.169-4.913a4.17 4.17 0 0 1 2.281.077c.62.192 1.213.452 1.805.73.41.193.802.404 1.193.625.048.03.086.048.143.087 0 .038.01.067.01.106 0 .51-.03 1.029-.067 1.538a18.083 18.083 0 0 1-3.915 9.779c-.037.029-.056.067-.114.096z"/><path fill="#65C0B4" d="M10.005 19.02c-.143-.058-.583-.328-1.05-.645A18.254 18.254 0 0 1 3.742 13a17.397 17.397 0 0 1-1.575-3.125c-.01-.029-.019-.048-.028-.096.047.029.067.038.095.058.334.26.688.48 1.07.644a5.063 5.063 0 0 0 4.572-.25 4.455 4.455 0 0 1 1.594-.539 4.246 4.246 0 0 1 4.601 3.02c.316 1.067.22 2.105-.267 3.115-.067.134-.124.26-.19.385a.69.69 0 0 1-.154.211 18.445 18.445 0 0 1-3.322 2.52c-.047.028-.095.057-.133.076z"/></g><defs><clipPath id="clip0"><path fill="#fff" d="M0 0h20v20H0z"/></clipPath></defs></svg>