<svg xmlns="http://www.w3.org/2000/svg" width="20" height="20" fill="none" viewBox="0 0 20 20"><g clip-path="url(#clip0)"><path fill="#fff" d="M19.998 9.999c0 5.522-4.477 9.999-10 9.999C4.477 19.998 0 15.521 0 9.999S4.476 0 10 0c5.522 0 9.999 4.476 9.999 9.999z"/><path fill="#F26822" d="M10 0C4.478 0-.007 4.483 0 9.999c.002 1.103.178 2.165.508 3.157H3.5v-8.41l6.498 6.498 6.498-6.499v8.412h2.992c.331-.993.506-2.055.508-3.158C20.007 4.478 15.52 0 10 0z"/><path fill="#4D4D4D" d="M8.505 12.738L5.669 9.9v5.293H1.454a10 10 0 0 0 17.091.001H14.33V9.901l-2.836 2.837L10 14.231l-1.494-1.493z"/></g><defs><clipPath id="clip0"><path fill="#fff" d="M0 0h19.998v20H0z"/></clipPath></defs></svg>