<svg xmlns="http://www.w3.org/2000/svg" width="20" height="20" fill="none" viewBox="0 0 20 20"><path fill="#E6201A" d="M10 20C4.486 20 0 15.514 0 10S4.486 0 10 0s10 4.486 10 10-4.486 10-10 10zm0-18.38c-4.623 0-8.38 3.757-8.38 8.38 0 4.623 3.757 8.38 8.38 8.38 4.623 0 8.38-3.757 8.38-8.38 0-4.623-3.757-8.38-8.38-8.38z"/><path fill="#E6201A" d="M14.672 6.648a2.188 2.188 0 0 0-2.032-1.344l-5.296-.049h-.016c-.874 0-1.644.494-1.992 1.295a2.171 2.171 0 0 0 .405 2.397l.729.786 1.101-1.19-.64-.697a.58.58 0 0 1-.113-.648.546.546 0 0 1 .51-.332h.008l5.295.05c.364 0 .519.282.559.372.048.106.13.38-.097.623l-2.623 2.85a.573.573 0 0 1-.413.179.595.595 0 0 1-.446-.202l-.445-.478-1.102 1.19.356.381c.42.454 1.02.721 1.636.721.607 0 1.198-.26 1.603-.705l2.623-2.85c.592-.633.738-1.54.39-2.349z"/><path fill="#E6201A" d="M14.364 10.907l-.745-.81-1.271 1.378.64.696c.17.186.122.388.073.493a.483.483 0 0 1-.446.3l-5.295.048a.412.412 0 0 1-.405-.26.447.447 0 0 1 .089-.51l2.672-2.89a.47.47 0 0 1 .356-.162c.073 0 .21.016.324.138l.55.6 1.271-1.378-.445-.485a2.325 2.325 0 0 0-1.692-.745c-.656 0-1.28.275-1.725.76l-2.672 2.891a2.308 2.308 0 0 0-.429 2.535 2.279 2.279 0 0 0 2.106 1.368l5.312-.048a2.319 2.319 0 0 0 2.138-1.425 2.264 2.264 0 0 0-.406-2.494z"/></svg>