<svg xmlns="http://www.w3.org/2000/svg" width="20" height="20" fill="none" viewBox="0 0 20 20"><path fill="#231815" d="M15.479 13.312c.713.946 1.448 1.914 2.183 2.882-1.47 1.716-3.297 2.817-5.502 3.279-2.45.506-4.766.132-7.015-1.1 2.004-1.475 3.964-2.927 5.946-4.38.446.419.869.837 1.292 1.233.468.44.29.462.891.132a6.143 6.143 0 0 0 2.049-1.87c.022-.044.067-.088.09-.132-.023 0 0 0 .066-.044zm-8.753 1.936c-.557.418-1.069.792-1.581 1.188-.379.286-.757.55-1.136.836-.156.132-.267.132-.446-.022C1.871 15.754.802 13.906.401 11.705 0 9.483.356 7.37 1.425 5.368c.023-.044.067-.11.09-.154 0-.022.022-.022.066-.044 1.47 1.914 2.962 3.829 4.432 5.743-.044.066-.066.11-.111.154-.445.462-.89.924-1.359 1.364-.133.133-.155.243-.066.397a6.52 6.52 0 0 0 1.915 2.2c.111.066.2.132.334.22zm8.308-13.665c-.713.506-1.426 1.012-2.139 1.497-1.225.858-2.45 1.738-3.652 2.596-.156.11-.267.132-.401-.022-.401-.418-.824-.792-1.225-1.21-.111-.11-.223-.132-.379-.066-.957.484-1.715 1.166-2.338 2.024-.045.044-.09.11-.134.176-.356-.462-.69-.88-1.024-1.32-.357-.462-.69-.924-1.025-1.364-.111-.154-.133-.264.022-.418C4.454 1.606 6.57.506 9.11.24c2.005-.22 3.92.176 5.702 1.122.067.044.133.066.2.11 0 .066 0 .088.023.11zm3.63 13.203c-.468-.594-.891-1.144-1.314-1.694-.98-1.277-1.96-2.575-2.962-3.851-.134-.176-.134-.286.022-.44.423-.418.824-.836 1.247-1.255.111-.11.156-.22.067-.374a6.542 6.542 0 0 0-2.027-2.31c-.067-.044-.133-.11-.223-.154.067-.066.134-.11.179-.154.846-.638 1.692-1.254 2.539-1.892.133-.11.245-.155.4 0 2.116 1.892 3.252 4.246 3.364 7.085.044 1.65-.334 3.213-1.092 4.687a1.663 1.663 0 0 0-.2.352z"/></svg>