<svg xmlns="http://www.w3.org/2000/svg" width="614" height="285" fill="none" viewBox="0 0 614 285">
    <path fill="#C6BBF2" d="M382.112 204.168c-6.407 7.673-15.464 13.645-27.171 17.916-11.707 4.193-24.68 6.289-38.918 6.289-14.95 0-28.081-3.243-39.393-9.729-11.232-6.566-19.933-16.058-26.103-28.477-6.091-12.419-9.215-27.013-9.374-43.783v-11.746c0-17.244 2.888-32.155 8.662-44.732 5.853-12.657 14.238-22.307 25.154-28.951 10.995-6.724 23.849-10.086 38.562-10.086 20.488 0 36.506 4.904 48.054 14.713 11.549 9.73 18.392 23.928 20.527 42.596h-34.646c-1.582-9.888-5.102-17.125-10.56-21.713-5.379-4.588-12.815-6.882-22.307-6.882-12.102 0-21.318 4.548-27.646 13.645-6.328 9.097-9.532 22.623-9.611 40.579v11.035c0 18.114 3.441 31.799 10.323 41.054 6.882 9.254 16.967 13.882 30.256 13.882 13.369 0 22.9-2.848 28.596-8.543v-29.782h-32.392v-26.222h67.987v68.937zM444.054 226h-35.596V53.242h35.596V226zm92.197-113.194l32.392-59.564h40.935L559.27 138.91 610.884 226h-41.41l-33.223-60.513L503.029 226h-41.41l51.614-87.091-50.309-85.667h40.935l32.392 59.564z"/>
    <path fill="url(#paint0_linear)" fill-rule="evenodd" d="M7.34 52l64.22 57.798 7.339-6.605-45.871-41.285 7.339-6.605 45.872 41.284L100 84.202l3.635 3.271 3.704 3.334 6.422 5.78 45.872-41.284 7.339 6.605-45.871 41.285 7.339 6.605L192.661 52 200 58.606l-64.22 57.798 15.769 14.192-7.34 6.605L100 97.413 50.459 142 100 186.587l37.354-33.618h-35.085v-9.342h45.41v.049l.027-.025h14.869l-12.04 10.803 45.795 41.216-7.339 6.605-45.806-41.225-7.351 6.595L200 225.395 192.661 232l-64.178-57.759-7.35 6.595 45.839 41.256-7.339 6.605-45.851-41.265-13.755 12.342-.027.024-7.34-6.605-6.421-5.78-45.872 41.284-7.34-6.605L78.9 180.807l-7.34-6.605L7.34 232 0 225.395l64.22-57.799-7.34-6.605-45.87 41.284-7.34-6.605 45.871-41.285-6.422-5.779L35.78 142l7.34-6.605 6.422-5.78L3.67 88.33l7.34-6.605 45.87 41.284 7.34-6.605L0 58.606 7.34 52z" clip-rule="evenodd"/>
    <defs>
        <linearGradient id="paint0_linear" x1=".075" x2="203.427" y1="52.078" y2="222.054" gradientUnits="userSpaceOnUse">
            <stop stop-color="#07FDC3"/>
            <stop offset="1" stop-color="#C64BFE"/>
        </linearGradient>
    </defs>
</svg>
