<svg xmlns="http://www.w3.org/2000/svg" width="975" height="285" fill="none" viewBox="0 0 975 285">
    <path fill="#937BEE" d="M291.937 53.242l44.375 125.297 44.139-125.297H427.2V226h-35.714v-47.224l3.559-81.514L348.415 226h-24.442L277.461 97.38l3.56 81.396V226h-35.596V53.242h46.512zM525.568 226c-1.582-3.085-2.729-6.921-3.441-11.509-8.306 9.255-19.103 13.882-32.392 13.882-12.577 0-23.019-3.639-31.324-10.916-8.227-7.277-12.34-16.453-12.34-27.527 0-13.606 5.023-24.047 15.069-31.325 10.125-7.277 24.719-10.955 43.782-11.034h15.781v-7.357c0-5.932-1.542-10.678-4.627-14.238-3.006-3.559-7.792-5.339-14.357-5.339-5.775 0-10.323 1.384-13.645 4.153-3.244 2.768-4.865 6.565-4.865 11.39h-34.291c0-7.435 2.294-14.317 6.882-20.645 4.588-6.328 11.074-11.272 19.459-14.832 8.385-3.639 17.798-5.458 28.239-5.458 15.821 0 28.358 3.995 37.613 11.984 9.334 7.91 14.001 19.063 14.001 33.46v55.648c.079 12.182 1.78 21.397 5.102 27.646V226h-34.646zm-28.358-23.849c5.062 0 9.729-1.108 14.001-3.322 4.271-2.294 7.435-5.34 9.492-9.137v-22.069h-12.814c-17.166 0-26.302 5.933-27.409 17.798l-.119 2.017c0 4.271 1.503 7.791 4.509 10.56 3.006 2.769 7.119 4.153 12.34 4.153zm151.524-72.378c-4.667-.633-8.781-.949-12.34-.949-12.973 0-21.476 4.39-25.51 13.17V226h-34.291V97.618h32.392l.949 15.306c6.882-11.786 16.414-17.679 28.596-17.679 3.796 0 7.356.514 10.678 1.543l-.474 32.985zm4.395 31.087c0-19.696 4.667-35.556 14-47.58 9.414-12.023 22.07-18.035 37.969-18.035 14.08 0 25.036 4.825 32.867 14.476l1.424-12.103h31.087V221.73c0 11.232-2.571 21.001-7.713 29.307-5.062 8.305-12.221 14.633-21.476 18.984-9.255 4.351-20.092 6.526-32.511 6.526-9.413 0-18.588-1.899-27.527-5.695-8.938-3.718-15.702-8.543-20.289-14.476l15.187-20.883c8.543 9.571 18.905 14.357 31.087 14.357 9.097 0 16.176-2.452 21.239-7.356 5.062-4.826 7.593-11.707 7.593-20.646v-6.882c-7.91 8.939-18.312 13.408-31.205 13.408-15.425 0-27.923-6.012-37.494-18.035-9.492-12.103-14.238-28.121-14.238-48.054v-1.424zm34.29 2.492c0 11.627 2.334 20.764 7.001 27.408 4.667 6.566 11.074 9.848 19.221 9.848 10.442 0 17.917-3.915 22.425-11.746v-53.987c-4.587-7.831-11.983-11.747-22.187-11.747-8.227 0-14.713 3.362-19.459 10.086-4.667 6.724-7.001 16.769-7.001 30.138zM828.264 226h-34.409V97.618h34.409V226zM791.838 64.395c0-5.141 1.701-9.373 5.102-12.695 3.48-3.323 8.187-4.984 14.12-4.984 5.853 0 10.52 1.661 14 4.984 3.481 3.322 5.221 7.554 5.221 12.695 0 5.221-1.78 9.493-5.339 12.815-3.481 3.322-8.108 4.983-13.882 4.983-5.775 0-10.442-1.66-14.001-4.983-3.481-3.322-5.221-7.594-5.221-12.814zm91.486 33.223l1.067 14.832c9.176-11.47 21.476-17.205 36.901-17.205 13.606 0 23.731 3.995 30.375 11.984 6.645 7.989 10.046 19.934 10.204 35.833V226h-34.29v-82.107c0-7.278-1.582-12.538-4.746-15.781-3.164-3.322-8.425-4.984-15.781-4.984-9.65 0-16.888 4.114-21.713 12.34V226H851.05V97.618h32.274z"/>
    <path fill="url(#paint0_linear)" fill-rule="evenodd" d="M7.34 52l64.22 57.798 7.339-6.605-45.871-41.285 7.339-6.605 45.872 41.284L100 84.202l3.635 3.271 3.704 3.334 6.422 5.78 45.872-41.284 7.339 6.605-45.871 41.285 7.339 6.605L192.661 52 200 58.606l-64.22 57.798 15.769 14.192-7.34 6.605L100 97.413 50.459 142 100 186.587l37.354-33.618h-35.085v-9.342h45.41v.049l.027-.025h14.869l-12.04 10.803 45.795 41.216-7.339 6.605-45.806-41.225-7.351 6.595L200 225.395 192.661 232l-64.178-57.759-7.35 6.595 45.839 41.256-7.339 6.605-45.851-41.265-13.755 12.342-.027.024-7.34-6.605-6.421-5.78-45.872 41.284-7.34-6.605L78.9 180.807l-7.34-6.605L7.34 232 0 225.395l64.22-57.799-7.34-6.605-45.87 41.284-7.34-6.605 45.871-41.285-6.422-5.779L35.78 142l7.34-6.605 6.422-5.78L3.67 88.33l7.34-6.605 45.87 41.284 7.34-6.605L0 58.606 7.34 52z" clip-rule="evenodd"/>
    <defs>
        <linearGradient id="paint0_linear" x1=".075" x2="203.427" y1="52.078" y2="222.054" gradientUnits="userSpaceOnUse">
            <stop stop-color="#07FDC3"/>
            <stop offset="1" stop-color="#C64BFE"/>
        </linearGradient>
    </defs>
</svg>
