<svg xmlns="http://www.w3.org/2000/svg" width="1029" height="285" fill="none" viewBox="0 0 1029 285">
    <path fill="#C6BBF2" d="M349.364 155.402h-68.343V226h-35.596V53.242h112.482v28.833h-76.886v44.613h68.343v28.714zm96.351 57.546c-8.464 10.283-20.171 15.425-35.121 15.425-13.764 0-24.285-3.955-31.562-11.865-7.198-7.91-10.876-19.499-11.035-34.765V97.618h34.291v82.938c0 13.368 6.091 20.052 18.272 20.052 11.628 0 19.618-4.034 23.968-12.102V97.618h34.409V226h-32.273l-.949-13.052zm95.282-146.891v31.561h21.951v25.154h-21.951v64.073c0 4.746.91 8.147 2.729 10.204 1.82 2.056 5.3 3.085 10.442 3.085 3.797 0 7.158-.277 10.085-.831v25.985c-6.723 2.057-13.645 3.085-20.764 3.085-24.047 0-36.308-12.142-36.782-36.426v-69.175H487.96V97.618h18.747V66.057h34.29zm113.081 146.891c-8.464 10.283-20.171 15.425-35.121 15.425-13.764 0-24.285-3.955-31.562-11.865-7.198-7.91-10.876-19.499-11.035-34.765V97.618h34.291v82.938c0 13.368 6.091 20.052 18.272 20.052 11.628 0 19.618-4.034 23.968-12.102V97.618H687.3V226h-32.273l-.949-13.052zm126.369-83.175c-4.667-.633-8.78-.949-12.34-.949-12.972 0-21.476 4.39-25.51 13.17V226h-34.29V97.618h32.392l.949 15.306c6.882-11.786 16.413-17.679 28.595-17.679 3.797 0 7.357.514 10.679 1.543l-.475 32.985zm68.467 98.6c-18.826 0-34.172-5.774-46.037-17.323-11.786-11.549-17.679-26.934-17.679-46.156v-3.322c0-12.894 2.492-24.403 7.475-34.528 4.984-10.204 12.024-18.035 21.12-23.493 9.176-5.537 19.617-8.306 31.324-8.306 17.561 0 31.364 5.537 41.41 16.611 10.125 11.075 15.188 26.776 15.188 47.105v14.001h-81.752c1.108 8.385 4.43 15.109 9.967 20.171 5.616 5.063 12.696 7.594 21.239 7.594 13.21 0 23.532-4.786 30.968-14.357l16.849 18.866c-5.142 7.277-12.103 12.972-20.883 17.086-8.78 4.034-18.51 6.051-29.189 6.051zm-3.915-105.363c-6.803 0-12.34 2.294-16.611 6.882-4.193 4.587-6.882 11.153-8.069 19.696h47.698v-2.729c-.158-7.594-2.214-13.447-6.17-17.561-3.955-4.192-9.571-6.288-16.848-6.288zm140.964 67.513c0-4.192-2.097-7.475-6.289-9.848-4.113-2.452-10.758-4.628-19.934-6.526-30.533-6.407-45.799-19.38-45.799-38.918 0-11.391 4.706-20.883 14.119-28.477 9.492-7.672 21.872-11.509 37.138-11.509 16.295 0 29.308 3.837 39.042 11.509 9.8 7.673 14.71 17.64 14.71 29.901h-34.293c0-4.905-1.582-8.939-4.746-12.103-3.164-3.243-8.108-4.864-14.831-4.864-5.775 0-10.244 1.305-13.408 3.915-3.164 2.61-4.746 5.933-4.746 9.967 0 3.797 1.78 6.882 5.339 9.255 3.639 2.294 9.73 4.311 18.273 6.051 8.543 1.661 15.741 3.56 21.595 5.695 18.117 6.645 27.167 18.154 27.167 34.528 0 11.707-5.02 21.199-15.06 28.477-10.051 7.198-23.024 10.797-38.923 10.797-10.758 0-20.329-1.898-28.714-5.695-8.305-3.876-14.831-9.136-19.577-15.781-4.747-6.724-7.12-13.961-7.12-21.713h32.511c.317 6.09 2.571 10.757 6.763 14.001 4.193 3.243 9.809 4.864 16.849 4.864 6.565 0 11.509-1.226 14.832-3.678 3.401-2.531 5.102-5.814 5.102-9.848z"/>
    <path fill="url(#paint0_linear)" fill-rule="evenodd" d="M7.34 52l64.22 57.798 7.339-6.605-45.871-41.285 7.339-6.605 45.872 41.284L100 84.202l3.635 3.271 3.704 3.334 6.422 5.78 45.872-41.284 7.339 6.605-45.871 41.285 7.339 6.605L192.661 52 200 58.606l-64.22 57.798 15.769 14.192-7.34 6.605L100 97.413 50.459 142 100 186.587l37.354-33.618h-35.085v-9.342h45.41v.049l.027-.025h14.869l-12.04 10.803 45.795 41.216-7.339 6.605-45.806-41.225-7.351 6.595L200 225.395 192.661 232l-64.178-57.759-7.35 6.595 45.839 41.256-7.339 6.605-45.851-41.265-13.755 12.342-.027.024-7.34-6.605-6.421-5.78-45.872 41.284-7.34-6.605L78.9 180.807l-7.34-6.605L7.34 232 0 225.395l64.22-57.799-7.34-6.605-45.87 41.284-7.34-6.605 45.871-41.285-6.422-5.779L35.78 142l7.34-6.605 6.422-5.78L3.67 88.33l7.34-6.605 45.87 41.284 7.34-6.605L0 58.606 7.34 52z" clip-rule="evenodd"/>
    <defs>
        <linearGradient id="paint0_linear" x1=".075" x2="203.427" y1="52.078" y2="222.054" gradientUnits="userSpaceOnUse">
            <stop stop-color="#07FDC3"/>
            <stop offset="1" stop-color="#C64BFE"/>
        </linearGradient>
    </defs>
</svg>
