<svg xmlns="http://www.w3.org/2000/svg" width="100" height="100" fill="none" viewBox="0 0 100 100"><circle cx="50" cy="50" r="50" fill="#D8D8D8"/><mask id="a" width="100" height="100" x="0" y="0" maskUnits="userSpaceOnUse"><circle cx="50" cy="50" r="50" fill="#fff"/></mask><g mask="url(#a)"><path fill="#229E45" fill-rule="evenodd" d="M-16.923 0h133.235v100H-16.923V0z" clip-rule="evenodd"/><path fill="#F8E509" fill-rule="evenodd" d="M49.986 90.833l62.767-40.77L49.611 9.167l-62.974 40.979 63.35 40.687z" clip-rule="evenodd"/><path fill="#2B49A3" fill-rule="evenodd" d="M77.34 50c0 14.646-11.886 26.52-26.563 26.52a26.5 26.5 0 0 1-14.726-4.494 26.54 26.54 0 0 1-11.238-27.258 26.544 26.544 0 0 1 7.274-13.579 26.51 26.51 0 0 1 40.797 4.064A26.553 26.553 0 0 1 77.34 50z" clip-rule="evenodd"/><path fill="#FFFFEF" fill-rule="evenodd" d="M42.054 65.896l-.832-.48-.833.417.187-.937-.666-.709.937-.104.458-.833.395.875.916.167-.687.625.125.979zm17.779 4.5l-.812-.48-.833.417.167-.937-.645-.688.936-.104.438-.854.416.875.916.167-.708.645.125.959zm-7.661-7.209l-.708-.416-.728.375.166-.813-.583-.604.833-.083.375-.75.333.77.812.147-.625.562.125.813zm17.987-2.583l-.708-.416-.729.374.167-.812-.562-.583.812-.084.374-.729.333.75.791.146-.603.542.125.812zm-18.3-5.396l-.832-.458-.833.417.167-.959-.646-.687.937-.104.437-.855.417.876.916.166-.708.667.146.937zM29.94 46.98l-.833-.458-.833.416.208-.958-.687-.687.958-.105.416-.854.416.875.916.167-.687.646.125.958zm2.643 10.959l-.832-.48-.833.417.187-.938-.666-.687.937-.125.437-.833.416.875.916.166-.687.646.125.959zm27.355-14.98l-.75-.416-.749.375.167-.834-.583-.625.833-.104.395-.75.354.792.833.146-.625.562.125.854zm-1.52 7.125l-.562-.333-.603.292.124-.667-.457-.48.666-.083.312-.583.27.625.625.104-.458.459.083.666zm-29.686 9.834l-.562-.313-.562.271.125-.625-.438-.458.625-.084.291-.562.271.583.625.125-.48.417.105.646zm41.573 2.541l-.458-.229-.458.209.105-.48-.354-.333.5-.063.25-.416.207.416.52.105-.395.312" clip-rule="evenodd"/><path fill="#FFFFEF" fill-rule="evenodd" d="M28.73 59.917l-.561-.313-.562.271.125-.625-.438-.458.625-.084.291-.562.271.583.625.125-.48.417" clip-rule="evenodd"/><path fill="#FFFFEF" fill-rule="evenodd" d="M28.73 59.917l-.561-.313-.562.271.125-.625-.438-.458.625-.084.291-.562.271.583.625.125-.48.417.105.646zm8.703-.021l-.541-.292-.563.271.125-.625-.437-.458.625-.084.291-.562.27.583.625.104-.479.438.084.625zm-1.083 2.916l-.541-.312-.562.292.125-.625-.437-.48.624-.083.292-.562.27.583.625.125-.479.417.083.645zm18.112-5.27l-.541-.334-.583.292.125-.625-.417-.48.625-.062.291-.562.25.583.625.104-.458.438.083.646zm-5.309-.021l-.562-.313-.562.292.125-.625-.416-.48.624-.062.292-.583.25.604.624.104-.458.438.083.625zm-14.406-1.834l-.354-.208-.354.167.084-.396-.27-.292.395-.041.166-.355.167.376.395.062-.291.27.062.417zm34.87 9.042l-.54-.312-.563.291.125-.625-.437-.479.624-.083.292-.563.27.584.625.125-.479.416.084.646zm-4.413.604l-.458-.291-.479.25.104-.542-.354-.375.52-.063.25-.479.209.5.52.084-.395.375.083.541zm2.082-.062l-.416-.25-.438.208.084-.479-.334-.354.48-.063.228-.416.209.416.478.105-.354.333.063.5zm5.995-5.25l-.416-.209-.416.209.104-.48-.333-.353.479-.063.208-.417.208.438.437.083-.333.334.063.458zm-8.14 8.25l-.52-.292-.562.25.125-.583-.416-.417.624-.062.27-.521.25.541.625.105-.479.395.084.584zm.042 2.375l-.5-.292-.499.271.125-.583-.396-.417.562-.083.25-.521.23.541.561.105-.416.416.083.563zm-4.038-5.375l-.396-.25-.416.208.083-.458-.312-.354.458-.042.208-.417.208.417.458.083-.333.334.042.479zm-3.748 0l-.416-.25-.416.208.104-.458-.333-.354.478-.042.209-.417.208.417.437.083-.333.334.062.479zm-6.39-5.604l-.417-.23-.417.209.105-.48-.334-.333.458-.062.209-.417.208.417.458.104-.333.313.062.479zm.707 11.395l-.333-.187-.375.188.083-.417-.27-.292.395-.041.188-.355.166.375.396.063-.292.27.042.397zm-9.66-18.437l-.832-.48-.833.417.187-.937-.666-.688.937-.124.458-.834.395.875.916.167-.687.646" clip-rule="evenodd"/><path fill="#fff" fill-rule="evenodd" d="M75.592 59.542c.516-1.34.92-2.72 1.208-4.125-14.115-12.396-29.833-18.75-49.693-17.438a25.987 25.987 0 0 0-1.77 4.354c23.525-2.25 40.804 8.167 50.255 17.209z" clip-rule="evenodd"/><path fill="#309E3A" d="M69.263 52.583l.48.271a.708.708 0 0 0-.063.459c.048.15.153.277.291.354.146.104.292.166.417.145a.324.324 0 0 0 .27-.145.272.272 0 0 0 .042-.188.481.481 0 0 0-.104-.208 2.502 2.502 0 0 0-.313-.375 1.61 1.61 0 0 1-.374-.625.768.768 0 0 1 .416-.916.78.78 0 0 1 .479-.042c.196.045.38.13.541.25.292.208.479.416.541.666.03.117.033.239.011.357a.84.84 0 0 1-.135.33l-.5-.312c.062-.125.083-.25.042-.354-.021-.104-.105-.208-.25-.292a.66.66 0 0 0-.375-.145.214.214 0 0 0-.188.104c-.041.062-.041.125-.02.208.02.083.125.25.333.458.208.209.333.396.416.521a.81.81 0 0 1-.063.875.852.852 0 0 1-.395.313.834.834 0 0 1-.5.062 1.612 1.612 0 0 1-.582-.27c-.313-.209-.5-.438-.562-.688a1.127 1.127 0 0 1 .125-.834l.02.021zM66.848 51l.521.27a.714.714 0 0 0-.042.46c.054.142.157.26.292.333.166.104.291.145.416.124.125 0 .208-.062.27-.166a.267.267 0 0 0 .042-.167.328.328 0 0 0-.104-.208 6.558 6.558 0 0 0-.333-.375c-.229-.23-.374-.417-.416-.584a.777.777 0 0 1 .083-.645.793.793 0 0 1 .791-.355c.193.033.377.104.541.209.313.208.5.416.563.646a.85.85 0 0 1-.084.708l-.52-.292c.062-.145.083-.25.041-.354a.587.587 0 0 0-.27-.291.669.669 0 0 0-.396-.126.219.219 0 0 0-.096.032.204.204 0 0 0-.07.073c-.042.062-.042.125-.021.208.02.083.146.25.354.458.208.209.354.375.416.5a.81.81 0 0 1 0 .875.882.882 0 0 1-.374.334.835.835 0 0 1-.5.062 1.662 1.662 0 0 1-.604-.229 1.251 1.251 0 0 1-.583-.667c-.08-.278-.05-.576.084-.833zm-2.956-.792l1.52-2.5 1.832 1.146-.25.417-1.332-.834-.333.563 1.249.77-.27.417-1.25-.77-.416.687 1.395.834-.25.416-1.874-1.146h-.02zm-4.309-3.541l.229-.417 1.124.563-.52 1.041c-.167.042-.375.063-.625.042a1.95 1.95 0 0 1-.687-.209 1.6 1.6 0 0 1-.624-.541 1.25 1.25 0 0 1-.208-.73c.01-.269.081-.532.208-.77.125-.25.31-.466.541-.625.22-.152.482-.233.75-.23.208 0 .416.063.666.209.333.146.54.354.645.583.108.228.13.487.062.73l-.562-.167a.624.624 0 0 0-.041-.417c-.063-.125-.167-.208-.333-.291a.787.787 0 0 0-.646-.063c-.208.063-.395.25-.541.542-.146.291-.208.562-.146.791a.773.773 0 0 0 .417.5.697.697 0 0 0 .353.105c.125.018.251.018.375 0l.167-.334-.604-.312zM40.805 42.02l.417-2.917.874.146.229 2.042.812-1.875.874.125-.416 2.875-.562-.084.354-2.27-.916 2.187-.562-.083-.23-2.355-.333 2.292-.54-.083zm-2.935-.354l.27-2.917 2.145.208-.042.5-1.561-.145-.063.624 1.458.146-.063.5-1.457-.145-.063.791 1.624.146-.041.5-2.207-.208zm-9.722-1.812c0-.312.062-.541.146-.75a1.38 1.38 0 0 1 .291-.396c.107-.108.234-.192.375-.25.208-.062.416-.104.624-.104.437 0 .77.167 1.041.417a1.535 1.535 0 0 1 .333 1.146c0 .458-.145.833-.416 1.104a1.372 1.372 0 0 1-1.041.354 1.364 1.364 0 0 1-.542-.106 1.361 1.361 0 0 1-.457-.31 1.519 1.519 0 0 1-.354-1.105z"/><path fill="#F7FFFF" d="M28.752 39.854c0 .313.062.563.208.75.145.167.333.27.582.27a.718.718 0 0 0 .583-.228c.146-.167.209-.417.23-.771 0-.334-.042-.584-.209-.75a.733.733 0 0 0-.562-.271.743.743 0 0 0-.583.25c-.166.167-.229.417-.25.75z"/><path fill="#309E3A" d="M31.583 41.354l.041-2.916h1.25c.312 0 .52.041.666.104.145.041.25.145.333.27a.87.87 0 0 1 .125.48.79.79 0 0 1-.209.541.926.926 0 0 1-.562.25l.313.25c.083.084.187.25.312.48l.354.583h-.708l-.416-.667-.292-.416a.444.444 0 0 0-.187-.126 1.067 1.067 0 0 0-.292-.041h-.124v1.208h-.604z"/><path fill="#fff" d="M32.207 39.688h.417c.291 0 .478 0 .54-.042.063 0 .126-.063.167-.104.042-.042.063-.146.063-.209 0-.124-.02-.208-.083-.25a.352.352 0 0 0-.209-.124h-.416l-.479-.021v.749z"/><path fill="#309E3A" d="M34.914 38.583l1.082.063c.23 0 .417.02.542.062.162.06.305.16.416.292.12.146.205.317.25.5.062.188.083.417.062.688 0 .212-.035.423-.104.624a1.261 1.261 0 0 1-.354.5c-.121.1-.263.172-.416.209-.125.041-.312.041-.52.041l-1.104-.062.146-2.917z"/><path fill="#fff" d="M35.476 39.104l-.104 1.938h.79a.341.341 0 0 0 .25-.105.651.651 0 0 0 .167-.27c.042-.125.084-.313.084-.542l-.021-.52a.663.663 0 0 0-.167-.292.556.556 0 0 0-.25-.146 2.745 2.745 0 0 0-.478-.063h-.271z"/><path fill="#309E3A" d="M49.195 43.792l.687-2.834.916.209.666.208c.146.083.27.208.333.396.083.166.083.354.042.583-.042.167-.104.313-.209.417a.815.815 0 0 1-.624.292c-.146 0-.354-.042-.625-.105l-.353-.104-.25 1.084-.583-.146z"/><path fill="#fff" d="M50.32 41.583l-.167.792.312.083c.208.042.375.084.458.063a.397.397 0 0 0 .333-.313c0-.104 0-.187-.042-.27a.415.415 0 0 0-.208-.188l-.395-.104-.271-.063h-.02z"/><path fill="#309E3A" d="M51.901 44.604l.979-2.75 1.145.417c.312.104.5.208.624.291.104.105.188.209.209.376.02.166.041.312 0 .479a.926.926 0 0 1-.375.458c-.167.083-.375.104-.625.063.084.104.167.208.208.333l.167.562.125.646-.645-.229-.209-.75a3.919 3.919 0 0 0-.145-.5.438.438 0 0 0-.125-.167c-.042-.062-.125-.104-.27-.145l-.105-.042-.416 1.166-.542-.208z"/><path fill="#fff" d="M53.026 43.208l.395.146c.27.104.437.146.52.146.063 0 .125 0 .188-.063a.304.304 0 0 0 .125-.187.27.27 0 0 0 0-.25.36.36 0 0 0-.167-.188l-.416-.145-.416-.146-.25.687h.02z"/><path fill="#309E3A" d="M55.316 44.5c.071-.244.191-.47.353-.667.106-.125.233-.231.375-.312.13-.073.27-.123.417-.146.208 0 .416 0 .645.083a1.351 1.351 0 0 1 .874.688c.167.333.167.729.042 1.187a1.544 1.544 0 0 1-.708.938c-.312.187-.687.208-1.083.083a1.383 1.383 0 0 1-.874-.687 1.535 1.535 0 0 1-.041-1.167z"/><path fill="#fff" d="M55.898 44.667c-.083.312-.104.583 0 .791.104.209.25.334.479.417a.743.743 0 0 0 .624-.083c.209-.105.334-.334.438-.667.104-.313.104-.563 0-.77a.723.723 0 0 0-.458-.417.741.741 0 0 0-.625.062c-.208.125-.354.333-.458.667z"/><path fill="#309E3A" d="M60.999 48.563l1.332-2.584 1.103.563c.209.1.398.233.563.395.104.105.166.23.166.396 0 .167 0 .313-.083.459a.794.794 0 0 1-.416.416 1.153 1.153 0 0 1-.646-.041c.083.125.125.25.167.354.041.125.062.312.083.583l.042.667-.625-.313-.083-.77a4.117 4.117 0 0 0-.063-.521.419.419 0 0 0-.104-.209l-.25-.145-.104-.063-.562 1.083-.52-.27z"/><path fill="#fff" d="M62.29 47.333l.395.209c.25.125.416.208.479.208.062 0 .146 0 .208-.042.063-.02.104-.083.146-.166a.362.362 0 0 0 .041-.25.415.415 0 0 0-.145-.209 4.894 4.894 0 0 0-.375-.208l-.416-.208-.333.666z"/><path fill="#309E3A" d="M71.782 53.896c.135-.215.312-.399.52-.542.14-.09.296-.153.459-.187a1.14 1.14 0 0 1 .458 0c.208.041.395.125.583.25a1.372 1.372 0 0 1 .624.916c.063.354-.041.75-.291 1.146-.21.344-.546.592-.937.688a1.35 1.35 0 0 1-1.083-.23 1.372 1.372 0 0 1-.624-.916c-.063-.375.041-.75.291-1.125z"/><path fill="#fff" d="M72.303 54.23c-.209.27-.27.52-.23.75a.744.744 0 0 0 .334.52c.208.146.416.188.624.125.209-.063.417-.208.604-.5.187-.292.27-.542.23-.75-.022-.208-.147-.396-.334-.542a.683.683 0 0 0-.625-.104c-.208.042-.416.209-.624.5h.02z"/><path fill="#309E3A" d="M45.906 42.604l.479-2.041 1.498.354-.062.333-1.103-.25-.104.458 1.02.23-.084.354-1.02-.25-.125.562 1.145.271-.083.333-1.561-.354z"/></g></svg>