<svg xmlns="http://www.w3.org/2000/svg" width="165.422" height="31.8" viewBox="0 0 165.422 31.8"><g transform="translate(0)"><g transform="translate(33.173 12.233)"><path d="M131.9,66.728a4.008,4.008,0,0,0,1.581-3.333v-.559c0-3.313-2.12-4.994-6.3-4.994h-5.639a.741.741,0,0,0-.741.741V76.1a.741.741,0,0,0,.741.741h6.473c5.21,0,6.3-2.9,6.3-5.334v-.656A4.253,4.253,0,0,0,131.9,66.728Zm-1.013-3.892v.486c0,1.588-1.171,2.394-3.482,2.394h-4.038V60.3h3.912C130.452,60.3,130.889,61.517,130.889,62.837Zm-7.52,5.309h4.064c3.749,0,4.266,1.337,4.266,2.783v.583c0,1.424-.426,2.88-3.583,2.88h-4.746Z" transform="translate(-120.8 -57.576)" fill="#1b0091"/><rect width="2.594" height="19.002" rx="1.297" transform="translate(16.839 0.267)" fill="#1b0091"/><path d="M187.811,57.843H174.562a.741.741,0,0,0-.741.741v1a.741.741,0,0,0,.741.741h5.327V76.1a.741.741,0,0,0,.741.741h1.112a.741.741,0,0,0,.741-.741V60.321h5.328a.741.741,0,0,0,.741-.741v-1A.741.741,0,0,0,187.811,57.843Z" transform="translate(-151.571 -57.576)" fill="#1b0091"/><path d="M244.567,57.843h-1.113a.74.74,0,0,0-.712.536l-3.923,13.638-4.01-13.642a.741.741,0,0,0-.711-.532h-1.264a.741.741,0,0,0-.711.533l-3.982,13.642-3.874-13.637a.741.741,0,0,0-.713-.538h-1.188a.741.741,0,0,0-.711.948l5.107,17.52a.741.741,0,0,0,.711.534h1.315a.74.74,0,0,0,.712-.536l3.945-13.7,3.988,13.7a.741.741,0,0,0,.711.534h1.315a.741.741,0,0,0,.711-.534l5.108-17.52a.741.741,0,0,0-.711-.948Z" transform="translate(-179.315 -57.576)" fill="#1b0091"/><path d="M290.26,57.207c-4.777,0-7.745,3.319-7.745,8.662v2.212c0,5.343,2.968,8.663,7.745,8.663S298,73.424,298,68.081V65.869C298,60.526,295.037,57.207,290.26,57.207Zm0,17.058c-3.305,0-5.126-2.205-5.126-6.209V65.894c0-4,1.82-6.209,5.126-6.209s5.126,2.2,5.126,6.209v2.163C295.385,72.06,293.565,74.265,290.26,74.265Z" transform="translate(-214.652 -57.207)" fill="#1b0091"/><path d="M336.065,68.528a4.9,4.9,0,0,0,3.256-4.889V63.1c0-2.4-1.168-5.261-6.734-5.261H327.05a.741.741,0,0,0-.741.741V76.1a.741.741,0,0,0,.741.741h1.112a.741.741,0,0,0,.741-.741V69.118h3.608c.326,0,.649-.01.956-.031l3.718,7.352a.742.742,0,0,0,.661.407h1.188a.741.741,0,0,0,.662-1.073ZM328.9,60.321h3.684c3.625,0,4.114,1.431,4.114,2.831v.462c0,1.408-.491,3.026-4.316,3.026H328.9Z" transform="translate(-240.069 -57.576)" fill="#1b0091"/><path d="M378.049,74.367h-8.716V58.584a.741.741,0,0,0-.741-.741H367.48a.741.741,0,0,0-.741.741V76.1a.741.741,0,0,0,.741.741h10.57a.741.741,0,0,0,.741-.741v-1A.741.741,0,0,0,378.049,74.367Z" transform="translate(-263.533 -57.576)" fill="#1b0091"/><path d="M408.415,57.843h-5.386a.741.741,0,0,0-.741.741V76.1a.741.741,0,0,0,.741.741h5.386c4.933,0,8-3.161,8-8.25v-2.5C416.413,60.85,413.5,57.843,408.415,57.843Zm.126,16.5h-3.658v-14h3.633c3.5,0,5.277,1.975,5.277,5.869V68.6C413.793,72.833,411.08,74.343,408.541,74.343Z" transform="translate(-284.164 -57.576)" fill="#1b0091"/></g><g transform="translate(0 0)"><g transform="translate(11.523 11.426)"><path d="M71.144,75.659a1.937,1.937,0,0,1-.6-3.778c11.261-3.676,9.648-13.894,9.574-14.327a1.937,1.937,0,0,1,3.813-.678c.025.139,2.33,13.949-12.185,18.687A1.94,1.94,0,0,1,71.144,75.659Z" transform="translate(-69.207 -55.285)" fill="#9b00aa"/></g><path d="M47.983,59.843c-1.12,0-1.753-1.148-1.991-1.579-.18-.325-.444-.8-.816-1.461a30.851,30.851,0,0,1-3.427-14.691C41.743,34.2,43.871,29.4,43.961,29.2a1.937,1.937,0,0,1,3.533,1.588A30.57,30.57,0,0,0,45.622,42.11a32.79,32.79,0,0,0,.261,4.115,8.218,8.218,0,0,1,5.256-3.769c3.918-1.034,7.621,1,9.215,5.055a9.528,9.528,0,0,1-4.173,12.082,1.936,1.936,0,0,1-1.826-3.415,5.7,5.7,0,0,0,2.394-7.25c-.329-.839-1.636-3.514-4.622-2.727a4.394,4.394,0,0,0-2.993,2.144c-.675,1.286-1.12,3.815.591,8.557a1.972,1.972,0,0,1-.917,2.747A2,2,0,0,1,47.983,59.843Z" transform="translate(-41.749 -28.057)" fill="#7800bc"/></g></g></svg>