<svg xmlns="http://www.w3.org/2000/svg" width="25" height="18.749" viewBox="0 0 25 18.749"><defs><clipPath id="prefix__clip-path"><path id="prefix__패스_77" fill="rgba(0,0,0,0.7)" d="M0 0h25v18.749H0z" data-name="패스 77"/></clipPath><style>.prefix__cls-4,.prefix__cls-5{fill-rule:evenodd}.prefix__cls-4{fill:#000095}.prefix__cls-5{fill:#fff}</style></defs><g id="prefix__대만" clip-path="url(#prefix__clip-path)"><path id="prefix__패스_72" fill="#fe0000" fill-rule="evenodd" d="M0 0h28.124v18.749H0z" data-name="패스 72"/><path id="prefix__패스_73" d="M0 0h14.124v9.375H0z" class="prefix__cls-4" data-name="패스 73"/><path id="prefix__패스_74" d="M92.491 29.6l-1.732-.359.366 1.732-1.319-1.173-.549 1.684L88.7 29.8l-1.318 1.186.359-1.736-1.728.37 1.172-1.32-1.685-.547 1.684-.557L86 25.886l1.732.355-.366-1.732 1.318 1.175.548-1.684.557 1.681 1.311-1.187-.355 1.736 1.728-.37-1.173 1.322 1.681.549-1.681.557z" class="prefix__cls-5" data-name="패스 74" transform="translate(-82.16 -23.063)"/><path id="prefix__패스_75" d="M125.308 65.146l-.549.289-.531.315-.623-.022-.619.007-.524-.33-.542-.3-.293-.549-.315-.531.022-.615-.007-.623.33-.52.3-.542.546-.289.535-.315.619.022.623-.007.524.33.538.3.293.546.315.531-.022.619.007.619-.33.524z" class="prefix__cls-4" data-name="패스 75" transform="translate(-116.574 -58.737)"/><path id="prefix__패스_76" d="M135.846 75.578a1.9 1.9 0 1 1-1.9-1.817 1.9 1.9 0 0 1 1.9 1.817z" class="prefix__cls-5" data-name="패스 76" transform="translate(-126.889 -70.879)"/></g></svg>