<svg width="361" height="475" viewBox="0 0 361 475" fill="none" xmlns="http://www.w3.org/2000/svg"><g clip-path="url(#clip0)"><path d="M304.789 475c31.18 0 56.457-12.127 56.457-27.087 0-14.959-25.277-27.086-56.457-27.086s-56.456 12.127-56.456 27.086c0 14.96 25.276 27.087 56.456 27.087z" fill="#EBEBEB"/><path d="M208.322 176.801s-30.192-41.614-31.91-46.786c-1.473-3.693 0-9.357.491-11.819.246-2.709.737-8.372 1.227-9.85.737-2.708-2.945-2.216-4.909.246-1.964 2.709-2.7 7.634-3.682 8.619-.982.739-9.082-10.835-13.255-16.252-4.173-5.417-6.873-8.618-9.327-6.648-1.964 1.477-.491 4.678 2.454 9.357 2.946 4.678 4.419 6.894 4.91 7.879.491.985-1.964.985-3.437 3.202-.982 1.723 0 4.186-1.473 5.417-1.472 1.231-2.7 3.447-1.227 6.156 1.964 3.201 5.891 7.88 10.309 11.081 4.419 3.201 6.382 4.186 9.083 8.618 2.7 4.186 26.755 47.771 28.228 50.48 1.718 2.708 4.664 7.879 9.573 8.126 4.664.246 43.447-33.243 45.41-34.967 6.382-5.417 8.346-6.156 9.573-1.231.246 1.478.491 3.201.737 5.171.736 6.156 4.909 27.826 4.909 27.826s19.637 9.603 35.838 4.924c16.2-4.678 21.6-11.573 21.6-11.573l-8.1-13.297c2.209-5.417 12.273-27.579 15.464-42.846l-50.565-8.126c-.982-.246-2.7-.739-4.909-1.231-2.7-.739-9.819-3.201-15.219 1.477-17.182 14.282-51.793 46.047-51.793 46.047z" fill="#EBAF7F"/><path d="M308.717 432.647l-9.082 12.558s4.172 2.462 13.255 2.708c8.1.247 10.309-2.462 10.554-2.954 1.473-2.955-.736-8.373-1.472-12.805l-13.255.493z" fill="#37474F"/><path d="M300.125 439.295s-11.045-.739-18.655-1.724c-7.609-.985-13.5 2.709-11.782 5.91s5.891 5.664 12.519 7.88c5.645 1.97 12.273 3.201 18.164 4.925 5.891 1.723 9.818 3.94 13.255 2.708 3.682-1.231 5.4-2.708 5.155-5.663-.246-2.709-2.946-11.574-2.946-11.574l-15.71-2.462z" fill="#37474F"/><path d="M323.444 419.842s-1.473 11.573-1.473 14.036c0 2.462-11.046 3.201-13.255-1.231l-.245-14.036 14.973 1.231z" fill="#E09563"/><path d="M312.153 426.983l3.927 17.483s.491 2.216-8.591 3.447c-9.082 1.232-23.319-4.678-25.528-5.909-2.455-1.232-2.7-3.694 6.136-3.202 8.837.493 12.028.493 12.028.493l-2.945-7.633 14.973-4.679z" fill="#EBAF7F"/><path d="M330.808 137.649l6.137-1.724s13.009 41.615 14.482 45.555c1.473 3.94 3.191 8.372.246 13.297-3.437 5.91-21.11 29.549-21.11 29.549l-11.291-11.081 12.764-23.393-11.292-22.9 10.064-29.303z" fill="#E09563"/><path d="M266.497 83.722s-4.91-8.126.245-17.975c6.137-11.574 20.128-17.237 36.574-15.021 7.609.985 16.691 7.387 21.601 16.99 5.4 10.589 5.891 31.766 7.364 39.892l-65.784-23.886z" fill="#37474F"/><path d="M266.252 88.154s-3.928 7.634-3.191 8.127c.736.738 3.191 1.23 3.191 1.23v-9.356z" fill="#FFA8A7"/><path d="M278.034 64.515c-4.173 2.709-11.537 7.88-12.028 24.87-.245 17.238 2.209 22.901 4.664 24.871 1.718 1.231 11.782.739 16.2-.246 4.419-.985 16.692-7.141 21.356-16.498 5.154-11.081 4.173-27.087-3.682-31.766-11.046-6.894-22.828-3.693-26.51-1.23z" fill="#EBAF7F"/><path d="M323.444 193.792c7.609 11.82 14.728 22.162 16.201 35.459 3.191 28.072-7.364 60.083-9.574 80.767 0 0 7.119 9.357 7.119 20.192 0 8.619-13.746 89.386-13.746 89.386s-10.064 2.955-14.973-1.231l-9.573-148.73 4.909-18.222 19.637-57.621z" fill="#287ADD"/><path d="M298.898 269.881l4.909-18.222s13.746-3.448 27.001-10.835c0 0-5.155 9.357-19.883 14.528l-7.609 23.393-.491 53.189-3.927-62.053z" fill="#0A4987"/><path opacity=".3" d="M298.898 269.881l4.909-18.222s13.746-3.448 27.001-10.835c0 0-5.155 9.357-19.883 14.528l-7.609 23.393-.491 53.189-3.927-62.053z" fill="#0A4987"/><path d="M323.444 193.792c4.173 6.649 13.746 17.976 11.782 28.811-2.454 13.297-9.573 22.407-31.173 29.056l-20.374 73.872s10.555 9.85 13.746 19.454c3.191 9.357 14.973 82.244 14.973 82.244s-3.682 5.91-14.973 4.433c0 0-39.765-91.11-42.71-97.02-2.7-5.909-4.664-10.342-3.437-19.699 1.227-9.603 14.728-114.256 14.728-114.256l57.438-6.895z" fill="#287ADD"/><path d="M330.808 137.649l-50.565-8.126c-.982-.246-2.7-.739-4.909-1.231 0 0-2.209 31.765-15.219 39.152.245 1.478.491 3.202.736 5.171.737 6.157 4.91 27.826 4.91 27.826s19.637 9.603 35.837 4.925c16.201-4.679 21.601-11.574 21.601-11.574l-8.1-13.297c2.454-5.417 12.518-27.333 15.709-42.846z" fill="#B8CFE0"/><path d="M317.553 175.324c-.246.492-16.201 9.111-21.11 10.342 7.609-.492 13.746-2.216 18.901-5.171l2.209-5.171z" fill="#88A7BA"/><path d="M276.806 65.254s-2.454 16.006 3.437 25.363c0 0 2.209-6.402 7.609-5.171 5.4 1.231 5.646 8.372 1.964 12.312-3.682 3.94-7.855 2.462-7.855 2.462s-.736 11.574-1.227 21.177c-.491 9.357-2.946 30.78 7.854 39.399 10.801 8.618 38.047 11.573 51.057-6.402 7.118-10.096-2.455-27.579-6.628-47.279-3.927-18.222-6.382-45.062-25.528-49.494-19.882-3.94-30.683 7.633-30.683 7.633z" fill="#37474F"/></g><path d="M87.667 276.616c24.116 0 43.666-19.55 43.666-43.666 0-24.117-19.55-43.667-43.666-43.667C63.55 189.283 44 208.833 44 232.95c0 24.116 19.55 43.666 43.667 43.666z" fill="#0068C1"/><path d="M72.702 237.46v-15.376c0-.41-.41.205-.41.205l-7.79 5.741c-.616.41-.616 1.435-.616 1.435v13.325c0 1.025.615 2.255 1.435 2.87l20.296 14.966s.205.205.41.205.205 0 .205-.41v-12.506s0-.41-.205-.82l-13.325-9.635zm38.746-7.584v-.205s0-1.025-.615-1.435l-7.79-5.74s-.41-.41-.41-.205v15.375l-13.53 10.046c-.41.41-.206.82-.206.82v12.505c0 .205 0 .205.206.41.205 0 .41-.205.41-.205l20.295-14.966a3.587 3.587 0 0 0 1.435-2.87v-12.505l.205-1.025z" fill="#fff"/><path d="M91.973 227.415v6.56h-8.405v-20.706h8.405v6.56h8.201v-8.61l-7.996-6.355h-8.815l-7.995 6.355-.205 16.196h.205v8.61l7.995 6.355h8.815l7.996-6.355v-8.61h-8.2z" fill="#fff"/><path d="M146.009 70.184c-5.737 23.493-29.503 37.698-52.996 31.825-23.356-5.737-37.561-29.503-31.688-52.86 5.737-23.493 29.503-37.698 52.859-31.825 23.493 5.737 37.698 29.503 31.825 52.86z" fill="#F7931A"/><path d="M122.926 53.383c.819-5.873-3.551-8.878-9.561-11.063l1.912-7.922-4.781-1.093-1.912 7.649c-1.229-.273-2.595-.547-3.824-.956l1.912-7.786-4.781-1.23-1.912 7.923c-1.093-.273-2.049-.41-3.005-.683l-6.556-1.639-1.23 5.054s3.552.82 3.415.82c1.913.546 2.323 1.775 2.186 2.731l-2.186 9.015c.137 0 .274.136.547.136-.137 0-.273-.136-.547-.136l-3.141 12.566c-.273.546-.82 1.502-2.185 1.093 0 .136-3.552-.82-3.552-.82l-2.322 5.464 6.283 1.502c1.23.273 2.322.546 3.415.82l-2.049 7.922 4.78 1.229 1.913-7.922c1.366.41 2.595.683 3.825.956l-1.913 7.785 4.781 1.23 2.049-7.922c8.195 1.502 14.341.956 16.936-6.42 2.049-6.01-.136-9.425-4.37-11.61 2.868-.273 5.19-2.322 5.873-6.693zm-10.927 15.435c-1.503 6.01-11.473 2.731-14.751 1.912l2.595-10.517c3.278.82 13.658 2.322 12.156 8.605zm1.502-15.435c-1.366 5.464-9.697 2.732-12.429 2.05l2.322-9.562c2.732.546 11.473 1.776 10.107 7.512z" fill="#fff"/><circle cx="77.667" cy="330.667" r="43.667" fill="#EFEFEF"/><path fill-rule="evenodd" clip-rule="evenodd" d="M57.94 306.808l-11.25 23.627a.44.44 0 0 0 .09.527l30.37 29.116a.475.475 0 0 0 .637 0l30.388-29.116a.445.445 0 0 0 .091-.527l-11.25-23.627c-.037-.164-.2-.273-.382-.273H58.358c-.164 0-.327.109-.418.273z" fill="#50AF95"/><path fill-rule="evenodd" clip-rule="evenodd" d="M81.404 332.852c-.218.018-1.345.091-3.853.091-2 0-3.417-.054-3.926-.091-7.724-.345-13.485-1.69-13.485-3.289 0-1.6 5.761-2.945 13.485-3.308v5.252c.51.037 1.945.128 3.944.128 2.4 0 3.599-.11 3.817-.128v-5.252c7.706.345 13.467 1.69 13.467 3.289 0 1.6-5.743 2.963-13.449 3.308zm0-7.124v-4.707h10.76v-7.179H62.866v7.179h10.76v4.707c-8.743.4-15.322 2.126-15.322 4.216 0 2.09 6.58 3.799 15.321 4.217v15.067h7.78v-15.067c8.723-.4 15.284-2.127 15.284-4.199 0-2.071-6.561-3.834-15.285-4.234z" fill="#fff"/><path d="M43.667 190.333c24.116 0 43.666-19.55 43.666-43.666 0-24.117-19.55-43.667-43.666-43.667C19.55 103 0 122.55 0 146.667c0 24.116 19.55 43.666 43.667 43.666z" fill="#E5E5E5"/><g clip-path="url(#clip1)"><path d="M43.66 113.917l-.476 1.49v43.316l.476.439 21.827-11.889-21.827-33.356z" fill="#343434"/><path d="M43.66 113.917l-21.826 33.356 21.826 11.889v-45.245z" fill="#8C8C8C"/><path d="M43.66 162.964l-.263.3V178.7l.263.717 21.84-28.331-21.84 11.878z" fill="#3C3C3B"/><path d="M43.66 179.417v-16.453l-21.826-11.878 21.826 28.331z" fill="#8C8C8C"/><path d="M43.66 159.162l21.828-11.889-21.827-9.139v21.028z" fill="#141414"/><path d="M21.834 147.273l21.826 11.889v-21.028l-21.826 9.139z" fill="#393939"/></g><defs><clipPath id="clip0"><path fill="#fff" transform="translate(77)" d="M0 0h284v475H0z"/></clipPath><clipPath id="clip1"><path fill="#fff" transform="translate(21.834 113.917)" d="M0 0h43.667v65.5H0z"/></clipPath></defs></svg>