<svg xmlns="http://www.w3.org/2000/svg" width="100" height="100" fill="none" viewBox="0 0 100 100"><circle cx="50" cy="50" r="50" fill="#D8D8D8"/><mask id="a" width="100" height="100" x="0" y="0" maskUnits="userSpaceOnUse"><circle cx="50" cy="50" r="50" fill="#fff"/></mask><g fill-rule="evenodd" clip-rule="evenodd" mask="url(#a)"><path fill="#B22234" d="M-23.077 100h190V0h-190v100z"/><path fill="#000" d="M-23.077 11.539h190-190zm0 15.384h190-190zm0 15.385h190-190zm0 15.384h190-190zm0 15.385h190-190zm0 15.385h190-190z"/><path fill="#fff" d="M-23.077 15.385h190V7.692h-190v7.693zm0 15.384h190v-7.692h-190v7.692zm0 15.385h190v-7.692h-190v7.692zm0 15.384h190v-7.692h-190v7.693zm0 15.385h190v-7.692h-190v7.692zm0 15.385h190v-7.692h-190v7.692z"/><path fill="#3C3B6E" d="M-23.077 53.846h76V0h-76v53.846z"/><path fill="#fff" d="M1.138 11.132l-.69 2.126 1.808-1.314 1.809 1.314-.691-2.126 1.808-1.314H2.947l-.691-2.126-.69 2.126H-.67l1.808 1.314zm1.118 7.33l-.69 2.126H-.67l1.809 1.314-.691 2.126 1.808-1.314 1.809 1.314-.69-2.126 1.808-1.314H2.947l-.69-2.127zm0 10.768l-.69 2.127H-.67l1.81 1.313-.691 2.126 1.808-1.314 1.809 1.314-.69-2.126 1.808-1.314H2.947l-.69-2.126zm.691 12.896L2.257 40l-.691 2.126H-.67l1.81 1.314-.691 2.126 1.808-1.314 1.809 1.314-.69-2.126 1.808-1.314H2.947zM8.59 2.308l-.691 2.126H5.663l1.809 1.314-.691 2.126L8.589 6.56l1.809 1.314-.69-2.126 1.808-1.314H9.28l-.69-2.126zm0 10.769l-.691 2.126H5.663l1.809 1.314-.691 2.126 1.808-1.314 1.809 1.314-.69-2.126 1.808-1.314H9.28l-.69-2.126zm0 10.769l-.691 2.126H5.663l1.809 1.314-.691 2.126 1.808-1.314 1.809 1.314-.69-2.126 1.808-1.314H9.28l-.69-2.126zm0 10.769l-.691 2.127H5.663l1.809 1.314-.691 2.126 1.808-1.315 1.809 1.315-.69-2.127 1.808-1.313H9.28l-.69-2.127zm.69 12.895l-.69-2.125-.691 2.126H5.663l1.809 1.314-.691 2.126 1.809-1.314 1.808 1.314-.69-2.126 1.808-1.314H9.28zm5.643-39.818l-.69 2.126h-2.236l1.808 1.315-.69 2.126 1.808-1.315 1.809 1.314-.691-2.125 1.808-1.315h-2.235l-.691-2.126zm0 10.77l-.69 2.126h-2.236l1.808 1.314-.69 2.126 1.808-1.314 1.809 1.314-.691-2.126 1.808-1.314h-2.235l-.691-2.127zm0 10.768l-.69 2.127h-2.236l1.808 1.314-.69 2.126 1.808-1.314 1.809 1.314-.691-2.126 1.808-1.314h-2.235l-.691-2.126zm.691 12.896L14.923 40l-.69 2.126h-2.236l1.808 1.314-.69 2.126 1.808-1.314 1.809 1.314-.691-2.126 1.808-1.314h-2.235zm5.642-39.818l-.69 2.126H18.33l1.809 1.314-.691 2.126 1.808-1.314 1.809 1.314-.69-2.126 1.808-1.314h-2.236l-.69-2.126zm0 10.769l-.69 2.126H18.33l1.809 1.314-.691 2.126 1.808-1.314 1.809 1.314-.69-2.126 1.808-1.314h-2.236l-.69-2.126zm0 10.769l-.69 2.126H18.33l1.809 1.314-.691 2.126 1.808-1.314 1.809 1.314-.69-2.126 1.808-1.314h-2.236l-.69-2.126zm0 10.769l-.69 2.127H18.33l1.809 1.314-.691 2.126 1.808-1.315 1.809 1.315-.69-2.127 1.808-1.313h-2.236l-.69-2.127zm.691 12.895l-.69-2.125-.691 2.126H18.33l1.809 1.314-.691 2.126 1.808-1.314 1.809 1.314-.69-2.126 1.808-1.314h-2.236zm4.525-36.378l-.691 2.126 1.809-1.314 1.808 1.314-.69-2.126 1.808-1.314H28.28l-.69-2.126-.691 2.126h-2.236l1.809 1.314zm1.118 7.33l-.691 2.126h-2.236l1.808 1.314-.69 2.126 1.808-1.314 1.809 1.314-.69-2.126 1.808-1.314H28.28l-.69-2.127zm0 10.768l-.691 2.127h-2.236l1.808 1.314-.69 2.126 1.808-1.314 1.809 1.314-.69-2.126 1.808-1.314H28.28l-.69-2.126zm.69 12.896L27.59 40l-.691 2.126h-2.236l1.809 1.314-.691 2.126 1.809-1.314 1.808 1.314-.69-2.126 1.808-1.314H28.28zm5.643-39.818l-.69 2.126h-2.236l1.808 1.314-.69 2.126 1.808-1.314 1.808 1.314-.69-2.126 1.808-1.314h-2.235l-.691-2.126zm0 10.769l-.69 2.126h-2.236l1.808 1.314-.69 2.126 1.808-1.314 1.808 1.314-.69-2.126 1.808-1.314h-2.235l-.691-2.126zm0 10.769l-.69 2.126h-2.236l1.808 1.314-.69 2.126 1.808-1.314 1.808 1.314-.69-2.126 1.808-1.314h-2.235l-.691-2.126zm0 10.769l-.69 2.127h-2.236l1.808 1.314-.69 2.126 1.808-1.315 1.808 1.315-.69-2.127 1.808-1.313h-2.235l-.691-2.127zm.691 12.895l-.691-2.125-.69 2.126h-2.236l1.808 1.314-.69 2.126 1.808-1.314 1.808 1.314-.69-2.126 1.808-1.314h-2.235zm4.524-36.378l-.69 2.126 1.808-1.314 1.809 1.314-.691-2.126 1.808-1.314h-2.235l-.691-2.126-.69 2.126H37.33l1.808 1.314zm1.118 7.33l-.69 2.126H37.33l1.809 1.314-.691 2.126 1.808-1.314 1.809 1.314-.69-2.126 1.808-1.314h-2.236l-.69-2.127zm0 10.768l-.69 2.127H37.33l1.809 1.314-.691 2.126 1.808-1.314 1.809 1.314-.69-2.126 1.808-1.314h-2.236l-.69-2.126zm.691 12.896L40.257 40l-.691 2.126H37.33l1.809 1.314-.691 2.126 1.808-1.314 1.809 1.314-.69-2.126 1.808-1.314h-2.236zm4.525-36.378l-.691 2.126L46.59 6.56l1.808 1.314-.69-2.126 1.808-1.314H47.28l-.69-2.126-.691 2.126h-2.236l1.809 1.314zm1.118 7.329l-.691 2.126h-2.236l1.809 1.314-.691 2.126 1.808-1.314 1.809 1.314-.69-2.126 1.808-1.314H47.28l-.69-2.126zm0 10.769l-.691 2.126h-2.236l1.809 1.314-.691 2.126 1.808-1.314 1.809 1.314-.69-2.126 1.808-1.314H47.28l-.69-2.126zm0 10.769l-.691 2.127h-2.236l1.809 1.314-.691 2.126 1.808-1.315 1.809 1.315-.69-2.127 1.808-1.313H47.28l-.69-2.127zm.69 12.895l-.69-2.125-.691 2.126h-2.236l1.809 1.314-.691 2.126 1.809-1.314 1.808 1.314-.69-2.126 1.808-1.314H47.28z"/></g></svg>