<svg xmlns="http://www.w3.org/2000/svg" width="100" height="100" fill="none" viewBox="0 0 100 100"><circle cx="50" cy="50" r="50" fill="#D8D8D8"/><mask id="a" width="100" height="100" x="0" y="0" maskUnits="userSpaceOnUse"><circle cx="50" cy="50" r="50" fill="#fff"/></mask><g mask="url(#a)"><path fill="#DE2910" d="M0 0h100v100H0z"/><path fill="#DE2910" fill-rule="evenodd" d="M24.615 124.615h150v-100h-150v100z" clip-rule="evenodd"/><path fill="#FFDE00" fill-rule="evenodd" d="M55.064 51.386l8.817-6.406H52.983l-3.368-10.365-3.367 10.365H35.349l8.817 6.406-3.368 10.364 8.817-6.405 8.817 6.406-3.368-10.365zm18.804-15.013l1.869 3.115.319-3.619 3.54-.815-3.343-1.421.319-3.619-2.385 2.74-3.343-1.421 1.869 3.115-2.385 2.74 3.54-.815zm9.377 9.572l.513 3.596 1.698-3.21 3.58.622-2.53-2.608 1.698-3.211-3.261 1.6-2.53-2.608.514 3.597-3.262 1.6 3.58.622zm3.207 14.195l2.86-2.24-3.63.131-1.246-3.412-.998 3.492-3.63.13 3.013 2.03-.998 3.492 2.86-2.239 3.014 2.029-1.245-3.413zM76.21 68.566l.17-3.63-2.27 2.838-3.4-1.282 1.997 3.035-2.269 2.836 3.503-.96 1.997 3.034.168-3.629 3.504-.96-3.4-1.282z" clip-rule="evenodd"/></g></svg>