<svg xmlns="http://www.w3.org/2000/svg" width="100" height="100" fill="none" viewBox="0 0 100 100"><circle cx="50" cy="50" r="50" fill="#D8D8D8"/><mask id="a" width="100" height="100" x="0" y="0" maskUnits="userSpaceOnUse"><circle cx="50" cy="50" r="50" fill="#fff"/></mask><g mask="url(#a)"><path fill="#FE0000" d="M-24.615.68h148.98V100h-148.98z"/><path fill="#000095" d="M-24.615.68h74.83v49.66h-74.83z"/><path fill="#fff" fill-rule="evenodd" d="M16.398 29.449l1.05-3.939-1.05-3.938 14.769 3.938-14.77 3.939zm-7.877 0l3.938 1.05 3.939-1.05-3.939 14.769-3.938-14.77zm0 0l-14.77-3.939 14.77-3.938-1.05 3.938 1.05 3.939zm0-7.877l3.938-14.77 3.939 14.77-3.939-1.05-3.938 1.05z" clip-rule="evenodd"/><path fill="#fff" fill-rule="evenodd" d="M14.064 30.811l2.866-2.873 1.055-3.918 10.772 10.747-14.693-3.956zm-6.79-3.92l2.872 2.866 3.918 1.054L3.317 41.587 7.274 26.89zm0 0L-3.498 16.144 11.195 20.1l-2.866 2.873-1.055 3.919zm3.92-6.792L21.943 9.325 17.985 24.02l-2.872-2.866-3.918-1.055z" clip-rule="evenodd"/><path fill="#fff" fill-rule="evenodd" d="M11.194 30.811l3.918-1.055 2.874-2.866 3.955 14.693L11.194 30.81zm-3.92-6.79l1.054 3.918 2.866 2.872-14.695 3.957L7.273 24.021zm0 0L3.317 9.328l10.747 10.771-3.918 1.056-2.874 2.866zm6.791-3.922l14.695-3.957L17.986 26.89l-1.055-3.918-2.866-2.873z" clip-rule="evenodd"/><circle cx="12.46" cy="25.51" r="10.544" fill="#000095"/><circle cx="12.46" cy="25.51" r="9.184" fill="#fff"/></g></svg>