<svg xmlns="http://www.w3.org/2000/svg" width="100" height="100" fill="none" viewBox="0 0 100 100"><mask id="a" width="100" height="100" x="0" y="0" maskUnits="userSpaceOnUse"><circle cx="50" cy="50" r="50" fill="#fff"/></mask><g mask="url(#a)"><path fill="#fff" d="M0 0h100v100H0z"/><path fill="#fff" fill-rule="evenodd" d="M-12.308 92.308h126.154V7.692H-12.308v84.616z" clip-rule="evenodd"/><path fill="#000" fill-rule="evenodd" d="M16.264 40l11.428-17.308L16.264 40zm-4.286-2.885l11.429-17.307-11.429 17.307zm-4.286-2.884l11.429-17.308L7.692 34.231zm1.346 1.272L6.154 33.49l11.538-18.106 2.885 2.011L9.038 35.503zm4.327 3.018l-2.884-2.012 11.538-18.107 2.885 2.012-11.539 18.107zm4.327 3.017l-2.884-2.011L26.346 21.42l2.885 2.012-11.539 18.107zm63.187 41.539l11.429-17.308-11.429 17.308zm-4.286-2.885l11.429-17.307-11.429 17.307zm-4.285-2.884L83.736 60 72.308 77.308z" clip-rule="evenodd"/><path fill="#000" fill-rule="evenodd" d="M73.654 78.58l-2.885-2.012 11.54-18.106 2.884 2.011L73.654 78.58zm4.327 3.018l-2.885-2.012 11.539-18.107 2.884 2.012-11.538 18.107zm4.327 3.017l-2.885-2.011 11.539-18.107 2.885 2.012-11.54 18.106z" clip-rule="evenodd"/><path fill="#000" fill-rule="evenodd" d="M75.385 67.692l15.384 9.231-15.384-9.23z" clip-rule="evenodd"/><path fill="#fff" fill-rule="evenodd" d="M89.808 76.923l-14.423-9.365.961-1.404 14.423 9.365-.961 1.404z" clip-rule="evenodd"/><path fill="#CD2E3A" fill-rule="evenodd" d="M32.517 38.148C38.954 28.328 52 25.675 61.656 32.22c9.656 6.546 12.265 19.813 5.828 29.632-6.438 9.819-19.484 12.472-29.14 5.926-9.655-6.546-12.265-19.813-5.827-29.631z" clip-rule="evenodd"/><path fill="#0047A0" fill-rule="evenodd" d="M32.517 38.147c-3.22 4.91-1.914 11.543 2.913 14.816C40.259 56.236 46.782 54.91 50 50c3.219-4.91 9.742-6.236 14.57-2.963 4.828 3.273 6.132 9.906 2.914 14.816-6.438 9.819-19.484 12.472-29.14 5.926-9.655-6.546-12.265-19.813-5.827-29.632z" clip-rule="evenodd"/><path fill="#000" fill-rule="evenodd" d="M28.146 77.656L16.49 59.877l11.656 17.78zm-4.37 2.963L12.118 62.84l11.656 17.78zm-4.372 2.963L7.75 65.804l11.655 17.778z" clip-rule="evenodd"/><path fill="#000" fill-rule="evenodd" d="M26.689 78.644l-11.656-17.78 2.914-1.974 11.656 17.778-2.914 1.976zm-4.371 2.963L10.662 63.828l2.914-1.975 11.656 17.779-2.914 1.975zm-4.37 2.963L6.29 66.791l2.914-1.975L20.86 82.595l-2.914 1.975zm74.304-50.373l-11.656-17.78 11.656 17.78zM87.88 37.16L76.225 19.38l11.656 17.78zm-4.37 2.963L71.854 22.344 83.51 40.123z" clip-rule="evenodd"/><path fill="#000" fill-rule="evenodd" d="M90.795 35.184L79.14 17.405l2.913-1.975L93.71 33.21l-2.914 1.975zm-4.37 2.963L74.768 20.37l2.914-1.976 11.655 17.78-2.914 1.974zm-4.371 2.964L70.398 23.33l2.914-1.975 11.655 17.78-2.913 1.975z" clip-rule="evenodd"/><path fill="#000" fill-rule="evenodd" d="M84.239 26.789l4.37-2.963-4.37 2.963zm-9.47 6.42l5.099-3.457-5.1 3.457zM15.762 73.21l4.37-2.963-4.37 2.963z" clip-rule="evenodd"/><path fill="#fff" fill-rule="evenodd" d="M84.724 27.53l-.971-1.482 4.37-2.963.972 1.481-4.37 2.963zm-9.47 6.42l-.971-1.482 5.099-3.457.971 1.482-5.1 3.457zM16.247 73.952l-.971-1.481 4.37-2.964.972 1.482-4.37 2.963z" clip-rule="evenodd"/></g></svg>