<svg width="76" height="76" viewBox="0 0 76 76" fill="none" xmlns="http://www.w3.org/2000/svg"><path d="M74.847 47.152C69.855 67.597 49.173 79.958 28.73 74.847c-20.325-4.992-32.687-25.674-27.576-46 4.992-20.444 25.674-32.806 46-27.694 20.444 4.992 32.806 25.674 27.694 46z" fill="#F7931A"/><path d="M54.76 32.532c.713-5.11-3.09-7.726-8.32-9.628l1.664-6.894-4.16-.95-1.665 6.656c-1.07-.238-2.258-.476-3.328-.832l1.664-6.776-4.16-1.07-1.664 6.895c-.95-.238-1.783-.357-2.615-.595l-5.705-1.426-1.07 4.398s3.09.713 2.972.713c1.664.476 2.02 1.545 1.901 2.377l-1.901 7.845c.118 0 .237.12.475.12-.119 0-.238-.12-.475-.12l-2.734 10.936c-.238.475-.713 1.307-1.902.95 0 .12-3.09-.713-3.09-.713l-2.021 4.755 5.468 1.307c1.07.238 2.02.476 2.971.714l-1.783 6.894 4.16 1.07 1.665-6.895c1.188.357 2.258.595 3.328.832l-1.664 6.776 4.16 1.07 1.783-6.895c7.131 1.308 12.48.832 14.739-5.586 1.782-5.23-.12-8.202-3.804-10.104 2.496-.237 4.517-2.02 5.111-5.824zm-9.509 13.432c-1.307 5.23-9.984 2.377-12.837 1.664l2.258-9.153c2.853.713 11.887 2.021 10.58 7.489zm1.308-13.432c-1.19 4.755-8.44 2.377-10.817 1.783l2.02-8.32c2.378.475 9.985 1.545 8.797 6.537z" fill="#fff"/></svg>