<svg width="38" height="44" viewBox="0 0 38 44" fill="none" xmlns="http://www.w3.org/2000/svg"><path d="M26.6 22c0 1.012-.85 1.833-1.9 1.833-1.05 0-1.9-.821-1.9-1.834 0-1.013.85-1.834 1.9-1.834 1.05 0 1.9.821 1.9 1.834z" fill="#212121"/><path d="M17.473.036a1.951 1.951 0 0 0-1.578.38 1.81 1.81 0 0 0-.695 1.418v40.332c0 .55.255 1.07.695 1.418.44.348 1.02.488 1.578.38l19-3.667c.888-.172 1.527-.924 1.527-1.798V5.5c0-.874-.64-1.626-1.527-1.798l-19-3.667zM19 39.929V4.071l15.2 2.934v29.99L19 39.93zm-7.6.403v-3.668H3.8V7.334h7.6V3.668H1.9c-1.05 0-1.9.821-1.9 1.834v32.997c0 1.013.85 1.834 1.9 1.834h9.5z" fill="#212121"/></svg>