<svg width="40" height="40" viewBox="0 0 40 40" fill="none" xmlns="http://www.w3.org/2000/svg"><g clip-path="url(#clip0)" fill="#191919"><path d="M19.145 39.041c7.767 0 14.434-5.111 17.064-12.332h-1.652c-2.507 6.326-8.44 10.735-15.412 10.735-9.236 0-16.698-7.86-16.698-17.444 0-9.585 7.523-17.444 16.698-17.444 6.238 0 11.682 3.578 14.556 8.946l-4.281 1.214L36.576 20l2.508-10.096-3.854 1.15C32.172 5.048 26.117.958 19.145.958 9.115.958.918 9.521.918 20c0 10.48 8.196 19.041 18.227 19.041z"/><path d="M19.144 0c6.79 0 13.089 3.77 16.514 9.904l3.18-.894c.306-.064.673 0 .918.255.244.256.306.575.244.895l-2.507 10.096c-.061.32-.306.575-.612.703-.306.063-.673 0-.917-.256l-7.156-7.284c-.245-.256-.306-.576-.245-.895.061-.32.306-.575.612-.703l3.058-.894c-2.936-4.601-7.829-7.349-13.15-7.349-8.685 0-15.78 7.412-15.78 16.486 0 9.073 7.156 16.422 15.841 16.422 6.361 0 12.11-3.962 14.557-10.16.122-.384.489-.575.856-.575h1.651c.306 0 .612.128.734.383.184.256.184.575.123.895C34.25 34.824 27.095 40 19.145 40 8.562 40 0 31.054 0 20S8.624 0 19.144 0zm16.942 18.147l1.713-6.901-2.325.703c-.305.064-.672 0-.856-.256 0 .064 0 .064-.061.128a1.113 1.113 0 0 1-.612.575l-2.69.767 4.831 4.984z"/></g><defs><clipPath id="clip0"><path fill="#fff" transform="rotate(-180 20 20)" d="M0 0h40v40H0z"/></clipPath></defs></svg>