<svg xmlns="http://www.w3.org/2000/svg" width="50" height="40" fill="none" viewBox="0 0 50 40"><path fill="#0068C1" d="M41.875 40H8.125a8.125 8.125 0 0 1-8.112-7.664L0 31.875V5.625A5.626 5.626 0 0 1 5.24.013L5.625 0h31.25a5.626 5.626 0 0 1 5.612 5.24l.013.385V7.5h1.875a5.626 5.626 0 0 1 5.612 5.24l.013.385v18.75a8.125 8.125 0 0 1-7.664 8.112l-.461.013zm-33.75-3.75h33.75a4.375 4.375 0 0 0 4.36-4.016l.015-.359v-18.75c0-.95-.706-1.734-1.62-1.858l-.255-.017H42.5v19.375c0 .95-.706 1.734-1.62 1.858l-.255.017c-.95 0-1.734-.706-1.858-1.62l-.017-.255v-25c0-.95-.706-1.734-1.62-1.858l-.255-.017H5.625c-.95 0-1.734.705-1.858 1.62l-.017.255v26.25a4.375 4.375 0 0 0 4.016 4.36l.359.015zm17.49-10h7.515a1.875 1.875 0 0 1 .255 3.733L33.13 30h-7.515a1.876 1.876 0 0 1-.255-3.733l.255-.017zm-7.507-8.739c1.036 0 1.875.84 1.875 1.875v8.739c0 1.035-.84 1.875-1.875 1.875H9.37a1.876 1.876 0 0 1-1.875-1.875v-8.739c0-1.035.84-1.875 1.875-1.875h8.74zm-1.875 3.75h-4.989v4.989h4.99v-4.989zm9.382-3.75h7.515a1.875 1.875 0 0 1 .255 3.733l-.255.017h-7.515a1.876 1.876 0 0 1-.255-3.733l.255-.017zM9.369 8.756H33.13a1.875 1.875 0 0 1 .255 3.733l-.255.017H9.37a1.876 1.876 0 0 1-.255-3.733l.254-.017z"/></svg>