<svg width="41" height="44" viewBox="0 0 41 44" fill="none" xmlns="http://www.w3.org/2000/svg"><path d="M11.835 5.244a1.712 1.712 0 0 1 2.267.818 1.686 1.686 0 0 1-.825 2.249C7.309 11.07 3.41 17.022 3.41 23.677c0 9.355 7.636 16.94 17.054 16.94s17.054-7.584 17.054-16.94c0-6.641-3.881-12.583-9.83-15.35a1.686 1.686 0 0 1-.82-2.25 1.711 1.711 0 0 1 2.268-.814c7.136 3.32 11.793 10.449 11.793 18.414C40.93 34.9 31.768 44 20.465 44 9.162 44 0 34.9 0 23.677 0 15.695 4.676 8.554 11.835 5.244zM20.465 0c.863 0 1.577.637 1.69 1.462l.016.23v16.92c0 .934-.764 1.691-1.706 1.691a1.701 1.701 0 0 1-1.69-1.462l-.016-.23V1.691A1.7 1.7 0 0 1 20.465 0z" fill="#212121"/></svg>