<svg width="76" height="76" viewBox="0 0 76 76" fill="none" xmlns="http://www.w3.org/2000/svg"><circle cx="38" cy="38" r="38" fill="#0047A0"/><path d="M50.908 40.972h4.2v-3.234h-3.696l2.352-13.944H48.64l-1.806 13.944h-3.822c-.14-.728-.364-1.778-.672-3.15-.28-1.4-.63-3.108-1.05-5.124l-.756-3.822h-4.872l-.798 3.822c-.42 2.016-.784 3.724-1.092 5.124-.28 1.372-.49 2.422-.63 3.15h-3.78L27.43 23.794h-5.502l2.478 13.944H20.71v3.234h4.284l2.52 14.07h5.88l.924-4.62c.28-1.344.574-2.842.882-4.494.336-1.68.658-3.332.966-4.956h3.444c.308 1.624.63 3.276.966 4.956.336 1.652.644 3.15.924 4.494l.924 4.62h6.09l2.394-14.07zM37.93 31.984l1.05 5.754h-2.226l1.176-5.754zm-7.014 17.01h-.084c-.056-.448-.126-1.022-.21-1.722a97.262 97.262 0 0 0-.336-2.562c-.28-1.96-.448-3.206-.504-3.738h2.772a386.87 386.87 0 0 0-.378 1.722c-.14.644-.28 1.372-.42 2.184a144.82 144.82 0 0 0-.63 3.15c-.056.252-.098.462-.126.63-.028.168-.056.28-.084.336zM43.6 40.972h2.73c-.28 2.268-.504 4.06-.672 5.376-.14 1.316-.238 2.198-.294 2.646h-.168l-.294-1.47a50.064 50.064 0 0 0-.252-1.26l-.252-1.176a29.506 29.506 0 0 0-.21-1.26c-.112-.448-.21-.91-.294-1.386a34.1 34.1 0 0 0-.294-1.47z" fill="#fff"/></svg>