<svg width="76" height="76" viewBox="0 0 76 76" fill="none" xmlns="http://www.w3.org/2000/svg"><path d="M76 37.997c0 20.984-17.011 37.995-38 37.995S0 58.979 0 37.997C0 17.015 17.013 0 38 0s38 17.01 38 37.997z" fill="#fff"/><path d="M37.208 7.917L23.258 27.29l-5.841 28.64 19.791 12.153L57 55.93l-5.96-28.76L37.209 7.917zm-16.572 46.69l4.411-21.781L35.062 63.51l-14.426-8.905zm5.842-26.715l10.73-14.921 10.73 14.921-10.73 32.73-10.73-32.73zm12.757 35.619L49.25 32.826l4.412 21.78-14.427 8.905z" fill="#000"/></svg>