<svg width="76" height="76" viewBox="0 0 76 76" fill="none" xmlns="http://www.w3.org/2000/svg"><circle cx="38" cy="38" r="38" fill="#EFEFEF"/><path fill-rule="evenodd" clip-rule="evenodd" d="M20.833 17.237l-9.79 20.561a.382.382 0 0 0 .08.459L37.55 63.594a.412.412 0 0 0 .553 0L64.55 38.257a.386.386 0 0 0 .08-.459l-9.791-20.56c-.032-.143-.174-.238-.332-.238h-33.31c-.142 0-.285.095-.364.237z" fill="#50AF95"/><path fill-rule="evenodd" clip-rule="evenodd" d="M41.252 39.902c-.19.016-1.17.08-3.353.08-1.74 0-2.973-.048-3.416-.08-6.722-.3-11.735-1.47-11.735-2.863 0-1.392 5.013-2.562 11.735-2.878v4.57c.443.032 1.693.111 3.432.111 2.088 0 3.132-.094 3.322-.11V34.16c6.706.3 11.72 1.47 11.72 2.862 0 1.392-4.998 2.579-11.705 2.88zm0-6.2v-4.096h9.364v-6.248H25.12v6.248h9.363v4.096c-7.607.348-13.333 1.85-13.333 3.67 0 1.818 5.726 3.305 13.333 3.669v13.111h6.77V41.041c7.591-.348 13.3-1.85 13.3-3.654 0-1.803-5.709-3.337-13.3-3.685z" fill="#fff"/></svg>