<svg width="76" height="76" viewBox="0 0 76 76" fill="none" xmlns="http://www.w3.org/2000/svg"><path d="M38 0C17.013 0 0 17.013 0 38s17.013 38 38 38 38-17.013 38-38S58.987 0 38 0zm-9.503 51.13l-.36.36a28.268 28.268 0 0 1-2.366 2.109l-.952.745a.35.35 0 0 1-.399.026.33.33 0 0 1-.154-.373l.373-1.684a10.494 10.494 0 0 0-.257-5.53l-.206-.617a24.848 24.848 0 0 0-.81-2.122L18.98 33.692l-.476-1.414a6.841 6.841 0 0 1-.296-1.35l-.077-.708a6.535 6.535 0 0 1 1.877-5.362l.36-.36a28.269 28.269 0 0 1 2.367-2.11l.951-.745a.349.349 0 0 1 .399-.026.33.33 0 0 1 .154.373l-.373 1.684a10.495 10.495 0 0 0 .258 5.53l.205.617c.232.72.515 1.428.81 2.122l4.398 10.352.476 1.415c.142.437.245.887.296 1.35l.077.707a6.6 6.6 0 0 1-1.89 5.363zm14.84 3.395l-.463.462a32.318 32.318 0 0 1-2.984 2.65l-1.234.977a.385.385 0 0 1-.232.077.427.427 0 0 1-.205-.064.362.362 0 0 1-.168-.399l.49-2.173a13.276 13.276 0 0 0-.335-6.983l-.257-.784a28.232 28.232 0 0 0-1.03-2.688l-5.542-13.052-.591-1.775a8.395 8.395 0 0 1-.373-1.685l-.103-.9c-.283-2.495.579-4.938 2.34-6.725l.463-.463a32.275 32.275 0 0 1 2.984-2.65l1.234-.977a.367.367 0 0 1 .438-.026c.141.09.205.245.167.4l-.489 2.172a13.277 13.277 0 0 0 .334 6.983l.258.785c.295.9.643 1.813 1.028 2.687L44.61 43.44l.591 1.774c.18.54.309 1.119.373 1.685l.103.9a8.204 8.204 0 0 1-2.34 6.726zM55.99 51.13l-.36.36a28.285 28.285 0 0 1-2.366 2.109l-.951.745a.35.35 0 0 1-.399.026.33.33 0 0 1-.154-.373l.373-1.684a10.495 10.495 0 0 0-.258-5.53l-.205-.617a24.88 24.88 0 0 0-.81-2.122l-4.398-10.352-.476-1.414a6.834 6.834 0 0 1-.296-1.35l-.077-.708a6.535 6.535 0 0 1 1.877-5.362l.36-.36a28.269 28.269 0 0 1 2.367-2.11l.951-.745a.349.349 0 0 1 .399-.026.33.33 0 0 1 .154.373l-.373 1.684a10.494 10.494 0 0 0 .257 5.53l.206.617c.232.72.515 1.428.81 2.122l4.398 10.352.476 1.415c.142.437.244.887.296 1.35l.077.707a6.55 6.55 0 0 1-1.878 5.363z" fill="#171FC9"/></svg>