<svg width="76" height="76" viewBox="0 0 76 76" fill="none" xmlns="http://www.w3.org/2000/svg"><path d="M38 76c20.987 0 38-17.013 38-38S58.987 0 38 0 0 17.013 0 38s17.013 38 38 38z" fill="#E5E5E5"/><g clip-path="url(#clip0)"><path d="M37.994 9.5l-.414 1.297v37.695l.414.382L56.99 38.528 37.994 9.5z" fill="#343434"/><path d="M37.995 9.5L19 38.528l18.995 10.346V9.5z" fill="#8C8C8C"/><path d="M37.994 52.182l-.229.261v13.433l.23.624L57 41.846 37.994 52.182z" fill="#3C3C3B"/><path d="M37.995 66.5V52.182L19 41.846 37.995 66.5z" fill="#8C8C8C"/><path d="M37.995 48.874l18.994-10.346-18.994-7.953v18.299z" fill="#141414"/><path d="M19 38.528l18.995 10.346v-18.3L19 38.529z" fill="#393939"/></g><defs><clipPath id="clip0"><path fill="#fff" transform="translate(19 9.5)" d="M0 0h38v57H0z"/></clipPath></defs></svg>