<svg width="76" height="76" viewBox="0 0 76 76" fill="none" xmlns="http://www.w3.org/2000/svg"><path d="M38 76c20.987 0 38-17.013 38-38S58.987 0 38 0 0 17.013 0 38s17.013 38 38 38z" fill="#004576"/><path d="M24.977 41.925v-13.38c0-.357-.357.178-.357.178l-6.78 4.995c-.535.357-.535 1.25-.535 1.25v11.594c0 .892.536 1.963 1.25 2.498l17.661 13.023s.179.179.357.179.178 0 .178-.357V51.023s0-.356-.178-.713l-11.596-8.385zm33.718-6.6v-.178s0-.892-.535-1.25l-6.78-4.995s-.357-.356-.357-.178v13.38L39.25 50.846c-.357.357-.178.714-.178.714v10.882c0 .179 0 .179.178.357.178 0 .357-.178.357-.178l17.662-13.024a3.122 3.122 0 0 0 1.248-2.497V36.217l.179-.892z" fill="#fff"/><path d="M41.748 33.183v5.71h-7.315v-18.02h7.315v5.71h7.136v-7.494l-6.958-5.53h-7.671l-6.958 5.53-.178 14.094h.178v7.493l6.958 5.53h7.671l6.958-5.53v-7.493h-7.136z" fill="#fff"/></svg>