<svg xmlns="http://www.w3.org/2000/svg" width="69" height="70" fill="none" viewBox="0 0 69 70"><path fill="#0068C1" d="M37.813 16.116a3.781 3.781 0 1 1-7.563.001 3.781 3.781 0 0 1 7.563-.001z"/><path fill="#0068C1" d="M37.933 1.272a6.618 6.618 0 0 0-7.802 0L2.067 21.752c-3.695 2.696-1.788 8.544 2.786 8.544h.819v21.931A10.4 10.4 0 0 0 0 61.492v5.672A2.836 2.836 0 0 0 2.836 70h62.392a2.836 2.836 0 0 0 2.836-2.836v-5.672a10.4 10.4 0 0 0-5.672-9.265v-21.93h.819c4.574 0 6.48-5.85 2.786-8.546L37.933 1.271zm-4.458 4.582a.942.942 0 0 1 1.114 0l25.723 18.77H7.752l25.723-18.77zM56.72 30.296v20.797h-7.563V30.296h7.563zm-13.235 0v20.797h-6.617V30.296h6.617zm-12.289 0v20.797h-6.617V30.296h6.617zm-20.797 26.47h47.266a4.727 4.727 0 0 1 4.727 4.726v2.836H5.672v-2.836a4.727 4.727 0 0 1 4.727-4.727zm.945-5.673V30.296h7.563v20.797h-7.563z"/></svg>