<svg width="260" height="260" viewBox="0 0 260 260" fill="none" xmlns="http://www.w3.org/2000/svg"><path d="M130 260c71.797 0 130-58.203 130-130S201.797 0 130 0 0 58.203 0 130s58.203 130 130 130z" fill="#0068C1"/><path fill-rule="evenodd" clip-rule="evenodd" d="M105.625 172.12l-35.62-35.62c-4.03-4.03-4.03-10.66 0-14.69 4.03-4.03 10.66-4.03 14.69 0l28.34 28.34 62.53-62.53c4.03-4.03 10.66-4.03 14.69 0 4.03 4.03 4.03 10.66 0 14.69l-69.875 69.81a10.365 10.365 0 0 1-9.36 2.86c-1.95-.39-3.835-1.365-5.395-2.86z" fill="#fff"/></svg>