<svg xmlns="http://www.w3.org/2000/svg" width="45" height="50" fill="none" viewBox="0 0 45 50"><path fill="#0068C1" d="M8.293 12.5v-5c0-4.142 3.713-7.5 8.294-7.5 2.124 0 4.061.722 5.528 1.91C23.583.722 25.52 0 27.645 0c4.58 0 8.293 3.358 8.293 7.5v5h4.146c2.29 0 4.147 1.679 4.147 3.75v25.013c0 4.825-4.326 8.737-9.662 8.737H11.058C4.95 50 0 45.523 0 40V16.25c0-2.071 1.857-3.75 4.147-3.75h4.146zm18.342 33.75c-1.089-1.414-1.728-3.133-1.728-4.987V16.25H4.147V40c0 3.452 3.094 6.25 6.91 6.25h15.578zM20.733 12.5v-5c0-2.071-1.856-3.75-4.146-3.75S12.44 5.429 12.44 7.5v5h8.293zm4.147 0h6.91v-5c0-2.071-1.856-3.75-4.146-3.75-1.285 0-2.434.529-3.194 1.36.279.75.43 1.554.43 2.39v5zm4.174 28.763c0 2.754 2.47 4.987 5.515 4.987 3.046 0 5.515-2.233 5.515-4.987V16.25h-11.03v25.013z"/></svg>