<svg width="76" height="77" viewBox="0 0 76 77" fill="none" xmlns="http://www.w3.org/2000/svg"><path d="M37.999 0C17.016 0-.026 17.038 0 37.998a38.13 38.13 0 0 0 1.929 12h11.37V18.032L38 42.728l24.698-24.696v31.966H74.07c1.257-3.773 1.923-7.808 1.93-12C76.037 17.016 58.985.004 38 .004V0z" fill="#F26822"/><path d="M32.318 48.405l-10.78-10.778v20.114h-8.24l-7.776.002c6.67 10.942 18.724 18.262 32.476 18.262 13.753 0 25.807-7.32 32.48-18.262H54.453V37.629l-10.78 10.778-5.678 5.676-5.678-5.678z" fill="#4D4D4D"/></svg>