<svg width="76" height="76" viewBox="0 0 76 76" fill="none" xmlns="http://www.w3.org/2000/svg"><circle cx="38" cy="38" r="38" fill="#BC002D"/><path d="M26.78 48.91h8.359v6.342h5.88V48.91h8.232v-3.15h-8.232v-2.604h8.232v-3.192h-6.804l9.576-15.792h-6.72c-1.26 2.548-2.394 4.858-3.402 6.93-.42.896-.84 1.778-1.26 2.646-.42.84-.812 1.61-1.176 2.31l-.84 1.68c-.224.448-.35.714-.378.798h-.294c-.028-.084-.154-.35-.378-.798a59.859 59.859 0 0 0-.882-1.68c-.336-.7-.714-1.47-1.134-2.31-.42-.868-.84-1.75-1.26-2.646a178.465 178.465 0 0 1-1.638-3.276 416.881 416.881 0 0 0-1.806-3.654h-6.72l9.45 15.792H26.78v3.192h8.358v2.604H26.78v3.15z" fill="#fff"/></svg>