<svg width="60" height="60" viewBox="0 0 60 60" fill="none" xmlns="http://www.w3.org/2000/svg"><path d="M60 30c0 16.569-13.431 30-30 30C13.431 60 0 46.569 0 30 0 13.431 13.431 0 30 0c16.569 0 30 13.431 30 30z" fill="#0068C1"/><path fill-rule="evenodd" clip-rule="evenodd" d="M30 58c15.464 0 28-12.536 28-28S45.464 2 30 2 2 14.536 2 30s12.536 28 28 28zm0 2c16.569 0 30-13.431 30-30C60 13.431 46.569 0 30 0 13.431 0 0 13.431 0 30c0 16.569 13.431 30 30 30z" fill="#0068C1"/><path d="M27 17.25a2.25 2.25 0 0 1 4.5 0v27a2.25 2.25 0 0 1-4.5 0v-27z" fill="#fff"/><path d="M42.75 28.5a2.25 2.25 0 0 1 0 4.5h-27a2.25 2.25 0 0 1 0-4.5h27z" fill="#fff"/></svg>