<svg width="60" height="60" viewBox="0 0 60 60" fill="none" xmlns="http://www.w3.org/2000/svg"><path d="M30 60c16.569 0 30-13.431 30-30C60 13.431 46.569 0 30 0 13.431 0 0 13.431 0 30c0 16.569 13.431 30 30 30z" fill="#004576"/><path fill-rule="evenodd" clip-rule="evenodd" d="M25.2 29.46V25.2H36c.66 0 1.2-.54 1.2-1.2v-3c0-.66-.54-1.2-1.2-1.2H25.2v-4.26a1.2 1.2 0 0 0-1.92-.96l-9.9 6.96c-.66.48-.66 1.5 0 1.98l9.9 6.96c.84.54 1.92 0 1.92-1.02zm21.42 7.68l-9.9-7.02c-.78-.54-1.92 0-1.92.96v4.32H24c-.66 0-1.2.54-1.2 1.2v3c0 .66.54 1.2 1.2 1.2h10.8v4.26a1.2 1.2 0 0 0 1.92.96l9.9-6.96c.66-.48.66-1.44 0-1.92z" fill="#fff"/></svg>