<svg width="44" height="44" viewBox="0 0 44 44" fill="none" xmlns="http://www.w3.org/2000/svg"><path d="M32.474 20.947C38.84 20.947 44 26.107 44 32.474 44 38.839 38.84 44 32.474 44 26.11 44 20.95 38.84 20.95 32.474s5.16-11.527 11.525-11.527zm-11.479 4.19a13.563 13.563 0 0 0-1.485 3.144l-14.797.001a1.57 1.57 0 0 0-1.57 1.57v1.21c0 1.123.4 2.208 1.13 3.062 2.626 3.076 6.746 4.639 12.484 4.639 1.25 0 2.423-.074 3.521-.222a13.513 13.513 0 0 0 1.91 2.864c-1.667.335-3.479.501-5.43.501-6.593 0-11.593-1.896-14.876-5.74A7.859 7.859 0 0 1 0 31.062v-1.21a4.713 4.713 0 0 1 4.713-4.713l16.282-.002zm11.48.002l-.19.017a1.05 1.05 0 0 0-.842.842l-.017.188-.002 5.24h-5.228l-.189.017a1.05 1.05 0 0 0-.842.842l-.017.189.017.188c.077.428.415.765.842.843l.189.017h5.228l.003 5.239.016.188c.078.428.415.765.843.843l.188.016.188-.016c.428-.078.766-.415.843-.843l.017-.188-.002-5.24h5.25l.187-.016a1.05 1.05 0 0 0 .843-.843l.017-.188-.017-.189a1.049 1.049 0 0 0-.843-.842l-.188-.017H33.52l.002-5.24-.017-.188a1.049 1.049 0 0 0-.843-.843l-.188-.017zM16.756 0c5.787 0 10.478 4.691 10.478 10.479 0 5.787-4.69 10.478-10.478 10.478-5.787 0-10.478-4.691-10.478-10.479C6.28 4.692 10.97 0 16.757 0zm0 3.144a7.335 7.335 0 1 0 0 14.67 7.335 7.335 0 0 0 0-14.67z" fill="#212121"/></svg>