<svg width="108" height="65" viewBox="0 0 108 65" fill="none" xmlns="http://www.w3.org/2000/svg"><path d="M25.221 0v.083L25.303 0h-.082zm0 64.501h.082l-.082-.083v.083zM107.502 1.25V0H31.92l-.083.083L0 32.167l.083.084-.083.083 31.837 32.084.083.083h75.582V1.25zm-6.285 56.834H34.566L8.848 32.251 34.483 6.417h66.652v51.667h.082z" fill="#5F5F5F"/><path d="M85.175 19.25l-4.465-4.5-12.9 13-12.984-13-4.382 4.5 12.9 13-12.9 13 4.382 4.5 12.983-13 12.9 13 4.466-4.5-12.983-13 12.983-13z" fill="#5F5F5F"/></svg>