<svg xmlns="http://www.w3.org/2000/svg" width="70" height="70" fill="none" viewBox="0 0 70 70"><path fill="#0068C1" d="M0 13.461C0 6.027 6.027 0 13.461 0h37.693c7.434 0 13.461 6.027 13.461 13.461v9.462a29.691 29.691 0 0 0-5.384-3.54v-5.921a8.077 8.077 0 0 0-8.077-8.077H13.46a8.076 8.076 0 0 0-8.076 8.076v37.693a8.077 8.077 0 0 0 8.076 8.077h5.922a29.726 29.726 0 0 0 3.54 5.384h-9.461C6.026 64.615 0 58.588 0 51.154V13.46zM70 45.77C70 59.152 59.152 70 45.77 70c-13.383 0-24.232-10.848-24.232-24.23 0-13.383 10.849-24.232 24.231-24.232C59.152 21.538 70 32.388 70 45.77zM48.462 35a2.693 2.693 0 0 0-5.385 0v8.077H35a2.692 2.692 0 0 0 0 5.385h8.077v8.076a2.693 2.693 0 0 0 5.385 0v-8.076h8.076a2.693 2.693 0 0 0 0-5.385h-8.076V35z"/></svg>