<svg width="28" height="28" viewBox="0 0 28 28" fill="none" xmlns="http://www.w3.org/2000/svg"><path d="M10.702 21.228a10.811 10.811 0 0 1-7.565-3.11A10.633 10.633 0 0 1 0 10.613c0-2.928 1.107-5.49 3.137-7.503A10.811 10.811 0 0 1 10.702 0c2.952 0 5.535 1.098 7.565 3.111 4.244 4.21 4.244 10.98 0 15.006-2.03 2.196-4.798 3.111-7.565 3.111zm0-16.47c-1.66 0-3.137.55-4.244 1.647-1.107 1.098-1.66 2.562-1.66 4.21 0 1.646.553 3.11 1.66 4.208 2.399 2.38 6.089 2.38 8.487 0 2.4-2.379 2.4-6.039 0-8.235-1.291-1.28-2.767-1.83-4.243-1.83z" fill="#212121"/><path d="M25.648 28c-.554 0-1.292-.183-1.661-.732l-8.857-8.784a2.306 2.306 0 0 1 0-3.294 2.352 2.352 0 0 1 3.322 0l8.856 8.784a2.306 2.306 0 0 1 0 3.294c-.369.366-.922.732-1.66.732z" fill="#212121"/></svg>