<svg width="316" height="51" viewBox="0 0 316 51" fill="none" xmlns="http://www.w3.org/2000/svg"><path d="M24.992 0h-7.498v7.375h7.498V0z" fill="#004576"/><path d="M32.365 13.375v-7.75L25.242 0h-.25v13.375h7.373z" fill="#0068C1"/><path d="M24.992 25.875h-7.498v7.375h7.498v-7.375z" fill="#004576"/><path d="M32.365 20v7.75l-7.123 5.625h-.25V20h7.373zM17.245 0l-7.123 5.625V27.75l7.123 5.625h.25V0h-.25z" fill="#0068C1"/><path d="M.5 20.625l6.998-5.25s.375-.375.375-.125V29L.875 24.375 0 22.875V22s0-1 .5-1.375z" fill="#004576"/><path d="M0 22.25V34c0 1 .5 1.875 1.25 2.5l18.119 13.25s.25.25.375.125c.25-.125.25-.125.25-.375v-11s0-.375-.25-.75L1.25 24l-.75-.75-.5-1s0-.25 0 0z" fill="#0068C1"/><path d="M41.987 20.625l-6.998-5.25s-.375-.375-.375-.125V29l6.998-4.625.875-1.625v-.875c0 .125 0-.875-.5-1.25z" fill="#004576"/><path d="M42.487 22.25V34c0 1-.5 1.875-1.25 2.5L22.993 49.875s-.25.25-.375.125c-.25-.125-.25-.125-.25-.375v-11s0-.375.25-.75l18.494-13.75.75-.75c.25-.375.5-.875.625-1.125 0 0 0-.25 0 0zm41.362 10.878c.25-.25.625 0 .625.375v6c-3.25 2.75-7.248 4-11.872 4-10.371 0-16.495-7.25-16.495-18.75 0-11.875 7.373-18.75 17.12-18.75 4.624 0 7.998.875 10.997 3.5v6c0 .375-.375.625-.625.375-3-3.375-6.123-4.75-9.997-4.75-6.373 0-11.247 4.625-11.247 13.625 0 9.25 3.874 13.875 10.997 13.875 3.999-.125 7.498-2.125 10.497-5.5zm18.869 10.5c-10.122 0-15.995-8.125-15.995-18.75-.125-10.5 5.748-18.875 15.995-18.875s16.12 8.375 16.12 18.875-5.998 18.75-16.12 18.75zm0-5.125c6.498 0 9.997-5.625 9.997-13.75s-3.374-13.75-9.997-13.75c-6.498 0-9.872 5.625-9.872 13.75s3.374 13.75 9.872 13.75zm47.735-5.375c.25-.25.625 0 .625.375v6c-3.249 2.75-7.248 4-11.871 4-10.372 0-16.495-7.25-16.495-18.75 0-11.875 7.372-18.75 17.119-18.75 4.624 0 7.998.875 10.997 3.5v6c0 .375-.375.625-.625.375-2.999-3.375-6.123-4.75-9.997-4.75-6.373 0-11.246 4.625-11.246 13.625 0 9.25 3.874 13.875 10.996 13.875 3.999-.125 7.498-2.125 10.497-5.5zm18.744 10.5c-10.122 0-15.995-8.125-15.995-18.75 0-10.5 5.873-18.875 15.995-18.875 10.247 0 16.12 8.375 16.12 18.875s-5.873 18.75-16.12 18.75zm0-5.125c6.498 0 9.997-5.625 9.997-13.75s-3.374-13.75-9.997-13.75c-6.498 0-9.872 5.625-9.872 13.75s3.374 13.75 9.872 13.75z" fill="#0068C1"/><path d="M203.062 11.003h-5.374v9.625h4.999c3.998 0 6.373-1.25 6.373-5.125 0-2.625-1.875-4.5-5.998-4.5zm0 14.25h-5.374v12.5h6.123c4.249 0 6.873-2.625 6.873-6.25s-2.624-6.25-7.622-6.25zm6.248-2.625c4.123.75 7.497 4.25 7.497 9 0 5.5-4.123 11.125-12.621 11.125H191.69V6.003h12.246c7.623 0 11.122 4.25 11.122 8.625.125 3.875-1.875 6.625-5.748 8zm27.866-16.625l12.246 36.75h-5.998l-3.249-10.125h-12.496l-3.249 10.125h-5.998l12.246-36.75h6.498zm-3.249 5.375l-1 3.5-4.123 13h10.121l-3.998-13-1-3.5zm39.613 20.375l1.374 4.125V6.003h5.623v36.75h-7.872l-11.622-25.625-1.374-4.125v29.75h-5.623V6.003h7.872l11.622 25.75zm27.241-10.5l14.371 21.625h-7.123l-11.122-17.625-2.749 3.25v14.375h-5.998V6.003h5.998v15l13.246-15h7.248l-13.871 15.25z" fill="#004576"/></svg>