<svg width="549" height="80" viewBox="0 0 549 80" fill="none" xmlns="http://www.w3.org/2000/svg"><path d="M307.727 71.888c2.2 0 4.133-.033 5.8-.1 1.733-.136 3.166-.339 4.3-.61V55.464c-.667-.338-1.767-.609-3.3-.812-1.467-.27-3.267-.405-5.4-.405-1.4 0-2.9.101-4.5.304a13.279 13.279 0 0 0-4.3 1.318 8.648 8.648 0 0 0-3.2 2.636c-.867 1.082-1.3 2.535-1.3 4.36 0 3.38 1.066 5.746 3.2 7.098 2.133 1.284 5.033 1.926 8.7 1.926zm-.8-47.25c3.733 0 6.866.508 9.4 1.522 2.6.946 4.666 2.332 6.2 4.157 1.6 1.757 2.733 3.887 3.4 6.388.666 2.433 1 5.137 1 8.111V77.77c-.8.135-1.934.338-3.4.609-1.4.203-3 .405-4.8.608-1.8.203-3.767.372-5.9.507a63.464 63.464 0 0 1-6.2.304c-2.934 0-5.634-.304-8.1-.912-2.467-.609-4.6-1.555-6.4-2.84-1.8-1.351-3.2-3.109-4.2-5.272-1-2.163-1.5-4.765-1.5-7.807 0-2.907.566-5.408 1.7-7.503 1.2-2.096 2.8-3.786 4.8-5.07 2-1.284 4.333-2.23 7-2.84 2.666-.607 5.466-.912 8.4-.912.933 0 1.9.068 2.9.203 1 .068 1.933.203 2.8.406.933.135 1.733.27 2.4.405.666.135 1.133.237 1.4.304v-2.636a20.83 20.83 0 0 0-.5-4.563c-.334-1.554-.934-2.906-1.8-4.055-.867-1.217-2.067-2.163-3.6-2.84-1.467-.743-3.4-1.115-5.8-1.115-3.067 0-5.767.237-8.1.71-2.267.406-3.967.845-5.1 1.318l-1.1-7.807c1.2-.54 3.2-1.048 6-1.521 2.8-.54 5.833-.811 9.1-.811zm44.746 3.651c1.133-.744 2.833-1.52 5.1-2.332 2.333-.811 5-1.217 8-1.217 3.733 0 7.033.676 9.9 2.028 2.933 1.352 5.4 3.245 7.4 5.678 2 2.434 3.5 5.34 4.5 8.72 1.066 3.38 1.6 7.098 1.6 11.153 0 4.259-.634 8.112-1.9 11.56-1.2 3.38-2.934 6.252-5.2 8.618-2.267 2.366-5 4.19-8.2 5.475-3.2 1.284-6.8 1.927-10.8 1.927-4.334 0-8.167-.305-11.5-.913-3.334-.608-6.067-1.217-8.2-1.825V1.622l9.3-1.622v28.289zm0 42.18c.933.27 2.233.54 3.9.811 1.733.203 3.866.304 6.4.304 5 0 9-1.656 12-4.968 3-3.38 4.5-8.145 4.5-14.297 0-2.704-.267-5.238-.8-7.604-.534-2.366-1.4-4.394-2.6-6.084a11.959 11.959 0 0 0-4.7-4.056c-1.867-1.014-4.134-1.52-6.8-1.52-2.534 0-4.867.439-7 1.318-2.134.878-3.767 1.79-4.9 2.737v33.36zm95.486-18.149c0 4.19-.6 7.976-1.8 11.355-1.2 3.38-2.9 6.287-5.1 8.72-2.133 2.434-4.7 4.327-7.7 5.678-3 1.285-6.266 1.927-9.8 1.927-3.533 0-6.8-.642-9.8-1.927-3-1.351-5.6-3.244-7.8-5.678-2.133-2.433-3.8-5.34-5-8.72-1.2-3.38-1.8-7.165-1.8-11.356 0-4.123.6-7.875 1.8-11.254 1.2-3.448 2.867-6.388 5-8.822 2.2-2.433 4.8-4.292 7.8-5.576 3-1.352 6.267-2.028 9.8-2.028 3.534 0 6.8.676 9.8 2.028 3 1.284 5.567 3.143 7.7 5.576 2.2 2.434 3.9 5.374 5.1 8.822 1.2 3.38 1.8 7.131 1.8 11.254zm-9.7 0c0-5.95-1.333-10.647-4-14.094-2.6-3.515-6.166-5.273-10.7-5.273-4.533 0-8.133 1.758-10.8 5.273-2.6 3.447-3.9 8.145-3.9 14.093 0 5.949 1.3 10.68 3.9 14.196 2.667 3.447 6.267 5.17 10.8 5.17 4.534 0 8.1-1.723 10.7-5.17 2.667-3.515 4-8.247 4-14.196zm64.185 24.841c-2.134.54-4.967 1.115-8.5 1.724-3.467.608-7.5.912-12.1.912-4 0-7.367-.574-10.1-1.724-2.734-1.216-4.934-2.906-6.6-5.07-1.667-2.162-2.867-4.697-3.6-7.604-.734-2.974-1.1-6.252-1.1-9.835V25.957h9.3v27.58c0 6.42 1 11.017 3 13.789 2 2.771 5.366 4.157 10.1 4.157 1 0 2.033-.034 3.1-.102 1.066-.067 2.066-.135 3-.202a48.913 48.913 0 0 1 2.5-.305c.8-.135 1.366-.27 1.7-.405V25.957h9.3V77.16zm24.722-51.204h19.7v7.909h-19.7V58.2c0 2.636.2 4.833.6 6.59.4 1.69 1 3.043 1.8 4.057a6.63 6.63 0 0 0 3 2.028c1.2.405 2.6.608 4.2.608 2.8 0 5.033-.304 6.7-.913a329.791 329.791 0 0 0 3.6-1.42l1.8 7.808c-.934.473-2.567 1.048-4.9 1.724-2.334.743-5 1.115-8 1.115-3.534 0-6.467-.44-8.8-1.318-2.267-.946-4.1-2.332-5.5-4.157-1.4-1.825-2.4-4.056-3-6.692-.534-2.704-.8-5.813-.8-9.328V11.255l9.3-1.623v16.325z" fill="#333"/><path d="M125.5 79.899c-4.2 0-7.9-.676-11.1-2.028-3.133-1.352-5.8-3.245-8-5.678-2.133-2.434-3.733-5.307-4.8-8.619-1.067-3.38-1.6-7.097-1.6-11.153s.567-7.774 1.7-11.154c1.2-3.38 2.867-6.286 5-8.72 2.133-2.5 4.733-4.427 7.8-5.779 3.133-1.42 6.6-2.13 10.4-2.13 2.333 0 4.667.204 7 .61a31.857 31.857 0 0 1 6.7 1.926l-2.1 8.01c-1.4-.676-3.033-1.217-4.9-1.622-1.8-.406-3.733-.609-5.8-.609-5.2 0-9.2 1.656-12 4.968-2.733 3.313-4.1 8.146-4.1 14.5 0 2.839.3 5.441.9 7.807.667 2.366 1.667 4.394 3 6.084 1.4 1.69 3.167 3.008 5.3 3.954 2.133.879 4.733 1.318 7.8 1.318 2.467 0 4.7-.236 6.7-.71 2-.473 3.567-.98 4.7-1.52l1.3 7.908c-.533.338-1.3.676-2.3 1.014-1 .27-2.133.507-3.4.71-1.267.27-2.633.473-4.1.608-1.4.203-2.767.305-4.1.305zm68.515-27.579c0 4.19-.6 7.976-1.8 11.355-1.2 3.38-2.9 6.287-5.1 8.72-2.133 2.434-4.7 4.327-7.7 5.678-3 1.285-6.267 1.927-9.8 1.927-3.533 0-6.8-.642-9.8-1.927-3-1.351-5.6-3.244-7.8-5.678-2.133-2.433-3.8-5.34-5-8.72-1.2-3.38-1.8-7.165-1.8-11.356 0-4.123.6-7.875 1.8-11.254 1.2-3.448 2.867-6.388 5-8.822a22.15 22.15 0 0 1 7.8-5.576c3-1.352 6.267-2.028 9.8-2.028 3.533 0 6.8.676 9.8 2.028 3 1.284 5.567 3.143 7.7 5.576 2.2 2.434 3.9 5.374 5.1 8.822 1.2 3.38 1.8 7.131 1.8 11.254zm-9.7 0c0-5.95-1.333-10.647-4-14.094-2.6-3.515-6.167-5.273-10.7-5.273-4.533 0-8.133 1.758-10.8 5.273-2.6 3.447-3.9 8.145-3.9 14.093 0 5.949 1.3 10.68 3.9 14.196 2.667 3.447 6.267 5.17 10.8 5.17s8.1-1.723 10.7-5.17c2.667-3.515 4-8.247 4-14.196zm32.084 26.362h-9.3V25.957h9.3v52.725zm-4.7-62.256c-1.666 0-3.1-.54-4.3-1.622-1.133-1.15-1.7-2.67-1.7-4.563 0-1.893.567-3.38 1.7-4.462 1.2-1.149 2.634-1.723 4.3-1.723 1.667 0 3.067.574 4.2 1.723 1.2 1.082 1.8 2.57 1.8 4.462 0 1.893-.6 3.413-1.8 4.563-1.133 1.081-2.533 1.622-4.2 1.622zm20.693 11.052c2.134-.54 4.967-1.116 8.5-1.724 3.534-.608 7.6-.912 12.2-.912 4.134 0 7.567.608 10.3 1.825 2.734 1.149 4.9 2.805 6.5 4.968 1.667 2.095 2.834 4.63 3.5 7.605.667 2.974 1 6.252 1 9.835v29.607h-9.3v-27.58c0-3.244-.233-6.015-.7-8.314-.4-2.298-1.1-4.157-2.1-5.576-1-1.42-2.333-2.434-4-3.042-1.666-.676-3.733-1.014-6.2-1.014-1 0-2.033.034-3.1.101-1.066.068-2.1.17-3.1.305-.933.067-1.8.169-2.6.304-.733.135-1.266.236-1.6.304v44.512h-9.3V27.478z" fill="#0068C1"/><path d="M17.428 80h18.27L45 53.016l-9.132-26.512L17.428 80z" fill="#37B6E2"/><path d="M63.27 0H45l9.132 26.504L63.27 0z" fill="#00588E"/><path d="M45 53.016L54.302 80h18.27l-18.44-53.496L45 53.016z" fill="#A0A0A0"/><path d="M45 0H26.73l9.138 26.504L45 0z" fill="#003956"/><path d="M45 0l-9.132 26.504L45 53.016l9.132-26.512L45 0z" fill="#004576"/><path d="M26.73 0L0 77.56 1.149 80h16.28l18.44-53.496L26.728 0z" fill="#0068C1"/><path d="M63.27 0l-9.138 26.504L72.572 80h16.28L90 77.56 63.27 0z" fill="#DDD"/></svg>