<svg width="358" height="356" viewBox="0 0 358 356" fill="none" xmlns="http://www.w3.org/2000/svg"><g clip-path="url(#clip0)" fill="#000"><path d="M12.447 0H0v12.377h12.447V0z"/><path d="M24.738 0H12.29v12.377h12.447V0zm12.447 0H24.738v12.377h12.447V0z"/><path d="M49.476 0H37.029v12.377h12.447V0z"/><path d="M61.767 0H49.32v12.377h12.447V0zm12.447 0H61.767v12.377h12.447V0z"/><path d="M86.505 0H74.058v12.377h12.447V0zm24.582 0H98.641v12.377h12.446V0zm12.447 0h-12.447v12.377h12.447V0zm49.32 0h-12.446v12.377h12.446V0zm37.029 0h-12.446v12.377h12.446V0z"/><path d="M222.175 0h-12.447v12.377h12.447V0zm12.446 0h-12.446v12.377h12.446V0z"/><path d="M246.913 0h-12.447v12.377h12.447V0zm37.029 0h-12.447v12.377h12.447V0z"/><path d="M296.233 0h-12.447v12.377h12.447V0z"/><path d="M308.524 0h-12.447v12.377h12.447V0zm12.447 0h-12.447v12.377h12.447V0z"/><path d="M333.262 0h-12.447v12.377h12.447V0z"/><path d="M345.553 0h-12.447v12.377h12.447V0zM358 0h-12.447v12.377H358V0zM12.447 12.223H0V24.6h12.447V12.223zm74.058 0H74.058V24.6h12.447V12.223zm123.378 0h-12.446V24.6h12.446V12.223zm24.738 0h-12.446V24.6h12.446V12.223zm24.583 0h-12.447V24.6h12.447V12.223zm24.738 0h-12.447V24.6h12.447V12.223z"/><path d="M358 12.223h-12.447V24.6H358V12.223zM12.447 24.6H0v12.377h12.447V24.6zm24.738 0H24.738v12.377h12.447V24.6z"/><path d="M49.476 24.6H37.029v12.377h12.447V24.6z"/><path d="M61.767 24.6H49.32v12.377h12.447V24.6zm24.738 0H74.058v12.377h12.447V24.6zm24.582 0H98.641v12.377h12.446V24.6zm37.029 0H135.67v12.377h12.446V24.6zm12.447 0h-12.447v12.377h12.447V24.6z"/><path d="M172.854 24.6h-12.446v12.377h12.446V24.6zm61.767 0h-12.446v12.377h12.446V24.6z"/><path d="M246.913 24.6h-12.447v12.377h12.447V24.6zm37.029 0h-12.447v12.377h12.447V24.6zm24.582 0h-12.447v12.377h12.447V24.6zm12.447 0h-12.447v12.377h12.447V24.6z"/><path d="M333.262 24.6h-12.447v12.377h12.447V24.6zm24.738 0h-12.447v12.377H358V24.6zM12.447 36.822H0V49.2h12.447V36.822zm24.738 0H24.738V49.2h12.447V36.822z"/><path d="M49.476 36.822H37.029V49.2h12.447V36.822z"/><path d="M61.767 36.822H49.32V49.2h12.447V36.822zm24.738 0H74.058V49.2h12.447V36.822zm24.582 0H98.641V49.2h12.446V36.822zm12.447 0h-12.447V49.2h12.447V36.822zm24.582 0H135.67V49.2h12.446V36.822zm74.059 0h-12.447V49.2h12.447V36.822zm37.029 0h-12.447V49.2h12.447V36.822zm24.738 0h-12.447V49.2h12.447V36.822zm24.582 0h-12.447V49.2h12.447V36.822zm12.447 0h-12.447V49.2h12.447V36.822z"/><path d="M333.262 36.822h-12.447V49.2h12.447V36.822zm24.738 0h-12.447V49.2H358V36.822zM12.447 49.045H0v12.377h12.447V49.045zm24.738 0H24.738v12.377h12.447V49.045z"/><path d="M49.476 49.045H37.029v12.377h12.447V49.045z"/><path d="M61.767 49.045H49.32v12.377h12.447V49.045zm24.738 0H74.058v12.377h12.447V49.045zm24.582 0H98.641v12.377h12.446V49.045zm12.447 0h-12.447v12.377h12.447V49.045z"/><path d="M135.825 49.045h-12.446v12.377h12.446V49.045z"/><path d="M148.116 49.045H135.67v12.377h12.446V49.045zm24.738 0h-12.446v12.377h12.446V49.045z"/><path d="M185.146 49.045h-12.447v12.377h12.447V49.045zm12.446 0h-12.446v12.377h12.446V49.045z"/><path d="M209.883 49.045h-12.446v12.377h12.446V49.045z"/><path d="M222.175 49.045h-12.447v12.377h12.447V49.045zm24.738 0h-12.447v12.377h12.447V49.045z"/><path d="M259.204 49.045h-12.447v12.377h12.447V49.045zm24.738 0h-12.447v12.377h12.447V49.045zm24.582 0h-12.447v12.377h12.447V49.045zm12.447 0h-12.447v12.377h12.447V49.045z"/><path d="M333.262 49.045h-12.447v12.377h12.447V49.045zm24.738 0h-12.447v12.377H358V49.045zM12.447 61.422H0V73.8h12.447V61.422zm74.058 0H74.058V73.8h12.447V61.422zm37.029 0h-12.447V73.8h12.447V61.422zm37.029 0h-12.447V73.8h12.447V61.422zm24.583 0h-12.447V73.8h12.447V61.422zm24.737 0h-12.446V73.8h12.446V61.422zm37.03 0h-12.447V73.8h12.447V61.422zm37.029 0h-12.447V73.8h12.447V61.422z"/><path d="M358 61.422h-12.447V73.8H358V61.422zM12.447 73.644H0v12.378h12.447V73.644z"/><path d="M24.738 73.644H12.29v12.378h12.447V73.644zm12.447 0H24.738v12.378h12.447V73.644z"/><path d="M49.476 73.644H37.029v12.378h12.447V73.644z"/><path d="M61.767 73.644H49.32v12.378h12.447V73.644zm12.447 0H61.767v12.378h12.447V73.644z"/><path d="M86.505 73.644H74.058v12.378h12.447V73.644zm24.582 0H98.641v12.378h12.446V73.644zm24.738 0h-12.446v12.378h12.446V73.644zm24.738 0h-12.447v12.378h12.447V73.644zm24.583 0h-12.447v12.378h12.447V73.644zm24.737 0h-12.446v12.378h12.446V73.644zm24.738 0h-12.446v12.378h12.446V73.644zm24.583 0h-12.447v12.378h12.447V73.644zm24.738 0h-12.447v12.378h12.447V73.644z"/><path d="M296.233 73.644h-12.447v12.378h12.447V73.644z"/><path d="M308.524 73.644h-12.447v12.378h12.447V73.644zm12.447 0h-12.447v12.378h12.447V73.644z"/><path d="M333.262 73.644h-12.447v12.378h12.447V73.644z"/><path d="M345.553 73.644h-12.447v12.378h12.447V73.644zm12.447 0h-12.447v12.378H358V73.644zM123.534 85.867h-12.447v12.377h12.447V85.867zm24.582 0H135.67v12.377h12.446V85.867zm24.738 0h-12.446v12.377h12.446V85.867z"/><path d="M185.146 85.867h-12.447v12.377h12.447V85.867zm24.737 0h-12.446v12.377h12.446V85.867z"/><path d="M222.175 85.867h-12.447v12.377h12.447V85.867zm12.446 0h-12.446v12.377h12.446V85.867zm24.583 0h-12.447v12.377h12.447V85.867zM12.447 98.09H0v12.377h12.447V98.09z"/><path d="M24.738 98.09H12.29v12.377h12.447V98.09zm12.447 0H24.738v12.377h12.447V98.09z"/><path d="M49.476 98.09H37.029v12.377h12.447V98.09zm37.029 0H74.058v12.377h12.447V98.09zm24.582 0H98.641v12.377h12.446V98.09zm61.767 0h-12.446v12.377h12.446V98.09z"/><path d="M185.146 98.09h-12.447v12.377h12.447V98.09zm37.029 0h-12.447v12.377h12.447V98.09zm12.446 0h-12.446v12.377h12.446V98.09zm24.583 0h-12.447v12.377h12.447V98.09zm12.447 0h-12.447v12.377h12.447V98.09zm36.873 0h-12.447v12.377h12.447V98.09zm12.447 0h-12.447v12.377h12.447V98.09z"/><path d="M333.262 98.09h-12.447v12.377h12.447V98.09zm24.738 0h-12.447v12.377H358V98.09zM12.447 110.467H0v12.377h12.447v-12.377z"/><path d="M24.738 110.467H12.29v12.377h12.447v-12.377zm12.447 0H24.738v12.377h12.447v-12.377zm24.582 0H49.32v12.377h12.447v-12.377zm12.447 0H61.767v12.377h12.447v-12.377zm24.582 0H86.35v12.377h12.447v-12.377z"/><path d="M111.087 110.467H98.641v12.377h12.446v-12.377zm12.447 0h-12.447v12.377h12.447v-12.377zm86.349 0h-12.446v12.377h12.446v-12.377zm37.03 0h-12.447v12.377h12.447v-12.377zm37.029 0h-12.447v12.377h12.447v-12.377zm24.582 0h-12.447v12.377h12.447v-12.377zm49.476 0h-12.447v12.377H358v-12.377zM24.738 122.689H12.29v12.377h12.447v-12.377zm24.738 0H37.029v12.377h12.447v-12.377zm37.029 0H74.058v12.377h12.447v-12.377z"/><path d="M98.796 122.689H86.35v12.377h12.447v-12.377zm86.35 0h-12.447v12.377h12.447v-12.377zm37.029 0h-12.447v12.377h12.447v-12.377zm37.029 0h-12.447v12.377h12.447v-12.377zm12.447 0h-12.447v12.377h12.447v-12.377zm24.582 0h-12.447v12.377h12.447v-12.377z"/><path d="M308.524 122.689h-12.447v12.377h12.447v-12.377zm24.738 0h-12.447v12.377h12.447v-12.377z"/><path d="M345.553 122.689h-12.447v12.377h12.447v-12.377zM12.447 134.912H0v12.377h12.447v-12.377zm24.738 0H24.738v12.377h12.447v-12.377z"/><path d="M49.476 134.912H37.029v12.377h12.447v-12.377zm24.738 0H61.767v12.377h12.447v-12.377zm24.582 0H86.35v12.377h12.447v-12.377z"/><path d="M111.087 134.912H98.641v12.377h12.446v-12.377zm37.029 0H135.67v12.377h12.446v-12.377z"/><path d="M160.563 134.912h-12.447v12.377h12.447v-12.377z"/><path d="M172.854 134.912h-12.446v12.377h12.446v-12.377z"/><path d="M185.146 134.912h-12.447v12.377h12.447v-12.377zm24.737 0h-12.446v12.377h12.446v-12.377zm37.03 0h-12.447v12.377h12.447v-12.377zm24.738 0h-12.447v12.377h12.447v-12.377zm24.582 0h-12.447v12.377h12.447v-12.377z"/><path d="M308.524 134.912h-12.447v12.377h12.447v-12.377zm12.447 0h-12.447v12.377h12.447v-12.377zm37.029 0h-12.447v12.377H358v-12.377zM12.447 147.289H0v12.377h12.447v-12.377zm74.058 0H74.058v12.377h12.447v-12.377z"/><path d="M98.796 147.289H86.35v12.377h12.447v-12.377zm24.738 0h-12.447v12.377h12.447v-12.377zm24.582 0H135.67v12.377h12.446v-12.377zm74.059 0h-12.447v12.377h12.447v-12.377zm37.029 0h-12.447v12.377h12.447v-12.377zm12.447 0h-12.447v12.377h12.447v-12.377zm49.32 0h-12.447v12.377h12.447v-12.377z"/><path d="M333.262 147.289h-12.447v12.377h12.447v-12.377zM24.738 159.512H12.29v12.377h12.447v-12.377zm24.738 0H37.029v12.377h12.447v-12.377zm24.738 0H61.767v12.377h12.447v-12.377zm36.873 0H98.641v12.377h12.446v-12.377zm12.447 0h-12.447v12.377h12.447v-12.377z"/><path d="M135.825 159.512h-12.446v12.377h12.446v-12.377z"/><path d="M148.116 159.512H135.67v12.377h12.446v-12.377zm24.738 0h-12.446v12.377h12.446v-12.377zm24.738 0h-12.446v12.377h12.446v-12.377z"/><path d="M209.883 159.512h-12.446v12.377h12.446v-12.377zm37.03 0h-12.447v12.377h12.447v-12.377z"/><path d="M259.204 159.512h-12.447v12.377h12.447v-12.377zm12.447 0h-12.447v12.377h12.447v-12.377z"/><path d="M283.942 159.512h-12.447v12.377h12.447v-12.377z"/><path d="M296.233 159.512h-12.447v12.377h12.447v-12.377zm49.32 0h-12.447v12.377h12.447v-12.377zm12.447 0h-12.447v12.377H358v-12.377zM12.447 171.734H0v12.377h12.447v-12.377z"/><path d="M24.738 171.734H12.29v12.377h12.447v-12.377zm12.447 0H24.738v12.377h12.447v-12.377zm49.32 0H74.058v12.377h12.447v-12.377zm24.582 0H98.641v12.377h12.446v-12.377zm12.447 0h-12.447v12.377h12.447v-12.377z"/><path d="M135.825 171.734h-12.446v12.377h12.446v-12.377zm24.738 0h-12.447v12.377h12.447v-12.377zm24.583 0h-12.447v12.377h12.447v-12.377zm24.737 0h-12.446v12.377h12.446v-12.377z"/><path d="M222.175 171.734h-12.447v12.377h12.447v-12.377zm24.738 0h-12.447v12.377h12.447v-12.377zm37.029 0h-12.447v12.377h12.447v-12.377zm37.029 0h-12.447v12.377h12.447v-12.377z"/><path d="M333.262 171.734h-12.447v12.377h12.447v-12.377z"/><path d="M345.553 171.734h-12.447v12.377h12.447v-12.377zm12.447 0h-12.447v12.377H358v-12.377zM24.738 184.111H12.29v12.378h12.447v-12.378zm37.029 0H49.32v12.378h12.447v-12.378zm37.029 0H86.35v12.378h12.447v-12.378z"/><path d="M111.087 184.111H98.641v12.378h12.446v-12.378zm12.447 0h-12.447v12.378h12.447v-12.378zm37.029 0h-12.447v12.378h12.447v-12.378z"/><path d="M172.854 184.111h-12.446v12.378h12.446v-12.378zm37.029 0h-12.446v12.378h12.446v-12.378zm74.059 0h-12.447v12.378h12.447v-12.378z"/><path d="M296.233 184.111h-12.447v12.378h12.447v-12.378z"/><path d="M308.524 184.111h-12.447v12.378h12.447v-12.378zm37.029 0h-12.447v12.378h12.447v-12.378zM12.447 196.334H0v12.377h12.447v-12.377zm61.767 0H61.767v12.377h12.447v-12.377z"/><path d="M86.505 196.334H74.058v12.377h12.447v-12.377z"/><path d="M98.796 196.334H86.35v12.377h12.447v-12.377z"/><path d="M111.087 196.334H98.641v12.377h12.446v-12.377zm12.447 0h-12.447v12.377h12.447v-12.377z"/><path d="M135.825 196.334h-12.446v12.377h12.446v-12.377z"/><path d="M148.116 196.334H135.67v12.377h12.446v-12.377zm49.476 0h-12.446v12.377h12.446v-12.377zm49.321 0h-12.447v12.377h12.447v-12.377zm61.611 0h-12.447v12.377h12.447v-12.377zm37.029 0h-12.447v12.377h12.447v-12.377zM24.738 208.556H12.29v12.378h12.447v-12.378zm37.029 0H49.32v12.378h12.447v-12.378zm12.447 0H61.767v12.378h12.447v-12.378zm24.582 0H86.35v12.378h12.447v-12.378z"/><path d="M111.087 208.556H98.641v12.378h12.446v-12.378zm49.476 0h-12.447v12.378h12.447v-12.378z"/><path d="M172.854 208.556h-12.446v12.378h12.446v-12.378zm24.738 0h-12.446v12.378h12.446v-12.378z"/><path d="M209.883 208.556h-12.446v12.378h12.446v-12.378z"/><path d="M222.175 208.556h-12.447v12.378h12.447v-12.378zm111.087 0h-12.447v12.378h12.447v-12.378z"/><path d="M345.553 208.556h-12.447v12.378h12.447v-12.378zM12.447 220.933H0v12.378h12.447v-12.378zm49.32 0H49.32v12.378h12.447v-12.378zm24.738 0H74.058v12.378h12.447v-12.378zm24.582 0H98.641v12.378h12.446v-12.378zm12.447 0h-12.447v12.378h12.447v-12.378zm24.582 0H135.67v12.378h12.446v-12.378zm12.447 0h-12.447v12.378h12.447v-12.378zm37.029 0h-12.446v12.378h12.446v-12.378zm24.583 0h-12.447v12.378h12.447v-12.378zm61.767 0h-12.447v12.378h12.447v-12.378z"/><path d="M296.233 220.933h-12.447v12.378h12.447v-12.378zm24.738 0h-12.447v12.378h12.447v-12.378z"/><path d="M333.262 220.933h-12.447v12.378h12.447v-12.378zM37.185 233.156H24.738v12.377h12.447v-12.377z"/><path d="M49.476 233.156H37.029v12.377h12.447v-12.377z"/><path d="M61.767 233.156H49.32v12.377h12.447v-12.377zm37.029 0H86.35v12.377h12.447v-12.377z"/><path d="M111.087 233.156H98.641v12.377h12.446v-12.377zm49.476 0h-12.447v12.377h12.447v-12.377zm61.612 0h-12.447v12.377h12.447v-12.377zm12.446 0h-12.446v12.377h12.446v-12.377z"/><path d="M246.913 233.156h-12.447v12.377h12.447v-12.377z"/><path d="M259.204 233.156h-12.447v12.377h12.447v-12.377zm24.738 0h-12.447v12.377h12.447v-12.377z"/><path d="M296.233 233.156h-12.447v12.377h12.447v-12.377zm37.029 0h-12.447v12.377h12.447v-12.377zM24.738 245.378H12.29v12.378h12.447v-12.378zm49.476 0H61.767v12.378h12.447v-12.378z"/><path d="M86.505 245.378H74.058v12.378h12.447v-12.378z"/><path d="M98.796 245.378H86.35v12.378h12.447v-12.378z"/><path d="M111.087 245.378H98.641v12.378h12.446v-12.378zm12.447 0h-12.447v12.378h12.447v-12.378zm24.582 0H135.67v12.378h12.446v-12.378z"/><path d="M160.563 245.378h-12.447v12.378h12.447v-12.378z"/><path d="M172.854 245.378h-12.446v12.378h12.446v-12.378zm24.738 0h-12.446v12.378h12.446v-12.378zm24.583 0h-12.447v12.378h12.447v-12.378zm12.446 0h-12.446v12.378h12.446v-12.378zm24.583 0h-12.447v12.378h12.447v-12.378zm12.447 0h-12.447v12.378h12.447v-12.378z"/><path d="M283.942 245.378h-12.447v12.378h12.447v-12.378z"/><path d="M296.233 245.378h-12.447v12.378h12.447v-12.378z"/><path d="M308.524 245.378h-12.447v12.378h12.447v-12.378zm12.447 0h-12.447v12.378h12.447v-12.378z"/><path d="M333.262 245.378h-12.447v12.378h12.447v-12.378zm-222.175 12.378H98.641v12.377h12.446v-12.377zm49.476 0h-12.447v12.377h12.447v-12.377z"/><path d="M172.854 257.756h-12.446v12.377h12.446v-12.377z"/><path d="M185.146 257.756h-12.447v12.377h12.447v-12.377zm24.737 0h-12.446v12.377h12.446v-12.377z"/><path d="M222.175 257.756h-12.447v12.377h12.447v-12.377zm12.446 0h-12.446v12.377h12.446v-12.377z"/><path d="M246.913 257.756h-12.447v12.377h12.447v-12.377z"/><path d="M259.204 257.756h-12.447v12.377h12.447v-12.377zm49.32 0h-12.447v12.377h12.447v-12.377zm12.447 0h-12.447v12.377h12.447v-12.377z"/><path d="M333.262 257.756h-12.447v12.377h12.447v-12.377z"/><path d="M345.553 257.756h-12.447v12.377h12.447v-12.377zm12.447 0h-12.447v12.377H358v-12.377zM12.447 269.978H0v12.377h12.447v-12.377z"/><path d="M24.738 269.978H12.29v12.377h12.447v-12.377zm12.447 0H24.738v12.377h12.447v-12.377z"/><path d="M49.476 269.978H37.029v12.377h12.447v-12.377z"/><path d="M61.767 269.978H49.32v12.377h12.447v-12.377zm12.447 0H61.767v12.377h12.447v-12.377z"/><path d="M86.505 269.978H74.058v12.377h12.447v-12.377zm37.029 0h-12.447v12.377h12.447v-12.377zm24.582 0H135.67v12.377h12.446v-12.377zm12.447 0h-12.447v12.377h12.447v-12.377z"/><path d="M172.854 269.978h-12.446v12.377h12.446v-12.377zm37.029 0h-12.446v12.377h12.446v-12.377z"/><path d="M222.175 269.978h-12.447v12.377h12.447v-12.377zm24.738 0h-12.447v12.377h12.447v-12.377z"/><path d="M259.204 269.978h-12.447v12.377h12.447v-12.377zm24.738 0h-12.447v12.377h12.447v-12.377zm24.582 0h-12.447v12.377h12.447v-12.377zm12.447 0h-12.447v12.377h12.447v-12.377zm24.582 0h-12.447v12.377h12.447v-12.377zM12.447 282.201H0v12.377h12.447v-12.377zm74.058 0H74.058v12.377h12.447v-12.377zm37.029 0h-12.447v12.377h12.447v-12.377z"/><path d="M135.825 282.201h-12.446v12.377h12.446v-12.377zm98.796 0h-12.446v12.377h12.446v-12.377z"/><path d="M246.913 282.201h-12.447v12.377h12.447v-12.377z"/><path d="M259.204 282.201h-12.447v12.377h12.447v-12.377zm49.32 0h-12.447v12.377h12.447v-12.377zm12.447 0h-12.447v12.377h12.447v-12.377zm24.582 0h-12.447v12.377h12.447v-12.377zm12.447 0h-12.447v12.377H358v-12.377zM12.447 294.423H0V306.8h12.447v-12.377zm24.738 0H24.738V306.8h12.447v-12.377z"/><path d="M49.476 294.423H37.029V306.8h12.447v-12.377z"/><path d="M61.767 294.423H49.32V306.8h12.447v-12.377zm24.738 0H74.058V306.8h12.447v-12.377zm37.029 0h-12.447V306.8h12.447v-12.377zm37.029 0h-12.447V306.8h12.447v-12.377zm24.583 0h-12.447V306.8h12.447v-12.377zm12.446 0h-12.446V306.8h12.446v-12.377zm24.583 0h-12.447V306.8h12.447v-12.377zm37.029 0h-12.447V306.8h12.447v-12.377zm12.447 0h-12.447V306.8h12.447v-12.377z"/><path d="M283.942 294.423h-12.447V306.8h12.447v-12.377z"/><path d="M296.233 294.423h-12.447V306.8h12.447v-12.377z"/><path d="M308.524 294.423h-12.447V306.8h12.447v-12.377zm12.447 0h-12.447V306.8h12.447v-12.377z"/><path d="M333.262 294.423h-12.447V306.8h12.447v-12.377zM12.447 306.801H0v12.377h12.447v-12.377zm24.738 0H24.738v12.377h12.447v-12.377z"/><path d="M49.476 306.801H37.029v12.377h12.447v-12.377z"/><path d="M61.767 306.801H49.32v12.377h12.447v-12.377zm24.738 0H74.058v12.377h12.447v-12.377zm24.582 0H98.641v12.377h12.446v-12.377zm12.447 0h-12.447v12.377h12.447v-12.377zm24.582 0H135.67v12.377h12.446v-12.377zm12.447 0h-12.447v12.377h12.447v-12.377zm24.583 0h-12.447v12.377h12.447v-12.377zm12.446 0h-12.446v12.377h12.446v-12.377z"/><path d="M209.883 306.801h-12.446v12.377h12.446v-12.377zm37.03 0h-12.447v12.377h12.447v-12.377zm61.611 0h-12.447v12.377h12.447v-12.377zm24.738 0h-12.447v12.377h12.447v-12.377zm24.738 0h-12.447v12.377H358v-12.377zM12.447 319.023H0V331.4h12.447v-12.377zm24.738 0H24.738V331.4h12.447v-12.377z"/><path d="M49.476 319.023H37.029V331.4h12.447v-12.377z"/><path d="M61.767 319.023H49.32V331.4h12.447v-12.377zm24.738 0H74.058V331.4h12.447v-12.377zm24.582 0H98.641V331.4h12.446v-12.377zm12.447 0h-12.447V331.4h12.447v-12.377z"/><path d="M135.825 319.023h-12.446V331.4h12.446v-12.377z"/><path d="M148.116 319.023H135.67V331.4h12.446v-12.377zm24.738 0h-12.446V331.4h12.446v-12.377zm37.029 0h-12.446V331.4h12.446v-12.377z"/><path d="M222.175 319.023h-12.447V331.4h12.447v-12.377zm12.446 0h-12.446V331.4h12.446v-12.377zm37.03 0h-12.447V331.4h12.447v-12.377zm61.611 0h-12.447V331.4h12.447v-12.377zm24.738 0h-12.447V331.4H358v-12.377zM12.447 331.245H0v12.378h12.447v-12.378zm74.058 0H74.058v12.378h12.447v-12.378zm24.582 0H98.641v12.378h12.446v-12.378zm12.447 0h-12.447v12.378h12.447v-12.378z"/><path d="M135.825 331.245h-12.446v12.378h12.446v-12.378z"/><path d="M148.116 331.245H135.67v12.378h12.446v-12.378zm37.03 0h-12.447v12.378h12.447v-12.378zm12.446 0h-12.446v12.378h12.446v-12.378z"/><path d="M209.883 331.245h-12.446v12.378h12.446v-12.378zm24.738 0h-12.446v12.378h12.446v-12.378z"/><path d="M246.913 331.245h-12.447v12.378h12.447v-12.378z"/><path d="M259.204 331.245h-12.447v12.378h12.447v-12.378zm12.447 0h-12.447v12.378h12.447v-12.378z"/><path d="M283.942 331.245h-12.447v12.378h12.447v-12.378zm61.611 0h-12.447v12.378h12.447v-12.378zM12.447 343.623H0V356h12.447v-12.377z"/><path d="M24.738 343.623H12.29V356h12.447v-12.377zm12.447 0H24.738V356h12.447v-12.377z"/><path d="M49.476 343.623H37.029V356h12.447v-12.377z"/><path d="M61.767 343.623H49.32V356h12.447v-12.377zm12.447 0H61.767V356h12.447v-12.377z"/><path d="M86.505 343.623H74.058V356h12.447v-12.377zm24.582 0H98.641V356h12.446v-12.377zm12.447 0h-12.447V356h12.447v-12.377z"/><path d="M135.825 343.623h-12.446V356h12.446v-12.377zm24.738 0h-12.447V356h12.447v-12.377zm24.583 0h-12.447V356h12.447v-12.377zm49.475 0h-12.446V356h12.446v-12.377zm24.583 0h-12.447V356h12.447v-12.377zm12.447 0h-12.447V356h12.447v-12.377zm36.873 0h-12.447V356h12.447v-12.377zm37.029 0h-12.447V356h12.447v-12.377z"/></g><defs><clipPath id="clip0"><path fill="#fff" d="M0 0h358v356H0z"/></clipPath></defs></svg>