<svg xmlns="http://www.w3.org/2000/svg" width="20" height="20" fill="none" viewBox="0 0 20 20"><g clip-path="url(#clip0)"><path fill="#FE9B00" d="M20 10.002C20.007 15.473 15.572 20 10.002 20 4.432 20-.003 15.47 0 9.995.003 4.52 4.43 0 10.005 0 15.58 0 20.01 4.534 20 10.002z"/><path fill="#191C31" d="M17.687 11.243c-.017-.034-.003-.061-.003-.088a1.138 1.138 0 0 0-.894-1.242c-.375-.078-.71.027-.996.273a19.73 19.73 0 0 0-1.006.935c-.4.392-.79.791-1.174 1.197-.27.287-.583.508-.958.638-1.058.361-2.214-.205-2.617-1.187-.048-.12-.044-.144.051-.225.222-.195.447-.386.669-.58.007-.007.014-.01.02-.017.028-.017.048-.058.082-.041s.014.054.017.082a1.133 1.133 0 0 0 .979 1.064 1.155 1.155 0 0 0 1.249-.774c.194-.614-.13-1.225-.757-1.426-.383-.123-.73-.041-1.034.211-.249.205-.488.42-.73.635-.16.143-.32.29-.484.43a.357.357 0 0 0-.12.207c-.13.659-.498 1.15-1.081 1.474a2 2 0 0 1-1.2.242 2.096 2.096 0 0 1-1.764-1.293.24.24 0 0 1-.018-.044.122.122 0 0 1-.008-.08.12.12 0 0 1 .046-.067c.078-.064.153-.13.232-.194.16-.14.32-.28.484-.416.028-.024.055-.065.089-.051.034.013.02.061.024.095.008.258.101.505.266.703.164.199.39.337.641.392a1.136 1.136 0 0 0 1.337-.812 1.161 1.161 0 0 0-1.17-1.46 1.033 1.033 0 0 0-.644.25c-.222.184-.44.375-.655.566-.222.194-.44.392-.662.586a.255.255 0 0 0-.07.09.267.267 0 0 0-.022.112v1.48c0 .14-.02.16-.16.157a.908.908 0 0 1-.693-.317c-.068-.079-.082-.079-.174-.028a2.05 2.05 0 0 1-1.081.277c-.792-.027-1.395-.386-1.805-1.065a1.99 1.99 0 0 1-.286-1.06c0-.49.173-.965.487-1.341.321-.392.73-.648 1.232-.73.669-.106 1.283.017 1.798.484.163.15.306.32.423.509a.18.18 0 0 0 .082.088.173.173 0 0 0 .059-.064.183.183 0 0 0 .019-.086c-.003-.338 0-.675 0-1.016 0-.768-.001-1.534-.003-2.3 0-.15.017-.167.17-.167a.918.918 0 0 1 .914.819c.007.054.01.109.01.164v1.79c.004.083.021.093.096.055.22-.116.457-.193.703-.228a2.08 2.08 0 0 1 1.64.45 2.028 2.028 0 0 1 .444.491c.024.034.044.072.089.079.024.003.092-.086.095-.123a.938.938 0 0 0 .007-.14V7.208c0-.495.307-.867.795-.959a.687.687 0 0 1 .164-.017c.071.004.102.031.119.1a.682.682 0 0 1 .014.163v2.52c.006.045.02.059.064.042l.174-.075a2.1 2.1 0 0 1 2.33.505c.2.214.355.466.457.74l.02.061c.035.089.045.092.117.027l.962-.849c.27-.246.597-.42.952-.505a2.127 2.127 0 0 1 2.466 1.293.196.196 0 0 1-.048.236c-.235.232-.464.467-.7.702a.204.204 0 0 1-.07.051z"/><path fill="#191C31" d="M16.763 12.168a.099.099 0 0 1-.011.037.119.119 0 0 1-.027.028c-.249.249-.498.498-.743.75a.14.14 0 0 1-.168.037 2.09 2.09 0 0 1-1.245-1.19c-.037-.085-.03-.112.038-.17.242-.212.488-.423.73-.632a.111.111 0 0 1 .058-.034c.024.024.017.055.02.082.013.16.053.318.12.464.16.335.433.526.784.61a.802.802 0 0 0 .229.021c.068-.007.14-.003.215-.003z"/><path fill="#FF9C00" d="M4.875 10.899c.017.607-.502 1.136-1.133 1.143a1.141 1.141 0 0 1-1.146-1.13 1.15 1.15 0 0 1 1.146-1.166c.618-.014 1.136.491 1.133 1.153z"/></g><defs><clipPath id="clip0"><path fill="#fff" d="M0 0h20v20H0z"/></clipPath></defs></svg>