<svg xmlns="http://www.w3.org/2000/svg" width="20" height="20" fill="none" viewBox="0 0 20 20"><path fill="url(#paint0_linear)" fill-opacity=".05" d="M10 20c5.523 0 10-4.477 10-10S15.523 0 10 0 0 4.477 0 10s4.477 10 10 10z"/><path fill="url(#paint1_linear)" d="M17.813 9.337c.068-1.44-.938-2.396-2.075-3.053L15 10.625a1.077 1.077 0 0 1 .854.256.746.746 0 0 1 .055 1c.713-.119 1.822-.803 1.903-2.544z"/><path fill="url(#paint2_linear)" fill-rule="evenodd" d="M8.125 4.29l-.875-.884c1.325-.162 4.822.044 8.206 2.166.031.19.031.382 0 .572l.285.143a3.312 3.312 0 0 1 .368 2.538c-.293 1.175-.797 1.694-1.022 1.8-.453 0-1.224.262-1.474 1.425-.25 1.162-.732 1.416-.938 1.397l-5 .06-3.3-1.944L3.9 7.54l.937-1.25 1.675-1.37 1.194-.487.419-.143zm5.91 1.647a1.88 1.88 0 0 1-.488.372c-1.285-.275-1.75-.937-1.75-.937a6.004 6.004 0 0 1 3.125.769 5.742 5.742 0 0 0-.888-.204z" clip-rule="evenodd"/><path fill="url(#paint3_linear)" fill-rule="evenodd" d="M13.569 12.05a6.927 6.927 0 0 1-3.05.684c-3.153 0-5.707-1.98-5.707-4.422 0-1.806 1.394-3.356 3.391-4.043-3.8.218-6.856 3.272-6.856 7.04 0 4.35 3.878 7.944 8.653 7.944a9.338 9.338 0 0 0 8.106-4.84c-2.14.48-4.669-.435-4.537-2.363z" clip-rule="evenodd"/><defs><linearGradient id="paint0_linear" x1="10" x2="10" y1="6.997" y2="20.262" gradientUnits="userSpaceOnUse"><stop stop-color="#01E8F8"/><stop offset="1" stop-color="#01E8F8" stop-opacity="0"/></linearGradient><linearGradient id="paint1_linear" x1="16.219" x2="16.663" y1="7.553" y2="12.856" gradientUnits="userSpaceOnUse"><stop stop-color="#01E8F7"/><stop offset="1" stop-color="#00C2FF"/></linearGradient><linearGradient id="paint2_linear" x1="7.484" x2="12.634" y1="4.703" y2="12.878" gradientUnits="userSpaceOnUse"><stop stop-color="#01E8F7"/><stop offset="1" stop-color="#00B3EC"/></linearGradient><linearGradient id="paint3_linear" x1="514.686" x2="534.385" y1="585.063" y2="-47.731" gradientUnits="userSpaceOnUse"><stop stop-color="#01E8F7"/><stop offset="1" stop-color="#00C2FF"/></linearGradient></defs></svg>