<svg xmlns="http://www.w3.org/2000/svg" width="20" height="20" fill="none" viewBox="0 0 20 20"><path fill="#070A0E" d="M10 20c5.523 0 10-4.477 10-10S15.523 0 10 0 0 4.477 0 10s4.477 10 10 10z"/><path fill="#00D395" fill-rule="evenodd" d="M5.777 13.353a1.007 1.007 0 0 1-.482-.858v-1.954a.42.42 0 0 1 .632-.362l4.409 2.571c.258.15.417.426.417.725V15.5a.502.502 0 0 1-.766.43l-4.21-2.576zm6.572-3.709c.258.15.416.427.417.725v4.108a.334.334 0 0 1-.171.292l-.965.543a.168.168 0 0 1-.039.016v-2.28a.84.84 0 0 0-.409-.722L7.31 10.01V7.435a.42.42 0 0 1 .632-.362l4.407 2.571zm1.93-3.034c.259.15.418.427.418.726v6a.34.34 0 0 1-.177.295l-.915.494V9.948a.841.841 0 0 0-.407-.72L9.24 6.854V4.412a.421.421 0 0 1 .63-.363l4.409 2.561z" clip-rule="evenodd"/></svg>