<svg xmlns="http://www.w3.org/2000/svg" width="20" height="20" fill="none" viewBox="0 0 20 20"><path fill="#1E0B49" d="M10 0c5.522 0 10 4.478 10 10s-4.478 10-10 10S0 15.522 0 10 4.478 0 10 0z"/><path fill="#1E90FF" d="M6.492 8c.442-.752 1.15-1.198 1.772-1.186l.252-.426C8.95 5.65 8.8 4.75 8.18 4.386c-.62-.364-1.478-.056-1.914.678l-.25.426c.312.538.264 1.37-.178 2.126-.442.756-1.15 1.198-1.772 1.186l-.252.426c-.434.738-.284 1.638.336 2.002.618.364 1.478.058 1.914-.678l.25-.426C6.002 9.588 6.05 8.752 6.492 8z"/><path fill="url(#paint0_linear)" d="M5.84 12.318c-.442-.752-1.15-1.198-1.772-1.186l-.252-.426c-.434-.738-.284-1.638.336-2.002.62-.364 1.478-.06 1.914.678l.25.426c-.312.538-.264 1.37.178 2.126.444.756 1.15 1.198 1.772 1.186l.252.426c.434.738.284 1.638-.336 2.002-.618.364-1.478.06-1.914-.678l-.25-.426c.31-.538.262-1.374-.178-2.126z"/><path fill="url(#paint1_linear)" d="M10.874 12.318c-.442-.752-1.15-1.198-1.772-1.186l-.252-.426c-.434-.738-.284-1.638.336-2.002.62-.364 1.478-.06 1.912.678l.252.426c-.312.538-.264 1.37.178 2.126.444.756 1.15 1.198 1.772 1.186l.252.426c.434.738.284 1.638-.336 2.002-.618.364-1.478.06-1.914-.678l-.25-.426c.314-.538.268-1.374-.178-2.126z"/><path fill="url(#paint2_linear)" d="M14.022 12.392c.442-.75 1.15-1.198 1.772-1.186l.252-.426c.434-.738.284-1.638-.336-2.002-.62-.364-1.478-.058-1.914.678l-.25.426c.312.538.264 1.37-.178 2.126-.444.756-1.15 1.198-1.772 1.186l-.252.426c-.434.738-.284 1.638.336 2.002.62.364 1.478.058 1.914-.678l.25-.426c-.316-.54-.264-1.376.178-2.126z"/><path fill="#1E90FF" d="M7.438 4.1c-.838 0-1.516.69-1.496 1.532.018.794.666 1.44 1.46 1.46A1.497 1.497 0 1 0 7.438 4.1z"/><path fill="indigo" d="M7.438 12.88a1.496 1.496 0 1 0 .002 2.991 1.496 1.496 0 0 0-.002-2.991z"/><path fill="#1E90FF" d="M12.452 4.1c-.838 0-1.516.69-1.496 1.532.018.794.666 1.44 1.46 1.46a1.497 1.497 0 1 0 .036-2.992z"/><path fill="indigo" d="M12.452 12.88c-.838 0-1.516.69-1.496 1.532a1.5 1.5 0 0 0 1.502 1.46 1.497 1.497 0 0 0-.006-2.992z"/><path fill="#8B008B" d="M9.91 8.49c-.838 0-1.516.69-1.496 1.532.018.794.666 1.44 1.46 1.46A1.497 1.497 0 1 0 9.91 8.49zm5.07 0a1.496 1.496 0 1 0-.002 2.991 1.496 1.496 0 0 0 .002-2.991z"/><path fill="#1E90FF" d="M4.84 8.49c-.838 0-1.516.69-1.496 1.532.018.794.666 1.44 1.46 1.46A1.497 1.497 0 1 0 4.84 8.49z"/><defs><linearGradient id="paint0_linear" x1="5.625" x2="6.737" y1="11.198" y2="13.102" gradientUnits="userSpaceOnUse"><stop offset=".21" stop-color="#1E90FF"/><stop offset="1" stop-color="indigo"/></linearGradient><linearGradient id="paint1_linear" x1="10.66" x2="11.707" y1="11.197" y2="12.983" gradientUnits="userSpaceOnUse"><stop stop-color="#8B008B"/><stop offset="1" stop-color="indigo"/></linearGradient><linearGradient id="paint2_linear" x1="14.278" x2="13.041" y1="11.364" y2="13.003" gradientUnits="userSpaceOnUse"><stop stop-color="#8B008B"/><stop offset="1" stop-color="indigo"/></linearGradient></defs></svg>