<svg xmlns="http://www.w3.org/2000/svg" width="20" height="20" fill="none" viewBox="0 0 20 20"><path fill="#F5AC37" d="M10 0c5.523 0 10 4.478 10 10 0 5.523-4.477 10-10 10-5.522 0-10-4.477-10-10C0 4.478 4.478 0 10 0z"/><path fill="#FEFEFD" d="M10.369 10.706h3.8c.08 0 .119 0 .125-.106.03-.387.03-.775 0-1.162 0-.076-.037-.107-.119-.107H6.613c-.094 0-.12.031-.12.12v1.112c0 .143 0 .143.15.143h3.726zm3.5-2.675a.119.119 0 0 0 0-.087 2.475 2.475 0 0 0-.225-.394 3.247 3.247 0 0 0-.463-.581c-.083-.106-.18-.2-.288-.281a4.483 4.483 0 0 0-1.875-.95 4.63 4.63 0 0 0-1.062-.113H6.6c-.094 0-.107.037-.107.119v2.218c0 .094 0 .12.12.12h7.212s.062-.013.075-.05h-.031zm0 3.975a1.546 1.546 0 0 0-.319 0H6.619c-.094 0-.125 0-.125.125v2.17c0 .1 0 .124.125.124h3.2c.153.012.306.001.456-.03a4.831 4.831 0 0 0 1.357-.3 2.59 2.59 0 0 0 .456-.213h.043a4.057 4.057 0 0 0 1.744-1.756s.043-.094-.005-.119zm-8.63 3.544v-3.456c0-.082 0-.094-.1-.094H3.782c-.075 0-.106 0-.106-.1v-1.187h1.45c.08 0 .112 0 .112-.106V9.432c0-.075 0-.094-.1-.094H3.782c-.075 0-.106 0-.106-.1v-1.1c0-.068 0-.087.1-.087h1.343c.094 0 .119 0 .119-.119V4.564c0-.1 0-.126.125-.126h4.687c.34.014.678.051 1.013.113.689.127 1.35.373 1.956.725.401.236.77.521 1.1.85.247.257.47.535.668.831.197.3.36.621.489.956.015.088.1.147.187.132h1.118c.144 0 .144 0 .15.138v1.025c0 .1-.037.125-.138.125h-.862c-.088 0-.113 0-.107.112.035.38.035.763 0 1.144 0 .106 0 .118.12.118h.987c.043.057 0 .113 0 .17.006.072.006.146 0 .218v.756c0 .107-.031.138-.126.138h-1.18a.157.157 0 0 0-.182.119 4.985 4.985 0 0 1-1.313 1.912 7.344 7.344 0 0 1-.668.538c-.25.144-.494.294-.75.412-.473.213-.968.37-1.476.469a7.777 7.777 0 0 1-1.462.119H5.236v-.007l.002-.001z"/></svg>