<svg xmlns="http://www.w3.org/2000/svg" width="20" height="20" fill="none" viewBox="0 0 20 20"><path fill="#002352" stroke="#06C" stroke-miterlimit="10" d="M10 19.15A9.15 9.15 0 1 0 9.999.849 9.15 9.15 0 0 0 10 19.15z"/><path fill="#fff" d="M4.873 7.624h6.46s2.231-.02.689 2.855c0 0-1.126 2.251-3.919 2.21l1.505-3.844a.304.304 0 0 0-.275-.417l-1.98-.033-2.5 6.086s.833.083 1.291.042l-.25.625h1.18a.16.16 0 0 0 .15-.104l.212-.563.5-.042-.291.709h1.15a.214.214 0 0 0 .12-.036.214.214 0 0 0 .076-.097l.321-.826s3.502-.583 5.086-3.418c0 0 2.126-3.293-.375-4.46a4.85 4.85 0 0 0-1.543-.417l.292-.721a.143.143 0 0 0-.063-.179.15.15 0 0 0-.066-.017h-1.08l-.333.875h-.459l.259-.679a.143.143 0 0 0 .007-.068.135.135 0 0 0-.024-.064.138.138 0 0 0-.05-.046.156.156 0 0 0-.067-.018H9.812l-.333.875H6.111a.504.504 0 0 0-.442.263l-.796 1.509z"/></svg>