<svg xmlns="http://www.w3.org/2000/svg" width="20" height="20" fill="none" viewBox="0 0 20 20"><path fill="#988430" d="M10 20c5.523 0 10-4.477 10-10S15.523 0 10 0 0 4.477 0 10s4.477 10 10 10z"/><path fill="#7A6A2A" d="M10 19.68c5.346 0 9.68-4.334 9.68-9.68S15.346.32 10 .32.32 4.654.32 10s4.334 9.68 9.68 9.68z"/><path fill="#BA9F33" d="M10 19.476A9.477 9.477 0 1 0 9.999.523 9.477 9.477 0 0 0 10 19.476z"/><path fill="#CFB66C" fill-rule="evenodd" d="M4.372 8.932l-.171-.155-.169-.156-.168-.16c-.027-.027-.057-.051-.084-.079l-.087-.076c-.224-.212-.448-.424-.669-.636.228.209.452.416.68.628l.08.08c.027.027.056.051.083.079l.169.155c.056.052.111.103.168.16.057.056.112.108.168.16zM1.408 8.9s.812.084 1.209.14c.367.053 1.516.229 1.516.229L1.408 8.9zm0 0c.228.02.456.044.684.068.117.011.228.024.34.036l.172.019.168.024.68.109.34.056.34.06a6.185 6.185 0 0 1-.34-.044l-.34-.048-.68-.1c-.057-.008-.112-.02-.168-.028l-.172-.02c-.112-.01-.228-.027-.34-.04a22.887 22.887 0 0 1-.684-.092zm2.644.58s-.867.22-1.16.305c-.288.08-1.16.345-1.16.345l2.32-.65z" clip-rule="evenodd"/><path fill="#CFB66C" fill-rule="evenodd" d="M4.052 9.48a21.52 21.52 0 0 1-.58.164l-.579.155-.576.169-.288.079-.291.08c.095-.033.192-.065.288-.093l.288-.092.576-.177c.196-.048.388-.1.584-.147.186-.047.382-.094.578-.137zm-2.2 1.184a86.708 86.708 0 0 0 1.452-.669c.128-.06.5-.192.5-.192l-1.951.86z" clip-rule="evenodd"/><path fill="#CFB66C" fill-rule="evenodd" d="M1.853 10.664c.084-.032.163-.072.244-.109l.24-.112.48-.23c.16-.077.316-.16.48-.232.085-.036.169-.065.253-.093l.128-.04c.044-.011.084-.024.128-.036-.16.076-.328.141-.489.216-.16.079-.323.144-.488.215l-.489.215c-.164.066-.324.137-.487.206zm.106.447s.997-.584 1.34-.771c.18-.1.76-.389.76-.389l-2.1 1.16z" clip-rule="evenodd"/><path fill="#CFB66C" fill-rule="evenodd" d="M1.96 11.112l.51-.316.257-.155.26-.152c.088-.052.172-.104.26-.152a.804.804 0 0 1 .134-.068l.135-.068c.18-.088.36-.177.55-.253-.172.109-.349.201-.525.296-.088.049-.177.093-.264.141-.087.049-.172.1-.26.148-.088.051-.172.1-.261.147l-.264.144-.532.288zm2.092-1.033l-.82.628c-.201.152-.792.58-.792.58l1.612-1.208z" clip-rule="evenodd"/><path fill="#E2CC85" fill-rule="evenodd" d="M7.608 13.916l-.317-.6.185-.751 1.315-.508-.56-1.15.277-1.16.52-1.038 1.605-.253 1.18-1.124 2.546.192.5 2.724-.963 3.428-.548 1.775-2.223.085-1.033-.716-1.208-.505-1.276-.4z" clip-rule="evenodd"/><path fill="#F1D789" fill-rule="evenodd" d="M11.508 13.896s-.307.141-.832.109c-.152-.204-1.215-.3-1.215-.3s-.132-.04-.367.057c-.236.096-.46.084-.668.136-.209.052-.416-.22-.576-.277a2.252 2.252 0 0 1-.372-.204l-.448-.043-.9-.38L4.7 11.57l-.388.608-.12.752.433.892 1.163 1.06 2.269.575 1.344-.396 1.685-.712.422-.453z" clip-rule="evenodd"/><path fill="#F4ECB4" fill-rule="evenodd" d="M3.448 8.864l.288-.872.343-.563 1.105-.092-.331.967-.924 1.644.383 1.468-.68.34-.208-.32-.168-.735-.012-.826.204-1.01z" clip-rule="evenodd"/><path fill="#F3E19D" fill-rule="evenodd" d="M4.688 13.837l-.212-.296s-.057-.141-.024-.264c.032-.125.027-.133.01-.18-.015-.047-.151-.209-.143-.348.008-.14-.011-.188.092-.3.108-.108.076-.295.076-.295l.14.087.033-.048s.052.04.052.103c.01-.087-.036-.492.07-.584.108-.092.297.432.297.432l-.117-.76-.299-.78-.532-.712-.032-.785v-.068s-.245.375-.313.672c-.048.204.068.451.044.744-.02.291-.044.269.027.384.072.116.245.353.177.524-.06.148-.264.044-.264.044s-.04.12-.095.164a.35.35 0 0 0-.08-.16c-.003.027-.011.064-.011.064s-.036-.111-.071-.252c-.049-.188-.1-.435-.147-.568-.02.076-.068.307-.068.307l.027.356.133.489.128.32.124.392.109.263.087.2.076.452.367.388.196.088.143-.073z" clip-rule="evenodd"/><path fill="#F2E8B0" fill-rule="evenodd" d="M3.64 8.152s-.263.448-.339.9c-.076.451-.144.929-.096 1.543.049.62.14 1 .215 1.272.128.452.46 1.08.46 1.08l.011-.025a1.697 1.697 0 0 1-.133-.331c-.043-.172-.06-.376-.1-.468-.036-.092-.095-.171-.125-.285-.027-.108-.032-.28-.116-.407a.808.808 0 0 1-.092-.324c-.017-.204.008-.432-.012-.62-.035-.312-.06-.524-.027-.688.032-.163.2-.627.304-.996.068-.237.028-.436.152-.641.125-.204.2-.384.228-.508.032-.114-.33.498-.33.498z" clip-rule="evenodd"/><path fill="#F5EEC0" fill-rule="evenodd" d="M4.892 7.972s-.136.041-.201.112c-.065.068-.092.125-.18.24-.087.114-.092.208-.163.352-.071.141-.228.353-.248.43-.02.075-.051.431-.092.6a.803.803 0 0 0 .04.375l.093-.02s0 .12.092.201c.092.08.108-.269.108-.269l.345-1.163.52-.353.056-.284-.37-.22z" clip-rule="evenodd"/><path fill="#E6DB9D" fill-rule="evenodd" d="M5.144 8.5s-.244.016-.364.104c-.049.035-.068.064-.12.108-.095.08-.192.152-.24.256-.051.103-.108.26-.146.557-.017.124-.017.239-.028.34-.016.135-.04.244-.028.32.017.155.177.236.192.412l.332-.168.313-1.232.663-.416-.375-.42-.2.138.001.001z" clip-rule="evenodd"/><path fill="#E5CB7A" fill-rule="evenodd" d="M3.394 16.792l.004-.036c.048-.416.057-.732.092-.93.052-.279.088-.383.08-.488-.012-.168-.025-.291-.009-.42.025-.172.193-.376.188-.517-.003-.111-.06-.184-.108-.252l-.088-.125s.332-.228.329-1.147l.02.008.163.464.111.136.43.8.551.535.815.549.512.556.052 1.484-.669.867-.11.199a9.505 9.505 0 0 1-2.363-1.683z" clip-rule="evenodd"/><path fill="#D8C173" fill-rule="evenodd" d="M5.435 18.212s.012-.184.164-.304c.024.04.04.08.035.108a.968.968 0 0 1 .656-.44c.435-.08.54-.396.54-.396l.924-.84 1.057-.973 1.284-.451.6-.148s.012.044-.01.141c.111-.008.359-.064.616-.155.104-.04.2-.057.252-.003.076.071.088.24.093.34.124-.028.268-.148.384-.136.184.02.348.236.535.236.248 0 .36-.152.533-.272.103-.071.252-.16.336-.22.2-.147 2.324-.796 2.324-.796l.744.048.12.8-.064 2.09-.024.022-3.384 1.768-4.691.72a9.456 9.456 0 0 1-3-1.032l-.023-.107z" clip-rule="evenodd"/><path fill="#F1D789" fill-rule="evenodd" d="M3.678 17.058c.067-.14.127-.256.138-.297.008.084.023.268.054.464a9.969 9.969 0 0 1-.192-.167z" clip-rule="evenodd"/><path fill="#E0CD81" fill-rule="evenodd" d="M7.105 19.025l.607-.169.052.016s.027.016.027.071c.076-.043.141-.035.188-.064.024.051.048.223.155.244.112.024.232-.049.353-.14.12-.096.256-.216.36-.265.037.07.07.142.1.216.135-.109.372-.549.708-.54.098-.23.26-.427.468-.566.312-.212.508-.228.752-.208a1.3 1.3 0 0 1 .353-.316c.04.016.152.084.291.02.14-.065.3-.316.508-.348a.485.485 0 0 1 .324.068s.608-.604 1.027-.805c-.016-.048-.048-.23.444-.636.027.025.008.093.027.097.008 0 .128-.052.28-.169.188-.14.413-.288.549-.328.255-.076.527.079.527.079a.265.265 0 0 1 .076-.036.795.795 0 0 0 .147-.032c-.003.085.044.229 0 .353a.801.801 0 0 0 .16.068c-.027.06-.087.212-.187.285.084.04.095.087.215.128a2.202 2.202 0 0 0-.163.256c-.036.076-.164.392-.22.511-.06.12-.141.34-.18.384-.04.044-.18.231-.288.324.096-.036.488-.156.655-.201l-.543.805a9.498 9.498 0 0 1-7.772.899v-.001z" clip-rule="evenodd"/><path fill="#DFC57C" fill-rule="evenodd" d="M5.184 8.456s-.14 0-.168.02c-.028.02.14.06.192.08a.433.433 0 0 1 .193.179c.027.068 1.011.464 1.011.464l.696-.036.24-.331-.456-.4.32-.943-.424.068-1.02.608-.511.196-.073.095z" clip-rule="evenodd"/><path fill="#E5CC7C" fill-rule="evenodd" d="M6.712 8.769a.1.1 0 0 0 .041.038c.017.01.036.014.055.013.144 0 .277.036.332.109.092.116.348.488.348.488l.611.22.04-.72-.669-.464-.76.28v.036h.002z" clip-rule="evenodd"/><path fill="#D2C281" fill-rule="evenodd" d="M6.592 9.036s.112.008.252-.044c.141-.052.373-.164.473-.12.14.06.111.248.264.416.092.104.26.1.356.212.095.112.424.06.424.06l.124.672-.5.641-.163.796h-.676l-.618-.245-.304-.736.152-.744.216-.908z" clip-rule="evenodd"/><path fill="#E2C270" fill-rule="evenodd" d="M7.9 9.068a.175.175 0 0 0 .051.008c-.019.016-.06.052-.043.144.016.092.068.209.024.28.035.038.06.083.076.133.028.079.036.152.215.163a.323.323 0 0 0-.07.057s.124.108.187.208c.064-.002.236-.056.236-.056l.036.025.076-.032s-.071-.028-.02-.201c.049-.152.093-.144.096-.155.004-.012.036-.172.036-.237.024-.084.044-.34.044-.34l-.052-.564-.291-.176-.237-.229-.224.42-.147.147-.011.364.018.04z" clip-rule="evenodd"/><path fill="#CCB360" fill-rule="evenodd" d="M8.6 8.596s.052.147.072.26a.26.26 0 0 0 .01-.068s.041.223.05.316c.016-.004.031-.008.035.008.004.016.04.196.032.296a.796.796 0 0 1 .272-.272.47.47 0 0 1 .22-.087c.124-.004.215.079.364.079.36 0 .684-.264.924-.345.176-.06.328-.103.435-.2.052-.044.144-.141.228-.285.112-.192.228-.36.345-.38a.66.66 0 0 1-.16.01s.036-.035.096-.083c.06-.049.133-.109.236-.109.185 0 .277.028.38.028.104-.003.164-.028.164-.028s.108.076.353.076c.244.004.407.025.535.036.128.011.557-.036.68-.032.08.003.159.022.231.057l-.396-1.152-1.424-1.245-.848.6-1.305 1.304-1.262.468-.263.296v.452H8.6z" clip-rule="evenodd"/><path fill="#D5B457" fill-rule="evenodd" d="M11.432 7.935s.036-.035.095-.084c.06-.048.133-.108.237-.108.184 0 .276.027.38.027a.51.51 0 0 0 .163-.027s.109.076.353.076c.245.003.408.024.536.035.128.012.556-.035.68-.032.08.003.158.022.23.057l-.179-.52-.208-.396-.596-.652-.72-.424a10.496 10.496 0 0 0-.248-.068l-.647.392-.587 1.519-.012.32.38.18c.096-.16.201-.288.3-.305-.09.01-.157.01-.157.01z" clip-rule="evenodd"/><path fill="#D2B257" fill-rule="evenodd" d="M11.424 8.044c-.057.003-.104-.008-.117-.049-.048-.136-.087-.155-.127-.155-.041 0-.096.087-.128.095-.033.008-.072-.1-.072-.1l-.035-.016s-.209.136-.356.296c-.147.16-.389.432-.497.48-.108.049-.48.065-.608.093a.798.798 0 0 0-.288.14c-.02.022.057.044.068.065.011.02-.125.011-.136.032-.008.016.032.109.052.155a.271.271 0 0 1 .112-.027c.124-.003.215.08.364.08.359 0 .684-.265.923-.345.177-.06.33-.104.436-.201.052-.044.144-.14.228-.285a2.03 2.03 0 0 1 .181-.259z" clip-rule="evenodd"/><path fill="#D2B159" fill-rule="evenodd" d="M6.272 16.052s-.032-.12-.329-.429c-.084-.087-.135-.16-.192-.212-.14-.133-.223-.168-.324-.244-.22-.164-.46-.164-.644-.364-.184-.2-.399-.584-.548-.976a6.153 6.153 0 0 1-.188-.528c0-.01.04-.087.092-.076.052.012.052.112.065.136a.86.86 0 0 0 .087.112c.076.087.185.192.24.348-.012-.133-.057-.28-.057-.28s.285.18.528.367c.244.188.344.253.416.372.071.12.24.436.32.528.08.092 1.184.44 1.184.44l.525.391.26.572-.204.32-.391.084-.636-.285-.204-.276z" clip-rule="evenodd"/><path fill="#C2A44D" fill-rule="evenodd" d="M4.86 14.084s.132.212.456.413c.29.176.752.336 1.163.432.236.056.472.1.684.103.572.008.965-.155 1.452-.208.264-.028.587-.049.924-.128.432-.104.688-.22 1.036-.384.252-.117.483-.204.671-.316.264-.155.456-.328.68-.38-.028.076-.057.212-.277.353.116-.004.277-.012.277-.012s-.156.093-.43.3c-.168.128-.39.344-.619.488-.147.093-.307.16-.413.216-.256.14-.359.212-.527.384.06-.004.065 0 .065 0s-.212.027-.364.108c-.032 0-.088-.011-.185.016-.076.024-.176.08-.28.109-.147.043-.196.024-.196.024l.025.048s-.192-.003-.256.004c.011.003.008.008.008.008a.094.094 0 0 0-.032.011.343.343 0 0 1-.1.044c-.02.003-.036.003-.06.008.008.02.07.128.1.192-.024.016-.388.291-.388.291.01.018.02.037.027.057.011.035.016.087.028.111.027.049.043.057.043.057s-.043.008-.12.027c-.064.017-.144.044-.256.06a.704.704 0 0 1-.103.008c.016.036.087.172-.044.329-.13.157-.171.18-.212.28a.334.334 0 0 0-.065-.04c-.043-.02-.103-.05-.124-.088a.998.998 0 0 1-.049.152c-.04.108-.1.215-.111.296-.044-.048-.125-.144-.236-.124-.112.019-.201.171-.22.215 0-.028-.02-.049-.025-.016a1.23 1.23 0 0 1-.408.708c-.003-.076-.003-.244-.01-.299-.033.032-.072.08-.305.18-.228.1-.192.2-.192.2s-.02-.16.104-.328.2-.248.2-.26a.066.066 0 0 0-.016-.036c-.016-.017-.049-.036-.049-.049.02-.008.212-.1.201-.291-.011-.172-.084-.26-.136-.324-.008-.008.076-.068.065-.087-.008-.011-.112-.088-.125-.128a.35.35 0 0 1 .017-.071c.01-.036.019-.06.016-.084a.689.689 0 0 0-.065-.164c.011.003.092 0 .092 0s-.064-.103-.076-.152c-.011-.048-.036-.176-.048-.2.027.003.095.008.095 0 .003-.025-.06-.065-.032-.096.02.003.057.019.092.064-.02-.052-.052-.152-.12-.192a.295.295 0 0 1 .237.016.318.318 0 0 1 .128.136l.144.108c.1.08.228.192.432.272.044.024.155.024.236.008a.35.35 0 0 0 .1-.04c.012-.007.024-.012.036-.017a.735.735 0 0 0-.06-.1c.028 0 .06.003.06.003s.02-.043-.068-.128c.02-.02.044-.032.044-.064-.028-.004-.076-.044-.088-.06.016-.012.04-.049.068-.06-.024-.02-.084-.1-.111-.108a.584.584 0 0 0 .076-.036s-.136-.036-.18-.065c-.044-.032-.108-.087-.147-.103-.04-.017-.112-.025-.14-.057.026.008.07 0 .103 0 .024 0 .035.003.043.003-.003-.011-.003-.036.06-.043a.311.311 0 0 0 .088-.028s-.06-.003-.128-.068-.125-.116-.164-.125c-.04-.008-.116.028-.163.025-.065-.008-.093-.04-.093-.04s-.215.019-.692-.273c-.413-.252-.592-.475-.592-.475a.76.76 0 0 1-.112-.052c-.155-.081-.37-.25-.364-.47v.002z" clip-rule="evenodd"/><path fill="#CAA13E" fill-rule="evenodd" d="M10.812 4.372c.038.012.07.035.096.065.076.087.125.252-.048.429.068.024.096.032.155.024-.06.071-.196.223-.204.356-.008.108.06.14.06.14s-.104.12-.108.32c.049-.054.102-.105.16-.151.12-.096.284-.204.396-.272a.24.24 0 0 0 .011.084s.21-.172.384-.095c.08.035.044.147.044.147s.109-.04.185.035c.076.076.183.273.238.349.025.035.088.103.152.208a2.6 2.6 0 0 1 .22.465c.004-.084.025-.215.264-.133.24.084.511.26.74.608.228.347.284.74.4.889.116.144.236.383.244.484.008.1-.036.424.204 1.3.067-.273.171-.876.171-.876l.057-.533.064-1.647-1.72-1.429-1.344-.976-.876.084.055.125z" clip-rule="evenodd"/><path fill="#B59544" fill-rule="evenodd" d="M14.008 6.824s-.024-.16-.429-.432c-.404-.269-.72-.269-1.011-.497-.223-.18-.456-.592-.608-.728-.147-.135-.171-.523-.171-.523l.496-.416.739-1.068.625-.688.299.416.416.49.231.98.084 1.435-.672 1.03h.001z" clip-rule="evenodd"/><path fill="#C89D3A" fill-rule="evenodd" d="M14.508 8.544a1.8 1.8 0 0 0-.08-.644 11.78 11.78 0 0 0-.447-1.141c-.044-.245-.011-.264.035-.292.047-.027.224-.128.32-.48.097-.353.397-.364.397-.364l.184-.136.28.7.245.633.076.484.056.413-.132.872-.656.592-.278-.637z" clip-rule="evenodd"/><path fill="#CEB052" fill-rule="evenodd" d="M5.364 18.265v-.017a.159.159 0 0 0 .036-.032c.011-.017.02-.036.027-.04a.29.29 0 0 1 .133-.025c.04.008.147.052.204.048.116-.003.252-.092.467-.051.324.06.4.28.588.404.128.088.26.049.28.049h.043c.009 0 .068-.068.1-.065.066.003.072.057.112.06.096.011.28-.049.373-.024a.164.164 0 0 1 .072.044.18.18 0 0 1 0 .252c-.1.092-.195.18-.215.256a.682.682 0 0 1 .071.06 9.42 9.42 0 0 1-2.29-.918z" clip-rule="evenodd"/><path fill="#CCA847" fill-rule="evenodd" d="M13.98 15.032s.253-.336.34-.503c.088-.172-.276-2.348-.276-2.348l.731-2.396-.02-.78s.036-.72.12-1.032c.1.18.413.396.481.511.032-.22.14-.685.125-1.18.06.092.204 1.02.204 1.02l.143.624.188.664.209.7.125.484.07.117.06.204.057.22.164.516.096.424.076.768c.016.06.028.12.035.18.004.084-.01.133-.01.147 0 .015.027.185.015.313-.016.128-.016.228-.116.32-.1.091-.164.64-.164.64l-.18-.12s.036-.163-.048-.312a.315.315 0 0 0-.34-.155c-.092.02-.276.049-.336.1-.057.052-.196.212-.324.285-.16.096-.42.104-.56.136-.14.032-.296.128-.46.24a2.51 2.51 0 0 1-.404.213z" clip-rule="evenodd"/><path fill="#C39D3C" fill-rule="evenodd" d="M13.98 18.568l.032.018a9.5 9.5 0 0 0 3.03-2.245c-.01-.328-.022-.663-.035-.788-.028-.263-.008-.532-.017-.687a10.09 10.09 0 0 0-.135-.952c-.044-.163-.128-.244-.141-.244-.011.003-.08.307-.08.384 0 .076-.016.26-.016.307-.011-.003-.016-.032-.016-.043-.016.04-.035.111-.044.12-.008.007.012-.069 0-.085-.01-.016-.032-.008-.027-.048a.552.552 0 0 1 .011-.071s-.048.07-.084.252c-.035.18-.035.184-.048.2-.012.02-.076.085-.08.11-.003.043.06.086.065.11.003.041-.057.229-.076.32-.02.092-.011.272-.032.365-.016.084-.032.132-.087.168.04.008.079.02.079.02s.056.239-.087.443c-.052.07-.065.103-.12.168-.109.12-.193.256-.201.345a.428.428 0 0 1-.011-.08s-.168.196-.24.308c-.092.144-.22.136-.256.171-.036.036-.044.1-.032.152-.032.008-.092.02-.132.144a.307.307 0 0 1-.144.172c-.076.043-.169.057-.216.068.04.011.057.011.076.024-.024.04-.136.104-.26.185a.536.536 0 0 0-.215.26c-.032.068-.08.112-.156.12.032.02.08.065.104.08-.036.007-.096.007-.204.1-.113.093-.152.121-.204.13v-.001z" clip-rule="evenodd"/><path fill="#D2BA6B" fill-rule="evenodd" d="M11.73 19.318a.827.827 0 0 1 .199-.106c.252-.1.52-.12.624-.152.1-.032.18-.076.305-.1l-.01.08c-.367.115-.74.208-1.12.278h.001z" clip-rule="evenodd"/><path fill="#C0993A" fill-rule="evenodd" d="M16.384 12.68s-.052.28-.144.456-.192.42-.192.42c0-.054.007-.11.02-.163-.117.068-.4.232-.48.304a1.608 1.608 0 0 0-.237.245c.076-.223.155-.424.168-.516-.116.084-.66.532-.943.828l-.882.714a2.99 2.99 0 0 1-.314.147c-.152.064-.331.12-.464.171a.739.739 0 0 1 .171-.26c.085-.08.337-.353.376-.48.036-.133.044-.212-.003-.324-.044.011-.144.016-.212.036-.068.019-.141.092-.141.092s.052-.296.163-.576c-.084.003-.228.027-.228.027s.2-.336.544-.57a1.65 1.65 0 0 0-.307.094c-.2.085-.421.21-.584.277.092-.128.739-1.052 1.124-1.912.384-.86.528-1.08.612-1.54.044-.23.032-.566.044-.868.01-.3.048-.568.024-.748.1.125.476.476.488 1.26.012.785-.359 1.845-.752 2.417.096.027.345.06.6-.384.256-.444.253-.568.345-.753.011.092.008.125.008.125s.372-.452.549-1.02c.035.245.14.46-.025.908-.147.405-.34.503-.34.503s.096-.016.237-.1c.024.06.02.128.06.152.04.024.095.065.103.104.044-.065.112-.148.133-.209-.016.128-.028.688.032.972.125-.01.252-.019.34-.244-.06.22-.06.353-.02.54a.626.626 0 0 0 .127-.126z" clip-rule="evenodd"/><path fill="#A88F33" fill-rule="evenodd" d="M12.18 3.76s-.125.052-.337.052c-.184 0-.133-.07-.42-.07-.444 0-1.993.255-2.264.251-.177-.003.595.077.595.077l1.973.027.396-.032.147-.3-.09-.004z" clip-rule="evenodd"/><path fill="#E3C571" fill-rule="evenodd" d="M7.065 7.617s-.253.192-.36.34c-.106.147-.163.244-.284.363a.24.24 0 0 0 .084-.01s0 .031-.02.04a.12.12 0 0 1 .05.005.13.13 0 0 1 .043.027c-.036.019-.133.116-.057.231.057.087.176.095.176.095s-.027.08.088.072c.247-.012.524-.12.652-.093.128.032.2.044.291.201.096.155.18.18.18.18s.056-.144.043-.36c.047-.116.073-.239.077-.364l-.085-.62-.367-.464-.476.264-.035.092z" clip-rule="evenodd"/><path fill="#D8B65B" fill-rule="evenodd" d="M7.516 7.524s.036.084.185.092c-.017.036-.017.041-.012.068l.008.068a.128.128 0 0 0 .044-.032c.008.036-.008.092 0 .133a.283.283 0 0 0 .024.071l.008-.016c.004-.008.032.087.112.16 0-.011.003-.022.008-.032a.11.11 0 0 0 .02.057.066.066 0 0 1-.017-.012s.008.256.052.389l.02-.028c0-.008-.004.071-.012.128-.011.057-.003.136-.003.136a.46.46 0 0 1 .095-.057c.049-.019.128-.079.177-.212.028-.075.05-.152.065-.23.015.03.026.062.032.095.003.04.079.02.079.02l.016-.177.096-.4.088-.247.42-.655.76-.586.664.152.56-.76-.965-.58-.912.096-.829 1.147-.663 1.04-.12.172z" clip-rule="evenodd"/><path fill="#D3AE4D" fill-rule="evenodd" d="M12.296 5.864s-.057.011-.22.096-.277.112-.34.236a.62.62 0 0 0-.068.224s.112-.049.177-.065c.068-.016.144-.011.136.016a.214.214 0 0 1-.032.052s.128-.003.124.06a.331.331 0 0 1-.048.163c-.025.032-.125.08-.136.117-.028.076.011.079-.003.14-.012.06-.065.177-.24.38-.18.205-.256.349-.256.349s-.087-.164-.133-.305l-.204.112-.398-1.387.008-.092s.036-.044.044-.124c-.06-.02-.068-.036-.147-.112-.08-.076-.144-.168-.277-.232-.02-.035-.043-.084-.14-.103-.098-.02-.156-.036-.156-.036s.052-.02.076-.06c-.06.009-.108.028-.24.025-.132-.004-.147-.008-.22.003-.072.011-.16.044-.192-.068-.035-.028-.111-.003-.176.092-.065.096-.088.172-.212.209a.426.426 0 0 1-.057.155c-.035.06-.092.12-.168.209-.12.14-.1.372-.291.549-.193.176.032-.49.032-.49l.307-.735.875-.856 1.36-.092.132.704.664.228.419.639z" clip-rule="evenodd"/><path fill="#CAA13E" fill-rule="evenodd" d="M12.511 6.02l-.57-.824-.4-.308s-.285-.524-.305-.54a3.973 3.973 0 0 0-.456-.052l.032.08a.21.21 0 0 1 .096.064c.076.088.125.253-.048.429.067.024.096.032.155.024-.06.071-.196.224-.204.356-.008.109.06.141.06.141s-.104.12-.109.32c.05-.055.103-.106.16-.152.12-.096.285-.204.397-.272a.219.219 0 0 0 .011.084s.209-.171.384-.095c.08.035.044.147.044.147s.108-.04.184.036.185.271.24.348c.024.035.087.103.152.208.088.147.162.303.22.465.003-.065.016-.156.128-.156l-.17-.304z" clip-rule="evenodd"/><path fill="#F4EFC8" fill-rule="evenodd" d="M3.948 8.36s-.04-.101 0-.297c.04-.196.104-.288.125-.576.02-.288.209-.647.209-.647l.519-.236.367.1.109.492-.465.256s-.024.108-.155.196c-.131.087-.312.155-.356.244a.74.74 0 0 0-.057.172s-.132-.028-.212.06c-.084.088-.08.168-.084.236z" clip-rule="evenodd"/><path fill="#EBCC73" fill-rule="evenodd" d="M4.997 8.228s-.044.028-.076.096c-.032-.052-.109-.36-.112-.636-.003-.276-.02-.345.044-.44.064-.096.315-.196.28-.368-.036-.163-.185-.231-.368-.184-.128.032-.223.304-.356.44-.1.103-.22.087-.252.144-.044.076-.003.152-.016.2a1.003 1.003 0 0 1-.117.21c-.147.211-.396.51-.429.779.012-.152.004-.155.044-.324l-.024-.04.16-.524.103-.432.232-.724.408-.74.396-.443.413.028.048.62.236 1.163.497.612-.796.536-.316.027z" clip-rule="evenodd"/><path fill="#E5C66B" fill-rule="evenodd" d="M5.244 8.448s-.068.016-.092.003c-.024-.013-.048-.027-.04-.043.008-.017.051-.044.051-.057a.045.045 0 0 0-.01-.033.047.047 0 0 0-.03-.016c-.037-.004-.049.02-.049.02s-.035-.028-.064-.032a.44.44 0 0 1 .052-.003.504.504 0 0 0-.141-.04c.04-.025.12-.096.171-.096.052 0 .084-.008.076-.036-.008-.027-.048-.068-.092-.084.016-.02.028-.049-.011-.128-.04-.08-.024-.133-.011-.152.01-.024.051-.068.07-.096.02-.027.036-.064.069-.084a.808.808 0 0 1 .12-.051c.056-.02.103-.044.135-.02.036.024.02.057.02.057s.111-.04.212.011c.1.049.344.08.344.08l.088.176-.58.497-.239.12-.048.007z" clip-rule="evenodd"/><path fill="#E6BD62" fill-rule="evenodd" d="M6.049 7.636s-.18.12-.22.163c.024.004.064.02.048.044-.02.024-.136.108-.2.188-.069.08-.133.18-.156.228a.814.814 0 0 1-.272.188c.133 0 .4-.164.5-.164-.003.049.028.104.084.109.057.004.22.035.44-.1.22-.133.148-.232.24-.297.176-.116.247-.22.345-.285.097-.064.147-.079.147-.079s.003-.048.032-.044a.035.035 0 0 1 .021.01c.007.004.012.01.014.018 0 0 .169-.12.384-.152a.016.016 0 0 1-.01-.011s.015-.009.019-.017c0 0 .01-.016.019-.008.008.008.02.068.036.092.035-.016.103-.168.103-.168l.164-.467v-.428l-.128.025-.96.407-.583.604-.068.144z" clip-rule="evenodd"/><path fill="#B6933F" fill-rule="evenodd" d="M8.812 5.54a.5.5 0 0 0 .148-.06c-.02.052-.02.109-.104.232-.084.123-.087.14-.155.269-.068.132-.076.323-.14.407a.29.29 0 0 1 .091-.027s-.064.057-.092.116c-.027.06-.076.185-.195.26-.12.077-.272.126-.436.305-.163.176-.331.4-.416.48.044-.076.104-.228.12-.328s-.003-.22.024-.353c.028-.133.028-.228.16-.46.133-.231.36-1.035.36-1.035l.488-.156.147.35z" clip-rule="evenodd"/><path fill="#C49937" fill-rule="evenodd" d="M8.46 5.244s-.148.212-.188.4c-.04.188-.003.172-.028.264a.353.353 0 0 0 0 .171.61.61 0 0 1 .204-.2c.14-.084.252-.144.32-.216.068-.076.125-.2.272-.296-.06-.008-.144-.035-.16-.032.06-.068.24-.171.42-.296.18-.128.169-.18.46-.307-.095.016-.14-.008-.22 0 .032-.068.144-.1.256-.212.112-.112-.071-.277-.071-.277l-.854.516-.412.486z" clip-rule="evenodd"/><path fill="#DFC068" fill-rule="evenodd" d="M6.144 4.86l.02-.156.244-.392.255-.687v-.94l-.019-.544.04-.356.031-.113.033-.044.208.108.288.392.028.756-.28 1.192-.8.872-.048-.089z" clip-rule="evenodd"/><path fill="#A88F33" fill-rule="evenodd" d="M6.78 1.584s-.128.003-.155.536c-.028.532-.04.812-.06 1.076-.02.264-.065.424-.088.58-.022.155-.035.366-.108.496-.032.06-.1.247-.26.388a1.59 1.59 0 0 1-.49.272c-.07.016-.431.052-.579.133-.051.027-.14.06-.239.152a3.056 3.056 0 0 0-.644.872c-.288.568-.576 2.172-.576 2.172l.065-.109s.008-.144.152-.396c.14-.253.1-.536.296-1.02.076-.184.171-.424.288-.627.184-.332.408-.617.633-.772.367-.253.771-.308.771-.308l.436-.288s.076-.147.176-.315c.14-.236.32-.5.36-.884.06-.568-.085-.94-.077-1.276.008-.337.012-.584.08-.644.068-.06.02-.038.02-.038H6.78z" clip-rule="evenodd"/><path fill="#C99E3D" fill-rule="evenodd" d="M6.78 4.125s.192-.473.28-.892c.016-.084.048-.168.056-.236.04-.397.052-.56 0-.777-.04-.16-.195-.304-.276-.416-.08-.117-.117-.16-.1-.184a.176.176 0 0 1 .14-.06.489.489 0 0 1 .345.16c.125.144.223.632.223.632l.104.645.264.813-1.036.315z" clip-rule="evenodd"/><path fill="#B58634" fill-rule="evenodd" d="M8.584 3.633s-.036.016-.1 0a.146.146 0 0 1-.013.077.156.156 0 0 1-.052.059c-.068-.028-.704.027-.704.027s-.296-.052-.388-.443c-.065-.26.048-.62.011-.856-.057-.348-.136-.416-.144-.525-.008-.108-.016-.135-.016-.203-.036-.008-.057-.02-.092-.02-.008-.032.008-.06-.028-.116.02.008.152.024.308.171.128.12.128.164.147.188.024.024.22.192.304.36.084.166.248.7.285.787a.551.551 0 0 0 .096.152c.094.117.231.31.387.342z" clip-rule="evenodd"/><path fill="#A88F33" fill-rule="evenodd" d="M7.536 2c.098.158.186.323.263.492.096.215.152.392.272.536-.064-.188-.18-.557-.247-.688A1.594 1.594 0 0 0 7.536 2z" clip-rule="evenodd"/><path fill="#E6C367" fill-rule="evenodd" d="M6.435 4.66s-.163.04-.467.2a4.58 4.58 0 0 1-.288.137c-.24.108-.497.208-.701.264l.024.027s0 .08.044.125c-.024.024-.348.244-.252.98.064-.024.14-.056.152-.056.02.003.024.056.048.056s.104-.032.188-.14c-.003.043-.052.483.209.78.048-.057.171-.245.171-.245l.003-.06s.012-.209.08-.4c.068-.19.2-.331.2-.331l.693-.989-.104-.348z" clip-rule="evenodd"/><path fill="#DCBA5A" fill-rule="evenodd" d="M5.788 6.112a.405.405 0 0 1-.104.052.41.41 0 0 1 .068-.316c.112-.163.356-.375.424-.544.044-.108.025-.38.413-.728.388-.348.54-.468.54-.468l.628-.315.772.304L8.146 5.6l-.298.704-1.184-.223-.876.031z" clip-rule="evenodd"/><path fill="#E9CE77" fill-rule="evenodd" d="M6.24 5.704l.147-.185v-.13s.164-.044.34-.224c.176-.18.42-.524.636-.503.215.024.236.467.244.592.008.125.036.408.08.56.048.152-.525.728-.525.728l-.389.296-.533-1.134z" clip-rule="evenodd"/><path fill="#CDAE50" fill-rule="evenodd" d="M6.696 7.24s.12-.188.032-.229c.052-.116.147-.24.147-.24s.068-.167.288-.375c.22-.207.356-.344.392-.483.022-.091.034-.184.035-.277.024.02.05.037.076.052.036.016.204.155.18.435-.024.28-.128.396-.128.396s-.1.1-.171.153c-.077.051-.104.111-.232.116a.145.145 0 0 1 .044-.024s-.133-.016-.204.048c-.071.065-.223.264-.299.324l-.16.104z" clip-rule="evenodd"/><path fill="#D2A83E" fill-rule="evenodd" d="M12.076 4.092a1.922 1.922 0 0 0-.595-.116c-.34-.012-.837.008-1.324.011-.524.003-1-.18-1.66-.212-.109-.065-.384-.348-1.245.252.052-.003.625-.132.824.117.2.248.144.668.117.769-.052.223-.22.548-.288.776-.068.228-.052.348-.1.508-.05.16-.156.24-.093.424.084-.052.128-.052.269-.367.14-.316.111-.54.344-.807.228-.27.608-.636.753-.729.144-.092 1.291-.687 2.492-.12.29-.03.506-.506.506-.506z" clip-rule="evenodd"/><path fill="#C29637" fill-rule="evenodd" d="M7.736 3.872c0-.012-.004-.024-.008-.036a.276.276 0 0 0-.043-.064s-.285-.052-.43-.036c-.252.028-.48.34-.587.5-.107.16-.24.408-.383.536a.064.064 0 0 0-.008-.036s.008.011-.008.028c-.016.016-.017.024-.008.032l.024.024c.008 0 .231-.1.535-.384.324-.296.572-.448.701-.5a.965.965 0 0 1 .215-.064z" clip-rule="evenodd"/><path fill="#AC8132" fill-rule="evenodd" d="M13.26 2.655s-.051.065-.116.136c-.144.152-.332.324-.492.5-.152.169-.323.3-.516.52-.193.22-.416.464-.473.535a.54.54 0 0 0-.092.248.915.915 0 0 0-.06-.04c.014.025.03.049.049.07.04.057.103.129.136.172.04.056.068.118.084.185.02.003.144.027.3-.229.155-.255.358-.535.358-.535l.324-.48.204-.408.256-.457.039-.217z" clip-rule="evenodd"/><path fill="#A88F33" fill-rule="evenodd" d="M13.592 2.329s-.196.16-.272.256c-.076.096-.256.347-.256.347l.065-.008.329-.29.128-.229.006-.076z" clip-rule="evenodd"/><path fill="#A67A2E" fill-rule="evenodd" d="M13.532 15.188s-.003-.133.072-.212c.076-.08.268-.196.456-.633s.209-.536.209-.536-.337.288-.544.356c.048-.1.076-.171.1-.223-.028-.024-.144-.052-.155-.065.064-.064.1-.223.231-.328.168-.128.476-.348.715-.544.239-.196.708-.652.768-.785.036.052.044.084.044.084s-.236.308-.36.503c-.108.169-.1.264-.1.264l.224-.096s.064.24-.228.604c.128-.049.18-.02.252-.06-.12.076-.285.18-.44.464-.152.285-.36.617-.709.824-.34.218-.536.382-.536.382h.001z" clip-rule="evenodd"/><path fill="#8C6228" fill-rule="evenodd" d="M12.655 4.26s-.132.277-.152.492c-.003.052-.016.093-.016.153-.003.192.011.407-.032.508-.016-.04-.024-.068-.04-.084-.025.067-.068.28-.104.359a1.707 1.707 0 0 1-.049-.444c.004-.212.008-.252.008-.296-.008.065-.051.152-.067.204-.025-.044-.052-.1-.085-.147-.019.032-.043.08-.064.103a1.183 1.183 0 0 1-.017-.144c-.003-.084-.008-.192-.003-.215a.979.979 0 0 1 .22-.372c.172-.188.348-.548.4-.66l.272-.576h.168l-.244.556s-.147.305-.223.416c-.077.112-.237.433-.308.557.052-.068.095-.103.147-.168.05-.045.19-.241.19-.241z" clip-rule="evenodd"/><path fill="#CBA94C" fill-rule="evenodd" d="M13.595 2.307a.669.669 0 0 1-.128.232c-.1.12-.315.28-.42.408a1.098 1.098 0 0 0-.2.867c.031-.087.091-.26.252-.456.16-.196.331-.421.415-.596.085-.176.096-.315.096-.315l.032-.04-.02-.093-.027-.007z" clip-rule="evenodd"/><path fill="#A88F33" fill-rule="evenodd" d="M16.872 13.04s-.064-.176-.084-.336c-.02-.16.032-.192-.027-.376-.036-.111-.1-.095-.117-.111-.016-.016-.027-.185-.024-.277a1.055 1.055 0 0 0-.02-.264c-.024-.02-.04-.035-.076-.155-.04-.12-.06-.18-.079-.215-.02-.036-.076-.068-.076-.104 0-.071.065-.108.065-.128-.004-.04-.052-.008-.065-.02-.016-.019.04-.135.02-.151-.009-.008-.065.06-.08.04-.016-.02-.036-.212-.065-.34-.027-.124-.056-.215-.06-.252-.003-.036-.223-.663-.276-.815a3.864 3.864 0 0 1-.109-.392c-.016-.076-.027-.232-.035-.215-.008.016-.003.095-.016.092-.012-.003-.052-.28-.065-.324-.011-.043-.08-.192-.096-.299a39.312 39.312 0 0 1-.076-.584c-.024-.193-.036-.272-.036-.32a1.896 1.896 0 0 0-.02-.353 3.216 3.216 0 0 0-.151-.595c-.109-.272-.397-.968-.448-1.141 0-.044.056-.02.056-.02s.141.353.245.625c.1.272.195.511.22.536.02.024.171.29.24.728.067.437.091.84.132 1.108.02.128.035.264.076.4.044.147.112.3.2.532.077.196.133.36.164.5.036.18.036.316.057.405.02.076.048.228.116.448s.169.503.236.68c.133.352.192.647.213.804.017.162.077.721.06.89h.001z" clip-rule="evenodd"/><path fill="#BE9C44" fill-rule="evenodd" d="M13.604 2.288l-.008.02s.024.008.019.04a.99.99 0 0 1-.008.133c-.008.056-.024.1-.028.136 0 .076.012.163-.096.38-.032.06-.051.111-.068.147a.416.416 0 0 1-.084.14c.057-.031.26-.16.364-.14a.76.76 0 0 0-.247.223.515.515 0 0 0 .192 0c.18-.027.38-.092.556-.079.193.011.117-.231.117-.231l-.222-.489-.421-.296-.066.016z" clip-rule="evenodd"/><path fill="#A17C34" fill-rule="evenodd" d="M14.7 5.948s-.187-.187-.263-.832c-.076-.647-.06-1.6-.06-1.6l-.152-.372s-.032-.247-.112-.34c-.08-.092-.236-.247-.307-.323-.071-.076-.152-.18-.2-.196.023-.04.132-.269.548-.272.415-.003.544.228.587.312.043.085.24.448.312 1.142.068.692.072.744.06.984a5.58 5.58 0 0 1-.128.768c-.07.279-.145.59-.284.73z" clip-rule="evenodd"/><path fill="#8C6228" fill-rule="evenodd" d="M14.112 6.5a.322.322 0 0 0 .18-.04c.06-.004.276.024.443-.188.011.048.04.18-.036.296.04-.04.1-.057.109-.068.003.06.06.244-.18.693.065-.072.14-.068.209-.077.003.085.048.368-.071.52-.08.103-.209.071-.209.071a.386.386 0 0 0 0-.068c-.003-.044-.02-.087-.008-.116a.564.564 0 0 1-.168-.117c-.141-.133-.324-.36-.337-.527-.016-.188.152-.229.152-.229a.161.161 0 0 1-.035-.043c-.008-.028-.017-.071-.049-.107z" clip-rule="evenodd"/><path fill="#92723A" fill-rule="evenodd" d="M12.864 4.464s-.008-.01-.052.04c.008-.05.017-.1.02-.146a.48.48 0 0 1 .079-.12c-.024.048-.04.092-.04.092s.06-.112.147-.18c.06-.048.136-.07.168-.116.036-.049.027-.057.036-.065 0 0 .079-.052.2-.204.016-.02.04-.04.057-.06.027-.01.092-.04.168-.079.08-.044.168-.103.224-.128.108-.049.223-.044.276-.12.04-.011.084-.132.076-.236.06.024.367.215.473.633.076.296-.06.752-.117.972-.056.22-.064.384-.144.484-.1.133-.424.32-.503.413-.068.076-.272.268-.264.407.008.104.136.16.164.18.027.02.027.044.079.032.052-.012.071-.036.092-.036.024.004.024.009.036.009.008 0 .016-.002.024-.004 0 0-.008.148-.353.192-.024.004-.048.012-.079.016.04-.019.065-.019.108-.079-.048-.008-.187-.016-.223-.027a.405.405 0 0 1 .08-.096c.027-.024-.004-.032-.028-.02-.042.03-.082.06-.12.093-.04.036-.076.084-.14.128a.312.312 0 0 1 .06-.277c-.02.003-.057.06-.093.049a.553.553 0 0 1 .011-.177c.02-.072.125-.2.125-.2l.508-.908.108-.688-1.163.226z" clip-rule="evenodd"/><path fill="#B18E3E" fill-rule="evenodd" d="M12.837 4.503s-.028.02.027.057c-.008.011-.027.052-.052.08-.027.031-.056.051-.068.079-.024.056-.043.095-.043.12a.592.592 0 0 1-.076.28c-.025.035-.052.095-.072.135-.04.071-.076.128-.084.16a1.683 1.683 0 0 0-.027.212l.048-.06c-.02.04-.04.084-.07.117.018-.017.075-.057.17-.141.133-.112.34-.3.593-.448-.076.027-.14.027-.193.036.04-.04.405-.468.596-.509a.078.078 0 0 0 .016-.051l-.163-.016-.332.07-.049-.255-.221.134z" clip-rule="evenodd"/><path fill="#543E26" fill-rule="evenodd" d="M13.364 5.96s-.044.043-.084.152a.566.566 0 0 1-.08-.109c-.06-.1-.151-.228-.367-.155-.003-.068-.008-.104 0-.152.036-.008.144-.096.253-.223.076-.088.147-.188.196-.316.032-.024.087-.065.16-.112.103-.07.228-.168.247-.276-.048.02-.152.068-.307.06.06-.028.152-.057.14-.177l.044-.027a.136.136 0 0 0-.057-.008c-.003-.012-.008-.028-.035-.02-.028.008-.032.008-.036.02-.011.003-.048 0-.076.02-.027.019-.103.083-.133.094l.028-.048s-.08.008-.136.032c-.104.036-.223.1-.345.163.012-.019.017-.032.025-.035.008-.004.027-.008.027-.012 0-.003-.008-.032-.003-.043.036-.077.08-.15.128-.22.057-.076.068-.185.068-.185l.247-.124.696-.16.452.027-.057.313-.267.545-.228.497-.26.304-.24.175z" clip-rule="evenodd"/><path fill="#806031" fill-rule="evenodd" d="M14.492 4.608s-.272.337-.348.388c.049-.103.348-.72.456-.891-.024-.02-.056-.02.02-.32-.065.152-.088.231-.141.272-.053.04-.06.027-.096.027a.062.062 0 0 0 .008-.04s-.228-.028-.384-.028-.464.084-.636.152c-.136.057-.212.057-.26.092-.049.04-.076.085-.1.096-.02.011-.112.04-.133.071-.02.032-.052.068-.052.076 0 .008-.008.02.016.011.008-.003.068-.035.136-.076a4.13 4.13 0 0 1 .285-.147c.231-.092.304-.076.407-.095.109-.02.264-.065.368-.065.103-.003.299 0 .344.008-.02.016-.035.036-.027.104 0 .019-.016.04-.032.087-.049.133-.14.353-.192.464-.071.152-.152.28-.192.36-.04.079-.128.288-.215.4-.087.11-.133.179-.16.203-.028.024-.224.168-.209.22.036-.011.26-.096.424-.28.163-.184.196-.296.323-.396.128-.1.229-.269.288-.408.05-.13.04-.17.102-.285z" clip-rule="evenodd"/><path fill="#B6903C" fill-rule="evenodd" d="M8.633 7.12s-.036.147-.117.22c-.08.071-.22.133-.236.252-.02.12.14.18.14.18s-.087.144-.087.252c0 .112-.003.133.008.24a.122.122 0 0 0-.032.032s.008.103.088.168c.08.065.147.104.187.087l.017.04s.06-.151.1-.284c.04-.136.076-.117.092-.3.016-.182.192-.496.192-.496l.12-.268-.196-.152-.276.029z" clip-rule="evenodd"/><path fill="#685026" fill-rule="evenodd" d="M8.997 7.383c-.04.042-.078.086-.112.133-.051.071-.092.136-.168.164-.076.027-.124.027-.12.103.005.076.076.109.117.147.044.04.08.109.06.185.024-.011.068-.024.108-.112.04-.087.323-.62.323-.62h-.208z" clip-rule="evenodd"/><path fill="#D4B968" fill-rule="evenodd" d="M10.112 6.155s.024-.064 0-.111c-.024-.049-.172-.065-.244-.12-.076-.057-.169-.096-.245-.071.012-.028.057-.088.02-.1-.036-.012-.169.048-.204.075-.036.028-.117.06-.133.08-.016.02-.044.056-.06.04-.016-.011-.024-.04-.052-.024-.027.016-.16.125-.184.188a.966.966 0 0 1-.244.364c-.165.16-.237.263-.188.323.048.06.071.017.08.068a.43.43 0 0 1-.009.152c-.02.085-.052.164-.008.18.112.036.22-.032.244-.011.049.043-.027.2.088.231.116.032.231-.027.231-.027l.424-.229.408-.215.209-.412-.112-.345-.022-.036h.001z" clip-rule="evenodd"/><path fill="#CCA849" fill-rule="evenodd" d="M9.712 7.14s-.071-.108.016-.203c.088-.096.212-.136.26-.196a.067.067 0 0 0-.035-.024.321.321 0 0 1 .14-.133.132.132 0 0 0-.091-.044c-.08 0-.128.049-.201.049-.071 0-.08-.036-.08-.036s.12-.01.11-.064c-.012-.057-.033-.057-.033-.057s.231-.096.272-.147c.04-.051.035-.112.044-.136.027 0 .187-.084.252-.049.065.036.02.133.02.133s.195-.147.295-.292c.088.008.128-.06.192-.06.08 0 .204.109.228.34.017.133.04.209.017.444-.012.132-.009.416.032.556.027.112.092.1.092.1a.18.18 0 0 1-.057.088c-.044.04-.049.147-.044.188.007.03.015.058.025.087 0 0-.052.06-.065.1-.011.04-.065.068-.104.068-.039 0-.02-.003-.07 0-.053.004-.069.012-.101 0-.033-.01-.057-.024-.044-.128.011-.103-.4-.344-.4-.344l-.671-.24h.001z" clip-rule="evenodd"/><path fill="#585136" fill-rule="evenodd" d="M8.94 8.163s.147.196.753.196c.288 0 .388-.027.448-.043.064-.017.307-.112.552-.4.22-.26.171-.367.171-.367l-.128-.02-.416.057-1.231.524-.15.053h.001z" clip-rule="evenodd"/><path fill="#252211" fill-rule="evenodd" d="M9.392 8.212s-.525.117-.525-.215c0-.324.324-.664.405-.723.084-.06.285-.128.285-.128h.483l.093.244-.04.527-.701.295z" clip-rule="evenodd"/><path fill="#C3B378" fill-rule="evenodd" d="M9.875 7.244s-.1-.092-.328.032c-.228.125-.413.384-.424.62-.011.209.172.364.456.372.212.008.34-.016.405-.032l-.1-.124-.008-.868z" clip-rule="evenodd"/><path fill="#E6D89C" fill-rule="evenodd" d="M9.777 7.296s-.024-.02-.096.02c-.06.031-.147.116-.215.176-.044.035-.072.052-.096.08-.1.119-.185.315-.136.412.048.097.208.208.616.132l-.074-.82z" clip-rule="evenodd"/><path fill="#252211" fill-rule="evenodd" d="M9.644 7.497s-.065.1-.065.26c0 .164.093.424.432.444.26.016.436-.376.625-.528.144-.116.231-.12.231-.12s-.147-.16-.54-.367c-.388-.209-.824-.236-1.06.084.112-.008.473-.1.473-.1l.176.057-.272.27z" clip-rule="evenodd"/><path fill="#6F674D" fill-rule="evenodd" d="M10.152 7.709c-.011-.025-.02-.057.028-.065.046-.008.068-.003.084.032s.032.065.008.08c-.024.012-.088 0-.12-.048zm-.076-.228s-.016.01-.008-.012c.003-.027.024-.076.076-.064.052.011.04.068.032.084-.009.016-.052.043-.084.032a.024.024 0 0 1-.011-.006l-.008-.01a.029.029 0 0 1-.001-.013.02.02 0 0 1 .004-.012z" clip-rule="evenodd"/><path fill="#AC924C" fill-rule="evenodd" d="M5.696 7.584s.128.096.277.092c.147-.003.336-.155.424-.252.051-.057.096-.117.144-.164.04-.04.068-.06.087-.087.027-.032.057-.092.071-.112-.035.028-.087.077-.14.109a1.618 1.618 0 0 1-.21.108c-.043.016-.496.256-.496.256l-.157.05z" clip-rule="evenodd"/><path fill="#9F8E57" fill-rule="evenodd" d="M5.892 6.388s.07-.048.208-.079c.133-.032.4-.057.4-.057l.22.096.087.332-.16.345-.203.128-.232-.372-.32-.392z" clip-rule="evenodd"/><path fill="#EAC970" fill-rule="evenodd" d="M5.604 6.684l-.077.057s.02-.035.036-.144c.016-.108.1-.372.223-.524.123-.152.12-.144.12-.144a.078.078 0 0 0-.064.016.775.775 0 0 1 .223-.228c.103-.064.144-.084.252-.032.109.052.136.08.215.076.08-.003.148-.087.148-.087s.016.052-.044.172-.296.364-.296.364l-.492.336-.244.139z" clip-rule="evenodd"/><path fill="#D7BC6B" fill-rule="evenodd" d="M5.968 6.348s.356.048.464-.052c.003.012.016.012.016.02 0 .006-.004.011-.008.016l.036-.003c.014.004.029.006.043.008a.22.22 0 0 0 .036-.004.063.063 0 0 1-.024.041c.016 0 .032.003.032.016 0 .013.003.052-.016.06a.081.081 0 0 1-.049-.003c.001.03.01.06.024.087.032.06.1.128.192.108 0 0 .049.117-.155.376-.027.035-.057.084-.092.124a.47.47 0 0 0-.032.096s.345-.133.443-.435c.1-.305.12-.604.1-.884a.451.451 0 0 0-.035-.176c-.049-.1-.185-.084-.24-.028-.079.08-.212.277-.396.413-.188.136-.196.16-.34.22z" clip-rule="evenodd"/><path fill="#585136" fill-rule="evenodd" d="M5.54 6.785s-.067.04-.103.192a.625.625 0 0 0 .071.404c.04.06.128.224.312.232.046 0 .091-.01.133-.028a.899.899 0 0 0 .18-.111c.08-.06.144-.112.136-.117-.02-.008-.489-.396-.489-.396l-.176-.197-.064.021z" clip-rule="evenodd"/><path fill="#453A25" fill-rule="evenodd" d="M5.984 7.429s.095-.008.152-.044c.057-.035-.332-.42-.332-.42l.028.415.152.049z" clip-rule="evenodd"/><path fill="#84754B" fill-rule="evenodd" d="M5.571 6.756s-.048.092-.048.116c-.008.08.016.329.035.408.02.084.125.212.26.212.085 0 .202-.052.202-.065 0-.016-.12-.032-.153-.092a.569.569 0 0 1-.032-.192c-.003-.052-.003-.108.017-.128.043-.049.051-.188.051-.188l.156-.288h-.205l-.244.152-.039.065z" clip-rule="evenodd"/><path fill="#252211" fill-rule="evenodd" d="M5.511 6.845s.16-.212.305-.26c.144-.05.208-.02.208-.02l-.084.215-.12.133.008.068s-.02.18.1.304c.12.124.21.12.261.12.052 0 .2-.044.277-.224.068-.168.125-.384-.011-.6a.491.491 0 0 0-.413-.224c-.045 0-.401.018-.53.487z" clip-rule="evenodd"/><path fill="#F7F7E7" fill-rule="evenodd" d="M9.62 7.565c-.06-.028-.003-.196.056-.248a.426.426 0 0 1 .27-.12c.047-.003.094.028.086.06-.01.06-.095.144-.171.204-.105.083-.173.134-.241.104z" clip-rule="evenodd"/><path fill="#F8F6DE" fill-rule="evenodd" d="M6.383 6.647c.044-.003.1.032.112.08.011.051-.027.155-.112.155-.067 0-.103-.084-.103-.108 0-.02.006-.04.016-.057.003-.005.011-.062.087-.07z" clip-rule="evenodd"/><path fill="#D4C38B" fill-rule="evenodd" d="M5.752 6.684s-.111.052-.163.16a.426.426 0 0 0-.032.256c.008.04.049.141.076.177.028.035.065.06.092.056.028-.003.084-.076.084-.12 0-.043.004-.227.057-.328.047-.1-.113-.2-.113-.2z" clip-rule="evenodd"/><path fill="#E2D59D" fill-rule="evenodd" d="M5.769 6.676c-.02.012-.052.028-.044.049.008.02.076.032.1.08.028.048.028.1.02.124a.22.22 0 0 0 .056-.04c.036-.041.08-.096.117-.096.024 0 .048.011.071.011.036 0 .071-.011.076-.048.008-.049-.068-.093-.112-.084.009-.032.02-.08-.016-.112-.035-.033-.147.024-.171.04-.025.017-.097.076-.097.076z" clip-rule="evenodd"/><path fill="#CBAC5A" fill-rule="evenodd" d="M8.34 10.076l.24-.07.067.048s.049.103.125.116c-.024.052-.088.096-.084.133.003.037.035.065.035.065s-.215.356.209.714c-.1.04-.228.096-.296.128.048.012.152.032.196.072.043.039.043.051.084.076.04.024.064.056.056.07-.027-.015-.12-.064-.135-.019-.017.046-.4.028-.4.028l-.647.125s.024-.065-.044-.125c-.08-.071-.176.003-.28-.076-.136-.104-.14-.223-.184-.269.043-.027.132-.068.344-.096-.008-.016-.035-.064-.02-.108.02-.057.101-.092.077-.16.035-.008.052-.008.14-.12.085-.112.137-.136.201-.144.065-.008.104 0 .224-.112.084-.079.056-.147.056-.147s.055-.018.036-.13v.001z" clip-rule="evenodd"/><path fill="#D6BC6F" fill-rule="evenodd" d="M7.633 10.112c.003-.016.016-.024.103-.016.088.008.641-.052.792-.06.152-.011.687-.003.948.052.26.055.524.12.652.152.128.035.168.048.163.065-.003.016-.032.031-.048.027-.016-.003-.44-.133-.571-.16-.131-.027-.585-.1-.832-.096-.232.003-.324-.003-.52.02-.196.024-.52.056-.616.043-.096-.011-.076-.011-.071-.027z" clip-rule="evenodd"/><path fill="#DFC677" fill-rule="evenodd" d="M8.935 11.38s.332.18.452.4c.087.163-.052.244-.052.244s.188 0 .163.104c-.01.065-.323.24-.532.332-.212.092-.204.087-.307.103-.1.016-.376-.032-.432.049-.057.08-.032.163-.017.176.017.011.148.027.148.027s-.028.077-.3.085c-.271.008-.34.027-.356.056-.016.028.052.012.177.032.124.02.299.032.299.032s-.057.049-.204.088c-.168.043-.432.084-.511.132.04.028.1.068.128.072a.804.804 0 0 0-.18.064c.024.017.057.036.057.036s-.136.163-.215.204c-.08.04-.536.252-.693.212-.392-.104-.44-.533-.536-.565-.144-.048-.212.049-.34-.02.057-.04.088-.064.148-.092-.065-.032-.4-.244-.4-.244a2.775 2.775 0 0 0-.116-.223c-.065-.112-.16-.26-.232-.392-.155-.288-.163-.42-.304-.584.024-.032.108-.027.108-.027l1.18.388 2.092.06.544-.776.231.027z" clip-rule="evenodd"/><path fill="#C4A859" fill-rule="evenodd" d="M5.837 12.565a.161.161 0 0 0 .043.035c.04.028.1.06.141.109.016-.024.057-.068.128 0 .071.068.16.02.215.035.057.02.06.028.06.028s.032-.028.104-.057c.043-.016.095-.027.152-.043.051-.012.108-.028.147-.028.036.024.163.16.676-.04.484-.188.596-.21.677-.18.008-.02.016-.057.14-.052 0-.052-.103-.228-.103-.228l-.571-.196h-.313l-.937.172-.519.296-.04.15v-.001z" clip-rule="evenodd"/><path fill="#927D49" fill-rule="evenodd" d="M5.524 12.236s.012.088.141.18c.128.092.168.147.168.147s.025-.032.044-.065c.02-.035.036-.076.068-.087.065-.027.212.024.244.016.028-.008.02-.064.049-.064.068-.004.111.043.136.043.024 0 .084-.003.092-.016.008-.013.011-.147.103-.212.1-.071.224-.04.256-.024 0 .024.004.084.068.087.065.003.072-.008.128.011.057.02.125-.003.156.093.027-.008.092-.017.076-.109.032-.024.06-.04.128-.136.016-.024.043-.051.065-.087.056 0 .124-.011.215.068-.028.02-.044.032-.052.052a.592.592 0 0 1 .065.076c.024.032.04.071.07.08.069.018.18-.009.305 0 .12.007.22.05.264.078.016-.008.016-.01.056-.003.04.008.072.011.028-.04.024.011.052.035.076.011.024-.024.044-.06.112-.068.068-.008.092.003.12-.068.035-.087-.088-.087-.088-.087s.057-.052.12-.12c.076-.071.163-.163.184-.277.036-.208-.168-.236-.168-.236l-.989.304-1.208-.06-1.031.513z" clip-rule="evenodd"/><path fill="#6E6342" fill-rule="evenodd" d="M4.636 9.38s-.032.04-.052.136c-.02.096-.011.084-.027.152-.017.068-.216.745-.141.973.075.228.204.312.285.497.016.04.032.064.04.1.028.12.004.212.036.332.011.04.04.087.084.136.096.1.253.195.32.263.095.1.231.305.404.324a.59.59 0 0 0 .332-.092c.096-.06.156-.144.256-.192.071-.036.147-.049.215-.065a.96.96 0 0 1 .345-.016c.117.024.392.108.544.108.12-.002.238-.018.353-.048.231-.068.511-.185.696-.237.108-.032.195-.04.284-.06.153-.035.28-.084.353-.176-.048-.056-.108-.144-.432-.14-.367.008-.791.211-1 .244-.209.032-.3.06-.532-.025-.229-.085-.236-.14-.236-.14s-.24-.169-.34-.596c-.101-.428 0-.74.26-1.036.068-.076.052-.144.052-.144s.171-.231.124-.448c-.051-.215-.383-.172-.383-.172l-1.84.322z" clip-rule="evenodd"/><path fill="#39331F" fill-rule="evenodd" d="M4.913 10.1a.168.168 0 0 0-.02.088c.003.043.016.1.147.228.112.111.088.236.088.236s.056.011.209-.06c.12-.057.16.044.16.044a.329.329 0 0 1 .111-.036.231.231 0 0 0 .1-.032s.141.144.264.212c.112.06.177.1.232.06.051-.036.051-.108.048-.14a.443.443 0 0 0-.048-.085c-.036-.052-.093-.112-.096-.16-.008-.111.084-.244.064-.277-.02-.032-.092-.04-.271.025-.186.061-.99-.102-.99-.102h.002z" clip-rule="evenodd"/><path fill="#292311" fill-rule="evenodd" d="M5.337 10.824s-.093-.088-.06-.512c.039 0 .078.004.116.012 0 0 .05.328-.056.5z" clip-rule="evenodd"/><path fill="#252211" fill-rule="evenodd" d="M4.68 9.057a.266.266 0 0 0 .035-.032c-.032.06-.18.299-.06.676.12.375.421.655.792.668.37.013.565-.168.788-.44.087-.108.187-.244.276-.336.133-.145.237-.185.237-.324 0-.285-.292-.413-.72-.54-.43-.128-.816-.112-1.017-.025-.195.095-.28.196-.331.353z" clip-rule="evenodd"/><path fill="#3F3824" fill-rule="evenodd" d="M6.057 10.951l.032-.016s.008-.128.06-.124c.051.008.076.076.07.1-.003.024-.015.065-.067.06-.068.002-.096-.02-.096-.02z" clip-rule="evenodd"/><path fill="#2D2815" fill-rule="evenodd" d="M5.913 10.408s.032-.011.07.027c.033 0 .172-.016.216.012.044.027.057.051.057.051s-.164.036-.253 0c-.09-.03-.09-.09-.09-.09z" clip-rule="evenodd"/><path fill="#82764F" fill-rule="evenodd" d="M6.633 10.432a.41.41 0 0 0-.18-.088c-.016-.003-.02.009-.032.009-.008-.004-.011-.028-.011-.028l-.053.028s-.008.011.02.032c.024.02.065.035.076.068.011.032.011.043.016.048.003.003.06 0 .087-.016.028-.016.08-.043.076-.053z" clip-rule="evenodd"/><path fill="#2D2816" fill-rule="evenodd" d="M5.816 10.76s.016-.111.124-.116c.112-.008.133.1.133.1l-.065.065c0-.002-.048-.07-.192-.048z" clip-rule="evenodd"/><path fill="#574F35" fill-rule="evenodd" d="M6.52 10.28s-.06.065-.193.084c-.011-.016-.036-.049 0-.1.036-.052.076-.068.116-.052.018.003.035.01.048.023a.082.082 0 0 1 .028.045z" clip-rule="evenodd"/><path fill="#82764F" fill-rule="evenodd" d="M6.764 10.36c.003-.017-.008-.02 0-.028s.052-.025.06-.017c.003.004 0 .017 0 .033 0 .015 0 .031-.008.043-.012.016-.044.024-.06.02-.016-.005-.02-.028-.02-.032.008-.004.028-.012.028-.02zm.276-.175c0-.009.028-.025.044-.025.024 0 .024.02.027.024.008.004.008-.003.016.012.008.014.02.04.012.056-.009.017-.04.028-.049.025a.433.433 0 0 1-.05-.092z" clip-rule="evenodd"/><path fill="#6E6342" fill-rule="evenodd" d="M6.484 10.396s.035.008.084.049c-.016.011-.04.024-.04.024s-.004-.037-.044-.073z" clip-rule="evenodd"/><path fill="#585136" fill-rule="evenodd" d="M6.405 10.04c-.009-.007.024-.027.043-.024.02.004.028.017.049.02.02.003.024-.008.032-.016.007-.009.035-.004.04 0l.008.01a.04.04 0 0 1 .005-.017L6.593 10a.067.067 0 0 1 .021-.01c.008 0 .016 0 .023.002.003.011.02.051.016.06-.003.008-.051.019-.06.01.009.02.044.06.049.069.005.008-.036.027-.052.024a.667.667 0 0 1-.186-.113zm.212-.268a.047.047 0 0 0-.017-.02c-.011-.003-.048 0-.048.02s.032.128.068.184c.04.057.068.104.095.117a.039.039 0 0 0 .028.001.034.034 0 0 0 .02-.017.898.898 0 0 0 .009-.21 1.914 1.914 0 0 0-.016-.284c-.008-.008-.04-.008-.052.008a1.726 1.726 0 0 0-.088.2z" clip-rule="evenodd"/><path fill="#574F35" fill-rule="evenodd" d="M6.473 10.6s-.057-.035-.112-.01c-.052.023-.049.119-.049.119a.095.095 0 0 0 .037.005.093.093 0 0 0 .035-.013c.035-.024.08-.065.089-.1z" clip-rule="evenodd"/><path fill="#82764F" fill-rule="evenodd" d="M6.58 10.728c-.004-.032-.033-.032-.033-.048a.039.039 0 0 1 .013-.02.04.04 0 0 1 .023-.008c.016 0 .032.02.052.032.02.011.048.032.051.057.004.024-.032.092-.07.092-.04 0-.028-.073-.036-.105zm.312-.043s-.065.019-.06 0c.004-.02.02-.025.04-.025a.073.073 0 0 1 .04-.02c.01 0 .018.003.025.009 0 0 .044-.02.056-.008.013.011.004.011.012.024.01.015.017.031.02.049 0 .012-.05.04-.088.035-.045-.01-.037-.056-.045-.065zm.377-.073s.019.01.003.024a.27.27 0 0 1-.117.036c-.048 0-.092.008-.092-.009 0-.016.04-.048.065-.056a.042.042 0 0 1 .018-.014.046.046 0 0 1 .022-.006c.02 0 .096-.008.117-.01.02-.004.035.007.024.023-.005.012-.04.012-.04.012zm.111-.5s-.024.052-.051.052c-.028-.003-.028-.012-.028-.02 0-.011.028-.04.024-.048-.008 0-.027 0-.024-.02 0-.016.028-.035.052-.032a.105.105 0 0 1 .064-.024c.028 0 .052.008.052.024s-.032.052-.044.06c-.012.013-.029.022-.045.008zm-.369.956s-.032.004-.032.02c0 .008.008.008.02.003l.02-.003c.002.003.002.02.027.02a.178.178 0 0 0 .056-.02c.02-.008.036-.016.036-.032-.008-.028-.024-.04-.049-.04a.054.054 0 0 0-.035.007s-.008-.016-.036 0c-.027.017-.024.017-.016.025.014.012.01.02.01.02zm-.183.169c0-.008.04-.025.052-.02.012.003.044.065.044.071 0 .008-.04.028-.057.028-.016 0-.043-.028-.043-.032 0-.003.019-.008.019-.011.005-.008-.015-.028-.015-.036zM6.7 11c.009-.003.009-.011.02-.02l.012-.004c.004 0 .008 0 .012.002a.037.037 0 0 1 .012-.013.033.033 0 0 1 .016-.007c.02-.003.035 0 .032.008 0 .025.016.04.016.06 0 .02-.011.044-.052.06a.295.295 0 0 1-.103.008c-.008-.003-.017-.035-.008-.052A.132.132 0 0 1 6.7 11z" clip-rule="evenodd"/><path fill="#6E6342" fill-rule="evenodd" d="M6.752 11.011s-.028.017-.028.025a.093.093 0 0 0-.003.024c0 .005.036-.003.04-.008.002-.003-.009-.032-.009-.04z" clip-rule="evenodd"/><path fill="#585136" fill-rule="evenodd" d="M6.511 10.935c.016.004.044 0 .065.008.016.008.028.025.011.044-.016.02-.032.049-.068.044-.04-.004-.079-.024-.079-.04 0-.011 0-.021.004-.031a.063.063 0 0 1 .016-.026c.016-.013.024-.005.051.001z" clip-rule="evenodd"/><path fill="#574F35" fill-rule="evenodd" d="M6.492 10.951s-.052.04-.065.06c-.016.02-.095.12-.12.141.009-.014.018-.028.028-.04a.163.163 0 0 0-.068.087c-.02.06.108.092.192.117l.117.032a1.107 1.107 0 0 1-.08-.148c-.031-.076-.048-.084-.027-.12.016-.035.04-.06.04-.087-.009-.025-.017-.042-.017-.042z" clip-rule="evenodd"/><path fill="#252211" fill-rule="evenodd" d="M4.647 11.08a.109.109 0 0 0 .036 0c.024-.004.277-.097.54-.08.198.012.394.044.584.096.332.087.745.26 1.012.36.07.027.14.075.192.095.204.079.212.079.332.1.14.02.284-.027.435-.06.184-.04.5-.06.776-.1.09-.013.178-.033.264-.06 0 0-.22.22-.747.3-.214.032-.43.034-.644.007a1.963 1.963 0 0 1-.364-.064c-.096-.028-.292-.1-.533-.16-.168-.044-.356-.076-.571-.117-.53-.097-1.107-.209-1.312-.317z" clip-rule="evenodd"/><path fill="#CFB66C" fill-rule="evenodd" d="M4.052 10.08c-.128.108-.264.211-.397.312l-.4.307c-.135.1-.268.204-.404.304s-.272.196-.416.288c.128-.109.264-.209.4-.308.136-.098.277-.195.408-.295l.4-.308c.137-.1.27-.203.409-.3zm-.707 1.132s.144-.12.323-.288c.224-.209.497-.476.584-.524l-.907.812z" clip-rule="evenodd"/><path fill="#CFB66C" fill-rule="evenodd" d="M3.345 11.212c.07-.071.147-.14.223-.209l.116-.1c.036-.032.077-.068.112-.104.071-.07.141-.147.212-.22a1.57 1.57 0 0 1 .112-.103.304.304 0 0 1 .064-.044c.02-.011.041-.032.068-.036-.016.025-.035.036-.051.057-.02.016-.036.036-.052.052-.036.035-.076.068-.112.1-.076.065-.155.128-.231.196-.076.068-.147.14-.224.209-.082.07-.158.137-.237.202zm.967-.647s-.527.516-.636.6l.636-.6z" clip-rule="evenodd"/><path fill="#CFB66C" fill-rule="evenodd" d="M4.312 10.565a1.589 1.589 0 0 1-.152.155l-.16.152c-.052.052-.1.104-.155.155-.057.049-.109.096-.169.141l.156-.152c.052-.052.108-.095.163-.147l.155-.152c.054-.053.106-.105.162-.152zm.025.28c-.05.135-.106.268-.172.396-.136.272-.34.612-.429.785l.6-1.181z" clip-rule="evenodd"/><path fill="#CFB66C" fill-rule="evenodd" d="M4.337 10.845c0 .06-.017.111-.036.163a2.09 2.09 0 0 1-.145.299c-.027.047-.059.096-.083.144l-.164.288c-.056.096-.111.193-.171.285.04-.103.095-.2.147-.296.057-.096.109-.192.16-.291.025-.05.048-.1.068-.152.024-.052.048-.1.068-.147.024-.052.044-.1.068-.148.027-.05.05-.098.087-.145z" clip-rule="evenodd"/><path fill="#DEC270" fill-rule="evenodd" d="M4.913 12.171s-.16.213-.144.481c.043-.14.098-.356.144-.48zm.152.213s-.057.576-.104.86c.067-.328.08-.3.104-.86zm1.06.893s-.24.704-.245.9c.052-.201.152-.612.245-.9z" clip-rule="evenodd"/><path fill="#CBAF59" fill-rule="evenodd" d="M6.684 12.128s.389.64.68 1.188c-.079-.276-.26-.78-.68-1.188z" clip-rule="evenodd"/><path fill="#E3C677" fill-rule="evenodd" d="M7.728 13.071c.213.377.406.766.576 1.164a1.78 1.78 0 0 0-.576-1.164z" clip-rule="evenodd"/><path fill="#ECD592" fill-rule="evenodd" d="M10.796 14.016c.065-.04.193-.26.304-.316.112-.056.196-.067.296-.18.1-.116.128-.187.348-.28.308-.132.096-.303.096-.303a.972.972 0 0 1 .109-.093c.08-.06.171-.132.163-.26-.011-.215-.052-.528-.228-.709.172-.036.5-.06.704-.111.236-.06.345-.144.345-.144s-.136-.232.084-.465c.22-.233.4-.372.532-.633-.152-.019-.384-.1-.976.125a.71.71 0 0 1 .093.052s-.364.1-.497.212c-.232.196-.26.356-.511.476s-.504.087-.712.184c-.209.097-.24.18-.316.215.016.02-.003.052.028.08-.02.027-.133.211-.248.211.011.044.108.076.108.076s-.07.052-.252.065c.092.096.18.2.42.353-.019.04-.1.1-.067.176.035.076.128.18.497.264-.188.008-.408.052-.704.011-.297-.035-.345-.056-.528-.01.02.018.071.018.117.07-.049.003-.353-.035-.457.1-.108.141-.155.373-.147.528-.057.028-.112.076-.084.176.027.1.171.133.264.196.092.068.1.092.187.076.093-.02.228-.111.308-.111.08 0 .136.06.136.06s.215-.104.236-.085c.02.02.003.144.024.164.021.014.264-.13.329-.17z" clip-rule="evenodd"/><path fill="#fff" fill-opacity=".8" fill-rule="evenodd" d="M15.5 7.54c-1.01-2.61-3.51-3.095-3.51-3.095H4.856l.028 2.66h1.42v5.94H4.856v2.656h6.935c1.672 0 3.012-1.68 3.012-1.68 2.145-3.045.697-6.48.697-6.48zm-3.671 4.691s-.545.785-1.136.785H9.509L9.48 7.112H11s.704.147 1.196 1.54c0 0 .652 1.995-.367 3.58z" clip-rule="evenodd"/></svg>