<svg xmlns="http://www.w3.org/2000/svg" width="13" height="20" fill="none" viewBox="0 0 13 20"><g clip-path="url(#clip0)"><path fill="#282E5B" d="M8.539 6.152C8.539 3.282 7.15.809 6.086 0c0 0-.073-.044-.073.074-.09 5.548-2.91 7.064-4.477 9.08-3.59 4.68-.25 9.801 3.147 10.743 1.906.53-.443-.942-.739-4.032C3.59 12.112 8.54 9.257 8.54 6.152"/><path fill="#059BDC" d="M10.4 8.05c-.015-.015-.044-.015-.074 0l-.015.015c-.059.691-.827 2.193-1.787 3.561-3.265 4.65-1.404 6.888-.355 8.094.606.707 0 0 1.522-.72.118-.06 2.954-1.56 3.265-4.96.31-3.311-1.803-5.387-2.556-5.99"/></g><defs><clipPath id="clip0"><path fill="#fff" d="M0 0h13v20H0z"/></clipPath></defs></svg>