<svg xmlns="http://www.w3.org/2000/svg" width="20" height="20" fill="none" viewBox="0 0 20 20"><path fill="#F9F9F9" fill-rule="evenodd" d="M2.808 9.235l3.074-7.307 8.732 1.006 1.788 5.393-.894 7.46c-1.285 1.38-2.105 2.068-2.459 2.068-.354 0-3.036-.489-8.047-1.467l-2.193-5.421-.001-1.732z" clip-rule="evenodd"/><mask id="a" width="20" height="20" x="0" y="0" maskUnits="userSpaceOnUse"><path fill="#fff" fill-rule="evenodd" d="M0 0h20v20H0V0z" clip-rule="evenodd"/></mask><g mask="url(#a)"><path fill="#005FFA" fill-rule="evenodd" d="M14.19 15.794h-2.129v-3.665c0-.587-.475-1.064-1.062-1.064H7.938A2.128 2.128 0 0 1 5.81 8.937v-4.73h2.128v3.666c0 .587.476 1.064 1.063 1.064h3.06a2.13 2.13 0 0 1 2.128 2.128l.001 4.729zm-6.178 0H5.883V12.22c1.175 0 2.128.952 2.128 2.128l.001 1.446zm3.976-11.588h2.128v3.576a2.128 2.128 0 0 1-2.128-2.128V4.206zM10 0C4.477 0 0 4.478 0 10s4.477 10 10 10 10-4.477 10-10S15.523 0 10 0z" clip-rule="evenodd"/></g></svg>