<svg xmlns="http://www.w3.org/2000/svg" width="20" height="20" fill="none" viewBox="0 0 20 20"><path fill="#18A0B1" d="M18.276 3.448a1.724 1.724 0 1 0 0-3.448 1.724 1.724 0 0 0 0 3.448zM5.02 12.959a5.769 5.769 0 0 1 4.246-8.656 5.77 5.77 0 0 1 3.658.752l1.38-1.38-.07-.054a7.68 7.68 0 0 0-9.692 1.013 7.686 7.686 0 0 0-.901 9.704l1.38-1.38zm9.96-5.842a5.779 5.779 0 0 1-.893 7.012 5.77 5.77 0 0 1-7.011.892L5.696 16.4A7.675 7.675 0 0 0 16.359 5.738l-1.38 1.38zM1.724 20a1.724 1.724 0 1 0 0-3.448 1.724 1.724 0 0 0 0 3.448z"/></svg>