<svg xmlns="http://www.w3.org/2000/svg" width="20" height="20" fill="none" viewBox="0 0 20 20"><path fill="url(#paint0_linear)" d="M10 20c5.523 0 10-4.477 10-10S15.523 0 10 0 0 4.477 0 10s4.477 10 10 10z"/><path fill="#fff" d="M10.69 13.362l-3.931 3.931-1.121-1.207 2.724-2.724-2.828-2.828 1.207-1.206 3.949 4.034zm2.293-2.259l1.207-1.206-2.828-2.828 2.724-2.724-1.12-1.207-3.949 3.931 3.966 4.034zm-5.742-2.24l3.966 4.034 1.207-1.207-3.966-3.966-1.207 1.138z"/><defs><linearGradient id="paint0_linear" x1="-.2" x2="23.2" y1="10" y2="10" gradientUnits="userSpaceOnUse"><stop stop-color="#08BBC9"/><stop offset=".5" stop-color="#12A3CA"/><stop offset="1" stop-color="#149ACA"/></linearGradient></defs></svg>