<svg xmlns="http://www.w3.org/2000/svg" width="20" height="20" fill="none" viewBox="0 0 20 20"><g clip-path="url(#clip0)"><path fill="#fff" d="M10 18.918a8.918 8.918 0 1 0 0-17.837 8.918 8.918 0 0 0 0 17.837z"/><path fill="#345D9D" d="M10 0a10 10 0 1 0 10 10 9.957 9.957 0 0 0-2.9-7.059 9.951 9.951 0 0 0-3.228-2.17A9.919 9.919 0 0 0 10.058 0H10zm.17 10.339l-1.042 3.51h5.57c.036 0 .073.006.108.018a.274.274 0 0 1 .157.148c.015.033.024.07.025.106v.092l-.484 1.67a.367.367 0 0 1-.135.198.368.368 0 0 1-.229.07H5.617l1.429-4.868-1.598.485.363-1.114 1.598-.485 2.01-6.828a.364.364 0 0 1 .363-.265h2.155a.293.293 0 0 1 .202.074.301.301 0 0 1 .064.09c.015.033.023.07.025.106v.092l-1.695 5.763 1.598-.484-.34 1.162-1.622.46z"/></g><defs><clipPath id="clip0"><path fill="#fff" d="M0 0h20v20H0z"/></clipPath></defs></svg>