<svg xmlns="http://www.w3.org/2000/svg" width="21" height="20" fill="none" viewBox="0 0 21 20"><path fill="#000" d="M15.273 2.32c.64 0 1.162-.52 1.162-1.16a1.162 1.162 0 0 0-2.324.003c0 .64.52 1.157 1.162 1.157zm.342 3.015c.263-.002.515-.107.7-.29a.984.984 0 1 0-1.683-.693c0 .544.439.983.983.983zm2.702.384a.98.98 0 1 0-.002-1.962.98.98 0 0 0 .002 1.962zm-.325 2.58a.839.839 0 0 0 0-1.675.839.839 0 1 0 0 1.675zm2.163.836a.844.844 0 1 0-.783-1.164.845.845 0 0 0 .783 1.164zm-4.88-1.185a.854.854 0 0 0 .33-.067.852.852 0 0 0 .53-.789v-.002a.858.858 0 0 0-.86-.858.858.858 0 1 0-.001 1.716zm-.78 2.052a.718.718 0 1 0 .003-1.436h-.003a.719.719 0 1 0-.001 1.436zm2.705.363a.719.719 0 0 0 .715-.713V9.65a.715.715 0 1 0-.722.715h.007zm2.157.833c.399 0 .72-.322.72-.72 0-.4-.321-.721-.72-.721a.72.72 0 0 0-.721.72.705.705 0 0 0 .207.507.73.73 0 0 0 .51.214h.004zm-1.066 1.557a.61.61 0 0 0 .61-.607.61.61 0 0 0-1.219 0c0 .334.272.607.61.607zm-2.166-.82zm-2.703-.38a.63.63 0 0 0 .437-.184.607.607 0 0 0 0-.865.63.63 0 0 0-.436-.184.634.634 0 0 0-.437.184.607.607 0 0 0 0 .865.63.63 0 0 0 .436.184zm1.503 1.463a.536.536 0 0 0 .383-.911.546.546 0 0 0-.379-.159h-.004a.537.537 0 0 0-.385.911c.1.1.236.157.379.159h.006zm2.166.834a.54.54 0 0 0 0-1.081.556.556 0 0 0-.389.158.535.535 0 0 0 0 .765.56.56 0 0 0 .389.158zm-1.22.625a.428.428 0 1 0 0-.855.428.428 0 0 0 0 .855zm-1.156.336a.389.389 0 0 0 .387-.386.388.388 0 0 0-.775-.002v.001a.379.379 0 0 0 .109.27.39.39 0 0 0 .271.117h.008zm-1.013-1.112a.462.462 0 0 0 .462-.46.462.462 0 0 0-.923 0c0 .121.048.237.135.323a.471.471 0 0 0 .326.137zm-1.485-1.054a.536.536 0 1 0 0-1.07.536.536 0 0 0-.538.535c0 .141.056.276.157.376.1.1.238.158.38.159zm4.405 6.7a1.156 1.156 0 1 0 0-.001zm-2.937-1.462a.963.963 0 1 0 .002-1.926.963.963 0 0 0-.002 1.926zM12.008 20a.97.97 0 1 0 0-1.942.97.97 0 0 0-.691 1.654c.182.183.43.286.69.288zm-.505-3.897a.842.842 0 0 0 .324-.066.831.831 0 0 0 .518-.775.821.821 0 0 0-.244-.591.85.85 0 0 0-1.197 0 .833.833 0 0 0-.244.592c0 .462.379.84.843.84zm-1.674 2.144c.464 0 .84-.375.84-.837a.839.839 0 0 0-.84-.837.839.839 0 0 0-.598 1.425c.156.157.37.247.593.249h.005zm-1.804 1.455a.836.836 0 0 0 0-1.67.836.836 0 0 0-.837.835c0 .46.376.835.837.835zm-1.501-1.894a.736.736 0 0 0 .507-.21.714.714 0 0 0-.507-1.215.732.732 0 0 0-.505.213.704.704 0 0 0 0 1c.133.133.315.21.505.212zm1.807-1.461a.727.727 0 0 0 .507-.21.712.712 0 1 0-1.012-1.003.704.704 0 0 0-.002 1 .73.73 0 0 0 .505.213h.002zm1.686-2.143a.728.728 0 0 0 .508-.211.71.71 0 0 0 .207-.502v-.002a.714.714 0 0 0-1.222-.504.697.697 0 0 0-.208.502v.002c0 .395.32.715.715.715zm-2.579.295a.619.619 0 1 0 0-1.238.618.618 0 1 0 0 1.238zM5.64 15.954a.613.613 0 0 0 .615-.611v-.002a.6.6 0 0 0-.177-.431.621.621 0 0 0-.435-.182H5.64a.637.637 0 0 0-.436.18.611.611 0 0 0-.179.431v.002a.606.606 0 0 0 .378.565.623.623 0 0 0 .237.048zm-.413-1.706a.538.538 0 0 0 .377-.156c.1-.1.155-.233.155-.372a.531.531 0 0 0-1.064 0c0 .293.24.528.532.528zm-.015-1.496a.457.457 0 0 0 0-.913.456.456 0 0 0 0 .913zm.25-1.245a.386.386 0 1 0 0-.773.386.386 0 1 0 0 .773zm1.55-.208a.46.46 0 1 0 0-.922.46.46 0 0 0 0 .922zm1.701-.652a.539.539 0 0 0 .538-.535.527.527 0 0 0-.154-.376.549.549 0 0 0-.38-.159h-.004a.539.539 0 0 0-.497.738.539.539 0 0 0 .495.332h.002zm.405 1.697a.612.612 0 0 0 .431-.176.596.596 0 0 0-.001-.849.613.613 0 0 0-1.042.424c0 .16.065.312.179.425a.61.61 0 0 0 .43.176h.003zm-2.084.452a.533.533 0 1 0-.532-.534v.002a.515.515 0 0 0 .151.373.526.526 0 0 0 .375.159h.006zm-5.881-.789c.635 0 1.152-.515 1.152-1.149S1.788 9.71 1.153 9.71C.518 9.71 0 10.225 0 10.86c0 .634.518 1.148 1.153 1.148zm2.616-2.051a.986.986 0 1 0 0-1.972 1 1 0 0 0-.7.29.969.969 0 0 0-.287.694v.002c0 .547.443.986.987.986zm-1.02-2.53c.543 0 .98-.438.98-.98a.982.982 0 0 0-1.962-.001v.002a.962.962 0 0 0 .282.689.992.992 0 0 0 .694.29h.005zM5.27 6.229a.841.841 0 0 0 0-1.68.841.841 0 1 0 0 1.68zm1.031 2.524a.844.844 0 1 0 .002-1.688.844.844 0 0 0-.002 1.688zm2.296-.524c.192-.002.375-.078.51-.213s.21-.317.208-.506a.695.695 0 0 0-.203-.502.713.713 0 0 0-.504-.215.722.722 0 0 0-.671.426.716.716 0 0 0-.059.27v.021a.705.705 0 0 0 .206.505.727.727 0 0 0 .507.214h.006zm1.982.006a.619.619 0 0 0 .621-.616.62.62 0 0 0-.62-.617.636.636 0 0 0-.444.18.615.615 0 0 0 0 .873c.118.115.277.18.443.18zm1.639.371a.52.52 0 1 0 0-1.041.529.529 0 0 0-.371.154.52.52 0 0 0-.153.367c.004.285.236.52.524.52zm.213-1.899c.122 0 .238-.05.323-.134a.449.449 0 0 0 .133-.32.455.455 0 1 0-.779.32.463.463 0 0 0 .323.134zm-1.26-.621a.526.526 0 0 0 .37-.152.515.515 0 0 0-.001-.73.524.524 0 0 0-.37-.15.525.525 0 0 0-.371.15.51.51 0 0 0-.001.73.53.53 0 0 0 .37.152h.003zm-1.62-.377a.628.628 0 0 0 .437-.182.613.613 0 0 0-.436-1.045.615.615 0 0 0-.438 1.045.62.62 0 0 0 .436.182h.002zm-1.979.002a.719.719 0 1 0 .001-1.436.719.719 0 0 0-.511 1.223.729.729 0 0 0 .51.213zM4.907 3.914zM7.2 3.421a.718.718 0 1 0 0-1.437.72.72 0 1 0 0 1.437zm1.982.009a.619.619 0 1 0-.239-1.19.621.621 0 0 0-.382.569v.002c0 .163.064.32.18.435a.637.637 0 0 0 .441.184zm1.627.369a.521.521 0 1 0 0-1.041.535.535 0 0 0-.375.152.516.516 0 0 0 0 .736c.1.098.234.153.375.153zm1.249.638a.47.47 0 0 0 .467-.466.467.467 0 0 0-.934 0c0 .256.21.466.467.466zm.917.732a.396.396 0 0 0 .272-.113.38.38 0 0 0 .001-.54.393.393 0 0 0-.273-.114.377.377 0 0 0-.148.03.38.38 0 0 0-.236.353.388.388 0 0 0 .107.269.4.4 0 0 0 .124.084c.046.02.096.03.147.03h.006z"/></svg>