<svg xmlns="http://www.w3.org/2000/svg" width="18" height="20" fill="none" viewBox="0 0 18 20"><g clip-path="url(#clip0)"><path fill="#050708" d="M18 13.373V6.624a.714.714 0 0 0-.299-.594L9.457.153a.755.755 0 0 0-.595-.14.867.867 0 0 0-.346.162L.33 6.011a.737.737 0 0 0-.329.617C0 8.878 0 11.126.001 13.375a.741.741 0 0 0 .332.617l8.183 5.835c.261.218.67.235.94.023 2.74-1.952 5.478-3.904 8.215-5.857a.719.719 0 0 0 .328-.62"/><path fill="#fff" d="M8.05 1.623c.072-.08.146-.205.273-.188.432.002.866-.007 1.299.004.075.046.132.114.196.172V2.92c-.128.001-.258.007-.386-.002L9.4 2.795c0-.325.029-.65 0-.976h-.953l-.003.33c-.133 0-.268 0-.402-.002 0-.174-.019-.351.007-.524m-1.078.532a6.45 6.45 0 0 1 .44-.002c.001.602.004 1.204-.002 1.806-.14.003-.28.003-.418.002-.047-.6-.01-1.204-.02-1.806m3.721.647c.39-.005.779-.003 1.168 0 .002.138.002.277 0 .416-.39.004-.78.006-1.169 0v-.416m-2.361.205c.157-.003.314-.003.472-.003.15.286.339.552.46.851-.143.007-.288.007-.432.007a31.772 31.772 0 0 1-.5-.855m1.605.503a9.25 9.25 0 0 1 .408-.001c.37.56.73 1.126 1.103 1.685 0 .17 0 .34-.003.51l-.16-.027c-.316-.46-.607-.937-.92-1.399-.005.52.001 1.04-.004 1.56-.142.003-.284.003-.426 0-.001-.776-.004-1.552.002-2.329m1.689.315c.145-.003.29-.003.435.001v.4c-.145.004-.29.004-.434.001a13.468 13.468 0 0 1 0-.402m-7.157.132c.114-.002.228-.002.343 0 .305-.02.609-.015.914.002.001.13 0 .26-.001.388-.451.264-.884.557-1.342.81-.135-.05-.238-.155-.348-.243.3-.178.593-.366.895-.539-.153-.007-.307-.006-.46-.008a14.018 14.018 0 0 1-.001-.41m3.608.154c.14-.005.28-.004.42 0 .004.136.004.273 0 .41-.14.004-.28.004-.42 0a9.34 9.34 0 0 1 0-.41m-2.056.4c.224.332.442.669.67.999.226-.334.445-.673.674-1.005 0 .22.015.442-.004.662-.208.347-.449.675-.672 1.013-.22-.332-.454-.657-.663-.996-.023-.223-.006-.449-.005-.672m6.212.056a226.69 226.69 0 0 1 2.02 0v.4c-.673.002-1.346.002-2.02 0v-.4m-3.566.52c.136-.003.272-.003.408-.001.007.583 0 1.166.003 1.75l-.187.178c-.466.005-.933 0-1.4.002-.061-.057-.124-.112-.18-.174-.023-.179-.006-.361-.006-.54h.39c.004.102.004.205.002.308.321.035.645.01.967.018.002-.514-.003-1.028.003-1.541m6.513 1.723c-.005-.44-.005-.88 0-1.32.14-.004.282-.004.423 0 .005.44.005.88 0 1.32-.14.003-.282.002-.423 0m-2.012-.988c.267-.003.535-.043.8-.001.173.552.322 1.113.495 1.666h-.41c-.13-.428-.241-.862-.376-1.29l-.225.002c-.111.432-.246.858-.361 1.288h-.413c.17-.553.328-1.11.49-1.665m-11.395.211c.614-.004 1.229-.005 1.843 0 .003.137.003.274 0 .412-.615.006-1.229.004-1.844 0-.002-.137-.002-.276.001-.413m2.132.001h.42a9.57 9.57 0 0 1 0 .415c-.14.002-.28.001-.42 0v-.414m1.544.016l.411.001c.005.32.003.641.003.961-.14.001-.279.002-.417 0-.002-.32-.006-.641.003-.962m10.736.288c.157-.003.315-.003.473-.003.156.282.346.55.462.851-.143.005-.288.006-.431.006-.17-.283-.332-.572-.505-.854m-6.215.342h.41c.003.439 0 .877 0 1.316l-.411.002V6.68m1.443.534a14.215 14.215 0 0 1 0-.413 9.57 9.57 0 0 1 .415.002l-.001.411h-.415m-7.801.608c.331-.236.685-.442 1.025-.664.225.002.449 0 .674.003-.334.233-.69.434-1.025.664.345.212.684.433 1.027.647-.231.004-.462.002-.693.002-.334-.22-.68-.424-1.008-.652m11.572-.383c.14-.003.282-.004.425 0 .003.138.003.276-.001.414a9.989 9.989 0 0 1-.424 0 9.477 9.477 0 0 1 0-.413M.636 7.496a136.71 136.71 0 0 1 2.124 0c.002.131.002.262.002.393-.316.203-.632.406-.957.593-.138-.049-.242-.16-.36-.241.176-.108.354-.212.524-.328-.445-.002-.888.003-1.333-.002a14.353 14.353 0 0 1 0-.415m6.057.4c.612.002 1.225-.003 1.837.002.015.136.013.273-.006.409-.61.002-1.22 0-1.83 0-.001-.137-.002-.274-.001-.411zm2.237.002c.148-.003.294-.003.442.002v.402a9.307 9.307 0 0 1-.442.001v-.405m1.927.578c-.02-.141.13-.214.206-.311.18 0 .36-.001.54.002.004.132.004.264.002.397l-.342.004v.94c.53.004 1.058-.001 1.587.004.001.133.001.267-.002.4-.596.004-1.192 0-1.787.002-.076-.097-.222-.17-.204-.311-.002-.375-.002-.751 0-1.127m2.005-.125c.146-.005.293-.005.44 0v.409a6.455 6.455 0 0 1-.44 0v-.41m1.393.001c.617-.008 1.232-.002 1.849-.003l-.001.417c-.616 0-1.231.005-1.847-.003a14.009 14.009 0 0 1 0-.41M5.72 8.83h1.035c.003.14.003.28 0 .42H5.72a5.348 5.348 0 0 1-.001-.42m2.278 0h1.625c.197-.03.394.17.369.359v1.166l-.21.217c-.179 0-.358 0-.537-.002a13.268 13.268 0 0 1 0-.399l.336-.004.001-.917c-.526-.046-1.057-.008-1.585-.021V8.83m-3.818.124c.265-.002.53-.003.794 0 .16.559.332 1.114.484 1.675l-.4.001c-.135-.43-.24-.87-.38-1.298l-.227.016c-.1.431-.243.852-.353 1.282-.137 0-.274 0-.41-.002.163-.558.325-1.117.492-1.674m11.548.504c.46-.004.923-.009 1.383.002.117.07.248.183.223.332 0 .32-.002.641 0 .962-.004.153.003.307-.002.461.008.126-.028.25-.02.375l-.394-.001V9.854c-.321-.008-.643-.002-.965-.004l-.003.323c-.135.002-.27.002-.406.002-.003-.177-.002-.355-.002-.532.063-.06.124-.122.186-.185m-13.128.016h.429v1.317h-.431c.002-.439 0-.878.002-1.317m-1.345.367c.141-.002.282.002.422.012v.39c-.142.002-.283.002-.425 0a8.935 8.935 0 0 1 .003-.401m5.036 2.406c-.004-.776-.004-1.553 0-2.33.139-.002.278-.002.418.001.328.516.666 1.027 1.001 1.539.145.182.058.426.081.638-.048 0-.097 0-.145.002-.301-.467-.616-.926-.905-1.4-.052.515-.009 1.035-.026 1.553-.142.001-.283.001-.424-.002zm1.861-2.031a12.1 12.1 0 0 1 .426-.001c.002.34.002.679 0 1.018a10.13 10.13 0 0 1-.427 0c-.003-.34-.003-.679 0-1.017m2.578.454c.14-.001.279-.002.418 0a9.57 9.57 0 0 1 0 .415h-.418a14.353 14.353 0 0 1 0-.415m1.356.019c.433-.006.867-.003 1.3-.002.018.123.029.249.016.374-.04.081-.139.049-.212.056-.37-.01-.74.021-1.106-.02a9.287 9.287 0 0 1 .002-.409zm1.748.058c.14-.002.28-.011.42.01.014.477.006.955.003 1.433-.14.002-.282.002-.422 0a69.41 69.41 0 0 1 0-1.443m-3.864.282h.41c.001.138.002.275 0 .413-.137.002-.274.002-.41 0v-.413m-6.573.294c.487-.052.979-.011 1.468-.026.126-.002.252.004.377.017.002.138.002.277 0 .416-.615-.001-1.229.003-1.843-.002a13.67 13.67 0 0 1-.002-.405m-2.758.306l.2-.19c.179-.002.356-.002.534.001.002.131.002.263.001.394l-.331.004c.002.313-.002.625.002.938.524.002 1.048-.003 1.571.003.003.129.003.257.002.386l-.39.001c-.464-.004-.93.008-1.394-.005a.445.445 0 0 1-.19-.194c-.013-.446-.002-.892-.005-1.338m10.863.26c.07-.064.14-.128.213-.19.452.003.905 0 1.358.001.068.064.136.128.205.19v1.312c-.138.001-.276 0-.414-.003 0-.368-.003-.735.002-1.103h-.951c0 .112 0 .223-.003.335-.136.002-.272.002-.407.002-.005-.181-.004-.362-.003-.544m2.908.772c.502-.32 1.01-.63 1.516-.942.121.079.24.161.358.244l-1.093.678c.535.006 1.07 0 1.606.003v.417c-.796.002-1.59.002-2.386 0a13.334 13.334 0 0 1 0-.4m-5.686.079c.504-.327 1.024-.63 1.528-.958.12.08.238.163.36.24-.348.239-.718.447-1.073.678.531.009 1.063-.001 1.595.005a7.67 7.67 0 0 1 0 .429c-.796.004-1.592.001-2.388.001-.02-.13-.02-.263-.022-.395m-5.233-.353c.222.33.443.66.662.991.235-.327.445-.67.677-.998.005.222.001.445.003.667-.231.331-.443.675-.681 1.001-.22-.328-.434-.66-.663-.982a15.37 15.37 0 0 1 .002-.679m2.425.847a4.261 4.261 0 0 1 .003-.423c.139-.002.279-.001.418.01.003.137.003.275 0 .413h-.42m1.97.204c.141-.002.283-.002.424 0 .003.512 0 1.025.002 1.538-.1.004-.2.009-.3.018l-.13-.023c.004-.51-.002-1.022.004-1.533m2.92.321c.267-.005.533-.001.799-.003l.49 1.675c-.137 0-.275 0-.412-.003-.116-.427-.243-.85-.362-1.277l-.223-.01-.368 1.29-.412-.001a72.08 72.08 0 0 0 .488-1.67m-6.036.924c.508-.318 1.014-.637 1.528-.944.119.08.238.16.355.243-.368.223-.729.458-1.1.675.538.01 1.078-.001 1.617.007.002.138.003.276-.001.414-.799.003-1.598.006-2.396-.001a8.633 8.633 0 0 1-.002-.394m4.189-.843a3.14 3.14 0 0 0 .444-.026c.174.28.38.557.47.876l-.417.002c-.164-.285-.33-.57-.497-.852m5.87.171c.146-.005.292-.005.437-.002v.408c-.145.003-.29.003-.436-.003a13.535 13.535 0 0 1 0-.403m-1.071 1.085c.176-.276.364-.543.54-.819.006.204.01.41.004.614.005.077-.052.136-.089.198-.195.281-.381.567-.573.85-.23-.335-.452-.673-.68-1.01-.001-.224-.003-.448.003-.671.223.326.434.661.662.984.065-.026.094-.094.134-.146m-10.82-.397c.373-.012.746-.006 1.12-.003.002.134.01.27-.007.404-.37.018-.742.01-1.112.003-.002-.135-.002-.27 0-.404m4.543.879c.598-.008 1.195 0 1.793-.004l.205.201c-.003.445-.002.891-.001 1.337-.06.061-.12.123-.178.185-.192.004-.383.005-.574 0 .002-.127-.014-.255.017-.379.108-.01.216-.007.325-.008v-.935c-.529-.003-1.059.006-1.588-.005v-.392m-2.869.149c.14-.002.279-.002.419 0 .002.137.002.273 0 .41a14.7 14.7 0 0 1-.42 0 14.009 14.009 0 0 1 0-.41m7.394.22c.158-.13.302.087.438.15v.049c-.354.222-.716.433-1.062.666l.2-.001c.107 0 .214.001.321.004v.409c-.436.006-.871.004-1.306 0-.01-.128-.01-.257-.012-.385.465-.31.95-.59 1.42-.892m-6.607.378c.565-.002 1.13-.005 1.696.001v.408c-.566.008-1.131.005-1.697.002a14.078 14.078 0 0 1 0-.411m1.507 1.047c.16-.002.318-.002.478.001.147.286.343.55.456.851-.143.008-.285.008-.427.009-.175-.284-.338-.575-.507-.861zm2.822.435c.139-.001.278 0 .417.01.002.135.001.271-.016.407H9.73a8.3 8.3 0 0 1-.003-.417m-.968 1.349c0-.317-.008-.634.005-.95.14 0 .28.007.42.02.002.31.002.62 0 .93-.142.003-.284.003-.425 0"/></g><defs><clipPath id="clip0"><path fill="#fff" d="M0 0h18v20H0z"/></clipPath></defs></svg>