<svg xmlns="http://www.w3.org/2000/svg" width="20" height="20" fill="none" viewBox="0 0 20 20"><g clip-path="url(#clip0)"><path fill="#141414" d="M2.558 9.626a1.065 1.065 0 0 1-.664.983 1.08 1.08 0 0 1-.621.06 1.07 1.07 0 0 1-.846-.834 1.062 1.062 0 0 1 .458-1.092 1.084 1.084 0 0 1 1.357.132c.203.199.316.47.316.751zm17.093 0a1.058 1.058 0 0 1-.664.983c-.196.08-.413.102-.621.06a1.069 1.069 0 0 1-.846-.835 1.058 1.058 0 0 1 .458-1.092 1.08 1.08 0 0 1 1.356.134c.202.199.315.469.315.75h.002zm-8.546 4.196a1.07 1.07 0 0 1-.664.983 1.093 1.093 0 0 1-1.172-.23 1.053 1.053 0 0 1 .163-1.637 1.085 1.085 0 0 1 1.358.132c.201.2.315.47.315.752zM6.802 11.75a1.067 1.067 0 0 1-.664.982 1.082 1.082 0 0 1-1.467-.775 1.058 1.058 0 0 1 .458-1.092 1.083 1.083 0 0 1 1.358.133c.202.199.315.47.315.752zm8.547 0a1.057 1.057 0 0 1-.663.984 1.085 1.085 0 0 1-1.173-.229 1.064 1.064 0 0 1-.295-.546c-.042-.206-.02-.42.062-.615a1.075 1.075 0 0 1 .995-.655c.285 0 .557.112.759.311.2.199.314.468.315.75zm-13.14 1.094a.717.717 0 0 1-.449.664.736.736 0 0 1-.792-.157.716.716 0 0 1-.157-.783.719.719 0 0 1 .672-.442.736.736 0 0 1 .514.21.718.718 0 0 1 .212.508zm17.093 0a.717.717 0 0 1-.449.664.736.736 0 0 1-.792-.157.716.716 0 0 1-.157-.783.719.719 0 0 1 .672-.442c.192 0 .377.075.514.21a.713.713 0 0 1 .212.508zm-8.546 4.252a.724.724 0 0 1-.449.665.735.735 0 0 1-.792-.156.71.71 0 0 1 .111-1.106.733.733 0 0 1 .917.09.713.713 0 0 1 .213.507zM6.454 14.97c0 .142-.043.28-.123.399a.73.73 0 0 1-1.317-.259.71.71 0 0 1 .31-.738.732.732 0 0 1 1.075.323c.036.087.055.18.055.275zm8.546 0a.723.723 0 0 1-.121.4.736.736 0 0 1-.746.306.72.72 0 0 1-.531-.98.73.73 0 0 1 1.185-.233.719.719 0 0 1 .213.507zm-13.14.403a.377.377 0 0 1-.453.369.382.382 0 0 1-.299-.295.366.366 0 0 1 .022-.217.383.383 0 0 1 .62-.122c.07.07.11.166.11.265zm17.093 0a.377.377 0 0 1-.063.209.385.385 0 0 1-.585.057.375.375 0 0 1 .269-.641c.1 0 .197.04.268.11a.37.37 0 0 1 .111.265zm-8.546 4.254a.378.378 0 0 1-.454.368.382.382 0 0 1-.299-.295.375.375 0 0 1 .372-.449.377.377 0 0 1 .38.376zM6.105 17.5a.378.378 0 0 1-.454.369.382.382 0 0 1-.299-.295.37.37 0 0 1 .162-.386.383.383 0 0 1 .48.047c.07.07.11.166.11.265zm8.546 0a.37.37 0 0 1-.234.347.385.385 0 0 1-.414-.081.375.375 0 0 1 .268-.641.376.376 0 0 1 .38.375zM11.453 1.437c0 .284-.085.562-.245.798a1.456 1.456 0 0 1-1.493.611 1.441 1.441 0 0 1-1.142-1.129A1.433 1.433 0 0 1 9.192.242a1.467 1.467 0 0 1 1.835.179c.273.27.426.635.426 1.016zm0 4.25c0 .285-.085.563-.245.799a1.471 1.471 0 0 1-1.493.611 1.466 1.466 0 0 1-.744-.394 1.423 1.423 0 0 1 .221-2.211 1.466 1.466 0 0 1 1.835.179c.273.27.426.635.426 1.016zm0 4.196c0 .285-.085.562-.245.799a1.471 1.471 0 0 1-1.493.611 1.466 1.466 0 0 1-.744-.394 1.423 1.423 0 0 1 .221-2.211 1.467 1.467 0 0 1 1.836.18 1.428 1.428 0 0 1 .425 1.017v-.002zM20 5.687c0 .285-.085.562-.245.799a1.457 1.457 0 0 1-1.492.611 1.462 1.462 0 0 1-.744-.394 1.42 1.42 0 0 1-.316-1.565 1.44 1.44 0 0 1 .536-.645 1.464 1.464 0 0 1 1.835.178c.273.27.426.635.426 1.016zm-17.093 0c0 .285-.084.563-.244.8a1.46 1.46 0 0 1-2.635-.516 1.42 1.42 0 0 1 .082-.83c.11-.263.297-.488.536-.646a1.465 1.465 0 0 1 1.835.178c.272.269.426.634.426 1.014zM7.21 3.561a1.433 1.433 0 0 1-.895 1.329 1.463 1.463 0 0 1-1.585-.309 1.42 1.42 0 0 1-.317-1.565c.11-.263.296-.488.534-.646a1.462 1.462 0 0 1 1.835.177c.273.27.426.635.426 1.016l.002-.002zM7.207 7.76c0 .284-.085.562-.245.798-.16.236-.387.42-.652.53a1.471 1.471 0 0 1-1.584-.312 1.426 1.426 0 0 1 .22-2.211 1.465 1.465 0 0 1 1.835.178c.273.27.426.635.426 1.017zm8.549-4.196c0 .284-.085.562-.245.799a1.457 1.457 0 0 1-1.492.611 1.462 1.462 0 0 1-.744-.394 1.423 1.423 0 0 1 .22-2.21 1.465 1.465 0 0 1 1.835.178c.273.27.426.635.426 1.016zm0 4.196c0 .284-.085.562-.245.798-.16.236-.387.42-.652.53a1.471 1.471 0 0 1-1.584-.312 1.426 1.426 0 0 1 .22-2.211 1.464 1.464 0 0 1 1.835.178c.273.27.426.635.426 1.017"/></g><defs><clipPath id="clip0"><path fill="#fff" d="M0 0h20v20H0z"/></clipPath></defs></svg>