<svg xmlns="http://www.w3.org/2000/svg" width="23" height="20" fill="none" viewBox="0 0 23 20"><g clip-path="url(#clip0)"><path fill="#5F45BA" d="M6.15 1.938a1.312 1.312 0 0 1-1.783.448A1.273 1.273 0 0 1 3.912.628 1.313 1.313 0 0 1 5.695.18c.617.362.82 1.149.454 1.758zm-4.441-.569a.928.928 0 0 1-1.26.316A.9.9 0 0 1 .13.443.927.927 0 0 1 1.39.127c.436.256.58.812.32 1.242zM14.07 19.928c4.765-.552 8.598-4.393 8.91-9.282.352-5.5-3.886-10.241-9.466-10.587a10.364 10.364 0 0 0-1.961.066c-1.34.107-2.474.612-2.474.612-.917.442-1.51 1.181-1.51 2.17 0 1.286 1.057 2.329 2.361 2.329.219 0 .973-.236 1.153-.297a5.473 5.473 0 0 1 2.136-.287 5.46 5.46 0 0 1 4.43 2.763c.506.898.74 1.92.673 2.944-.19 2.965-2.78 5.218-5.79 5.031a5.47 5.47 0 0 1-4.212-2.408c-1.09-1.406-.838-3.654-.84-3.683-.044-1.25-1.083-2.25-2.361-2.25a2.36 2.36 0 0 0-2.282 1.723c-.053.195-.08.767-.072.842-.226 5.406 3.97 10.024 9.474 10.366.611.037 1.223.02 1.83-.052zM4.794 5.498a1.698 1.698 0 0 1-2.311.58 1.65 1.65 0 0 1-.589-2.279 1.7 1.7 0 0 1 2.312-.58c.8.47 1.063 1.49.588 2.279z"/></g><defs><clipPath id="clip0"><path fill="#fff" d="M0 0h23v20H0z"/></clipPath></defs></svg>