<svg xmlns="http://www.w3.org/2000/svg" width="20" height="20" fill="none" viewBox="0 0 20 20"><path fill="url(#paint0_linear)" d="M10 20c5.523 0 10-4.477 10-10S15.523 0 10 0 0 4.477 0 10s4.477 10 10 10z"/><path fill="#fff" d="M5.625 5.813l1.063-.563.125.25 3.875-2.25-.25-.188-.313-.187L10 2.812 3.625 6.5v.125l1.813-1 .187.188zm0 2.375l3.063-1.813.124.25 3.938-2.25-.313-.188-.312-.125L12 4 3.625 8.813v.124l1.813-1 .187.25zm0 1.124L9.688 7l.124.188 3.938-2.25-.313-.125-.312-.188L13 4.562 3.625 9.938v.188l1.813-1.063.187.25zm0 1.126l5.063-2.876.124.188 3.938-2.188-.313-.187-.312-.188L14 5.125l-10.375 6v.125l1.813-1 .187.188zm0 1.187l6.063-3.5.124.25 3.938-2.25-.313-.188-.25-.125L15 5.688 3.625 12.25v.188l1.813-1.063.187.25zm10.5-5.25L16 6.25 3.625 13.438v.124l1.813-1 .187.25 6.063-3.562.124.25 4.563-2.563V6.5l-.25-.125zM4.437 14.313l1-.626.125.25 6.125-3.5.126.25 4.562-2.624V7.25L4.25 14.188l.188.124zm7.25-2.688l.126.25 4.562-2.688v-.812L5.25 14.813l.188.062 1-.625.187.25 5.063-2.875zm-5.25 3.813l1.063-.563.125.25 4.063-2.375.124.25 4.563-2.625v-.813L6.25 15.375l.188.063zm1 .562l1.063-.563.125.25 3.063-1.75.124.25 4.563-2.624v-.876l-9.125 5.25.188.063zm.813.5l.188.125L9.5 16l.125.25 2.063-1.188.124.25 4.563-2.624v-.813L8.25 16.5zm1.188.688l1-.625.187.25 1.063-.563.124.25 4.563-2.625V13l-7.063 4.125.126.063zM11.75 3.813l-.313-.188-.312-.125L11 3.375l-7.375 4.25v.188L5.438 6.75l.187.25 2.063-1.188.125.25 3.937-2.25z"/><defs><linearGradient id="paint0_linear" x1="0" x2="20" y1="10" y2="10" gradientUnits="userSpaceOnUse"><stop stop-color="#001C3A"/><stop offset=".6" stop-color="#001E3D"/><stop offset=".7" stop-color="#001F3F"/><stop offset="1" stop-color="#002042"/></linearGradient></defs></svg>