<svg xmlns="http://www.w3.org/2000/svg" viewBox="0 0 129 126"><path d="M112.5 69.6c0-10.9-5.7-17.3-15.2-21.1l-9.6-3.8C80.8 42 76.1 40.4 76.1 36c0-4 3.4-6.3 9.1-6.3 6 0 10.8 2.1 15.8 5.9l9.2-11.6c-6.7-6.7-16.1-10.1-25-10.1-14.6 0-25.4 8.3-27.5 19.3l5.7 18.7 26.1 11.3c4.5 1.9 6.6 7.2 4.6 11.7-1.9 4.5-7.2 6.6-11.7 4.6l-12.2-5.3 5.8 19c2.4.4 4.7.6 7 .6 18.7-.1 29.5-11.3 29.5-24.2z" fill="#366fb6"/><path d="M42 62.9c-4.5-1.9-6.6-7.2-4.6-11.7s7.2-6.6 11.7-4.6l12.3 5.3-5.7-18.7c-2.7-.6-5.5-1-8.3-1-16.3 0-27.9 10.3-27.9 23.3 0 11.2 7.6 17.9 15.6 21.1l9.8 4.1c6.6 2.8 10.9 4.2 10.9 8.7 0 4.1-3.2 6.7-10 6.7-6.1 0-13.2-3.2-18.6-7.9L16.5 101c8 7.3 18.7 11.1 28.7 11.1 16.1 0 26.3-8.4 28.8-19l-5.8-19L42 62.9z" fill="#163559"/></svg>