<svg xmlns="http://www.w3.org/2000/svg" width="20" height="20" fill="none" viewBox="0 0 20 20"><path fill="#00FFAD" d="M14.126 7.46a.371.371 0 0 1-.262.11h-9.29c-.328 0-.494-.4-.266-.638l1.524-1.578a.373.373 0 0 1 .266-.114h9.324c.33 0 .496.404.262.642L14.126 7.46zm0 7.052a.378.378 0 0 1-.262.108h-9.29a.366.366 0 0 1-.266-.622l1.524-1.54c.07-.07.166-.11.266-.11h9.324c.33 0 .496.394.262.626l-1.558 1.538zm-.262-5.718a.37.37 0 0 1 .262.108l1.558 1.54c.234.23.068.626-.262.626H6.098c-.1 0-.196-.04-.266-.11l-1.524-1.54a.365.365 0 0 1 .266-.622l9.29-.002z"/><path fill="#000" d="M10 0c5.522 0 10 4.478 10 10s-4.478 10-10 10S0 15.522 0 10 4.478 0 10 0z"/><path fill="url(#paint0_linear)" fill-rule="evenodd" d="M4.624 9.046h9.254c.116 0 .226.046.306.128l1.464 1.474a.432.432 0 0 1-.306.736H6.088a.426.426 0 0 1-.306-.128L4.318 9.782a.431.431 0 0 1 .306-.736zm-.306-1.954l1.464-1.474a.433.433 0 0 1 .306-.128h9.252c.384 0 .578.464.306.736L14.184 7.7a.433.433 0 0 1-.306.128H4.624a.431.431 0 0 1-.306-.736zm11.328 6.246l-1.464 1.474a.433.433 0 0 1-.306.128H4.624a.431.431 0 0 1-.306-.736l1.464-1.474a.433.433 0 0 1 .306-.128h9.252c.384 0 .578.464.306.736z" clip-rule="evenodd"/><defs><linearGradient id="paint0_linear" x1="4.85" x2="15.114" y1="15.347" y2="5.083" gradientUnits="userSpaceOnUse"><stop stop-color="#CB4EE8"/><stop offset="1" stop-color="#10F4B1"/></linearGradient></defs></svg>