<svg xmlns="http://www.w3.org/2000/svg" width="20" height="20" fill="none" viewBox="0 0 20 20"><g fill="#2683FF" clip-path="url(#clip0)"><path d="M2.845 13.601a.549.549 0 0 0-.387.934.556.556 0 0 0 .28.15.552.552 0 0 0 .654-.537.6.6 0 0 0-.071-.273.561.561 0 0 0-.476-.274zM10.57 1.702a.549.549 0 0 0-.653-.536.541.541 0 0 0-.28.15.541.541 0 0 0-.119.596.55.55 0 0 0 .505.337.547.547 0 0 0 .547-.547zm6.67 4.746a.548.548 0 1 0-.001 0zM3.1 5.398a.536.536 0 0 0-.74.203.536.536 0 0 0 .202.74c.265.15.591.063.74-.202a.54.54 0 0 0-.202-.741zm14.36 8.309a.594.594 0 0 0-.273-.08.566.566 0 0 0-.392.158.543.543 0 0 0-.12.6.558.558 0 0 0 .3.297.57.57 0 0 0 .212.04c.194 0 .37-.107.476-.274a.54.54 0 0 0-.203-.741zm-7.982 4.56a.557.557 0 0 0 .52.608.575.575 0 0 0 .564-.467.54.54 0 0 0-.459-.612.545.545 0 0 0-.617.453c-.004.005-.008.011-.008.018"/><path d="M17.998 12.701a1.511 1.511 0 0 0-.203-.097V7.497c.08-.026.159-.07.238-.106a1.71 1.71 0 0 0 .662-2.32 1.709 1.709 0 0 0-2.32-.661c-.07.035-.133.08-.194.123l-4.499-2.602c.01-.079.018-.15.018-.229C11.7.758 10.933 0 9.998 0c-.935 0-1.72.776-1.72 1.711 0 .08.009.15.018.23L3.832 4.524a1.681 1.681 0 0 0-1.266-.349 1.695 1.695 0 0 0-1.434 1.256 1.72 1.72 0 0 0 .18 1.302c.115.194.267.364.448.499.062.044.123.088.194.132.072.044.149.08.23.106v5.098a1.7 1.7 0 1 0 1.269 3.158c.08-.027.15-.07.22-.106.071-.044.142-.088.212-.141l4.42 2.549c-.15.926.485 1.8 1.41 1.95.927.15 1.8-.486 1.95-1.412.018-.097.018-.185.018-.282a2.243 2.243 0 0 0-.018-.247l4.393-2.532c.07.053.14.106.22.15.82.459 1.861.168 2.32-.652.44-.82.176-1.826-.6-2.303zm.309 2.135a1.308 1.308 0 0 1-1.782.467 1.299 1.299 0 0 1-.609-1.42l-2.064-1.208a2.296 2.296 0 0 1-2.496.52c-.308.097-.97.159-.97.159v3.634c.724.22 1.12.988.9 1.71a1.365 1.365 0 0 1-1.71.9c-.01 0-.019-.008-.027-.008-.062-.018-.115-.044-.168-.07a1.366 1.366 0 0 1-.609-1.835 1.4 1.4 0 0 1 .82-.697v-3.705a6.197 6.197 0 0 1-.758-.29 2.736 2.736 0 0 1-2.258-.557l-2.461 1.42a1.314 1.314 0 0 1-.506 1.365 1.312 1.312 0 0 1-1.454.056 1.308 1.308 0 0 1 .381-2.39 1.31 1.31 0 0 1 1.2.317l2.302-1.332a2.759 2.759 0 0 1 .3-3.546l-2.62-1.5a1.29 1.29 0 0 1-1.835-.06 1.301 1.301 0 0 1 .062-1.844 1.29 1.29 0 0 1 1.835.061c.3.318.414.759.317 1.182L7 7.832c.38-.204.803-.316 1.235-.326.406-.335 1.446-.68 1.446-.68V2.859a1.212 1.212 0 1 1 .706-2.32 1.216 1.216 0 0 1 0 2.329v3.89s1.905.476 2.505 1.19l3.087-1.755a1.308 1.308 0 1 1 1.57.98 1.315 1.315 0 0 1-1.191-.327l-3.051 1.728c.088.186.167.37.22.565a2.298 2.298 0 0 1 .776 2.91l2.02 1.174a1.289 1.289 0 0 1 1.535-.168c.608.362.82 1.156.45 1.782z"/><path d="M12.618 9.826l-.027-.203a.968.968 0 0 0-.035-.141c0-.018-.009-.035-.009-.053-.018-.053-.035-.115-.053-.168v-.008a2.331 2.331 0 0 0-.661-.944l-.01-.009a1.09 1.09 0 0 0-.167-.123l-.009-.01c-.053-.035-.114-.079-.167-.105l-.009-.009a1.7 1.7 0 0 0-.176-.088l-.018-.009c-.062-.026-.123-.053-.194-.08l-.009-.008c-.07-.018-.132-.044-.203-.053h-.008a1.704 1.704 0 0 0-.212-.035h-.009a2.171 2.171 0 0 0-1.111.132l-.045.035c-.052.018-.14.062-.194.089a.402.402 0 0 1-.088.044c-.026.008-.07.044-.097.061a3.798 3.798 0 0 0-.123.089l-.027.017c-.053.035-.097.08-.15.124l-.044.044c-.053.053-.097.097-.14.15a1.896 1.896 0 0 0-.318-.027c-.036 0-.062 0-.089.009a1.745 1.745 0 0 0-1.093.459c-.15.132-.274.3-.37.476l-.01.018c-.027.051-.05.104-.07.159-.01.017-.01.026-.018.044a.885.885 0 0 0-.044.141c-.009.018-.009.044-.018.062l-.026.14c0 .018-.009.036-.009.063a1.707 1.707 0 0 0 .001.37c0 .018.008.035.008.062.009.035.009.07.018.105.008.036.008.045.017.071.01.025.016.052.018.08 0 .026.017.052.026.079a.376.376 0 0 0 .027.062.848.848 0 0 1 .035.088c.009.017.018.026.018.044.124.29.333.536.6.705.132.08.264.15.405.194.055.02.111.034.168.045l.017.008.16.027.035.009c.061.008.123.008.194.008.238 0 .467-.044.679-.14.053.035.097.07.15.105l.017.009c.044.026.097.053.15.08h.009a2.28 2.28 0 0 0 1.632.167h.009a.989.989 0 0 0 .229-.08l.238-.105c.227.177.506.273.794.273.062 0 .114-.009.176-.009l.044-.008a1.183 1.183 0 0 0 .327-.097l.026-.01c.053-.026.097-.052.15-.079.22-.14.388-.353.485-.59.036-.08.053-.16.07-.239v-.026c.01-.036.01-.07.018-.106 0-.044.01-.088.01-.132 0-.582-.362-1.085-.9-1.253"/></g><defs><clipPath id="clip0"><path fill="#fff" d="M0 0h20v20H0z"/></clipPath></defs></svg>