<svg xmlns="http://www.w3.org/2000/svg" width="20" height="20" fill="none" viewBox="0 0 20 20"><path fill="#211F6D" fill-rule="evenodd" d="M10 0c5.522 0 10 4.478 10 10s-4.478 10-10 10S0 15.522 0 10 4.478 0 10 0z" clip-rule="evenodd"/><path fill="#fff" fill-rule="evenodd" d="M6.58 5.18h6.66a1.6 1.6 0 0 1 1.6 1.6v6.66c0 .774-.626 1.4-1.4 1.4H6.58c-.774 0-1.4-.626-1.4-1.4V6.58c0-.774.626-1.4 1.4-1.4z" clip-rule="evenodd"/><path fill="#211F6D" d="M7.726 9.216a1.107 1.107 0 0 1 0-2.216 1.107 1.107 0 0 1 0 2.216zm4.548 0a1.107 1.107 0 0 1 0-2.216 1.107 1.107 0 0 1 0 2.216zM7.726 13a1.107 1.107 0 0 1 0-2.216 1.107 1.107 0 0 1 0 2.216zm4.548 0a1.107 1.107 0 0 1 0-2.216 1.107 1.107 0 0 1 0 2.216z"/></svg>