<svg xmlns="http://www.w3.org/2000/svg" width="20" height="20" fill="none" viewBox="0 0 20 20"><path fill="url(#paint0_linear)" d="M10 20c5.523 0 10-4.477 10-10S15.523 0 10 0 0 4.477 0 10s4.477 10 10 10z"/><path fill="#fff" fill-rule="evenodd" d="M9.638 3.607a2.55 2.55 0 0 0-1.529.75c-.306.304-.597.616-.907.922-.156.16-.313.315-.47.472-.157.158-.33.325-.493.49-.164.165-.3.31-.45.464l-.708.71c-.181.187-.358.38-.537.567-.106.112-.22.215-.319.332a2.806 2.806 0 0 0-.632 1.891c.008.372.106.736.284 1.063.102.197.22.385.352.563.088.123.152.121.267.026a.501.501 0 0 0 .062-.06c.113-.12.224-.239.34-.358.163-.171.33-.342.494-.516.163-.173.34-.364.511-.543.082-.088.169-.169.251-.255.175-.185.346-.376.521-.559.175-.183.353-.354.524-.533.171-.18.382-.398.575-.597.193-.2.356-.366.535-.55.233-.24.46-.487.69-.728.144-.147.291-.289.434-.434.2-.199.384-.398.58-.597.195-.199.34-.332.507-.503.374-.378.747-.758 1.12-1.14a.945.945 0 0 0 .067-.075c.092-.116.1-.142-.014-.223a3.513 3.513 0 0 0-.553-.359 2.586 2.586 0 0 0-1.101-.244h-.02c-.126 0-.253.008-.38.023l-.002-.002v.003zm3.293 2.45h-.024a1.117 1.117 0 0 0-.857.398l-.06.06-.609.597-.623.625c-.173.173-.346.342-.517.516-.171.173-.354.366-.54.547l-.573.557-.678.685-1.262 1.262-1.67 1.675c-.107.106-.11.12 0 .233.267.27.538.537.796.809.16.17.371.282.601.32.217.044.441.036.655-.022A.998.998 0 0 0 8 14.09l.66-.638c.156-.149.313-.296.466-.447.307-.304.61-.61.916-.91.248-.246.503-.488.756-.733l1.036-1.01c.322-.316.647-.635.973-.951a.217.217 0 0 1 .087-.075.223.223 0 0 1 .114-.018.22.22 0 0 1 .106.043c.03.024.054.055.068.092a1.454 1.454 0 0 1 .247.972 1.37 1.37 0 0 1-.348.797c-.239.257-.493.5-.741.746-.177.175-.358.347-.536.524-.229.227-.454.457-.682.684-.034.038-.066.078-.102.114l-.224.233c-.169.168-.34.332-.506.5-.166.17-.356.367-.533.552-.016.018-.034.03-.05.045-.199.185-.382.371-.57.558-.09.087-.176.177-.264.264-.15.154-.306.304-.451.46-.09.094-.09.151.016.225.173.133.358.25.551.352a2.775 2.775 0 0 0 1.538.219 2.521 2.521 0 0 0 1.394-.635c.294-.259.557-.55.831-.828.2-.199.398-.412.611-.617l.575-.579c.176-.177.349-.354.526-.53.177-.174.398-.383.597-.58.199-.198.398-.398.597-.61.159-.16.305-.334.438-.517.248-.375.404-.804.452-1.251a2.781 2.781 0 0 0 0-.67 2.786 2.786 0 0 0-.42-1.108 3.206 3.206 0 0 0-.557-.64 116.54 116.54 0 0 1-1.64-1.658A1.251 1.251 0 0 0 13 6.048h-.008l-.06.009z" clip-rule="evenodd"/><defs><linearGradient id="paint0_linear" x1="1.363" x2="17.412" y1="4.196" y2="15.177" gradientUnits="userSpaceOnUse"><stop stop-color="#FF3B3B"/><stop offset="1" stop-color="#FF9914"/></linearGradient></defs></svg>