<svg xmlns="http://www.w3.org/2000/svg" width="20" height="20" fill="none" viewBox="0 0 20 20"><g clip-path="url(#clip0)"><path fill="#FF060A" d="M19.234 6.025C18.297 5.159 17 3.838 15.944 2.9l-.063-.044a1.182 1.182 0 0 0-.347-.193C12.988 2.188 1.134-.028.904 0a.446.446 0 0 0-.183.069l-.06.047A.723.723 0 0 0 .5.378l-.016.04v.257C1.82 4.391 7.088 16.562 8.125 19.419c.063.194.181.562.403.581h.05c.119 0 .625-.669.625-.669s9.05-10.975 9.966-12.143c.118-.144.223-.3.312-.463a.756.756 0 0 0-.247-.7zm-7.709 1.278L15.387 4.1l2.266 2.088-6.128 1.115zm-1.5-.21l-6.65-5.45 10.76 1.985-4.11 3.466zm.6 1.429l6.806-1.097L9.65 16.8l.975-8.278zM2.472 2.188l6.997 5.937-1.013 8.681L2.472 2.188z"/></g><defs><clipPath id="clip0"><path fill="#fff" d="M0 0h20v20H0z"/></clipPath></defs></svg>