<svg xmlns="http://www.w3.org/2000/svg" width="17" height="20" fill="none" viewBox="0 0 17 20"><g fill="#FF007A" clip-path="url(#clip0)"><path d="M6.667 4.551c-.212-.03-.223-.041-.122-.052.192-.03.637.01.95.083.727.175 1.384.63 2.08 1.424l.183.217.262-.041c1.121-.186 2.273-.042 3.232.412.263.124.677.372.728.434.02.02.05.155.07.289.071.485.04.846-.11 1.125-.081.154-.081.196-.03.33.04.103.16.175.272.175.242 0 .495-.392.616-.939l.05-.216.091.103c.515.588.92 1.403.98 1.981l.02.155-.09-.134a1.738 1.738 0 0 0-.485-.527c-.344-.237-.708-.31-1.667-.36-.869-.052-1.364-.125-1.848-.29-.829-.278-1.253-.64-2.233-1.97-.434-.589-.707-.909-.98-1.177-.596-.588-1.192-.898-1.97-1.022z"/><path d="M14.192 5.862c.02-.392.07-.65.182-.888a.708.708 0 0 1 .09-.175c.01 0-.01.072-.04.155-.08.227-.09.547-.04.908.07.464.1.526.586 1.032.222.237.485.536.586.66l.171.227-.171-.165c-.213-.206-.697-.598-.808-.65-.071-.041-.081-.041-.132.01-.04.042-.05.103-.05.403-.01.464-.071.753-.223 1.052-.08.155-.09.124-.02-.051.05-.134.06-.196.06-.64 0-.898-.1-1.115-.716-1.476a7.953 7.953 0 0 0-.566-.3 2.113 2.113 0 0 1-.273-.133c.02-.02.616.155.849.258.353.144.414.155.454.144.03-.03.05-.113.06-.371zM7.08 7.4c-.423-.6-.696-1.528-.636-2.22l.02-.216.102.02c.181.032.495.155.646.248.404.248.586.588.758 1.435.05.247.12.536.151.63.05.154.243.515.404.742.111.165.04.248-.212.227-.384-.041-.899-.402-1.232-.867zm6.597 4.489c-2-.826-2.707-1.538-2.707-2.746 0-.175.01-.32.01-.32.01 0 .08.062.171.135.405.33.86.474 2.122.66.737.114 1.161.196 1.545.33 1.222.413 1.98 1.26 2.162 2.405.05.33.02.96-.06 1.29-.072.258-.274.733-.324.743-.01 0-.03-.052-.03-.134-.02-.434-.233-.846-.586-1.166-.425-.372-.97-.65-2.303-1.197zm-1.414.341a2.467 2.467 0 0 0-.101-.434l-.05-.155.09.113c.131.155.232.34.323.599.07.196.07.258.07.578 0 .31-.01.382-.07.557-.1.279-.222.475-.424.692-.364.381-.838.588-1.515.68a39.02 39.02 0 0 1-.768.063c-.757.04-1.262.123-1.717.289-.06.02-.121.04-.131.03-.02-.02.293-.206.545-.33.354-.175.717-.268 1.515-.413.394-.061.798-.144.9-.185 1-.32 1.494-1.115 1.333-2.085z"/><path d="M13.182 13.89c-.263-.588-.323-1.145-.182-1.671.02-.052.04-.103.06-.103.02 0 .081.03.142.072.121.082.374.227 1.02.588.818.454 1.283.805 1.606 1.207.283.351.455.754.536 1.25.05.278.02.949-.05 1.227-.223.877-.728 1.58-1.466 1.982-.11.062-.202.103-.212.103-.01 0 .03-.103.091-.227.243-.527.273-1.032.091-1.6-.11-.35-.343-.774-.808-1.486-.555-.825-.687-1.042-.828-1.341zm-7.525 3.159c.747-.64 1.666-1.094 2.515-1.239.363-.062.97-.041 1.303.052.535.144 1.02.454 1.272.836.243.371.354.691.465 1.403.04.279.091.568.101.63.08.371.242.66.444.815.314.237.86.248 1.395.041.09-.03.171-.062.171-.051.02.02-.252.206-.434.299a1.408 1.408 0 0 1-.727.175c-.485 0-.9-.258-1.233-.774-.07-.103-.212-.402-.333-.68-.354-.837-.535-1.084-.95-1.363-.363-.237-.828-.289-1.181-.114-.465.227-.586.836-.263 1.208.131.155.374.279.576.31a.622.622 0 0 0 .697-.63c0-.248-.091-.392-.334-.506-.323-.144-.676.02-.666.34 0 .135.06.218.192.28.08.04.08.04.02.03-.293-.062-.364-.433-.131-.67.282-.29.878-.165 1.08.237.081.165.091.495.02.702-.171.454-.656.691-1.151.557-.333-.093-.475-.186-.879-.609-.707-.743-.98-.887-1.99-1.042l-.192-.031.213-.206z"/><path fill-rule="evenodd" d="M.343.444c2.354 2.92 5.98 7.461 6.162 7.709.152.206.091.402-.162.547a1.527 1.527 0 0 1-.575.165.722.722 0 0 1-.485-.217c-.091-.093-.485-.681-1.374-2.095a134.597 134.597 0 0 0-1.263-1.992c-.04-.02-.04-.02 1.192 2.23.778 1.413 1.03 1.919 1.03 1.98 0 .135-.04.207-.201.393-.273.31-.394.66-.485 1.393-.101.816-.374 1.393-1.152 2.374-.454.578-.525.681-.636.918-.141.29-.182.454-.202.826-.02.392.02.64.131 1.011.101.33.212.547.485.97.232.372.374.65.374.754 0 .082.02.082.384 0 .868-.207 1.586-.558 1.98-.991.242-.268.303-.413.303-.784 0-.238-.01-.29-.071-.434-.101-.227-.293-.413-.707-.702-.546-.381-.778-.69-.839-1.104-.05-.35.01-.588.313-1.238.314-.67.394-.95.445-1.63.03-.434.08-.61.202-.744.131-.144.242-.196.555-.237.516-.072.849-.206 1.112-.464a.98.98 0 0 0 .343-.754l.01-.237-.131-.145C6.606 7.39.03 0 0 0c-.01 0 .152.196.343.444zm3.101 14.675a.432.432 0 0 0-.13-.568c-.173-.113-.435-.062-.435.093 0 .041.02.082.08.103.092.052.102.103.03.217-.07.113-.07.217.021.289.142.113.333.051.434-.134zM7.535 9.69c-.242.073-.474.34-.545.61-.04.164-.02.464.05.556.112.145.213.186.495.186.556 0 1.03-.247 1.081-.547.05-.247-.161-.588-.454-.743a1.017 1.017 0 0 0-.627-.062zm.647.516c.08-.123.05-.258-.101-.35-.273-.176-.687-.031-.687.237 0 .134.212.278.414.278.131 0 .313-.082.374-.165z" clip-rule="evenodd"/></g><defs><clipPath id="clip0"><path fill="#fff" d="M0 0h17v20H0z"/></clipPath></defs></svg>