<svg xmlns="http://www.w3.org/2000/svg" width="21" height="20" fill="none" viewBox="0 0 21 20"><g clip-path="url(#clip0)"><path fill="url(#paint0_linear)" d="M9.028 19.1L.046.643A.448.448 0 0 1 .443 0h3.112c.167 0 .324.095.397.243l6.56 13.39a1.586 1.586 0 0 0 2.86 0l6.54-13.38a.446.446 0 0 1 .397-.242h.386c.23 0 .376.242.272.442L11.89 19.1c-.585 1.2-2.278 1.2-2.862 0z"/><path fill="#fff" d="M9.028 19.1L3.952.253a.43.43 0 0 0-.376-.242H.454a.448.448 0 0 0-.408.643L9.028 19.1z" opacity=".1"/><path fill="#fff" d="M10.511 13.642L.046.643C-.079.338.11.032.401 0h3.165c.177.01.313.126.376.243l6.57 13.4z" opacity=".1"/></g><defs><linearGradient id="paint0_linear" x1="0" x2="21" y1="10" y2="10" gradientUnits="userSpaceOnUse"><stop stop-color="#9D4ABE"/><stop offset=".03" stop-color="#9055C4"/><stop offset=".15" stop-color="#6B74D6"/><stop offset=".26" stop-color="#4C8FE5"/><stop offset=".39" stop-color="#34A3F0"/><stop offset=".52" stop-color="#22B2F9"/><stop offset=".66" stop-color="#18BAFD"/><stop offset=".83" stop-color="#15BDFF"/><stop offset="1" stop-color="#28BAD5"/></linearGradient><clipPath id="clip0"><path fill="#fff" d="M0 0h21v20H0z"/></clipPath></defs></svg>