<svg xmlns="http://www.w3.org/2000/svg" width="24" height="20" fill="none" viewBox="0 0 24 20"><g clip-path="url(#clip0)"><path fill="#000" d="M20.613 2.616l-2.89 1.45-13.955 7A8.08 8.08 0 0 1 4.8 5.933a8.256 8.256 0 0 1 3.007-2.989 8.427 8.427 0 0 1 8.257-.084l1.654-.83.247-.124A10.258 10.258 0 0 0 12.793.029 10.3 10.3 0 0 0 7.388 1.09 10.107 10.107 0 0 0 3.34 4.776a9.894 9.894 0 0 0-1.464 5.985c.027.358-.054.716-.232 1.028a1.837 1.837 0 0 1-.772.73L0 12.957V15l2.568-1.289.832-.418.819-.411L18.93 5.5l1.653-.829L24 2.956V.914l-3.387 1.702zM24 5L5.055 14.5l-1.653.831L0 17.038v2.041l3.378-1.695 2.89-1.45 13.969-7.01a8.085 8.085 0 0 1-1.032 5.146 8.244 8.244 0 0 1-3.01 2.99 8.416 8.416 0 0 1-8.266.076l-.101.053-1.793.9a10.28 10.28 0 0 0 10.575.817 10.083 10.083 0 0 0 4.047-3.683 9.896 9.896 0 0 0 1.467-5.991 1.803 1.803 0 0 1 .232-1.028c.178-.313.446-.567.77-.73L24 7.036V5z"/></g><defs><clipPath id="clip0"><path fill="#fff" d="M0 0h24v20H0z"/></clipPath></defs></svg>