<svg xmlns="http://www.w3.org/2000/svg" width="15" height="20" fill="none" viewBox="0 0 15 20"><g clip-path="url(#clip0)"><path fill="#2C7DF7" d="M9.69 20c-1.458 0-2.522-.344-3.192-1.031a3.154 3.154 0 0 1-1.002-2.223 1.45 1.45 0 0 1 .175-.734c.115-.195.28-.357.479-.47a1.709 1.709 0 0 1 1.49.001c.2.112.364.274.476.469.126.225.19.478.182.734.013.306-.077.608-.255.86-.15.205-.362.358-.607.434.24.299.578.506.958.585.424.12.863.183 1.305.184a2.953 2.953 0 0 0 1.643-.481c.505-.349.88-.847 1.073-1.422a6.055 6.055 0 0 0 .35-2.128 5.737 5.737 0 0 0-.382-2.213 2.74 2.74 0 0 0-1.107-1.374 2.99 2.99 0 0 0-1.596-.447c-.492.04-.966.198-1.382.46l-1.025.502v-.503l4.606-6.05H5.496v6.278c-.018.453.104.9.35 1.285a1.219 1.219 0 0 0 1.073.503 1.82 1.82 0 0 0 1.06-.366c.344-.247.644-.55.887-.894a.32.32 0 0 1 .115-.15.241.241 0 0 1 .154-.056.54.54 0 0 1 .3.125.617.617 0 0 1 .163.425c-.012.105-.032.21-.058.313a3.03 3.03 0 0 1-1.094 1.33c-.453.3-.989.46-1.536.457-1.382 0-2.34-.267-2.872-.8a2.966 2.966 0 0 1-.791-2.187V5.154H0V3.987h3.262V1.328L2.515.596V0h2.167l.814.413v3.574l8.431-.025.84.825-5.17 5.087c.312-.123.641-.2.976-.23a4.303 4.303 0 0 1 1.89.527 3.86 3.86 0 0 1 1.628 1.423c.351.522.6 1.104.734 1.715.11.483.168.975.175 1.47a6.034 6.034 0 0 1-.638 2.721 4.039 4.039 0 0 1-1.915 1.875A6.3 6.3 0 0 1 9.689 20z"/></g><defs><clipPath id="clip0"><path fill="#fff" d="M0 0h15v20H0z"/></clipPath></defs></svg>