<svg xmlns="http://www.w3.org/2000/svg" width="20" height="20" fill="none" viewBox="0 0 20 20"><path fill="url(#paint0_linear)" d="M10.104 18.38c-4.556 0-8.276-3.722-8.276-8.276 0-4.556 3.723-8.276 8.276-8.276 4.557 0 8.277 3.723 8.277 8.276 0 4.557-3.72 8.277-8.277 8.277z"/><path fill="#000" d="M10 20C4.5 20 0 15.5 0 10S4.5 0 10 0s10 4.5 10 10-4.5 10-10 10zm0-17.776c-4.276 0-7.776 3.5-7.776 7.776 0 4.277 3.5 7.776 7.776 7.776 4.277 0 7.776-3.5 7.776-7.776S14.276 2.224 10 2.224z"/><path fill="#000" d="M9.768 12.709h4.334v2.166h-2.557v1.834H9.321v-1.777H6.655c0-.723-.11-1.443.057-2.11.056-.333.443-.666.723-1 .833-1 1.667-2 2.557-3 .333-.39.667-.723 1.057-1.166H6.882V5.489h2.443V3.656h2.167v1.776h2.667c0 .723.11 1.443-.057 2.11-.057.333-.443.666-.724 1-.833 1-1.666 2-2.556 3-.334.39-.667.777-1.054 1.167z"/><defs><linearGradient id="paint0_linear" x1="4.422" x2="15.847" y1="15.78" y2="4.354" gradientUnits="userSpaceOnUse"><stop stop-color="#CF8724"/><stop offset="1" stop-color="#FDCE58"/></linearGradient></defs></svg>