<svg width="1920" height="290" viewBox="0 0 1920 290" fill="none" xmlns="http://www.w3.org/2000/svg"><g clip-path="url(#clip0)"><path fill="url(#paint0_linear)" d="M0 0h1920v290H0z"/><g opacity=".5"><circle cx="1891" cy="248" r="100" fill="#fff"/><path d="M1900.59 180h-20.18v20.044h20.18V180z" fill="#004576"/><path d="M1920.68 216.078l-.04-20.805L1901.21 180h-.62v36.078h20.09z" fill="#0068C1"/><path d="M1900.59 250.152h-20.18v20.044h20.18v-20.044z" fill="#004576"/><path d="M1920.68 234.118l-.04 20.805-19.43 15.273h-.62v-36.078h20.09zM1879.79 180l-19.43 15.273-.08 38.845h.04l.04 20.805 19.43 15.273h.62V180h-.62z" fill="#0068C1"/><path d="M1834.45 235.711l18.73-14.02s1.11-1.143 1.11-.291v37.091l-18.98-12.357-2.31-4.37v-2.375s-.12-2.495 1.45-3.678z" fill="#004576"/><path d="M1833.04 240.181v31.979c.02 2.706 1.35 5.232 3.54 6.835l49.2 35.868s.66.591 1.17.391c.51-.2.51-.241.51-.912v-29.885s.17-1.163-.65-1.934l-50.2-37.291a8.527 8.527 0 0 1-1.95-2.025c-.66-.952-1.47-2.194-1.56-2.756-.16-.972-.08-.2-.08-.2m114.94-.07v31.979c-.02 2.706-1.35 5.232-3.54 6.835l-49.2 35.868s-.65.591-1.17.391c-.51-.2-.51-.241-.51-.912v-29.885s-.16-1.163.65-1.934l50.2-37.291a8.569 8.569 0 0 0 1.96-2.025c.65-.952 1.46-2.194 1.55-2.756.16-.972.08-.2.08-.2" fill="#0068C1"/></g><g opacity=".2"><circle cx="1389.89" cy="207.891" r="41.891" fill="#fff"/><path d="M1393.91 179.405h-8.45v8.397h8.45v-8.397z" fill="#004576"/><path d="M1402.33 194.519l-.02-8.716-8.14-6.398h-.26v15.114h8.42z" fill="#0068C1"/><path d="M1393.91 208.793h-8.45v8.396h8.45v-8.396z" fill="#004576"/><path d="M1402.33 202.076l-.02 8.715-8.14 6.398h-.26v-15.113h8.42zm-17.14-22.671l-8.13 6.398-.04 16.273h.02l.02 8.715 8.13 6.398h.27v-37.784h-.27z" fill="#0068C1"/><path d="M1366.2 202.743l7.85-5.873s.46-.479.46-.122v15.538l-7.95-5.177-.96-1.83v-.995s-.06-1.045.6-1.541z" fill="#004576"/><path d="M1365.61 204.615v13.397a3.594 3.594 0 0 0 1.49 2.863l20.6 15.026s.28.247.49.163c.22-.084.22-.1.22-.382v-12.519s.07-.487-.27-.81l-21.03-15.622c-.32-.235-.6-.52-.82-.848-.28-.399-.61-.919-.65-1.154-.07-.407-.04-.084-.04-.084" fill="#0068C1"/><path d="M1413.16 202.743l-7.84-5.873s-.47-.479-.47-.122v15.538l7.95-5.177.96-1.83v-.995c.01 0 .06-1.045-.6-1.541z" fill="#004576"/><path d="M1413.75 204.615v13.397a3.584 3.584 0 0 1-1.48 2.863l-20.61 15.026s-.28.247-.49.163c-.22-.084-.22-.1-.22-.382v-12.519s-.06-.487.28-.81l21.03-15.622c.31-.235.59-.52.82-.848.27-.399.61-.919.65-1.154.06-.407.03-.084.03-.084" fill="#0068C1"/></g><g opacity=".5"><circle cx="282" cy="254" r="62" fill="#fff"/><path d="M287.945 211.84h-12.509v12.427h12.509V211.84z" fill="#004576"/><path d="M300.403 234.209l-.025-12.9-12.045-9.469h-.388v22.369h12.458z" fill="#0068C1"/><path d="M287.945 255.335h-12.509v12.427h12.509v-12.427z" fill="#004576"/><path d="M300.403 245.393l-.025 12.899-12.045 9.47h-.388v-22.369h12.458zm-25.354-33.553l-12.046 9.469-.05 24.084h.025l.025 12.899 12.046 9.47h.387V211.84h-.387z" fill="#0068C1"/><path d="M246.942 246.381l11.608-8.693s.688-.708.688-.18v22.996l-11.764-7.661-1.433-2.709v-1.473s-.075-1.547.901-2.28z" fill="#004576"/><path d="M246.066 249.152v19.827a5.316 5.316 0 0 0 2.196 4.238l30.502 22.238s.406.367.725.243c.319-.125.319-.15.319-.566v-18.529s.1-.72-.406-1.199l-31.122-23.12a5.278 5.278 0 0 1-1.213-1.255c-.407-.591-.907-1.361-.963-1.709-.1-.603-.05-.124-.05-.124" fill="#0068C1"/><path d="M316.439 246.381l-11.608-8.693s-.688-.708-.688-.18v22.996l11.759-7.661 1.432-2.709v-1.473c.006 0 .081-1.547-.895-2.28z" fill="#004576"/><path d="M317.315 249.152v19.827c-.012 1.678-.838 3.244-2.195 4.238l-30.502 22.238s-.407.367-.726.243c-.319-.125-.319-.15-.319-.566v-18.529s-.1-.72.407-1.199l31.121-23.12a5.278 5.278 0 0 0 1.213-1.255c.407-.591.907-1.361.964-1.709.1-.603.05-.124.05-.124" fill="#0068C1"/></g><g opacity=".5"><circle cx="17" cy="94" r="50" fill="#fff"/><path d="M21.794 60H11.707v10.022h10.087V60z" fill="#004576"/><path d="M31.841 78.04l-.02-10.403L22.107 60h-.313v18.04h10.047z" fill="#0068C1"/><path d="M21.794 95.076H11.707v10.022h10.087V95.076z" fill="#004576"/><path d="M31.841 87.059l-.02 10.403-9.714 7.636h-.313v-18.04h10.047zM11.394 60L1.68 67.637l-.04 19.422h.02l.02 10.402 9.714 7.637h.313V60h-.313zm-23.373 30.09v15.99a4.289 4.289 0 0 0 1.77 3.418l24.599 17.934s.328.295.585.195c.257-.1.257-.12.257-.456v-14.942s.081-.582-.327-.968l-25.098-18.645a4.254 4.254 0 0 1-.979-1.012c-.328-.476-.731-1.098-.776-1.378-.081-.486-.04-.1-.04-.1" fill="#0068C1"/><path d="M44.774 87.856l-9.361-7.01s-.555-.572-.555-.146v18.545l9.482-6.178 1.155-2.185v-1.187c.005 0 .066-1.248-.721-1.84z" fill="#004576"/><path d="M45.48 90.09v15.99a4.289 4.289 0 0 1-1.77 3.418l-24.6 17.934s-.328.295-.585.195c-.257-.1-.257-.12-.257-.456v-14.942s-.081-.582.328-.968l25.097-18.645a4.22 4.22 0 0 0 .979-1.012c.328-.476.731-1.098.777-1.378.08-.486.04-.1.04-.1" fill="#0068C1"/></g><g opacity=".9"><circle cx="491" cy="31" r="59" fill="#fff"/><path d="M496.657-9.12h-11.903V2.706h11.903V-9.12z" fill="#004576"/><path d="M508.513 12.166l-.024-12.275-11.463-9.011h-.369v21.286h11.856z" fill="#0068C1"/><path d="M496.657 32.27h-11.903v11.826h11.903V32.27z" fill="#004576"/><path d="M508.513 22.81l-.024 12.274-11.463 9.012h-.369V22.809h11.856zM484.385-9.12L472.922-.11l-.048 22.918h.024l.024 12.275 11.463 9.012h.369V-9.121h-.369z" fill="#0068C1"/><path d="M457.638 23.75l11.047-8.273s.654-.674.654-.17V37.19l-11.195-7.291-1.363-2.578V25.92s-.071-1.473.857-2.17z" fill="#004576"/><path d="M456.805 26.387v18.867a5.06 5.06 0 0 0 2.089 4.033L487.92 70.45s.387.35.691.23c.303-.117.303-.141.303-.537V52.51s.095-.686-.387-1.142l-29.615-22.001a5.039 5.039 0 0 1-1.155-1.195c-.387-.561-.863-1.295-.916-1.626-.095-.573-.048-.118-.048-.118" fill="#0068C1"/><path d="M523.773 23.75l-11.046-8.273s-.655-.674-.655-.17V37.19l11.189-7.291 1.363-2.578V25.92c.006 0 .077-1.473-.851-2.17z" fill="#004576"/><path d="M524.606 26.387v18.867a5.058 5.058 0 0 1-2.089 4.033L493.491 70.45s-.387.35-.69.23c-.304-.117-.304-.141-.304-.537V52.51s-.095-.686.387-1.142l29.615-22.001a5 5 0 0 0 1.155-1.195c.387-.561.863-1.295.917-1.626.095-.573.047-.118.047-.118" fill="#0068C1"/></g><g opacity=".5"><circle cx="1662" cy="19" r="61" fill="#fff"/><path d="M1667.85 20.313h-12.31V32.54h12.31V20.313z" fill="#004576"/><path d="M1680.11 10.532l-.03 12.691-11.85 9.317h-.38V10.532h12.26zm-24.95-33.012l-11.85 9.317-.05 23.695h.02l.03 12.69 11.85 9.318h.38v-55.02h-.38z" fill="#0068C1"/><path d="M1627.51 11.504l11.42-8.553s.67-.697.67-.177V25.4l-11.57-7.537-1.41-2.666v-1.449s-.07-1.522.89-2.243z" fill="#004576"/><path d="M1626.65 14.23v19.508c.01 1.65.82 3.19 2.16 4.169l30.01 21.88s.4.36.71.238c.31-.122.31-.147.31-.556v-18.23s.1-.71-.4-1.18l-30.62-22.748a5.277 5.277 0 0 1-1.19-1.235c-.4-.58-.89-1.338-.95-1.68-.1-.594-.05-.123-.05-.123" fill="#0068C1"/><path d="M1695.88 11.504l-11.42-8.553s-.67-.697-.67-.177V25.4l11.56-7.537 1.41-2.666v-1.449c.01 0 .08-1.522-.88-2.243z" fill="#004576"/><path d="M1696.75 14.23v19.508a5.267 5.267 0 0 1-2.16 4.169l-30.01 21.88s-.4.36-.72.238c-.31-.122-.31-.147-.31-.556v-18.23s-.1-.71.4-1.18l30.62-22.748a5.27 5.27 0 0 0 1.19-1.235c.4-.58.89-1.338.95-1.68.1-.594.05-.123.05-.123" fill="#0068C1"/></g><g opacity=".9"><circle cx="1299" cy="260" r="77" fill="#fff"/><path d="M1306.38 207.64h-15.53v15.434h15.53V207.64z" fill="#004576"/><path d="M1321.86 235.42l-.04-16.02-14.96-11.76h-.48v27.78h15.48z" fill="#0068C1"/><path d="M1306.38 261.657h-15.53v15.434h15.53v-15.434z" fill="#004576"/><path d="M1321.86 249.311l-.04 16.02-14.96 11.76h-.48v-27.78h15.48zm-31.49-41.671l-14.96 11.76-.07 29.911h.04l.03 16.02 14.96 11.76h.48V207.64h-.48z" fill="#0068C1"/><path d="M1255.46 250.538l14.42-10.796s.85-.88.85-.224v28.56l-14.61-9.515-1.78-3.364v-1.829s-.09-1.922 1.12-2.832z" fill="#004576"/><path d="M1254.37 253.979v24.624a6.605 6.605 0 0 0 2.73 5.263l37.88 27.619s.51.455.9.3c.4-.154.4-.185.4-.702v-23.011s.12-.895-.51-1.49l-38.65-28.714a6.55 6.55 0 0 1-1.5-1.558c-.51-.734-1.13-1.69-1.2-2.123-.12-.748-.06-.154-.06-.154" fill="#0068C1"/><path d="M1341.77 250.538l-14.41-10.796s-.86-.88-.86-.224v28.56l14.6-9.515 1.78-3.364v-1.829c.01 0 .1-1.922-1.11-2.832z" fill="#004576"/><path d="M1342.86 253.979v24.624a6.605 6.605 0 0 1-2.73 5.263l-37.88 27.619s-.5.455-.9.3c-.4-.154-.4-.185-.4-.702v-23.011s-.12-.895.51-1.49l38.65-28.714a6.792 6.792 0 0 0 1.51-1.558c.5-.734 1.12-1.69 1.19-2.123.13-.748.06-.154.06-.154" fill="#0068C1"/></g></g><defs><linearGradient id="paint0_linear" x1="0" y1="0" x2="1920" y2="290" gradientUnits="userSpaceOnUse"><stop stop-color="#0093FF"/><stop offset="1" stop-color="#003D7B"/></linearGradient><clipPath id="clip0"><path fill="#fff" d="M0 0h1920v290H0z"/></clipPath></defs></svg>