<svg xmlns="http://www.w3.org/2000/svg" id="prefix__브라질" width="25" height="18.75" viewBox="0 0 25 18.75"><defs><style>.prefix__cls-4{fill-rule:evenodd;fill:#ffffef}.prefix__cls-8{fill:#fff}.prefix__cls-6{fill:#309e3a}</style></defs><path id="prefix__패스_88" fill="#229e45" fill-rule="evenodd" d="M0 0h25v18.75H0z" data-name="패스 88"/><path id="prefix__패스_89" fill="#f8e509" fill-rule="evenodd" d="M28.967 59.209l11.757-7.593L28.9 44l-11.8 7.632z" data-name="패스 89" transform="translate(-16.412 -42.23)"/><path id="prefix__패스_90" fill="#2b49a3" fill-rule="evenodd" d="M208.252 117.348a5.134 5.134 0 11-5.121-4.848 4.993 4.993 0 015.121 4.848z" data-name="패스 90" transform="translate(-190.419 -107.974)"/><path id="prefix__패스_91" d="M215.253 199.785l-.161-.093-.161.08.036-.181-.129-.137.181-.02.089-.161.076.169.177.032-.133.121m3.46 1.058l-.157-.093-.161.08.032-.181-.125-.133.181-.02.084-.165.08.169.177.032-.137.125m-1.456-1.207l-.137-.08-.141.072.032-.157-.113-.117.161-.016.072-.145.064.149.157.028-.121.109m3.5-.342l-.137-.08-.141.072.032-.157-.109-.113.157-.016.072-.141.064.145.153.028-.117.1m-3.513-.885l-.161-.089-.161.08.032-.185-.125-.133.181-.02.085-.165.08.169.177.032-.137.129m-4.209-1.408l-.161-.089-.161.08.04-.185-.133-.133.185-.02.08-.165.08.169.177.032-.133.125m.535 2.3l-.161-.093-.161.08.036-.181-.129-.133.181-.024.084-.161.08.169.177.032-.133.125m5.311-2.708l-.145-.08-.145.072.032-.161-.113-.121.161-.02.076-.145.068.153.161.028-.121.109m-.27 1.541l-.109-.064-.117.056.024-.129-.089-.093.129-.016.06-.113.052.121.121.02-.089.089m-5.721 2.028l-.109-.06-.109.052.024-.121-.084-.089.121-.016.056-.109.052.113.121.024-.093.08m8.055.616l-.089-.044-.089.04.02-.093-.068-.064.1-.012.048-.08.04.08.1.02-.076.06" class="prefix__cls-4" data-name="패스 91" transform="translate(-204.223 -187.384)"/><path id="prefix__패스_92" d="M212.678 279.442l-.109-.06-.109.052.024-.121-.085-.089.121-.016.056-.109.052.113.121.024-.093.08" class="prefix__cls-4" data-name="패스 92" transform="translate(-204.107 -268.204)"/><path id="prefix__패스_93" d="M212.678 241.819l-.109-.06-.109.052.024-.121-.085-.089.121-.016.056-.109.052.113.121.024-.093.08m1.7.121l-.1-.056-.109.052.024-.121-.085-.089.121-.016.056-.109.052.113.121.02-.093.085m-.193.684l-.1-.06-.109.056.024-.121-.084-.093.121-.016.056-.109.052.113.121.024-.093.08m3.517-.893l-.1-.064-.113.056.024-.121-.08-.093.121-.012.056-.109.048.113.121.02-.089.084m-1.01.121l-.109-.06-.109.056.024-.121-.08-.093.121-.012.056-.113.048.117.121.02-.089.084M213.84 241l-.068-.04-.068.032.016-.076-.052-.056.076-.008.032-.068.032.072.076.012-.056.052m6.751 1.827l-.1-.06-.109.056.024-.121-.085-.093.121-.016.056-.109.052.113.121.024-.093.08m-.837.241l-.089-.056-.093.048.02-.1-.068-.072.1-.012.048-.093.04.1.1.016-.076.072m.418.093l-.08-.048-.084.04.016-.093-.064-.068.093-.012.044-.08.04.08.093.02-.068.064m1.171-.917l-.08-.04-.08.04.02-.093-.064-.068.093-.012.04-.08.04.084.084.016-.064.064m-1.561 1.682l-.1-.056-.109.048.024-.113-.08-.08.121-.012.052-.1.048.1.121.02-.093.076m.024.571l-.1-.056-.1.052.024-.113-.076-.08.109-.016.048-.1.044.1.109.02-.08.08m-.764-.929l-.076-.048-.08.04.016-.089-.06-.068.089-.008.04-.08.04.08.089.016-.064.064m-.716.093l-.08-.048-.08.04.02-.089-.064-.068.093-.008.04-.08.04.08.084.016-.064.064m-1.223-.99l-.08-.044-.08.04.02-.093-.064-.064.089-.012.04-.08.04.08.089.02-.064.06m.149 2.293l-.064-.036-.072.036.016-.08-.052-.056.076-.008.036-.068.032.072.076.012-.056.052m-1.859-3.484l-.161-.093-.161.08.036-.181-.129-.133.181-.024.089-.161.076.169.177.032-.133.125" class="prefix__cls-4" data-name="패스 93" transform="translate(-204.236 -230.604)"/><path id="prefix__패스_94" fill="#fff" fill-rule="evenodd" d="M212.713 185.683a5.011 5.011 0 00.233-.8 12.583 12.583 0 00-9.6-3.368 5.008 5.008 0 00-.342.841 12.282 12.282 0 019.713 3.323z" data-name="패스 94" transform="translate(-195.22 -174.456)"/><path id="prefix__패스_95" d="M269.267 188.672l.093.052a.137.137 0 00-.012.089.121.121 0 00.056.068.116.116 0 00.08.028.063.063 0 00.052-.028.052.052 0 00.008-.036.092.092 0 00-.02-.04.493.493 0 00-.06-.072.309.309 0 01-.072-.121.149.149 0 01.08-.177.153.153 0 01.093-.008.282.282 0 01.1.048.238.238 0 01.1.129.165.165 0 01-.024.133l-.1-.06a.084.084 0 00.008-.068.09.09 0 00-.048-.056.129.129 0 00-.072-.028.04.04 0 00-.036.02.046.046 0 000 .04.247.247 0 00.064.089.616.616 0 01.08.1.157.157 0 01-.012.169.165.165 0 01-.076.06.161.161 0 01-.1.012.312.312 0 01-.113-.052.236.236 0 01-.109-.133.217.217 0 01.024-.161zm-.467-.306l.1.052a.137.137 0 00-.008.089.121.121 0 00.056.064.115.115 0 00.08.024.058.058 0 00.052-.032.052.052 0 00.008-.032.064.064 0 00-.02-.04q-.031-.037-.064-.072a.281.281 0 01-.08-.113.149.149 0 01.016-.125.145.145 0 01.064-.056.153.153 0 01.089-.012.281.281 0 01.1.04.237.237 0 01.109.125.165.165 0 01-.016.137l-.1-.056a.086.086 0 00.008-.068.115.115 0 00-.052-.056.129.129 0 00-.076-.024.04.04 0 00-.032.02.046.046 0 000 .04.28.28 0 00.068.089.451.451 0 01.08.1.157.157 0 010 .169.169.169 0 01-.072.064.161.161 0 01-.1.012.322.322 0 01-.117-.044.241.241 0 01-.113-.129.217.217 0 01.02-.166zm-.571-.153l.294-.483.354.221-.048.08-.258-.161-.064.109.241.149-.052.08-.241-.149-.08.133.27.161-.048.08-.362-.221zm-.833-.684l.044-.08.217.109-.1.2a.371.371 0 01-.121.008.378.378 0 01-.133-.04.31.31 0 01-.121-.1.241.241 0 01-.04-.141.346.346 0 01.04-.149.322.322 0 01.1-.121.243.243 0 01.274 0 .232.232 0 01.125.113.2.2 0 01.012.141l-.109-.032a.121.121 0 00-.008-.08.129.129 0 00-.064-.056.153.153 0 00-.125-.012.188.188 0 00-.1.1.221.221 0 00-.028.153.149.149 0 00.08.1.136.136 0 00.068.02.241.241 0 00.072 0l.032-.064zm-3.629-.9l.08-.563.169.028.044.394.157-.362.169.024-.081.555-.109-.016.068-.439-.177.422-.109-.016-.044-.455-.064.443zm-.567-.068l.052-.563.414.04-.008.1-.3-.028-.012.121.282.028-.012.1-.282-.028-.012.153.314.028-.008.1z" class="prefix__cls-6" data-name="패스 95" transform="translate(-253.025 -178.775)"/><g id="prefix__그룹_157" data-name="그룹 157" transform="translate(8.451 7.185)"><path id="prefix__패스_96" d="M216.477 184.39a.371.371 0 01.028-.145.27.27 0 01.056-.076.217.217 0 01.072-.048.422.422 0 01.121-.02.286.286 0 01.2.08.3.3 0 01.064.221.291.291 0 01-.08.213.261.261 0 01-.2.068.266.266 0 01-.193-.08.294.294 0 01-.068-.213z" class="prefix__cls-6" data-name="패스 96" transform="translate(-216.476 -184.1)"/><path id="prefix__패스_97" fill="#f7ffff" d="M219.4 186.691a.229.229 0 00.04.145.143.143 0 00.113.052.141.141 0 00.113-.044.242.242 0 00.044-.149.2.2 0 00-.04-.145.141.141 0 00-.109-.052.145.145 0 00-.113.048.215.215 0 00-.048.145z" data-name="패스 97" transform="translate(-219.282 -186.402)"/></g><g id="prefix__그룹_158" data-name="그룹 158" transform="translate(9.096 7.2)"><path id="prefix__패스_98" d="M233 185.063l.008-.563h.241a.328.328 0 01.129.02.118.118 0 01.064.052.167.167 0 01.024.093.153.153 0 01-.04.1.181.181 0 01-.109.048l.06.048a.455.455 0 01.06.093l.068.113h-.137l-.08-.129-.056-.08a.084.084 0 00-.036-.024.2.2 0 00-.056-.008h-.024v.233z" class="prefix__cls-6" data-name="패스 98" transform="translate(-233 -184.5)"/><path id="prefix__패스_99" d="M236 187.045h.08a.293.293 0 00.1-.008c.012 0 .024-.012.032-.02a.068.068 0 00.012-.04c0-.024 0-.04-.016-.048a.069.069 0 00-.04-.024h-.173v.145z" class="prefix__cls-8" data-name="패스 99" transform="translate(-235.879 -186.803)"/></g><g id="prefix__그룹_159" data-name="그룹 159" transform="translate(9.694 7.228)"><path id="prefix__패스_100" d="M248.328 185.2l.209.012a.354.354 0 01.1.012.189.189 0 01.08.056.241.241 0 01.048.1.34.34 0 01.012.133.374.374 0 01-.02.121.247.247 0 01-.068.1.2.2 0 01-.08.04.362.362 0 01-.1.008l-.213-.012z" class="prefix__cls-6" data-name="패스 100" transform="translate(-248.3 -185.2)"/><path id="prefix__패스_101" d="M251.22 187.7l-.02.374h.153a.067.067 0 00.048-.02.13.13 0 00.032-.052.335.335 0 00.016-.1v-.1a.129.129 0 00-.032-.056.109.109 0 00-.048-.028.523.523 0 00-.093-.012z" class="prefix__cls-8" data-name="패스 101" transform="translate(-251.083 -187.599)"/></g><g id="prefix__그룹_160" data-name="그룹 160" transform="translate(12.399 7.673)"><path id="prefix__패스_102" d="M317.6 197.147l.133-.547.177.04.129.04a.136.136 0 01.064.076.175.175 0 01.008.113.169.169 0 01-.04.08.157.157 0 01-.121.056.614.614 0 01-.121-.02l-.068-.02-.048.209z" class="prefix__cls-6" data-name="패스 102" transform="translate(-317.6 -196.6)"/><path id="prefix__패스_103" d="M322.232 199.6l-.032.153.06.016a.293.293 0 00.089.012.076.076 0 00.064-.06.11.11 0 00-.008-.052.08.08 0 00-.04-.036l-.076-.02-.052-.012z" class="prefix__cls-8" data-name="패스 103" transform="translate(-322.015 -199.479)"/></g><g id="prefix__그룹_161" data-name="그룹 161" transform="translate(12.905 7.839)"><path id="prefix__패스_104" d="M330.6 201.431l.189-.531.221.08a.491.491 0 01.121.056.118.118 0 01.04.072.238.238 0 010 .093.178.178 0 01-.072.089.2.2 0 01-.121.012.215.215 0 01.04.064l.032.109.024.125-.125-.044-.04-.145a.78.78 0 00-.028-.1.084.084 0 00-.024-.032.089.089 0 00-.052-.028l-.02-.008-.08.225z" class="prefix__cls-6" data-name="패스 104" transform="translate(-330.6 -200.9)"/><path id="prefix__패스_105" d="M335.9 204.233l.076.028a.349.349 0 00.1.028.044.044 0 00.036-.012.059.059 0 00.024-.036.051.051 0 000-.048.068.068 0 00-.032-.036l-.08-.028-.08-.028-.048.133z" class="prefix__cls-8" data-name="패스 105" transform="translate(-335.687 -203.971)"/></g><g id="prefix__그룹_162" data-name="그룹 162" transform="translate(13.528 8.125)"><path id="prefix__패스_106" d="M346.555 208.417a.362.362 0 01.068-.129.265.265 0 01.072-.06.241.241 0 01.08-.028.344.344 0 01.125.016.262.262 0 01.169.133.317.317 0 01.008.229.3.3 0 01-.137.181.25.25 0 01-.209.016.265.265 0 01-.169-.133.294.294 0 01-.007-.225z" class="prefix__cls-6" data-name="패스 106" transform="translate(-346.537 -208.2)"/><path id="prefix__패스_107" d="M349.475 210.852a.22.22 0 000 .153.154.154 0 00.093.08.144.144 0 00.121-.016.2.2 0 00.085-.129.19.19 0 000-.149.141.141 0 00-.089-.08.145.145 0 00-.121.012.212.212 0 00-.089.129z" class="prefix__cls-8" data-name="패스 107" transform="translate(-349.344 -210.602)"/></g><g id="prefix__그룹_163" data-name="그룹 163" transform="translate(14.61 8.611)"><path id="prefix__패스_108" d="M374.3 221.2l.258-.5.213.109a.4.4 0 01.109.076.1.1 0 01.032.076.166.166 0 01-.016.089.153.153 0 01-.08.08.223.223 0 01-.125-.008.341.341 0 01.032.068.525.525 0 01.016.113l.008.129-.121-.06-.016-.149a.813.813 0 00-.012-.1.08.08 0 00-.02-.04l-.048-.028-.02-.012-.109.209-.1-.052z" class="prefix__cls-6" data-name="패스 108" transform="translate(-374.3 -220.7)"/><path id="prefix__패스_109" d="M380.5 224.129l.076.04a.4.4 0 00.093.04.073.073 0 00.04-.008c.012 0 .02-.016.028-.032a.069.069 0 00.008-.048.08.08 0 00-.028-.04q-.035-.022-.072-.04l-.08-.04z" class="prefix__cls-8" data-name="패스 109" transform="translate(-380.251 -223.867)"/></g><g id="prefix__그룹_164" data-name="그룹 164" transform="translate(16.575 9.955)"><path id="prefix__패스_110" d="M424.675 255.234a.358.358 0 01.1-.1.266.266 0 01.089-.036.221.221 0 01.089 0 .309.309 0 01.113.048.265.265 0 01.121.177.316.316 0 01-.056.221.294.294 0 01-.181.133.262.262 0 01-.209-.044.266.266 0 01-.121-.177.3.3 0 01.055-.222z" class="prefix__cls-6" data-name="패스 110" transform="translate(-424.615 -255.089)"/><path id="prefix__패스_111" d="M427.488 257.844a.181.181 0 00-.044.145.145.145 0 00.064.1.135.135 0 00.121.024.212.212 0 00.117-.1.207.207 0 00.044-.145.155.155 0 00-.064-.1.131.131 0 00-.121-.02.214.214 0 00-.121.1z" class="prefix__cls-8" data-name="패스 111" transform="translate(-427.328 -257.634)"/></g><path id="prefix__패스_112" d="M301.8 195.094l.093-.394.29.068-.012.064-.213-.048-.02.089.2.044-.016.068-.2-.048-.024.109.221.052-.016.064z" class="prefix__cls-6" data-name="패스 112" transform="translate(-290.016 -187.1)"/></svg>