<svg width="40" height="40" viewBox="0 0 40 40" fill="none" xmlns="http://www.w3.org/2000/svg"><path d="M20 40c11.046 0 20-8.954 20-20S31.046 0 20 0 0 8.954 0 20s8.954 20 20 20z" fill="#0068C1"/><path d="M21.99 8h-3.58v3.556h3.58V8z" fill="#8BB0D2"/><path d="M25.554 14.4l-.007-3.69L22.101 8h-.111v6.4h3.564z" fill="#fff"/><path d="M21.99 20.445h-3.58V24h3.58v-3.555z" fill="#8BB0D2"/><path d="M25.554 17.6l-.007 3.69L22.101 24h-.111v-6.4h3.564zM18.3 8l-3.447 2.71-.014 6.89h.007l.007 3.69L18.3 24h.11V8h-.11z" fill="#fff"/><path d="M10.258 17.883l3.321-2.487s.197-.203.197-.052v6.58l-3.366-2.192-.41-.776v-.42s-.021-.444.258-.653z" fill="#8BB0D2"/><path d="M10.008 18.676v5.672c.003.48.24.928.628 1.213l8.727 6.363s.116.104.207.069c.091-.036.091-.043.091-.162V26.53s.03-.207-.116-.343l-8.904-6.615c-.134-.1-.252-.22-.347-.36-.117-.168-.26-.389-.276-.488-.028-.173-.014-.036-.014-.036" fill="#fff"/><path d="M30.142 17.883l-3.32-2.487s-.198-.203-.198-.052v6.58l3.364-2.192.41-.776v-.42c.002 0 .024-.444-.256-.653z" fill="#8BB0D2"/><path d="M30.393 18.676v5.672c-.004.48-.24.928-.628 1.213l-8.727 6.363s-.117.104-.208.069c-.091-.036-.091-.043-.091-.162V26.53s-.029-.207.116-.343l8.904-6.615c.134-.1.253-.22.348-.36.116-.168.259-.389.275-.488.029-.173.014-.036.014-.036" fill="#fff"/></svg>