<svg version="1.1" id="Layer_1" xmlns="http://www.w3.org/2000/svg" x="0" y="0" viewBox="0 0 160 26" xml:space="preserve"><style>.st0{fill:#aaa}.st1{fill:#dadada}</style><path class="st0" d="M12.7 0H8.9v3.8h3.8V0z"/><path class="st1" d="M16.4 7V3l-3.6-3h-.1v7h3.7z"/><path class="st0" d="M12.7 13.4H8.9v3.8h3.8v-3.8z"/><path class="st1" d="M16.4 10.4v4l-3.6 2.9h-.1v-7h3.7zM8.8 0L5.1 2.9v11.5l3.6 2.9h.1V0z"/><path class="st0" d="M.3 10.7L3.8 8s.2-.2.2-.1V15L.4 12.6l-.4-.7v-.5s0-.5.3-.7z"/><path class="st1" d="M0 11.6v6.1c0 .5.3 1 .6 1.3l9.2 6.9s.1.1.2.1c.1-.1.1-.1.1-.2V20s0-.2-.1-.4L.6 12.5l-.4-.4c0-.1-.1-.4-.2-.5 0-.2 0 0 0 0"/><path class="st0" d="M21.3 10.7L17.8 8s-.2-.2-.2-.1V15l3.6-2.4.4-.8v-.5c0 .1 0-.4-.3-.6z"/><path class="st1" d="M21.6 11.6v6.1c0 .5-.3 1-.6 1.3l-9.3 7s-.1.1-.2.1c-.1-.1-.1-.1-.1-.2v-5.7s0-.2.1-.4l9.4-7.1.4-.4c.1-.3.2-.6.3-.7 0-.2 0 0 0 0m21 3.8c.1-.1.3 0 .3.2v3.1c-1.6 1.4-3.7 2.1-6 2.1-5.3 0-8.4-3.8-8.4-9.7 0-6.2 3.7-9.7 8.7-9.7 2.3 0 4.1.5 5.6 1.8v3.1c0 .2-.2.3-.3.2C40.9 4.7 39.3 4 37.4 4c-3.2 0-5.7 2.4-5.7 7.1 0 4.8 2 7.2 5.6 7.2 2-.1 3.7-1.2 5.3-2.9zm9.5 5.5c-5.1 0-8.1-4.2-8.1-9.7-.1-5.5 2.9-9.8 8.1-9.8s8.2 4.4 8.2 9.8-3 9.7-8.2 9.7zm0-2.7c3.3 0 5.1-2.9 5.1-7.1S55.5 4 52.1 4c-3.3 0-5 2.9-5 7.1s1.8 7.1 5 7.1zm24.3-2.8c.1-.1.3 0 .3.2v3.1c-1.6 1.4-3.7 2.1-6 2.1-5.3 0-8.4-3.8-8.4-9.7 0-6.2 3.7-9.7 8.7-9.7 2.3 0 4.1.5 5.6 1.8v3.1c0 .2-.2.3-.3.2C74.7 4.7 73.1 4 71.2 4c-3.2 0-5.7 2.4-5.7 7.1 0 4.8 2 7.2 5.6 7.2 2-.1 3.8-1.2 5.3-2.9zm9.5 5.5c-5.1 0-8.1-4.2-8.1-9.7 0-5.5 3-9.8 8.1-9.8 5.2 0 8.2 4.4 8.2 9.8s-3 9.7-8.2 9.7zm0-2.7c3.3 0 5.1-2.9 5.1-7.1S89.3 4 85.9 4c-3.3 0-5 2.9-5 7.1s1.7 7.1 5 7.1z"/><path class="st0" d="M103.1 4.1h-2.7v5h2.5c2 0 3.2-.6 3.2-2.7 0-1.3-.9-2.3-3-2.3zm0 7.4h-2.7V18h3.1c2.2 0 3.5-1.4 3.5-3.2 0-1.9-1.4-3.3-3.9-3.3zm3.2-1.4c2.1.4 3.8 2.2 3.8 4.7 0 2.9-2.1 5.8-6.4 5.8h-6.3V1.5h6.2c3.9 0 5.6 2.2 5.6 4.5 0 2-1 3.4-2.9 4.1zm14.1-8.6l6.2 19.1h-3l-1.6-5.3h-6.3l-1.6 5.3h-3l6.2-19.1h3.1zm-1.6 2.8l-.5 1.8-2.1 6.8h5.1l-2-6.8-.5-1.8zm20.1 10.6l.7 2.1V1.5h2.9v19.1h-4l-5.9-13.3-.7-2.1v15.4H129V1.5h4l5.9 13.4zm13.8-5.5l7.3 11.2h-3.6l-5.6-9.2-1.4 1.7v7.5h-3V1.5h3v7.8l6.7-7.8h3.7l-7.1 7.9z"/></svg>