<svg version="1.1" id="Layer_1" xmlns="http://www.w3.org/2000/svg" x="0" y="0" viewBox="0 0 146 30" xml:space="preserve"><style>.st0{fill:#004576}.st1{fill:#0068c1}</style><path class="st0" d="M15.2 0h-4.5v4.4h4.5V0z"/><path class="st1" d="M19.7 8V3.4L15.3 0h-.1v8h4.5z"/><path class="st0" d="M15.2 15.6h-4.5V20h4.5v-4.4z"/><path class="st1" d="M19.7 12v4.6L15.3 20h-.1v-8h4.5zM10.5 0L6.2 3.4v13.2l4.4 3.4h.1V0h-.2z"/><path class="st0" d="M.3 12.4l4.2-3.1s.2-.3.2-.1v8.2L.4 14.7l-.5-1v-.5c.1 0 .1-.6.4-.8z"/><path class="st1" d="M0 13.3v7.1c0 .6.3 1.2.8 1.6l11.1 7.9s.1.1.3.1c.1 0 .1-.1.1-.2v-6.6s0-.3-.1-.4L.8 14.5c-.2-.1-.3-.3-.4-.5-.2-.2-.4-.5-.4-.7 0-.1 0 .1 0 0"/><path class="st0" d="M25.5 12.4l-4.2-3.1s-.2-.3-.2-.1v8.2l4.3-2.7.5-1v-.5s0-.6-.4-.8z"/><path class="st1" d="M25.9 13.3v7.1c0 .6-.3 1.2-.8 1.5l-11.1 8s-.1.1-.3.1c-.1 0-.1-.1-.1-.2v-6.6s0-.3.1-.4L25 14.5c.2-.1.3-.3.4-.5.2-.2.4-.5.5-.7 0-.1 0 .1 0 0"/><path class="st0" d="M113.2 13.2c-.4.8-1.1 1.5-2.1 2s-2.2.8-3.7.8H104v7.3h-3V5.2h6.3c1.4 0 2.6.2 3.6.7 1 .5 1.7 1.1 2.2 1.9.5.8.7 1.7.7 2.7 0 1-.2 1.8-.6 2.7zm-3.3-.5c.6-.5.8-1.2.8-2.2 0-2-1.1-3-3.4-3H104v5.9h3.3c1.2.1 2-.2 2.6-.7zm5.9-.5c.6-1.1 1.4-2 2.5-2.6 1-.6 2.2-.9 3.5-.9 1.1 0 2.1.2 3 .7.9.4 1.5 1 2 1.7V8.9h3v14.3h-3v-2.1c-.5.7-1.2 1.2-2.1 1.7-.9.5-1.9.7-3 .7-1.3 0-2.4-.3-3.4-1-1-.6-1.9-1.5-2.5-2.7-.6-1.1-.9-2.4-.9-3.9s.3-2.6.9-3.7zm10.3 1.3c-.4-.7-1-1.3-1.6-1.7-.7-.4-1.4-.6-2.2-.6-.8 0-1.5.2-2.2.6-.7.4-1.2.9-1.6 1.6-.4.7-.6 1.6-.6 2.6s.2 1.9.6 2.6c.4.7 1 1.3 1.6 1.7.7.4 1.4.6 2.2.6.8 0 1.5-.2 2.2-.6.7-.4 1.2-.9 1.6-1.7.4-.7.6-1.6.6-2.6s-.2-1.8-.6-2.5zM146 8.9L137.1 30H134l3-7-5.7-14.1h3.4l4.1 10.9 4.3-10.9h2.9z"/><path class="st1" d="M46.1 18.3c.1-.1.3 0 .3.2v2.9c-1.6 1.3-3.6 1.9-5.8 1.9-5.1 0-8.1-3.5-8.1-9 0-5.7 3.6-9.1 8.4-9.1 2.3 0 3.9.4 5.4 1.7v2.9c0 .2-.2.3-.3.2-1.5-1.6-3-2.3-4.9-2.3-3.1 0-5.5 2.2-5.5 6.6 0 4.5 1.9 6.7 5.4 6.7 1.9-.2 3.6-1.1 5.1-2.7zm9.2 5c-5 0-7.8-3.9-7.8-9s2.9-9.1 7.8-9.1c5 0 7.9 4 7.9 9.1 0 5-2.9 9-7.9 9zm0-2.5c3.2 0 4.9-2.7 4.9-6.6 0-3.9-1.7-6.6-4.9-6.6s-4.8 2.7-4.8 6.6c-.1 3.9 1.6 6.6 4.8 6.6zm23.3-2.5c.1-.1.3 0 .3.2v2.9c-1.6 1.3-3.6 1.9-5.8 1.9-5.1 0-8.1-3.5-8.1-9 0-5.7 3.6-9.1 8.4-9.1 2.3 0 3.9.4 5.4 1.7v2.9c0 .2-.2.3-.3.2-1.5-1.6-3-2.3-4.9-2.3-3.1 0-5.5 2.2-5.5 6.6 0 4.5 1.9 6.7 5.4 6.7 1.9-.2 3.7-1.1 5.1-2.7zm9.2 5c-5 0-7.8-3.9-7.8-9s2.9-9.1 7.8-9.1c5 0 7.9 4 7.9 9.1 0 5-2.9 9-7.9 9zm0-2.5c3.2 0 4.9-2.7 4.9-6.6 0-3.9-1.7-6.6-4.9-6.6S83 10.3 83 14.2c0 3.9 1.6 6.6 4.8 6.6z"/></svg>