<svg xmlns="http://www.w3.org/2000/svg" id="그룹_1090" width="20" height="20" data-name="그룹 1090" viewBox="0 0 20 20"><defs><style>.cls-2{fill:#89afd2}.cls-3{fill:#fff}</style></defs><g id="그룹_1081" data-name="그룹 1081"><circle id="타원_41" cx="10" cy="10" r="10" fill="#0068c1" data-name="타원 41"/></g><g id="그룹_1085" data-name="그룹 1085" transform="translate(3.908 2.907)"><g id="그룹_1082" data-name="그룹 1082" transform="translate(0 .004)"><path id="패스_1198" d="M18.977 18.271H21.1v-2.062h-2.178z" class="cls-2" data-name="패스 1198" transform="translate(-13.957 -8.819)"/><path id="사각형_273" d="M0 0h2.276v2.061H0z" class="cls-2" data-name="사각형 273" transform="translate(4.964)"/><path id="패스_1199" d="M25.988 14.572l-1.969-1.484s-.117-.121-.117-.031v3.927l1.998-1.308.243-.463v-.251a.51.51 0 0 0-.152-.39" class="cls-2" data-name="패스 1199" transform="translate(-13.957 -8.819)"/><path id="패스_1200" d="M14.11 14.572l1.969-1.484s.116-.121.116-.031v3.927L14.2 15.676l-.243-.463v-.251a.508.508 0 0 1 .153-.39" class="cls-2" data-name="패스 1200" transform="translate(-13.957 -8.819)"/></g><path id="패스_1201" d="M13.962 15.046v3.386a.908.908 0 0 0 .373.724l5.173 3.8s.069.062.123.041.054-.026.054-.1v-3.163a.258.258 0 0 0-.069-.2l-5.279-3.954a.93.93 0 0 1-.206-.214 1.2 1.2 0 0 1-.163-.292c-.017-.1-.009-.022-.009-.022" class="cls-3" data-name="패스 1201" transform="translate(-13.957 -8.815)"/><path id="패스_1202" d="M26.136 15.046v3.386a.911.911 0 0 1-.373.724l-5.173 3.8s-.069.062-.123.041-.054-.026-.054-.1v-3.163a.258.258 0 0 1 .069-.2l5.278-3.954a.91.91 0 0 0 .206-.214 1.173 1.173 0 0 0 .164-.292c.017-.1.008-.022.008-.022" class="cls-3" data-name="패스 1202" transform="translate(-13.957 -8.815)"/><g id="그룹_1084" data-name="그룹 1084" transform="translate(2.929)"><path id="패스_1203" d="M21.1 8.828l.065-.006 2.014 1.588v2.162h-2.085z" class="cls-3" data-name="패스 1203" transform="translate(-16.886 -8.815)"/><g id="그룹_1083" data-name="그룹 1083"><path id="패스_1204" d="M16.9 10.416l2.014-1.6h.065v9.456l-2.091-1.536z" class="cls-3" data-name="패스 1204" transform="translate(-16.886 -8.815)"/><path id="패스_1205" d="M21.092 14.521v3.757l2.089-1.553v-2.2z" class="cls-3" data-name="패스 1205" transform="translate(-16.886 -8.815)"/></g></g></g></svg>