<svg width="173" height="90" viewBox="0 0 173 90" fill="none" xmlns="http://www.w3.org/2000/svg"><g clip-path="url(#clip0)"><path d="M23.302 65.364h18.934L0 23.208v18.898l23.302 23.258z" fill="#B2023D"/><path d="M173 8.099V1.995h-27.305l-1.755 1.633-1.755 1.633-1.754-1.633-1.755-1.633H2.204V8.1a3.874 3.874 0 0 1 3.83 3.87 3.876 3.876 0 0 1-3.83 3.871v3.602a3.874 3.874 0 0 1 3.83 3.87 3.876 3.876 0 0 1-3.83 3.871v3.603a3.874 3.874 0 0 1 3.83 3.87 3.874 3.874 0 0 1-3.83 3.87v3.603A3.874 3.874 0 0 1 6.034 46a3.874 3.874 0 0 1-3.83 3.871v3.602a3.874 3.874 0 0 1 3.83 3.87 3.875 3.875 0 0 1-3.83 3.871v3.602a3.874 3.874 0 0 1 3.83 3.871 3.876 3.876 0 0 1-3.83 3.87v3.603a3.874 3.874 0 0 1 3.83 3.87 3.876 3.876 0 0 1-3.83 3.871v6.103h136.474l1.755-1.632 1.754-1.633 1.755 1.633 1.754 1.632H173V83.9a3.876 3.876 0 0 1-3.83-3.87 3.876 3.876 0 0 1 3.83-3.871v-3.602a3.876 3.876 0 0 1-3.83-3.87 3.876 3.876 0 0 1 3.83-3.871v-3.603a3.875 3.875 0 0 1-3.83-3.87 3.876 3.876 0 0 1 3.83-3.87V49.87a3.875 3.875 0 0 1-3.83-3.87 3.875 3.875 0 0 1 3.83-3.871v-3.602a3.875 3.875 0 0 1-3.83-3.87 3.875 3.875 0 0 1 3.83-3.871v-3.603a3.875 3.875 0 0 1-3.83-3.87 3.875 3.875 0 0 1 3.83-3.87V15.84a3.875 3.875 0 0 1-3.83-3.87A3.875 3.875 0 0 1 173 8.098z" fill="#fff"/><path d="M142.282 6.394a.284.284 0 0 1-.284-.284v-.994a.284.284 0 0 1 .568 0v.994a.283.283 0 0 1-.284.284zm0 77.828a.284.284 0 0 1-.284-.284v-1.946a.284.284 0 0 1 .568 0v1.946a.284.284 0 0 1-.284.284zm0-3.891a.284.284 0 0 1-.284-.284v-1.948a.284.284 0 0 1 .568 0v1.946a.284.284 0 0 1-.284.285zm0-3.892a.284.284 0 0 1-.284-.283V74.21a.284.284 0 0 1 .568 0v1.946a.284.284 0 0 1-.284.283zm0-3.89a.284.284 0 0 1-.284-.285V70.32a.284.284 0 0 1 .568 0v1.945a.284.284 0 0 1-.284.284zm0-3.892a.284.284 0 0 1-.284-.284v-1.946a.284.284 0 0 1 .568 0v1.946a.284.284 0 0 1-.284.284zm0-3.893a.284.284 0 0 1-.284-.284v-1.946a.284.284 0 0 1 .568 0v1.946a.283.283 0 0 1-.284.284zm0-3.891a.284.284 0 0 1-.284-.284v-1.946a.284.284 0 0 1 .568 0v1.946a.284.284 0 0 1-.284.284zm0-3.892a.284.284 0 0 1-.284-.283v-1.946a.284.284 0 0 1 .568 0v1.946a.284.284 0 0 1-.284.283zm0-3.89a.284.284 0 0 1-.284-.285v-1.945a.284.284 0 0 1 .568 0v1.946a.284.284 0 0 1-.284.283zm0-3.892a.284.284 0 0 1-.284-.284V46.97a.284.284 0 0 1 .568 0v1.945a.284.284 0 0 1-.284.284zm0-3.891a.284.284 0 0 1-.284-.284v-1.946a.284.284 0 0 1 .568 0v1.946a.284.284 0 0 1-.284.284zm0-3.891a.284.284 0 0 1-.284-.284v-1.946a.284.284 0 0 1 .568 0v1.946a.284.284 0 0 1-.284.284zm0-3.892a.284.284 0 0 1-.284-.283v-1.946a.284.284 0 0 1 .568 0v1.946a.284.284 0 0 1-.284.284zm0-3.89a.284.284 0 0 1-.284-.285v-1.945a.284.284 0 0 1 .568 0v1.945a.284.284 0 0 1-.284.284zm0-3.892a.284.284 0 0 1-.284-.284v-1.945a.284.284 0 0 1 .568 0v1.945a.284.284 0 0 1-.284.284zm0-3.891a.284.284 0 0 1-.284-.284v-1.946a.284.284 0 0 1 .568 0v1.946a.284.284 0 0 1-.284.284zm0-3.891a.284.284 0 0 1-.284-.284V19.73a.284.284 0 0 1 .568 0v1.946a.284.284 0 0 1-.284.284zm0-3.891a.284.284 0 0 1-.284-.284V15.84a.284.284 0 0 1 .568 0v1.946a.284.284 0 0 1-.284.284zm0-3.892a.284.284 0 0 1-.284-.284V11.95a.284.284 0 0 1 .568 0v1.946a.284.284 0 0 1-.284.283zm0-3.89a.284.284 0 0 1-.284-.285V8.056a.284.284 0 0 1 .568 0v1.946a.284.284 0 0 1-.284.285zm0 76.872a.284.284 0 0 1-.284-.284v-.994a.284.284 0 0 1 .568 0v.994a.284.284 0 0 1-.284.284z" fill="#000"/><path d="M159.601 70.766c0-.635-.224-1.247-.635-1.775l1.059-.812c.554.775.86 1.67.86 2.623 0 2.47-1.709 4.364-4.265 4.364-2.429 0-4.266-1.964-4.266-4.398 0-.883.271-1.659.731-2.4l1.131.693c-.354.494-.578 1.082-.578 1.707 0 1.646 1.284 2.859 2.982 2.859 1.803-.002 2.981-1.13 2.981-2.861zm1.284-9.031c0 2.423-1.909 4.27-4.265 4.27-2.358 0-4.266-1.847-4.266-4.27 0-2.436 1.91-4.282 4.266-4.282 2.358 0 4.265 1.846 4.265 4.282zm-7.247 0c0 1.575 1.308 2.73 2.982 2.73 1.673 0 2.981-1.153 2.981-2.73 0-1.588-1.308-2.74-2.981-2.74-1.674-.002-2.982 1.15-2.982 2.74zm3.23-14.173c2.592 0 4.019.977 4.019 3.294 0 2.258-1.425 3.236-4.019 3.236h-4.373v-1.46h4.621c1.674 0 2.487-.694 2.487-1.799 0-1.116-.813-1.811-2.487-1.811h-4.621v-1.459h4.373v-.002zm-4.373-6.282c0-1.375.673-3.011 2.522-3.011 1.861 0 2.534 1.624 2.534 3.012v1.094h3.193v1.459h-8.249V41.28zm3.806 1.095v-.824c0-1-.329-1.741-1.25-1.741-.813 0-1.308.612-1.308 1.505v1.058h2.558v.002zm4.584-11.034c0 2.424-1.909 4.27-4.265 4.27-2.358 0-4.266-1.848-4.266-4.27 0-2.436 1.91-4.282 4.266-4.282 2.358 0 4.265 1.848 4.265 4.282zm-7.247 0c0 1.576 1.308 2.728 2.982 2.728 1.673 0 2.981-1.152 2.981-2.728 0-1.588-1.308-2.74-2.981-2.74-1.674 0-2.982 1.152-2.982 2.74zm7.106-13.208l-5.574 4.07h5.574v1.459h-8.249v-1.281l5.586-4.095h-5.586v-1.459h8.251v1.306h-.002z" fill="#FF2A6A"/><path d="M33.601 31.97v-.755h2.122v1.918c-.507.662-1.286.99-2.129.99-1.52 0-2.67-1.04-2.67-2.58 0-1.467 1.192-2.58 2.67-2.58.814 0 1.514.342 2.036.94l-.62.527c-.35-.399-.843-.691-1.414-.691-1 0-1.735.777-1.735 1.803 0 1.09.706 1.802 1.735 1.802.457 0 .907-.17 1.243-.485v-.89H33.6zm6.876 2.067v-4.989h.885v4.989h-.886zm6.626-2.067v2.067h-.886v-4.989h2.672v.755h-1.786v1.41h1.786v.756h-1.786zm8.054-2.167v4.234h-.886v-4.234h-1.213v-.755h3.313v.755h-1.214zm13.045 4.234h-.736l-1.892-4.989h1.014l1.299 3.642h.007l1.329-3.642h.972l-1.993 4.989zm8.504.086a2.561 2.561 0 0 1-2.592-2.58 2.561 2.561 0 0 1 2.592-2.58c1.479 0 2.6 1.153 2.6 2.58 0 1.424-1.121 2.58-2.6 2.58zm0-4.383c-.956 0-1.656.791-1.656 1.803 0 1.011.7 1.802 1.656 1.802.964 0 1.663-.791 1.663-1.802 0-1.012-.698-1.803-1.663-1.803zm11.175 1.952c0 1.569-.593 2.43-1.999 2.43-1.37 0-1.963-.861-1.963-2.43v-2.644h.886v2.794c0 1.011.42 1.503 1.093 1.503.677 0 1.1-.492 1.1-1.503v-2.794h.885v2.644h-.002zm7.284 1.653c.386 0 .756-.136 1.079-.385l.493.642a2.723 2.723 0 0 1-1.593.52c-1.5 0-2.649-1.035-2.649-2.581 0-1.468 1.193-2.58 2.672-2.58.536 0 1.006.163 1.456.442l-.42.684a1.797 1.797 0 0 0-1.036-.349c-1 0-1.736.777-1.736 1.803-.002 1.092.683 1.804 1.734 1.804zm9.224.692v-2.188h-2.335v2.188h-.884v-4.989h.885v2.046h2.336v-2.046h.886v4.989h-.888zm5.741 0v-4.989h3.121v.755h-2.235v1.29h2.235v.756h-2.235v1.433h2.235v.755h-3.121zm9.326-4.989c.793 0 1.779.406 1.779 1.468 0 .805-.557 1.233-1.143 1.396l1.549 2.125h-1.099l-1.429-2.039h-.314v2.039h-.886v-4.989h1.543zm-.165 2.195c.579 0 1.006-.206 1.006-.705 0-.442-.35-.735-.863-.735h-.636v1.44h.493zM29.79 62.63V46.124c-.997.475-2.328.948-3.226 1.328v-3.51a109.983 109.983 0 0 0 4.625-2.34h2.66v21.03h-4.058zm24.886-10.5c0 6.737-2.893 10.88-8.085 10.88-5.156 0-8.05-4.143-8.05-10.88 0-6.767 2.894-10.911 8.05-10.911 5.19 0 8.085 4.144 8.085 10.911zm-12.01 0c0 5.029 1.43 7.526 3.925 7.526 2.529 0 3.96-2.497 3.96-7.526 0-5.06-1.431-7.526-3.96-7.526-2.494 0-3.926 2.467-3.926 7.526zm24.371-3.972c0 2.546-2.04 4.449-4.538 4.449-2.523 0-4.564-1.903-4.564-4.449s2.041-4.448 4.564-4.448c2.498.002 4.538 1.904 4.538 4.448zm8.539-3.428L62.205 63.033l-1.719-1.259 13.371-18.303 1.719 1.259zM60.54 48.158c0 1.206.832 2.09 1.96 2.09 1.1 0 1.933-.884 1.933-2.09s-.832-2.09-1.934-2.09c-1.127 0-1.96.885-1.96 2.09zm17.505 10.184c0 2.546-2.04 4.449-4.538 4.449-2.523 0-4.564-1.903-4.564-4.449s2.041-4.448 4.564-4.448c2.498 0 4.538 1.902 4.538 4.448zm-6.497 0c0 1.206.832 2.09 1.96 2.09 1.1 0 1.933-.884 1.933-2.09s-.832-2.09-1.934-2.09c-1.127 0-1.96.884-1.96 2.09zm18.553 4.611c-5.53 0-9.746-4.342-9.746-9.701 0-5.358 4.215-9.7 9.746-9.7 5.559 0 9.773 4.342 9.773 9.7 0 5.359-4.214 9.7-9.773 9.7zm0-16.482c-3.597 0-6.228 2.974-6.228 6.78 0 3.805 2.631 6.779 6.228 6.779 3.625 0 6.257-2.974 6.257-6.78 0-3.805-2.632-6.78-6.257-6.78zm16.298 8.388v7.772h-3.33V43.87h10.041v2.84h-6.711v5.306h6.711v2.84h-6.711v.002zm12.888 0v7.772h-3.33V43.87h10.041v2.84h-6.711v5.306h6.711v2.84h-6.711v.002z" fill="#121212"/><path d="M0 23.267v18.897L42.236.007H23.302L0 23.267z" fill="#FF2A6A"/><path d="M40.227 1.999l2-1.999 2.003 1.999" fill="#B2023D"/><path d="M6.796 29.865c.267-.266.43-.619.48-1.015l.79.103a2.675 2.675 0 0 1-.745 1.466c-1.042 1.04-2.559 1.12-3.636.045-1.022-1.02-.967-2.62.06-3.645.372-.372.814-.585 1.32-.704l.185.767c-.357.06-.7.214-.962.475-.694.693-.665 1.743.05 2.457.755.76 1.729.779 2.458.051zm4.35-3.263a2.522 2.522 0 0 1-3.597.005 2.51 2.51 0 0 1 .005-3.59 2.525 2.525 0 0 1 3.602-.01 2.512 2.512 0 0 1-.01 3.595zm-3.05-3.045c-.666.664-.6 1.698.103 2.402.705.703 1.74.767 2.406.103.67-.67.605-1.703-.1-2.407-.703-.702-1.741-.767-2.41-.098zm7.336-4.61c1.091 1.089 1.28 2.1.304 3.076-.954.95-1.965.762-3.056-.327l-1.84-1.837.614-.615 1.944 1.94c.705.704 1.34.754 1.807.288.47-.47.422-1.104-.283-1.808l-1.944-1.94.615-.614 1.84 1.837zm.808-4.481c.581-.58 1.553-.986 2.333-.209.784.783.382 1.748-.204 2.333l-.462.461 1.345 1.342-.616.614-3.473-3.466 1.078-1.075zm1.142 2.06l.346-.345c.422-.422.596-.873.208-1.258-.343-.342-.808-.292-1.185.085l-.447.445 1.078 1.073zm6.583-2.718a2.522 2.522 0 0 1-3.597.006 2.51 2.51 0 0 1 .006-3.59 2.523 2.523 0 0 1 3.602-.01 2.515 2.515 0 0 1-.01 3.594zm-3.052-3.046c-.665.664-.6 1.698.103 2.401.705.704 1.741.768 2.406.104.67-.67.605-1.704-.1-2.407-.703-.702-1.739-.766-2.409-.098zm8.562-2.574l-4.064-.63 2.348 2.344-.616.614-3.472-3.466.54-.54 4.079.624-2.351-2.348.615-.614 3.473 3.466-.552.55z" fill="#fff"/></g><defs><clipPath id="clip0"><path fill="#fff" d="M0 0h173v90H0z"/></clipPath></defs></svg>