<svg width="24" height="24" viewBox="0 0 24 24" fill="none" xmlns="http://www.w3.org/2000/svg"><path d="M12 24c6.627 0 12-5.373 12-12S18.627 0 12 0 0 5.373 0 12s5.373 12 12 12z" fill="#AA8DD8"/><path d="M6.667 2.667c-1.72 0-3.754-1.644-4.391-2.276A1.332 1.332 0 0 0 0 1.333C0 3.64 1.115 8 5.333 8c.505 0 .967-.285 1.193-.737l1.333-2.667a1.332 1.332 0 0 0-1.192-1.93zM23.177.102a1.33 1.33 0 0 0-1.453.29c-.59.59-2.665 2.275-4.39 2.275a1.333 1.333 0 0 0-1.193 1.93l1.333 2.666c.226.452.687.737 1.193.737C22.885 8 24 3.64 24 1.333c0-.539-.325-1.025-.823-1.231z" fill="#AA8DD8"/><path d="M18.223 17.086a.334.334 0 0 0-.423-.02C17.774 17.087 15.185 19 12 19c-3.177 0-5.775-1.914-5.8-1.933a.333.333 0 0 0-.486.438C5.8 17.648 7.859 21 12 21s6.2-3.352 6.286-3.495a.332.332 0 0 0-.063-.419zm-7.752-4.89C8.301 10.025 4.814 10 4.667 10a.666.666 0 1 0-.001 1.333c.02 0 1.283.015 2.655.492-.395.426-.654 1.089-.654 1.842 0 1.289.746 2.333 1.666 2.333C9.254 16 10 14.956 10 13.667c0-.116-.013-.227-.025-.338.009 0 .017.004.025.004a.666.666 0 0 0 .471-1.138zM19.333 10c-.147 0-3.634.025-5.804 2.195A.666.666 0 0 0 14 13.333c.009 0 .016-.004.024-.004-.01.111-.024.222-.024.338 0 1.289.746 2.333 1.667 2.333.92 0 1.666-1.044 1.666-2.333 0-.753-.259-1.416-.654-1.842a9.285 9.285 0 0 1 2.656-.492.667.667 0 0 0-.002-1.333z" fill="#553986"/></svg>