<svg width="36" height="26" viewBox="0 0 36 26" fill="none" xmlns="http://www.w3.org/2000/svg"><path d="M35.445 2C34.752.809 33.477 0 32 0H18v2h17.445zM0 20h36v2H0v-2zm18-8h18v2H18v-2zm0-4h18v2H18V8zM0 16h36v2H0v-2zm4 10h28c1.477 0 2.752-.809 3.445-2H.555c.693 1.191 1.968 2 3.445 2zM18 4h18v2H18V4z" fill="#B22334"/><path d="M.068 22.679c.017.093.036.186.059.277.026.101.058.198.092.296.089.259.197.509.333.743L.555 24h34.89l.002-.004a4.22 4.22 0 0 0 .332-.741 3.75 3.75 0 0 0 .152-.576c.041-.22.069-.446.069-.679H0c0 .233.028.458.068.679zM0 18h36v2H0v-2zm0-4v2h36v-2H0zm18-4h18v2H18v-2zm0-4h18v2H18V6zM0 4zm.555-2l-.003.005L.555 2zM.128 3.044c.025-.102.06-.199.092-.297a3.78 3.78 0 0 0-.092.297zM18 4h18c0-.233-.028-.459-.069-.68a3.606 3.606 0 0 0-.153-.576A4.21 4.21 0 0 0 35.445 2H18v2z" fill="#EEE"/><path d="M18 0H4a4 4 0 0 0-4 4v10h18V0z" fill="#3C3B6E"/><path d="M2.001 2.726l.618.449-.236.725L3 3.452l.618.448-.236-.725L4 2.726h-.764L3 2l-.235.726h-.764zm2 2l.618.449-.236.725L5 5.452l.618.448-.236-.725L6 4.726h-.764L5 4l-.235.726h-.764zm4 0l.618.449-.236.725L9 5.452l.618.448-.236-.725.618-.449h-.764L9 4l-.235.726h-.764zm4 0l.618.449-.236.725.617-.448.618.448-.236-.725.618-.449h-.764L13 4l-.235.726h-.764zm-8 4l.618.449-.236.725L5 9.452l.618.448-.236-.725L6 8.726h-.764L5 8l-.235.726h-.764zm4 0l.618.449-.236.725L9 9.452l.618.448-.236-.725.618-.449h-.764L9 8l-.235.726h-.764zm4 0l.618.449-.236.725.617-.448.618.448-.236-.725.618-.449h-.764L13 8l-.235.726h-.764zm-6-6l.618.449-.236.725L7 3.452l.618.448-.236-.725L8 2.726h-.764L7 2l-.235.726h-.764zm4 0l.618.449-.236.725.617-.448.618.448-.236-.725.618-.449h-.764L11 2l-.235.726h-.764zm4 0l.618.449-.236.725.617-.448.618.448-.236-.725.618-.449h-.764L15 2l-.235.726h-.764zm-12 4l.618.449-.236.725L3 7.452l.618.448-.236-.725L4 6.726h-.764L3 6l-.235.726h-.764zM6.383 7.9L7 7.452l.618.448-.236-.725L8 6.726h-.764L7 6l-.235.726h-.764l.618.449-.236.725zm3.618-1.174l.618.449-.236.725.617-.448.618.448-.236-.725.618-.449h-.764L11 6l-.235.726h-.764zm4 0l.618.449-.236.725.617-.448.618.448-.236-.725.618-.449h-.764L15 6l-.235.726h-.764zm-12 4l.618.449-.236.725.617-.448.618.448-.236-.725.618-.449h-.764L3 10l-.235.726h-.764zM6.383 11.9L7 11.452l.618.448-.236-.725.618-.449h-.764L7 10l-.235.726h-.764l.618.449-.236.725zm3.618-1.174l.618.449-.236.725.617-.448.618.448-.236-.725.618-.449h-.764L11 10l-.235.726h-.764zm4 0l.618.449-.236.725.617-.448.618.448-.236-.725.618-.449h-.764L15 10l-.235.726h-.764z" fill="#fff"/></svg>