<svg width="37" height="26" viewBox="0 0 37 26" fill="none" xmlns="http://www.w3.org/2000/svg"><path d="M36.5 22a4 4 0 0 1-4 4h-28a4 4 0 0 1-4-4V4a4 4 0 0 1 4-4h28a4 4 0 0 1 4 4v18z" fill="#C60A1D"/><path d="M.5 7h36v12H.5V7z" fill="#FFC400"/><path d="M9.5 12v3a3 3 0 1 0 6 0v-3h-6z" fill="#EA596E"/><path d="M12.5 11h3v3h-3v-3z" fill="#F4A2B2"/><path d="M9.5 11h3v3h-3v-3z" fill="#DD2E44"/><path d="M12.5 11c1.657 0 3-.672 3-1.5S14.157 8 12.5 8s-3 .672-3 1.5 1.343 1.5 3 1.5z" fill="#EA596E"/><path d="M12.5 9.5c1.657 0 3-.336 3-.75S14.157 8 12.5 8s-3 .336-3 .75 1.343.75 3 .75z" fill="#FFAC33"/><path d="M7.5 11h1v7h-1v-7zm9 0h1v7h-1v-7z" fill="#99AAB5"/><path d="M6.5 17h3v1h-3v-1zm9 0h3v1h-3v-1zm-8-7h1v1h-1v-1zm9 0h1v1h-1v-1z" fill="#66757F"/></svg>