<svg xmlns="http://www.w3.org/2000/svg" width="153" height="160" fill="none" viewBox="0 0 153 160"><path fill="#E99688" d="M0 57.525V124.5l88-53.24 1.75-62.335c.11-3.906-4.103-6.423-7.49-4.475L5.016 48.855A10.002 10.002 0 0 0 0 57.526z"/><path fill="#EDECD7" d="M5.367 61.865L1 123.5l87-52 6.602-57.69c.468-4.094-3.94-6.965-7.496-4.882l-76.82 45.016a10.003 10.003 0 0 0-4.92 7.921z"/><path fill="#E99688" d="M56.758 157.136L0 124.5l88.304-52.196 56.534 31.23c3.411 1.884 3.451 6.772.072 8.712l-78.188 44.893a10 10 0 0 1-9.964-.003z"/><path fill="#F3F4E4" d="M57.015 155.819L1 123.5l87-52 56.969 30.756c3.448 1.862 3.512 6.785.114 8.736L66.992 155.83a10 10 0 0 1-9.977-.011z"/><path fill="#E2AE44" fill-rule="evenodd" d="M69.403 110.065h3.318v4.509h-.003c-.168 4.115-8.152 7.428-17.976 7.428s-17.808-3.313-17.976-7.428h-.003v-4.509h3.318c3.258-1.927 8.61-3.184 14.66-3.184 6.051 0 11.403 1.257 14.662 3.184z" clip-rule="evenodd"/><ellipse cx="54.621" cy="110.463" fill="#EDDA4B" rx="18.099" ry="8.723"/><path fill="#EDC44B" d="M69.839 112.291c-2.093 4.05-10.609 6.516-19.011 5.505-8.403-1.009-13.52-5.113-11.422-9.162 2.093-4.05 10.603-6.516 19.006-5.505 8.407 1.009 13.52 5.113 11.427 9.162z"/><path fill="#EFEA62" d="M61.54 109.385c.313-1.006-1.28-1.547-3.452-1.906l.706-1.364-1.72-.208-.687 1.328a125.71 125.71 0 0 0-1.378-.156l.691-1.335-1.72-.207-.706 1.363c-.373-.04-.74-.083-1.098-.125v-.005l-2.373-.286-.456.886s1.28.142 1.25.149c.696.085.824.307.804.482l-.804 1.552c.05.005.113.014.177.028l-.182-.021-1.127 2.174c-.084.101-.3.255-.79.196.02.012-1.25-.151-1.25-.151l-.852.949 2.24.27c.416.049.823.104 1.225.153l-.71 1.378 1.72.208.706-1.364c.47.062.927.119 1.373.173l-.711 1.358 1.72.208.711-1.375c2.937.267 5.143.161 6.07-1.12.75-1.03-.04-1.625-1.584-2.013 1.133-.125 1.976-.482 2.206-1.219zm-3.937 2.658c-.53 1.03-4.133.473-5.3.333l.946-1.826c1.172.142 4.912.418 4.354 1.493zm.534-2.672c-.485.938-3.48.461-4.451.345l.858-1.656c.97.116 4.098.333 3.593 1.311z"/><path fill="#E2AE44" fill-rule="evenodd" d="M92.881 89.195H96.2v4.51h-.003c-.168 4.114-8.152 7.427-17.976 7.427s-17.808-3.313-17.976-7.427h-.003v-4.509h3.318c3.259-1.927 8.61-3.184 14.661-3.184 6.05 0 11.403 1.257 14.661 3.183z" clip-rule="evenodd"/><ellipse cx="78.099" cy="89.593" fill="#EDDA4B" rx="18.099" ry="8.723"/><path fill="#EDC44B" d="M93.317 91.422c-2.093 4.05-10.609 6.516-19.011 5.505-8.403-1.01-13.52-5.113-11.422-9.163 2.093-4.05 10.603-6.516 19.006-5.505 8.407 1.01 13.52 5.113 11.427 9.163z"/><path fill="#EFEA62" d="M85.017 88.516c.314-1.007-1.28-1.548-3.451-1.907l.706-1.363-1.72-.208-.687 1.328a90.46 90.46 0 0 0-1.378-.156l.692-1.335-1.721-.208-.706 1.363c-.373-.04-.74-.082-1.098-.125V85.9l-2.373-.286-.456.886s1.28.142 1.25.15c.697.084.824.306.804.481l-.804 1.552c.05.005.113.015.177.029l-.181-.022-1.128 2.174c-.083.102-.3.255-.79.196.02.012-1.25-.151-1.25-.151l-.852.95 2.24.27c.417.049.824.103 1.225.153l-.71 1.377 1.72.208.706-1.363c.47.061.927.118 1.373.172l-.71 1.359 1.72.208.71-1.375c2.937.267 5.143.16 6.07-1.12.75-1.03-.04-1.626-1.584-2.013 1.133-.125 1.976-.482 2.206-1.22zm-3.936 2.658c-.53 1.03-4.133.472-5.3.333l.947-1.827c1.171.142 4.912.419 4.353 1.494zm.534-2.673c-.485.938-3.48.461-4.451.345l.858-1.656c.97.116 4.098.333 3.593 1.311z"/><path fill="#E2AE44" fill-rule="evenodd" d="M69.403 106.586h3.318v4.51h-.003c-.168 4.114-8.152 7.428-17.976 7.428s-17.808-3.314-17.976-7.428h-.003v-4.51h3.318c3.258-1.926 8.61-3.183 14.66-3.183 6.051 0 11.403 1.257 14.662 3.183z" clip-rule="evenodd"/><ellipse cx="54.621" cy="106.984" fill="#EDDA4B" rx="18.099" ry="8.723"/><path fill="#EDC44B" d="M69.839 108.813c-2.093 4.05-10.609 6.516-19.011 5.505-8.403-1.009-13.52-5.113-11.422-9.162 2.093-4.05 10.603-6.517 19.006-5.505 8.407 1.009 13.52 5.112 11.427 9.162z"/><path fill="#EFEA62" d="M61.54 105.907c.313-1.006-1.28-1.548-3.452-1.907l.706-1.363-1.72-.208-.687 1.328a125.71 125.71 0 0 0-1.378-.156l.691-1.335-1.72-.208-.706 1.363c-.373-.04-.74-.082-1.098-.125v-.004l-2.373-.286-.456.886s1.28.141 1.25.149c.696.085.824.307.804.481l-.804 1.553c.05.004.113.014.177.028l-.182-.021-1.127 2.173c-.084.102-.3.256-.79.197.02.011-1.25-.152-1.25-.152l-.852.95 2.24.269c.416.05.823.104 1.225.154l-.71 1.377 1.72.208.706-1.363c.47.062.927.118 1.373.173l-.711 1.358 1.72.208.711-1.375c2.937.267 5.143.161 6.07-1.12.75-1.03-.04-1.625-1.584-2.013 1.133-.125 1.976-.482 2.206-1.219zm-3.937 2.658c-.53 1.03-4.133.472-5.3.333l.946-1.826c1.172.142 4.912.418 4.354 1.493zm.534-2.672c-.485.938-3.48.461-4.451.345l.858-1.656c.97.115 4.098.333 3.593 1.311z"/><path fill="#E2AE44" fill-rule="evenodd" d="M92.881 85.717H96.2v4.51h-.003c-.168 4.114-8.152 7.427-17.976 7.427s-17.808-3.313-17.976-7.427h-.003v-4.51h3.318c3.259-1.927 8.61-3.183 14.661-3.183 6.05 0 11.403 1.256 14.661 3.183z" clip-rule="evenodd"/><ellipse cx="78.099" cy="86.115" fill="#EDDA4B" rx="18.099" ry="8.723"/><path fill="#EDC44B" d="M93.317 87.943c-2.093 4.05-10.609 6.517-19.011 5.505-8.403-1.008-13.52-5.112-11.422-9.162 2.093-4.05 10.603-6.516 19.006-5.505 8.407 1.009 13.52 5.113 11.427 9.162z"/><path fill="#EFEA62" d="M85.017 85.037c.314-1.006-1.28-1.547-3.451-1.906l.706-1.364-1.72-.207-.687 1.327a125.71 125.71 0 0 0-1.378-.156l.692-1.334-1.721-.208-.706 1.363c-.373-.04-.74-.083-1.098-.125v-.005l-2.373-.286-.456.886s1.28.142 1.25.149c.697.085.824.307.804.482l-.804 1.552c.05.005.113.014.177.029l-.181-.022-1.128 2.174c-.083.102-.3.255-.79.196.02.012-1.25-.151-1.25-.151l-.852.95 2.24.269c.417.05.824.104 1.225.153l-.71 1.378 1.72.208.706-1.364c.47.062.927.119 1.373.173l-.71 1.359 1.72.207.71-1.375c2.937.267 5.143.161 6.07-1.12.75-1.03-.04-1.625-1.584-2.013 1.133-.125 1.976-.481 2.206-1.219zm-3.936 2.658c-.53 1.03-4.133.473-5.3.334l.947-1.827c1.171.142 4.912.418 4.353 1.493zm.534-2.672c-.485.938-3.48.461-4.451.345l.858-1.656c.97.116 4.098.333 3.593 1.311z"/><path fill="#E2AE44" fill-rule="evenodd" d="M69.598 102.815h3.318v4.509h-.003c-.168 4.115-8.152 7.428-17.976 7.428s-17.807-3.313-17.976-7.428h-.002v-4.509h3.317c3.259-1.927 8.611-3.184 14.661-3.184 6.05 0 11.403 1.257 14.661 3.184z" clip-rule="evenodd"/><ellipse cx="54.817" cy="103.213" fill="#EDDA4B" rx="18.099" ry="8.723"/><path fill="#EDC44B" d="M70.034 105.041c-2.093 4.05-10.608 6.516-19.01 5.505-8.403-1.009-13.521-5.113-11.423-9.162 2.093-4.05 10.604-6.516 19.006-5.505 8.407 1.009 13.52 5.113 11.427 9.162z"/><path fill="#EFEA62" d="M61.734 102.135c.314-1.006-1.28-1.547-3.45-1.906l.705-1.364-1.72-.208-.687 1.328c-.45-.054-.917-.106-1.377-.156l.69-1.335-1.72-.208-.706 1.364a88.96 88.96 0 0 1-1.098-.126v-.004l-2.373-.286-.456.886s1.28.142 1.25.149c.697.085.824.307.804.482l-.803 1.552c.049.005.112.014.176.028l-.181-.021-1.128 2.174c-.083.101-.299.255-.79.196.02.012-1.25-.151-1.25-.151l-.852.949 2.24.27c.417.049.824.104 1.226.153l-.711 1.378 1.72.208.706-1.364c.471.062.927.118 1.373.173l-.71 1.358 1.72.208.71-1.375c2.937.267 5.143.161 6.07-1.12.75-1.03-.04-1.625-1.584-2.013 1.133-.125 1.976-.482 2.206-1.219zm-3.936 2.658c-.53 1.03-4.133.473-5.3.333l.947-1.826c1.171.142 4.912.418 4.353 1.493zm.534-2.672c-.485.938-3.48.461-4.451.345l.858-1.656c.97.116 4.098.333 3.593 1.311z"/><path fill="#E2AE44" fill-rule="evenodd" d="M92.207 82.239h3.318v4.51h-.003c-.168 4.114-8.152 7.427-17.976 7.427s-17.808-3.313-17.976-7.428h-.003v-4.509h3.318c3.259-1.927 8.61-3.184 14.661-3.184 6.05 0 11.402 1.257 14.661 3.184z" clip-rule="evenodd"/><ellipse cx="77.425" cy="82.636" fill="#EDDA4B" rx="18.099" ry="8.723"/><path fill="#EDC44B" d="M92.643 84.465c-2.094 4.05-10.609 6.516-19.011 5.505-8.403-1.009-13.52-5.113-11.422-9.162 2.093-4.05 10.603-6.516 19.006-5.505 8.407 1.009 13.52 5.113 11.427 9.162z"/><path fill="#EFEA62" d="M84.343 81.56c.314-1.007-1.28-1.548-3.451-1.907l.706-1.364-1.72-.208-.687 1.328a125.71 125.71 0 0 0-1.378-.156l.692-1.335-1.721-.208-.706 1.364c-.373-.04-.74-.083-1.098-.126v-.004l-2.373-.286-.456.886s1.28.142 1.25.149c.696.085.824.307.804.482l-.804 1.552c.05.005.113.014.177.028l-.182-.021-1.127 2.174c-.083.101-.3.255-.79.196a62 62 0 0 1-1.25-.151l-.852.95 2.24.269c.417.05.823.104 1.225.153l-.71 1.378 1.72.207.706-1.363c.47.062.927.118 1.373.173l-.71 1.358 1.72.208.71-1.375c2.937.267 5.143.16 6.07-1.12.75-1.03-.04-1.625-1.584-2.013 1.132-.125 1.976-.482 2.206-1.219zm-3.936 2.657c-.53 1.03-4.133.473-5.3.333l.946-1.826c1.172.142 4.913.418 4.354 1.493zm.534-2.672c-.485.938-3.48.46-4.451.345l.858-1.656c.97.116 4.098.333 3.593 1.311z"/><path fill="#E2AE44" fill-rule="evenodd" d="M65.925 98.76h3.318v4.51h-.003c-.169 4.114-8.152 7.428-17.976 7.428s-17.808-3.314-17.976-7.428h-.003v-4.509h3.318c3.258-1.927 8.61-3.184 14.66-3.184 6.05 0 11.403 1.257 14.662 3.183z" clip-rule="evenodd"/><ellipse cx="51.143" cy="99.158" fill="#EDDA4B" rx="18.099" ry="8.723"/><path fill="#EDC44B" d="M66.36 100.987c-2.093 4.049-10.608 6.516-19.01 5.505-8.403-1.009-13.52-5.113-11.423-9.162 2.094-4.05 10.604-6.517 19.006-5.505 8.408 1.008 13.52 5.112 11.428 9.162z"/><path fill="#EFEA62" d="M58.06 98.08c.314-1.006-1.279-1.547-3.45-1.906l.706-1.363-1.721-.208-.687 1.328a122.8 122.8 0 0 0-1.377-.156l.691-1.335-1.72-.208-.706 1.363c-.373-.04-.74-.082-1.099-.125v-.004l-2.372-.286-.456.886s1.28.141 1.25.148c.696.085.824.308.804.482l-.804 1.553c.049.004.113.014.176.028l-.18-.021-1.128 2.173c-.084.102-.3.256-.79.196.02.012-1.25-.151-1.25-.151l-.853.95 2.24.269c.417.05.824.104 1.226.154l-.71 1.377 1.72.208.706-1.363c.47.061.926.118 1.372.172l-.71 1.359 1.72.208.711-1.375c2.937.267 5.143.161 6.07-1.12.75-1.03-.04-1.626-1.584-2.013 1.132-.125 1.975-.482 2.206-1.22zm-3.936 2.659c-.53 1.03-4.132.472-5.299.333l.946-1.826c1.172.141 4.912.418 4.353 1.493zm.535-2.672c-.486.938-3.481.46-4.452.345l.858-1.657c.97.116 4.099.334 3.594 1.312z"/><path fill="#E2AE44" fill-rule="evenodd" d="M92.881 78.76H96.2v4.51h-.003c-.168 4.114-8.152 7.428-17.976 7.428s-17.808-3.314-17.976-7.428h-.003v-4.51h3.318c3.259-1.926 8.61-3.183 14.661-3.183 6.05 0 11.403 1.257 14.661 3.183z" clip-rule="evenodd"/><ellipse cx="78.099" cy="79.158" fill="#EDDA4B" rx="18.099" ry="8.723"/><path fill="#EDC44B" d="M93.317 80.987c-2.093 4.05-10.609 6.516-19.011 5.505-8.403-1.009-13.52-5.113-11.422-9.162 2.093-4.05 10.603-6.517 19.006-5.505 8.407 1.008 13.52 5.112 11.427 9.162z"/><path fill="#EFEA62" d="M85.017 78.08c.314-1.006-1.28-1.547-3.451-1.906l.706-1.363-1.72-.208-.687 1.328a125.71 125.71 0 0 0-1.378-.156l.692-1.335-1.721-.208-.706 1.363c-.373-.04-.74-.082-1.098-.125v-.004l-2.373-.286-.456.886s1.28.141 1.25.148c.697.085.824.308.804.482l-.804 1.553c.05.004.113.014.177.028l-.181-.021-1.128 2.173c-.083.102-.3.255-.79.197.02.011-1.25-.152-1.25-.152l-.852.95 2.24.27c.417.049.824.103 1.225.153l-.71 1.377 1.72.208.706-1.363c.47.061.927.118 1.373.172l-.71 1.359 1.72.208.71-1.375c2.937.267 5.143.16 6.07-1.12.75-1.03-.04-1.626-1.584-2.013 1.133-.125 1.976-.482 2.206-1.22zm-3.936 2.659c-.53 1.03-4.133.472-5.3.333l.947-1.826c1.171.141 4.912.418 4.353 1.493zm.534-2.672c-.485.938-3.48.46-4.451.345l.858-1.657c.97.116 4.098.334 3.593 1.312z"/><path fill="#E2AE44" fill-rule="evenodd" d="M93.75 75.282h3.319v4.51h-.003c-.169 4.114-8.152 7.427-17.976 7.427s-17.808-3.313-17.976-7.427h-.003v-4.509h3.318c3.258-1.927 8.61-3.184 14.66-3.184 6.051 0 11.403 1.257 14.662 3.183z" clip-rule="evenodd"/><ellipse cx="78.969" cy="75.68" fill="#EDDA4B" rx="18.099" ry="8.723"/><path fill="#EDC44B" d="M94.186 77.509c-2.093 4.05-10.608 6.516-19.01 5.505-8.403-1.01-13.52-5.113-11.423-9.163 2.094-4.05 10.604-6.516 19.006-5.505 8.408 1.01 13.52 5.113 11.427 9.163z"/><path fill="#EFEA62" d="M85.887 74.603c.314-1.007-1.28-1.548-3.451-1.907l.706-1.363-1.721-.208-.686 1.328a90.46 90.46 0 0 0-1.378-.156l.691-1.335-1.72-.208-.706 1.363c-.373-.04-.74-.083-1.098-.125v-.005l-2.373-.286-.456.886s1.28.142 1.25.15c.696.084.824.306.804.481l-.804 1.552c.05.005.113.015.177.029l-.182-.022-1.127 2.174c-.084.102-.3.255-.79.196.02.012-1.25-.151-1.25-.151l-.853.95 2.24.27c.417.049.824.103 1.226.153l-.71 1.377 1.72.208.706-1.363c.47.061.926.118 1.373.172l-.711 1.359 1.72.208.711-1.375c2.937.267 5.143.16 6.07-1.12.75-1.03-.04-1.626-1.584-2.013 1.132-.126 1.975-.482 2.206-1.22zM81.95 77.26c-.53 1.03-4.132.472-5.299.333l.946-1.827c1.172.142 4.912.419 4.353 1.494zm.535-2.672c-.486.937-3.48.46-4.452.344l.858-1.656c.971.116 4.099.333 3.594 1.311z"/><path fill="#E2AE44" fill-rule="evenodd" d="M93.076 71.804h3.318v4.51h-.002c-.169 4.114-8.152 7.427-17.977 7.427-9.824 0-17.807-3.313-17.976-7.427h-.002v-4.51h3.318c3.258-1.927 8.61-3.183 14.66-3.183 6.05 0 11.403 1.256 14.661 3.183z" clip-rule="evenodd"/><ellipse cx="78.295" cy="72.202" fill="#EDDA4B" rx="18.099" ry="8.723"/><path fill="#EDC44B" d="M93.512 74.03c-2.093 4.05-10.608 6.516-19.01 5.505-8.403-1.008-13.521-5.112-11.423-9.162 2.093-4.05 10.604-6.516 19.006-5.505 8.408 1.009 13.52 5.113 11.427 9.162z"/><path fill="#EFEA62" d="M85.213 71.124c.313-1.006-1.28-1.547-3.451-1.906l.705-1.364-1.72-.207-.687 1.327a122.8 122.8 0 0 0-1.377-.156l.691-1.334-1.72-.208-.706 1.363c-.373-.04-.74-.083-1.099-.125v-.005l-2.372-.286-.456.886s1.28.142 1.25.149c.696.085.823.307.804.482l-.804 1.552c.049.005.113.014.176.028-.059-.007-.117-.014-.181-.02l-1.128 2.173c-.083.101-.299.255-.789.196.02.012-1.25-.151-1.25-.151l-.853.95 2.24.269c.417.05.824.104 1.226.153l-.71 1.378 1.72.208.706-1.364c.47.062.926.119 1.372.173l-.71 1.359 1.72.207.711-1.375c2.936.267 5.142.161 6.07-1.12.75-1.03-.04-1.625-1.584-2.012 1.132-.126 1.975-.482 2.206-1.22zm-3.937 2.658c-.53 1.03-4.132.473-5.3.334l.947-1.827c1.172.142 4.912.418 4.353 1.493zm.535-2.672c-.486.938-3.481.46-4.452.345l.858-1.656c.97.116 4.098.333 3.594 1.311z"/><path fill="#E2AE44" fill-rule="evenodd" d="M93.076 68.326h3.318v4.51h-.002c-.169 4.114-8.152 7.427-17.977 7.427-9.824 0-17.807-3.314-17.976-7.428h-.002v-4.509h3.318c3.258-1.927 8.61-3.184 14.66-3.184 6.05 0 11.403 1.257 14.661 3.184z" clip-rule="evenodd"/><ellipse cx="78.295" cy="68.724" fill="#EDDA4B" rx="18.099" ry="8.723"/><path fill="#EDC44B" d="M93.512 70.552c-2.093 4.05-10.608 6.516-19.01 5.505-8.403-1.009-13.521-5.113-11.423-9.162 2.093-4.05 10.604-6.516 19.006-5.505 8.408 1.009 13.52 5.113 11.427 9.162z"/><path fill="#EFEA62" d="M85.213 67.646c.313-1.006-1.28-1.547-3.451-1.906l.705-1.364-1.72-.208-.687 1.328a122.8 122.8 0 0 0-1.377-.156l.691-1.335-1.72-.208-.706 1.364c-.373-.04-.74-.083-1.099-.126v-.004l-2.372-.286-.456.886s1.28.141 1.25.149c.696.085.823.307.804.482l-.804 1.552c.049.005.113.014.176.028l-.181-.021-1.128 2.174c-.083.101-.299.255-.789.196a62 62 0 0 1-1.25-.151l-.853.95 2.24.269c.417.05.824.103 1.226.153l-.71 1.378 1.72.207.706-1.363c.47.062.926.118 1.372.173l-.71 1.358 1.72.208.711-1.375c2.936.267 5.142.16 6.07-1.12.75-1.03-.04-1.625-1.584-2.013 1.132-.125 1.975-.482 2.206-1.219zm-3.937 2.658c-.53 1.03-4.132.473-5.3.333l.947-1.826c1.172.142 4.912.418 4.353 1.493zm.535-2.672c-.486.938-3.481.46-4.452.345l.858-1.656c.97.115 4.098.333 3.594 1.31z"/><path fill="#E2AE44" fill-rule="evenodd" d="M112.012 104.847h3.317v4.51h-.002c-.169 4.114-8.152 7.428-17.976 7.428-9.825 0-17.808-3.314-17.977-7.428h-.002v-4.51h3.318c3.258-1.926 8.61-3.183 14.66-3.183 6.051 0 11.403 1.257 14.662 3.183z" clip-rule="evenodd"/><ellipse cx="97.23" cy="105.245" fill="#EDDA4B" rx="18.099" ry="8.723"/><path fill="#EDC44B" d="M112.447 107.074c-2.093 4.049-10.608 6.516-19.01 5.505-8.403-1.009-13.52-5.113-11.423-9.162 2.094-4.05 10.604-6.517 19.006-5.505 8.408 1.008 13.521 5.112 11.427 9.162z"/><path fill="#EFEA62" d="M104.148 104.168c.313-1.007-1.28-1.548-3.451-1.907l.705-1.363-1.72-.208-.687 1.328a122.8 122.8 0 0 0-1.377-.156l.691-1.335-1.72-.208-.707 1.363a89.18 89.18 0 0 1-1.098-.125v-.005l-2.372-.285-.456.886s1.28.141 1.25.148c.696.085.823.308.804.482l-.804 1.553c.049.004.113.014.176.028l-.181-.021-1.127 2.173c-.084.102-.3.255-.79.196.02.012-1.25-.151-1.25-.151l-.853.95 2.24.269c.417.05.824.104 1.226.154l-.71 1.377 1.72.208.706-1.363c.47.061.926.118 1.373.172l-.711 1.359 1.72.208.711-1.375c2.937.267 5.143.16 6.069-1.12.75-1.03-.039-1.626-1.583-2.013 1.132-.125 1.975-.482 2.206-1.219zm-3.937 2.658c-.53 1.03-4.132.472-5.3.333l.947-1.826c1.172.141 4.912.418 4.353 1.493zm.535-2.672c-.486.938-3.481.46-4.452.345l.858-1.657c.97.116 4.098.334 3.594 1.312z"/></svg>