<?xml version="1.0" encoding="UTF-8"?>
<svg width="1440px" height="900px" viewBox="0 0 1440 900" version="1.1" xmlns="http://www.w3.org/2000/svg" xmlns:xlink="http://www.w3.org/1999/xlink">
    <title>Switcheo Chest</title>
    <desc>Switcheo Chest Background</desc>
    <g id="Page-1" stroke="none" stroke-width="1" fill="none" fill-rule="evenodd">
        <g id="SwitcheoChest-Copy-2">
            <g id="Background_Chest" transform="translate(-2.000000, 0.000000)">
                <rect id="Base" fill="#141C37" x="2" y="0" width="1440" height="900"></rect>
                <g id="BG_Top" opacity="0.300000012" transform="translate(723.000000, 245.500000) scale(1, -1) translate(-723.000000, -245.500000) translate(3.000000, 3.000000)" fill="#798DC3">
                    <path d="M0,51 C360,51 360,275.314607 720,275.314607 C1080,275.314607 1080,51 1440,51 L1440,485 L0,485 L0,51 Z" id="Path" opacity="0.100000001"></path>
                    <path d="M0,222.515075 C360,222.515075 360,303.429648 720,303.429648 C1080,303.429648 1080,0 1440,0 L1440,485 L0,485 L0,222.515075 Z" id="Path" opacity="0.400000006"></path>
                    <path d="M0,485 C360,485 360,398.785714 720,398.785714 C1080,398.785714 1080,213 1440,213 L1440,485 L0,485 Z" id="Path" opacity="0.699999988"></path>
                </g>
                <g id="BG_Bottom" opacity="0.300000012" transform="translate(0.000000, 550.000000)" fill="#798DC3">
                    <path d="M1,251 C361,251 361,0 721,0 C1081,0 1081,135.153846 1441,135.153846 L1442,379 L1,380 L1,251 Z" id="Path" opacity="0.100000001" transform="translate(721.500000, 190.000000) scale(-1, 1) translate(-721.500000, -190.000000) "></path>
                    <path d="M0,352 C360,352 360,270.763158 720,270.763158 C1080,270.763158 1080,58 1440,58 L1440,379 L1,379 L0,352 Z" id="Path" opacity="0.400000006" transform="translate(720.000000, 218.500000) scale(-1, 1) translate(-720.000000, -218.500000) "></path>
                    <path d="M0,379 C360,379 360,285.5 720,285.5 C1080,285.5 1080,220 1440,220 L1440,379 L0,379 Z" id="Path" opacity="0.699999988" transform="translate(720.000000, 299.500000) scale(-1, 1) translate(-720.000000, -299.500000) "></path>
                </g>
            </g>
        </g>
    </g>
</svg>