<svg xmlns="http://www.w3.org/2000/svg" width="152" height="139" fill="none" viewBox="0 0 152 139"><path fill="#697278" d="M81.965 0h-11.93v11.852h11.93V0z"/><path fill="#fff" d="M93.847 21.333l-.024-12.302L82.335 0h-.37v21.333h11.882z"/><path fill="#697278" d="M81.965 41.481h-11.93v11.852h11.93V41.48z"/><path fill="#fff" d="M93.847 32l-.024 12.302-11.488 9.03h-.37V32h11.882zM69.666 0L58.178 9.031 58.13 32h.024l.024 12.302 11.488 9.03h.37V0h-.37z"/><path fill="#697278" d="M42.86 32.942l11.07-8.29s.657-.676.657-.172v21.93l-11.22-7.306-1.366-2.584v-1.404s-.071-1.476.86-2.175z"/><path fill="#fff" d="M42.025 35.585v18.909c.012 1.6.8 3.093 2.094 4.042l29.09 21.208s.388.35.692.231c.304-.118.304-.142.304-.539v-17.67s.095-.688-.388-1.144l-29.68-22.05a5.05 5.05 0 0 1-1.158-1.198c-.387-.563-.864-1.297-.918-1.63-.096-.574-.048-.118-.048-.118"/><path fill="#697278" d="M109.141 32.942l-11.071-8.29s-.656-.676-.656-.172v21.93l11.214-7.306 1.365-2.584v-1.404c.006 0 .078-1.476-.852-2.175z"/><path fill="#fff" d="M109.975 35.585v18.909c-.011 1.6-.799 3.093-2.093 4.042l-29.09 21.208s-.388.35-.692.231c-.304-.118-.304-.142-.304-.539v-17.67s-.096-.688.387-1.144l29.681-22.05a5.045 5.045 0 0 0 1.157-1.198c.388-.563.865-1.297.919-1.63.095-.574.047-.118.047-.118M23.104 115.73c.19-.228.532-.038.532.266v4.826c-2.622 2.242-5.814 3.23-9.462 3.23-8.284 0-13.224-5.776-13.224-15.01 0-9.462 5.852-15.048 13.68-15.048 3.724 0 6.422.684 8.778 2.774v4.788c0 .304-.342.494-.532.266-2.394-2.736-4.94-3.838-7.98-3.838-5.13 0-8.968 3.724-8.968 10.906 0 7.448 3.078 11.096 8.816 11.096 3.192 0 6.004-1.596 8.36-4.256zm15.062 8.322c-8.132 0-12.844-6.536-12.844-14.972 0-8.398 4.712-15.086 12.844-15.086 8.17 0 12.92 6.688 12.92 15.086 0 8.436-4.75 14.972-12.92 14.972zm0-4.028c5.244 0 7.98-4.484 7.98-10.982 0-6.498-2.736-11.02-7.98-11.02-5.206 0-7.904 4.522-7.904 11.02 0 6.498 2.698 10.982 7.904 10.982zm38.189-4.294c.19-.228.531-.038.531.266v4.826c-2.621 2.242-5.813 3.23-9.462 3.23-8.284 0-13.224-5.776-13.224-15.01 0-9.462 5.852-15.048 13.68-15.048 3.725 0 6.422.684 8.779 2.774v4.788c0 .304-.343.494-.533.266-2.394-2.736-4.94-3.838-7.98-3.838-5.13 0-8.968 3.724-8.968 10.906 0 7.448 3.079 11.096 8.817 11.096 3.191 0 6.004-1.596 8.36-4.256zm15.062 8.322c-8.132 0-12.844-6.536-12.844-14.972 0-8.398 4.712-15.086 12.844-15.086 8.17 0 12.92 6.688 12.92 15.086 0 8.436-4.75 14.972-12.92 14.972zm0-4.028c5.244 0 7.98-4.484 7.98-10.982 0-6.498-2.736-11.02-7.98-11.02-5.206 0-7.904 4.522-7.904 11.02 0 6.498 2.698 10.982 7.904 10.982zM2.976 136.36h-1v-5.344H.008v-.84h4.944v.84H2.976v5.344zm2.697 0v-6.624h.992v2.664h.008c.28-.368.736-.664 1.288-.664 1 0 1.528.592 1.528 1.816v2.808h-.984v-2.856c0-.744-.296-1-.792-1-.584 0-1.056.52-1.056 1.4v2.456h-.984zm5.638-2.8h2.056v-.024c0-.688-.352-1.064-.936-1.064-.536 0-.992.416-1.12 1.08v.008zm2.76 1.48c.04-.04.112-.008.112.056v.792c-.304.368-.976.568-1.72.568-1.288 0-2.184-.88-2.184-2.344 0-1.4.888-2.384 2.16-2.384 1.272 0 1.96.832 1.96 2.272v.32h-3.144v.024c.048.88.56 1.32 1.32 1.32.568 0 1.096-.248 1.496-.624zm5.77-.8v-.528c0-.648-.432-1.176-1.016-1.176-.656 0-1.072.584-1.072 1.656 0 .96.44 1.328.992 1.328.688 0 1.096-.528 1.096-1.28zm-2.632 2.784c.472.336.896.488 1.336.488.944 0 1.296-.456 1.296-1.264v-.592h-.008c-.248.384-.712.64-1.232.64-1.168 0-1.872-.72-1.872-2.096 0-1.48.656-2.472 1.872-2.472.552 0 .936.248 1.192.584h.008l.056-.48h.96l.008 4.088c0 1.672-.672 2.384-2.232 2.384-.592 0-1.056-.112-1.496-.36v-.864c0-.064.064-.088.112-.056zm5.727-7.288v6.624h-.992v-6.624h.992zm2.805 6.696c-1.456 0-2.112-1.104-2.112-2.352 0-1.32.72-2.352 2.112-2.352 1.384 0 2.112 1.032 2.112 2.352 0 1.248-.664 2.352-2.112 2.352zm0-.792c.72 0 1.088-.48 1.088-1.56 0-1.104-.36-1.568-1.088-1.568-.72 0-1.088.464-1.088 1.568 0 1.08.376 1.56 1.088 1.56zm3.977-1.824v.72c0 .736.432 1.088 1 1.088.656 0 1.032-.536 1.032-1.632 0-.96-.368-1.48-.944-1.48-.6 0-1.088.552-1.088 1.304zm1.28-2.088c.952 0 1.752.712 1.752 2.256 0 1.632-.832 2.448-1.928 2.448-.464 0-.88-.2-1.096-.592h-.016l-.04.52h-.944v-6.624h.992v2.568h.008c.312-.4.792-.576 1.272-.576zm5 2.824v-.504l-.96.136c-.529.072-.84.376-.84.84 0 .416.255.616.68.616.567 0 1.12-.544 1.12-1.088zm-2.257-1.432c-.048.04-.112.008-.112-.056v-.864a3.019 3.019 0 0 1 1.776-.544c1.072 0 1.552.512 1.552 1.64v3.064h-.88l-.048-.552h-.008c-.28.384-.776.648-1.32.648-.968 0-1.488-.496-1.488-1.352 0-.848.56-1.424 1.552-1.576l1.208-.2v-.04c0-.56-.176-.8-.728-.8-.488 0-.944.16-1.504.632zm5.437-3.384v6.624h-.992v-6.624h.992zm4.102 4.08v.72c0 .736.432 1.088 1 1.088.656 0 1.032-.536 1.032-1.632 0-.96-.368-1.48-.944-1.48-.6 0-1.088.552-1.088 1.304zm1.28-2.088c.952 0 1.752.712 1.752 2.256 0 1.632-.832 2.448-1.928 2.448-.464 0-.88-.2-1.096-.592h-.016l-.04.52h-.944v-6.624h.992v2.568h.008c.312-.4.792-.576 1.272-.576zm3.543-1.992v6.624h-.992v-6.624h.992zm2.805 6.696c-1.456 0-2.112-1.104-2.112-2.352 0-1.32.72-2.352 2.112-2.352 1.384 0 2.112 1.032 2.112 2.352 0 1.248-.664 2.352-2.112 2.352zm0-.792c.72 0 1.088-.48 1.088-1.56 0-1.104-.36-1.568-1.088-1.568-.72 0-1.088.464-1.088 1.568 0 1.08.376 1.56 1.088 1.56zm6.2-2.536c-.335-.376-.727-.56-1.255-.56-.856 0-1.272.68-1.272 1.576 0 .944.416 1.544 1.312 1.544.52 0 .912-.208 1.248-.608.04-.048.112-.024.112.04v.872c-.392.376-.832.504-1.408.504-1.352 0-2.296-.792-2.296-2.344 0-1.472.888-2.4 2.28-2.4.536 0 .992.144 1.392.472v.864c0 .064-.072.088-.112.04zm2.61.616v.016l2.12 2.624h-1.255l-1.464-2.048h-.008l-.184.192v1.856h-.992v-6.624h.992v3.632h.008l1.464-1.536h1.248l-1.928 1.888zm5.726-.616a1.574 1.574 0 0 0-1.256-.56c-.856 0-1.272.68-1.272 1.576 0 .944.416 1.544 1.312 1.544.52 0 .912-.208 1.248-.608.04-.048.112-.024.112.04v.872c-.392.376-.832.504-1.408.504-1.352 0-2.296-.792-2.296-2.344 0-1.472.888-2.4 2.28-2.4.536 0 .992.144 1.392.472v.864c0 .064-.072.088-.112.04zm.89 3.256v-6.624h.992v2.664h.008c.28-.368.736-.664 1.288-.664 1 0 1.528.592 1.528 1.816v2.808h-.984v-2.856c0-.744-.296-1-.792-1-.584 0-1.056.52-1.056 1.4v2.456h-.984zm7.279-1.808v-.504l-.96.136c-.528.072-.84.376-.84.84 0 .416.256.616.68.616.568 0 1.12-.544 1.12-1.088zm-2.256-1.432c-.048.04-.112.008-.112-.056v-.864a3.019 3.019 0 0 1 1.776-.544c1.072 0 1.552.512 1.552 1.64v3.064h-.88l-.048-.552h-.008c-.28.384-.776.648-1.32.648-.968 0-1.488-.496-1.488-1.352 0-.848.56-1.424 1.552-1.576l1.208-.2v-.04c0-.56-.176-.8-.728-.8-.488 0-.944.16-1.504.632zm5.335-1.288v4.528h-1v-4.528h1zm-1.128-1.24c0-.328.264-.616.624-.616.344 0 .64.288.64.616 0 .32-.296.608-.64.608a.622.622 0 0 1-.624-.608zm3.305 1.808h.008c.28-.368.736-.664 1.288-.664 1 0 1.528.592 1.528 1.816v2.808h-.984v-2.856c0-.744-.296-1-.792-1-.584 0-1.056.52-1.056 1.4v2.456h-.984v-4.528h.944l.048.568zm9.043.704a1.574 1.574 0 0 0-1.256-.56c-.856 0-1.272.68-1.272 1.576 0 .944.416 1.544 1.312 1.544.52 0 .912-.208 1.248-.608.04-.048.112-.024.112.04v.872c-.392.376-.832.504-1.408.504-1.352 0-2.296-.792-2.296-2.344 0-1.472.888-2.4 2.28-2.4.536 0 .992.144 1.392.472v.864c0 .064-.072.088-.112.04zm3.282-.32c-.184-.152-.32-.2-.616-.2-.448 0-.936.472-.936 1.312v2.464h-.992v-4.528h.968l.024.472c.208-.288.592-.568.992-.568.256 0 .48.024.672.152v.848a.065.065 0 0 1-.112.048zm2.03 3.408v-.032l-1.751-4.328h1.048l1.064 2.944.128.456.104-.456.968-2.944h1.024l-1.848 4.944c-.328.896-.736 1.528-1.664 1.528-.216 0-.408-.016-.608-.088v-.744c0-.064.048-.08.104-.048.12.064.28.096.488.096.288 0 .528-.112.68-.552l.264-.776zm4.179-1.704c0 .752.408 1.16 1.096 1.16.584 0 .976-.664.976-1.624 0-1.104-.368-1.488-1.024-1.488-.584 0-1.048.648-1.048 1.296v.656zm.016 1.36v2.432h-.992v-6.448h.984l.032.464h.008c.272-.344.648-.568 1.2-.568 1.216 0 1.848.824 1.848 2.256 0 1.376-.672 2.448-1.92 2.448-.512 0-.912-.256-1.144-.584h-.016zm6.047-.432c.048-.04.112-.016.112.048v.704c-.24.192-.6.28-.96.28-.8-.008-1.144-.384-1.144-1.16v-2.696h-.712v-.76h.712v-1.056h.976v1.056h1.104v.76h-1.104v2.6c0 .312.112.44.368.44.272 0 .472-.08.648-.216zm2.596 1.016c-1.456 0-2.112-1.104-2.112-2.352 0-1.32.72-2.352 2.112-2.352 1.384 0 2.112 1.032 2.112 2.352 0 1.248-.664 2.352-2.112 2.352zm0-.792c.72 0 1.088-.48 1.088-1.56 0-1.104-.36-1.568-1.088-1.568-.72 0-1.088.464-1.088 1.568 0 1.08.376 1.56 1.088 1.56zm7.342-1.088v-.504l-.96.136c-.528.072-.84.376-.84.84 0 .416.256.616.68.616.568 0 1.12-.544 1.12-1.088zm-2.256-1.432c-.048.04-.112.008-.112-.056v-.864a3.019 3.019 0 0 1 1.776-.544c1.072 0 1.552.512 1.552 1.64v3.064h-.88l-.048-.552h-.008c-.28.384-.776.648-1.32.648-.968 0-1.488-.496-1.488-1.352 0-.848.56-1.424 1.552-1.576l1.208-.2v-.04c0-.56-.176-.8-.728-.8-.488 0-.944.16-1.504.632zm7.02-.016c-.512-.408-.912-.608-1.408-.608-.392 0-.552.16-.552.448 0 .328.208.432.512.552l.512.224c.664.288 1.224.608 1.224 1.352 0 .856-.76 1.4-1.744 1.4-.552 0-1.144-.128-1.648-.504v-.84c0-.064.064-.088.112-.056.472.376 1.016.6 1.504.6.52 0 .752-.184.752-.536 0-.232-.176-.4-.576-.576l-.456-.2c-.784-.352-1.208-.664-1.208-1.4 0-.704.608-1.232 1.608-1.232.488 0 .976.12 1.48.48v.84c0 .064-.064.088-.112.056zm3.918 0c-.512-.408-.912-.608-1.408-.608-.392 0-.552.16-.552.448 0 .328.208.432.512.552l.512.224c.664.288 1.224.608 1.224 1.352 0 .856-.76 1.4-1.744 1.4-.552 0-1.144-.128-1.648-.504v-.84c0-.064.064-.088.112-.056.472.376 1.016.6 1.504.6.52 0 .752-.184.752-.536 0-.232-.176-.4-.576-.576l-.456-.2c-.784-.352-1.208-.664-1.208-1.4 0-.704.608-1.232 1.608-1.232.488 0 .976.12 1.48.48v.84c0 .064-.064.088-.112.056zm1.861.456h2.056v-.024c0-.688-.352-1.064-.936-1.064-.536 0-.992.416-1.12 1.08v.008zm2.76 1.48c.04-.04.112-.008.112.056v.792c-.304.368-.976.568-1.72.568-1.288 0-2.184-.88-2.184-2.344 0-1.4.888-2.384 2.16-2.384 1.272 0 1.96.832 1.96 2.272v.32h-3.144v.024c.048.88.56 1.32 1.32 1.32.568 0 1.096-.248 1.496-.624zm3.301.376c.048-.04.112-.016.112.048v.704c-.24.192-.6.28-.96.28-.8-.008-1.144-.384-1.144-1.16v-2.696h-.712v-.76h.712v-1.056h.976v1.056h1.104v.76h-1.104v2.6c0 .312.112.44.368.44.272 0 .472-.08.648-.216zm3.76-1.6v.72c0 .736.432 1.088 1 1.088.656 0 1.032-.536 1.032-1.632 0-.96-.368-1.48-.944-1.48-.6 0-1.088.552-1.088 1.304zm1.28-2.088c.952 0 1.752.712 1.752 2.256 0 1.632-.832 2.448-1.928 2.448-.464 0-.88-.2-1.096-.592h-.016l-.04.52h-.944v-6.624h.992v2.568h.008c.312-.4.792-.576 1.272-.576zm4.999 2.824v-.504l-.96.136c-.528.072-.84.376-.84.84 0 .416.256.616.68.616.568 0 1.12-.544 1.12-1.088zm-2.256-1.432c-.048.04-.112.008-.112-.056v-.864a3.019 3.019 0 0 1 1.776-.544c1.072 0 1.552.512 1.552 1.64v3.064h-.88l-.048-.552h-.008c-.28.384-.776.648-1.32.648-.968 0-1.488-.496-1.488-1.352 0-.848.56-1.424 1.552-1.576l1.208-.2v-.04c0-.56-.176-.8-.728-.8-.488 0-.944.16-1.504.632zm5.134-.72h.008c.28-.368.736-.664 1.288-.664 1 0 1.528.592 1.528 1.816v2.808h-.984v-2.856c0-.744-.296-1-.792-1-.584 0-1.056.52-1.056 1.4v2.456h-.984v-4.528h.944l.048.568zm5.622 1.32v.016l2.12 2.624h-1.256l-1.464-2.048h-.008l-.184.192v1.856h-.992v-6.624h.992v3.632h.008l1.464-1.536h1.248l-1.928 1.888z"/><path fill="#697278" d="M127.325 94.336v3.99h-13.072v7.6h12.54v3.952h-12.54v13.832h-4.788V94.336h17.86zm15.151 14.516l9.272 14.858h-5.244l-6.46-11.02h-.076l-6.46 11.02h-5.244l9.31-14.668v-.076l-9.12-14.63h5.206l6.346 10.754h.076l6.232-10.754h5.206l-9.044 14.44v.076z"/></svg>