<svg xmlns="http://www.w3.org/2000/svg" width="340" height="384" viewBox="0 0 340 384"><defs><radialGradient id="radial-gradient" cx=".5" cy=".5" r=".5" gradientTransform="matrix(1 0 0 .908 0 .046)" gradientUnits="objectBoundingBox"><stop offset="0" stop-color="#7fdbda" stop-opacity=".8"/><stop offset=".276" stop-color="#ade498" stop-opacity=".502"/><stop offset=".732" stop-color="#ede682" stop-opacity=".102"/><stop offset="1" stop-color="#febf63" stop-opacity="0"/></radialGradient><style>.cls-3{fill:#fff}</style></defs><g id="그룹_1674" transform="translate(-1228 -204)"><g id="그룹_5361" transform="translate(1228 204)"><path id="사각형_280" fill="url(#radial-gradient)" d="M0 0h340v384H0z"/><g id="그룹_1099" transform="translate(77 139.891)"><circle id="타원_42" cx="65.407" cy="65.407" r="65.407" fill="#2c3e50" transform="rotate(-45 111.657 46.25)"/><path id="사각형_279" d="M0 0h130.843v72.57H0z" class="cls-3" transform="rotate(-14.98 292.255 -38.53)"/><path id="패스_1209" fill="#0068c1" d="M446.753 887.591a14.485 14.485 0 0 1 3.18-16.664 7.153 7.153 0 0 0 1.236-8.2l-6.6-14.119a7.274 7.274 0 0 0-9.658-3.507l-118.558 55.155a7.244 7.244 0 0 0-3.515 9.636l6.6 14.119a7.184 7.184 0 0 0 7.092 4.328 14.507 14.507 0 0 1 11.66 24.946 7.153 7.153 0 0 0-1.235 8.2l6.6 14.119a7.274 7.274 0 0 0 9.658 3.507l118.558-55.158a7.244 7.244 0 0 0 3.515-9.636l-6.6-14.119a7.184 7.184 0 0 0-7.092-4.329 14.547 14.547 0 0 1-14.841-8.278z" transform="translate(-301.561 -819.606)"/><ellipse id="타원_43" cx="65.407" cy="5.451" fill="#b3cdff" rx="65.407" ry="5.451" transform="translate(27.991 173.104)"/><g id="그룹_1098" transform="translate(12.647 33.203)"><path id="패스_1210" fill="#8bb0d2" d="M452.874 908.268a14.541 14.541 0 0 1 6.032-15.9 7.183 7.183 0 0 0 2.644-7.883l-4.041-15.082a7.267 7.267 0 0 0-8.9-5.139L322.25 898.125a7.268 7.268 0 0 0-5.139 8.9l4.041 15.082a7.182 7.182 0 0 0 6.231 5.5 14.541 14.541 0 0 1 7.14 26.648 7.182 7.182 0 0 0-2.644 7.882l4.041 15.082a7.267 7.267 0 0 0 8.9 5.139l126.357-33.857a7.268 7.268 0 0 0 5.139-8.9l-4.041-15.082a7.181 7.181 0 0 0-6.231-5.5 14.541 14.541 0 0 1-13.17-10.751z" transform="translate(-316.862 -864.019)"/><g id="그룹_1097" transform="translate(52.063 34.264)"><path id="패스_1211" d="M444.887 950.192c6.956-1.864 12.283 2.217 14.165 9.24 2.267 8.461-1.913 14.417-7.807 16-6.2 1.662-12.349-1.729-14.4-9.379-1.947-7.267 1.025-13.977 7.981-15.84zm1.082 5.284c-2.822.756-3.2 4.354-2.095 8.493 1.081 4.278 3.409 6.946 6.165 6.208 2.695-.722 3.272-3.836 2.029-8.475-1.108-4.134-3.093-7.031-6.038-6.242zm10.265 36.824l12.176-48.34 5.073-1.359-12.109 48.322zm22.522-33.039c6.956-1.864 12.283 2.217 14.147 9.173 2.268 8.461-1.917 14.424-7.806 16-6.145 1.647-12.272-1.684-14.322-9.334-1.947-7.267 1.019-13.975 7.914-15.823zm1.143 5.267c-2.822.756-3.2 4.354-2.113 8.426 1.081 4.278 3.409 6.947 6.1 6.225s3.273-3.831 2.046-8.408c-1.108-4.134-3.093-7.032-5.976-6.259z" class="cls-3" transform="translate(-436.259 -942.596)"/></g></g></g></g></g></svg>