<svg xmlns="http://www.w3.org/2000/svg" width="60" height="50" viewBox="0 0 60 50"><defs><style>.cls-1{fill:#eee}</style></defs><g id="그룹_1261" transform="translate(-527.743 -558.357)"><g id="그룹_1240" transform="translate(527.743 571.418)"><g id="그룹_1239"><g id="그룹_1238"><g id="그룹_1237"><path id="패스_1341" d="M576.182 639.861h-42.637a5.807 5.807 0 0 1-5.8-5.8v-25.336a5.809 5.809 0 0 1 5.8-5.8h42.637a5.809 5.809 0 0 1 5.8 5.8v25.336a5.807 5.807 0 0 1-5.8 5.8zm-42.637-35.136a4.257 4.257 0 0 0-3.927 4v25.336a4.1 4.1 0 0 0 3.927 3.824h42.637a4.082 4.082 0 0 0 3.914-3.824v-25.336a4.244 4.244 0 0 0-3.914-4z" class="cls-1" transform="translate(-527.743 -602.921)"/></g></g></g></g><g id="그룹_1244" transform="translate(558.171 592.408)"><g id="그룹_1243"><g id="그룹_1242"><g id="그룹_1241"><path id="패스_1342" d="M660.664 685.421h-8.695a1.979 1.979 0 0 1-1.977-1.977v-5.694a1.979 1.979 0 0 1 1.977-1.977h8.695a1.978 1.978 0 0 1 1.975 1.977v5.693a1.978 1.978 0 0 1-1.975 1.978zm-8.695-1.785h8.695v-6.062h-8.695z" class="cls-1" transform="translate(-649.992 -675.773)"/></g></g></g></g><g id="그룹_1248" transform="translate(533.779 590.633)"><g id="그룹_1247"><g id="그룹_1246"><g id="그룹_1245"><path id="패스_1343" d="M570.848 671.735h-21.055a.941.941 0 1 1 0-1.876h21.055a.952.952 0 1 1 0 1.876z" class="cls-1" transform="translate(-548.693 -669.859)"/></g></g></g><g id="그룹_1558" transform="translate(0 5)"><g id="그룹_1246-2" transform="translate(.092)"><g id="그룹_1245-2"><path id="패스_1343-2" d="M566.491 671.735h-16.9c-.488 0-.809-.342-.809-.937s.321-.939.809-.939h16.9a.939.939 0 0 1 0 1.876z" class="cls-1" transform="translate(-548.785 -669.859)"/></g></g></g></g><g id="그룹_1256" transform="translate(527.743 578.394)"><g id="그룹_1255"><g id="그룹_1254"><g id="그룹_1253"><path id="패스_1345" d="M580.883 636.244h-52.04a1.1 1.1 0 0 1-1.1-1.1v-6.518a1.1 1.1 0 0 1 1.1-1.1h52.04a1.1 1.1 0 0 1 1.1 1.1v6.518a1.1 1.1 0 0 1-1.1 1.1zm-51.634-1.806h50.921v-4.875h-50.921z" class="cls-1" transform="translate(-527.743 -627.526)"/></g></g></g></g><g id="그룹_1260" transform="translate(531.766 558.357)"><g id="그룹_1259"><g id="그룹_1258"><g id="그룹_1257"><path id="패스_1346" d="M616.585 598.744l4.935-25.245a3.623 3.623 0 0 0-2.8-4.276l-42.906-8.895a3.551 3.551 0 0 0-2.7.523 3.591 3.591 0 0 0-1.551 2.288l-2.076 9.267-1.88-.265 1.88-9.134a5.812 5.812 0 0 1 6.856-4.529l42.612 8.849a5.837 5.837 0 0 1 4.509 6.888l-5.13 24.935c-.312 1.52-.447 1.265-1.746 2.123-.965.635-.197-1.588-.003-2.529z" class="cls-1" transform="translate(-567.604 -558.357)"/></g></g></g></g></g></svg>