<svg width="34" height="40" viewBox="0 0 34 40" fill="none" xmlns="http://www.w3.org/2000/svg">
<path d="M19.9823 0H14.0176V5.92587H19.9823V0Z" fill="#004576"/>
<path d="M25.9233 10.6666L25.9114 4.51551L20.1673 0H19.9824V10.6666H25.9233Z" fill="#0068C1"/>
<path d="M19.9823 20.7405H14.0176V26.6664H19.9823V20.7405Z" fill="#004576"/>
<path d="M25.9233 15.9998L25.9114 22.1509L20.1673 26.6664H19.9824V15.9998H25.9233Z" fill="#0068C1"/>
<path d="M13.8328 0L8.0888 4.51551L8.06494 15.9998H8.07687L8.0888 22.1509L13.8328 26.6664H14.0178V15.9998V0H13.8328Z" fill="#0068C1"/>
<path d="M0.430098 16.471L5.96538 12.3258C5.96538 12.3258 6.29344 11.9881 6.29344 12.2399V23.2057L0.683599 19.5524L0.000636238 18.2606V17.5584C0.000636238 17.5584 -0.0351522 16.8206 0.430098 16.471Z" fill="#004576"/>
<path d="M0.0124178 17.7924V27.2115C0.0124178 27.2115 0.0124178 27.2234 0.0124178 27.2471C0.0183825 28.0471 0.412055 28.7937 1.05923 29.2678L15.6043 39.8722C15.6043 39.8722 15.7981 40.047 15.9502 39.9877C16.1023 39.9285 16.1023 39.9166 16.1023 39.7181V30.8826C16.1023 30.8826 16.15 30.5389 15.9085 30.3108L1.06818 19.2857C0.844499 19.1198 0.647663 18.9183 0.489597 18.6872C0.295743 18.4057 0.0571533 18.0383 0.030312 17.8724C-0.0174059 17.585 0.00645302 17.8131 0.00645302 17.8131" fill="#0068C1"/>
<path d="M33.5704 16.471L28.0351 12.3258C28.0351 12.3258 27.707 11.9881 27.707 12.2399V23.2057L33.3139 19.5524L33.9969 18.2606V17.5584C33.9998 17.5584 34.0356 16.8206 33.5704 16.471Z" fill="#004576"/>
<path d="M33.9878 17.7924V27.2115C33.9878 27.2115 33.9878 27.2234 33.9878 27.2471C33.9818 28.0471 33.5881 28.7937 32.941 29.2678L18.3959 39.8722C18.3959 39.8722 18.2021 40.047 18.05 39.9877C17.8979 39.9285 17.8979 39.9166 17.8979 39.7181V30.8826C17.8979 30.8826 17.8502 30.5389 18.0917 30.3108L32.932 19.2857C33.1557 19.1198 33.3525 18.9183 33.5106 18.6872C33.7044 18.4057 33.943 18.0383 33.9699 17.8724C34.0176 17.585 33.9937 17.8131 33.9937 17.8131" fill="#0068C1"/>
</svg>
