<svg xmlns="http://www.w3.org/2000/svg" width="18" height="16" viewBox="0 0 18 16"><defs><style>.cls-1{fill:#fff}</style></defs><g id="icon_hamberger_medium"><path id="패스_1189" d="M1132.636 347.445h-8.1a1.182 1.182 0 0 1-.512-.077.78.78 0 0 1 .095-1.373 1.2 1.2 0 0 1 .38-.045h16.3a1.209 1.209 0 0 1 .432.063.755.755 0 0 1 .418.781.678.678 0 0 1-.567.638 2.775 2.775 0 0 1-.357.015z" class="cls-1" transform="translate(-1123.662 -331.446)"/><path id="패스_1190" d="M1132.636 282.721h-8.1a1.183 1.183 0 0 1-.512-.077.78.78 0 0 1 .095-1.373 1.2 1.2 0 0 1 .38-.045h16.3a1.21 1.21 0 0 1 .432.063.755.755 0 0 1 .418.781.678.678 0 0 1-.567.638 2.759 2.759 0 0 1-.357.015z" class="cls-1" transform="translate(-1123.662 -273.972)"/><path id="패스_1191" d="M1132.636 218h-8.1a1.184 1.184 0 0 1-.512-.077.78.78 0 0 1 .095-1.373 1.2 1.2 0 0 1 .38-.045h16.3a1.209 1.209 0 0 1 .432.063.755.755 0 0 1 .418.781.678.678 0 0 1-.567.638 2.748 2.748 0 0 1-.357.015z" class="cls-1" transform="translate(-1123.662 -216.497)"/></g></svg>