<svg width="40" height="40" viewBox="0 0 40 40" fill="none" xmlns="http://www.w3.org/2000/svg">
<path d="M28.3332 18.3333H29.9998C30.4419 18.3333 30.8658 18.1577 31.1783 17.8451C31.4909 17.5326 31.6665 17.1087 31.6665 16.6666V15C31.6665 14.5579 31.4909 14.134 31.1783 13.8214C30.8658 13.5089 30.4419 13.3333 29.9998 13.3333H28.3332C27.8911 13.3333 27.4672 13.5089 27.1547 13.8214C26.8421 14.134 26.6665 14.5579 26.6665 15V16.6666C26.6665 17.1087 26.8421 17.5326 27.1547 17.8451C27.4672 18.1577 27.8911 18.3333 28.3332 18.3333ZM9.99984 20H18.3332C18.7752 20 19.1991 19.8244 19.5117 19.5118C19.8242 19.1992 19.9998 18.7753 19.9998 18.3333C19.9998 17.8913 19.8242 17.4673 19.5117 17.1548C19.1991 16.8422 18.7752 16.6666 18.3332 16.6666H9.99984C9.55781 16.6666 9.13389 16.8422 8.82133 17.1548C8.50876 17.4673 8.33317 17.8913 8.33317 18.3333C8.33317 18.7753 8.50876 19.1992 8.82133 19.5118C9.13389 19.8244 9.55781 20 9.99984 20ZM36.6665 6.66663H3.33317C2.89114 6.66663 2.46722 6.84222 2.15466 7.15478C1.8421 7.46734 1.6665 7.89127 1.6665 8.33329V31.6666C1.6665 32.1087 1.8421 32.5326 2.15466 32.8451C2.46722 33.1577 2.89114 33.3333 3.33317 33.3333H36.6665C37.1085 33.3333 37.5325 33.1577 37.845 32.8451C38.1576 32.5326 38.3332 32.1087 38.3332 31.6666V8.33329C38.3332 7.89127 38.1576 7.46734 37.845 7.15478C37.5325 6.84222 37.1085 6.66663 36.6665 6.66663ZM34.9998 30H4.99984V9.99996H34.9998V30ZM9.99984 26.6666H18.3332C18.7752 26.6666 19.1991 26.491 19.5117 26.1785C19.8242 25.8659 19.9998 25.442 19.9998 25C19.9998 24.5579 19.8242 24.134 19.5117 23.8214C19.1991 23.5089 18.7752 23.3333 18.3332 23.3333H9.99984C9.55781 23.3333 9.13389 23.5089 8.82133 23.8214C8.50876 24.134 8.33317 24.5579 8.33317 25C8.33317 25.442 8.50876 25.8659 8.82133 26.1785C9.13389 26.491 9.55781 26.6666 9.99984 26.6666Z" fill="black"/>
</svg>
