<svg xmlns="http://www.w3.org/2000/svg" width="32" height="50" viewBox="0 0 32 50"><defs><style>.cls-1{fill:#eee}</style></defs><g id="그룹_1200" transform="translate(-1604.329 -1246.484)"><g id="그룹_1142" transform="translate(1604.329 1246.484)"><g id="그룹_1141"><g id="그룹_1140"><g id="그룹_1139"><path id="패스_1291" d="M1632.248 1296.484h-23.84a4.1 4.1 0 0 1-4.079-4.12v-41.758a4.105 4.105 0 0 1 4.079-4.122h23.84a4.106 4.106 0 0 1 4.081 4.122v32.787h-1.729v-32.787a2.367 2.367 0 0 0-2.353-2.376h-23.84a2.366 2.366 0 0 0-2.351 2.376v41.758a2.365 2.365 0 0 0 2.351 2.374h23.84a2.366 2.366 0 0 0 2.353-2.374v-8.971h1.728v8.971a4.1 4.1 0 0 1-4.08 4.12z" class="cls-1" transform="translate(-1604.329 -1246.484)"/></g></g></g></g><g id="그룹_1150" transform="translate(1605.298 1254.563)"><g id="그룹_1149"><g id="그룹_1148"><g id="그룹_1147"><path id="사각형_291" d="M0 0h30.219v1.781H0z" class="cls-1"/></g></g></g></g><g id="그룹_1154" transform="translate(1604.329 1286.491)"><g id="그룹_1153"><g id="그룹_1152"><g id="그룹_1151"><path id="패스_1293" d="M1632.248 1432.314h-23.84a4.148 4.148 0 0 1-4.079-4.2v-5.755h32v5.755a4.148 4.148 0 0 1-4.081 4.2zm-26.191-8.178v3.974a2.391 2.391 0 0 0 2.351 2.423h23.84a2.392 2.392 0 0 0 2.353-2.423v-3.974z" class="cls-1" transform="translate(-1604.329 -1422.355)"/></g></g></g></g><g id="그룹_1162" transform="translate(1604.329 1286.574)"><g id="그룹_1161"><g id="그룹_1160"><g id="그룹_1159"><path id="패스_1295" d="M1635.465 1424.49h-30.272a.891.891 0 0 1 0-1.781h30.272a.891.891 0 0 1 0 1.781z" class="cls-1" transform="translate(-1604.329 -1422.709)"/></g></g></g></g><g id="그룹_1166" transform="translate(1616.362 1250.476)"><g id="그룹_1165"><g id="그룹_1164"><g id="그룹_1163"><path id="패스_1296" d="M1665.237 1265.386h-6.31a.89.89 0 0 1 0-1.781h6.31a.89.89 0 0 1 0 1.781z" class="cls-1" transform="translate(-1658.037 -1263.605)"/></g></g></g></g><g id="그룹_1170" transform="translate(1617.701 1290.58)"><g id="그룹_1169"><g id="그룹_1168"><g id="그룹_1167"><path id="패스_1297" d="M1668.3 1441.67h-3.627a.89.89 0 1 1 0-1.78h3.627a.89.89 0 1 1 0 1.78z" class="cls-1" transform="translate(-1663.779 -1439.889)"/></g></g></g></g><g id="그룹_1199" transform="translate(1617.224 1264.41)"><g id="그룹_1190" transform="translate(0 1.598)"><g id="그룹_1189"><g id="그룹_1188"><g id="그룹_1187"><path id="패스_1302" d="M1664.92 1343.316a3.188 3.188 0 0 1-3.185-3.184.89.89 0 1 1 1.781 0 1.4 1.4 0 1 0 2.805 0c0-.862-.446-1.086-1.72-1.509-1.141-.378-2.866-.95-2.866-3.076a3.183 3.183 0 1 1 6.367 0 .89.89 0 1 1-1.781 0 1.4 1.4 0 1 0-2.805 0c0 .741.331.949 1.646 1.386 1.171.388 2.94.975 2.94 3.2a3.187 3.187 0 0 1-3.182 3.183z" class="cls-1" transform="translate(-1661.735 -1332.363)"/></g></g></g></g><g id="그룹_1194" transform="translate(2.294)"><g id="그룹_1193"><g id="그룹_1192"><g id="그룹_1191"><path id="패스_1303" d="M1672.463 1328.888a.89.89 0 0 1-.891-.891v-1.6a.89.89 0 0 1 1.781 0v1.6a.89.89 0 0 1-.89.891z" class="cls-1" transform="translate(-1671.572 -1325.509)"/></g></g></g></g><g id="그룹_1198" transform="translate(2.294 10.771)"><g id="그룹_1197"><g id="그룹_1196"><g id="그룹_1195"><path id="패스_1304" d="M1672.463 1375.08a.89.89 0 0 1-.891-.89v-1.6a.89.89 0 0 1 1.781 0v1.6a.889.889 0 0 1-.89.89z" class="cls-1" transform="translate(-1671.572 -1371.702)"/></g></g></g></g></g></g></svg>