<svg xmlns="http://www.w3.org/2000/svg" width="24" height="24" viewBox="0 0 24 24"><g data-name="그룹 620" transform="translate(-121 -9.845)"><circle cx="12" cy="12" r="12" fill="#bcbcbc" data-name="타원 31" transform="translate(121 9.845)"/><g data-name="그룹 620"><path fill="#fff" d="M138.992 25.857c-2.062 0-4.123-.012-6.185.006-.505 0-.678-.135-.524-.649a30.5 30.5 0 0 0 .6-2.277 1.229 1.229 0 0 1 .943-.988c1.557-.5 1.55-.523 1.964-2.08.01-.038.022-.076.034-.113.126-.4-.046-.461-.381-.34-.388.141-.772.291-1.163.421-.158.053-.348.214-.489.068s0-.336.044-.5c.416-1.575.841-3.148 1.258-4.724.192-.728.18-.741-.543-.743-1.041 0-2.082.028-3.122-.011a.791.791 0 0 0-.93.719c-.56 2.206-1.178 4.4-1.742 6.6a1.042 1.042 0 0 1-.85.915 1.516 1.516 0 0 0-1.4 1.481c-.025.305-.34.68-.126.883.257.245.6-.118.91-.191.057-.014.11-.044.167-.056.132-.028.3-.113.389-.06.164.1.043.288.007.428-.3 1.139-.609 2.275-.908 3.415-.191.726-.185.729.6.73h5.3c1.826 0 3.653-.013 5.479.009.487 0 .771-.118.865-.637s.268-1.025.4-1.539c.19-.724.16-.766-.597-.767z" data-name="패스 1051"/></g></g></svg>