<svg width="36" height="26" viewBox="0 0 36 26" fill="none" xmlns="http://www.w3.org/2000/svg"><path d="M36 22a4 4 0 0 1-4 4H4a4 4 0 0 1-4-4V4a4 4 0 0 1 4-4h28a4 4 0 0 1 4 4v18z" fill="#009B3A"/><path d="M32.728 13L18 24.124 3.272 13 18 1.875 32.728 13z" fill="#FEDF01"/><path d="M17.976 19.382a6.458 6.458 0 1 0 0-12.916 6.458 6.458 0 0 0 0 12.916z" fill="#002776"/><path d="M12.277 9.887a6.406 6.406 0 0 0-.672 2.023c3.995-.29 9.417 1.891 11.744 4.595.402-.604.7-1.28.883-2.004-2.872-2.808-7.917-4.63-11.955-4.614z" fill="#CBE9D4"/><path d="M12 13.233h1v1h-1v-1zm1 2h1v1h-1v-1z" fill="#88C9F9"/><path d="M15 13.233h1v1h-1v-1zm2 1h1v1h-1v-1zm4 2h1v1h-1v-1zm-3 1h1v1h-1v-1zm3-6h1v1h-1v-1z" fill="#55ACEE"/><path d="M19 15.233h1v1h-1v-1z" fill="#3B88C3"/></svg>