<svg xmlns="http://www.w3.org/2000/svg" width="220" height="348" fill="none" viewBox="0 0 220 348"><path fill="#fff" stroke="#000" d="M.5.5h219v347H.5z"/><path fill="#fff" d="M109.164 35.5a.949.949 0 0 1 1.672 0l10.033 18c.372.667-.093 1.5-.836 1.5H99.967c-.743 0-1.208-.833-.836-1.5l10.033-18z"/><path fill="#E80000" fill-rule="evenodd" d="M120.033 54L110 36 99.967 54h20.066zm-9.197-18.5a.949.949 0 0 0-1.672 0l-10.033 18c-.372.667.093 1.5.836 1.5h20.066c.743 0 1.208-.833.836-1.5l-10.033-18z" clip-rule="evenodd"/><path fill="#CF1313" d="M110.672 49.685h-1.462L109.049 42h1.791l-.168 7.685zM109 52.035c0-.285.086-.52.259-.704.172-.19.408-.284.706-.284.299 0 .534.095.707.284a.99.99 0 0 1 .259.704.983.983 0 0 1-.252.688c-.168.185-.406.277-.714.277-.307 0-.545-.092-.713-.277a.983.983 0 0 1-.252-.688z"/><path fill="#CC0404" d="M72.599 78.111c2.262-.195 3.731-1.04 4.368-2.171.637 1.131 2.106 1.976 4.355 2.171l.598-1.326c-2.236-.195-3.406-.975-3.705-1.781H81.4v-1.365h-8.853v1.365h3.172c-.299.806-1.469 1.586-3.692 1.781l.572 1.326zm6.76 4.849c0 .598-.819.858-2.418.858-1.599 0-2.418-.26-2.418-.858 0-.611.819-.871 2.418-.871 1.599 0 2.418.26 2.418.871zm3.016-3.016v-1.365H71.559v1.365h4.55v.871c-2.08.169-3.315.91-3.315 2.145 0 1.378 1.56 2.171 4.147 2.171s4.16-.793 4.16-2.171c0-1.222-1.222-1.963-3.276-2.132v-.884h4.55zm5.238.104c.416.078.845.117 1.313.117.468 0 .91-.039 1.326-.117v2.288h-2.639v-2.288zm1.313-4.966c1.664 0 2.782.676 2.782 1.872 0 1.183-1.118 1.872-2.782 1.872s-2.769-.689-2.769-1.872c0-1.196 1.105-1.872 2.769-1.872zm3.029 7.254v-2.925c.897-.559 1.443-1.417 1.443-2.457 0-1.963-1.885-3.224-4.472-3.224-2.574 0-4.459 1.261-4.459 3.224-.013 1.04.533 1.898 1.443 2.457v2.925h-2.392v1.391H94.36v-1.391h-2.405zm7.955.273h6.604v2.522h1.716v-3.887h-8.32v1.365zm1.885-6.812h4.667v.936h-4.667v-.936zm3.172 3.263v-.988h3.198v-4.615h-1.703v1.053h-4.667v-1.053h-1.703v4.615h3.159v.988h-4.537v1.365h10.829V79.06h-4.576zm11.816 1.04v1.17h2.249v.949h1.716v-9.074h-1.716V80.1h-2.249zm-2.301-5.304c.793 0 1.352.312 1.352.897s-.559.884-1.352.884c-.806 0-1.365-.299-1.365-.884s.559-.897 1.365-.897zm0 3.029c1.742 0 2.977-.858 2.977-2.132s-1.235-2.145-2.977-2.145c-1.755 0-2.99.871-2.99 2.145s1.235 2.132 2.99 2.132zm-.637 5.72v-1.638h1.651v-2.262a26.02 26.02 0 0 0 2.86-.338l-.117-1.222c-2.522.325-5.434.351-7.618.364l.221 1.365c.897 0 1.898-.013 2.951-.065v1.599h-1.664v3.562h8.879v-1.365h-7.163zm12.714-9.256v1.365h3.796a9.65 9.65 0 0 1-.247 1.586l-4.186.247.221 1.456 3.471-.338c-.676 1.313-1.833 2.431-3.796 3.406l.91 1.326c4.459-2.275 5.33-5.356 5.33-9.048h-5.499zm10.361 3.419h-1.677v-4.576h-1.716v11.96h1.716v-5.967h1.677v-1.417zm10.594.962h-6.708v-3.146h6.617v-1.391h-8.333v5.902h8.424V78.67zm-9.685 3.614v1.404h10.842v-1.404h-10.842z"/><path fill="#000" d="M36.743 114.964c-.06.498-.25.882-.571 1.154-.318.27-.742.404-1.272.404-.575 0-1.035-.199-1.383-.598-.345-.399-.517-.932-.517-1.601v-.453c0-.437.08-.822.24-1.154.163-.332.392-.587.688-.763a1.95 1.95 0 0 1 1.029-.269c.516 0 .93.14 1.242.421.311.278.493.664.544 1.157h-.645c-.055-.375-.176-.646-.364-.815-.184-.168-.444-.252-.777-.252-.41 0-.732.147-.965.44-.232.293-.348.71-.348 1.252v.456c0 .511.11.917.331 1.219.22.302.529.453.925.453.356 0 .629-.078.818-.233.191-.158.318-.43.38-.818h.645zm1.522.986h2.304v.508h-2.948v-4.709h.644v4.201zm5.787-.721h-2.037l-.458 1.229h-.66l1.856-4.709h.56l1.86 4.709h-.657l-.464-1.229zm-1.843-.511h1.652l-.828-2.203-.824 2.203zm4.26-.104v1.844h-.641v-4.709h1.793c.532 0 .948.131 1.249.394.302.263.454.612.454 1.045 0 .457-.148.81-.444 1.058-.294.245-.716.368-1.266.368H46.47zm0-.508h1.152c.343 0 .605-.077.788-.232.182-.158.274-.384.274-.68 0-.28-.092-.504-.274-.672-.183-.168-.433-.256-.751-.262h-1.189v1.846zm6.241-2.589c1.005 0 1.579.225 1.579.622 0 .398-.575.623-1.58.623-1.005 0-1.58-.225-1.58-.623 0-.397.575-.622 1.58-.622zm0 1.649c1.346 0 2.153-.358 2.153-1.027 0-.669-.807-1.033-2.154-1.033s-2.154.364-2.154 1.033c0 .669.807 1.027 2.154 1.027zm-1.54 2.689h3.604v-1.338h-4.17v.411h3.617v.53h-3.597v1.424h4.335v-.424h-3.788v-.603zm-1.237-2.285v.437h5.553v-.437h-5.553zm13.019-2.563h-.56v3h.56v-3zm-4.342 1.536c0-.516.445-.881 1.04-.881.601 0 1.04.365 1.04.881 0 .51-.439.875-1.04.875-.595 0-1.04-.365-1.04-.875zm2.626 0c0-.788-.67-1.324-1.586-1.324-.917 0-1.58.536-1.58 1.324 0 .782.663 1.312 1.58 1.312.916 0 1.586-.53 1.586-1.312zm-2.058 3.239h1.347v-1.397h-1.901v.41h1.368v.59h-1.347v1.47h.32c.821 0 1.266-.013 1.82-.119l-.048-.404c-.492.093-.889.112-1.56.112v-.662zm2.892.768c-.348 0-.588-.165-.588-.43 0-.258.24-.431.588-.431.342 0 .575.173.575.431 0 .265-.233.43-.575.43zm0-1.251c-.608 0-1.066.324-1.066.821 0 .497.458.821 1.066.821.602 0 1.053-.324 1.053-.821 0-.497-.45-.821-1.053-.821zm.274-.643v-.55h-.54v.55h-1.047v.404h2.62v-.404h-1.033zm3.514.47c-.588 0-.998-.622-.998-1.589 0-.961.41-1.583.998-1.583.581 0 .992.622.992 1.583 0 .967-.41 1.589-.992 1.589zm2.852-4.119v2.265h-1.334c-.089-1.113-.69-1.808-1.518-1.808-.896 0-1.532.808-1.532 2.073s.636 2.073 1.532 2.073c.855 0 1.463-.729 1.518-1.894h1.334v3.245h.56v-5.954h-.56zm4.307 4.007h-1.71v-1.563h1.71v1.563zM75 111.007v2.205h-1.436v-1.735h-.547v1.543h-1.71v-1.543h-.553v3.981h2.81v-1.809H75v3.312h.56v-5.954H75zm6.284 3.556h.567v-3.55h-.567v.822h-1.19v.443h1.19v.795h-1.19v.444h1.19v1.046zm-4.226-2v1.729h.437c1.204 0 1.833-.013 2.599-.146l-.055-.437c-.718.119-1.32.139-2.434.139v-.868h2.078v-1.669h-2.646v.444h2.1v.808h-2.08zm4.102 2.159h-.547v.332c0 .463-.287 1.072-.868 1.424-.574-.325-.862-.888-.862-1.424v-.332h-.54v.332c0 .582-.458 1.225-1.224 1.503l.274.397a2.12 2.12 0 0 0 1.217-1.112c.184.503.554.94 1.149 1.165.567-.231.936-.695 1.121-1.179.205.504.63.921 1.231 1.126l.287-.397c-.786-.258-1.237-.881-1.237-1.503v-.332zm4.698-3.205c1.005 0 1.58.225 1.58.622 0 .398-.575.623-1.58.623-1.005 0-1.58-.225-1.58-.623 0-.397.575-.622 1.58-.622zm0 1.649c1.347 0 2.154-.358 2.154-1.027 0-.669-.807-1.033-2.154-1.033s-2.154.364-2.154 1.033c0 .669.807 1.027 2.154 1.027zm-1.539 2.689h3.604v-1.338H83.75v.411h3.618v.53h-3.597v1.424h4.335v-.424H84.32v-.603zm-1.238-2.285v.437h5.553v-.437H83.08zm8.691-1.371h.8v-.444H91.26v3.643h.247c.253 0 .65 0 1.155-.113l-.054-.45a4.33 4.33 0 0 1-.835.106v-2.742zm1.573 0h.841v-.444h-1.354v3.643h.253c.356 0 .773-.007 1.279-.133l-.048-.45c-.356.093-.69.119-.97.133v-2.749zm2.482-1.192v2.424h-.718v-2.292h-.52v5.511h.52v-2.775h.718v3.066h.534v-5.934h-.534zm4.055 1.02h2.291v-.451h-2.852v3.901h.486c1.155 0 1.962-.039 2.899-.212l-.061-.45c-.889.152-1.676.199-2.763.199v-2.987zm4.91 1.324h-1.012v-2.344h-.561v5.954h.561v-3.159h1.012v-.451zm2.734-1.828h-.554v1.067c0 1.126-.745 2.265-1.647 2.682l.341.444c.718-.358 1.306-1.1 1.587-1.994.294.848.882 1.55 1.579 1.881l.335-.437c-.909-.397-1.641-1.49-1.641-2.576v-1.067zm2.284-.516v5.954h.561v-5.954h-.561zm5.587.516h-.554v1.067c0 1.079-.698 2.218-1.58 2.656l.335.437c.691-.358 1.258-1.1 1.525-1.967.281.814.834 1.51 1.484 1.848l.349-.431c-.862-.417-1.559-1.497-1.559-2.543v-1.067zm3.672 1.895h-1.012v-2.405h-.561v5.935h.561v-3.08h1.012v-.45zm3.329 3.106c-.964 0-1.531-.232-1.531-.636s.567-.636 1.531-.636c.958 0 1.532.232 1.532.636s-.574.636-1.532.636zm0-1.696c-1.313 0-2.099.378-2.099 1.06s.786 1.053 2.099 1.053c1.32 0 2.1-.371 2.1-1.053 0-.682-.78-1.06-2.1-1.06zm-.848-1.576a5.47 5.47 0 0 0 1.703 0v.695h-1.703v-.695zm-.731-1.033c0-.431.601-.683 1.579-.683s1.58.252 1.58.683c0 .424-.602.682-1.58.682-.978 0-1.579-.258-1.579-.682zm2.988 1.728v-.841c.472-.185.745-.49.745-.887 0-.696-.82-1.106-2.154-1.106-1.326 0-2.154.41-2.154 1.106 0 .404.267.702.752.894v.834h-1.374v.438h5.553v-.438h-1.368zm3.911 1.226c-.554 0-.958-.384-.958-.914 0-.537.404-.921.958-.921.56 0 .964.384.964.921 0 .53-.404.914-.964.914zm0-2.285c-.862 0-1.484.569-1.484 1.371 0 .808.622 1.364 1.484 1.364.875 0 1.497-.556 1.497-1.364 0-.802-.622-1.371-1.497-1.371zm.273-1.809h-.56v.881h-1.546v.438h3.617v-.438h-1.511v-.881zm3.659 2.372h-1.006v-2.438h-.56v5.935h.56v-3.04h1.006v-.457zm.922-1.802v.437h2.305c-.117 1.411-.937 2.55-2.585 3.312l.301.444c2.037-.967 2.851-2.477 2.851-4.193h-2.872zm4.11-.642v5.941h.561v-5.941h-.561zm5.525.728c.595 0 1.019.311 1.019.775s-.424.775-1.019.775c-.602 0-1.026-.311-1.026-.775s.424-.775 1.026-.775zm0 1.994c.909 0 1.559-.497 1.559-1.219 0-.728-.65-1.225-1.559-1.225-.917 0-1.566.497-1.566 1.225 0 .722.649 1.219 1.566 1.219zm2.017.291c-1.347.199-2.899.212-4.041.212l.075.457c.506 0 1.087-.006 1.696-.033v2.106h.56v-2.139a15.658 15.658 0 0 0 1.758-.199l-.048-.404zm.444-3.007v5.941h.561v-5.941h-.561zm3.337 4.107c-.479 0-.814-.378-.814-.908 0-.516.335-.894.814-.894.472 0 .814.378.814.894 0 .53-.342.908-.814.908zm0-2.259c-.759 0-1.313.557-1.313 1.351 0 .808.554 1.358 1.313 1.358.759 0 1.313-.55 1.313-1.358 0-.794-.554-1.351-1.313-1.351zm.273-1.682h-.554v.841h-1.244v.444h3.043v-.444h-1.245v-.841zm2.865-.179v2.51h-.786v-2.371h-.526v5.517h.526v-2.702h.786v2.987h.541V111h-.541zm3.781.517h-.56v1.066c0 1.099-.698 2.245-1.587 2.676l.342.43c.691-.357 1.258-1.106 1.525-1.987.28.835.841 1.544 1.539 1.881l.328-.43c-.889-.411-1.587-1.49-1.587-2.57v-1.066zm2.346-.51v2.013h-1.423v.444h1.423v3.49h.561v-5.947h-.561zm8.233 2.318c.177-.821.177-1.424.177-1.802v-.258h-2.065v.444h1.518a7.972 7.972 0 0 1-.171 1.556l.541.06zm-2.674.006c.28-.874.28-1.523.28-1.854v-.212h-1.86v.444h1.313a5.776 5.776 0 0 1-.28 1.55l.547.072zm-1.457 2.021h3.679v1.569h.561v-2.013h-4.24v.444zm2.558-1.517v-1.199h-.554v1.199h-2.599v.437h5.526v-.437h-2.373zm9.86-2.828h-.561v3.086h.561v-3.086zm-3.617.828h.998v1.543c-.335.02-.67.033-.998.04v-1.583zm2.441 1.43c-.294.033-.595.066-.903.086v-1.516h.602v-.431h-3.289v.431h.602v1.596c-.267.006-.527.006-.766.006l.055.451c1.08-.007 2.509-.047 3.726-.225l-.027-.398zm-2.257 3.186v-.649h3.433v-1.424h-4.007v.424h3.453v.596h-3.433v1.484h4.22v-.431h-3.666zm6.605-2.113c.253.06.547.093.848.093.308 0 .602-.033.862-.093v1.398h-1.71v-1.398zm.848-2.53c.985 0 1.696.437 1.696 1.1 0 .662-.711 1.099-1.696 1.099-.984 0-1.689-.437-1.689-1.099 0-.663.705-1.1 1.689-1.1zm1.423 3.928v-1.61c.506-.258.806-.682.806-1.218 0-.928-.923-1.524-2.229-1.524-1.299 0-2.229.596-2.229 1.524 0 .536.308.967.821 1.225v1.603h-1.368v.45h5.573v-.45h-1.374zm5.736-4.001h-1.532v-.722h-.56v.722h-1.525v.437h3.617v-.437zm-2.742 1.868c0-.411.369-.676.93-.676.554 0 .937.265.937.676 0 .417-.383.682-.937.682-.561 0-.93-.265-.93-.682zm2.4 0c0-.662-.602-1.099-1.47-1.099s-1.463.437-1.463 1.099c0 .669.595 1.106 1.463 1.106.868 0 1.47-.437 1.47-1.106zm-1.791 1.51h-.561v1.702h4.089v-.443h-3.528v-1.259zm3.255-2.146v-1.954h-.561v4.451h.561v-2.04H187v-.457h-.909zm-88.145 11.006h-3.022v-1.212h3.022v1.212zm.554-1.649h-4.123v2.086H98.5v-2.086zm-3.576 3.835h-.56v1.695h4.239v-.443h-3.679v-1.252zm-1.272-1.073v.437h2.55v1.199h.561v-1.199h2.462v-.437h-5.573zm8.451-2.53h-.56v1.066c0 1.099-.698 2.245-1.587 2.676l.342.43c.691-.357 1.258-1.106 1.525-1.987.28.835.841 1.544 1.539 1.881l.328-.43c-.889-.411-1.587-1.49-1.587-2.57v-1.066zm2.346-.51v2.013h-1.422v.444h1.422v3.49h.561v-5.947h-.561zm6.27.006v3.186h.56v-3.186h-.56zm-3.392 3.477v2.378h3.952v-2.378h-.553v.729h-2.845v-.729h-.554zm.554 1.153h2.845v.788h-2.845v-.788zm.103-4.352c-.924 0-1.594.557-1.594 1.365 0 .821.67 1.371 1.594 1.371.93 0 1.606-.55 1.606-1.371 0-.808-.676-1.365-1.606-1.365zm0 .451c.622 0 1.059.377 1.059.914 0 .543-.437.92-1.059.92-.609 0-1.047-.377-1.047-.92 0-.537.438-.914 1.047-.914zm5.497-.159h-.561v3.828h.506c.978 0 1.942-.066 3.009-.278l-.062-.464a14.917 14.917 0 0 1-2.892.278v-3.364zm3.521-.576v5.934h.561v-5.934h-.561zm2.646 1.02h2.291v-.451h-2.852v3.901h.486c1.156 0 1.962-.039 2.899-.212l-.061-.45c-.889.152-1.676.199-2.763.199v-2.987zm4.91 1.324h-1.012v-2.344h-.561V128h.561v-3.159h1.012v-.451zm.678 2.793c0-.104.032-.19.094-.259.064-.069.16-.103.287-.103.127 0 .223.034.287.103.067.069.1.155.1.259a.338.338 0 0 1-.1.249c-.064.067-.16.1-.287.1-.127 0-.223-.033-.287-.1a.354.354 0 0 1-.094-.249zm-71.734 28.248c.983-.119 1.886-.557 2.214-1.212.334.655 1.23 1.093 2.214 1.212l.194-.431c-1.05-.119-2.007-.629-2.053-1.285h1.866v-.437h-4.435v.437h1.86c-.047.656-1.004 1.166-2.054 1.285l.194.431zm3.706 2.464c0 .397-.562.629-1.499.629-.943 0-1.498-.232-1.498-.629 0-.398.555-.623 1.498-.623.937 0 1.499.225 1.499.623zm1.217-1.669v-.438H53v.438h2.435v.635c-1.117.053-1.78.418-1.78 1.034 0 .675.777 1.046 2.061 1.046 1.278 0 2.047-.371 2.047-1.046 0-.616-.655-.981-1.773-1.034v-.635h2.435zm2.609.112c.247.06.535.093.83.093.3 0 .588-.033.842-.093v1.398h-1.672v-1.398zm.83-2.53c.963 0 1.658.437 1.658 1.1 0 .662-.695 1.099-1.659 1.099-.963 0-1.652-.437-1.652-1.099 0-.663.69-1.1 1.652-1.1zm1.39 3.928v-1.61c.496-.258.79-.682.79-1.218 0-.928-.903-1.524-2.18-1.524-1.272 0-2.181.596-2.181 1.524 0 .536.3.967.802 1.225v1.603h-1.338v.45H64.6v-.45h-1.345zm4.316-.206h3.605v1.418h.549v-1.855H67.57v.437zm.655-3.285h2.917v.689h-2.917v-.689zm1.733 1.828v-.708h1.726v-2.219h-.542v.675h-2.917v-.675h-.542v2.219h1.726v.708h-2.448v.444h5.432v-.444h-2.435zm6.308.444v.404h1.217v.609h.549v-4.523h-.549v3.51h-1.217zm-1.225-2.868c.57 0 .957.252.957.629 0 .384-.388.636-.957.636-.568 0-.956-.252-.956-.636 0-.377.388-.629.956-.629zm0 1.669c.877 0 1.479-.404 1.479-1.04 0-.622-.602-1.033-1.479-1.033-.876 0-1.478.411-1.478 1.033 0 .636.602 1.04 1.478 1.04zm-.214 2h.549v-1.172a18.859 18.859 0 0 0 1.625-.172l-.046-.391c-1.271.159-2.757.172-3.867.172l.074.451c.495 0 1.07-.007 1.665-.033v1.145zm-.334 1.054v-1.285h-.549v1.728h4.242v-.443h-3.693zm6.823-4.749v.443h2.161c-.02.365-.08.709-.18 1.04l-2.282.153.094.476 2.02-.192c-.368.795-1.03 1.471-2.14 2.014l.3.417c2.148-1.06 2.736-2.629 2.736-4.351h-2.709zm5.198 1.795h-.963v-2.411h-.549v5.941h.549v-3.08h.963v-.45zm5.385.437h-3.58V154h3.52v-.45h-4.061v2.748h4.12v-.443zm-4.817 1.841v.45h5.446v-.45h-5.446zm11.995-2.557H96.16v-.768h2.917v.768zm.542-1.94h-.542v.755H96.16v-.755h-.542v2.371h4v-2.371zm-3.493 4h-.541v1.616h4.147v-.443h-3.606v-1.173zm-1.237-1.053v.437h2.495v1.153h.549v-1.153h2.408v-.437h-5.452zm11.084-3.133h-.548v3.073h.548v-3.073zm-1.284 2.477c-.89-.291-1.519-1.033-1.519-1.854v-.451h-.548v.451c0 .861-.622 1.656-1.526 1.967l.281.424a2.536 2.536 0 0 0 1.526-1.477c.274.629.823 1.126 1.512 1.364l.274-.424zm-2.04 2.961v-.636h3.331v-1.43h-3.887v.43h3.345v.59h-3.331v1.477h4.074v-.431h-3.532zm7.552-.682v-1.12h1.92v-.437h-3.693v-.96h3.552v-1.808h-4.107v.444h3.572v.927h-3.559v1.834h1.759v1.12h-2.441v.444h5.452v-.444h-2.455zm9.746-4.756h-.548v4.339h.548v-4.339zm-4.248 1.868c0-.576.442-.987 1.024-.987.595 0 1.037.411 1.037.987 0 .59-.442 1-1.037 1-.582 0-1.024-.41-1.024-1zm2.596 0c0-.854-.676-1.457-1.572-1.457-.89 0-1.559.603-1.559 1.457 0 .861.669 1.47 1.559 1.47.896 0 1.572-.609 1.572-1.47zm-1.659 3.491v-1.464h-.549v1.907h4.041v-.443h-3.492zm8.101-4.637h-1.499v-.722h-.548v.722h-1.492v.437h3.539v-.437zm-2.683 1.868c0-.411.361-.676.91-.676.542 0 .916.265.916.676 0 .417-.374.682-.916.682-.549 0-.91-.265-.91-.682zm2.348 0c0-.662-.588-1.099-1.438-1.099s-1.432.437-1.432 1.099c0 .669.582 1.106 1.432 1.106s1.438-.437 1.438-1.106zm-1.752 1.51h-.549v1.702h4v-.443h-3.451v-1.259zm3.184-2.146v-1.954h-.549v4.451h.549v-2.04h.89v-.457h-.89zm4.502-.881h1.003v2.888c-.341.013-.675.027-1.003.033v-2.921zm1.532 0h.669v-.437h-3.399v.437h.669v2.928c-.287.006-.562.006-.816.006l.06.457c1.091-.006 2.536-.019 3.827-.225l-.033-.397c-.315.04-.643.073-.977.086v-2.855zm1.498-1.073v5.935h.549v-5.935h-.549zm3.264 4.107c-.468 0-.796-.378-.796-.908 0-.516.328-.894.796-.894.462 0 .796.378.796.894 0 .53-.334.908-.796.908zm0-2.259c-.742 0-1.284.557-1.284 1.351 0 .808.542 1.358 1.284 1.358.743 0 1.285-.55 1.285-1.358 0-.794-.542-1.351-1.285-1.351zm.268-1.682h-.542v.841h-1.217v.444h2.977v-.444h-1.218v-.841zm2.803-.179v2.51h-.769v-2.371h-.515v5.517h.515v-2.702h.769v2.987h.528V153h-.528zm6.408 1.795h-3.532v-1.57h-.549v2.014h4.081v-.444zm-3.572 2.272h-.549v1.735h4.155v-.444h-3.606v-1.291zm-1.244-1.033v.437h5.438v-.437h-5.438zm11.298-.616c-.789.165-1.478.205-2.669.205v-1.722h2.107v-.437h-2.649v2.603h.469c1.264 0 1.98-.04 2.803-.206l-.061-.443zm-.729 3.086c-.89 0-1.438-.265-1.438-.702 0-.437.548-.702 1.438-.702.883 0 1.432.265 1.432.702 0 .437-.549.702-1.432.702zm0-1.841c-1.217 0-1.98.424-1.98 1.139 0 .715.763 1.139 1.98 1.139 1.211 0 1.974-.424 1.974-1.139 0-.715-.763-1.139-1.974-1.139zm1.913-2.113v-1.543h-.555v3.537h.555V155h.883v-.45h-.883zm3.505-1.027h-.542v1.067c0 1.079-.682 2.218-1.545 2.656l.328.437c.676-.358 1.231-1.1 1.492-1.967.274.814.816 1.51 1.451 1.848l.342-.431c-.843-.417-1.526-1.497-1.526-2.543v-1.067zm3.593 1.895h-.99v-2.405h-.549v5.935h.549v-3.08h.99v-.45zm.869-1.776v.451h2.201c-.127 1.404-.95 2.543-2.482 3.305l.301.424c1.94-.961 2.723-2.491 2.723-4.18h-2.743zm5.258 1.776h-.963v-2.411h-.549v5.941h.549v-3.08H167v-.45zm-95.402 12.747c-.576 0-.977-.622-.977-1.589 0-.961.401-1.583.977-1.583.568 0 .97.622.97 1.583 0 .967-.402 1.589-.97 1.589zm2.79-4.119v2.265h-1.305c-.087-1.113-.676-1.808-1.485-1.808-.877 0-1.499.808-1.499 2.073s.622 2.073 1.499 2.073c.836 0 1.431-.729 1.485-1.894h1.304V170h.549v-5.954h-.549zm2.481 1.039h.936v-.437h-1.478v3.809h.26c.389 0 .803-.007 1.312-.119l-.06-.451a5.46 5.46 0 0 1-.97.119v-2.921zm1.806 0h1.084v-.437h-1.626v3.809h.301c.629 0 1.077-.013 1.619-.139l-.053-.451c-.442.106-.843.133-1.325.139v-2.921zm1.927-1.033v2.166h-1.144v.444h1.144v3.318h.548v-5.928h-.548zm5.258.722h-1.5v-.722h-.548v.722H82.32v.437h3.54v-.437zm-2.683 1.868c0-.411.36-.676.91-.676.541 0 .916.265.916.676 0 .417-.375.682-.917.682-.548 0-.91-.265-.91-.682zm2.348 0c0-.662-.589-1.1-1.439-1.1-.85 0-1.431.438-1.431 1.1 0 .669.582 1.106 1.431 1.106.85 0 1.439-.437 1.439-1.106zm-1.753 1.51h-.549v1.702h4v-.443h-3.451v-1.259zm3.184-2.146v-1.954h-.548v4.451h.548v-2.04h.89v-.457h-.89zm6.148.987c-.763-.285-1.218-.96-1.218-1.662v-.067h1.07v-.437h-1.07v-.715h-.521v.715H90.28v.437h1.084v.067c0 .748-.442 1.47-1.204 1.781l.267.398a2.101 2.101 0 0 0 1.204-1.305c.214.536.63.973 1.211 1.205l.261-.417zm-1.96 1.457h3.485v1.537h.549v-1.981h-4.034v.444zm3.505-4.398v1.583h-.756v-1.483h-.515v3.503h.515v-1.576h.756v1.616h.529v-3.643h-.529zm5.994 0v3.398h.548v-3.398h-.548zm-3.332 3.716v2.139h3.88v-2.139h-3.88zm3.345.43v1.272h-2.81v-1.272h2.81zm-2.69-3.834c-.902 0-1.558.562-1.558 1.384 0 .821.656 1.384 1.559 1.384.91 0 1.572-.563 1.572-1.384 0-.822-.662-1.384-1.572-1.384zm0 .45c.603 0 1.038.391 1.038.934 0 .55-.435.934-1.037.934-.596 0-1.024-.384-1.024-.934 0-.543.428-.934 1.024-.934zm7.446 3.974v-1.523h1.826v-.438h-3.579v-1.861h3.519v-.444h-4.067v2.743h1.746v1.523h-2.442v.45h5.452v-.45h-2.455zm6.964-3.683h1.411v-.45h-3.351v.45h1.391v.755c0 1.027-.729 2.146-1.592 2.55l.321.438c.683-.345 1.271-1.093 1.546-1.961.287.815.876 1.497 1.572 1.815l.307-.437c-.883-.371-1.605-1.398-1.605-2.405v-.755zm2.221-1.053v5.935h.548v-5.935h-.548zm3.933 1.053h1.411v-.45h-3.351v.45h1.391v.755c0 1.027-.729 2.146-1.592 2.55l.321.438c.683-.345 1.271-1.093 1.546-1.961.287.815.876 1.497 1.572 1.815l.307-.437c-.883-.371-1.605-1.398-1.605-2.405v-.755zm2.221-1.053v5.935h.548v-5.935h-.548zm4.1 1.702c0-.543.435-.927 1.017-.927.576 0 1.01.384 1.01.927 0 .544-.434.928-1.01.928-.582 0-1.017-.384-1.017-.928zm2.563 0c0-.808-.656-1.371-1.546-1.371-.896 0-1.552.563-1.552 1.371s.656 1.371 1.552 1.371c.89 0 1.546-.563 1.546-1.371zm-2.047 1.895h-.536v2.185h.288c.408 0 .97-.033 1.539-.218l-.087-.431a4.633 4.633 0 0 1-1.204.199v-1.735zm2.582 1.947c-.368 0-.622-.185-.622-.457s.254-.45.622-.45c.361 0 .622.178.622.45s-.261.457-.622.457zm0-1.292c-.649 0-1.111.325-1.111.835 0 .517.462.841 1.111.841s1.11-.324 1.11-.841c0-.51-.461-.835-1.11-.835zm.267-1.152h-.535v.536h-1.244v.404h3.017v-.404h-1.238v-.536zm.643-1.775v-1.331h-.549v2.96h.549v-1.179h.889v-.45h-.889zm6.615.523c-1.063-.132-2.12-.788-2.12-1.523v-.265h-.562v.265c0 .755-1.051 1.391-2.128 1.523l.201.437c.937-.145 1.833-.609 2.208-1.271.381.662 1.271 1.126 2.201 1.271l.2-.437zm-.943 3.57h-2.95v-.755h2.95v.755zm0-1.172h-2.95v-.696h-.542v2.305h4.034v-2.305h-.542v.696zm-4.181-1.543v.437h5.432v-.437h-5.432zm7.084-2.133h-.549v3.828h.495c.957 0 1.9-.066 2.944-.278l-.06-.464c-.997.199-1.927.278-2.83.278v-3.364zm3.445-.576v5.934h.549v-5.934h-.549zm2.588 1.02h2.242v-.451h-2.79v3.901h.475c1.13 0 1.92-.039 2.836-.212l-.06-.45c-.87.152-1.639.199-2.703.199v-2.987zm4.804 1.324h-.99v-2.344h-.549V170h.549v-3.159h.99v-.451zm.664 2.793c0-.104.03-.19.091-.259.063-.069.157-.103.281-.103.124 0 .218.034.281.103a.363.363 0 0 1 .098.259.344.344 0 0 1-.098.249c-.063.067-.157.1-.281.1-.124 0-.218-.033-.281-.1a.356.356 0 0 1-.091-.249zM37.445 320.065l.114.721 3.56-.182a8.561 8.561 0 0 1-.21 1.195l.876.104c.29-1.312.284-2.15.284-2.871v-.526h-4.435v.682h3.558c0 .234 0 .487-.02.76l-3.727.117zm2.433 2.539v-1.429h-.89v1.429H37v.695h5.614v-.695h-2.736zm3.767-2.539l.115.721 3.559-.182a8.417 8.417 0 0 1-.21 1.195l.877.104c.29-1.312.283-2.15.283-2.871v-.526h-4.435v.682h3.559c0 .234 0 .487-.02.76l-3.728.117zm2.433 2.539v-1.429h-.89v1.429H43.2v.695h5.615v-.695h-2.737zm7.286-2.461h.485v1.487h.843v-3.624h-.843v1.442h-.485v-1.331h-.83v3.351h.83v-1.325zm-2.11.428h-.802v-.701h.802v.701zm.822-2.175h-.822v.818h-.802v-.818h-.836v2.851h2.46v-2.851zm.513 4.948c-.81 0-1.254-.156-1.254-.48 0-.325.445-.481 1.254-.481.795 0 1.24.156 1.24.481 0 .324-.445.48-1.24.48zm0-1.617c-1.308 0-2.144.429-2.144 1.137 0 .701.836 1.13 2.144 1.13 1.3 0 2.13-.429 2.13-1.13 0-.708-.83-1.137-2.13-1.137zm3.471-1.435l.107.695 3.545-.175c-.04.402-.108.837-.229 1.324l.876.085c.29-1.299.29-2.124.29-2.994v-.695h-4.415v.682h3.539v.013c0 .305 0 .617-.014.948l-3.7.117zm-.452 2.286v.701h5.607v-.701h-5.607zm10.272-3.292h1.28v-.708h-3.478v.708h1.294v.331c0 1.019-.505 2.117-1.544 2.565l.506.682c.728-.319 1.227-.974 1.503-1.754.276.721.768 1.306 1.49 1.604l.485-.675c-1.038-.416-1.537-1.448-1.537-2.422v-.331zm1.853-1.28v5.981h.89v-5.981h-.89zm5.687 2.689c-.95-.305-1.374-1.013-1.401-1.701h1.206v-.682H69.89v.682h1.22c-.02.74-.465 1.493-1.463 1.805l.452.682a2.403 2.403 0 0 0 1.483-1.293c.27.533.728.961 1.408 1.176l.432-.669zm-1.806 1.682H74v.87h-2.386v-.87zm-.876 1.539h4.132v-2.208h-4.132v2.208zm3.242-5.91v1.384h-.937v.694h.937v1.377h.89v-3.455h-.89zm3.895.397c-.97 0-1.705.616-1.705 1.474 0 .863.735 1.474 1.705 1.474.97 0 1.712-.611 1.712-1.474 0-.858-.741-1.474-1.712-1.474zm0 .733c.479 0 .843.273.843.741 0 .467-.364.74-.843.74-.478 0-.842-.273-.842-.74 0-.468.364-.741.842-.741zM80.167 318v6h.89v-6h-.89zm-4.145 4.786c1.072 0 2.527-.013 3.862-.273l-.054-.617c-1.308.188-2.83.195-3.923.195l.115.695zm9.105-2.825c0-.61.587-.967 1.436-.967.856 0 1.442.357 1.442.967s-.586.968-1.442.968c-.85 0-1.436-.358-1.436-.968zm1.88 2.636v-1.013c1.1-.123 1.874-.733 1.874-1.623 0-1-.99-1.649-2.318-1.649-1.321 0-2.312.649-2.312 1.649 0 .89.775 1.494 1.867 1.623v1.013h-2.359v.695h5.621v-.695h-2.372zM93.39 321h-1.267v-1.792h1.267V321zm-2.15 0h-.809v.682h4.664V321h-.822v-1.792h.843v-.682h-4.719v.682h.843V321zm-1.28 1.597v.695h5.62v-.695h-5.62zm7.332-1.772h1.968v-2.312h-2.85v.682h1.975v.954h-1.968v2.468h.526c1.078 0 1.934-.039 2.864-.201l-.08-.695c-.81.136-1.544.182-2.434.188v-1.084zm4.63-.565h-.889V318h-.89v6h.89v-3.032h.889v-.708zm5.594-2.247h-.896v4.292h.896v-4.292zm-4.199 1.896c0-.493.364-.779.822-.779.465 0 .816.286.816.779 0 .481-.351.773-.816.773-.458 0-.822-.292-.822-.773zm2.507 0c0-.883-.734-1.519-1.685-1.519-.95 0-1.691.636-1.691 1.519 0 .87.741 1.513 1.691 1.513.951 0 1.685-.643 1.685-1.513zm-1.55 3.292v-1.318h-.89v2h4.287v-.682h-3.397zm7.441-3.22h2.655v.837h-2.655v-.837zm1.772 2.616V321.5h1.76v-3.123h-.877v.928h-2.655v-.928h-.883v3.123h1.766v1.097h-2.359v.695h5.621v-.695h-2.373zm6.268-2.026c.142-.753.142-1.344.142-1.759v-.37h-3.188v.681h2.311a8.12 8.12 0 0 1-.134 1.351l.869.097zm.411.241c-.579.078-1.199.123-1.813.149v-1.13h-.869v1.163c-.405.006-.789.006-1.133.006l.081.682c1.065-.007 2.508-.033 3.788-.26l-.054-.61zm-2.022 1.272h-.889v1.799h4.333v-.682h-3.444v-1.117zm3.249-2.259V318h-.89v4.481h.89v-1.949h.741v-.707h-.741zm5.257-1.357h-.897v.863c0 1.137-.471 2.299-1.523 2.766l.553.689c.694-.338 1.159-.961 1.429-1.728.256.721.707 1.306 1.388 1.624l.526-.682c-1.025-.442-1.476-1.539-1.476-2.669v-.863zm1.988-.468v1.877h-1.193v.688h1.193V324h.89v-6h-.89zm6.133 0v6h.89v-6h-.89zm-3.95.481v4.123h3.06v-4.123h-.883v1.448h-1.294v-1.448h-.883zm.883 2.116h1.294v1.325h-1.294v-1.325zm10.44.228c-1.402-.234-2.17-1.163-2.17-2.039v-.429h-.951v.429c0 .857-.775 1.805-2.17 2.039l.378.714c1.078-.201 1.867-.786 2.264-1.545.398.759 1.193 1.337 2.272 1.545l.377-.714zm-5.426 1.74v.695h5.622v-.695h-5.622zm10.258-3.584h-3.356v1.428h4.34v-.578h-3.464v-.312h3.356v-1.409h-4.246v.578h3.37v.293zm-2.534 4.051h3.431v-1.422h-4.321v.578h3.438v.306h-3.431v1.441h4.482v-.578h-3.599v-.325zm-1.523-2.337v.617h5.621v-.617h-5.621zM155.05 318v6h.89v-6h-.89zm-2.446.422c-.937 0-1.631.818-1.631 2.13 0 1.318.694 2.143 1.631 2.143s1.631-.825 1.631-2.143c0-1.312-.694-2.13-1.631-2.13zm0 .773c.458 0 .775.474.775 1.357 0 .89-.317 1.364-.775 1.364-.459 0-.775-.474-.775-1.364 0-.883.316-1.357.775-1.357zm7.184 4.149c-.829 0-1.254-.136-1.254-.441 0-.306.425-.435 1.254-.435s1.254.129 1.254.435c0 .305-.425.441-1.254.441zm0-1.526c-1.341 0-2.15.39-2.15 1.085 0 .694.809 1.091 2.15 1.091 1.341 0 2.157-.397 2.157-1.091 0-.695-.816-1.085-2.157-1.085zm-.64-1.474c.202.026.418.039.654.039.229 0 .444-.013.64-.032v.493h-1.294v-.5zm.654-1.597c.849 0 1.334.162 1.334.5 0 .324-.485.493-1.334.493-.843 0-1.328-.169-1.328-.493 0-.338.485-.5 1.328-.5zm1.53 2.097v-.714c.458-.195.721-.494.721-.883 0-.715-.876-1.15-2.251-1.15-1.369 0-2.245.435-2.245 1.15 0 .383.256.682.701.876v.721h-1.26v.675h5.607v-.675h-1.273zm3.659 1.221c-.418 0-.728-.273-.728-.727 0-.455.31-.734.728-.734s.721.279.721.727c0 .461-.303.734-.721.734zm0-2.156c-.903 0-1.577.591-1.577 1.422 0 .844.674 1.435 1.577 1.435.896 0 1.564-.591 1.564-1.435 0-.831-.668-1.422-1.564-1.422zm.438-1.799h-.89v.78h-1.375v.681h3.613v-.681h-1.348v-.78zm3.532 2.234h-.89v-2.338h-.89v5.981h.89v-2.935h.89v-.708zm2.419-1.818h-.856v1.006c0 1.02-.33 2.091-1.24 2.624l.532.643c.56-.325.924-.896 1.139-1.559.196.604.526 1.111 1.052 1.422l.485-.662c-.842-.539-1.112-1.532-1.112-2.5v-.974zm1.24 1.5h-.775v.695h.775v3h.829v-5.617h-.829v1.922zm1.26-2.02v5.981h.843v-5.981h-.843zm3.842 3.449c.215.039.438.058.681.058.242 0 .471-.019.687-.058v1.142h-1.368v-1.142zm.681-2.481c.862 0 1.442.338 1.442.935 0 .591-.58.935-1.442.935-.863 0-1.436-.344-1.436-.935 0-.597.573-.935 1.436-.935zm1.57 3.623v-1.461c.465-.279.748-.707.748-1.227 0-.98-.977-1.61-2.318-1.61-1.335 0-2.312.63-2.312 1.61-.007.52.276.948.748 1.227v1.461h-1.24v.695h5.621v-.695h-1.247zm1.951.381c0-.146.05-.264.151-.355a.561.561 0 0 1 .385-.136c.156 0 .284.045.385.136a.451.451 0 0 1 .155.355c0 .144-.05.261-.151.352a.567.567 0 0 1-.389.133.56.56 0 0 1-.385-.133.451.451 0 0 1-.151-.352z"/></svg>