<svg xmlns="http://www.w3.org/2000/svg" width="140" height="30" fill="none" viewBox="0 0 140 30"><path fill="#000" d="M43.625 16.483c0-.626-.143-1.066-.432-1.326-.289-.26-.721-.39-1.296-.39h-1.038v7.179h-3.456V3.606h4.725c1.596 0 2.834.385 3.719 1.156.884.772 1.327 1.895 1.327 3.37v2.107c0 1.58-.51 2.756-1.528 3.538.517.243.888.588 1.11 1.042.22.45.33 1.065.33 1.847v5.28h-3.457v-5.463h-.004zM40.86 11.93h1.18c.48 0 .879-.125 1.195-.379.316-.25.476-.68.476-1.289V8.104c0-.642-.16-1.079-.476-1.312-.316-.234-.714-.352-1.194-.352h-1.18v5.49zm9.018-5.513V3.349h3.4v3.068h-3.4zm0 15.529V7.482h3.372v14.46h-3.372v.004zm15.705-4.293c0 .727-.116 1.373-.347 1.938a3.891 3.891 0 0 1-.95 1.404c-.404.372-.877.66-1.425.86a5.16 5.16 0 0 1-1.773.297c-.537 0-.983-.05-1.34-.156a2.358 2.358 0 0 1-.936-.52v5.175H55.5V11.825c0-1.475.432-2.591 1.296-3.356.864-.764 2.113-1.143 3.746-1.143s2.881.382 3.745 1.143c.864.765 1.297 1.881 1.297 3.356v5.828zm-6.774.129c0 .538.16.954.476 1.248.317.294.735.443 1.252.443 1.113 0 1.67-.605 1.67-1.82v-5.852c0-.626-.142-1.075-.431-1.353-.29-.277-.701-.416-1.239-.416-.517 0-.935.139-1.252.416-.316.278-.476.727-.476 1.353v5.98zm19.365-.129c0 .727-.116 1.373-.347 1.938a3.891 3.891 0 0 1-.95 1.404c-.404.372-.877.66-1.425.86a5.158 5.158 0 0 1-1.772.297c-.538 0-.984-.05-1.34-.156a2.355 2.355 0 0 1-.937-.52v5.175H68.09V11.825c0-1.475.432-2.591 1.296-3.356.864-.764 2.113-1.143 3.746-1.143s2.881.382 3.745 1.143c.865.765 1.297 1.881 1.297 3.356v5.828zm-6.774.129c0 .538.16.954.476 1.248.317.294.735.443 1.252.443 1.113 0 1.67-.605 1.67-1.82v-5.852c0-.626-.142-1.075-.431-1.353-.29-.277-.701-.416-1.239-.416-.517 0-.935.139-1.252.416-.316.278-.476.727-.476 1.353v5.98zM84.05 3.633v14.044c0 .606.125 1.002.373 1.184.249.183.569.274.95.274h.173v2.808h-.374c-1.44 0-2.541-.295-3.3-.883-.759-.589-1.14-1.604-1.14-3.044V3.633h3.317zm12.158 18.313h-4.494a8.926 8.926 0 0 1-1.684-.156 3.608 3.608 0 0 1-1.44-.599c-.41-.294-.748-.72-1.006-1.275-.259-.555-.388-1.282-.388-2.185v-5.879c0-1.475.405-2.598 1.211-3.369.806-.771 2.028-1.157 3.66-1.157 1.614 0 2.825.382 3.63 1.143.807.765 1.212 1.891 1.212 3.383v1.796c0 .832-.112 1.495-.33 1.99-.221.493-.524.872-.908 1.129-.385.26-.85.43-1.399.507a12.59 12.59 0 0 1-1.772.119h-1.93v.389c0 .365.038.642.117.832.078.19.187.335.33.43.142.094.316.152.517.168.2.017.428.028.677.028h4.004v2.706h-.007zm-4.235-7.127c.575 0 .98-.109 1.21-.325.232-.217.348-.602.348-1.157v-1.614c0-.605-.113-1.041-.33-1.298-.221-.26-.602-.39-1.14-.39-.538 0-.922.136-1.153.403-.232.27-.347.714-.347 1.34v3.044h1.412v-.003z"/><path fill="#00B27B" d="M103.955 15.99v5.956h-3.457V3.606h4.726c1.595 0 2.834.385 3.718 1.156.885.772 1.327 1.895 1.327 3.37v3.328c0 1.475-.442 2.598-1.327 3.369-.884.771-2.123 1.157-3.718 1.157h-1.269v.003zm0-2.835h1.18c.48 0 .878-.126 1.194-.38.317-.25.477-.68.477-1.288V8.104c0-.642-.16-1.079-.477-1.312-.316-.234-.714-.352-1.194-.352h-1.18v6.715zm12.22-9.522v14.044c0 .606.126 1.002.374 1.184.249.183.569.274.95.274h.173v2.808h-.374c-1.439 0-2.541-.295-3.3-.883-.759-.589-1.14-1.604-1.14-3.044V3.633h3.317zm13.309 4.083v10.093c0 1.543-.432 2.696-1.296 3.46-.864.762-2.075 1.144-3.63 1.144-1.575 0-2.79-.382-3.644-1.143-.854-.765-1.282-1.915-1.282-3.46V7.715h3.313V17.91c0 .626.16 1.072.477 1.34.316.27.724.402 1.224.402s.875-.135 1.123-.403c.248-.267.374-.713.374-1.34V7.717h3.341zm2.161 11.524h3.456c.5 0 .898-.092 1.194-.274.3-.183.446-.48.446-.897 0-.433-.102-.767-.303-1-.201-.234-.609-.498-1.225-.796l-.748-.389c-.943-.466-1.691-1.018-2.249-1.65-.558-.633-.837-1.479-.837-2.537 0-1.248.398-2.223 1.194-2.926.796-.704 2.031-1.052 3.702-1.052h2.824v2.679h-2.824c-.5 0-.895.105-1.181.31-.286.207-.432.522-.432.938 0 .348.106.68.317 1.001.211.322.653.656 1.326 1.001l.575.288c.575.311 1.062.605 1.456.883.395.277.715.571.967.883.248.31.428.656.534 1.028.105.372.16.812.16 1.312 0 1.336-.395 2.32-1.181 2.953-.789.633-1.891.95-3.314.95h-3.861V19.24h.004z"/><path fill="#000" fill-rule="evenodd" d="M0 19.52v-7.823C9.808 12.857 16.895 8.944 19.634.423 20.354 13.486 12.69 18.817 0 19.52zm19.569 1.384c-.174 8.21 1.837 9.096-8.78 9.096 2.078-5.29 5.45-7.898 8.78-9.096z" clip-rule="evenodd"/><path fill="#00B27B" fill-rule="evenodd" d="M10.223 9.096C10.397.89 8.386 0 19.004 0c-2.079 5.29-5.45 7.898-8.78 9.096zm19.569 1.384v7.82c-9.808-1.16-16.895 2.753-19.633 11.274-.722-13.06 6.943-18.39 19.633-19.095z" clip-rule="evenodd"/></svg>