<svg xmlns="http://www.w3.org/2000/svg" width="24" height="24" viewBox="0 0 24 24"><defs><linearGradient id="a" x1=".091" x2="1.115" y1=".067" y2=".782" gradientUnits="objectBoundingBox"><stop offset="0" stop-color="#fff"/><stop offset="1" stop-color="#fff"/></linearGradient></defs><g data-name="그룹 618" transform="translate(-85 -9.845)"><circle cx="12" cy="12" r="12" fill="#0081c2" data-name="타원 30" transform="translate(85 9.845)"/><path fill="url(#a)" d="M103.073 25.183a2.811 2.811 0 0 0-.789-1.288 2.555 2.555 0 0 0-1.358-.8 6.337 6.337 0 0 0-1.488-.2 1.267 1.267 0 0 1-.95-1.292 1.369 1.369 0 0 1 1.019-1.217h.338a3.251 3.251 0 0 0 3.371-3.647 2.94 2.94 0 0 0-.945-1.957 2.753 2.753 0 0 0-1.954-.946 3.2 3.2 0 0 0-3.529 2.388 2.29 2.29 0 0 0-.054 1.327 1.318 1.318 0 0 0 .109.49c.156.457.433.864.561 1.333a1.3 1.3 0 0 1-1.344 1.423 1.547 1.547 0 0 1-1.022-.581c-.176-.215-.362-.422-.544-.633a2.828 2.828 0 0 0-1.878-1.16 2.138 2.138 0 0 0-.93-.062 3.3 3.3 0 0 0-2.922 3.85 3.014 3.014 0 0 0 1.209 2.037 2.949 2.949 0 0 0 2.277.7.245.245 0 0 0 .169-.028 3.13 3.13 0 0 0 2.392-1.567c.622-1 1.288-1.115 2.193-.389a1.5 1.5 0 0 1 .053 1.677 2.7 2.7 0 0 0-.306.885 2.9 2.9 0 0 0 .062 1.622 2.713 2.713 0 0 0 .8 1.359 2.788 2.788 0 0 0 1.359.86 2.745 2.745 0 0 0 1.353.136A3.1 3.1 0 0 0 102 28.8a3.2 3.2 0 0 0 1.214-2.2 3.023 3.023 0 0 0-.141-1.417z" data-name="패스 1050"/></g></svg>