<svg width="36" height="26" viewBox="0 0 36 26" fill="none" xmlns="http://www.w3.org/2000/svg"><path d="M36 22a4 4 0 0 1-4 4H4a4 4 0 0 1-4-4V4a4 4 0 0 1 4-4h28a4 4 0 0 1 4 4v18z" fill="#DE2910"/><path d="M11.136 3.977l.736.356.589-.566-.111.81.72.386-.804.144-.144.804-.386-.72-.81.111.566-.589-.356-.736zm4.665 2.941l-.356.735.566.59-.809-.112-.386.721-.144-.805-.805-.144.721-.386-.112-.809.59.566.735-.356zm-.957 3.779l.268.772.817.017-.651.493.237.783-.671-.467-.671.467.236-.783-.651-.493.817-.017.269-.772zm-3.708 3.28l.736.356.589-.566-.111.81.72.386-.804.144-.144.804-.386-.72-.81.111.566-.589-.356-.736zM7 5.951l.929 2.671 2.826.058-2.253 1.708.819 2.706L7 11.479l-2.321 1.615.819-2.706L3.245 8.68l2.826-.058L7 5.951z" fill="#FFDE02"/></svg>