<svg xmlns="http://www.w3.org/2000/svg" xmlns:xlink="http://www.w3.org/1999/xlink" viewBox="0 0 24 24"><defs><path id="a" d="M12 0c6.6 0 12 5.4 12 12s-5.4 12-12 12S0 18.6 0 12 5.4 0 12 0z"/></defs><clipPath id="b"><use xlink:href="#a" overflow="visible"/></clipPath><g clip-path="url(#b)"><path d="M-4.6 20.3c0 2 1.7 3.7 3.7 3.7h25.8c2 0 3.7-1.7 3.7-3.7v-3.7H-4.6v3.7z" fill="#ffcd0b"/><path d="M-4.6 8.3h33.2v8.3H-4.6V8.3z" fill="#e52829"/><path d="M24.9 0H-.9c-2 0-3.7 1.7-3.7 3.7v4.6h33.2V3.7c0-2-1.6-3.7-3.7-3.7z" fill="#141414"/></g><path d="M12 1c6.1 0 11 4.9 11 11s-4.9 11-11 11S1 18.1 1 12 5.9 1 12 1m0-1C5.4 0 0 5.4 0 12s5.4 12 12 12 12-5.4 12-12S18.6 0 12 0z" fill="#dadada"/></svg>