<svg xmlns="http://www.w3.org/2000/svg" xmlns:xlink="http://www.w3.org/1999/xlink" viewBox="0 0 24 24"><defs><path id="a" d="M12 0c6.6 0 12 5.4 12 12s-5.4 12-12 12S0 18.6 0 12 5.4 0 12 0z"/></defs><clipPath id="b"><use xlink:href="#a" overflow="visible"/></clipPath><g clip-path="url(#b)"><path d="M28.1 1.9C27.4.7 26.2 0 24.9 0H12v1.9h16.1zM-4.6 18.5h33.2v1.9H-4.6v-1.9zM12 11.1h16.6v1.8H12v-1.8zm0-3.7h16.6v1.8H12V7.4zm-16.6 7.4h33.2v1.9H-4.6v-1.9zM-.9 24h25.8c1.3 0 2.5-.7 3.2-1.9H-4.1c.7 1.2 1.9 1.9 3.2 1.9zM12 3.7h16.6v1.8H12V3.7z" fill="#b32435"/><path d="M-4.6 20.9v.3l.1.3c.1.2.2.5.3.7h32.3c.1-.2.2-.4.3-.7.1-.2.1-.4.1-.5 0-.2.1-.4.1-.6H-4.6v.5zm0-4.3h33.2v1.8H-4.6v-1.8zm0-3.7v1.9h33.2v-1.9H-4.6zM12 9.2h16.6v1.9H12V9.2zm0-3.7h16.6v1.8H12V5.5zM-4.1 1.9zm-.4 1l.1-.3-.1.3zm16.5.8h16.6c0-.2 0-.4-.1-.6 0-.2-.1-.4-.1-.5-.1-.2-.2-.5-.3-.7H12v1.8z" fill="#efeeee"/><path d="M12 0H-.9c-2 0-3.7 1.7-3.7 3.7v9.2H12V0z" fill="#3c3c6f"/><path d="M-2.8 2.5l.6.4-.2.7.6-.4.6.4-.2-.7.6-.4h-.7l-.2-.7-.2.7h-.9zm1.9 1.9l.6.4-.2.7L0 5l.6.4-.3-.6.6-.4H.2L0 3.7l-.2.7h-.7zm3.7 0l.6.4-.3.7.6-.5.6.4-.3-.6.6-.4h-.7l-.2-.7-.2.7h-.7zm3.7 0l.5.4-.2.7.6-.5.6.5-.2-.7.6-.4h-.8l-.2-.7-.2.7h-.7zM-.9 8.1l.6.4-.2.7.5-.5.6.4-.3-.6.6-.4H.2L0 7.4l-.2.7h-.7zm3.7 0l.6.4-.3.6.6-.4.6.4-.3-.6.6-.4h-.7l-.2-.7-.2.7h-.7zm3.7 0l.5.4-.2.6.6-.4.6.4-.2-.6.6-.4h-.8l-.2-.7-.2.7h-.7zM.9 2.5l.6.4-.2.7.6-.4.6.4-.3-.7.6-.4h-.7l-.3-.6-.2.6H.9zm3.7 0l.6.4-.2.7.6-.4.6.4-.3-.7.6-.4h-.7l-.2-.6-.2.6h-.8zm3.7 0l.6.4-.2.7.6-.4.6.4-.3-.7.6-.4h-.8l-.2-.6-.2.6h-.7zM-2.8 6.2l.6.4-.2.7.6-.4.6.4-.2-.7.6-.4h-.7l-.2-.7-.2.7h-.9zm4.1 1.1l.6-.4.6.4-.3-.7.6-.4h-.7l-.3-.7-.2.7H.9l.6.4-.2.7zm3.3-1.1l.6.4-.2.7.6-.4.6.4-.3-.7.6-.4h-.7l-.2-.7-.2.7h-.8zm3.7 0l.6.4-.2.7.6-.4.6.4-.3-.7.6-.4h-.8l-.2-.7-.2.7h-.7zM-2.8 9.9l.6.4-.2.7.6-.4.6.4-.2-.7.6-.4h-.7l-.2-.7-.2.7h-.9zM1.3 11l.6-.4.5.4-.2-.7.6-.4h-.7l-.3-.6-.2.6H.9l.6.4-.2.7zm3.3-1.1l.6.4-.2.7.6-.4.5.4-.2-.7.6-.4h-.7l-.2-.6-.2.6h-.8zm3.7 0l.6.4-.2.7.6-.4.5.4-.2-.7.6-.4h-.8l-.2-.6-.2.6h-.7z" fill="#fff"/></g><path d="M12 1c6.1 0 11 4.9 11 11s-4.9 11-11 11S1 18.1 1 12 5.9 1 12 1m0-1C5.4 0 0 5.4 0 12s5.4 12 12 12 12-5.4 12-12S18.6 0 12 0z" fill="#dadada"/></svg>