<svg version="1.1" id="Layer_1" xmlns="http://www.w3.org/2000/svg" xmlns:xlink="http://www.w3.org/1999/xlink" x="0" y="0" viewBox="0 0 24 24" xml:space="preserve"><style>.st3{fill:#e95b6f}</style><g id="Layer_2_1_"><g id="Layer_1-2"><defs><path id="SVGID_1_" d="M12 0c6.6 0 12 5.4 12 12s-5.4 12-12 12S0 18.6 0 12 5.4 0 12 0z"/></defs><clipPath id="SVGID_2_"><use xlink:href="#SVGID_1_" overflow="visible"/></clipPath><g clip-path="url(#SVGID_2_)"><path d="M25.6 20.3c0 2-1.4 3.7-3 3.7H1.5c-1.7 0-3-1.6-3-3.7V3.7c0-2 1.4-3.7 3-3.7h21.1c1.7 0 3 1.6 3 3.7v16.6z" fill="#c61620"/><path d="M-1.6 7.5h27.1v9H-1.6v-9z" fill="#fdc30b"/><path class="st3" d="M5.2 11.3v2.3c0 1.2 1 2.3 2.3 2.3s2.3-1 2.3-2.3v-2.3H5.2z"/><path d="M7.5 10.5h2.3v2.3H7.5v-2.3z" fill="#f3a2b2"/><path d="M5.2 10.5h2.3v2.3H5.2v-2.3z" fill="#de2f45"/><path class="st3" d="M7.5 10.5c1.2 0 2.3-.5 2.3-1.1s-1-1.1-2.3-1.1-2.3.4-2.3 1.1 1 1.1 2.3 1.1z"/><path d="M7.5 9.4c1.2 0 2.3-.2 2.3-.6s-1-.6-2.3-.6-2.3.3-2.3.6 1 .6 2.3.6z" fill="#f8aa37"/><path d="M3.7 10.5h.8v5.3h-.8v-5.3zm6.8 0h.8v5.3h-.8v-5.3z" fill="#99aab5"/><path d="M3 15h2.2v.8H3V15zm6.8 0H12v.8H9.7l.1-.8zm-6-5.3h.8v.8h-.9l.1-.8zm6.8 0h.8v.8h-.8v-.8z" fill="#66757f"/></g><path d="M12 1c6.1 0 11 4.9 11 11s-4.9 11-11 11S1 18.1 1 12 5.9 1 12 1m0-1C5.4 0 0 5.4 0 12s5.4 12 12 12 12-5.4 12-12S18.6 0 12 0z" fill="#dadada"/></g></g></svg>