<svg xmlns="http://www.w3.org/2000/svg" xmlns:xlink="http://www.w3.org/1999/xlink" viewBox="0 0 24 24"><defs><path id="a" d="M12 0c6.6 0 12 5.4 12 12s-5.4 12-12 12S0 18.6 0 12 5.4 0 12 0z"/></defs><clipPath id="b"><use xlink:href="#a" overflow="visible"/></clipPath><g clip-path="url(#b)"><path d="M28.6 20.3c0 2-1.7 3.7-3.7 3.7h-7.4V0h7.4c2 0 3.7 1.7 3.7 3.7v16.6z" fill="#e72e3c"/><path d="M-.9 0c-2 0-3.7 1.7-3.7 3.7v16.6c0 2 1.7 3.7 3.7 3.7h7.4V0H-.9z" fill="#25387e"/><path d="M6.5 0h11.1v24H6.5V0z" fill="#efeeee"/></g><path d="M12 1c6.1 0 11 4.9 11 11s-4.9 11-11 11S1 18.1 1 12 5.9 1 12 1m0-1C5.4 0 0 5.4 0 12s5.4 12 12 12 12-5.4 12-12S18.6 0 12 0z" fill="#dadada"/></svg>