<svg xmlns="http://www.w3.org/2000/svg" xmlns:xlink="http://www.w3.org/1999/xlink" viewBox="0 0 24.4 24"><defs><path id="a" d="M12.4 0c6.6 0 12 5.4 12 12s-5.4 12-12 12-12-5.4-12-12 5.4-12 12-12z"/></defs><clipPath id="b"><use xlink:href="#a" overflow="visible"/></clipPath><g clip-path="url(#b)"><path d="M29 20.3c0 2-1.7 3.7-3.7 3.7H-.5c-2 0-3.7-1.7-3.7-3.7V3.7c0-2 1.7-3.7 3.7-3.7h25.8c2 0 3.7 1.7 3.7 3.7v16.6z" fill="#efeeee"/><path d="M12.4 18.5c3.6 0 6.5-2.9 6.5-6.5S16 5.5 12.4 5.5 5.9 8.4 5.9 12s2.9 6.5 6.5 6.5z" fill="#e62533"/></g><path d="M12.4 1c6.1 0 11 4.9 11 11s-4.9 11-11 11-11-4.9-11-11 4.9-11 11-11m0-1C5.8 0 .4 5.4.4 12s5.4 12 12 12 12-5.4 12-12S19 0 12.4 0z" fill="#dadada"/></svg>