<svg xmlns="http://www.w3.org/2000/svg" viewBox="0 0 24 24"><defs><clipPath id="a"><rect width="24" height="24" rx="12" fill="none"/></clipPath></defs><g data-name="Layer 2"><g data-name="Layer 1"><g clip-path="url(#a)"><path d="M24 20.31c0 2-1.19 3.69-2.67 3.69H2.67C1.19 24 0 22.34 0 20.31V3.69C0 1.66 1.19 0 2.67 0h18.66C22.81 0 24 1.66 24 3.69z" fill="#efeeee"/><path d="M13.92 9.26a3.35 3.35 0 0 0-4.66.82A1.67 1.67 0 0 0 12 12a1.67 1.67 0 0 1 2.74 1.92 3.35 3.35 0 0 0-.82-4.66z" fill="#c71532"/><path d="M14.33 11.59A1.67 1.67 0 0 0 12 12a1.67 1.67 0 0 1-2.74-1.92A3.34 3.34 0 1 0 14.68 14l.06-.07a1.68 1.68 0 0 0-.41-2.33z" fill="#1f3a6e"/><path d="M15.53 16.22l1.07-1.28.43.36L16 16.58zM17 14.51l1-1.28.43.36-1.07 1.28zm-.58 2.43l1.08-1.28.42.35-1.07 1.28zm1.43-1.71L18.89 14l.43.36-1.08 1.28zm-.58 2.42l1.08-1.28.43.36L17.66 18zm1.44-1.71l1.07-1.28.43.36-1.12 1.28zm0-7.88l.43-.36L20.17 9l-.43.36zm-1.47-1.71l.42-.35 1.08 1.28-.43.36zm-.86.71l.43-.35 2.51 3-.43.36zm-.85.72l.47-.36 1 1.28-.43.36zM17 9.49l.43-.36 1.07 1.28-.42.36zm-11.46 4.1l.46-.36 2.51 3-.51.35zm-.85.72l.42-.31 1.08 1.28-.43.36zM6.12 16l.42-.35 1.08 1.28-.43.35zm-2.29-1l.43-.36 2.5 3-.42.36zm0-6l2.51-3 .42.36-2.5 3zm.85.71l2.51-3 .43.35-2.51 3zm.86.72l2.5-3 .43.36L6 10.77z" fill="#2a3034"/></g><path d="M12 1A11 11 0 1 1 1 12 11 11 0 0 1 12 1m0-1a12 12 0 0 0 0 24 12 12 0 0 0 0-24z" fill="#dadada"/></g></g></svg>