<svg xmlns="http://www.w3.org/2000/svg" xmlns:xlink="http://www.w3.org/1999/xlink" viewBox="0 0 24 24"><defs><path id="a" d="M12 0c6.6 0 12 5.4 12 12s-5.4 12-12 12S0 18.6 0 12 5.4 0 12 0z"/></defs><clipPath id="b"><use xlink:href="#a" overflow="visible"/></clipPath><g clip-path="url(#b)"><path d="M28.6 20.3c0 2-1.7 3.7-3.7 3.7H-.9c-2 0-3.7-1.7-3.7-3.7V3.7C-4.6 1.7-3 0-.9 0h25.8c2 0 3.7 1.7 3.7 3.7v16.6z" fill="#0a9b39"/><path d="M20.9 12L12 18.7 3.1 12 12 5.3l8.9 6.7z" fill="#fedf0d"/><path d="M12 15.9c2.2 0 3.9-1.8 3.9-3.9 0-2.2-1.8-4-3.9-4-2.2 0-3.9 1.8-3.9 4s1.7 3.9 3.9 3.9z" fill="#243468"/><path d="M8.5 10.1c-.2.4-.3.8-.4 1.2 2.7-.1 5.2.9 7.1 2.8.3-.4.4-.8.5-1.2-1.9-1.8-4.5-2.8-7.2-2.8z" fill="#cce5d3"/><path d="M8.4 12.1H9v.6h-.6v-.6zm.6 1.3h.6v.6H9v-.6z" fill="#8dc7ed"/><path d="M10.2 12.1h.6v.6h-.6v-.6zm1.2.7h.6v.6h-.6v-.6zm2.4 1.2h.6v.6h-.6V14zm-1.8.6h.6v.6H12v-.6zm1.8-3.7h.6v.6h-.6v-.6z" fill="#5fa9de"/><path d="M12.6 13.4h.6v.6h-.6v-.6z" fill="#3b89c4"/></g><path d="M12 1c6.1 0 11 4.9 11 11s-4.9 11-11 11S1 18.1 1 12 5.9 1 12 1m0-1C5.4 0 0 5.4 0 12s5.4 12 12 12 12-5.4 12-12S18.6 0 12 0z" fill="#dadada"/></svg>