<svg xmlns="http://www.w3.org/2000/svg" xmlns:xlink="http://www.w3.org/1999/xlink" viewBox="0 0 24 24"><defs><path id="a" d="M12 0c6.6 0 12 5.4 12 12s-5.4 12-12 12S0 18.6 0 12 5.4 0 12 0z"/></defs><clipPath id="b"><use xlink:href="#a" overflow="visible"/></clipPath><g clip-path="url(#b)"><path d="M33.2 20.3c0 2-1.7 3.7-3.7 3.7H3.7c-2 0-3.7-1.7-3.7-3.7V3.7C0 1.7 1.7 0 3.7 0h25.9c2 0 3.7 1.7 3.7 3.7v16.6z" fill="#df2c14"/><path d="M10.3 3.7l.7.3.5-.5-.1.7.7.4-.7.1-.1.8-.4-.7-.7.1.5-.5-.4-.7zm4.3 2.7l-.3.7.5.6-.8-.2-.4.7-.1-.7-.7-.1.7-.4-.1-.8.6.5.6-.3zm-.9 3.5l.2.7h.8l-.6.5.2.7-.6-.4-.6.4.2-.7-.6-.5h.8l.2-.7zm-3.4 3l.7.3.5-.5-.1.8.7.4-.7.1-.1.8-.5-.8-.7.1.5-.5-.3-.7zM6.5 5.5L7.3 8h2.6L7.8 9.6l.8 2.5-2.1-1.5-2.1 1.5.8-2.5L3 8h2.6l.9-2.5z" fill="#ffde0d"/></g><path d="M12 1c6.1 0 11 4.9 11 11s-4.9 11-11 11S1 18.1 1 12 5.9 1 12 1m0-1C5.4 0 0 5.4 0 12s5.4 12 12 12 12-5.4 12-12S18.6 0 12 0z" fill="#dadada"/></svg>