<svg xmlns="http://www.w3.org/2000/svg" xmlns:xlink="http://www.w3.org/1999/xlink" viewBox="0 0 24 24"><defs><path id="a" d="M12 0c6.6 0 12 5.4 12 12s-5.4 12-12 12S0 18.6 0 12 5.4 0 12 0z"/></defs><clipPath id="b"><use xlink:href="#a" overflow="visible"/></clipPath><g clip-path="url(#b)"><path d="M29.5 0H15.7v12H0v8.3c0 2 1.7 3.7 3.7 3.7h25.9c2 0 3.7-1.7 3.7-3.7V3.7c-.1-2-1.7-3.7-3.8-3.7z" fill="#e52520"/><path d="M15.7 0h-12C1.7 0 0 1.7 0 3.7V12h15.7V0zm-5.6 4.3l1.9-.5-1.4 1.4c-.1-.4-.3-.7-.5-.9zm.2 1.7c0 1.2-1 2.2-2.2 2.2S5.8 7.2 5.8 6c0-1.2 1-2.2 2.2-2.2s2.3 1 2.3 2.2zm0-3.9L9.8 4c-.2-.2-.5-.4-.8-.5l1.3-1.4zm-2.2-.6l.5 1.9h-1l.5-1.9zm-.9 2c-.3.1-.6.3-.9.5l-.5-1.9 1.4 1.4zm-1.1.8c-.3.2-.4.5-.5.8L4.2 3.8l1.9.5zm-.7 1.2c-.1.3-.1.7 0 1L3.6 6l1.8-.5zm.2 1.4c.1.3.3.6.5.9l-1.9.5 1.4-1.4zm.2 3L6.3 8c.3.2.6.4.9.5L5.8 9.9zm2.3.6l-.5-1.9c.3.1.7.1 1 0l-.5 1.9zm.8-2c.4-.1.7-.3.9-.5l.5 1.9-1.4-1.4zm1.2-.8c.2-.3.4-.5.5-.9L12 8.3l-1.9-.6zm.6-1.2c.1-.3.1-.7 0-1l1.9.5-1.9.5z" fill="#283376"/><path d="M8.6 3.4l-.5-1.9-.5 1.9c.3-.1.7-.1 1 0zM5.4 6v-.5L3.6 6l1.9.5c-.1-.2-.1-.3-.1-.5zm2.2 2.6l.5 1.9.5-1.9c-.3.1-.7.1-1 0zM10.8 6c0 .2 0 .3-.1.5l1.9-.5-1.9-.5c0 .2 0 .3.1.5zm-.5-3.9L9 3.5c.3.1.6.3.9.5l.4-1.9zm-.2 5.6l1.9.6-1.4-1.4c-.1.3-.3.6-.5.8zM5.8 9.9l1.4-1.4c-.3-.1-.6-.3-.9-.5l-.5 1.9zm.3-5.6l-1.9-.5 1.4 1.4c.1-.4.2-.7.5-.9zM9 8.5l1.3 1.4L9.8 8c-.2.2-.5.4-.8.5zM5.6 6.9L4.2 8.3l1.9-.5c-.3-.3-.4-.6-.5-.9zm1.6-3.4L5.8 2.1 6.3 4c.3-.2.6-.4.9-.5zm4.8.3l-1.9.5c.2.3.4.5.5.9L12 3.8zM8.1 8.3c1.2 0 2.2-1 2.2-2.2s-1-2.2-2.2-2.2c-1.2 0-2.2 1-2.2 2.2s.9 2.2 2.2 2.2z" fill="#fff"/></g><path d="M12 1c6.1 0 11 4.9 11 11s-4.9 11-11 11S1 18.1 1 12 5.9 1 12 1m0-1C5.4 0 0 5.4 0 12s5.4 12 12 12 12-5.4 12-12S18.6 0 12 0z" fill="#dadada"/></svg>