<svg xmlns="http://www.w3.org/2000/svg" width="20" height="20" fill="none" viewBox="0 0 20 20"><g clip-path="url(#clip0)"><path fill="#000" d="M.014 20a8.286 8.286 0 0 1-.005-.834c.095-.027.19-.046.289-.06.284-.046.568-.116.842-.195.076-.023.151-.05.227-.078.364-.14.686-.37.932-.667.17-.209.317-.436.445-.672a9.72 9.72 0 0 0 .477-1.005c.284-.695.568-1.385.847-2.08l2.895-7.17A502.106 502.106 0 0 0 9.655.403L9.71.264c.327-.088.644-.18.975-.269.019.047.038.088.052.13.374 1.019.747 2.038 1.116 3.062 1.273 3.478 2.545 6.952 3.85 10.417.36.944.72 1.894 1.084 2.839.142.384.312.764.506 1.125.085.158.175.306.275.454.302.463.77.792 1.315.931.293.074.586.134.889.172l.213.032c.028.093.014.18.014.269v.282c.005.093 0 .18-.005.274l-.08.013H12.43a.136.136 0 0 1-.018-.05v-.75c0-.01.004-.024.009-.033.061-.019.123-.028.19-.037a7.93 7.93 0 0 0 .912-.176c.118-.033.241-.075.355-.12.057-.024.113-.052.17-.084.298-.162.416-.417.388-.741a2.308 2.308 0 0 0-.08-.436c-.062-.222-.142-.44-.218-.653-1.551-4.238-3.084-8.48-4.603-12.733-.014-.046-.023-.097-.07-.138-.015.009-.038.018-.048.027a.206.206 0 0 0-.028.07c-.743 2.089-1.533 4.164-2.318 6.234a178.714 178.714 0 0 0-1.703 4.618 87.41 87.41 0 0 0-.63 1.871c-.08.241-.136.487-.174.732a1.778 1.778 0 0 0-.014.505.768.768 0 0 0 .326.547c.118.083.25.148.393.194.222.079.449.134.68.171.256.047.512.084.772.12.019.006.033.006.057.01l.014.056v.727c0 .014-.005.028-.01.042-.023.004-.047.009-.07.009h-.1L.014 20z"/></g><defs><clipPath id="clip0"><path fill="#fff" d="M0 0h20v20H0z"/></clipPath></defs></svg>