<svg xmlns="http://www.w3.org/2000/svg" width="20" height="20" fill="none" viewBox="0 0 20 20"><path fill="#1E1E1E" fill-rule="evenodd" d="M10 0c5.522 0 10 4.478 10 10s-4.478 10-10 10S0 15.522 0 10 4.478 0 10 0z" clip-rule="evenodd"/><path fill="#fff" d="M10.15 14.18c-3.198 0-5.79-.924-5.79-2.162 0-.646.706-1.228 1.836-1.638.882.566 2.362.856 4.04.856 1.638 0 3.086-.354 3.976-.896 1.066.406 1.728.972 1.728 1.596 0 1.24-2.592 2.244-5.79 2.244z"/><path fill="#fff" d="M10.184 10.958c-2.424 0-4.39-.76-4.39-1.698 0-.52.606-.986 1.556-1.296.678.354 1.694.58 2.834.58 1.14 0 2.156-.226 2.834-.58.952.312 1.556.776 1.556 1.296.002.938-1.964 1.698-4.39 1.698z"/><path fill="#fff" d="M10.168 8.262c-1.874 0-3.394-.628-3.394-1.4 0-.772 1.52-1.4 3.394-1.4s3.394.628 3.394 1.4c0 .772-1.52 1.4-3.394 1.4z"/></svg>