<svg xmlns="http://www.w3.org/2000/svg" width="20" height="20" fill="none" viewBox="0 0 20 20"><path fill="#F3BA2F" d="M6.116 8.404L10 4.52l3.886 3.886 2.26-2.26L10 0 3.856 6.144l2.26 2.26zM0 10l2.26-2.26L4.52 10l-2.26 2.26L0 10zm6.116 1.596L10 15.48l3.886-3.886 2.261 2.259-.001.001L10 20l-6.144-6.144-.003-.003 2.263-2.257zm9.364-1.595l2.26-2.26L20 10l-2.26 2.26L15.48 10z"/><path fill="#F3BA2F" d="M12.292 9.999h.001L10 7.706 8.305 9.4l-.195.195-.401.402-.003.003.003.003L10 12.295 12.293 10l.001-.001-.002-.001"/></svg>