<svg xmlns="http://www.w3.org/2000/svg" width="20" height="20" fill="none" viewBox="0 0 20 20"><g clip-path="url(#clip0)"><path fill="#040000" d="M6.926 3.082l5.442 5.442L7.752 0l-3.86 3.894 3.034-.812zm6.148 13.836l-5.442-5.442L12.248 20l3.858-3.894-3.032.812zm-9.992-3.844l3.49-7.397L1.23 11.02 0 12.248l3.894 3.858-.812-3.032zm13.838-6.15l-5.444 5.444L20 7.752l-3.894-3.86.814 3.031" opacity=".8"/><path fill="#323333" d="M14.321 6.57L8.98 1.23 7.752 0l4.616 8.524 1.953-1.955zm-8.642 6.858L12.25 20l-4.617-8.524-1.953 1.952zm2.845-5.796L6.572 5.677l-3.49 7.397 5.442-5.442zm4.905 6.689L20 7.75l-8.524 4.617 1.952 1.953z" opacity=".8"/><path fill="#555" d="M1.64 1.638L0 7.752l3.34-1.795-1.7-4.32zm16.722 16.724L20 12.248l-3.34 1.792 1.702 4.322zM1.64 18.36L7.752 20 5.96 16.658 1.64 18.36zM18.362 1.638L12.248 0l1.792 3.34 4.322-1.702z" opacity=".8"/><path fill="#323333" d="M3.892 3.894L7.752 0 1.64 1.638l1.7 4.32.552-2.064zm12.214 12.212L12.248 20l6.114-1.638-1.702-4.322-.554 2.066zm-12.212 0L0 12.248l1.64 6.112 4.32-1.702-2.066-.552zM16.106 3.892L20 7.752l-1.638-6.114L14.04 3.34l2.066.552z" opacity=".8"/><path fill="#040000" d="M3.34 5.957L0 7.752l.775.772L3.34 5.958zm13.32 8.083L20 12.248l-.775-.772-2.565 2.564zM7.752 20l.772-.775-2.564-2.567L7.752 20zm4.496-20l-.772.775L14.04 3.34 12.248 0z" opacity=".8"/></g><defs><clipPath id="clip0"><path fill="#fff" d="M0 0h20v20H0z"/></clipPath></defs></svg>