<svg xmlns="http://www.w3.org/2000/svg" width="20" height="20" fill="none" viewBox="0 0 20 20"><path fill="#000" d="M10 20c5.523 0 10-4.477 10-10S15.523 0 10 0 0 4.477 0 10s4.477 10 10 10z"/><path fill="#fff" d="M17.34 8.462a7.502 7.502 0 0 0-2.036-3.773 7.329 7.329 0 0 0-1.103-.91 7.43 7.43 0 0 0-7.071-.69 7.428 7.428 0 0 0-2.372 1.6 7.338 7.338 0 0 0-.911 1.102 7.433 7.433 0 0 0 0 8.342 7.452 7.452 0 0 0 3.283 2.702 7.433 7.433 0 0 0 8.174-1.6 7.444 7.444 0 0 0 1.6-2.372c.588-1.39.74-2.924.435-4.401zm-7.303 8.028a6.521 6.521 0 0 1-6.52-6.52 6.526 6.526 0 0 1 6.52-6.521 6.526 6.526 0 0 1 6.521 6.52 6.526 6.526 0 0 1-6.52 6.521z"/><path fill="#fff" d="M10.153 15.924h.176c.031 0 .061 0 .092-.008h.008c.03 0 .053 0 .083-.008h.024c.023 0 .046 0 .068-.007h.024c.023 0 .046-.008.076-.008h.015c.031 0 .062-.008.092-.008s.054-.008.085-.015h.015c.023 0 .046-.007.068-.007h.016c.03-.009.054-.009.084-.016a1.3 1.3 0 0 0 .176-.038h.016c.022-.008.053-.008.076-.016h.007l.177-.045a6.847 6.847 0 0 1-1.707-.161c-.842-.184-1.645-.513-2.326-1.08a4.713 4.713 0 0 1-1.699-3.665 4.45 4.45 0 0 1 1.048-2.847 4.541 4.541 0 0 1 3.382-1.607h.177V5.37h-.2a5.69 5.69 0 0 0-1.147.138c-.38.085-.75.211-1.102.374-.36.17-.697.376-1.01.613-.325.246-.62.529-.88.842a5.2 5.2 0 0 0-.636.941 5.353 5.353 0 0 0-.421 1.018 5.574 5.574 0 0 0-.206 1.064l-.023.336v.199c.007.39.053.773.137 1.148.085.383.215.75.375 1.103.192.42.536 1.04 1.049 1.507a5.91 5.91 0 0 0 3.673 1.27h.138z"/><path fill="#fff" d="M11.821 14.944a7.883 7.883 0 0 1-1.125-.123c-1.576-.283-2.931-1.247-3.428-2.701-.605-1.768.321-3.681 2.081-4.262.336-.113.687-.17 1.041-.17.452 0 .903.093 1.317.26l.428-.91a9.131 9.131 0 0 0-.39-.145 4.54 4.54 0 0 0-1.355-.207c-.46.001-.918.076-1.354.222a4.26 4.26 0 0 0-1.508.873c-.21.187-.403.395-.574.62a4.318 4.318 0 0 0-.865 2.326 4.339 4.339 0 0 0 .23 1.714c.195.567.508 1.086.918 1.523.375.406.812.712 1.34.995.55.291 1.232.444 1.943.544.46.06 1.072.076 1.431.076.314-.115.444-.168.613-.237.145-.069.29-.138.436-.222.146-.084.169-.1.413-.26a.39.39 0 0 0 .061-.046c-.841.145-1.056.137-1.653.13z"/><path fill="#fff" d="M13.704 13.804c-.237.015-.574.037-.957.037-.68 0-1.515-.06-2.226-.298-1.103-.367-2.143-1.308-2.143-2.472a2.091 2.091 0 0 1 1.293-1.938 2.105 2.105 0 0 1 2.633.913l.91-.452a3.135 3.135 0 0 0-1.551-1.401 3.106 3.106 0 0 0-4.059 1.682 3.05 3.05 0 0 0 .032 2.429c.16.352.382.681.665.987a4.682 4.682 0 0 0 1.906 1.209c.696.23 1.722.314 2.717.245a5.71 5.71 0 0 0 .834-.122c.34-.268.647-.574.918-.911-.237.023-.674.069-.972.092z"/></svg>