<svg xmlns="http://www.w3.org/2000/svg" width="20" height="20" fill="none" viewBox="0 0 20 20"><path fill="#4054A8" fill-rule="evenodd" d="M15.473 7.612a.398.398 0 1 1-.796 0 .398.398 0 0 1 .796 0zm-.373-.846a.87.87 0 1 0 .87.871v-.001a.873.873 0 0 0-.87-.87zm-1.121 7.628a.46.46 0 0 0-.617-.681 4.962 4.962 0 0 1-3.34 1.288c-2.743 0-4.975-2.232-4.975-4.977s2.232-4.977 4.975-4.977a4.962 4.962 0 0 1 3.34 1.288.46.46 0 0 0 .626-.672l-.009-.008a5.876 5.876 0 0 0-3.956-1.526c-3.249 0-5.893 2.645-5.893 5.896s2.643 5.895 5.892 5.895a5.882 5.882 0 0 0 3.957-1.526zM10.025.945c-5.007 0-9.08 4.073-9.08 9.08s4.073 9.08 9.08 9.08 9.08-4.073 9.08-9.08-4.073-9.08-9.08-9.08zM10 20C4.486 20 0 15.514 0 10S4.486 0 10 0s10 4.486 10 10-4.486 10-10 10z" clip-rule="evenodd"/></svg>