<svg xmlns="http://www.w3.org/2000/svg" width="20" height="20" fill="none" viewBox="0 0 20 20"><path fill="#FBCC5C" d="M7.895 17.895a5.79 5.79 0 1 0 0-11.58 5.79 5.79 0 0 0 0 11.58zm0 2.105a7.895 7.895 0 1 1 0-15.79 7.895 7.895 0 0 1 0 15.79z"/><path fill="#35D07F" d="M12.105 13.684a5.789 5.789 0 1 0 0-11.579 5.79 5.79 0 1 0 0 11.58zm0 2.106a7.895 7.895 0 0 1-7.894-7.895 7.895 7.895 0 1 1 7.894 7.895z"/><path fill="#5EA33B" d="M12.366 15.79c.548-.664.94-1.44 1.148-2.276.833-.209 1.61-.6 2.276-1.148a7.836 7.836 0 0 1-.615 2.81 7.841 7.841 0 0 1-2.809.614zm-5.88-9.304c-.833.209-1.61.6-2.275 1.148a7.803 7.803 0 0 1 .614-2.809 7.915 7.915 0 0 1 2.809-.614 5.752 5.752 0 0 0-1.148 2.275z"/></svg>