<svg xmlns="http://www.w3.org/2000/svg" width="25" height="21" fill="none" viewBox="0 0 25 21"><g fill="#008DE4" clip-path="url(#clip0)"><path d="M16.374 0H7.273l-.755 4.217 8.215.01c4.046 0 5.24 1.47 5.205 3.905-.02 1.247-.56 3.36-.794 4.047-.623 1.826-1.903 3.905-6.705 3.9l-7.986-.005-.752 4.222h9.081c3.205 0 4.563-.375 6.01-1.037 3.199-1.485 5.103-4.64 5.867-8.76C25.791 4.363 24.38 0 16.374 0z"/><path d="M3.345 8.03C.96 8.03.618 9.583.395 10.523.096 11.75 0 12.252 0 12.252h9.32c2.386 0 2.727-1.554 2.951-2.493.297-1.228.395-1.73.395-1.73h-9.32z"/></g><defs><clipPath id="clip0"><path fill="#fff" d="M0 0h25v20.296H0z"/></clipPath></defs></svg>