<svg xmlns="http://www.w3.org/2000/svg" width="20" height="20" fill="none" viewBox="0 0 20 20"><path fill="url(#paint0_radial)" d="M9.983 19.395a9.528 9.528 0 1 0 0-19.054 9.528 9.528 0 0 0 0 19.054z"/><path fill="url(#paint1_linear)" d="M10.344 17.657c3.857 0 6.983-2.929 6.983-6.542 0-3.612-3.127-6.54-6.983-6.54s-6.982 2.928-6.982 6.54c0 3.613 3.126 6.542 6.982 6.542z"/><path fill="url(#paint2_radial)" d="M10.05 19.525c4.162 0 7.537-3.162 7.537-7.062 0-3.9-3.374-7.062-7.538-7.062-4.163 0-7.538 3.161-7.538 7.062 0 3.9 3.375 7.062 7.538 7.062z"/><path fill="url(#paint3_linear)" d="M7.937 16.4c-.034-.005-.848-.094-1.272-.336-.072-.041-1.772-1.022-2.452-2.245-.572-1.032-1.543-2.895-1.604-3.784-.056-.81-.012-2.541.274-3.113.02-.04.044-.094.076-.163.186-.414.574-1.273 1.345-2.033.955-.941 2.18-1.42 3.641-1.422.01 0 1.064-.013 2.25-.013.696 0 1.301.005 1.798.013 1.578.028 2.838.161 3.438.267l.104.018c.42.073.578.1.611.407.03.262.264 2.165.266 2.184l.007.052-1.454.882h1.562l.154 2.925-1.698 1.24h1.533l-.524 3.113-2.914 1.652-5.134.356h-.007z"/><path fill="#692CC2" d="M10.194 3.371c.6 0 1.236.003 1.797.013 1.684.03 2.924.178 3.426.266.502.089.62.089.65.355.03.265.266 2.185.266 2.185l-1.654 1.004h1.772L16.599 10l-1.86 1.358h1.682l-.502 2.983-2.864 1.624-5.11.355s-.826-.089-1.24-.325c-.413-.236-1.83-1.152-2.421-2.215-.591-1.063-1.536-2.894-1.595-3.75-.06-.857 0-2.54.266-3.072.265-.532 1.328-3.568 4.99-3.574 0 0 1.05-.013 2.25-.013zm0-.16c-1.186 0-2.24.013-2.25.013-1.481.003-2.725.489-3.696 1.445-.782.77-1.174 1.64-1.362 2.057-.03.065-.055.122-.075.16-.292.585-.338 2.337-.282 3.154.063.905 1.038 2.78 1.615 3.818.69 1.242 2.409 2.234 2.482 2.276.437.25 1.267.34 1.302.345l.015.001h.014l5.109-.355.036-.003.032-.018 2.864-1.624.066-.037.013-.075.502-2.983.032-.187h-1.382l1.464-1.07.07-.05-.005-.087-.147-2.805-.008-.152H15.25l1.165-.707.088-.054-.012-.103c-.003-.019-.237-1.921-.266-2.183-.04-.366-.253-.403-.678-.476l-.103-.018c-.603-.107-1.868-.24-3.45-.269a113.76 113.76 0 0 0-1.8-.013z"/><path fill="#fff" d="M2.777 10.036s.08 1.04.506 2c.427.96 1.469 2.478 1.84 2.88.553.598 1.627 1.299 2.294 1.379.667.08 2.489-.047 2.901-.053.268-.004 2.443-.224 2.737-.277.293-.053 2.794-1.485 2.864-1.624.058-.114.09-.53.09-.53l-2.038.47-6.139.29c-.2.008-.5-.025-.736-.046a4.1 4.1 0 0 1-.927-.19 4.308 4.308 0 0 1-1.212-.644c-.532-.404-1.17-1.037-1.54-1.949a60.784 60.784 0 0 1-.64-1.706z"/><path fill="url(#paint4_linear)" d="M5.73 7.224l.739-1.005s-.03-.265 1.358-.295c1.388-.03 8.18.207 8.18.207L14.62 7.224H5.73z"/><path fill="url(#paint5_linear)" d="M16.244 10.03l-1.742 1.328-7.708.236s-.68-.56-.798-.782c-.118-.222-.265-.517-.265-.517s8.032-.06 8.8-.089c.768-.03 1.713-.177 1.713-.177z"/><path fill="url(#paint6_linear)" d="M15.358 14.43s-2.244 1.329-2.421 1.388c-.178.059-4.453.354-4.873.354-.542 0-1.211-.177-1.654-.502-.443-.325-1.122-.975-1.27-1.24-.148-.266-.561-.739-.561-.739s1.004.65 1.713.857c.708.206 2.202.16 2.881.13.68-.03 6.185-.248 6.185-.248z"/><path fill="#fff" d="M14.525 2.71s-1.576-.473-2.588-.45c-1.013.022-2.319.112-2.994.337-.675.225-.945.36-.945.36s.428.517.383 1.013c-.045.495-.54 1.08-1.126 1.237-.585.158-1.17.248-1.62.158-.45-.09-1.485-.675-1.485-.675l-.788-.563s.788-1.08 2.093-1.71c1.305-.63 2.633-1.17 4.299-1.17 1.665 0 2.858.382 3.555.72a7.461 7.461 0 0 1 1.216.742z"/><path fill="url(#paint7_linear)" d="M3.362 4.127s-.6.758-.751 1.093c-.152.334-.653 1.306-.745 2.264-.09.957-.106 1.699 0 2.201.107.503.29 1.202.29 1.202s.622-2.568.713-3.19c.091-.624.532-1.945.912-2.401.38-.456.73-1.003.73-1.003l-1.149-.166z"/><path fill="url(#paint8_linear)" d="M4.51 4.293s-.664.867-.807 1.108c-.144.24-.737 1.19-.773 1.672-.036.482-.137 1.505-.137 1.505s1.064-1.915 1.353-2.25c.288-.333 1.124-1.443 1.124-1.443l-.76-.592z"/><defs><linearGradient id="paint1_linear" x1="10.653" x2="10.093" y1="17.667" y2="5.774" gradientUnits="userSpaceOnUse"><stop stop-color="#21FFE3"/><stop offset="1" stop-color="#8549DF"/></linearGradient><linearGradient id="paint3_linear" x1="3.553" x2="15.748" y1="5.316" y2="12.484" gradientUnits="userSpaceOnUse"><stop stop-color="#21FFE3"/><stop offset="1" stop-color="#F8FFFB"/></linearGradient><linearGradient id="paint4_linear" x1="5.731" x2="16.008" y1="6.573" y2="6.573" gradientUnits="userSpaceOnUse"><stop stop-color="#692CC2"/><stop offset=".519" stop-color="#3E5BDE"/><stop offset="1" stop-color="#229EE7"/></linearGradient><linearGradient id="paint5_linear" x1="5.731" x2="16.244" y1="10.812" y2="10.812" gradientUnits="userSpaceOnUse"><stop stop-color="#692CC2"/><stop offset=".519" stop-color="#3E5BDE"/><stop offset="1" stop-color="#229EE7"/></linearGradient><linearGradient id="paint6_linear" x1="4.579" x2="15.358" y1="14.932" y2="14.932" gradientUnits="userSpaceOnUse"><stop stop-color="#677CF4"/><stop offset=".276" stop-color="#374CD7"/><stop offset=".363" stop-color="#3752D8"/><stop offset=".475" stop-color="#3562DB"/><stop offset=".6" stop-color="#337CE1"/><stop offset=".735" stop-color="#30A1E9"/><stop offset=".877" stop-color="#2DD0F2"/><stop offset="1" stop-color="#29FFFC"/></linearGradient><linearGradient id="paint7_linear" x1="3.252" x2="1.424" y1="5.787" y2="10.441" gradientUnits="userSpaceOnUse"><stop stop-color="#F8FFFB"/><stop offset="1" stop-color="#F8FFFB" stop-opacity="0"/></linearGradient><linearGradient id="paint8_linear" x1="4.082" x2="3.777" y1="6.04" y2="10.221" gradientUnits="userSpaceOnUse"><stop stop-color="#F8FFFB"/><stop offset="1" stop-color="#F8FFFB" stop-opacity="0"/></linearGradient><radialGradient id="paint0_radial" cx="0" cy="0" r="1" gradientTransform="translate(5.436 3.991) scale(10.2849)" gradientUnits="userSpaceOnUse"><stop stop-color="#21FFE3"/><stop offset="1" stop-color="#8549DF"/></radialGradient><radialGradient id="paint2_radial" cx="0" cy="0" r="1" gradientTransform="translate(10.05 12.463) scale(8.91449)" gradientUnits="userSpaceOnUse"><stop stop-color="#21FFE3"/><stop offset=".192" stop-color="#23FCE3" stop-opacity=".808"/><stop offset=".342" stop-color="#28F2E3" stop-opacity=".658"/><stop offset=".478" stop-color="#31E1E2" stop-opacity=".522"/><stop offset=".606" stop-color="#3ECAE2" stop-opacity=".394"/><stop offset=".728" stop-color="#4FACE1" stop-opacity=".272"/><stop offset=".846" stop-color="#6386E0" stop-opacity=".154"/><stop offset=".958" stop-color="#7B5BDF" stop-opacity=".042"/><stop offset="1" stop-color="#8549DF" stop-opacity="0"/></radialGradient></defs></svg>