<svg xmlns="http://www.w3.org/2000/svg" width="20" height="20" fill="none" viewBox="0 0 20 20"><path fill="#A566FF" d="M9.992 0C4.475 0 0 4.475 0 9.992c0 5.517 4.475 9.992 9.992 9.992 5.517 0 9.992-4.475 9.992-9.992C20 4.475 15.525 0 9.992 0zm-.45 14.916a3.258 3.258 0 0 1-1.86.61c-1.154 0-2.213-.626-3.015-1.781a7.11 7.11 0 0 1-1.155-3.705c0-.048.033-.096.08-.112l.787-.353c.064-.032.128 0 .16.064 0 .016.016.032.016.048 0 1.315.353 2.55.978 3.465.594.866 1.364 1.33 2.165 1.33.434 0 .867-.127 1.22-.368a.124.124 0 0 1 .16.032c.16.208.32.4.497.593.016.048.016.129-.032.177zm5.79-1.171c-.785 1.139-1.86 1.78-3.014 1.78-1.155 0-2.214-.641-3.016-1.78-.753-1.09-1.17-2.534-1.17-4.058 0-1.411.817-2.518 1.844-2.518 1.026 0 1.844 1.107 1.844 2.518a7.3 7.3 0 0 1-.85 3.529c-.032.064-.112.08-.16.048-.016 0-.016-.016-.032-.032-.096-.112-.193-.225-.273-.337a3.852 3.852 0 0 1-.256-.433.137.137 0 0 1 0-.112c.368-.85.545-1.765.545-2.679 0-.69-.353-1.475-.818-1.475-.465 0-.818.786-.818 1.475 0 1.315.353 2.55.978 3.465.594.866 1.364 1.33 2.166 1.33.801 0 1.571-.48 2.165-1.33.625-.915.978-2.15.978-3.465s-.353-2.55-.978-3.464a3.46 3.46 0 0 0-.642-.722.146.146 0 0 1-.016-.176c.016-.016.032-.032.048-.032l.786-.353c.048-.016.096-.016.128.032.209.208.385.433.546.657.754 1.091 1.17 2.535 1.17 4.058 0 1.524-.4 2.983-1.154 4.074z"/></svg>