<svg xmlns="http://www.w3.org/2000/svg" width="20" height="20" fill="none" viewBox="0 0 20 20"><path fill="#001D57" d="M10 20c5.523 0 10-4.477 10-10S15.523 0 10 0 0 4.477 0 10s4.477 10 10 10z"/><path fill="#fff" d="M12.812 3.305l.752.753L12.14 5.52c.3.456.46.994.46 1.55a2.772 2.772 0 0 1-.785 1.956c-.372.393-.856.66-1.386.767v1.274c.527.109 1.01.375 1.383.762.51.525.794 1.229.789 1.96a2.783 2.783 0 0 1-.789 1.96 2.668 2.668 0 0 1-3.837 0 2.79 2.79 0 0 1-.788-1.96c0-.737.28-1.436.786-1.957.371-.392.855-.66 1.385-.766V9.791a2.668 2.668 0 0 1-1.383-.762 2.794 2.794 0 0 1-.788-1.96 2.8 2.8 0 0 1 .788-1.96 2.677 2.677 0 0 1 1.919-.814c.537 0 1.054.164 1.497.468l1.42-1.458zm-2.917 8.786a1.583 1.583 0 0 0-1.161.493 1.725 1.725 0 0 0-.484 1.205c0 .454.172.877.484 1.205a1.616 1.616 0 0 0 1.792.367c.2-.085.38-.21.529-.367.313-.323.486-.755.484-1.205a1.73 1.73 0 0 0-.486-1.206 1.589 1.589 0 0 0-.528-.367 1.588 1.588 0 0 0-.63-.125zm1.158-3.807c.314-.323.488-.756.486-1.206a1.684 1.684 0 0 0-1.014-1.57 1.604 1.604 0 0 0-1.791.365 1.721 1.721 0 0 0-.484 1.205c0 .453.172.876.484 1.204a1.616 1.616 0 0 0 1.161.494 1.58 1.58 0 0 0 1.158-.492z"/></svg>