<svg xmlns="http://www.w3.org/2000/svg" width="20" height="20" fill="none" viewBox="0 0 20 20"><g clip-path="url(#clip0)"><path fill="#000" stroke="#000" stroke-miterlimit="10" d="M19.977.023H.023v19.954h19.954V.023z"/><path fill="#fff" d="M16.943 5.778c-.236-.186-.517-.44-1.03-.504-.48-.063-.97.259-1.3.472-.332.213-.958.839-1.216 1.03-.259.19-.92.367-1.986 1.006-1.066.64-5.248 3.325-5.248 3.325l1.089.013-4.853 2.5h.485l-.698.53s.617.163 1.134-.164v.15s5.778-2.277 6.893-1.687l-.68.2c.059 0 1.156.072 1.156.072a1.557 1.557 0 0 0 .699 1.125c.662.435.675.676.675.676s-.344.14-.344.317c0 0 .508-.154.98-.14.299.01.596.058.884.14 0 0-.037-.19-.495-.317s-.911-.626-1.133-.898a1.271 1.271 0 0 1-.186-1.243c.159-.413.712-.64 1.855-1.23 1.347-.697 1.655-1.214 1.845-1.618.19-.404.472-1.206.63-1.583.2-.485.445-.744.65-.898.203-.154 1.11-.494 1.11-.494s-.693-.603-.916-.78z"/></g><defs><clipPath id="clip0"><path fill="#fff" d="M0 0h20v20H0z"/></clipPath></defs></svg>