<svg xmlns="http://www.w3.org/2000/svg" width="18" height="20" fill="none" viewBox="0 0 18 20"><path fill="url(#paint0_linear)" d="M4.193 8.569h.01l.154.054.145.054.155.045.145.063.155.054.146.054.154.054.146.054.145.054.146.054.154.054.146.063.155.045.145.054.155.054.145.063.155.054.145.045.146.054.155.063.154.054V7.606H3.993l-.146.072-.345.18-.355.189-.355.17-.336.18-.355.19-.355.17-.345.19-.355.18-.346.17-.345.19-.319.162L0 14.807l.355.242.345.244.346.234.355.252.345.243.355.243.155.117.2-.252.336-.45.037-.045-.037-.027-.336-.244-.355-.243-.355-.242-.345-.243-.355-.253-.091-.054.027-4.176.064-.036.355-.171.345-.171.355-.171.355-.171.336-.18.355-.171.355-.162.345-.18.346-.171z"/><path fill="url(#paint1_linear)" d="M10.214 18.407l-.29.117-.328.135-.328.126-.327.135-.146.054-.172-.081-.328-.171-.327-.153-.319-.171-.327-.162-.328-.153-.327-.171-.327-.162-.328-.162-.327-.162-.328-.171-.309-.153-.327-.162-.037-.018v-4.213h-.946v4.789l.328.153.327.162.328.17.327.154.31.17.327.163.327.162.328.162.327.162.327.162.328.162.327.17.319.154.327.171.328.153.127.072.19-.09.328-.117.328-.135.327-.135.319-.126.327-.126-.327-.81-.028-.054z"/><path fill="url(#paint2_linear)" d="M16.026 12.556l.018 1.98-.081.072-.555.378-.555.396-.555.397-.555.387-.555.387-.545.396-.555.387-.327.234-.228-.171-.546-.423-.555-.414-.554-.423-.546-.414-.1-.072v-2.134l.1-.09.546-.576.554-.567.555-.576.546-.567.537-.558H5.457l.555.576.546.567.555.567.554.576.546.567.082.081v2.584l.473.369.564.423.546.414.554.423.555.414.546.423.2.153.355-.252.555-.378.545-.396.555-.396.555-.378.555-.396.555-.396.555-.378.554-.397.455-.332.091-2.43-.546-.019-.49-.018z"/><path fill="url(#paint3_linear)" d="M.9 7.948h.064l.009-2.646.355-.225.445-.262.437-.26.437-.27.436-.262.446-.27.427-.26.446-.262.437-.27.445-.27h.01l.418.243.445.243.437.252.437.243.436.243.437.243.436.252.428.243.018-.036.437-.783-.437-.252-.446-.243-.436-.243-.437-.243-.436-.252-.437-.243-.437-.243-.445-.252-.428-.243-.018-.009-.427.252-.437.27-.446.27-.427.27-.446.261-.436.261-.437.27-.437.261-.445.27-.428.261-.445.261-.419.261-.018 3.16h.437l.445.009z"/><path fill="url(#paint4_linear)" d="M18 5.527l-.227-.18-.228-.18-.227-.19-.228-.18-.227-.18-.236-.18-.228-.18-.227-.18-.237-.189-.173-.126-.063.072-.228.28-.227.287-.064.072.064.063.227.19.228.188.236.19.237.189.227.198.228.189.236.189.11.09.008 4.257-.118.081-.236.144-.228.144-.227.144-.237.144-.236.144-.228.144-.227.144-.227.144-.228.144-.227.144-.237.144-.227.144-.227.144-.228.144-.236.144-.228.144.228.36.236.36.037.063.19-.117.228-.135.227-.144.237-.135.227-.153.228-.135.227-.144.227-.135.228-.144.236-.135.237-.153.227-.135.228-.144.236-.135.227-.144.228-.135.227-.153.228-.135.227-.144V5.527z"/><path fill="url(#paint5_linear)" d="M10.496 8.065V9.9l.073-.027.31-.117.309-.126.3-.117.309-.126.31-.126.3-.117.309-.126.309-.117.3-.126.31-.117.3-.126V2.96l-.346-.216-.355-.198-.355-.198-.345-.216-.355-.198-.355-.198-.345-.207-.355-.207-.346-.207-.355-.198-.354-.207-.346-.207-.346-.198-.354-.198L8.832 0l-.164.09-.355.189-.354.18-.337.198-.355.19-.354.18-.355.197.355.198.354.198.219.135.136-.072.337-.18.354-.189.355-.18.136-.072.219.126.354.198.346.198.346.207.354.207.355.198.346.207.354.207.346.198.355.198.355.216.345.198.119.063v4.105h-2.484"/><path fill="url(#paint6_linear)" d="M10.496 9.901l3.438-1.368-3.438-.945"/><path fill="url(#paint7_linear)" d="M7.35 9.901V7.624l-3.148.927L7.35 9.892"/><defs><linearGradient id="paint0_linear" x1="3.672" x2="3.672" y1="7.608" y2="16.378" gradientUnits="userSpaceOnUse"><stop stop-color="#F6E93D"/><stop offset=".13" stop-color="#F8E330"/><stop offset=".35" stop-color="#F7C730"/><stop offset=".64" stop-color="#F59C2E"/><stop offset=".98" stop-color="#EB5E2C"/><stop offset="1" stop-color="#EB5C2C"/></linearGradient><linearGradient id="paint1_linear" x1="7.155" x2="7.155" y1="12.713" y2="19.999" gradientUnits="userSpaceOnUse"><stop stop-color="#F6E93D"/><stop offset=".13" stop-color="#F8E330"/><stop offset=".35" stop-color="#F7C730"/><stop offset=".64" stop-color="#F59C2E"/><stop offset=".98" stop-color="#EB5E2C"/><stop offset="1" stop-color="#EB5C2C"/></linearGradient><linearGradient id="paint2_linear" x1="11.26" x2="11.26" y1="10.584" y2="18.725" gradientUnits="userSpaceOnUse"><stop stop-color="#F6E93D"/><stop offset=".13" stop-color="#F8E330"/><stop offset=".35" stop-color="#F7C730"/><stop offset=".64" stop-color="#F59C2E"/><stop offset=".98" stop-color="#EB5E2C"/><stop offset="1" stop-color="#EB5C2C"/></linearGradient><linearGradient id="paint3_linear" x1="4.62" x2="4.62" y1="1.614" y2="7.949" gradientUnits="userSpaceOnUse"><stop stop-color="#F6E93D"/><stop offset=".13" stop-color="#F8E330"/><stop offset=".35" stop-color="#F7C730"/><stop offset=".64" stop-color="#F59C2E"/><stop offset=".98" stop-color="#EB5E2C"/><stop offset="1" stop-color="#EB5C2C"/></linearGradient><linearGradient id="paint4_linear" x1="15.593" x2="15.593" y1="3.761" y2="13.385" gradientUnits="userSpaceOnUse"><stop stop-color="#F6E93D"/><stop offset=".13" stop-color="#F8E330"/><stop offset=".35" stop-color="#F7C730"/><stop offset=".64" stop-color="#F59C2E"/><stop offset=".98" stop-color="#EB5E2C"/><stop offset="1" stop-color="#EB5C2C"/></linearGradient><linearGradient id="paint5_linear" x1="10.245" x2="10.245" y1="0" y2="9.904" gradientUnits="userSpaceOnUse"><stop stop-color="#F6E93D"/><stop offset=".13" stop-color="#F8E330"/><stop offset=".35" stop-color="#F7C730"/><stop offset=".64" stop-color="#F59C2E"/><stop offset=".98" stop-color="#EB5E2C"/><stop offset="1" stop-color="#EB5C2C"/></linearGradient><linearGradient id="paint6_linear" x1="12.212" x2="12.212" y1="7.594" y2="9.906" gradientUnits="userSpaceOnUse"><stop stop-color="#F6E93D"/><stop offset=".13" stop-color="#F8E330"/><stop offset=".35" stop-color="#F7C730"/><stop offset=".64" stop-color="#F59C2E"/><stop offset=".98" stop-color="#EB5E2C"/><stop offset="1" stop-color="#EB5C2C"/></linearGradient><linearGradient id="paint7_linear" x1="5.738" x2="6.466" y1="9.329" y2="7.306" gradientUnits="userSpaceOnUse"><stop stop-color="#F6E93D"/><stop offset=".13" stop-color="#F8E330"/><stop offset=".35" stop-color="#F7C730"/><stop offset=".64" stop-color="#F59C2E"/><stop offset=".98" stop-color="#EB5E2C"/><stop offset="1" stop-color="#EB5C2C"/></linearGradient></defs></svg>