<svg xmlns="http://www.w3.org/2000/svg" width="20" height="20" fill="none" viewBox="0 0 20 20"><path fill="url(#paint0_linear)" d="M10 20c5.523 0 10-4.477 10-10S15.523 0 10 0 0 4.477 0 10s4.477 10 10 10z"/><path fill="#fff" d="M5.078 13V8.293l3.57 2.687V13h.91v-2.21a.53.53 0 0 0-.211-.423l-4.329-3.26a.536.536 0 0 0-.851.427V13h.911zm9.871 0V8.293L11.38 10.98V13h-.911v-2.21a.529.529 0 0 1 .212-.423l4.328-3.258a.537.537 0 0 1 .556-.049.532.532 0 0 1 .295.473V13h-.91z"/><defs><linearGradient id="paint0_linear" x1="10" x2="10" y1="0" y2="20" gradientUnits="userSpaceOnUse"><stop stop-color="#4FA89B"/><stop offset="1" stop-color="#6ACEBB"/></linearGradient></defs></svg>