<svg xmlns="http://www.w3.org/2000/svg" width="20" height="20" fill="none" viewBox="0 0 20 20"><path fill="#DEC799" d="M10 20c5.523 0 10-4.477 10-10S15.523 0 10 0 0 4.477 0 10s4.477 10 10 10z"/><path fill="#fff" d="M14.706 8.384l-.89-4.009-1.748 2.759a8.815 8.815 0 0 0-4.136 0L6.189 4.375l-.894 4.009c-.96.767-1.545 1.77-1.545 2.872 0 2.412 2.798 4.368 6.248 4.368s6.248-1.957 6.248-4.368c0-1.102-.581-2.105-1.54-2.872zm-8.18 1.835H6.11l1.017-1.173h.74l-1.34 1.173zm3.44 2.865l-1.728-3.045.426-.244.386.678h1.888l.403-.681.422.251-1.797 3.04zm3.508-2.865l-1.34-1.173h.744l1.016 1.173h-.42zm-3.5 1.884l-.645-1.137h1.317l-.672 1.137z"/></svg>