<svg xmlns="http://www.w3.org/2000/svg" width="21" height="20" fill="none" viewBox="0 0 21 20"><g clip-path="url(#clip0)"><path fill="#0293D6" d="M4.773 17.557a7.152 7.152 0 0 0 2.228 1.723c.848.42 1.77.664 2.713.72a4.465 4.465 0 0 0 2.976-1.364 51.985 51.985 0 0 1 4.885-3.75l.954-.397c.393-.17 1.067-.569 1.685-1.307.674-.91.786-1.875.786-2.216a6.308 6.308 0 0 0-1.01-3.011 18.789 18.789 0 0 1-6.393 6.774 18.506 18.506 0 0 1-8.824 2.828z"/><path fill="#EBE638" d="M6.906 1.42A4.455 4.455 0 0 1 10.163 0a2.905 2.905 0 0 1 2.134.739 9.697 9.697 0 0 0 5.502 1.818c.506.057 1.517.227 2.19 1.08.506.681.562 1.42.562 1.76a7.95 7.95 0 0 1-.562 2.557L6.906 1.42z"/><path fill="#BAD147" d="M4.773 17.557c-.506-.057-1.18-.227-1.966-.568-.786-.341-1.74-.739-2.358-1.819C.056 14.49 0 13.808 0 13.353a7.928 7.928 0 0 1 .842-3.466A16.142 16.142 0 0 0 1.909 5.74l.28-1.137c.17-.568.282-1.136.675-1.704l.617-.682a5.279 5.279 0 0 1 3.425-.796 17.859 17.859 0 0 0-3.005 7.805 17.927 17.927 0 0 0 .872 8.33z"/><path fill="#78B650" d="M6.906 1.42c-.056 0 3.032.17 4.942.853l1.572.682c-.618-.057-4.548-.228-7.524 2.784-3.762 3.863-2.527 9.147-2.47 9.431a5.835 5.835 0 0 1-1.236-3.92c.074-1.879.53-3.722 1.343-5.414A13.62 13.62 0 0 1 6.906 1.42z"/><path fill="#2F8260" d="M14.43 15.454a11.473 11.473 0 0 0-1.01-12.499 7.661 7.661 0 0 1 4.267 2.272c.674.568 1.516 1.42 2.302 2.728a16.744 16.744 0 0 1-5.559 7.5z"/><path fill="#085229" d="M16.227 5.455c-.898-1.535-2.19-2.216-2.751-2.5-.45-.114-4.66-.796-7.861 2.329-2.583 2.5-2.751 5.739-2.751 6.364a9.791 9.791 0 0 0 2.021 5.909 13.22 13.22 0 0 0 5.054 0c.842-.17 2.807-.512 4.492-1.989.224-.227 2.695-2.557 2.863-6.25 0-.625 0-2.216-1.067-3.863zm-2.021 8.238a5.56 5.56 0 0 1-1.86 1.345 5.508 5.508 0 0 1-2.239.473c-.337 0-2.583-.056-4.155-1.931-.225-.285-1.348-1.648-1.292-3.694.113-2.727 2.246-4.318 2.696-4.659a5.01 5.01 0 0 1 2.751-.966c.337-.056 1.516-.113 2.695.569 2.583 1.42 2.695 4.83 2.695 5.056 0 .625 0 2.33-1.291 3.807z"/></g><defs><clipPath id="clip0"><path fill="#fff" d="M0 0h21v20H0z"/></clipPath></defs></svg>