<svg xmlns="http://www.w3.org/2000/svg" width="20" height="20" fill="none" viewBox="0 0 20 20"><path fill="#0E0E21" d="M10 20c5.523 0 10-4.477 10-10S15.523 0 10 0 0 4.477 0 10s4.477 10 10 10z"/><path fill="#fff" d="M15.583 12.333l-1.187-2.02c-.042-.084-.146-.105-.209-.042l-.77.5c-.063.041-.084.146-.042.208l.688 1.146c.02.042 0 .083-.021.104l-4 2.584c-.021.02-.063.02-.084 0L6 12.229c-.042-.02-.042-.062-.02-.104l.687-1.146c.041-.062.02-.166-.042-.208l-.77-.5c-.084-.042-.167-.021-.21.041l-1.187 2.021a.304.304 0 0 0 .105.417l5.312 3.458c.104.063.23.063.333 0l5.313-3.458c.104-.104.146-.292.062-.417z"/><path fill="#2AE7A8" d="M6.437 9.188l.771.5c.084.041.167.02.209-.042l2.5-4.25c.02-.042.104-.042.125 0l2.5 4.25c.041.083.146.104.208.041l.77-.5c.063-.041.084-.145.043-.208l-2.938-5.083c-.063-.104-.146-.146-.27-.146h-.71a.357.357 0 0 0-.27.146l-2.98 5.083c-.04.063-.02.167.042.209z"/></svg>