<svg xmlns="http://www.w3.org/2000/svg" width="20" height="20" fill="none" viewBox="0 0 20 20"><g clip-path="url(#clip0)"><path fill="#20EE82" d="M13.001 9.999v3H10a3 3 0 1 1 3-3zm-2.962-5a4.99 4.99 0 0 0-4.711 2.95 4.995 4.995 0 0 0 2.512 6.612c.599.27 1.245.418 1.902.438h5.256v-4.94c0-2.758-2.202-5.04-4.96-5.06"/><path fill="#7F8C8D" d="M17.07 2.929A10.001 10.001 0 0 0 4.487 1.657c.113.124.21.262.287.41a9.52 9.52 0 0 1 11.94 1.219c3.702 3.698 3.702 9.722 0 13.425-3.703 3.702-9.727 3.702-13.43 0A9.52 9.52 0 0 1 2.072 4.77a1.956 1.956 0 0 1-.411-.287c-3.047 4.604-1.782 10.81 2.821 13.856 4.604 3.047 10.81 1.782 13.856-2.821a9.991 9.991 0 0 0 1.61-6.52 9.993 9.993 0 0 0-2.878-6.07"/><path fill="#20EE82" d="M2.3 2.295a.994.994 0 0 1 1.088-.219.998.998 0 0 1 .453 1.478 1.004 1.004 0 0 1-1.538.156l-.004-.004a1.002 1.002 0 0 1 0-1.411"/></g><defs><clipPath id="clip0"><path fill="#fff" d="M0 0h20v20H0z"/></clipPath></defs></svg>