<svg xmlns="http://www.w3.org/2000/svg" width="20" height="20" fill="none" viewBox="0 0 20 20"><g clip-path="url(#clip0)"><path fill="#5A5564" d="M16.308 4.197l-.55.55a7.77 7.77 0 0 1 .001 10.492l.549.55a8.559 8.559 0 0 0 0-11.604v.012zM4.76 4.245a7.772 7.772 0 0 1 10.492 0l.549-.55a8.562 8.562 0 0 0-11.604.002l.562.549zm-.515 10.999a7.772 7.772 0 0 1 0-10.487l-.55-.549a8.562 8.562 0 0 0 .002 11.604l.549-.568zm10.999.507a7.775 7.775 0 0 1-10.492 0l-.55.55a8.564 8.564 0 0 0 11.604 0l-.562-.55z"/><path fill="#F09242" d="M13.467 8.168c-.11-1.146-1.098-1.53-2.349-1.648V4.942h-.966v1.549h-.773V4.942H8.42v1.59H6.46v1.033s.714-.012.703 0a.501.501 0 0 1 .549.425v4.35a.336.336 0 0 1-.117.235.332.332 0 0 1-.249.085c.013.01-.703 0-.703 0l-.183 1.155h1.942v1.614h.966v-1.59h.773v1.583h.968v-1.596c1.633-.1 2.772-.502 2.914-2.03.116-1.23-.463-1.78-1.387-2.001.562-.276.91-.789.83-1.627zm-1.355 3.437c0 1.201-2.057 1.064-2.712 1.064v-2.13c.655.001 2.712-.188 2.712 1.066zm-.448-3.002c0 1.099-1.717.965-2.263.965V7.631c.546 0 2.263-.172 2.263.972z"/><path fill="#282138" d="M9.998 20A9.998 9.998 0 0 1 .192 8.049 9.995 9.995 0 0 1 8.049.192a9.995 9.995 0 0 1 10.265 4.251 9.995 9.995 0 0 1-1.243 12.628A9.996 9.996 0 0 1 9.998 20zm0-19.22a9.212 9.212 0 0 0-9.03 11.015 9.213 9.213 0 0 0 12.563 6.713A9.216 9.216 0 0 0 9.998.779z"/></g><defs><clipPath id="clip0"><path fill="#fff" d="M0 0h20v20H0z"/></clipPath></defs></svg>