<svg xmlns="http://www.w3.org/2000/svg" width="20" height="20" fill="none" viewBox="0 0 20 20"><path fill="#006AE3" fill-rule="evenodd" d="M10 0c5.522 0 10 4.478 10 10s-4.478 10-10 10S0 15.522 0 10 4.478 0 10 0z" clip-rule="evenodd"/><path fill="#fff" d="M9.588 14.216v-8.32h.906v8.32h-.906z"/><path fill="#fff" d="M14.2 8.668l-2.798.742-.624-2.904.832-.188.328 1.376s.756-1.24-.252-2.524c-.594-.66-.876-.688-1.542-.792-.586-.084-1.948.114-2.354 1.704-.172 1.024.022 1.782 1.342 2.774L9.058 9.96S7.584 8.922 7.204 8.194c-.294-.576-.798-1.714.112-3.298.49-.792 1.456-1.552 3.158-1.472.856.036 2.946 1.082 2.622 3.526-.056.458-.294 1.068-.294 1.068l1.148-.256.25.906zm-1.598 6.51c-.512.778-1.498 1.512-3.196 1.388-.856-.058-2.916-1.16-2.528-3.594.068-.456.322-1.058.322-1.058l-1.154.224-.226-.91 2.818-.668.548 2.92-.838.166-.292-1.386s-.788 1.218.184 2.53c.576.676.856.71 1.522.832.582.1 1.95-.064 2.398-1.642.198-1.018.024-1.782-1.268-2.81l.104-1.102s1.446 1.076 1.806 1.814c.276.586.75 1.738-.2 3.296z"/></svg>