<svg xmlns="http://www.w3.org/2000/svg" width="14" height="20" fill="none" viewBox="0 0 14 20"><g clip-path="url(#clip0)"><path fill="#000" d="M14 8.264l-2.854 1.284-7.57 3.889 7.57 3.673v-6.071L14 9.74v8.97l-2.854 1.283L0 14.611v-2.862l7.715-3.82L0 4.189V1.285L2.899.001l11.1 5.393v2.87z"/><path fill="#3E778C" d="M0 1.285l11.146 5.393L14 5.394 2.899 0l-2.9 1.284z"/><path fill="#508A95" d="M11.146 6.666L14 5.382v2.87l-2.854 1.284v-2.87z"/><path fill="#74BDBE" d="M0 1.288V4.19l7.715 3.742L0 11.752v2.861l11.146 5.384v-2.88l-7.57-3.678 7.57-3.888V6.68L0 1.287z"/><path fill="#508A95" d="M11.146 19.975L14 18.691V9.722l-2.854 1.298v8.955z"/></g><defs><clipPath id="clip0"><path fill="#fff" d="M0 0h14v20H0z"/></clipPath></defs></svg>