<svg xmlns="http://www.w3.org/2000/svg" width="118" height="30" fill="none" viewBox="0 0 118 30">
    <path fill="#000002" d="M13.036 30l9.484-.016c.461 0 .888-.25 1.115-.653l4.61-8.164c.222-.393.222-.873 0-1.267l-4.64-8.22c-.227-.406-.656-.654-1.12-.654l-9.228.016V.864c0-.475-.386-.864-.863-.864h-1.206c-.475 0-.863.386-.863.864v27.088c.43.864 1.017 1.724 2.044 2.048h.667zM24.9 21.277l-3.067 5.376c-.227.4-.651.646-1.112.648l-6.275.01c-.45 0-.753-.362-.987-.748l-.334-.623V14.994l.2-.329c.23-.381.646-.616 1.09-.616l6.285-.009c.459 0 .88.244 1.11.64l3.08 5.315c.237.395.237.885.01 1.282z"/>
    <path fill="#0068C1" d="M15.775 18.588l-.782 1.306c-.23.384-.642.62-1.087.623l-6.285.055c-.458.005-.883-.237-1.114-.632l-3.12-5.293c-.231-.395-.238-.885-.013-1.283L6.4 7.966c.225-.402.647-.65 1.106-.655l6.275-.055c.45-.005.87.228 1.103.612l.803 1.308c.06.151.303.726.702.758.119.01.213-.034.433-.147.243-.124.569-.299.954-.526.087-.04.622-.288.622-.635 0-.099-.053-.2-.156-.4-.11-.209-.22-.37-.296-.478-.507-.874-1.014-1.745-1.52-2.619-.232-.4-.659-.643-1.12-.639l-9.484.085c-.46.005-.885.256-1.11.66l-4.55 8.2c-.218.396-.216.877.01 1.268l4.699 8.189c.231.402.66.648 1.123.643l9.461-.085c.47-.004.9-.264 1.12-.68l1.463-2.619c.19-.33.314-.614.392-.818.055-.145.073-.212.062-.294-.025-.175-.213-.306-.587-.561-.44-.3-.56-.387-.833-.545-.415-.242-.525-.267-.633-.235-.121.037-.202.15-.36.373-.142.207-.24.388-.305.517zM32.903 12.182c0-3.41 2.472-4.959 4.965-5.113 2.106-.135 4.058-.078 6.01.117v2.247c-1.835-.194-3.748-.33-5.585-.154-1.66.154-2.57 1.356-2.57 2.692v5.23c0 1.917.928 3.331 3.132 3.428 1.66.078 3.341-.019 5.004-.271v2.053c0 .174-.078.232-.213.252-1.66.194-3.285.33-5.083.251-3.903-.175-5.66-2.517-5.66-5.462v-5.27zM45.58 17.51l-.02-4.728c-.017-3.195 2.166-5.966 6.28-5.966 3.943 0 6.088 2.247 6.088 5.966v4.706c0 3.778-2.629 5.695-6.087 5.695-4.099 0-6.243-2.46-6.262-5.674zm2.625-4.553v4.338c0 2.228 1.507 3.621 3.633 3.621 2.145 0 3.555-1.296 3.555-3.62v-4.339c0-2.304-1.314-3.816-3.555-3.816-2.259 0-3.633 1.492-3.633 3.816zM60.187 12.182c0-3.41 2.472-4.959 4.965-5.113 2.106-.135 4.058-.078 6.01.117v2.247c-1.836-.194-3.748-.33-5.585-.154-1.66.154-2.57 1.356-2.57 2.692v5.23c0 1.917.927 3.331 3.131 3.428 1.661.078 3.342-.019 5.005-.271v2.053c0 .174-.078.232-.213.252-1.66.194-3.285.33-5.083.251-3.903-.175-5.66-2.517-5.66-5.462v-5.27zM72.863 17.51l-.02-4.728c-.019-3.195 2.164-5.966 6.28-5.966 3.942 0 6.086 2.247 6.086 5.966v4.706c0 3.778-2.628 5.695-6.087 5.695-4.096 0-6.24-2.46-6.259-5.674zm2.626-4.553v4.338c0 2.228 1.507 3.621 3.633 3.621 2.145 0 3.555-1.296 3.555-3.62v-4.339c0-2.304-1.314-3.816-3.555-3.816-2.259 0-3.633 1.492-3.633 3.816z"/>
    <path fill="#000002" d="M98.851 12.008c0 1.025-.424 1.917-1.218 2.614 1.023.35 1.585 1.839 1.525 2.81v1.78c-.135 2.518-1.816 3.7-4.27 3.7h-6.28c-.406 0-.715-.386-.715-.736V7.127h6.589c1.931 0 4.406.64 4.367 3.042v1.839h.002zm-8.213-2.614v4.359h3.227c1.294 0 2.319-.214 2.319-1.9v-.91c0-1.335-1.257-1.55-2.337-1.55h-3.21zm0 6.527v4.531c0 .117.078.154.232.154h3.536c1.236 0 2.126-1.16 2.126-2.131v-.582c0-.928-1.062-1.975-2.201-1.975h-3.693v.003zM104.165 22.583c0 .214-.096.35-.309.35h-2.434V7.166h2.743v15.417zM110.502 22.912v-13.5h-4.695V7.146H118v2.266h-4.716v13.132c0 .253-.153.368-.348.368h-2.434z"/>
</svg>
