<svg xmlns="http://www.w3.org/2000/svg" width="124" height="30" fill="none" viewBox="0 0 124 30">
    <path fill="#F75200" d="M39.927 21.023c-.661-.589-.99-1.357-.99-2.301V11.28c0-.948.329-1.713.99-2.301.658-.589 1.52-.881 2.583-.881 1.06 0 1.922.296 2.583.88.661.59.99 1.357.99 2.302v1.573h-2.237V11.28c0-.382-.123-.692-.365-.921-.243-.23-.559-.346-.948-.346-.389 0-.704.116-.947.346-.243.23-.366.539-.366.92v7.443c0 .382.123.691.366.92.243.23.558.347.947.347.39 0 .702-.117.948-.346.242-.23.365-.539.365-.921v-1.919h2.238v1.919c0 .947-.33 1.712-.991 2.3-.662.59-1.52.882-2.583.882-1.06.003-1.921-.293-2.583-.881zM49.075 21.015c-.675-.595-1.01-1.376-1.01-2.35v-7.33c0-.97.335-1.755 1.01-2.35.675-.595 1.556-.891 2.646-.891 1.09 0 1.972.296 2.646.89.675.596 1.011 1.377 1.011 2.352v7.329c0 .97-.336 1.755-1.01 2.35-.675.596-1.556.892-2.647.892-1.09 0-1.974-.3-2.646-.892zm3.657-1.373c.243-.23.366-.555.366-.977v-7.33c0-.421-.123-.747-.366-.977-.243-.23-.582-.346-1.01-.346-.43 0-.769.117-1.011.346-.243.23-.366.556-.366.978v7.329c0 .422.123.748.366.977.242.23.581.346 1.01.346.43 0 .768-.116 1.01-.346zM58.477 21.022c-.662-.589-.991-1.357-.991-2.301v-7.442c0-.948.329-1.713.99-2.301.659-.589 1.52-.881 2.583-.881 1.06 0 1.922.296 2.583.88.662.59.99 1.357.99 2.302v1.573h-2.236v-1.573c0-.383-.123-.692-.366-.921-.243-.23-.558-.346-.947-.346-.39 0-.705.116-.948.346-.242.23-.365.538-.365.92v7.443c0 .382.123.691.365.92.243.23.559.347.948.347.389 0 .701-.117.947-.346.243-.23.366-.539.366-.921v-1.919h2.237v1.919c0 .947-.33 1.712-.99 2.3-.662.59-1.52.882-2.584.882-1.06.003-1.921-.293-2.582-.881zM67.625 21.015c-.675-.595-1.011-1.376-1.011-2.35v-7.33c0-.97.336-1.755 1.01-2.35.675-.595 1.556-.891 2.647-.891 1.09 0 1.97.296 2.646.89.675.596 1.01 1.377 1.01 2.352v7.329c0 .97-.335 1.755-1.01 2.35-.675.596-1.556.892-2.646.892-1.09 0-1.975-.3-2.646-.892zm3.656-1.373c.243-.23.366-.555.366-.977v-7.33c0-.421-.123-.747-.366-.977-.243-.23-.582-.346-1.01-.346-.43 0-.768.117-1.01.346-.244.23-.367.556-.367.978v7.329c0 .422.123.748.366.977.243.23.582.346 1.01.346.43 0 .769-.116 1.011-.346z"/>
    <path fill="#221C1D" d="M81.782 21.484c-.558-.283-.993-.672-1.303-1.17-.309-.5-.462-1.068-.462-1.706v-.48l2.194-.209v.5c0 .485.13.87.39 1.15.258.282.618.422 1.076.422.446 0 .801-.116 1.064-.346.266-.23.399-.542.399-.94 0-.436-.14-.852-.419-1.248-.28-.396-.834-.948-1.669-1.65-1.12-.947-1.881-1.732-2.29-2.36-.409-.625-.612-1.31-.612-2.052 0-1.01.31-1.812.924-2.407.615-.595 1.463-.891 2.54-.891s1.921.299 2.54.9c.615.603.924 1.407.924 2.418v.346l-2.194.21v-.383c0-.512-.106-.901-.323-1.17-.216-.27-.525-.403-.924-.403-.402 0-.711.11-.924.326-.216.216-.322.539-.322.958 0 .419.143.828.429 1.217.286.389.837.95 1.655 1.68 1.12.997 1.885 1.798 2.29 2.407.41.608.612 1.276.612 2.005 0 .638-.153 1.207-.462 1.706-.31.498-.741.887-1.303 1.17-.558.283-1.197.422-1.915.422s-1.356-.143-1.915-.422zM88.517 8.287h7.274v1.919h-2.497v11.508h-2.28V10.206h-2.497V8.287zM98.374 21.015c-.675-.595-1.011-1.376-1.011-2.35v-7.33c0-.97.336-1.755 1.01-2.35.675-.595 1.556-.891 2.647-.891 1.09 0 1.971.296 2.646.89.675.596 1.01 1.377 1.01 2.352v7.329c0 .97-.335 1.755-1.01 2.35-.675.596-1.556.892-2.646.892-1.09 0-1.972-.3-2.646-.892zm3.656-1.373c.243-.23.366-.555.366-.977v-7.33c0-.421-.123-.747-.366-.977-.242-.23-.581-.346-1.01-.346-.429 0-.768.117-1.011.346-.243.23-.366.556-.366.978v7.329c0 .422.123.748.366.977.243.23.582.346 1.011.346.429 0 .768-.116 1.01-.346zM107.778 21.022c-.662-.589-.991-1.357-.991-2.301v-7.442c0-.948.329-1.713.991-2.301.658-.589 1.519-.881 2.583-.881 1.06 0 1.921.296 2.583.88.661.59.99 1.357.99 2.302v1.573h-2.24v-1.573c0-.383-.123-.692-.366-.921-.243-.23-.558-.346-.947-.346-.389 0-.705.116-.948.346-.242.23-.365.538-.365.92v7.443c0 .382.123.691.365.92.243.23.559.347.948.347.389 0 .701-.117.947-.346.243-.23.366-.539.366-.921v-1.919h2.237v1.919c0 .947-.329 1.712-.991 2.3-.661.59-1.519.882-2.583.882-1.06.003-1.921-.293-2.579-.881zM119.16 16.191l-.861 1.477v4.046h-2.28V8.287h2.28v5.447l3.012-5.447h2.453l-3.208 5.696L124 21.714h-2.453l-2.387-5.523zM15.002 30l-6.685-6.677 2.523-2.527 4.162 4.163c4.155-4.163 8.317-8.32 12.476-12.48L30 15.008 15.002 30z"/>
    <path fill="#F75200" d="M17.522 10.843L6.685 21.687 4.162 19.16l10.84-10.84 2.52 2.523zM28.548 3.125l-2.848.53 1.16 1.093-10.738 10.764h.004l-3.65 3.648 2.526 2.527 3.65-3.655.004.004.718-.725 6.469-6.468-.01-.013 3.623-3.635 1.223 1.151.36-2.873.358-2.876-2.849.528z"/>
    <path fill="#221C1D" d="M16.568 1.543L15.025 0l-.023.023V0L0 15.003l2.526 2.52.024-.022v.023L15.015 5.058l.004.003 2.533-2.534-.984-.984z"/>
</svg>
