<svg xmlns="http://www.w3.org/2000/svg" width="82" height="30" fill="none" viewBox="0 0 82 30">
    <g clip-path="url(#clip0)">
        <path fill="#D60015" fill-rule="evenodd" d="M18.83 20.93l.002.003 2.044-1.199v-3.513l-7.378 4.325-4.272-2.501L25.6 8.45l-.003 14.052-11.904 6.978v-.005L12.8 30l-.893-.524v.003L0 22.503V7.5l3.925-2.297.797-.469L12.8 0l10.751 6.301-4.722 2.769L12.8 5.534 4.722 10.27v9.465l1.83 1.07v-.002l6.248 3.664 6.03-3.536z" clip-rule="evenodd"/>
        <path fill="#C1C1C1" fill-rule="evenodd" d="M7.781 15.541l8.224-4.818-3.032-1.776L7.78 11.99v3.552z" clip-rule="evenodd"/>
        <path fill="#000" stroke="#000" stroke-miterlimit="10" stroke-width="2" d="M48.143 13.907v8.632c-1.72.669-3.607 1.003-5.664 1.003-2.782 0-4.985-.78-6.63-2.364-1.621-1.561-2.42-3.613-2.42-6.178s.823-4.617 2.494-6.179c1.67-1.583 3.872-2.364 6.584-2.364 2.106 0 3.752.268 4.96.803l-.316 2.364c-1.186-.602-2.735-.892-4.647-.892-1.986 0-3.557.58-4.72 1.762C36.649 11.632 36.09 13.15 36.09 15c0 1.896.558 3.412 1.645 4.528 1.138 1.16 2.736 1.74 4.744 1.74 1.283 0 2.275-.112 2.978-.357v-4.73h-3.728v-2.274h6.414zM64.84 22.851c-.92.469-2.323.692-4.235.692-2.76 0-4.96-.781-6.609-2.32-1.62-1.561-2.444-3.636-2.444-6.223 0-2.543.824-4.595 2.494-6.179 1.67-1.583 3.873-2.364 6.56-2.364 1.96 0 3.389.2 4.235.602l-.195 2.275c-1.088-.401-2.42-.602-4.044-.602-1.96 0-3.51.58-4.672 1.74-1.162 1.16-1.741 2.677-1.741 4.528 0 1.918.557 3.435 1.694 4.55 1.138 1.137 2.711 1.717 4.72 1.717 1.694 0 3.048-.245 4.043-.736l.195 2.32zM81.712 22.851c-.92.469-2.324.692-4.236.692-2.76 0-4.96-.781-6.609-2.32-1.62-1.561-2.444-3.636-2.444-6.223 0-2.543.824-4.595 2.494-6.179 1.67-1.583 3.873-2.364 6.559-2.364 1.961 0 3.39.2 4.236.602l-.195 2.275c-1.088-.401-2.42-.602-4.044-.602-1.96 0-3.51.58-4.672 1.74-1.162 1.16-1.742 2.677-1.742 4.528 0 1.918.558 3.435 1.695 4.55 1.137 1.137 2.711 1.717 4.72 1.717 1.694 0 3.048-.245 4.043-.736l.195 2.32z"/>
    </g>
    <defs>
        <clipPath id="clip0">
            <path fill="#fff" d="M0 0H82V30H0z"/>
        </clipPath>
    </defs>
</svg>
