<svg width="141" height="165" viewBox="0 0 141 165" fill="none" xmlns="http://www.w3.org/2000/svg"><path opacity=".8" d="M-7.961 27.718C-9.507.968 7.23-14.44 33.533-14.44c23.77 0 39.948 9.943 39.948 30.672 0 24.93-24.474 32.773-42.9 43.977v.14h44.306v23.808H-9.929c-.563-9.385 2.25-17.506 7.033-24.089 8.16-11.343 22.224-18.767 34.743-26.33 5.062-3.08 13.222-7.003 13.222-14.146 0-8.825-5.204-11.905-11.815-11.905-11.252 0-15.05 8.124-14.768 20.029H-7.961v.002z" fill="#FB607A"/><path opacity=".8" d="M99.224-15C117.087-15 141-2.816 141 34.862c0 37.674-23.913 49.862-41.636 49.862-17.724 0-41.637-12.188-41.637-49.862C57.727-2.816 81.64-15 99.224-15zm0 78.291c14.347 0 15.05-18.066 15.05-28.432 0-10.086-.703-28.433-14.768-28.433-14.486 0-15.053 17.927-15.053 28.433 0 10.226.564 28.432 14.771 28.432z" fill="#FDA286"/><path opacity=".8" d="M-7.961 107.995C-9.507 81.244 7.23 65.837 33.533 65.837c23.77 0 39.948 9.942 39.948 30.671 0 24.93-24.474 32.773-42.9 43.977v.14h44.306v23.809H-9.929c-.563-9.385 2.25-17.506 7.033-24.089 8.16-11.344 22.224-18.767 34.743-26.331 5.062-3.079 13.222-7.003 13.222-14.146 0-8.824-5.204-11.904-11.815-11.904-11.252 0-15.05 8.124-14.768 20.028H-7.961v.003z" fill="#F8AF99"/><path opacity=".8" d="M99.224 65.276c17.863 0 41.776 12.185 41.776 49.862C141 152.813 117.087 165 99.364 165c-17.724 0-41.637-12.187-41.637-49.862 0-37.677 23.913-49.862 41.497-49.862zm0 78.292c14.347 0 15.05-18.067 15.05-28.433 0-10.085-.703-28.432-14.768-28.432-14.486 0-15.053 17.926-15.053 28.432 0 10.226.564 28.433 14.771 28.433z" fill="#F77B90"/></svg>