<svg xmlns="http://www.w3.org/2000/svg" width="20" height="20" viewBox="0 0 20 20"><defs><clipPath id="a"><circle cx="10" cy="10" r="10" fill="#eee" data-name="타원 34" transform="translate(465 815)"/></clipPath></defs><g clip-path="url(#a)" data-name="마스크 그룹 3" transform="translate(-465 -815)"><g data-name="그룹 543"><path fill="#ee972c" fill-rule="evenodd" d="M474.543 815a10 10 0 1 0 10 10.155 10.016 10.016 0 0 0-10-10.155" data-name="패스 2982"/></g><path fill="#fff" fill-rule="evenodd" d="M475.243 824.299c.108.025.357.056.473.071a1 1 0 0 0 .782-.757.935.935 0 0 0-.35-1.017l-.079-.046a8.664 8.664 0 0 0-.385-.09c-.3-.068-.684-.151-.908-.2l-.467 1.826.894.2.014.006zm-.626 3.5l.018.008.035.009c.16.036.526.086.619.1a1.111 1.111 0 0 0 .985-.8 1.037 1.037 0 0 0-.511-1.138l-.112-.059a10.765 10.765 0 0 0-.5-.118c-.4-.09-.93-.2-1.2-.263l-.5 2 1.175.264zm-1.482 2.918l.285-1.129-.677-.152-.288 1.128-1.447-.325.279-1.108-2.058-.462.5-1.982 1.132.254 1.327-5.238-1.222-.274.482-1.9 2.126.477.331-1.3 1.47.329-.332 1.299.7.158.33-1.3 1.47.329-.346 1.366a2.683 2.683 0 0 1 1.746 3.051 2.5 2.5 0 0 1-1.153 1.517 2.506 2.506 0 0 1 .895 2.53 3 3 0 0 1-3.673 1.9l-.08-.018-.3 1.184-1.493-.335z" data-name="패스 2983"/></g></svg>