<svg xmlns="http://www.w3.org/2000/svg" width="253" height="44" fill="none" viewBox="0 0 253 44"><path fill="#004576" d="M19.983 2h-5.965v5.926h5.965V2z"/><path fill="#0068C1" d="M25.924 12.667l-.012-6.151L20.168 2h-.185v10.667h5.94z"/><path fill="#004576" d="M19.983 22.74h-5.965v5.927h5.965V22.74z"/><path fill="#0068C1" d="M25.924 18l-.012 6.151-5.744 4.516h-.185V18h5.94zM13.833 2L8.089 6.516 8.065 18h.012l.012 6.151 5.744 4.516h.185V2h-.185z"/><path fill="#004576" d="M.43 18.471l5.535-4.145s.328-.338.328-.086v10.966l-5.61-3.653-.682-1.292v-.703s-.036-.737.429-1.087z"/><path fill="#0068C1" d="M.012 19.793v9.454c.006.8.4 1.547 1.047 2.021l14.545 10.605s.194.174.346.115c.152-.06.152-.07.152-.27v-8.835s.048-.344-.193-.572L1.069 21.286a2.52 2.52 0 0 1-.58-.599c-.193-.281-.432-.649-.459-.814-.047-.288-.023-.06-.023-.06"/><path fill="#004576" d="M33.57 18.471l-5.535-4.145s-.328-.338-.328-.086v10.966l5.607-3.653.683-1.292v-.702c.003 0 .039-.738-.426-1.088z"/><path fill="#0068C1" d="M33.988 19.793v9.454c-.006.8-.4 1.547-1.047 2.021L18.396 41.873s-.194.174-.346.115c-.152-.06-.152-.071-.152-.27v-8.835s-.048-.344.194-.572l14.84-11.025c.224-.166.42-.367.579-.599.194-.281.432-.649.46-.814.047-.288.023-.06.023-.06m33.11 5.917c.19-.228.532-.038.532.266v4.826c-2.622 2.242-5.814 3.23-9.462 3.23-8.284 0-13.224-5.776-13.224-15.01 0-9.462 5.852-15.048 13.68-15.048 3.724 0 6.422.684 8.778 2.774v4.788c0 .304-.342.494-.532.266-2.394-2.736-4.94-3.838-7.98-3.838-5.13 0-8.968 3.724-8.968 10.906 0 7.448 3.078 11.096 8.816 11.096 3.192 0 6.004-1.596 8.36-4.256zm15.062 8.322c-8.132 0-12.844-6.536-12.844-14.972 0-8.398 4.712-15.086 12.844-15.086 8.17 0 12.92 6.688 12.92 15.086 0 8.436-4.75 14.972-12.92 14.972zm0-4.028c5.244 0 7.98-4.484 7.98-10.982 0-6.498-2.736-11.02-7.98-11.02-5.206 0-7.904 4.522-7.904 11.02 0 6.498 2.698 10.982 7.904 10.982zm38.188-4.294c.19-.228.532-.038.532.266v4.826c-2.622 2.242-5.814 3.23-9.462 3.23-8.284 0-13.224-5.776-13.224-15.01 0-9.462 5.852-15.048 13.68-15.048 3.724 0 6.422.684 8.778 2.774v4.788c0 .304-.342.494-.532.266-2.394-2.736-4.94-3.838-7.98-3.838-5.13 0-8.968 3.724-8.968 10.906 0 7.448 3.078 11.096 8.816 11.096 3.192 0 6.004-1.596 8.36-4.256zm15.063 8.322c-8.132 0-12.844-6.536-12.844-14.972 0-8.398 4.712-15.086 12.844-15.086 8.17 0 12.92 6.688 12.92 15.086 0 8.436-4.75 14.972-12.92 14.972zm0-4.028c5.244 0 7.98-4.484 7.98-10.982 0-6.498-2.736-11.02-7.98-11.02-5.206 0-7.904 4.522-7.904 11.02 0 6.498 2.698 10.982 7.904 10.982z"/><path fill="#004576" d="M162.509 8.288h-4.332v7.752h3.99c3.154 0 5.092-1.026 5.092-4.142 0-2.128-1.482-3.61-4.75-3.61zm-.038 11.438h-4.294v10.032h4.864c3.42 0 5.51-2.09 5.51-4.978s-2.014-5.054-6.08-5.054zm5.016-2.128c3.268.646 6.042 3.42 6.042 7.22 0 4.408-3.344 8.892-10.07 8.892h-9.994V4.336h9.804c6.08 0 8.93 3.42 8.93 6.916 0 3.002-1.634 5.244-4.712 6.308v.038zm22.342-13.262l9.804 29.374h-4.788l-2.584-8.056h-9.994l-2.622 8.056h-4.788l9.766-29.374h5.206zm-2.584 4.294l-.76 2.812-3.268 10.412h8.056l-3.268-10.412-.76-2.812zm31.675 16.226l1.064 3.268-.038-3.268V4.336h4.522V33.71h-6.308l-9.348-20.52-1.064-3.268.038 3.268v20.52h-4.522V4.336h6.308l9.348 20.52zm21.811-8.398v.076l11.514 17.176h-5.738l-8.93-14.136h-.038l-2.242 2.622V33.71h-4.75V4.336h4.75v11.97h.038l10.564-11.97h5.776l-10.944 12.122z"/></svg>