<svg xmlns="http://www.w3.org/2000/svg" width="78" height="30" fill="none" viewBox="0 0 78 30"><path fill="#29304D" d="M38.91 7.562c-.132 1.149-.554 2.036-1.264 2.662-.705.622-1.644.932-2.817.932-1.272 0-2.292-.46-3.06-1.38-.764-.919-1.146-2.15-1.146-3.69V5.04c0-1.01.176-1.896.532-2.662.36-.766.867-1.352 1.523-1.76C33.334.207 34.093 0 34.955 0c1.144 0 2.06.323 2.75.97.69.641 1.092 1.531 1.206 2.669h-1.428c-.122-.865-.392-1.491-.805-1.88-.409-.387-.983-.58-1.723-.58-.907-.001-1.62.337-2.137 1.014-.512.675-.768 1.637-.768 2.886V6.13c0 1.179.244 2.116.73 2.811.49.697 1.172 1.044 2.05 1.044.787 0 1.392-.179 1.81-.536.425-.364.705-.992.843-1.887h1.428zM51.839 5.93c0 1.063-.178 1.993-.532 2.788-.356.79-.857 1.394-1.509 1.813-.65.417-1.41.626-2.277.626-.847 0-1.6-.208-2.255-.627-.655-.423-1.165-1.021-1.53-1.797-.36-.78-.544-1.683-.555-2.707v-.783c0-1.044.18-1.966.54-2.767.36-.8.867-1.413 1.524-1.835C45.905.213 46.659 0 47.507 0c.862 0 1.621.211 2.276.634.66.417 1.168 1.027 1.524 1.827.354.795.532 1.722.532 2.782v.686zm-1.412-.702c0-1.288-.257-2.274-.77-2.96-.512-.692-1.229-1.038-2.15-1.038-.897 0-1.604.346-2.122 1.037-.513.687-.776 1.64-.792 2.863v.798c0 1.248.259 2.23.776 2.945.524.711 1.24 1.067 2.152 1.067.917 0 1.627-.335 2.13-1.007.502-.676.761-1.643.776-2.901v-.804zM64.59 7.562c-.133 1.149-.555 2.036-1.264 2.662-.705.622-1.643.932-2.817.932-1.271 0-2.291-.46-3.06-1.38-.764-.919-1.146-2.15-1.146-3.69V5.04c0-1.01.177-1.896.532-2.662.36-.766.868-1.352 1.523-1.76C59.013.207 59.772 0 60.635 0c1.143 0 2.06.323 2.75.97.69.641 1.092 1.531 1.206 2.669h-1.427c-.123-.865-.392-1.491-.807-1.88-.408-.387-.983-.58-1.722-.58-.907-.001-1.62.337-2.137 1.014-.512.675-.769 1.637-.769 2.886V6.13c0 1.179.244 2.116.733 2.811.487.697 1.17 1.044 2.047 1.044.79 0 1.393-.179 1.812-.536.423-.364.705-.992.843-1.887h1.427zM77.519 5.93c0 1.063-.177 1.993-.532 2.788-.354.79-.857 1.394-1.508 1.813-.651.417-1.41.626-2.278.626-.847 0-1.6-.208-2.255-.627-.655-.423-1.165-1.021-1.53-1.797-.36-.78-.544-1.683-.554-2.707v-.783c0-1.044.179-1.966.54-2.767.36-.8.867-1.413 1.523-1.835C71.585.213 72.339 0 73.187 0c.862 0 1.621.211 2.276.634.662.417 1.17 1.027 1.524 1.827.355.795.532 1.722.532 2.782v.686zm-1.412-.702c0-1.288-.257-2.274-.77-2.96-.512-.692-1.229-1.038-2.15-1.038-.897 0-1.605.346-2.122 1.037-.513.687-.776 1.64-.79 2.863v.798c0 1.248.258 2.23.775 2.945.523.711 1.24 1.067 2.151 1.067.917 0 1.627-.335 2.13-1.007.502-.676.761-1.643.776-2.901v-.804z"/><path fill="url(#paint0_linear)" d="M39.428 23.215H33.45v6.18h-3.707V13.884H40.03v2.886h-6.58v3.569h5.978v2.877z"/><path fill="url(#paint1_linear)" d="M45.279 26.518h6.453v2.877h-10.16V13.884h3.707v12.634z"/><path fill="url(#paint2_linear)" d="M62.833 22.822h-5.83v3.696h6.886v2.877H53.296V13.884H63.91v2.886h-6.907v3.271h5.83v2.78z"/><path fill="url(#paint3_linear)" d="M71.135 19.04l2.514-5.156h4.235l-4.3 7.691L78 29.395h-4.278l-2.587-5.253-2.589 5.253H64.28l4.404-7.82-4.288-7.691h4.224l2.515 5.156z"/><path fill="#8E2ACF" fill-rule="evenodd" d="M17.548 29.664c2.627-.577 4.92-1.895 6.786-3.939l-3.864-4.352c-1.438 1.477-3.412 2.642-5.836 2.642-3.346 0-5.779-2.01-6.703-5.592.049.238.11.482.18.73 1.71 5.94 4.308 9.459 9.437 10.511z" clip-rule="evenodd"/><path fill="#E63114" fill-rule="evenodd" d="M17.548 29.663c-1.02.224-2.088.337-3.201.337C6.577 30 0 24.949 0 15.155 0 5.518 6.824 0 14.593 0c3.986 0 7.193 1.749 9.29 3.77L20.017 8.2c-1.52-1.32-3.124-2.254-5.302-2.254-3.946 0-7.193 3.342-7.193 8.977 0 1.293.14 2.462.408 3.501.049.238.11.48.18.73 1.71 5.939 4.308 9.458 9.437 10.51z" clip-rule="evenodd"/><path fill="#F69E00" fill-rule="evenodd" d="M8.338 10.482c1.205-2.905 3.62-4.537 6.378-4.537 2.178 0 3.781.933 5.302 2.254l3.864-4.43C21.786 1.748 18.58 0 14.593 0 6.823 0 0 5.518 0 15.155c0 2.284.358 4.31 1.005 6.073.187-4.977 2.382-7.807 7.287-10.72l.046-.026z" clip-rule="evenodd"/><path fill="#FFD02B" fill-rule="evenodd" d="M18.68 7.172c.46.302.903.649 1.338 1.027l3.864-4.43C21.786 1.748 18.58 0 14.593 0c-3.534 0-6.872 1.141-9.462 3.294a19.917 19.917 0 0 1 1.718-.073c4.487 0 8.604 1.48 11.83 3.95z" clip-rule="evenodd"/><defs><linearGradient id="paint0_linear" x1="29.663" x2="78.331" y1="21.639" y2="21.639" gradientUnits="userSpaceOnUse"><stop stop-color="#E63114"/><stop offset="1" stop-color="#8E2ACF"/></linearGradient><linearGradient id="paint1_linear" x1="29.663" x2="78.331" y1="21.639" y2="21.639" gradientUnits="userSpaceOnUse"><stop stop-color="#E63114"/><stop offset="1" stop-color="#8E2ACF"/></linearGradient><linearGradient id="paint2_linear" x1="29.663" x2="78.331" y1="21.639" y2="21.639" gradientUnits="userSpaceOnUse"><stop stop-color="#E63114"/><stop offset="1" stop-color="#8E2ACF"/></linearGradient><linearGradient id="paint3_linear" x1="29.663" x2="78.331" y1="21.639" y2="21.639" gradientUnits="userSpaceOnUse"><stop stop-color="#E63114"/><stop offset="1" stop-color="#8E2ACF"/></linearGradient></defs></svg>