<svg xmlns="http://www.w3.org/2000/svg" width="196" height="49" fill="none" viewBox="0 0 196 49"><path fill="#004576" d="M19.983 4h-5.965v5.926h5.965V4z"/><path fill="#0068C1" d="M25.924 14.667l-.012-6.151L20.168 4h-.185v10.667h5.94z"/><path fill="#004576" d="M19.983 24.74h-5.965v5.927h5.965V24.74z"/><path fill="#0068C1" d="M25.924 20l-.012 6.151-5.744 4.516h-.185V20h5.94zM13.833 4L8.089 8.516 8.065 20h.012l.012 6.151 5.744 4.516h.185V4h-.185z"/><path fill="#004576" d="M.43 20.471l5.535-4.145s.328-.338.328-.086v10.966l-5.61-3.653-.682-1.292v-.702s-.036-.738.429-1.088z"/><path fill="#0068C1" d="M.012 21.793v9.454c.006.8.4 1.547 1.047 2.021l14.545 10.605s.194.174.346.115c.152-.06.152-.071.152-.27v-8.835s.048-.344-.193-.572L1.069 23.286a2.52 2.52 0 0 1-.58-.599c-.193-.281-.432-.649-.459-.814-.047-.288-.023-.06-.023-.06"/><path fill="#004576" d="M33.57 20.471l-5.535-4.145s-.328-.338-.328-.086v10.966l5.607-3.653.683-1.292v-.702c.003 0 .039-.738-.426-1.088z"/><path fill="#0068C1" d="M33.988 21.793v9.454c-.006.8-.4 1.547-1.047 2.021L18.396 43.873s-.194.174-.346.115c-.152-.06-.152-.071-.152-.27v-8.835s-.048-.344.194-.572l14.84-11.025c.224-.166.42-.367.579-.599.194-.281.432-.649.46-.814.047-.288.023-.06.023-.06m33.11 3.917c.19-.228.532-.038.532.266v4.826c-2.622 2.242-5.814 3.23-9.462 3.23-8.284 0-13.224-5.776-13.224-15.01 0-9.462 5.852-15.048 13.68-15.048 3.724 0 6.422.684 8.778 2.774v4.788c0 .304-.342.494-.532.266-2.394-2.736-4.94-3.838-7.98-3.838-5.13 0-8.968 3.724-8.968 10.906 0 7.448 3.078 11.096 8.816 11.096 3.192 0 6.004-1.596 8.36-4.256zm15.062 8.322c-8.132 0-12.844-6.536-12.844-14.972 0-8.398 4.712-15.086 12.844-15.086 8.17 0 12.92 6.688 12.92 15.086 0 8.436-4.75 14.972-12.92 14.972zm0-4.028c5.244 0 7.98-4.484 7.98-10.982 0-6.498-2.736-11.02-7.98-11.02-5.206 0-7.904 4.522-7.904 11.02 0 6.498 2.698 10.982 7.904 10.982zm38.188-4.294c.19-.228.532-.038.532.266v4.826c-2.622 2.242-5.814 3.23-9.462 3.23-8.284 0-13.224-5.776-13.224-15.01 0-9.462 5.852-15.048 13.68-15.048 3.724 0 6.422.684 8.778 2.774v4.788c0 .304-.342.494-.532.266-2.394-2.736-4.94-3.838-7.98-3.838-5.13 0-8.968 3.724-8.968 10.906 0 7.448 3.078 11.096 8.816 11.096 3.192 0 6.004-1.596 8.36-4.256zm15.063 8.322c-8.132 0-12.844-6.536-12.844-14.972 0-8.398 4.712-15.086 12.844-15.086 8.17 0 12.92 6.688 12.92 15.086 0 8.436-4.75 14.972-12.92 14.972zm0-4.028c5.244 0 7.98-4.484 7.98-10.982 0-6.498-2.736-11.02-7.98-11.02-5.206 0-7.904 4.522-7.904 11.02 0 6.498 2.698 10.982 7.904 10.982zM46.976 46.36h-1v-5.344h-1.968v-.84h4.944v.84h-1.976v5.344zm2.697 0v-6.624h.992V42.4h.008c.28-.368.736-.664 1.288-.664 1 0 1.528.592 1.528 1.816v2.808h-.984v-2.856c0-.744-.296-1-.792-1-.584 0-1.056.52-1.056 1.4v2.456h-.984zm5.638-2.8h2.056v-.024c0-.688-.352-1.064-.936-1.064-.536 0-.992.416-1.12 1.08v.008zm2.76 1.48c.04-.04.112-.008.112.056v.792c-.304.368-.976.568-1.72.568-1.288 0-2.184-.88-2.184-2.344 0-1.4.888-2.384 2.16-2.384 1.272 0 1.96.832 1.96 2.272v.32h-3.144v.024c.048.88.56 1.32 1.32 1.32.568 0 1.096-.248 1.496-.624zm5.77-.8v-.528c0-.648-.432-1.176-1.016-1.176-.656 0-1.072.584-1.072 1.656 0 .96.44 1.328.992 1.328.688 0 1.096-.528 1.096-1.28zm-2.632 2.784c.472.336.896.488 1.336.488.944 0 1.296-.456 1.296-1.264v-.592h-.008c-.248.384-.712.64-1.232.64-1.168 0-1.872-.72-1.872-2.096 0-1.48.656-2.472 1.872-2.472.552 0 .936.248 1.192.584h.008l.056-.48h.96l.008 4.088c0 1.672-.672 2.384-2.232 2.384-.592 0-1.056-.112-1.496-.36v-.864c0-.064.064-.088.112-.056zm5.727-7.288v6.624h-.992v-6.624h.992zm2.805 6.696c-1.456 0-2.112-1.104-2.112-2.352 0-1.32.72-2.352 2.112-2.352 1.384 0 2.112 1.032 2.112 2.352 0 1.248-.664 2.352-2.112 2.352zm0-.792c.72 0 1.088-.48 1.088-1.56 0-1.104-.36-1.568-1.088-1.568-.72 0-1.088.464-1.088 1.568 0 1.08.376 1.56 1.088 1.56zm3.977-1.824v.72c0 .736.432 1.088 1 1.088.656 0 1.032-.536 1.032-1.632 0-.96-.368-1.48-.944-1.48-.6 0-1.088.552-1.088 1.304zm1.28-2.088c.952 0 1.752.712 1.752 2.256 0 1.632-.832 2.448-1.928 2.448-.464 0-.88-.2-1.096-.592h-.016l-.04.52h-.944v-6.624h.992v2.568h.008c.312-.4.792-.576 1.272-.576zm5 2.824v-.504l-.96.136c-.529.072-.84.376-.84.84 0 .416.255.616.68.616.567 0 1.12-.544 1.12-1.088zM77.74 43.12c-.048.04-.112.008-.112-.056V42.2a3.019 3.019 0 0 1 1.776-.544c1.072 0 1.552.512 1.552 1.64v3.064h-.88l-.048-.552h-.008c-.28.384-.776.648-1.32.648-.968 0-1.488-.496-1.488-1.352 0-.848.56-1.424 1.552-1.576l1.208-.2v-.04c0-.56-.176-.8-.728-.8-.488 0-.944.16-1.504.632zm5.437-3.384v6.624h-.992v-6.624h.992zm4.102 4.08v.72c0 .736.432 1.088 1 1.088.656 0 1.032-.536 1.032-1.632 0-.96-.368-1.48-.944-1.48-.6 0-1.088.552-1.088 1.304zm1.28-2.088c.952 0 1.752.712 1.752 2.256 0 1.632-.832 2.448-1.928 2.448-.464 0-.88-.2-1.096-.592h-.016l-.04.52h-.944v-6.624h.992v2.568h.008c.312-.4.792-.576 1.272-.576zm3.543-1.992v6.624h-.992v-6.624h.992zm2.805 6.696c-1.456 0-2.112-1.104-2.112-2.352 0-1.32.72-2.352 2.112-2.352 1.384 0 2.112 1.032 2.112 2.352 0 1.248-.664 2.352-2.112 2.352zm0-.792c.72 0 1.088-.48 1.088-1.56 0-1.104-.36-1.568-1.088-1.568-.72 0-1.088.464-1.088 1.568 0 1.08.376 1.56 1.088 1.56zm6.201-2.536a1.574 1.574 0 0 0-1.256-.56c-.856 0-1.272.68-1.272 1.576 0 .944.416 1.544 1.312 1.544.52 0 .912-.208 1.248-.608.04-.048.112-.024.112.04v.872c-.392.376-.832.504-1.408.504-1.352 0-2.296-.792-2.296-2.344 0-1.472.888-2.4 2.28-2.4.536 0 .992.144 1.392.472v.864c0 .064-.072.088-.112.04zm2.61.616v.016l2.12 2.624h-1.256l-1.464-2.048h-.008l-.184.192v1.856h-.992v-6.624h.992v3.632h.008l1.464-1.536h1.248l-1.928 1.888zm5.725-.616a1.574 1.574 0 0 0-1.256-.56c-.856 0-1.272.68-1.272 1.576 0 .944.416 1.544 1.312 1.544.52 0 .912-.208 1.248-.608.04-.048.112-.024.112.04v.872c-.392.376-.832.504-1.408.504-1.352 0-2.296-.792-2.296-2.344 0-1.472.888-2.4 2.28-2.4.536 0 .992.144 1.392.472v.864c0 .064-.072.088-.112.04zm.89 3.256v-6.624h.992V42.4h.008c.28-.368.736-.664 1.288-.664 1 0 1.528.592 1.528 1.816v2.808h-.984v-2.856c0-.744-.296-1-.792-1-.584 0-1.056.52-1.056 1.4v2.456h-.984zm7.279-1.808v-.504l-.96.136c-.528.072-.84.376-.84.84 0 .416.256.616.68.616.568 0 1.12-.544 1.12-1.088zm-2.256-1.432c-.048.04-.112.008-.112-.056V42.2a3.019 3.019 0 0 1 1.776-.544c1.072 0 1.552.512 1.552 1.64v3.064h-.88l-.048-.552h-.008c-.28.384-.776.648-1.32.648-.968 0-1.488-.496-1.488-1.352 0-.848.56-1.424 1.552-1.576l1.208-.2v-.04c0-.56-.176-.8-.728-.8-.488 0-.944.16-1.504.632zm5.335-1.288v4.528h-1v-4.528h1zm-1.128-1.24c0-.328.264-.616.624-.616.344 0 .64.288.64.616 0 .32-.296.608-.64.608a.622.622 0 0 1-.624-.608zm3.305 1.808h.008c.28-.368.736-.664 1.288-.664 1 0 1.528.592 1.528 1.816v2.808h-.984v-2.856c0-.744-.296-1-.792-1-.584 0-1.056.52-1.056 1.4v2.456h-.984v-4.528h.944l.048.568zm9.043.704a1.574 1.574 0 0 0-1.256-.56c-.856 0-1.272.68-1.272 1.576 0 .944.416 1.544 1.312 1.544.52 0 .912-.208 1.248-.608.04-.048.112-.024.112.04v.872c-.392.376-.832.504-1.408.504-1.352 0-2.296-.792-2.296-2.344 0-1.472.888-2.4 2.28-2.4.536 0 .992.144 1.392.472v.864c0 .064-.072.088-.112.04zm3.282-.32c-.184-.152-.32-.2-.616-.2-.448 0-.936.472-.936 1.312v2.464h-.992v-4.528h.968l.024.472c.208-.288.592-.568.992-.568.256 0 .48.024.672.152v.848a.065.065 0 0 1-.112.048zm2.031 3.408v-.032l-1.752-4.328h1.048l1.064 2.944.128.456.104-.456.968-2.944h1.024l-1.848 4.944c-.328.896-.736 1.528-1.664 1.528-.216 0-.408-.016-.608-.088v-.744c0-.064.048-.08.104-.048.12.064.28.096.488.096.288 0 .528-.112.68-.552l.264-.776zm4.178-1.704c0 .752.408 1.16 1.096 1.16.584 0 .976-.664.976-1.624 0-1.104-.368-1.488-1.024-1.488-.584 0-1.048.648-1.048 1.296v.656zm.016 1.36v2.432h-.992v-6.448h.984l.032.464h.008c.272-.344.648-.568 1.2-.568 1.216 0 1.848.824 1.848 2.256 0 1.376-.672 2.448-1.92 2.448-.512 0-.912-.256-1.144-.584h-.016zm6.047-.432c.048-.04.112-.016.112.048v.704c-.24.192-.6.28-.96.28-.8-.008-1.144-.384-1.144-1.16v-2.696h-.712v-.76h.712v-1.056h.976v1.056h1.104v.76h-1.104v2.6c0 .312.112.44.368.44.272 0 .472-.08.648-.216zm2.596 1.016c-1.456 0-2.112-1.104-2.112-2.352 0-1.32.72-2.352 2.112-2.352 1.384 0 2.112 1.032 2.112 2.352 0 1.248-.664 2.352-2.112 2.352zm0-.792c.72 0 1.088-.48 1.088-1.56 0-1.104-.36-1.568-1.088-1.568-.72 0-1.088.464-1.088 1.568 0 1.08.376 1.56 1.088 1.56zm7.342-1.088v-.504l-.96.136c-.528.072-.84.376-.84.84 0 .416.256.616.68.616.568 0 1.12-.544 1.12-1.088zm-2.256-1.432c-.048.04-.112.008-.112-.056V42.2a3.019 3.019 0 0 1 1.776-.544c1.072 0 1.552.512 1.552 1.64v3.064h-.88l-.048-.552h-.008c-.28.384-.776.648-1.32.648-.968 0-1.488-.496-1.488-1.352 0-.848.56-1.424 1.552-1.576l1.208-.2v-.04c0-.56-.176-.8-.728-.8-.488 0-.944.16-1.504.632zm7.02-.016c-.512-.408-.912-.608-1.408-.608-.392 0-.552.16-.552.448 0 .328.208.432.512.552l.512.224c.664.288 1.224.608 1.224 1.352 0 .856-.76 1.4-1.744 1.4-.552 0-1.144-.128-1.648-.504v-.84c0-.064.064-.088.112-.056.472.376 1.016.6 1.504.6.52 0 .752-.184.752-.536 0-.232-.176-.4-.576-.576l-.456-.2c-.784-.352-1.208-.664-1.208-1.4 0-.704.608-1.232 1.608-1.232.488 0 .976.12 1.48.48v.84c0 .064-.064.088-.112.056zm3.918 0c-.512-.408-.912-.608-1.408-.608-.392 0-.552.16-.552.448 0 .328.208.432.512.552l.512.224c.664.288 1.224.608 1.224 1.352 0 .856-.76 1.4-1.744 1.4-.552 0-1.144-.128-1.648-.504v-.84c0-.064.064-.088.112-.056.472.376 1.016.6 1.504.6.52 0 .752-.184.752-.536 0-.232-.176-.4-.576-.576l-.456-.2c-.784-.352-1.208-.664-1.208-1.4 0-.704.608-1.232 1.608-1.232.488 0 .976.12 1.48.48v.84c0 .064-.064.088-.112.056zm1.861.456h2.056v-.024c0-.688-.352-1.064-.936-1.064-.536 0-.992.416-1.12 1.08v.008zm2.76 1.48c.04-.04.112-.008.112.056v.792c-.304.368-.976.568-1.72.568-1.288 0-2.184-.88-2.184-2.344 0-1.4.888-2.384 2.16-2.384 1.272 0 1.96.832 1.96 2.272v.32h-3.144v.024c.048.88.56 1.32 1.32 1.32.568 0 1.096-.248 1.496-.624zm3.301.376c.048-.04.112-.016.112.048v.704c-.24.192-.6.28-.96.28-.8-.008-1.144-.384-1.144-1.16v-2.696h-.712v-.76h.712v-1.056h.976v1.056h1.104v.76h-1.104v2.6c0 .312.112.44.368.44.272 0 .472-.08.648-.216zm3.76-1.6v.72c0 .736.432 1.088 1 1.088.656 0 1.032-.536 1.032-1.632 0-.96-.368-1.48-.944-1.48-.6 0-1.088.552-1.088 1.304zm1.28-2.088c.952 0 1.752.712 1.752 2.256 0 1.632-.832 2.448-1.928 2.448-.464 0-.88-.2-1.096-.592h-.016l-.04.52h-.944v-6.624h.992v2.568h.008c.312-.4.792-.576 1.272-.576zm4.999 2.824v-.504l-.96.136c-.528.072-.84.376-.84.84 0 .416.256.616.68.616.568 0 1.12-.544 1.12-1.088zm-2.256-1.432c-.048.04-.112.008-.112-.056V42.2a3.019 3.019 0 0 1 1.776-.544c1.072 0 1.552.512 1.552 1.64v3.064h-.88l-.048-.552h-.008c-.28.384-.776.648-1.32.648-.968 0-1.488-.496-1.488-1.352 0-.848.56-1.424 1.552-1.576l1.208-.2v-.04c0-.56-.176-.8-.728-.8-.488 0-.944.16-1.504.632zm5.134-.72h.008c.28-.368.736-.664 1.288-.664 1 0 1.528.592 1.528 1.816v2.808h-.984v-2.856c0-.744-.296-1-.792-1-.584 0-1.056.52-1.056 1.4v2.456h-.984v-4.528h.944l.048.568zm5.622 1.32v.016l2.12 2.624h-1.256l-1.464-2.048h-.008l-.184.192v1.856h-.992v-6.624h.992v3.632h.008l1.464-1.536h1.248l-1.928 1.888z"/><path fill="#004576" d="M171.325 4.336v3.99h-13.072v7.6h12.54v3.952h-12.54V33.71h-4.788V4.336h17.86zm15.151 14.516l9.272 14.858h-5.244l-6.46-11.02h-.076l-6.46 11.02h-5.244l9.31-14.668v-.076l-9.12-14.63h5.206l6.346 10.754h.076l6.232-10.754h5.206l-9.044 14.44v.076z"/></svg>