<svg width="200" height="200" viewBox="0 0 200 200" fill="none" xmlns="http://www.w3.org/2000/svg"><circle cx="100" cy="100" r="100" fill="#fff"/><path d="M109.589 32H89.414v20.044h20.175V32z" fill="#004576"/><path d="M129.683 68.078l-.04-20.805L110.214 32h-.625v36.078h20.094z" fill="#0068C1"/><path d="M109.589 102.152H89.414v20.044h20.175v-20.044z" fill="#004576"/><path d="M129.683 86.118l-.04 20.805-19.429 15.273h-.625V86.118h20.094zM88.788 32L69.36 47.273l-.081 38.845h.04l.04 20.805 19.43 15.273h.624V32h-.625z" fill="#0068C1"/><path d="M43.455 87.711l18.722-14.02s1.11-1.143 1.11-.29v37.09L44.312 98.134l-2.31-4.37V91.39s-.12-2.495 1.453-3.678z" fill="#004576"/><path d="M42.042 92.18v31.98c.02 2.706 1.352 5.232 3.541 6.835l49.197 35.868s.656.591 1.17.391c.515-.2.515-.241.515-.912v-29.885s.161-1.163-.656-1.934L45.613 97.232a8.507 8.507 0 0 1-1.957-2.025c-.655-.952-1.462-2.194-1.553-2.756-.162-.972-.08-.2-.08-.2" fill="#0068C1"/><path d="M155.547 87.711l-18.722-14.02s-1.11-1.143-1.11-.29v37.09l18.965-12.357 2.31-4.37V91.39c.01 0 .131-2.495-1.443-3.678z" fill="#004576"/><path d="M156.96 92.18v31.98c-.02 2.706-1.352 5.232-3.541 6.835l-49.197 35.868s-.656.591-1.17.391c-.515-.2-.515-.241-.515-.912v-29.885s-.161-1.163.656-1.934l50.196-37.291a8.525 8.525 0 0 0 1.957-2.025c.655-.952 1.462-2.194 1.553-2.756.162-.972.081-.2.081-.2" fill="#0068C1"/></svg>