<svg width="40" height="40" viewBox="0 0 40 40" fill="none" xmlns="http://www.w3.org/2000/svg"><path d="M20 40c11.046 0 20-8.954 20-20S31.046 0 20 0 0 8.954 0 20s8.954 20 20 20z" fill="#999"/><path d="M18.098 24.386h2.547c0-2.08.338-3.536 2.652-5.122 1.898-1.352 2.886-2.886 2.886-4.758 0-3.25-2.392-5.694-6.604-5.694-3.978 0-6.681 2.782-6.76 6.11h2.652c.079-1.794 1.43-3.744 4.134-3.744 2.497 0 3.953 1.326 3.953 3.328 0 1.43-.858 2.392-2.6 3.64-2.236 1.534-2.86 3.224-2.86 6.24zm1.326 6.188c1.091 0 1.924-.832 1.924-1.924 0-1.066-.832-1.898-1.924-1.898a1.876 1.876 0 0 0-1.898 1.898c0 1.092.832 1.924 1.898 1.924z" fill="#fff"/></svg>