<svg width="70" height="14" viewBox="0 0 70 14" fill="none" xmlns="http://www.w3.org/2000/svg">
<path d="M69.895 6.46733C69.8283 6.29565 69.7284 6.1388 69.6009 6.00579L63.9998 0.411322C63.8692 0.280917 63.7142 0.177474 63.5436 0.106899C63.3731 0.0363247 63.1902 0 63.0056 0C62.6327 0 62.2751 0.147957 62.0114 0.411322C61.7477 0.674686 61.5996 1.03189 61.5996 1.40434C61.5996 1.77679 61.7477 2.13399 62.0114 2.39736L65.232 5.60019H4.76797L7.98861 2.39736C8.11917 2.26695 8.22274 2.11214 8.2934 1.94176C8.36406 1.77138 8.40042 1.58876 8.40042 1.40434C8.40042 1.21992 8.36406 1.0373 8.2934 0.866922C8.22274 0.69654 8.11917 0.541727 7.98861 0.411322C7.85805 0.280917 7.70306 0.177474 7.53247 0.106899C7.36189 0.0363247 7.17905 -1.37404e-09 6.99441 0C6.80977 1.37404e-09 6.62694 0.0363247 6.45636 0.106899C6.28577 0.177474 6.13078 0.280917 6.00022 0.411322L0.399099 6.00579C0.271616 6.1388 0.171685 6.29565 0.10504 6.46733C-0.0350133 6.80784 -0.0350133 7.18977 0.10504 7.53028C0.171685 7.70196 0.271616 7.85881 0.399099 7.99182L6.00022 13.5863C6.13039 13.7174 6.28526 13.8214 6.4559 13.8924C6.62654 13.9634 6.80956 14 6.99441 14C7.17927 14 7.36229 13.9634 7.53293 13.8924C7.70357 13.8214 7.85844 13.7174 7.98861 13.5863C8.11986 13.4563 8.22403 13.3016 8.29512 13.1311C8.36621 12.9607 8.40281 12.7779 8.40281 12.5933C8.40281 12.4086 8.36621 12.2258 8.29512 12.0554C8.22403 11.885 8.11986 11.7303 7.98861 11.6003L4.76797 8.39742H65.232L62.0114 11.6003C61.8801 11.7303 61.776 11.885 61.7049 12.0554C61.6338 12.2258 61.5972 12.4086 61.5972 12.5933C61.5972 12.7779 61.6338 12.9607 61.7049 13.1311C61.776 13.3016 61.8801 13.4563 62.0114 13.5863C62.1416 13.7174 62.2964 13.8214 62.4671 13.8924C62.6377 13.9634 62.8207 14 63.0056 14C63.1904 14 63.3735 13.9634 63.5441 13.8924C63.7147 13.8214 63.8696 13.7174 63.9998 13.5863L69.6009 7.99182C69.7284 7.85881 69.8283 7.70196 69.895 7.53028C70.035 7.18977 70.035 6.80784 69.895 6.46733Z" fill="black"/>
</svg>
