<svg width="25" height="25" viewBox="0 0 25 25" fill="none" xmlns="http://www.w3.org/2000/svg"><path d="M25 12.5C25 19.404 19.404 25 12.5 25 5.597 25 0 19.404 0 12.5 0 5.597 5.597 0 12.5 0 19.404 0 25 5.597 25 12.5z" fill="#FFCC4D"/><path d="M12.5 15.173c-2.06 0-3.427-.24-5.117-.569-.387-.073-1.138 0-1.138 1.138 0 2.274 2.613 5.117 6.255 5.117s6.255-2.843 6.255-5.117c0-1.138-.752-1.212-1.138-1.138-1.69.329-3.057.569-5.117.569z" fill="#664500"/><path d="M11.563 2.278a3.24 3.24 0 1 0-6.17.176A3.24 3.24 0 0 0 .481 6.189c.084.24.197.46.327.665 1.355 2.488 5.27 4.237 7.64 4.258 1.831-1.505 3.782-5.323 3.276-8.109a3.275 3.275 0 0 0-.162-.724zm1.874 0a3.242 3.242 0 1 1 6.17.176 3.24 3.24 0 0 1 4.914 3.734c-.086.24-.197.46-.329.665-1.355 2.488-5.27 4.237-7.64 4.258-1.831-1.505-3.781-5.323-3.276-8.109.026-.242.078-.485.162-.724z" fill="#DD2E44"/></svg>