<svg xmlns="http://www.w3.org/2000/svg" width="75.523" height="77.795" viewBox="0 0 75.523 77.795"><defs><style>.cls-2{fill:none;stroke:#000;stroke-linecap:round;stroke-width:2px;stroke-linejoin:round}</style></defs><g id="그룹_1518" transform="translate(-240.742 -135.041)"><g id="그룹_1516" transform="translate(243.401 139.972)"><path id="패스_6371" fill="none" stroke="#000" stroke-linecap="round" stroke-width="2" d="M17.851 17.874a25.261 25.261 0 1 1 0 35.703 25.3 25.3 0 0 1 0-35.703z"/><ellipse id="타원_48" cx="13.696" cy="25.233" class="cls-2" rx="13.696" ry="25.233" transform="translate(22.029 10.491)"/><path id="패스_6359" d="M258.331 187.118c4.209-3.8 11.045-6.276 18.763-6.276s14.556 2.473 18.765 6.276" class="cls-2" transform="translate(-241.37 -134.475)"/><path id="패스_6360" d="M258.331 156.315c4.209 3.8 11.045 6.276 18.763 6.276s14.556-2.474 18.765-6.277" class="cls-2" transform="translate(-241.37 -137.508)"/><path id="선_115" d="M0 0h50.553" class="cls-2" transform="translate(10.448 35.725)"/><path id="선_116" d="M0 50.467V0" class="cls-2" transform="translate(35.725 10.491)"/></g><g id="그룹_1517" transform="translate(242.097 136.421)"><path id="패스_6361" d="M243.719 173.443c.929-21.357 21.665-38.124 44.036-32.13" class="cls-2" transform="translate(-241.895 -135.962)"/><path id="패스_6362" d="M297.1 199.9c-19.2 12.113-46.057 2.706-52.315-20.65" class="cls-2" transform="translate(-241.762 -131.148)"/><path id="패스_6363" d="M291.277 144.792c18.368 11.329 22.7 37.9 6.207 54.366" class="cls-2" transform="translate(-235.945 -135.374)"/><path id="패스_6364" d="M280.107 136.421l3.4 5.351-5.845 3.286" class="cls-2" transform="translate(-237.648 -136.421)"/><path id="패스_6365" d="M303.132 193.763l-6.338.171.181-6.7" class="cls-2" transform="translate(-235.254 -130.15)"/><path id="패스_6366" d="M242.1 184.826l3.021-5.574 5.714 3.508" class="cls-2" transform="translate(-242.097 -131.123)"/></g></g></svg>