<svg width="40" height="40" viewBox="0 0 40 40" fill="none" xmlns="http://www.w3.org/2000/svg">
<path d="M31.6668 11.6667H30.0002V10C30.0002 8.67392 29.4734 7.40215 28.5357 6.46447C27.598 5.52678 26.3262 5 25.0002 5H8.3335C7.00741 5 5.73564 5.52678 4.79796 6.46447C3.86028 7.40215 3.3335 8.67392 3.3335 10V30C3.3335 31.3261 3.86028 32.5979 4.79796 33.5355C5.73564 34.4732 7.00741 35 8.3335 35H31.6668C32.9929 35 34.2647 34.4732 35.2024 33.5355C36.14 32.5979 36.6668 31.3261 36.6668 30V16.6667C36.6668 15.3406 36.14 14.0688 35.2024 13.1311C34.2647 12.1935 32.9929 11.6667 31.6668 11.6667ZM8.3335 8.33333H25.0002C25.4422 8.33333 25.8661 8.50893 26.1787 8.82149C26.4912 9.13405 26.6668 9.55797 26.6668 10V11.6667H8.3335C7.89147 11.6667 7.46755 11.4911 7.15499 11.1785C6.84242 10.866 6.66683 10.442 6.66683 10C6.66683 9.55797 6.84242 9.13405 7.15499 8.82149C7.46755 8.50893 7.89147 8.33333 8.3335 8.33333ZM33.3335 25H31.6668C31.2248 25 30.8009 24.8244 30.4883 24.5118C30.1758 24.1993 30.0002 23.7754 30.0002 23.3333C30.0002 22.8913 30.1758 22.4674 30.4883 22.1548C30.8009 21.8423 31.2248 21.6667 31.6668 21.6667H33.3335V25ZM33.3335 18.3333H31.6668C30.3407 18.3333 29.069 18.8601 28.1313 19.7978C27.1936 20.7355 26.6668 22.0072 26.6668 23.3333C26.6668 24.6594 27.1936 25.9312 28.1313 26.8689C29.069 27.8065 30.3407 28.3333 31.6668 28.3333H33.3335V30C33.3335 30.442 33.1579 30.866 32.8453 31.1785C32.5328 31.4911 32.1089 31.6667 31.6668 31.6667H8.3335C7.89147 31.6667 7.46755 31.4911 7.15499 31.1785C6.84242 30.866 6.66683 30.442 6.66683 30V14.7167C7.20228 14.905 7.76589 15.0008 8.3335 15H31.6668C32.1089 15 32.5328 15.1756 32.8453 15.4882C33.1579 15.8007 33.3335 16.2246 33.3335 16.6667V18.3333Z" fill="black"/>
</svg>
