<svg xmlns="http://www.w3.org/2000/svg" width="83.557" height="75" viewBox="0 0 83.557 75"><path d="M48.421 75a35.147 35.147 0 0 1-30.995-18.427c-.379-.7-.478-1.243.23-1.619s1.115.126 1.5.83a33.911 33.911 0 0 0 29.265 17.267c17.768 0 33.015-15.281 33.015-32.909S66.191 7.38 48.421 7.38a33.887 33.887 0 0 0-29.269 17.228 1.161 1.161 0 0 1-1.263.169.992.992 0 0 1-.458-1.073 35.058 35.058 0 1 1 30.991 51.3z"/><path d="M22.297 33.028H9.065c-.8 0-1.4-.311-1.4-1.115s.6-1.125 1.4-1.125h13.232c.8 0 1.186.355 1.265.962a1.215 1.215 0 0 1-1.265 1.278zm39.881-13.374a25.071 25.071 0 0 0-27.628 0s-.94.259-1.4-.306 0-1.5 0-1.5a27.149 27.149 0 0 1 30.393 0 1.127 1.127 0 0 1 .253 1.659c-.343.453-1.369.321-1.618.147zm-8.526 17.573a1.3 1.3 0 0 1-.944-.412 1.481 1.481 0 0 1-.008-2.009l9.752-10.422a1.291 1.291 0 0 1 1.9-.009 1.481 1.481 0 0 1 .008 2.009l-9.755 10.421a1.3 1.3 0 0 1-.953.422z"/><path d="M48.432 47.739a7.582 7.582 0 1 1 7.582-7.582 7.59 7.59 0 0 1-7.582 7.582zm0-12.832c-2.575 0-5.406 2.675-5.406 5.25s2.83 5.354 5.406 5.354a5.921 5.921 0 0 0 5.345-5.354 5.82 5.82 0 0 0-5.345-5.246zm2.501-32.548h-5.294a1.206 1.206 0 1 1 0-2.359h5.294a1.206 1.206 0 1 1 0 2.359z"/><path d="M48.442 6.983a1.271 1.271 0 0 1-1.3-1.239v-4.5a1.3 1.3 0 0 1 2.6 0v4.5a1.271 1.271 0 0 1-1.3 1.239zm24.067 3.12a1.364 1.364 0 0 1-.716-.2l-4.017-2.458a1.2 1.2 0 0 1-.387-1.717 1.366 1.366 0 0 1 1.822-.365l4.017 2.458a1.2 1.2 0 0 1 .387 1.717 1.338 1.338 0 0 1-1.106.565z"/><path d="M67.951 12.921a1.2 1.2 0 0 1-.667-.2 1.266 1.266 0 0 1-.36-1.73l2.429-3.816a1.212 1.212 0 0 1 1.7-.368 1.266 1.266 0 0 1 .36 1.73l-2.429 3.816a1.219 1.219 0 0 1-1.033.568zm-43.816-2.398c-.476 0-.7.007-.975-.422a1.155 1.155 0 0 1 .4-1.746L28 5.472a1.413 1.413 0 0 1 1.848.194 1.091 1.091 0 0 1-.3 1.653l-4.624 2.97a1.448 1.448 0 0 1-.789.234z"/><path d="M29.341 12.99a1.454 1.454 0 0 1-1.222-.663l-2.618-3.962c-.438-.675-.392-1.015.282-1.453a1.456 1.456 0 0 1 2.014.428l2.618 3.962c.438.675.392 1.015-.282 1.453a1.448 1.448 0 0 1-.792.235zM14.632 41.721H1.4c-.8 0-1.4-.311-1.4-1.115s.6-1.125 1.4-1.125h13.232c.8 0 1.186.355 1.265.962a1.215 1.215 0 0 1-1.265 1.278zm7.665 7.607H9.065c-.8 0-1.4-.311-1.4-1.115s.6-1.125 1.4-1.125h13.232c.8 0 1.186.355 1.265.962a1.215 1.215 0 0 1-1.265 1.278z"/></svg>