<svg xmlns="http://www.w3.org/2000/svg" width="66.397" height="75" viewBox="0 0 66.397 75"><path d="M33.199 74.999a1.293 1.293 0 0 1-.572-.134C-3.71 56.819.091 14.081.133 13.652a1.289 1.289 0 0 1 1.185-1.158c.193-.015 19.468-1.606 31.012-12.157a1.289 1.289 0 0 1 1.739 0c11.558 10.567 30.818 12.142 31.012 12.157a1.288 1.288 0 0 1 1.184 1.158c.042.429 3.841 43.167-32.494 61.213a1.289 1.289 0 0 1-.572.134zM2.136 14.514c-.311 6.5-1.532 41.757 31.063 58.708 32.817-17.526 31.505-52.207 31.189-58.708-4.311-.483-20.5-3.119-31.189-12.259-10.692 9.138-26.75 11.776-31.063 12.257z"/><path d="M33.199 64.785a1.272 1.272 0 0 1-.6-.151C8.12 51.573 9.081 20.721 9.099 20.411a1.277 1.277 0 0 1 1.178-1.222c.137-.011 13.868-1.146 22.066-8.637a1.277 1.277 0 0 1 1.724 0c8.19 7.49 21.921 8.625 22.058 8.637a1.28 1.28 0 0 1 1.179 1.217c.014.312 1.082 31.356-23.507 44.233a1.279 1.279 0 0 1-.598.146zM11.048 21.17c.088 5.412-.1 28.2 22.151 41.677 20-9.969 22.4-36.253 22.465-41.677-3.522-.429-15-2.31-22.46-8.543-7.465 6.231-18.63 8.113-22.158 8.544z"/><path d="M33.199 50.404a13.717 13.717 0 1 1 13.715-13.717 13.735 13.735 0 0 1-13.715 13.717zm0-25.723c-6.11 0-12.2 5.9-12.2 12.005s6.087 12.32 12.2 12.32 12.325-6.212 12.325-12.32-6.218-12.005-12.325-12.005z"/><path d="M31.418 41.753a1.331 1.331 0 0 1-.911-.363l-3.185-3.035c-.529-.5-.309-1.349.179-1.454s1.244.536 1.77 1.035l2.2 2.1 5.84-6.523c.488-.544 1.09-1.044 1.549-.977a.717.717 0 0 1 .289 1.245l-6.748 7.536a1.324 1.324 0 0 1-.931.438z"/></svg>