<svg xmlns="http://www.w3.org/2000/svg" xmlns:xlink="http://www.w3.org/1999/xlink" width="9" height="7" viewBox="0 0 9 7"><defs><path id="b" d="M0 .005h8.993v3.87H0z"/><path id="d" d="M0 0h8.993v3.889H0z"/><filter id="a"><feColorMatrix in="SourceGraphic" values="0 0 0 0 0.600000 0 0 0 0 0.600000 0 0 0 0 0.600000 0 0 0 1.000000 0"/></filter></defs><g fill="none" fill-rule="evenodd" filter="url(#a)" transform="translate(-1275 -302)"><g transform="translate(1275 302)"><mask id="c" fill="#fff"><use xlink:href="#b"/></mask><path fill="#000" d="M.16 2.644h6.906v1.055c0 .048.016.089.048.124s.07.052.113.052a.145.145 0 0 0 .115-.05l1.606-1.758a.181.181 0 0 0 .045-.127.18.18 0 0 0-.045-.126L7.348.06a.185.185 0 0 0-.121-.055.15.15 0 0 0-.116.05.18.18 0 0 0-.045.126v1.056H.161a.145.145 0 0 0-.113.052.177.177 0 0 0-.048.124v1.055c0 .048.016.089.048.124a.15.15 0 0 0 .113.052" mask="url(#c)"/><g transform="translate(0 3.111)"><mask id="e" fill="#fff"><use xlink:href="#d"/></mask><path fill="#000" d="M8.833 1.238H1.927V.177a.175.175 0 0 0-.048-.124A.146.146 0 0 0 1.767 0a.153.153 0 0 0-.117.05L.045 1.817A.185.185 0 0 0 0 1.945c0 .047.015.088.045.121l1.601 1.768c.04.037.08.055.12.055a.149.149 0 0 0 .113-.052.181.181 0 0 0 .048-.125v-1.06h6.906c.043 0 .08-.018.113-.053a.176.176 0 0 0 .047-.124v-1.06c0-.049-.015-.09-.047-.125s-.07-.052-.113-.052" mask="url(#e)"/></g></g></g></svg>