<svg width="36" height="26" viewBox="0 0 36 26" fill="none" xmlns="http://www.w3.org/2000/svg"><path d="M36 22a4 4 0 0 1-4 4H4a4 4 0 0 1-4-4V4a4 4 0 0 1 4-4h28a4 4 0 0 1 4 4v18z" fill="#EEE"/><path d="M21.441 8.085a6 6 0 0 0-8.356 1.474A3.001 3.001 0 0 0 18 13a3 3 0 0 1 4.915 3.442 6 6 0 0 0-1.474-8.357z" fill="#C60C30"/><path d="M22.178 12.264A3 3 0 0 0 18 13a3.001 3.001 0 0 1-4.915-3.442 6 6 0 1 0 9.829 6.882 2.997 2.997 0 0 0-.736-4.176z" fill="#003478"/><path d="M24.334 20.572l1.928-2.298.766.643-1.928 2.298-.766-.643zm2.57-3.063l1.928-2.297.766.643-1.928 2.297-.766-.643zm-1.038 4.351l1.928-2.297.766.643-1.928 2.297-.766-.643zm2.572-3.066l1.93-2.297.766.644-1.93 2.296-.766-.643zm-1.041 4.352l1.93-2.297.765.643-1.929 2.297-.766-.643zm2.571-3.065l1.927-2.3.767.643-1.927 2.3-.767-.643zm.004-14.162l.766-.643 1.93 2.299-.767.643-1.929-2.299zM27.4 2.853l.766-.643 1.928 2.299-.767.642L27.4 2.853zm-1.533 1.288l.766-.643 4.5 5.362-.766.643-4.5-5.362zm-1.532 1.284l.767-.643 1.927 2.298-.766.642-1.928-2.297zm2.57 3.065l.766-.643 1.93 2.297-.765.643-1.931-2.297zM6.4 15.854l.766-.643 4.499 5.363-.767.643L6.4 15.854zM4.87 17.14l.765-.642 1.929 2.298-.767.643L4.87 17.14zm2.567 3.066l.766-.643 1.93 2.297-.766.643-1.93-2.297zm-4.101-1.781l.766-.643 4.5 5.362-.767.643-4.499-5.362zM3.335 7.573l4.498-5.362.767.642-4.5 5.363-.765-.643zM4.867 8.86l4.5-5.363.766.643-4.5 5.362-.766-.642zM6.4 10.145l4.5-5.363.766.643-4.5 5.363-.766-.643z" fill="#292F33"/></svg>