<svg xmlns="http://www.w3.org/2000/svg" width="220" height="348" fill="none" viewBox="0 0 220 348"><path fill="#fff" stroke="#000" d="M.5.5h219v347H.5z"/><path fill="#000" d="M16.873 48.315h1.199v-.39h-1.199V47.1h-.494v.823h-1.216v.391h1.222v.41c0 .918-.578 1.824-1.373 2.197l.277.374c.614-.297 1.114-.913 1.343-1.653.241.699.741 1.273 1.355 1.552l.272-.373c-.796-.35-1.386-1.215-1.386-2.098v-.409zM18.963 47v2.139h-1.168v.397h1.168v2.797h.494V47h-.494zm4.023.124c-1.168 0-1.897.374-1.897 1.008 0 .628.729 1.001 1.897 1.001 1.169 0 1.898-.373 1.898-1.001 0-.634-.73-1.008-1.898-1.008zm0 .386c.855 0 1.392.23 1.392.622 0 .39-.537.622-1.392.622-.855 0-1.391-.231-1.391-.622s.536-.622 1.391-.622zm-1.837 2.992v1.748h3.686v-1.748H21.15zm3.204.385v.972h-2.722v-.972h2.722zm-3.806-1.298v.391h4.885v-.39h-4.885zm7.456-2.121h-.488v.954c0 1.007-.656 2.026-1.451 2.4l.3.397c.633-.32 1.151-.984 1.398-1.784.259.759.777 1.387 1.391 1.683l.296-.391c-.802-.356-1.446-1.333-1.446-2.305v-.954zm2.012-.462v5.327h.494v-5.327h-.494zm4.751 2.601c-.795-.267-1.313-.924-1.313-1.63v-.207h1.193v-.39h-2.897v.39h1.21v.214c0 .758-.542 1.445-1.355 1.724l.26.385c.632-.231 1.12-.7 1.348-1.292.235.545.7.978 1.301 1.185l.253-.379zm-2.463 1.28h3.024v1.44h.494v-1.831h-3.518v.39zm4.319-2.483h-.801v-1.392h-.494v3.2h.494v-1.405h.8v-.403zm2.131 2.329c-.488 0-.843-.344-.843-.818 0-.48.355-.823.843-.823.494 0 .85.343.85.823 0 .474-.356.818-.85.818zm0-2.044c-.759 0-1.307.51-1.307 1.226 0 .723.548 1.22 1.307 1.22.771 0 1.32-.497 1.32-1.22 0-.717-.549-1.226-1.32-1.226zm.241-1.618H38.5v.788h-1.36v.391h3.185v-.39h-1.33v-.789zm3.223 2.121h-.886v-2.18h-.494v5.309h.494V49.6h.886v-.409zm.728-1.612v.392h1.97c-.09 1.244-.76 2.257-2.211 2.956l.271.38c1.795-.871 2.433-2.216 2.433-3.727h-2.463zm3.716-.568v2.127h-1.265v.397h1.265v2.785h.494v-5.31h-.494zm2.295.509h-.488v3.455h.427c.825 0 1.65-.06 2.572-.243l-.06-.403c-.873.172-1.675.237-2.451.237V47.52zm4.318 1.606h-.867v-2.121h-.494v5.315h.494V49.53h.867v-.403zm2.476 1.103c.867-.155 1.644-.581 1.987-1.233.337.651 1.114 1.078 1.982 1.232l.192-.385c-1.048-.166-1.927-.788-1.927-1.606h1.735v-.39h-1.735v-.724h-.5v.723h-1.74v.391h1.74c0 .818-.88 1.44-1.927 1.606l.192.385zm2.234 1.018V50.04h-.5v1.208h-2.198v.403h4.902v-.403h-2.204zm3.162-3.668v.392h2.03c-.103 1.262-.826 2.28-2.277 2.962l.265.397c1.794-.865 2.511-2.216 2.511-3.75h-2.53zm3.62-.574v5.315h.493v-5.315h-.493zm4.86.646h-1.362v-.64h-.493v.64h-1.374v.385h3.229v-.385zm-2.416 1.682c0-.367.326-.61.808-.61.481 0 .807.243.807.61 0 .368-.326.605-.808.605-.481 0-.807-.237-.807-.605zm1.054.972c.62-.077 1.03-.444 1.03-.971 0-.599-.524-.984-1.276-.984-.753 0-1.277.385-1.277.983 0 .528.41.895 1.03.972v.58c-.525.019-1.03.019-1.464.019l.066.408c.946 0 2.217-.011 3.373-.213l-.03-.361c-.464.07-.964.106-1.452.13v-.563zm3.108-1.043h-.843v-2.257h-.494v5.315h.494v-2.649h.843v-.409zm2.451-1.795h-.488v.954c0 1.007-.656 2.026-1.451 2.4l.301.397c.632-.32 1.15-.984 1.397-1.784.26.759.777 1.387 1.392 1.683l.295-.391c-.801-.356-1.446-1.333-1.446-2.305v-.954zm2.012-.462v5.327h.494v-5.327h-.494zm5.95 4.876H78.98v-.384l1.483-1.62c.22-.246.37-.444.453-.597a.984.984 0 0 0 .126-.477.75.75 0 0 0-.203-.541.718.718 0 0 0-.541-.211c-.27 0-.481.076-.632.228-.15.15-.224.361-.224.631h-.544c0-.388.126-.701.38-.94.254-.24.594-.359 1.02-.359.398 0 .713.103.944.31.231.204.347.477.347.818 0 .415-.269.909-.806 1.482l-1.147 1.223h2.15v.437zm2.873-1.414h.594v.436h-.594v.978h-.547v-.978h-1.95v-.315l1.918-2.92h.58v2.799zm-1.879 0h1.332v-2.066l-.064.116-1.268 1.95zm3.133-2.775v.397h1.62c-.072 1.102-.584 2.062-1.825 2.743l.29.35c1.535-.853 2.023-2.121 2.023-3.49h-2.108zm3.903-.687v2.139h-.735v-1.997h-.464v4.906h.464v-2.512h.735v2.779h.476v-5.315h-.476zm3.185.391c-.837 0-1.445.504-1.445 1.25 0 .74.608 1.25 1.445 1.25.844 0 1.446-.51 1.446-1.25 0-.746-.602-1.25-1.445-1.25zm0 .415c.56 0 .964.338.964.835 0 .492-.403.836-.963.836-.56 0-.964-.344-.964-.836 0-.497.403-.835.963-.835zm2.157-.806v5.327h.494v-5.327h-.494zm-3.813 4.16c.976 0 2.283-.007 3.5-.232l-.043-.361c-1.18.178-2.535.184-3.517.184l.06.408zm10.065-1.832c-.705.137-1.319.178-2.386.178V47.86h1.898v-.39h-2.392v2.44h.422c1.132 0 1.771-.035 2.512-.183l-.054-.392zm-1.801 1.132h-.494v1.736h3.602v-.397h-3.108v-1.339zm2.867-1.884v-1.576h-.494v3.845h.494v-1.866h.801v-.403h-.801zm2.794 2.109c-.518 0-.879-.557-.879-1.422 0-.859.361-1.416.879-1.416.512 0 .873.557.873 1.416 0 .865-.361 1.422-.873 1.422zm2.512-3.685v2.026h-1.175c-.078-.995-.608-1.617-1.337-1.617-.789 0-1.349.723-1.349 1.854 0 1.132.56 1.855 1.349 1.855.753 0 1.289-.652 1.337-1.695h1.175v2.904h.493v-5.327h-.493zm5.914 1.6h-3.18v-1.404h-.494v1.8h3.674v-.396zm-3.217 2.032h-.493v1.552h3.74v-.397h-3.247v-1.155zm-1.12-.924v.39h4.897v-.39h-4.897zm10.299-2.062h-1.361v-.64h-.494v.64h-1.373v.385h3.228v-.385zm-2.415 1.682c0-.367.325-.61.807-.61.482 0 .807.243.807.61 0 .368-.325.605-.807.605-.482 0-.807-.237-.807-.605zm1.054.972c.621-.077 1.03-.444 1.03-.971 0-.599-.524-.984-1.277-.984-.753 0-1.277.385-1.277.983 0 .528.41.895 1.03.972v.58c-.524.019-1.03.019-1.463.019l.066.408c.946 0 2.216-.011 3.373-.213l-.03-.361c-.464.07-.964.106-1.452.13v-.563zm3.108-1.043h-.843v-2.257h-.494v5.315h.494v-2.649h.843v-.409zm2.764.303h-1.493v-1.707h1.493v1.707zm1.723-1.227v.74h-1.241v-.74h1.241zm-1.241 1.138h1.241v1.41h.5v-3.875h-.5v.93h-1.241v-.468h-2.463v2.477h2.463v-.474zm-1.241 2.328v-1.262h-.494v1.66h3.602v-.398h-3.108zm5.294-1.102c-.433 0-.704-.539-.704-1.41 0-.853.271-1.392.704-1.392.422 0 .699.539.699 1.392 0 .871-.277 1.41-.699 1.41zm1.825-1.63h-.68c-.061-1-.494-1.623-1.145-1.623-.704 0-1.156.711-1.156 1.843 0 1.15.452 1.86 1.156 1.86.663 0 1.102-.64 1.145-1.682h.68v2.589h.47v-4.936h-.47v1.95zm1.072-2.067v5.315h.47v-5.315h-.47zm4.764 3.01h1.175v1.262h-1.175v-1.262zm-.084-2.127h1.343v1.736h-1.343v-1.736zm1.753 3.389v-1.262h.915v-.391h-.831v-1.736h.837v-.391h-4.005v.39h.837v1.737h-.825v.39h.91v1.263h-1.362v.397h4.903v-.397h-1.379zm3.938-3.81h-.487v.954c0 1.007-.657 2.026-1.452 2.4l.301.397c.633-.32 1.151-.984 1.398-1.784.259.759.777 1.387 1.391 1.683l.295-.391c-.801-.356-1.446-1.333-1.446-2.305v-.954zm2.012-.462v5.327h.494v-5.327h-.494zm5.113 2.364c-.469.071-.963.107-1.463.136v-.55h1.066v-.398h-2.108v-.889h2.054v-.396h-2.542v1.682h1.036v.57c-.542.023-1.072.023-1.524.023l.072.39c.97-.005 2.265-.023 3.439-.218l-.03-.35zm.446 2.489h-2.56v-.617h2.56v.617zm0-.996h-2.56v-.557h-.494v1.944h3.542v-1.944h-.488v.557zm-.006-3.851v3.057h.494v-3.057h-.494zm2.433.509h-.494v3.425h.446c.861 0 1.71-.06 2.65-.249l-.054-.415a12.96 12.96 0 0 1-2.548.25v-3.01zm3.102-.515v5.309h.494v-5.31h-.494zm2.33.912h2.018v-.402h-2.512v3.49h.428c1.018 0 1.729-.036 2.554-.19l-.054-.403c-.783.136-1.476.178-2.434.178v-2.673zm4.325 1.185h-.892v-2.097h-.493v5.327h.493v-2.827h.892v-.403zm.598 2.499c0-.093.027-.17.082-.232.057-.061.141-.092.253-.092.112 0 .196.03.253.092.059.062.088.14.088.232a.302.302 0 0 1-.088.222c-.057.06-.141.09-.253.09-.112 0-.196-.03-.253-.09a.316.316 0 0 1-.082-.222zM16.445 57.528c-.524 0-.89-.557-.89-1.422 0-.86.367-1.416.89-1.416.518 0 .886.557.886 1.416 0 .865-.367 1.422-.886 1.422zm0-3.277c-.795 0-1.36.723-1.36 1.855 0 1.132.565 1.855 1.36 1.855.796 0 1.356-.723 1.356-1.855 0-1.132-.56-1.855-1.355-1.855zm3.608 1.713h-.891v-2.115h-.494v5.308h.494v-2.784h.891v-.41zm1.15.326h1.536v-1.867h-2.03v.397h1.548v1.073h-1.53v1.99h.356c.668 0 1.277-.023 2.024-.148l-.037-.402c-.686.118-1.252.142-1.867.148V56.29zm3.458-2.447v2.097h-.765v-1.979h-.464v4.924h.464v-2.548h.765v2.814h.475v-5.308h-.475zm3.179.391c-.837 0-1.445.503-1.445 1.25 0 .74.608 1.25 1.445 1.25.844 0 1.446-.51 1.446-1.25 0-.747-.602-1.25-1.446-1.25zm0 .414c.56 0 .964.338.964.836 0 .492-.403.835-.964.835-.56 0-.963-.343-.963-.835 0-.498.403-.836.963-.836zm2.157-.805v5.326h.494v-5.326h-.494zm-3.813 4.159c.976 0 2.283-.006 3.5-.231l-.043-.361c-1.18.177-2.535.183-3.517.183l.06.409zm9.155-1.522H33.88v-.96h1.458v.96zm.488-.741h1.247v2.038h.5v-3.934h-.5v1.499h-1.247v-1.144h-.488v.936H33.88v-.936h-.488v2.672h2.434v-1.13zm-1.235 2.903v-1.25h-.494v1.647H37.7v-.397h-3.108zm8.697-4.023h-1.934v-.694h-.493v.694h-1.958v.397h4.385v-.397zm-3.457 1.766c0-.392.488-.629 1.277-.629.777 0 1.258.237 1.258.629 0 .396-.481.633-1.258.633-.79 0-1.277-.237-1.277-.633zm1.523 1.753v-.746c.94-.06 1.512-.415 1.512-1.008 0-.64-.68-1.007-1.758-1.007-1.097 0-1.777.367-1.777 1.008 0 .592.578.953 1.53 1.007v.746h-2.199v.397h4.897v-.397h-2.205zm4.072-.598c-.434 0-.705-.54-.705-1.41 0-.854.271-1.393.705-1.393.421 0 .698.54.698 1.393 0 .87-.277 1.41-.698 1.41zm1.825-1.63h-.68c-.061-1-.495-1.623-1.145-1.623-.705 0-1.157.711-1.157 1.843 0 1.15.452 1.86 1.157 1.86.662 0 1.102-.64 1.144-1.683h.68v2.59h.47V53.96h-.47v1.95zm1.072-2.067v5.314h.47v-5.314h-.47zm5.137 2.245h-1.517V54.59h1.517v1.5zm.482-1.884h-2.481v2.275h2.481v-2.275zm1.578 3.377v-.39h-3.53v.39h1.507c-.06.57-.826 1.055-1.717 1.185l.18.374c.802-.125 1.494-.504 1.802-1.043.307.533 1 .918 1.782 1.049l.187-.374c-.88-.136-1.656-.634-1.717-1.19h1.506zm-.09-2.465v-1.273h-.494v3.033h.494V55.52h.801v-.402h-.801zm4.342.901h-.934c.181-.474.26-.978.26-1.499h-2.084v.397h1.596c-.09 1.114-.669 2.068-1.825 2.75l.289.349c.747-.439 1.265-.99 1.59-1.606h1.108v2.483h.47v-4.906h-.47v2.032zm1.126-2.174v5.314h.47v-5.314h-.47zm6.041 2.328c-.704.136-1.319.178-2.385.178v-1.653h1.897v-.391h-2.39v2.44h.421c1.132 0 1.77-.035 2.512-.183l-.055-.39zm-1.8 1.132h-.494v1.736h3.601v-.397H65.14v-1.34zm2.867-1.884v-1.576h-.494v3.845h.493v-1.866h.802v-.403h-.802zm2.793 2.109c-.517 0-.879-.557-.879-1.422 0-.86.362-1.416.88-1.416.512 0 .873.557.873 1.416 0 .865-.361 1.422-.873 1.422zm2.512-3.685v2.026h-1.174c-.078-.995-.609-1.618-1.337-1.618-.79 0-1.35.723-1.35 1.855 0 1.132.56 1.855 1.35 1.855.753 0 1.289-.652 1.337-1.695h1.174v2.903h.494v-5.326h-.494zm5.366.93h-3.156v1.137h3.74v-.35H76.01v-.455h3.156v-1.108H75.51v.343h3.168v.433zm-2.698 3.472h3.204v-1.132H75.48v.35h3.217v.444h-3.205v1.18h3.861v-.35H75.98v-.492zm-1.084-1.932v.368h4.897v-.368h-4.897zm9.275-.089h-1.53v-.888h1.53v.889zm.482-2.085h-.482v.812h-1.53v-.812h-.487v2.476h2.5V54.14zm-1.41 3.496h2.928v-.391H82.75v1.836h3.517v-.39h-3.023v-1.055zm2.88-2.513V53.85h-.494v3.104h.494v-1.428h.8v-.403h-.8zm2.788 2.406c-.524 0-.891-.557-.891-1.422 0-.86.367-1.416.891-1.416.518 0 .885.557.885 1.416 0 .865-.367 1.422-.885 1.422zm0-3.277c-.795 0-1.361.723-1.361 1.855 0 1.132.566 1.855 1.361 1.855s1.355-.723 1.355-1.855c0-1.132-.56-1.855-1.355-1.855zm3.608 1.713h-.892v-2.115h-.493v5.308h.493v-2.784h.892v-.41zm3.68.474c-.783-.273-1.314-.942-1.314-1.624v-.213h1.187v-.397h-2.885v.397h1.205v.213c0 .753-.56 1.464-1.362 1.742l.26.385a2.27 2.27 0 0 0 1.355-1.327c.24.551.704.99 1.307 1.203l.247-.38zm-2.35 1.268h3.114v1.457h.494v-1.848H93.85v.39zm3.114-3.863v1.386H95.91v.397h1.053v1.398h.494v-3.181h-.493zm3.036 3.685c-.518 0-.88-.557-.88-1.422 0-.86.362-1.416.88-1.416.512 0 .873.557.873 1.416 0 .865-.361 1.422-.873 1.422zm2.511-3.685v2.026h-1.174c-.078-.995-.609-1.618-1.337-1.618-.79 0-1.35.723-1.35 1.855 0 1.132.56 1.855 1.35 1.855.753 0 1.289-.652 1.337-1.695h1.174v2.903h.494v-5.326h-.494zm1.659 5.715l-.309-.208c.184-.253.28-.513.288-.782v-.483h.533v.42c0 .195-.049.39-.148.584a1.357 1.357 0 0 1-.364.469zM109.902 56c-.71.148-1.331.183-2.403.183v-1.54h1.897v-.392h-2.385v2.329h.422c1.138 0 1.783-.036 2.523-.184l-.054-.397zm-.656 2.76c-.801 0-1.295-.237-1.295-.628 0-.39.494-.628 1.295-.628.795 0 1.289.237 1.289.628s-.494.628-1.289.628zm0-1.647c-1.096 0-1.783.38-1.783 1.02s.687 1.018 1.783 1.018c1.09 0 1.777-.379 1.777-1.019 0-.64-.687-1.019-1.777-1.019zm1.722-1.89v-1.38h-.5v3.164h.5v-1.381h.795v-.403h-.795zm5.776-1.38h-.494v3.898h.494v-3.898zm-1.181 2.648c-.801-.29-1.349-1.013-1.349-1.813v-.54h-.494v.54c0 .83-.542 1.6-1.355 1.908l.259.397a2.394 2.394 0 0 0 1.349-1.422 2.311 2.311 0 0 0 1.331 1.315l.259-.385zm-1.8 2.15V57.38h-.494v1.659h3.638v-.397h-3.144zm5.842-4.407c-.838 0-1.446.503-1.446 1.25 0 .74.608 1.25 1.446 1.25.843 0 1.445-.51 1.445-1.25 0-.747-.602-1.25-1.445-1.25zm0 .414c.56 0 .963.338.963.836 0 .492-.403.835-.963.835-.561 0-.964-.343-.964-.835 0-.498.403-.836.964-.836zm2.156-.805v5.326h.494v-5.326h-.494zm-3.813 4.159c.976 0 2.283-.006 3.5-.231l-.043-.361c-1.18.177-2.535.183-3.517.183l.06.409zm9.974-2.678h-.801c.048-.267.072-.533.072-.806h-2.071v.397h1.584c-.085 1.114-.663 2.068-1.825 2.75l.289.343c1.024-.599 1.608-1.398 1.861-2.293h.891v.936h-.975v.397h.975v1.837h.47v-4.9h-.47v1.339zm1.084-1.481v5.308h.47v-5.308h-.47zm4.306 1.38v.397h1.067v1.393h.499v-3.164h-.499v1.374h-1.067zm.302 1.209c-.783-.273-1.313-.942-1.313-1.624v-.183h1.186v-.391h-2.885v.39h1.205v.184c0 .765-.554 1.482-1.362 1.772l.259.385a2.32 2.32 0 0 0 1.362-1.35c.235.544.698.983 1.301 1.196l.247-.38zm-.518 2.346c-.813 0-1.307-.225-1.307-.61s.494-.616 1.307-.616 1.307.23 1.307.616c0 .385-.494.61-1.307.61zm0-1.6c-1.109 0-1.801.362-1.801.99s.692.99 1.801.99c1.108 0 1.795-.362 1.795-.99s-.687-.99-1.795-.99zm5.691-.355c.151-.99.151-1.683.151-2.11v-.29h-2.729v.397h2.247c0 .427-.012 1.073-.163 1.956l.494.047zm-1.241-.883h-.488v1.635c-.403.012-.801.018-1.144.018l.054.403c.958 0 2.229-.024 3.349-.201l-.03-.356c-.548.071-1.15.1-1.741.125V55.94zm3.427.125h-.861v-2.222h-.494v5.314h.494v-2.684h.861v-.408zm5.981.527h.5v-2.743h-.5v.96h-1.174v.396h1.174v1.387zm-.795-.492c-.777-.255-1.325-.9-1.325-1.594v-.492h-.488v.492c0 .77-.536 1.44-1.349 1.713l.259.385c.632-.231 1.12-.694 1.349-1.292.235.54.705.96 1.301 1.167l.253-.379zm-1.686 2.601v-.569h2.981V56.86h-3.481v.385h2.993v.521h-2.981v1.321h3.674v-.385h-3.186zm6.956-3.478v.397h1.066v1.393h.5v-3.164h-.5v1.374h-1.066zm.301 1.209c-.783-.273-1.313-.942-1.313-1.624v-.183h1.187v-.391h-2.886v.39h1.205v.184c0 .765-.554 1.482-1.361 1.772l.259.385a2.322 2.322 0 0 0 1.361-1.35c.235.544.699.983 1.301 1.196l.247-.38zm-.518 2.346c-.813 0-1.307-.225-1.307-.61s.494-.616 1.307-.616 1.307.23 1.307.616c0 .385-.494.61-1.307.61zm0-1.6c-1.108 0-1.801.362-1.801.99s.693.99 1.801.99 1.795-.362 1.795-.99-.687-.99-1.795-.99zm4.625-2.944c-.837 0-1.445.503-1.445 1.25 0 .74.608 1.25 1.445 1.25.844 0 1.446-.51 1.446-1.25 0-.747-.602-1.25-1.446-1.25zm0 .414c.56 0 .964.338.964.836 0 .492-.404.835-.964.835-.56 0-.963-.343-.963-.835 0-.498.403-.836.963-.836zm2.157-.805v5.326h.493v-5.326h-.493zm-3.813 4.159c.976 0 2.283-.006 3.499-.231l-.042-.361c-1.18.177-2.536.183-3.517.183l.06.409zM15.771 61.97c0-.402.355-.675.873-.675.506 0 .868.273.868.676 0 .409-.362.675-.868.675-.518 0-.873-.266-.873-.675zm2.59 1.417c-.464.071-.964.107-1.464.136v-.521c.645-.077 1.078-.468 1.078-1.031 0-.622-.548-1.043-1.33-1.043-.79 0-1.332.42-1.332 1.043 0 .569.434.96 1.09 1.037v.533c-.5.018-.987.024-1.403.024l.066.397c.922 0 2.205-.018 3.331-.22l-.036-.355zm-2.09 1.02h-.494v1.463h3.608v-.397H16.27v-1.067zm2.921-1.926v-1.796h-.494v4.065h.494v-1.867h.795v-.403h-.795zm2.192 2.044h3.114V66h.5v-1.872h-3.614v.397zm1.867-1.914v-.681h1.247v.68h-1.247zm-.488.539h-1.457v-.895h1.457v.895zm1.735-2.465v.847h-1.247V61h-.488v.871h-1.457V61h-.488v2.541h2.433v-.533h1.247v.835h.5v-3.158h-.5zm4.794.646h-1.35v-.646h-.493v.646h-1.343v.391h3.186v-.391zm-2.415 1.67c0-.366.325-.603.819-.603.488 0 .825.236.825.604 0 .373-.337.61-.825.61-.494 0-.82-.237-.82-.61zm2.114 0c0-.592-.53-.983-1.295-.983-.765 0-1.29.391-1.29.984 0 .598.525.99 1.29.99s1.295-.392 1.295-.99zm-1.578 1.352h-.494v1.523h3.602v-.397h-3.108v-1.126zm2.867-1.92v-1.748h-.494v3.982h.494v-1.825h.8v-.409h-.8zm4.716.67h-1.163v-.86h1.163v.86zm.463-2.08h-.463v.835h-1.163v-.835h-.47v2.47h2.096v-2.47zm-1.409 3.56h3.138v1.411h.494v-1.801H34.05v.39zm3.156-3.898v1.38h-.687V60.78h-.47v3.063h.47v-1.38h.687v1.404h.476v-3.182h-.476zm5.414 4.847h-2.475v-.687h2.475v.687zm0-1.067h-2.475v-.67h-.488v2.128h3.457v-2.127h-.494v.67zm-2.481-1.48c-.536 0-.922-.344-.922-.83s.386-.824.922-.824.921.338.921.824c0 .486-.385.83-.921.83zm2.475-2.3v1.262h-1.102c-.102-.616-.644-1.019-1.373-1.019-.807 0-1.392.498-1.392 1.227 0 .734.585 1.232 1.392 1.232.74 0 1.283-.415 1.38-1.043h1.095v1.191h.5v-2.85h-.5zm3.409.942h1.199v-.403H44.3v.403h1.235v.676c0 .9-.65 1.908-1.421 2.287l.289.385c.608-.308 1.132-.984 1.379-1.76.247.711.753 1.333 1.355 1.63l.283-.391c-.783-.362-1.397-1.304-1.397-2.151v-.676zm3.228 1.197h-.891v-2.139h-.494v5.31h.494v-2.762h.891v-.409zm2.349 1.108h1.235v1.007H51.6v-1.007zm1.722 1.007v-1.007h.844v-.397H50.84v-.853h3.198V61.07H50.34v.397h3.216v.824h-3.204v1.641h.759v1.007h-1.373v.397h4.909v-.397h-1.326zm4.656.001v-1.002h1.728v-.391h-3.324v-.86h3.198V61.07h-3.698v.397h3.216v.83h-3.204v1.641h1.584v1.001h-2.199v.397h4.91v-.397h-2.211zm7.552-3.858h-1.3v-.456h-.494v.456h-1.307v.35h3.102v-.35zm-2.342 1.215c0-.237.307-.38.795-.38.482 0 .789.143.789.38 0 .237-.307.385-.79.385-.487 0-.794-.148-.794-.385zm2.505.877c-.463.065-.97.1-1.463.124v-.308c.62-.053 1.012-.302 1.012-.693 0-.439-.5-.7-1.26-.7-.77 0-1.264.261-1.264.7 0 .397.391.646 1.018.693v.326c-.518.018-1.018.018-1.44.018l.054.361c.946 0 2.223-.006 3.373-.207l-.03-.314zm-2.186 1.96h3v-1.083h-3.5v.343h3.012v.415h-2.994v1.126h3.686v-.35h-3.204v-.45zm3-3.098V60.68h-.495v3.14h.494v-1.374h.796v-.409h-.796zm3.793 3.579c-.849 0-1.349-.207-1.349-.569 0-.361.5-.569 1.35-.569.843 0 1.349.208 1.349.57 0 .36-.506.568-1.35.568zm0-1.517c-1.156 0-1.849.338-1.849.948 0 .61.693.942 1.85.942 1.162 0 1.849-.332 1.849-.942 0-.61-.687-.948-1.85-.948zm-.746-1.41a4.807 4.807 0 0 0 1.499 0v.622h-1.5v-.622zm-.645-.925c0-.385.53-.61 1.391-.61.862 0 1.392.225 1.392.61 0 .38-.53.61-1.391.61-.862 0-1.392-.23-1.392-.61zm2.632 1.547v-.753c.416-.165.657-.438.657-.794 0-.622-.723-.989-1.897-.989-1.169 0-1.898.367-1.898.99 0 .361.235.628.663.8v.746h-1.21v.391h4.89v-.391H71.54zm3.445 1.096c-.488 0-.843-.344-.843-.818 0-.48.355-.823.843-.823.494 0 .85.343.85.824 0 .474-.356.817-.85.817zm0-2.044c-.759 0-1.307.51-1.307 1.227 0 .722.548 1.22 1.307 1.22.771 0 1.32-.498 1.32-1.22 0-.718-.549-1.227-1.32-1.227zm.241-1.618h-.494v.788h-1.361v.392h3.186v-.392h-1.331v-.788zm3.222 2.122h-.885v-2.18h-.494v5.308h.494v-2.72h.885v-.408zm2.096-1.683h-.476v1.013c0 .913-.446 1.867-1.187 2.293l.308.367c.536-.325.927-.93 1.12-1.635.193.646.554 1.209 1.066 1.517l.283-.38c-.71-.426-1.114-1.327-1.114-2.18v-.995zm1.421 1.404h-.891v.403h.891v2.743h.464v-4.935h-.464v1.79zm1.097-1.908v5.315h.47V60.68h-.47zm3.113 2.981c.223.053.482.083.747.083.27 0 .53-.03.759-.083v1.25h-1.506v-1.25zm.747-2.264c.867 0 1.494.391 1.494.984 0 .592-.627.983-1.494.983s-1.488-.39-1.488-.983.62-.984 1.488-.984zm1.253 3.514v-1.44c.445-.231.71-.61.71-1.09 0-.83-.813-1.363-1.963-1.363-1.145 0-1.964.533-1.964 1.363 0 .48.271.865.723 1.096v1.434h-1.204v.403h4.908v-.403h-1.21zm1.953.365c0-.093.027-.17.082-.232.057-.061.141-.092.253-.092.112 0 .196.03.253.093a.318.318 0 0 1 .088.231c0 .089-.03.163-.088.223-.057.06-.141.09-.253.09-.112 0-.196-.03-.253-.09a.317.317 0 0 1-.082-.223z"/><path fill="#D22020" d="M15.982 29.896h5.42V32h1.408v-3.243h-6.828v1.139zm1.547-5.683h3.83v.78h-3.83v-.78zm2.603 2.722v-.824h2.625v-3.85h-1.398v.878h-3.83v-.879H16.13v3.85h2.593v.825H15v1.139h8.888v-1.14h-3.756zm9.698.868v.976h1.845v.791h1.409V22h-1.409v5.803H29.83zm-1.889-4.426c.65 0 1.11.26 1.11.749 0 .488-.46.737-1.11.737-.661 0-1.12-.25-1.12-.737 0-.488.459-.749 1.12-.749zm0 2.528c1.43 0 2.443-.716 2.443-1.78 0-1.062-1.013-1.789-2.443-1.789-1.44 0-2.454.727-2.454 1.79 0 1.063 1.014 1.779 2.454 1.779zm-.523 4.772V29.31h1.355v-1.887c.79-.054 1.58-.141 2.348-.282l-.096-1.02c-2.07.272-4.46.293-6.253.304l.182 1.139c.736 0 1.557-.01 2.422-.054v1.334H26.01v2.972h7.287v-1.14h-5.879zm10.573-5.239l.181 1.204 5.634-.304c-.054.597-.16 1.258-.331 1.996l1.387.174c.459-2.191.448-3.59.448-4.794v-.879h-7.02v1.139h5.633c0 .39 0 .813-.032 1.269l-5.9.195zm3.852 4.241v-2.386h-1.409v2.386h-3.147v1.16h8.887v-1.16h-4.331zM55.05 26.61h-5.505v-2.625h5.43v-1.16h-6.838v4.923h6.913V26.61zm-7.948 3.015v1.171H56v-1.171h-8.898z"/><path fill="#666" d="M19.04 88.574c0 .847-.145 1.475-.434 1.887-.29.411-.741.617-1.356.617-.607 0-1.056-.2-1.348-.601-.291-.404-.442-1.006-.453-1.805v-.965c0-.836.145-1.457.434-1.863.289-.406.742-.61 1.36-.61.611 0 1.062.197 1.35.59.29.39.438.995.446 1.813v.937zm-.724-.988c0-.612-.085-1.057-.257-1.336-.172-.281-.444-.422-.817-.422-.37 0-.64.14-.808.418-.17.279-.257.707-.262 1.285v1.156c0 .615.088 1.07.265 1.364.18.291.451.437.813.437.357 0 .621-.138.793-.414.174-.276.266-.71.273-1.305v-1.183zM22.34 91h-.727v-4.816l-1.457.535v-.656l2.07-.778h.114V91zm2.207-.379a.45.45 0 0 1 .11-.312c.075-.084.187-.125.335-.125.149 0 .26.041.336.125a.438.438 0 0 1 .117.312c0 .12-.039.22-.117.3-.075.082-.187.122-.336.122-.148 0-.26-.04-.336-.121a.43.43 0 0 1-.11-.3zm80.301.379h-.727v-4.816l-1.457.535v-.656l2.07-.778h.114V91zm3.168-3.195h.543c.341-.006.609-.095.804-.27.196-.174.293-.41.293-.707 0-.666-.332-1-.996-1-.312 0-.562.09-.75.27-.185.177-.277.412-.277.707h-.723c0-.45.164-.825.492-1.121.331-.3.75-.45 1.258-.45.537 0 .957.142 1.262.426.305.284.457.678.457 1.184 0 .247-.081.487-.242.719a1.448 1.448 0 0 1-.653.519c.313.099.554.263.723.492.172.23.258.51.258.84 0 .51-.167.915-.5 1.215-.333.3-.767.45-1.301.45-.534 0-.969-.145-1.305-.434-.333-.29-.5-.671-.5-1.145h.727c0 .3.098.54.293.719.195.18.457.27.785.27.349 0 .616-.092.801-.274.185-.182.277-.444.277-.785 0-.331-.101-.585-.304-.762-.204-.177-.497-.268-.879-.274h-.543v-.59zm3.531 2.816c0-.125.036-.23.109-.312.076-.084.188-.125.336-.125.149 0 .261.041.336.125a.438.438 0 0 1 .117.312c0 .12-.039.22-.117.3-.075.082-.187.122-.336.122-.148 0-.26-.04-.336-.121a.43.43 0 0 1-.109-.3zM19.04 108.574c0 .847-.145 1.475-.434 1.887-.29.411-.741.617-1.356.617-.607 0-1.056-.2-1.348-.601-.291-.404-.442-1.006-.453-1.805v-.965c0-.836.145-1.457.434-1.863.289-.406.742-.61 1.36-.61.611 0 1.062.197 1.35.59.29.391.438.995.446 1.813v.937zm-.724-.988c0-.612-.085-1.057-.257-1.336-.172-.281-.444-.422-.817-.422-.37 0-.64.139-.808.418-.17.279-.257.707-.262 1.285v1.157c0 .614.088 1.069.265 1.363.18.291.451.437.813.437.357 0 .621-.138.793-.414.174-.276.266-.711.273-1.304v-1.184zM23.691 111h-3.726v-.52l1.969-2.187c.291-.331.492-.599.601-.805.112-.208.168-.423.168-.644 0-.297-.09-.541-.27-.731-.18-.19-.419-.285-.718-.285-.36 0-.64.103-.84.309-.198.203-.297.487-.297.851h-.723c0-.523.168-.946.504-1.269.339-.323.79-.485 1.356-.485.529 0 .947.14 1.254.418.307.276.46.645.46 1.106 0 .56-.356 1.226-1.07 2l-1.523 1.652h2.855v.59zm.856-.379a.45.45 0 0 1 .11-.312c.075-.084.187-.125.335-.125.149 0 .26.041.336.125a.438.438 0 0 1 .117.312c0 .12-.039.22-.117.301-.075.081-.187.121-.336.121-.148 0-.26-.04-.336-.121a.433.433 0 0 1-.11-.301zm80.301.379h-.727v-4.816l-1.457.535v-.657l2.07-.777h.114V111zm5.168-1.91h.789v.59h-.789V111h-.727v-1.32h-2.59v-.426l2.547-3.942h.77v3.778zm-2.496 0h1.769v-2.789l-.086.156-1.683 2.633zm4.027 1.531c0-.125.036-.229.109-.312.076-.084.188-.125.336-.125.149 0 .261.041.336.125a.438.438 0 0 1 .117.312c0 .12-.039.22-.117.301-.075.081-.187.121-.336.121-.148 0-.26-.04-.336-.121a.432.432 0 0 1-.109-.301zM19.04 126.574c0 .847-.145 1.475-.434 1.887-.29.411-.741.617-1.356.617-.607 0-1.056-.2-1.348-.601-.291-.404-.442-1.006-.453-1.805v-.965c0-.836.145-1.457.434-1.863.289-.406.742-.61 1.36-.61.611 0 1.062.197 1.35.59.29.391.438.995.446 1.813v.937zm-.724-.988c0-.612-.085-1.057-.257-1.336-.172-.281-.444-.422-.817-.422-.37 0-.64.139-.808.418-.17.279-.257.707-.262 1.285v1.157c0 .614.088 1.069.265 1.363.18.291.451.437.813.437.357 0 .621-.138.793-.414.174-.276.266-.711.273-1.304v-1.184zm2.7.219h.543c.34-.006.609-.095.804-.27.196-.174.293-.41.293-.707 0-.667-.332-1-.996-1-.312 0-.562.09-.75.27-.185.177-.277.412-.277.707h-.723c0-.451.164-.825.492-1.121.331-.3.75-.45 1.258-.45.537 0 .957.142 1.262.426.305.284.457.679.457 1.184 0 .247-.08.487-.242.718-.16.232-.377.405-.653.52.313.099.554.263.723.492.172.229.258.509.258.84 0 .51-.167.915-.5 1.215-.334.299-.767.449-1.3.449-.535 0-.97-.144-1.306-.433-.333-.29-.5-.671-.5-1.145h.727c0 .299.098.539.293.719.195.179.457.269.785.269.349 0 .616-.091.8-.273.186-.182.278-.444.278-.785 0-.331-.101-.585-.305-.762-.203-.177-.496-.268-.878-.273h-.543v-.59zm3.53 2.816c0-.125.037-.229.11-.312.076-.084.188-.125.336-.125.149 0 .26.041.336.125a.438.438 0 0 1 .117.312c0 .12-.039.22-.117.301-.075.081-.187.121-.336.121-.148 0-.26-.04-.336-.121a.433.433 0 0 1-.11-.301zm80.302.379h-.727v-4.816l-1.457.535v-.657l2.07-.777h.114V129zm2.449-2.852l.289-2.836h2.914v.668h-2.301l-.172 1.551c.279-.164.595-.246.95-.246.518 0 .929.172 1.234.516.305.341.457.803.457 1.387 0 .585-.159 1.048-.477 1.386-.315.336-.756.504-1.324.504-.502 0-.913-.139-1.23-.418-.318-.278-.499-.664-.543-1.156h.683c.045.325.161.572.348.738.187.164.435.246.742.246.336 0 .599-.114.789-.343.193-.23.289-.546.289-.95 0-.38-.104-.685-.312-.914-.206-.232-.481-.347-.824-.347-.316 0-.563.069-.743.207l-.191.156-.578-.149zm4.25 2.473c0-.125.036-.229.109-.312.076-.084.188-.125.336-.125.149 0 .261.041.336.125a.438.438 0 0 1 .117.312c0 .12-.039.22-.117.301-.075.081-.187.121-.336.121-.148 0-.26-.04-.336-.121a.432.432 0 0 1-.109-.301zM19.04 145.574c0 .847-.145 1.475-.434 1.887-.29.411-.741.617-1.356.617-.607 0-1.056-.2-1.348-.601-.291-.404-.442-1.006-.453-1.805v-.965c0-.836.145-1.457.434-1.863.289-.406.742-.61 1.36-.61.611 0 1.062.197 1.35.59.29.391.438.995.446 1.813v.937zm-.724-.988c0-.612-.085-1.057-.257-1.336-.172-.281-.444-.422-.817-.422-.37 0-.64.139-.808.418-.17.279-.257.707-.262 1.285v1.157c0 .614.088 1.069.265 1.363.18.291.451.437.813.437.357 0 .621-.138.793-.414.174-.276.266-.711.273-1.304v-1.184zm4.7 1.504h.789v.59h-.79V148h-.726v-1.32H19.7v-.426l2.547-3.942h.77v3.778zm-2.496 0h1.77v-2.789l-.087.156-1.683 2.633zm4.027 1.531a.45.45 0 0 1 .11-.312c.075-.084.187-.125.335-.125.149 0 .26.041.336.125a.438.438 0 0 1 .117.312c0 .12-.039.22-.117.301-.075.081-.187.121-.336.121-.148 0-.26-.04-.336-.121a.433.433 0 0 1-.11-.301zm80.301.379h-.727v-4.816l-1.457.535v-.657l2.07-.777h.114V148zm4.953-5.691v.613h-.133c-.563.01-1.01.177-1.344.5-.333.323-.526.777-.578 1.363.3-.344.708-.515 1.227-.515.494 0 .889.174 1.183.523.297.349.446.799.446 1.352 0 .585-.161 1.054-.481 1.406-.318.351-.745.527-1.281.527-.544 0-.986-.208-1.324-.625-.339-.419-.508-.958-.508-1.617v-.277c0-1.047.222-1.847.668-2.399.448-.555 1.113-.838 1.996-.851h.129zm-.949 2.562c-.248 0-.476.074-.684.223a1.161 1.161 0 0 0-.434.558v.266c0 .469.106.846.317 1.133.211.286.474.429.789.429.325 0 .581-.119.765-.359.188-.239.282-.553.282-.941 0-.391-.095-.706-.285-.946a.902.902 0 0 0-.75-.363zm2.695 2.75c0-.125.036-.229.109-.312.076-.084.188-.125.336-.125.149 0 .261.041.336.125a.438.438 0 0 1 .117.312c0 .12-.039.22-.117.301-.075.081-.187.121-.336.121-.148 0-.26-.04-.336-.121a.432.432 0 0 1-.109-.301zM19.04 164.574c0 .847-.145 1.475-.434 1.887-.29.411-.741.617-1.356.617-.607 0-1.056-.2-1.348-.601-.291-.404-.442-1.006-.453-1.805v-.965c0-.836.145-1.457.434-1.863.289-.406.742-.61 1.36-.61.611 0 1.062.197 1.35.59.29.391.438.995.446 1.813v.937zm-.724-.988c0-.612-.085-1.057-.257-1.336-.172-.281-.444-.422-.817-.422-.37 0-.64.139-.808.418-.17.279-.257.707-.262 1.285v1.157c0 .614.088 1.069.265 1.363.18.291.451.437.813.437.357 0 .621-.138.793-.414.174-.276.266-.711.273-1.304v-1.184zm1.98.562l.29-2.836H23.5v.668h-2.3l-.173 1.551c.279-.164.595-.246.95-.246.518 0 .93.172 1.234.516.305.341.457.803.457 1.387 0 .585-.159 1.048-.477 1.386-.315.336-.756.504-1.324.504-.502 0-.913-.139-1.23-.418-.318-.278-.499-.664-.543-1.156h.683c.045.325.16.572.348.738.188.164.435.246.742.246.336 0 .6-.114.79-.343.192-.23.288-.546.288-.95 0-.38-.104-.685-.312-.914-.206-.232-.48-.347-.824-.347-.316 0-.563.069-.743.207l-.191.156-.578-.149zm4.25 2.473c0-.125.037-.229.11-.312.076-.084.188-.125.336-.125.149 0 .26.041.336.125a.438.438 0 0 1 .117.312c0 .12-.039.22-.117.301-.075.081-.187.121-.336.121-.148 0-.26-.04-.336-.121a.433.433 0 0 1-.11-.301zm80.302.379h-.727v-4.816l-1.457.535v-.657l2.07-.777h.114V167zm5.789-5.281L108.281 167h-.758l2.348-5.094h-3.078v-.594h3.844v.407zm.91 4.902c0-.125.036-.229.109-.312.076-.084.188-.125.336-.125.149 0 .261.041.336.125a.438.438 0 0 1 .117.312c0 .12-.039.22-.117.301-.075.081-.187.121-.336.121-.148 0-.26-.04-.336-.121a.432.432 0 0 1-.109-.301zM19.04 183.574c0 .847-.145 1.475-.434 1.887-.29.411-.741.617-1.356.617-.607 0-1.056-.2-1.348-.601-.291-.404-.442-1.006-.453-1.805v-.965c0-.836.145-1.457.434-1.863.289-.406.742-.61 1.36-.61.611 0 1.062.197 1.35.59.29.391.438.995.446 1.813v.937zm-.724-.988c0-.612-.085-1.057-.257-1.336-.172-.281-.444-.422-.817-.422-.37 0-.64.139-.808.418-.17.279-.257.707-.262 1.285v1.157c0 .614.088 1.069.265 1.363.18.291.451.437.813.437.357 0 .621-.138.793-.414.174-.276.266-.711.273-1.304v-1.184zm4.485-2.277v.613h-.133c-.563.01-1.01.177-1.344.5-.333.323-.526.777-.578 1.363.3-.344.708-.515 1.227-.515.494 0 .889.174 1.183.523.297.349.446.799.446 1.352 0 .585-.16 1.054-.48 1.406-.319.351-.746.527-1.282.527-.544 0-.986-.208-1.324-.625-.339-.419-.508-.958-.508-1.617v-.277c0-1.047.223-1.847.668-2.399.448-.555 1.113-.838 1.996-.851h.129zm-.95 2.562c-.247 0-.475.074-.683.223a1.161 1.161 0 0 0-.434.558v.266c0 .469.106.846.317 1.133.21.286.474.429.789.429.325 0 .58-.119.765-.359.188-.239.282-.553.282-.941 0-.391-.095-.706-.285-.946a.902.902 0 0 0-.75-.363zm2.696 2.75a.45.45 0 0 1 .11-.312c.075-.084.187-.125.335-.125.149 0 .26.041.336.125a.438.438 0 0 1 .117.312c0 .12-.039.22-.117.301-.075.081-.187.121-.336.121-.148 0-.26-.04-.336-.121a.433.433 0 0 1-.11-.301zm80.301.379h-.727v-4.816l-1.457.535v-.657l2.07-.777h.114V186zm5.566-4.203c0 .284-.075.536-.226.758a1.522 1.522 0 0 1-.606.519c.297.128.531.314.703.559.175.245.262.522.262.832 0 .492-.167.884-.5 1.176-.331.291-.767.437-1.309.437-.547 0-.985-.146-1.316-.437-.328-.295-.492-.687-.492-1.176 0-.307.083-.585.25-.832.169-.248.402-.435.699-.563a1.492 1.492 0 0 1-.598-.519 1.34 1.34 0 0 1-.219-.754c0-.479.154-.859.461-1.141.308-.281.713-.422 1.215-.422.5 0 .904.141 1.211.422.31.282.465.662.465 1.141zm-.59 2.652c0-.317-.101-.577-.304-.777-.201-.201-.464-.301-.79-.301-.325 0-.587.099-.785.297-.195.198-.293.458-.293.781s.095.577.286.762c.192.185.459.277.8.277.339 0 .604-.092.797-.277.193-.188.289-.441.289-.762zm-1.086-3.621c-.284 0-.514.089-.691.266-.175.174-.262.413-.262.715 0 .289.086.523.258.703.174.177.406.265.695.265.289 0 .52-.088.692-.265.174-.18.261-.414.261-.703s-.089-.525-.269-.707a.919.919 0 0 0-.684-.274zm2.809 4.793c0-.125.036-.229.109-.312.076-.084.188-.125.336-.125.149 0 .261.041.336.125a.438.438 0 0 1 .117.312c0 .12-.039.22-.117.301-.075.081-.187.121-.336.121-.148 0-.26-.04-.336-.121a.432.432 0 0 1-.109-.301zM19.04 202.574c0 .847-.145 1.475-.434 1.887-.29.411-.741.617-1.356.617-.607 0-1.056-.2-1.348-.601-.291-.404-.442-1.006-.453-1.805v-.965c0-.836.145-1.457.434-1.863.289-.406.742-.61 1.36-.61.611 0 1.062.197 1.35.59.29.391.438.995.446 1.813v.937zm-.724-.988c0-.612-.085-1.057-.257-1.336-.172-.281-.444-.422-.817-.422-.37 0-.64.139-.808.418-.17.279-.257.707-.262 1.285v1.157c0 .614.088 1.069.265 1.363.18.291.451.437.813.437.357 0 .621-.138.793-.414.174-.276.266-.711.273-1.304v-1.184zm5.32-1.867L21.282 205h-.758l2.348-5.094h-3.078v-.594h3.844v.407zm.91 4.902c0-.125.037-.229.11-.312.076-.084.188-.125.336-.125.149 0 .26.041.336.125a.438.438 0 0 1 .117.312c0 .12-.039.22-.117.301-.075.081-.187.121-.336.121-.148 0-.26-.04-.336-.121a.433.433 0 0 1-.11-.301zm80.302.379h-.727v-4.816l-1.457.535v-.657l2.07-.777h.114V205zm4.886-2.5c-.151.18-.332.324-.543.434a1.458 1.458 0 0 1-.687.164c-.328 0-.615-.081-.859-.243a1.577 1.577 0 0 1-.563-.679 2.335 2.335 0 0 1-.199-.973c0-.38.071-.723.215-1.027.145-.305.351-.538.617-.699.265-.162.575-.243.93-.243.562 0 1.005.211 1.328.633.325.419.488.992.488 1.719v.211c0 1.107-.219 1.915-.656 2.426-.438.507-1.098.768-1.981.781h-.14v-.609h.152c.596-.011 1.055-.166 1.375-.465.32-.302.495-.779.523-1.43zm-1.113 0c.242 0 .465-.074.668-.223a1.3 1.3 0 0 0 .449-.55v-.289c0-.474-.103-.86-.308-1.157-.206-.297-.466-.445-.782-.445a.926.926 0 0 0-.765.367c-.193.242-.289.563-.289.961 0 .388.092.708.277.961.188.25.438.375.75.375zm2.926 2.121c0-.125.036-.229.109-.312.076-.084.188-.125.336-.125.149 0 .261.041.336.125a.438.438 0 0 1 .117.312c0 .12-.039.22-.117.301-.075.081-.187.121-.336.121-.148 0-.26-.04-.336-.121a.432.432 0 0 1-.109-.301zM19.04 221.574c0 .847-.145 1.475-.434 1.887-.29.411-.741.617-1.356.617-.607 0-1.056-.2-1.348-.601-.291-.404-.442-1.006-.453-1.805v-.965c0-.836.145-1.457.434-1.863.289-.406.742-.61 1.36-.61.611 0 1.062.197 1.35.59.29.391.438.995.446 1.813v.937zm-.724-.988c0-.612-.085-1.057-.257-1.336-.172-.281-.444-.422-.817-.422-.37 0-.64.139-.808.418-.17.279-.257.707-.262 1.285v1.157c0 .614.088 1.069.265 1.363.18.291.451.437.813.437.357 0 .621-.138.793-.414.174-.276.266-.711.273-1.304v-1.184zm5.098-.789c0 .284-.076.536-.227.758-.148.221-.35.394-.605.519.297.128.531.314.703.559.175.245.262.522.262.832 0 .492-.167.884-.5 1.176-.33.291-.767.437-1.309.437-.547 0-.985-.146-1.316-.437-.328-.295-.492-.687-.492-1.176 0-.307.083-.585.25-.832.169-.248.402-.435.699-.563a1.492 1.492 0 0 1-.598-.519 1.34 1.34 0 0 1-.218-.754c0-.479.153-.859.46-1.141.308-.281.713-.422 1.215-.422.5 0 .904.141 1.211.422.31.282.465.662.465 1.141zm-.59 2.652c0-.317-.101-.577-.305-.777-.2-.201-.463-.301-.788-.301-.326 0-.588.099-.786.297-.195.198-.293.458-.293.781s.095.577.285.762c.193.185.46.277.801.277.339 0 .604-.092.797-.277.193-.188.29-.441.29-.762zm-1.086-3.621c-.284 0-.514.089-.691.266-.175.174-.262.413-.262.715 0 .289.086.523.258.703.174.177.406.265.695.265.29 0 .52-.088.692-.265.174-.18.261-.414.261-.703s-.09-.525-.27-.707a.915.915 0 0 0-.683-.274zm2.809 4.793a.45.45 0 0 1 .11-.312c.075-.084.187-.125.335-.125.149 0 .26.041.336.125a.438.438 0 0 1 .117.312c0 .12-.039.22-.117.301-.075.081-.187.121-.336.121-.148 0-.26-.04-.336-.121a.433.433 0 0 1-.11-.301zm81.652.379h-3.726v-.52l1.968-2.187c.292-.331.493-.599.602-.805.112-.208.168-.423.168-.644 0-.297-.09-.541-.27-.731-.179-.19-.419-.285-.718-.285-.36 0-.64.103-.84.309-.198.203-.297.487-.297.851h-.723c0-.523.168-.946.504-1.269.339-.323.791-.485 1.356-.485.528 0 .946.14 1.254.418.307.276.461.645.461 1.106 0 .56-.357 1.226-1.071 2l-1.523 1.652h2.855v.59zm4.332-2.426c0 .847-.144 1.475-.433 1.887-.289.411-.741.617-1.356.617-.607 0-1.056-.2-1.347-.601-.292-.404-.443-1.006-.454-1.805v-.965c0-.836.145-1.457.434-1.863.289-.406.742-.61 1.359-.61.612 0 1.063.197 1.352.59.289.391.437.995.445 1.813v.937zm-.722-.988c0-.612-.086-1.057-.258-1.336-.172-.281-.444-.422-.817-.422-.369 0-.639.139-.808.418-.169.279-.257.707-.262 1.285v1.157c0 .614.089 1.069.266 1.363.179.291.45.437.812.437.357 0 .621-.138.793-.414.175-.276.266-.711.274-1.304v-1.184zm1.738 3.035c0-.125.036-.229.109-.312.076-.084.188-.125.336-.125.149 0 .261.041.336.125a.438.438 0 0 1 .117.312c0 .12-.039.22-.117.301-.075.081-.187.121-.336.121-.148 0-.26-.04-.336-.121a.432.432 0 0 1-.109-.301zM19.04 240.574c0 .847-.145 1.475-.434 1.887-.29.411-.741.617-1.356.617-.607 0-1.056-.2-1.348-.601-.291-.404-.442-1.006-.453-1.805v-.965c0-.836.145-1.457.434-1.863.289-.406.742-.61 1.36-.61.611 0 1.062.197 1.35.59.29.391.438.995.446 1.813v.937zm-.724-.988c0-.612-.085-1.057-.257-1.336-.172-.281-.444-.422-.817-.422-.37 0-.64.139-.808.418-.17.279-.257.707-.262 1.285v1.157c0 .614.088 1.069.265 1.363.18.291.451.437.813.437.357 0 .621-.138.793-.414.174-.276.266-.711.273-1.304v-1.184zm4.418.914c-.15.18-.332.324-.543.434a1.458 1.458 0 0 1-.687.164c-.328 0-.615-.081-.86-.243a1.575 1.575 0 0 1-.562-.679 2.336 2.336 0 0 1-.2-.973c0-.38.072-.723.216-1.027.146-.305.351-.538.617-.699.265-.162.575-.243.93-.243.562 0 1.005.211 1.328.633.325.419.488.992.488 1.719v.211c0 1.107-.219 1.915-.656 2.426-.438.507-1.098.768-1.98.781h-.141v-.609h.152c.596-.011 1.055-.166 1.375-.465.32-.302.495-.779.523-1.43zm-1.113 0c.242 0 .465-.074.668-.223.206-.148.355-.332.45-.55v-.289c0-.474-.104-.86-.31-1.157-.205-.297-.465-.445-.78-.445a.926.926 0 0 0-.766.367c-.193.242-.29.563-.29.961 0 .388.093.708.278.961.188.25.438.375.75.375zm2.926 2.121a.45.45 0 0 1 .11-.312c.075-.084.187-.125.335-.125.149 0 .26.041.336.125a.438.438 0 0 1 .117.312c0 .12-.039.22-.117.301-.075.081-.187.121-.336.121-.148 0-.26-.04-.336-.121a.433.433 0 0 1-.11-.301zm81.652.379h-3.726v-.52l1.968-2.187c.292-.331.493-.599.602-.805.112-.208.168-.423.168-.644 0-.297-.09-.541-.27-.731-.179-.19-.419-.285-.718-.285-.36 0-.64.103-.84.309-.198.203-.297.487-.297.851h-.723c0-.523.168-.946.504-1.269.339-.323.791-.485 1.356-.485.528 0 .946.14 1.254.418.307.276.461.645.461 1.106 0 .56-.357 1.226-1.071 2l-1.523 1.652h2.855v.59zm3.141 0h-.727v-4.816l-1.457.535v-.657l2.071-.777h.113V243zm2.207-.379c0-.125.036-.229.109-.312.076-.084.188-.125.336-.125.149 0 .261.041.336.125a.438.438 0 0 1 .117.312c0 .12-.039.22-.117.301-.075.081-.187.121-.336.121-.148 0-.26-.04-.336-.121a.432.432 0 0 1-.109-.301zM17.848 262h-.727v-4.816l-1.457.535v-.657l2.07-.777h.114V262zm5.683-2.426c0 .847-.144 1.475-.433 1.887-.29.411-.741.617-1.356.617-.607 0-1.056-.2-1.348-.601-.291-.404-.442-1.006-.453-1.805v-.965c0-.836.145-1.457.434-1.863.29-.406.742-.61 1.36-.61.611 0 1.062.197 1.35.59.29.391.438.995.446 1.813v.937zm-.722-.988c0-.612-.086-1.057-.258-1.336-.172-.281-.444-.422-.817-.422-.37 0-.639.139-.808.418-.17.279-.257.707-.262 1.285v1.157c0 .614.089 1.069.266 1.363.18.291.45.437.812.437.357 0 .621-.138.793-.414.175-.276.266-.711.274-1.304v-1.184zm1.738 3.035a.45.45 0 0 1 .11-.312c.075-.084.187-.125.335-.125.149 0 .26.041.336.125a.438.438 0 0 1 .117.312c0 .12-.039.22-.117.301-.075.081-.187.121-.336.121-.148 0-.26-.04-.336-.121a.433.433 0 0 1-.11-.301zm81.652.379h-3.726v-.52l1.968-2.187c.292-.331.493-.599.602-.805.112-.208.168-.423.168-.644 0-.297-.09-.541-.27-.731-.179-.19-.419-.285-.718-.285-.36 0-.64.103-.84.309-.198.203-.297.487-.297.851h-.723c0-.523.168-.946.504-1.269.339-.323.791-.485 1.356-.485.528 0 .946.14 1.254.418.307.276.461.645.461 1.106 0 .56-.357 1.226-1.071 2l-1.523 1.652h2.855v.59zm4.492 0h-3.726v-.52l1.969-2.187c.291-.331.492-.599.601-.805.112-.208.168-.423.168-.644 0-.297-.09-.541-.269-.731-.18-.19-.42-.285-.719-.285-.36 0-.639.103-.84.309-.198.203-.297.487-.297.851h-.723c0-.523.168-.946.504-1.269.339-.323.791-.485 1.356-.485.528 0 .946.14 1.254.418.307.276.461.645.461 1.106 0 .56-.357 1.226-1.071 2l-1.523 1.652h2.855v.59zm.856-.379c0-.125.036-.229.109-.312.076-.084.188-.125.336-.125.149 0 .261.041.336.125a.438.438 0 0 1 .117.312c0 .12-.039.22-.117.301-.075.081-.187.121-.336.121-.148 0-.26-.04-.336-.121a.432.432 0 0 1-.109-.301zM17.848 281h-.727v-4.816l-1.457.535v-.657l2.07-.777h.114V281zm4.492 0h-.727v-4.816l-1.457.535v-.657l2.07-.777h.114V281zm2.207-.379a.45.45 0 0 1 .11-.312c.075-.084.187-.125.335-.125.149 0 .26.041.336.125a.438.438 0 0 1 .117.312c0 .12-.039.22-.117.301-.075.081-.187.121-.336.121-.148 0-.26-.04-.336-.121a.433.433 0 0 1-.11-.301zm81.652.379h-3.726v-.52l1.968-2.187c.292-.331.493-.599.602-.805.112-.208.168-.423.168-.644 0-.297-.09-.541-.27-.731-.179-.19-.419-.285-.718-.285-.36 0-.64.103-.84.309-.198.203-.297.487-.297.851h-.723c0-.523.168-.946.504-1.269.339-.323.791-.485 1.356-.485.528 0 .946.14 1.254.418.307.276.461.645.461 1.106 0 .56-.357 1.226-1.071 2l-1.523 1.652h2.855v.59zm1.817-3.195h.543c.341-.006.609-.095.804-.27.196-.174.293-.41.293-.707 0-.667-.332-1-.996-1-.312 0-.562.09-.75.27-.185.177-.277.412-.277.707h-.723c0-.451.164-.825.492-1.121.331-.3.75-.45 1.258-.45.537 0 .957.142 1.262.426.305.284.457.679.457 1.184 0 .247-.081.487-.242.718a1.443 1.443 0 0 1-.653.52c.313.099.554.263.723.492.172.229.258.509.258.84 0 .51-.167.915-.5 1.215-.333.299-.767.449-1.301.449-.534 0-.969-.144-1.305-.433-.333-.29-.5-.671-.5-1.145h.727c0 .299.098.539.293.719.195.179.457.269.785.269.349 0 .616-.091.801-.273.185-.182.277-.444.277-.785 0-.331-.101-.585-.304-.762-.204-.177-.497-.268-.879-.273h-.543v-.59zm3.531 2.816c0-.125.036-.229.109-.312.076-.084.188-.125.336-.125.149 0 .261.041.336.125a.438.438 0 0 1 .117.312c0 .12-.039.22-.117.301-.075.081-.187.121-.336.121-.148 0-.26-.04-.336-.121a.432.432 0 0 1-.109-.301zM17.848 300h-.727v-4.816l-1.457.535v-.657l2.07-.777h.114V300zm5.843 0h-3.726v-.52l1.969-2.187c.291-.331.492-.599.601-.805.112-.208.168-.423.168-.644 0-.297-.09-.541-.27-.731-.18-.19-.419-.285-.718-.285-.36 0-.64.103-.84.309-.198.203-.297.487-.297.851h-.723c0-.523.168-.946.504-1.269.339-.323.79-.485 1.356-.485.529 0 .947.14 1.254.418.307.276.46.645.46 1.106 0 .56-.356 1.226-1.07 2l-1.523 1.652h2.855v.59zm.856-.379a.45.45 0 0 1 .11-.312c.075-.084.187-.125.335-.125.149 0 .26.041.336.125a.438.438 0 0 1 .117.312c0 .12-.039.22-.117.301-.075.081-.187.121-.336.121-.148 0-.26-.04-.336-.121a.433.433 0 0 1-.11-.301zm81.652.379h-3.726v-.52l1.968-2.187c.292-.331.493-.599.602-.805.112-.208.168-.423.168-.644 0-.297-.09-.541-.27-.731-.179-.19-.419-.285-.718-.285-.36 0-.64.103-.84.309-.198.203-.297.487-.297.851h-.723c0-.523.168-.946.504-1.269.339-.323.791-.485 1.356-.485.528 0 .946.14 1.254.418.307.276.461.645.461 1.106 0 .56-.357 1.226-1.071 2l-1.523 1.652h2.855v.59zm3.817-1.91h.789v.59h-.789V300h-.727v-1.32h-2.59v-.426l2.547-3.942h.77v3.778zm-2.496 0h1.769v-2.789l-.086.156-1.683 2.633zm4.027 1.531c0-.125.036-.229.109-.312.076-.084.188-.125.336-.125.149 0 .261.041.336.125a.438.438 0 0 1 .117.312c0 .12-.039.22-.117.301-.075.081-.187.121-.336.121-.148 0-.26-.04-.336-.121a.432.432 0 0 1-.109-.301z"/><path fill="#F6F6F6" d="M29 90h68v1H29zm85 0h68v1h-68zm-85 19h68v1H29zm85 0h68v1h-68zm-85 19h68v1H29zm85 0h68v1h-68zm-85 19h68v1H29zm85 0h68v1h-68zm-85 19h68v1H29zm85 0h68v1h-68zm-85 19h68v1H29zm85 0h68v1h-68zm-85 19h68v1H29zm85 0h68v1h-68zm-85 19h68v1H29zm85 0h68v1h-68zm-85 19h68v1H29zm85 0h68v1h-68zm-85 19h68v1H29zm85 0h68v1h-68zm-85 19h68v1H29zm85 0h68v1h-68zm-85 19h68v1H29zm85 0h68v1h-68z"/></svg>