<svg xmlns="http://www.w3.org/2000/svg" width="171" height="30" fill="none" viewBox="0 0 171 30"><path fill="#333" d="M40.9 6.808c1.943 0 3.201.543 3.93 1.11v2.787h-1.832V9.028c-.354-.226-1.148-.385-1.943-.385-1.457 0-2.406.544-2.406 1.722 0 1.088.684 1.609 2.494 2.017 2.274.543 3.995 1.223 3.995 3.738 0 2.017-1.059 3.92-4.348 3.92-2.317 0-3.774-.929-4.569-1.767l1.06-1.609c.993.906 2.185 1.518 3.443 1.518 1.567 0 2.428-.747 2.428-1.926 0-1.11-.508-1.586-2.693-2.084-2.516-.567-3.796-1.677-3.796-3.784 0-2.085 1.545-3.58 4.238-3.58zm6.71 12.963V6.921h-1.522V5.175h3.51v6.503c.64-.816 1.566-1.314 2.736-1.314 2.141 0 3.554 1.178 3.554 3.602v5.8H53.9V14.33c-.022-1.405-.662-2.04-1.942-2.04-1.457 0-2.34 1.292-2.362 2.312v5.166H47.61v.003zm11.456 0v-7.413h-1.523v-1.744h3.51v9.154h-1.987v.003zm.817-13.576c.773 0 1.324.68 1.324 1.337 0 .77-.53 1.36-1.324 1.36-.75 0-1.302-.635-1.302-1.36 0-.816.507-1.337 1.302-1.337zm4.635 13.575v-7.412h-1.523v-1.745h3.289l.044 1.27c.64-.952 1.656-1.519 2.914-1.519 2.14 0 3.553 1.178 3.553 3.603v5.8H70.81v-5.37c0-1.427-.64-2.107-1.943-2.107-1.478 0-2.361 1.337-2.361 2.38v5.098h-1.987v.003zm11.456.001v-7.413H74.45v-1.744h3.51v9.154h-1.987v.003zm.817-13.576c.772 0 1.324.68 1.324 1.337 0 .77-.53 1.36-1.324 1.36-.75 0-1.303-.635-1.303-1.36 0-.816.508-1.337 1.303-1.337zm4.635 13.575v-7.412h-1.523v-1.745h3.289l.044 1.27c.64-.952 1.655-1.519 2.914-1.519 2.14 0 3.553 1.178 3.553 3.603v5.8h-1.986v-5.37c0-1.427-.64-2.107-1.943-2.107-1.478 0-2.361 1.337-2.361 2.38v5.098h-1.987v.003zm19.888.387c0 3.104-1.303 4.667-4.084 4.667-1.302 0-2.362-.272-3.554-.974.243-.566.508-1.11.75-1.7.773.5 1.767.794 2.627.794 1.391 0 2.274-.521 2.274-2.357V18.73c-.64.839-1.81 1.314-3.002 1.314-2.715 0-4.613-1.994-4.613-4.849 0-2.719 1.898-4.826 4.591-4.826 1.148 0 2.296.34 3.024 1.292l.088-1.043h1.899v9.54zm-4.768-7.98c-1.678 0-2.848 1.179-2.848 2.992 0 1.835 1.215 3.058 2.87 3.058 1.92 0 2.847-1.518 2.847-3.036 0-1.609-.927-3.013-2.87-3.013zm9.56-5.12h9.183v3.262h-1.788V8.801h-4.062v3.92h4.349v1.7h-4.349v5.347h-2.008V8.801h-1.325V7.057zm17.239 12.715l-.044-1.27c-.64.93-1.633 1.542-2.869 1.542-1.921 0-3.488-.907-3.488-3.422v-6.008h1.965v5.688c.022 1.36.662 1.812 1.765 1.812 1.457 0 2.45-1.246 2.45-2.379v-5.12h1.987v9.153h-1.766v.004zm3.355-9.158h1.854V7.51h1.987v3.104h2.494v1.745h-2.494v4.169c0 1.2.375 1.654 1.17 1.654.419 0 .905-.136 1.17-.317.154.566.264 1.178.397 1.745-.464.271-1.192.43-1.92.43-1.921 0-2.804-.997-2.804-3.15v-4.53H126.7v-1.745zm14.524 9.158l-.044-1.27c-.64.93-1.633 1.542-2.87 1.542-1.92 0-3.487-.907-3.487-3.422v-6.008h1.964v5.688c.023 1.36.663 1.812 1.766 1.812 1.457 0 2.45-1.246 2.45-2.379v-5.12h1.987v9.153h-1.766v.004zm5.055 0v-7.413h-1.523v-1.745H148l.044 1.383c.596-.975 1.457-1.632 2.649-1.632.64 0 1.104.114 1.413.25l-.508 1.97c-.243-.135-.684-.249-1.148-.249-1.434 0-2.185 1.315-2.185 3.513v3.92h-1.986v.003zm15.495-1.066c-.927.952-2.274 1.337-3.775 1.337-2.869 0-4.988-1.88-4.988-4.871 0-3.127 2.273-4.804 4.724-4.804 2.538 0 4.613 1.586 4.613 4.804 0 .226-.022.544-.066.816h-7.196c.287 1.563 1.611 2.243 3.024 2.243.905 0 1.92-.318 2.626-.93l1.038 1.405zm-6.71-4.353h5.275c-.132-1.314-1.081-2.198-2.582-2.198-1.347 0-2.495.861-2.693 2.198zm8.87-1.269c0-1.7 1.412-2.742 3.553-2.742 1.612 0 2.539.43 3.113.951v2.108h-1.722v-1.133c-.287-.159-.773-.272-1.413-.272-.993 0-1.589.362-1.589 1.065 0 .68.442.906 1.965 1.269 1.677.408 3.156.725 3.156 2.832 0 1.133-.64 2.878-3.62 2.878-1.92 0-3.201-.635-3.841-1.156l.817-1.586a5.22 5.22 0 0 0 2.98.974c1.236 0 1.722-.475 1.699-1.133-.022-.589-.463-.657-1.854-1.02-2.229-.611-3.244-1.245-3.244-3.035z"/><path fill="url(#paint0_radial)" d="M16.841 5.325c-.35.152-.7.307-1.05.466-4.31 1.961-8.245 4.195-11.657 6.538C5.297 7.5 9.544 3.917 14.612 3.917c1.659 0 3.229.385 4.632 1.071a81.383 81.383 0 0 1 4.096-2.02A14.313 14.313 0 0 0 14.612 0C6.543 0 0 6.717 0 15c0 .142.003.288.01.43l.003.072c.003.064.006.126.006.188l.019.336c.003.058.006.117.012.175.013.152.026.3.041.45.007.068.016.136.026.204l.038.288.018.139v-.003c.063.424.142.841.24 1.253 3.384-4.18 9.138-8.837 16.428-13.207z"/><path fill="#EAEAEA" d="M29.224 15c0-3.32-1.05-6.386-2.831-8.872a101.947 101.947 0 0 0-3.343 1.965A11.201 11.201 0 0 1 25.41 15c0 6.122-4.834 11.084-10.797 11.084-1.803 0-3.5-.457-4.995-1.26.956-4.013 6.203-9.69 13.884-15.038l-.722.391C13.461 15.347 6.852 22.17 5.916 27.055A14.308 14.308 0 0 0 14.612 30h.035c8.053-.019 14.577-6.73 14.577-15z"/><path fill="url(#paint1_radial)" d="M26.09 4.713c.757-.573 1.413-1.253 1.75-2.162a77.781 77.781 0 0 0-4.805 2.084C12.972 9.397 5.052 15.657 1.318 21.235a15.022 15.022 0 0 0 2.11 3.418c2.447-5.84 10.97-13.417 22.662-19.94z"/><defs><radialGradient id="paint0_radial" cx="0" cy="0" r="1" gradientTransform="matrix(38.881 0 0 39.9131 27.314 -.28)" gradientUnits="userSpaceOnUse"><stop stop-color="#00ACEB"/><stop offset="1" stop-color="#03C"/></radialGradient><radialGradient id="paint1_radial" cx="0" cy="0" r="1" gradientTransform="matrix(38.8811 0 0 39.9133 27.314 -.28)" gradientUnits="userSpaceOnUse"><stop stop-color="#00ACEB"/><stop offset="1" stop-color="#003DD4"/></radialGradient></defs></svg>