<svg xmlns="http://www.w3.org/2000/svg" width="136" height="7" fill="none" viewBox="0 0 136 7"><path fill="#2871C3" d="M130.849.979c.179 0 .358.072.495.215l4.299 4.525a.763.763 0 0 1 0 1.042.675.675 0 0 1-.99 0l-3.804-4.003-3.805 4.003a.675.675 0 0 1-.99 0 .763.763 0 0 1 0-1.042l4.3-4.525a.677.677 0 0 1 .495-.215zm-125 5.998a.68.68 0 0 1-.495-.215l-4.3-4.525a.764.764 0 0 1 0-1.043.677.677 0 0 1 .99 0L5.85 5.198l3.804-4.004a.677.677 0 0 1 .99 0 .764.764 0 0 1 0 1.043l-4.3 4.525a.68.68 0 0 1-.494.215z"/></svg>