<svg xmlns="http://www.w3.org/2000/svg" xmlns:xlink="http://www.w3.org/1999/xlink" width="85.238" height="85.238" viewBox="0 0 85.238 85.238"><defs><linearGradient id="a" x1="0.5" y1="-0.014" x2="0.5" y2="0.866" gradientUnits="objectBoundingBox"><stop offset="0" stop-color="#ffc92c"/><stop offset="1" stop-color="#dc630c"/></linearGradient><linearGradient id="b" x1="0.5" y1="0.134" x2="0.5" y2="1.541" gradientUnits="objectBoundingBox"><stop offset="0" stop-color="#ffdb2c"/><stop offset="1" stop-color="#dc8d0c"/></linearGradient><linearGradient id="c" x1="0.5" y1="0.539" x2="0.5" y2="-0.415" xlink:href="#b"/><linearGradient id="d" x1="0.5" y1="1.003" x2="0.5" y2="-0.136" xlink:href="#b"/><linearGradient id="e" x1="0.5" y1="-0.007" x2="0.5" y2="1.293" xlink:href="#b"/><linearGradient id="f" x1="0.5" y1="15.623" x2="0.5" y2="-6.453" gradientUnits="objectBoundingBox"><stop offset="0" stop-color="#ffdb2c"/><stop offset="1" stop-color="#fff"/></linearGradient><linearGradient id="g" x1="0.5" y1="18.562" x2="0.5" y2="-6.053" xlink:href="#f"/><linearGradient id="h" x1="0.5" y1="15.518" x2="0.5" y2="-3.792" xlink:href="#f"/><linearGradient id="i" x1="0.5" y1="16.516" x2="0.5" y2="-2.591" xlink:href="#f"/><linearGradient id="j" x1="0.5" y1="17.368" x2="0.5" y2="-2.124" xlink:href="#f"/><linearGradient id="k" x1="0.5" y1="16.932" x2="0.5" y2="-1.644" xlink:href="#f"/><linearGradient id="l" x1="0.5" y1="18.385" x2="0.5" y2="-1.543" xlink:href="#f"/><linearGradient id="m" x1="0.5" y1="18.82" x2="0.5" y2="-1.481" xlink:href="#f"/><linearGradient id="n" x1="0.5" y1="18.616" x2="0.5" y2="-1.468" xlink:href="#f"/><linearGradient id="o" x1="0.5" y1="17.66" x2="0.5" y2="-1.54" xlink:href="#f"/><linearGradient id="p" x1="0.5" y1="17.053" x2="0.5" y2="-1.769" xlink:href="#f"/><linearGradient id="q" x1="0.5" y1="17.332" x2="0.5" y2="-2.677" xlink:href="#f"/><linearGradient id="r" x1="0.5" y1="18.325" x2="0.5" y2="-3.769" xlink:href="#f"/><linearGradient id="s" x1="0.5" y1="15.226" x2="0.5" y2="-3.984" xlink:href="#f"/><linearGradient id="t" x1="0.5" y1="16.316" x2="0.5" y2="-5.556" xlink:href="#f"/><linearGradient id="u" x1="0.5" y1="15.684" x2="0.5" y2="-6.806" xlink:href="#f"/><linearGradient id="v" x1="0.5" y1="6.587" x2="0.5" y2="-16.048" xlink:href="#f"/><linearGradient id="w" x1="0.5" y1="6.002" x2="0.5" y2="-19.115" xlink:href="#f"/><linearGradient id="x" x1="0.5" y1="3.899" x2="0.5" y2="-15.66" xlink:href="#f"/><linearGradient id="y" x1="0.5" y1="2.625" x2="0.5" y2="-16.606" xlink:href="#f"/><linearGradient id="z" x1="0.5" y1="2.096" x2="0.5" y2="-17.47" xlink:href="#f"/><linearGradient id="aa" x1="0.5" y1="1.618" x2="0.5" y2="-16.857" xlink:href="#f"/><linearGradient id="ab" x1="0.5" y1="1.41" x2="0.5" y2="-18.564" xlink:href="#f"/><linearGradient id="ac" x1="0.5" y1="1.287" x2="0.5" y2="-18.947" xlink:href="#f"/><linearGradient id="ad" x1="0.5" y1="1.262" x2="0.5" y2="-18.974" xlink:href="#f"/><linearGradient id="ae" x1="0.5" y1="1.346" x2="0.5" y2="-18" xlink:href="#f"/><linearGradient id="af" x1="0.5" y1="1.561" x2="0.5" y2="-17.322" xlink:href="#f"/><linearGradient id="ag" x1="0.5" y1="2.315" x2="0.5" y2="-17.531" xlink:href="#f"/><linearGradient id="ah" x1="0.5" y1="3.207" x2="0.5" y2="-18.612" xlink:href="#f"/><linearGradient id="ai" x1="0.5" y1="3.589" x2="0.5" y2="-15.396" xlink:href="#f"/><linearGradient id="aj" x1="0.5" y1="4.89" x2="0.5" y2="-16.536" xlink:href="#f"/><linearGradient id="ak" x1="0.5" y1="6.024" x2="0.5" y2="-15.918" xlink:href="#f"/><linearGradient id="al" x1="0.5" y1="2.125" x2="0.5" y2="-0.781" xlink:href="#f"/><linearGradient id="am" x1="0.5" y1="23.857" x2="0.5" y2="-12.744" xlink:href="#f"/><linearGradient id="an" x1="0.5" y1="3.51" x2="0.5" y2="-1.875" xlink:href="#f"/><linearGradient id="ao" x1="0.5" y1="22.413" x2="0.5" y2="-14.188" xlink:href="#f"/><linearGradient id="ap" x1="0.5" y1="20.982" x2="0.5" y2="-15.622" xlink:href="#f"/><linearGradient id="aq" x1="0.5" y1="19.525" x2="0.5" y2="-17.076" xlink:href="#f"/><linearGradient id="ar" x1="0.5" y1="18.062" x2="0.5" y2="-18.543" xlink:href="#f"/><linearGradient id="as" x1="0.5" y1="1.349" x2="0.5" y2="-0.496" xlink:href="#f"/><linearGradient id="aw" x1="0.5" y1="4.292" x2="0.5" y2="-5.174" xlink:href="#f"/><linearGradient id="ax" x1="0.5" y1="1.841" x2="0.5" y2="-2.6" xlink:href="#f"/><linearGradient id="ay" x1="0.5" y1="1.378" x2="0.5" y2="-3.982" xlink:href="#f"/><linearGradient id="az" x1="0.5" y1="1.756" x2="0.5" y2="-1.536" xlink:href="#f"/><linearGradient id="ba" x1="0.5" y1="3.883" x2="0.5" y2="-5.481" xlink:href="#f"/><linearGradient id="bc" x1="0.5" y1="3.885" x2="0.5" y2="-5.478" xlink:href="#f"/><linearGradient id="bf" x1="0.5" y1="1.689" x2="0.5" y2="-1.326" xlink:href="#f"/><linearGradient id="bg" x1="0.5" y1="1.571" x2="0.5" y2="-1.447" xlink:href="#f"/><linearGradient id="bh" x1="0.5" y1="1.452" x2="0.5" y2="-1.565" xlink:href="#f"/><linearGradient id="bi" x1="0.5" y1="5.033" x2="0.5" y2="-31.568" xlink:href="#f"/><linearGradient id="bj" x1="0.5" y1="1.742" x2="0.5" y2="-2.203" xlink:href="#f"/><linearGradient id="bk" x1="0.5" y1="3.568" x2="0.5" y2="-33.033" xlink:href="#f"/><linearGradient id="bl" x1="0.5" y1="2.767" x2="0.5" y2="-4.111" xlink:href="#f"/><linearGradient id="bm" x1="0.5" y1="3.72" x2="0.5" y2="-1.657" xlink:href="#f"/><linearGradient id="bn" x1="0.5" y1="3.598" x2="0.5" y2="-0.843" xlink:href="#f"/><linearGradient id="bo" x1="0.5" y1="4.791" x2="0.5" y2="-0.594" xlink:href="#f"/><linearGradient id="bp" x1="0.5" y1="6.392" x2="0.5" y2="-4.268" xlink:href="#f"/><linearGradient id="bq" x1="0.5" y1="4.806" x2="0.5" y2="-2.714" xlink:href="#f"/><linearGradient id="br" x1="0.5" y1="1.028" x2="0.5" y2="-6.461" xlink:href="#f"/><linearGradient id="bs" x1="0.5" y1="1.467" x2="0.5" y2="-9.226" xlink:href="#f"/><linearGradient id="bu" x1="0.5" y1="7.931" x2="0.5" y2="-28.669" xlink:href="#f"/><linearGradient id="bv" x1="0.5" y1="5.023" x2="0.5" y2="-31.581" xlink:href="#f"/><linearGradient id="bw" x1="0.5" y1="3.073" x2="0.5" y2="-1.369" xlink:href="#f"/><linearGradient id="bx" x1="0.5" y1="2.921" x2="0.5" y2="-0.362" xlink:href="#f"/><linearGradient id="by" x1="0.5" y1="25.322" x2="0.5" y2="-11.279" xlink:href="#f"/><linearGradient id="bz" x1="0.5" y1="6.083" x2="0.5" y2="-0.754" xlink:href="#f"/><linearGradient id="ca" x1="0.5" y1="6.549" x2="0.5" y2="-0.915" xlink:href="#f"/><linearGradient id="cb" x1="0.5" y1="15.314" x2="0.5" y2="-3.94" xlink:href="#f"/><linearGradient id="cc" x1="0.5" y1="10.82" x2="0.5" y2="-25.784" xlink:href="#f"/><linearGradient id="cd" x1="0.5" y1="9.376" x2="0.5" y2="-27.228" xlink:href="#f"/><linearGradient id="ce" x1="0.5" y1="6.819" x2="0.5" y2="-42.773" xlink:href="#f"/><linearGradient id="cf" x1="0.5" y1="28.21" x2="0.5" y2="-8.391" xlink:href="#f"/><linearGradient id="cg" x1="0.5" y1="6.293" x2="0.5" y2="-0.139" xlink:href="#f"/><linearGradient id="ch" x1="0.5" y1="31.119" x2="0.5" y2="-5.482" xlink:href="#f"/><linearGradient id="ci" x1="0.5" y1="6.466" x2="0.5" y2="-30.134" xlink:href="#f"/><linearGradient id="cj" x1="0.5" y1="7.627" x2="0.5" y2="-1.787" xlink:href="#f"/></defs><g transform="translate(-130.875 -86.004)"><circle cx="42.619" cy="42.619" r="42.619" transform="translate(130.875 86.004)" fill="url(#a)"/><circle cx="41.915" cy="41.915" r="41.915" transform="translate(131.579 86.707)" fill="url(#b)"/><circle cx="33.067" cy="33.067" r="33.067" transform="translate(140.428 95.556)" fill="url(#c)"/><circle cx="32.179" cy="32.179" r="32.179" transform="translate(141.315 96.444)" fill="url(#d)"/><circle cx="31.396" cy="31.396" r="31.396" transform="translate(142.098 97.226)" fill="url(#e)"/><g transform="translate(139.126 89.635)"><path d="M181.706,225.5l.41-.715,2.488.69.006-.01-2.171-1.244.291-.508,3.626,2.078-.336.585-3.039-.833-.006.01,2.647,1.517-.291.508Z" transform="translate(-181.706 -204.99)" fill="url(#f)"/><path d="M203.318,202.514l-1.742-1.339a1,1,0,1,1,1.215-1.581l1.742,1.339a1,1,0,1,1-1.215,1.581Zm.848-1.035-1.808-1.39c-.237-.182-.407-.147-.534.019s-.118.339.119.521l1.808,1.39c.237.182.407.147.534-.019S204.4,201.662,204.166,201.48Z" transform="translate(-197.958 -184.56)" fill="url(#g)"/><path d="M219.909,174.728l.585-.58,2.215,1.328.008-.008-1.761-1.777.415-.412,2.942,2.969-.479.475-2.707-1.613-.009.008,2.148,2.168-.416.412Z" transform="translate(-213.708 -162.744)" fill="url(#h)"/><path d="M262.488,142.233l1.475-.918.315.507-.918.571.615.989.72-.448.315.507-.72.448.962,1.546-.558.347Z" transform="translate(-249.376 -135.969)" fill="url(#i)"/><path d="M289.7,131.024l-1.32-2.9.6-.272,1.34,2.946c.124.272.282.318.472.231s.26-.236.136-.508l-1.34-2.946.576-.262,1.32,2.9a.982.982,0,1,1-1.783.811Z" transform="translate(-271.062 -124.238)" fill="url(#j)"/><path d="M318.309,117.143l.789-.236,1.329,2.214.011,0-.716-2.4.56-.168,1.2,4-.646.193-1.629-2.7-.011,0,.873,2.923-.56.168Z" transform="translate(-296.137 -115.226)" fill="url(#k)"/><path d="M351.207,114.108l-.342-2.17a.982.982,0,1,1,1.935-.3l.056.354-.613.1-.062-.4c-.046-.295-.194-.386-.4-.354s-.318.165-.272.46l.356,2.259c.046.295.193.381.4.348s.319-.159.273-.454l-.127-.808-.324.051-.093-.59.938-.148.213,1.351a.982.982,0,1,1-1.935.3Z" transform="translate(-323.39 -110.347)" fill="url(#l)"/><path d="M381.414,108.4l.656-.028.179,4.176-.656.028Z" transform="translate(-348.999 -108.376)" fill="url(#m)"/><path d="M403.868,108.455l.988.073a.841.841,0,0,1,.9,1.03l-.013.167c-.031.429-.182.687-.483.785v.012c.343.145.457.465.424.905l-.026.357a.889.889,0,0,1-1.067.915l-1.03-.076Zm.767,3.649c.22.016.347-.076.37-.386l.027-.363c.029-.387-.088-.515-.385-.537l-.292-.022-.094,1.28Zm.019-1.884c.244.018.4-.078.425-.412l.017-.232c.022-.3-.07-.436-.3-.453l-.316-.023-.081,1.1Z" transform="translate(-367.551 -108.442)" fill="url(#n)"/><path d="M432.975,112.2l.643.133-.724,3.508,1.058.218-.121.585-1.7-.351Z" transform="translate(-391.483 -111.578)" fill="url(#o)"/><path d="M459.264,119.449l1.694.58-.193.565-1.073-.367-.358,1.045.853.292-.193.565-.853-.292-.416,1.214,1.073.367-.193.565-1.694-.58Z" transform="translate(-413.079 -117.652)" fill="url(#p)"/><path d="M505.66,141.248l-.585-.359.312-.509,1.73,1.061-.312.509-.585-.359-1.873,3.054-.56-.343Z" transform="translate(-451.509 -135.185)" fill="url(#q)"/><path d="M525.783,161.87l1.38-1.71a1,1,0,1,1,1.552,1.253l-1.38,1.71a1,1,0,1,1-1.552-1.253Zm1.014.873,1.433-1.775c.188-.232.157-.4-.006-.534s-.336-.126-.524.107l-1.432,1.775c-.187.232-.156.4.006.534S526.61,162.975,526.8,162.743Z" transform="translate(-469.692 -151.378)" fill="url(#r)"/><path d="M548.245,179.067l.451.477-1.279,1.211,1.854-.6.451.477-1.652.487-1.375,2.395-.472-.5.971-1.683-.567.174-.967.915-.451-.477Z" transform="translate(-486.208 -167.593)" fill="url(#s)"/><path d="M567.737,203.589l1.05,1.451-.483.35-.665-.919-.894.648.529.73-.484.35-.529-.73-1.04.753.665.919-.483.35-1.05-1.451Z" transform="translate(-502.243 -188.135)" fill="url(#t)"/><path d="M583.144,229.139l.39.726-1.9,1.748.006.011,2.2-1.185.277.515-3.681,1.98-.32-.594,2.314-2.14-.006-.01-2.687,1.445-.277-.515Z" transform="translate(-514.902 -209.538)" fill="url(#u)"/><path d="M585.1,444.72l-.384.729-2.511-.6-.006.011,2.214,1.166-.273.518-3.7-1.948.314-.6,3.067.724.006-.011-2.7-1.422.273-.518Z" transform="translate(-515.724 -388.495)" fill="url(#v)"/><path d="M568.148,470.4l1.789,1.276a1,1,0,1,1-1.158,1.624l-1.789-1.276a1,1,0,1,1,1.158-1.624Zm-.811,1.065,1.857,1.325c.243.173.412.132.533-.038s.105-.343-.138-.516l-1.857-1.324c-.243-.173-.412-.133-.533.038S567.094,471.287,567.337,471.461Z" transform="translate(-504.036 -411.427)" fill="url(#w)"/><path d="M549.834,493.844l-.564.6L547.01,493.2l-.008.009,1.823,1.713-.4.426-3.046-2.862.462-.492,2.763,1.515.008-.009-2.223-2.089.4-.427Z" transform="translate(-486.349 -428.88)" fill="url(#x)"/><path d="M516.673,527.476l-1.441.97-.333-.5.9-.6-.65-.966-.7.473-.334-.5.7-.473-1.017-1.511.545-.367Z" transform="translate(-459.892 -456.546)" fill="url(#y)"/><path d="M487.586,540.094l1.424,2.853-.588.293-1.445-2.9c-.133-.267-.293-.307-.48-.214s-.251.246-.118.513l1.445,2.9-.566.282-1.424-2.852a.982.982,0,1,1,1.752-.875Z" transform="translate(-436.34 -469.489)" fill="url(#z)"/><path d="M459.743,553.706l-.78.264-1.407-2.165-.011,0,.8,2.369-.554.188-1.34-3.959.639-.216,1.725,2.637.011,0-.978-2.89.554-.188Z" transform="translate(-411.857 -478.107)" fill="url(#aa)"/><path d="M431.469,559.536l.418,2.157a.982.982,0,1,1-1.922.373l-.068-.352.61-.118.076.393c.057.293.207.379.413.34s.312-.176.256-.469l-.435-2.245c-.057-.293-.207-.373-.411-.334s-.314.17-.257.463l.156.8.322-.062.114.586-.932.181-.26-1.342a.982.982,0,1,1,1.922-.373Z" transform="translate(-389.292 -485.577)" fill="url(#ab)"/><path d="M409,566.51l-.655.051-.327-4.166.655-.051Z" transform="translate(-371.283 -488.659)" fill="url(#ac)"/><path d="M380.085,567.2l-.99-.037c-.68-.026-.961-.353-.936-1l.006-.167c.016-.429.158-.693.455-.8v-.012c-.348-.133-.473-.448-.456-.89l.013-.358a.889.889,0,0,1,1.034-.953l1.032.039Zm-.848-1.735c-.245-.009-.4.093-.41.427l-.009.233c-.011.3.085.433.318.442l.316.012.042-1.1Zm-.048-1.884c-.221-.008-.344.088-.356.4l-.014.364c-.015.388.106.512.4.523l.292.011.049-1.283Z" transform="translate(-346.27 -489.195)" fill="url(#ad)"/><path d="M352.291,563.609l-.648-.11.6-3.532-1.066-.18.1-.589,1.713.29Z" transform="translate(-323.668 -486.024)" fill="url(#ae)"/><path d="M320.037,556.845l-1.715-.519.173-.571,1.086.329.32-1.057-.863-.261.173-.572.863.261.372-1.229-1.086-.328.173-.571,1.714.519Z" transform="translate(-296.147 -480.267)" fill="url(#af)"/><path d="M271.34,537.9l.6.338-.294.52-1.767-1,.294-.52.6.338,1.763-3.119.572.323Z" transform="translate(-255.566 -465.296)" fill="url(#ag)"/><path d="M249.582,520.171l-1.318,1.758a1,1,0,1,1-1.6-1.2l1.318-1.758a1,1,0,1,1,1.6,1.2Zm-1.045-.836-1.368,1.825c-.179.239-.142.408.025.534s.34.114.52-.125l1.368-1.825c.179-.239.142-.408-.025-.534S248.717,519.1,248.537,519.336Z" transform="translate(-235.902 -451.929)" fill="url(#ah)"/><path d="M221.269,500.888l-.468-.461,1.235-1.256-1.831.67-.468-.461,1.634-.546,1.288-2.442.489.481-.91,1.717.56-.195.933-.949.468.461Z" transform="translate(-213.564 -433.413)" fill="url(#ai)"/><path d="M201.324,479.779l-1.1-1.412.471-.367.7.894.871-.68-.555-.711.471-.367.555.711,1.012-.79-.7-.894.471-.367,1.1,1.412Z" transform="translate(-197.217 -416.159)" fill="url(#aj)"/><path d="M183.8,455.334l-.416-.711,1.836-1.815-.006-.01-2.159,1.264-.3-.5,3.607-2.112.341.582-2.235,2.222.006.01,2.633-1.541.3.5Z" transform="translate(-182.589 -395.76)" fill="url(#ak)"/></g><g transform="translate(144.148 97.333)"><path d="M214.955,269.775a.837.837,0,0,0,.055-1.666v-8.817l4.549-4.819v-4.046a.789.789,0,1,0-.11,0v4l-4.549,4.819v8.865a.837.837,0,0,0,.055,1.666Zm4.037-20.179a.513.513,0,1,1,.512.542A.528.528,0,0,1,218.991,249.6Zm-4.037,18.8a.543.543,0,1,1-.512.542A.528.528,0,0,1,214.955,268.4Z" transform="translate(-213.921 -233.674)" fill="url(#al)"/><path d="M299.231,280.334a.809.809,0,0,0,.785-.776h3.012a.836.836,0,1,0,0-.117h-3.012a.79.79,0,1,0-.785.893Zm4.582-1.376a.543.543,0,1,1-.512.542A.528.528,0,0,1,303.812,278.957Zm-4.582,0a.543.543,0,1,1-.512.542A.528.528,0,0,1,299.231,278.957Z" transform="translate(-284.517 -258.723)" fill="url(#am)"/><path d="M261.07,280.14a.758.758,0,0,0,.5.194.836.836,0,1,0-.788-.834.858.858,0,0,0,.2.559l-4.054,4.235v4.047a.789.789,0,1,0,.11,0v-4Zm.5-1.183a.543.543,0,1,1-.512.542A.528.528,0,0,1,261.573,278.957Zm-4.07,10.215a.513.513,0,1,1-.512-.542A.528.528,0,0,1,257.5,289.172Z" transform="translate(-249.134 -258.723)" fill="url(#an)"/><path d="M299.231,295.178a.809.809,0,0,0,.785-.776h3.012a.836.836,0,1,0,0-.117h-3.012a.79.79,0,1,0-.785.893Zm4.582-1.376a.543.543,0,1,1-.512.542A.528.528,0,0,1,303.812,293.8Zm-4.582,0a.543.543,0,1,1-.512.542A.528.528,0,0,1,299.231,293.8Z" transform="translate(-284.517 -271.158)" fill="url(#ao)"/><path d="M299.129,309.907a.808.808,0,0,0,.785-.776h3.012a.836.836,0,1,0,0-.117h-3.012a.79.79,0,1,0-.785.893Zm4.582-1.376a.543.543,0,1,1-.512.542A.528.528,0,0,1,303.71,308.531Zm-4.582,0a.543.543,0,1,1-.512.542A.528.528,0,0,1,299.129,308.531Z" transform="translate(-284.432 -283.497)" fill="url(#ap)"/><path d="M299.129,324.866a.809.809,0,0,0,.785-.776h3.012a.836.836,0,1,0,0-.117h-3.012a.79.79,0,1,0-.785.893Zm4.582-1.376a.543.543,0,1,1-.512.542A.528.528,0,0,1,303.71,323.489Zm-4.582,0a.543.543,0,1,1-.512.542A.528.528,0,0,1,299.129,323.489Z" transform="translate(-284.432 -296.027)" fill="url(#aq)"/><path d="M299.129,339.925a.808.808,0,0,0,.785-.776h3.012a.836.836,0,1,0,0-.117h-3.012a.79.79,0,1,0-.785.892Zm4.582-1.376a.543.543,0,1,1-.512.542A.528.528,0,0,1,303.71,338.549Zm-4.582,0a.543.543,0,1,1-.512.542A.528.528,0,0,1,299.129,338.549Z" transform="translate(-284.432 -308.642)" fill="url(#ar)"/><path d="M310.682,267.454l.021-.018V250.428a.789.789,0,1,0-.11,0V267.38l-11.4,9.655-.021.018v3.139a.789.789,0,1,0,.11,0v-3.083Zm-.546-17.857a.513.513,0,1,1,.512.542A.528.528,0,0,1,310.135,249.6Zm-10.393,31.427a.513.513,0,1,1-.512-.542A.528.528,0,0,1,299.742,281.023Z" transform="translate(-284.517 -233.674)" fill="url(#as)"/><path d="M324.8,268.33l.02-.018V250.428a.789.789,0,1,0-.11,0v17.829c-3,2.6-10.665,9.231-11.343,9.63a.055.055,0,0,0-.035-.008c-.032,0-.051.021-.054.061h0v.005s0,.007,0,.011v.01c0,.2.01,1.446.015,2.225a.788.788,0,1,0,.11,0l-.014-2.151c0-.015,0-.028,0-.04.222-.115,1.155-.837,5.769-4.8C321.954,270.8,324.768,268.354,324.8,268.33Zm-.547-18.733a.513.513,0,1,1,.512.542A.528.528,0,0,1,324.249,249.6Zm-10.393,31.427a.513.513,0,1,1-.512-.542A.528.528,0,0,1,313.856,281.023Z" transform="translate(-296.34 -233.674)" fill="url(#as)"/><path d="M296.67,266.577l.021-.018V250.428a.789.789,0,1,0-.11,0V266.5l-11.4,9.655-.021.018v4.015a.789.789,0,1,0,.11,0v-3.959Zm-.546-16.981a.513.513,0,1,1,.512.542A.528.528,0,0,1,296.124,249.6ZM285.73,281.023a.513.513,0,1,1-.512-.542A.528.528,0,0,1,285.73,281.023Z" transform="translate(-272.78 -233.674)" fill="url(#as)"/><path d="M327.339,278.788l-.02.017-.015,1.387a.789.789,0,1,0,.11,0l.015-1.33,11.38-9.655.021-.018V250.428a.789.789,0,1,0-.11,0v18.705Zm.53,2.235a.513.513,0,1,1-.512-.542A.528.528,0,0,1,327.868,281.023ZM338.261,249.6a.513.513,0,1,1,.512.542A.528.528,0,0,1,338.261,249.6Z" transform="translate(-308.078 -233.674)" fill="url(#as)"/><path d="M271.207,359.768a.809.809,0,0,0,.785-.776h2.5l5.24-4.293a.767.767,0,0,0,.591.285.836.836,0,1,0-.788-.834.865.865,0,0,0,.13.457l-5.211,4.268h-2.46a.79.79,0,1,0-.785.893Zm9.114-6.16a.543.543,0,1,1-.512.542A.528.528,0,0,1,280.32,353.608Zm-9.114,4.784a.543.543,0,1,1-.512.542A.528.528,0,0,1,271.207,358.392Z" transform="translate(-261.042 -321.257)" fill="url(#aw)"/><path d="M257.779,368.778a.789.789,0,1,0-.843.831v10.419a.789.789,0,1,0,.11,0V369.61A.816.816,0,0,0,257.779,368.778ZM257.5,380.86a.513.513,0,1,1-.512-.542A.528.528,0,0,1,257.5,380.86Zm-.512-11.54a.543.543,0,1,1,.512-.542A.528.528,0,0,1,256.991,369.32Z" transform="translate(-249.134 -333.511)" fill="url(#ax)"/><path d="M374.859,428.042a.789.789,0,1,0-.843.831l0,8.836h-3.742a.836.836,0,1,0,0,.117h3.852l0-8.953A.816.816,0,0,0,374.859,428.042Zm-5.365,10.268a.543.543,0,1,1,.512-.542A.528.528,0,0,1,369.495,438.31Zm4.577-9.726a.543.543,0,1,1,.512-.542A.528.528,0,0,1,374.072,428.584Z" transform="translate(-343.377 -383.156)" fill="url(#ay)"/><path d="M411.735,341.748a.837.837,0,0,0,.055-1.666v-8.764l4.565-4.818.015-1.638a.789.789,0,1,0-.11,0l-.015,1.589-4.565,4.819v8.812a.837.837,0,0,0,.055,1.666Zm4.07-17.717a.513.513,0,1,1,.512.542A.528.528,0,0,1,415.8,324.031Zm-4.07,16.34a.543.543,0,1,1-.512.542A.528.528,0,0,1,411.735,340.372Z" transform="translate(-378.761 -296.027)" fill="url(#az)"/><path d="M495.324,373.578a.789.789,0,1,0,.843-.831v-3.191a.789.789,0,1,0-.11,0v3.191A.816.816,0,0,0,495.324,373.578Zm.276-4.854a.513.513,0,1,1,.512.542A.528.528,0,0,1,495.6,368.724Zm.512,4.312a.543.543,0,1,1-.512.542A.528.528,0,0,1,496.112,373.036Z" transform="translate(-449.442 -333.466)" fill="url(#ba)"/><path d="M482.887,368.724a.789.789,0,1,0-.843.831v3.191a.789.789,0,1,0,.11,0v-3.191A.816.816,0,0,0,482.887,368.724Zm-.276,4.854a.513.513,0,1,1-.512-.542A.528.528,0,0,1,482.611,373.578Zm-.512-4.312a.543.543,0,1,1,.512-.542A.528.528,0,0,1,482.1,369.267Z" transform="translate(-437.704 -333.466)" fill="url(#ba)"/><path d="M468.983,368.617a.789.789,0,1,0-.843.831v3.191a.789.789,0,1,0,.11,0v-3.191A.816.816,0,0,0,468.983,368.617Zm-.276,4.854a.513.513,0,1,1-.512-.542A.528.528,0,0,1,468.707,373.471Zm-.512-4.312a.543.543,0,1,1,.512-.542A.528.528,0,0,1,468.2,369.159Z" transform="translate(-426.057 -333.376)" fill="url(#bc)"/><path d="M454.863,368.617a.789.789,0,1,0-.843.831v3.191a.789.789,0,1,0,.11,0v-3.191A.816.816,0,0,0,454.863,368.617Zm-.276,4.854a.513.513,0,1,1-.512-.542A.528.528,0,0,1,454.587,373.471Zm-.512-4.312a.543.543,0,1,1,.512-.542A.528.528,0,0,1,454.076,369.159Z" transform="translate(-414.229 -333.376)" fill="url(#bc)"/><path d="M439.072,373.471a.789.789,0,1,0,.843-.831v-3.191a.789.789,0,1,0-.11,0v3.191A.816.816,0,0,0,439.072,373.471Zm.276-4.854a.513.513,0,1,1,.512.542A.528.528,0,0,1,439.348,368.617Zm.512,4.312a.543.543,0,1,1-.512.542A.528.528,0,0,1,439.86,372.929Z" transform="translate(-402.32 -333.376)" fill="url(#bc)"/><path d="M440.013,331.719a.836.836,0,1,0,.785.892l10.612-.07h.055V313.25h11.222l-.022-.117H451.354v19.292l-10.556.069A.809.809,0,0,0,440.013,331.719Zm0,1.376a.543.543,0,1,1,.512-.542A.528.528,0,0,1,440.013,333.1Z" transform="translate(-402.449 -287.596)" fill="url(#bf)"/><path d="M453.628,347.43H440.8a.836.836,0,1,0,0,.117h12.941V328.2h9.291c0-.039-.008-.078-.012-.117h-9.389Zm-13.616.6a.543.543,0,1,1,.512-.542A.528.528,0,0,1,440.013,348.03Z" transform="translate(-402.449 -300.122)" fill="url(#bg)"/><path d="M439.911,363.052a.809.809,0,0,0,.785-.776h15.232V342.931H463.1c0-.039,0-.078,0-.117h-7.275v19.345H440.7a.79.79,0,1,0-.785.893Zm0-1.376a.543.543,0,1,1-.512.542A.528.528,0,0,1,439.911,361.675Z" transform="translate(-402.364 -312.46)" fill="url(#bh)"/><path d="M439.911,473.844a.809.809,0,0,0,.785-.776h14.394l.1-.117H440.7a.79.79,0,1,0-.785.893Zm0-1.377a.543.543,0,1,1-.512.542A.528.528,0,0,1,439.911,472.467Z" transform="translate(-402.364 -420.824)" fill="url(#bi)"/><path d="M561.136,357.773H556.19v15.484l.11-.173V357.89h4.831C561.133,357.851,561.134,357.812,561.136,357.773Z" transform="translate(-500.429 -324.991)" fill="url(#bj)"/><path d="M439.911,488.9a.808.808,0,0,0,.785-.776l11.96-.011.13-.117-12.09.011a.79.79,0,1,0-.785.893Zm0-1.376a.543.543,0,1,1-.512.542A.528.528,0,0,1,439.911,487.526Z" transform="translate(-402.364 -433.439)" fill="url(#bk)"/><path d="M570.2,372.559v8.879c.037-.083.074-.166.11-.25v-8.511l2.339.026c.005-.039.01-.078.015-.117Z" transform="translate(-512.166 -337.377)" fill="url(#bl)"/><path d="M468.14,273.3a.789.789,0,1,0,.11,0l-.033-8.8h6.016a.836.836,0,1,0,0-.117h-6.127Zm6.878-9.4a.543.543,0,1,1-.512.542A.528.528,0,0,1,475.018,263.9Zm-6.31,10.232a.513.513,0,1,1-.512-.542A.528.528,0,0,1,468.707,274.13Z" transform="translate(-426.057 -246.108)" fill="url(#bm)"/><path d="M439.174,231.99a.789.789,0,1,0,.843-.831V220.74a.789.789,0,1,0-.11,0v10.419A.816.816,0,0,0,439.174,231.99Zm.276-12.082a.513.513,0,1,1,.512.542A.528.528,0,0,1,439.45,219.908Zm.512,11.54a.543.543,0,1,1-.512.542A.528.528,0,0,1,439.962,231.448Z" transform="translate(-402.406 -208.804)" fill="url(#bn)"/><path d="M429.544,190.064a.836.836,0,1,0,0-.117h-3.852v8.9a.789.789,0,1,0,.11,0v-8.783Zm.785-.6a.543.543,0,1,1-.512.542A.528.528,0,0,1,430.328,189.463Zm-4.07,10.215a.513.513,0,1,1-.512-.542A.528.528,0,0,1,426.258,199.678Z" transform="translate(-390.498 -183.755)" fill="url(#bo)"/><path d="M496.056,302.352a.789.789,0,1,0,.11,0v-3.947h12.977q-.015-.058-.031-.117H496.056Zm.567.831a.513.513,0,1,1-.512-.542A.528.528,0,0,1,496.623,303.184Z" transform="translate(-449.442 -275.162)" fill="url(#bp)"/><path d="M482.1,289.9a.789.789,0,1,0,.11,0l-.009-6.338h14.509l-.042-.117H482.09Zm.567.831a.513.513,0,1,1-.512-.542A.528.528,0,0,1,482.665,290.732Z" transform="translate(-437.75 -262.727)" fill="url(#bq)"/><path d="M339.692,480.311l-22.587.011-3.722-3.926.015-2.448a.789.789,0,1,0-.11,0l-.016,2.5,3.771,3.977.016.017,22.395-.011Zm-26.859-7.194a.513.513,0,1,1,.512.542A.528.528,0,0,1,312.833,473.117Z" transform="translate(-296.34 -420.914)" fill="url(#br)"/><path d="M327.3,473.949l.015,1.587,2.306,2.459h25.709l.167-.117H329.67l-2.242-2.39-.015-1.539a.789.789,0,1,0-.11,0Zm.054-1.374a.543.543,0,1,1-.512.542A.528.528,0,0,1,327.357,472.575Z" transform="translate(-308.078 -420.914)" fill="url(#bs)"/><path d="M285.219,473.844a.809.809,0,0,0,.785-.776h.7a.836.836,0,1,0,0-.117H286a.79.79,0,1,0-.785.893Zm2.274-1.377a.543.543,0,1,1-.512.542A.528.528,0,0,1,287.493,472.467Zm-2.274,0a.543.543,0,1,1-.512.542A.528.528,0,0,1,285.219,472.467Z" transform="translate(-272.78 -420.824)" fill="url(#bi)"/><path d="M343.731,442.379a.809.809,0,0,0-.785.776h-.7a.836.836,0,1,0,0,.117h.7a.79.79,0,1,0,.785-.893Zm-2.274,1.376a.543.543,0,1,1,.512-.542A.528.528,0,0,1,341.457,443.755Zm2.274,0a.543.543,0,1,1,.512-.542A.528.528,0,0,1,343.731,443.755Z" transform="translate(-319.89 -395.864)" fill="url(#bu)"/><path d="M343.731,472.283a.808.808,0,0,0-.785.776h-.7a.836.836,0,1,0,0,.117h.7a.79.79,0,1,0,.785-.892Zm-2.274,1.376a.543.543,0,1,1,.512-.542A.528.528,0,0,1,341.457,473.659Zm2.274,0a.543.543,0,1,1,.512-.542A.528.528,0,0,1,343.731,473.659Z" transform="translate(-319.89 -420.914)" fill="url(#bv)"/><path d="M414.811,264.44a.789.789,0,1,0-.843.831l0,3.842-2.276,2.549-.015.017v4.01a.789.789,0,1,0,.11,0v-3.963l2.276-2.549.015-.017,0-3.888A.817.817,0,0,0,414.811,264.44Zm-2.564,12.081a.513.513,0,1,1-.512-.542A.528.528,0,0,1,412.246,276.521Zm1.777-11.539a.543.543,0,1,1,.512-.542A.528.528,0,0,1,414.023,264.982Z" transform="translate(-378.761 -246.108)" fill="url(#bw)"/><path d="M453.935,199.636l-.016.017v6.456a.789.789,0,1,0,.11,0V199.7l2.308-2.409v-6.456a.789.789,0,1,0-.11,0v6.407Zm.55,7.3a.513.513,0,1,1-.512-.542A.528.528,0,0,1,454.485,206.941Zm1.285-16.935a.513.513,0,1,1,.512.542A.528.528,0,0,1,455.77,190.005Z" transform="translate(-414.143 -183.755)" fill="url(#bx)"/><path d="M538.25,263.606a.836.836,0,1,0,.785.893h3.685l-.053-.117h-3.632A.809.809,0,0,0,538.25,263.606Zm0,1.376a.543.543,0,1,1,.512-.542A.528.528,0,0,1,538.25,264.982Z" transform="translate(-484.74 -246.108)" fill="url(#by)"/><path d="M496.9,190.005a.789.789,0,1,0-.822.832c.008.687,0,3.787,0,5.6a.789.789,0,1,0,.11,0c0-.4,0-1.6.006-2.794,0-1.836,0-2.535,0-2.808A.818.818,0,0,0,496.9,190.005Zm-.259,7.263a.513.513,0,1,1-.512-.542A.528.528,0,0,1,496.64,197.268Zm-.528-6.721a.543.543,0,1,1,.512-.542A.528.528,0,0,1,496.112,190.547Z" transform="translate(-449.442 -183.755)" fill="url(#bz)"/><path d="M510.17,194.7v5.6a.789.789,0,1,0,.11,0v-5.6a.745.745,0,0,0,.247-.063q-.139-.114-.28-.227h-.023a.519.519,0,0,1-.5-.408l-.288-.219c0,.028,0,.056,0,.085A.816.816,0,0,0,510.17,194.7Zm.567,6.432a.513.513,0,1,1-.512-.542A.528.528,0,0,1,510.737,201.135Z" transform="translate(-461.265 -187.622)" fill="url(#ca)"/><path d="M525.022,226.936a.836.836,0,1,0,0,.117h1.545v-2.264l-.11-.132v2.279Zm-.785.6a.543.543,0,1,1,.512-.542A.528.528,0,0,1,524.238,227.537Z" transform="translate(-473.003 -213.481)" fill="url(#cb)"/><path d="M215.956,414.36a.836.836,0,1,0-.785-.893h-2.524l.045.117h2.479A.808.808,0,0,0,215.956,414.36Zm0-1.376a.543.543,0,1,1-.512.542A.528.528,0,0,1,215.956,412.984Z" transform="translate(-212.648 -370.996)" fill="url(#cc)"/><path d="M221.322,429.2a.836.836,0,1,0-.785-.893h-1.5l.057.117h1.447A.808.808,0,0,0,221.322,429.2Zm0-1.376a.543.543,0,1,1-.512.542A.528.528,0,0,1,221.322,427.828Z" transform="translate(-217.997 -383.43)" fill="url(#cd)"/><path d="M245.366,472.467a.528.528,0,0,1,.512.542.564.564,0,0,1-.027.172l.207.226a.865.865,0,0,0,.1-.4.813.813,0,0,0-.788-.834.744.744,0,0,0-.325.075l.2.234A.476.476,0,0,1,245.366,472.467Z" transform="translate(-239.783 -420.824)" fill="url(#ce)"/><path d="M299.129,233.918a.836.836,0,1,0,.785.893h3.012a.836.836,0,1,0,0-.117h-3.012A.809.809,0,0,0,299.129,233.918Zm0,1.376a.543.543,0,1,1,.512-.542A.528.528,0,0,1,299.129,235.294Zm4.582-1.084a.543.543,0,1,1-.512.542A.528.528,0,0,1,303.71,234.21Z" transform="translate(-284.432 -221.239)" fill="url(#cf)"/><path d="M383.655,159.621v4.011a.789.789,0,1,0,.11,0v-3.963l3.611-3.853-.144-.012Zm.567,4.843a.513.513,0,1,1-.512-.542A.528.528,0,0,1,384.222,164.464Z" transform="translate(-355.285 -155.804)" fill="url(#cg)"/><path d="M331.938,204.015a.809.809,0,0,0-.785.776h-3.012a.836.836,0,1,0,0,.117h3.012a.79.79,0,1,0,.785-.893Zm-4.582,1.376a.543.543,0,1,1,.512-.542A.528.528,0,0,1,327.357,205.391Zm4.582,0a.543.543,0,1,1,.512-.542A.528.528,0,0,1,331.938,205.391Z" transform="translate(-308.078 -196.19)" fill="url(#ch)"/><path d="M238.551,459.108a.836.836,0,1,0-.785-.893h-.861l.086.117h.775A.809.809,0,0,0,238.551,459.108Zm0-1.377a.543.543,0,1,1-.512.542A.528.528,0,0,1,238.551,457.731Z" transform="translate(-232.968 -408.48)" fill="url(#ci)"/><path d="M270.419,224.727a.789.789,0,1,0,.843-.831V220.74a.789.789,0,1,0-.11,0V223.9A.816.816,0,0,0,270.419,224.727Zm.276-4.819a.513.513,0,1,1,.512.542A.528.528,0,0,1,270.695,219.908Zm.512,4.277a.543.543,0,1,1-.512.542A.528.528,0,0,1,271.207,224.185Z" transform="translate(-261.042 -208.804)" fill="url(#cj)"/><path d="M233.461,250.428V255.3l-4.549,4.819v7.989a.789.789,0,1,0,.11,0v-7.941l4.549-4.819v-4.923a.789.789,0,1,0-.11,0Zm-3.982,18.513a.513.513,0,1,1-.512-.542A.528.528,0,0,1,229.479,268.941Zm4.037-19.887a.543.543,0,1,1-.512.542A.528.528,0,0,1,233.516,249.054Z" transform="translate(-225.659 -233.674)" fill="url(#al)"/></g><g transform="translate(149.783 114.435)" opacity="0.86"><g transform="translate(0 0)"><path d="M261.867,287.712a3.735,3.735,0,0,1-2.122,3.145,10.659,10.659,0,0,1-10.244,0,3.733,3.733,0,0,1-2.137-3.145v-22.09a3.734,3.734,0,0,1,2.137-3.145,10.659,10.659,0,0,1,10.244,0,3.736,3.736,0,0,1,2.122,3.145v4.926h-4.834V263.7a1.5,1.5,0,0,0-.708-1.237,3.113,3.113,0,0,0-3.419,0,1.5,1.5,0,0,0-.707,1.237v25.928a1.5,1.5,0,0,0,.707,1.237,3.112,3.112,0,0,0,3.419,0,1.5,1.5,0,0,0,.708-1.237v-6.845h4.834Z" transform="translate(-247.364 -261.165)" fill="none" stroke="#fff" stroke-width="2"/><path d="M373.379,287.712a3.735,3.735,0,0,1-2.123,3.145,10.658,10.658,0,0,1-10.244,0,3.733,3.733,0,0,1-2.137-3.145v-22.09a3.734,3.734,0,0,1,2.137-3.145,10.658,10.658,0,0,1,10.244,0,3.736,3.736,0,0,1,2.123,3.145v4.926h-4.835V263.7a1.5,1.5,0,0,0-.707-1.237,3.113,3.113,0,0,0-3.419,0,1.5,1.5,0,0,0-.707,1.237v25.928a1.5,1.5,0,0,0,.707,1.237,3.112,3.112,0,0,0,3.419,0,1.5,1.5,0,0,0,.707-1.237v-6.845h4.835Z" transform="translate(-340.775 -261.165)" fill="none" stroke="#fff" stroke-width="2"/><path d="M479.707,271.648h-4.8v-8.38h-3.626v13.241H476.7v.789h-5.424v14.968h1.5v.789h-7.841v-.789h1.5v-29h-1.5v-.789h14.768Z" transform="translate(-429.623 -262.266)" fill="none" stroke="#fff" stroke-width="2"/></g><g transform="translate(0 0)"><path d="M261.867,287.712a3.735,3.735,0,0,1-2.122,3.145,10.659,10.659,0,0,1-10.244,0,3.733,3.733,0,0,1-2.137-3.145v-22.09a3.734,3.734,0,0,1,2.137-3.145,10.659,10.659,0,0,1,10.244,0,3.736,3.736,0,0,1,2.122,3.145v4.926h-4.834V263.7a1.5,1.5,0,0,0-.708-1.237,3.113,3.113,0,0,0-3.419,0,1.5,1.5,0,0,0-.707,1.237v25.928a1.5,1.5,0,0,0,.707,1.237,3.112,3.112,0,0,0,3.419,0,1.5,1.5,0,0,0,.708-1.237v-6.845h4.834Z" transform="translate(-247.364 -261.165)" fill="#af7500"/><path d="M373.379,287.712a3.735,3.735,0,0,1-2.123,3.145,10.658,10.658,0,0,1-10.244,0,3.733,3.733,0,0,1-2.137-3.145v-22.09a3.734,3.734,0,0,1,2.137-3.145,10.658,10.658,0,0,1,10.244,0,3.736,3.736,0,0,1,2.123,3.145v4.926h-4.835V263.7a1.5,1.5,0,0,0-.707-1.237,3.113,3.113,0,0,0-3.419,0,1.5,1.5,0,0,0-.707,1.237v25.928a1.5,1.5,0,0,0,.707,1.237,3.112,3.112,0,0,0,3.419,0,1.5,1.5,0,0,0,.707-1.237v-6.845h4.835Z" transform="translate(-340.775 -261.165)" fill="#af7500"/><path d="M479.707,271.648h-4.8v-8.38h-3.626v13.241H476.7v.789h-5.424v14.968h1.5v.789h-7.841v-.789h1.5v-29h-1.5v-.789h14.768Z" transform="translate(-429.623 -262.266)" fill="#af7500"/></g></g><g transform="translate(131.34 88.405)" opacity="0.28" style="mix-blend-mode:overlay;isolation:isolate"><path d="M190.035,100.8l-56.294,46.53a42.4,42.4,0,0,0,8.029,19.222l65.625-54.243A42.667,42.667,0,0,0,190.035,100.8Z" transform="translate(-133.741 -100.801)" fill="#fff"/><path d="M289.844,225.825a42.378,42.378,0,0,0-4.069-9.439l-64.831,53.587a42.691,42.691,0,0,0,8.5,5.775Z" transform="translate(-206.789 -197.625)" fill="#fff"/></g></g></svg>