<svg xmlns="http://www.w3.org/2000/svg" id="prefix__미국" width="25" height="18.75" viewBox="0 0 25 18.75"><defs><style>.prefix__cls-2{fill-rule:evenodd;fill:#fff}</style></defs><g id="prefix__그룹_156" data-name="그룹 156"><path id="prefix__패스_81" fill="#bd3d44" fill-rule="evenodd" d="M0 0h25v1.443H0zm0 2.886h25v1.443H0zm0 2.882h25v1.446H0zm0 2.886h25V10.1H0zm0 2.886h25v1.443H0zm0 2.882h25v1.443H0zm0 2.886h25v1.442H0z" data-name="패스 81"/><path id="prefix__패스_82" d="M0 36.938h25v1.444H0zm0 2.888h25v1.44H0zm0 2.884h25v1.444H0zm0 2.89h25v1.444H0zm0 2.888h25v1.444H0zm0 2.885h25v1.444H0z" class="prefix__cls-2" data-name="패스 82" transform="translate(0 -35.502)"/></g><path id="prefix__패스_83" fill="#192f5d" fill-rule="evenodd" d="M0 0h12.5v10.07H0z" data-name="패스 83"/><path id="prefix__패스_84" d="M16.792 11.063l.115.407h.364l-.294.25.112.411-.3-.254-.294.25.112-.407-.3-.25h.371zm2.074 0l.112.407h.368l-.3.25.112.411-.294-.254-.3.25.112-.407-.294-.25h.364zm2.071 0l.115.407h.361l-.294.25.112.411-.3-.254-.294.25.112-.407-.3-.25h.368zm2.074 0l.112.407h.368l-.3.25.115.411-.3-.254-.3.25.115-.407-.3-.25h.379zm2.071 0l.115.407h.364l-.294.25.112.411-.3-.254-.294.25.112-.407-.294-.25h.364zm2.074 0l.112.407h.368l-.3.25.115.411-.3-.254-.3.25.115-.407-.3-.25h.368zm-9.326 1.03l.112.407h.368l-.3.25.109.407-.288-.25-.3.25.105-.407-.288-.25h.364zm2.071 0l.115.407h.364l-.3.25.115.407-.3-.25-.3.25.115-.407-.3-.25h.368zm2.074 0l.112.407h.368l-.3.25.112.407-.294-.25-.3.25.112-.407-.285-.25h.364zm2.071 0l.115.407h.364l-.3.25.115.407-.3-.25-.294.25.112-.407-.3-.25h.371zm2.074 0l.112.407h.368l-.3.25.112.407-.294-.25-.3.25.112-.407-.294-.25H26zm-9.328 1.027l.115.415h.364l-.294.25.112.407-.3-.254-.294.254.112-.411-.3-.25h.371zm2.074 0l.112.411h.368l-.3.25.112.407-.294-.254-.3.254.112-.411-.294-.25h.364zm2.071 0l.115.411h.361l-.294.25.112.407-.3-.254-.294.254.112-.411-.3-.25h.368zm2.074 0l.112.411h.368l-.3.25.115.407-.3-.254-.3.254.115-.411-.3-.25h.379zm2.071 0l.115.411h.364l-.294.25.112.407-.3-.254-.294.254.112-.411-.294-.25h.364zm2.074 0l.112.411h.368l-.3.25.115.407-.3-.254-.3.254.115-.411-.3-.25h.368zm-9.326 1.031l.112.407h.368l-.3.25.112.411-.294-.254-.3.25.112-.407-.294-.25h.364zm2.071 0l.115.407h.364l-.3.25.115.411-.3-.254-.3.25.115-.407-.3-.25h.368zm2.074 0l.112.407h.368l-.3.25.112.411-.294-.254-.3.25.112-.407-.294-.25h.364zm2.071 0l.115.407h.364l-.294.25.112.411-.3-.254-.294.25.112-.407-.3-.25h.371zm2.074 0l.112.407h.368l-.3.25.112.411-.294-.254-.3.25.112-.407-.294-.25H26zm-9.328 1.031l.115.407h.364l-.294.25.112.411-.3-.254-.294.25.112-.407-.3-.25h.371zm2.074 0l.112.407h.368l-.3.25.112.407-.292-.246-.3.25.112-.407-.294-.25h.364zm2.071 0l.115.407h.361l-.294.25.112.411-.3-.254-.294.25.112-.407-.3-.25h.368zm2.074 0l.112.407h.368l-.3.25.115.411-.3-.254-.3.25.115-.407-.3-.25h.379zm2.071 0l.115.407h.364l-.294.25.112.411-.3-.254-.294.25.112-.407-.294-.25h.364zm2.074 0l.112.407h.368l-.3.25.115.411-.3-.254-.3.25.115-.407-.3-.25h.368zm-9.326 1.031l.112.407h.368l-.3.25.112.407-.294-.254-.3.254.112-.411-.294-.25h.364zm2.071 0l.115.407h.364l-.3.25.115.407-.3-.254-.3.254.115-.411-.3-.25h.368zm2.074 0l.112.407h.368l-.3.25.112.407-.294-.254-.3.254.112-.411-.294-.25h.364zm2.071 0l.115.407h.364l-.294.25.112.407-.3-.254-.294.254.112-.411-.3-.25h.371zm2.074 0l.112.407h.368l-.3.25.112.407-.294-.254-.3.254.112-.411-.294-.25H26zm-9.328 1.027l.115.411h.364l-.294.25.112.4-.3-.25-.294.25.112-.407-.3-.25h.371zm2.074 0l.112.411h.368l-.3.25.115.4-.3-.25-.3.25.115-.407-.3-.25h.364zm2.071 0l.115.411h.361l-.294.25.112.4-.3-.25-.294.25.112-.407-.3-.25h.368zm2.074 0l.112.411h.368l-.3.25.115.4-.3-.25-.3.25.115-.407-.3-.25h.379zm2.071 0l.115.411h.364l-.294.25.112.4-.3-.25-.294.25.115-.401-.294-.25h.364zm2.074 0l.112.411h.368l-.3.25.115.4-.3-.25-.3.25.115-.407-.3-.25h.368zm-9.326 1.031l.112.407h.368l-.3.25.112.411-.294-.254-.3.25.112-.407-.294-.25h.364zm2.071 0l.115.407h.364l-.3.25.115.411-.3-.254-.3.25.115-.407-.3-.25h.368zm2.074 0l.112.407h.368l-.3.25.112.411-.294-.254-.3.25.112-.407-.294-.25h.364zm2.071 0l.115.407h.364l-.294.25.112.411-.3-.254-.294.25.112-.407-.3-.25h.371zm2.074 0l.112.407h.368l-.3.25.112.411-.294-.254-.3.25.112-.407-.294-.25H26zM16.792 19.3l.115.407h.364l-.294.25.112.407-.3-.25-.294.25.112-.411-.3-.25h.371zm2.074 0l.112.407h.368l-.3.25.115.407-.3-.25-.3.25.115-.411-.3-.25h.364zm2.071 0l.115.407h.361l-.288.25.112.407-.3-.25-.294.25.112-.411-.3-.25h.368zm2.074 0l.112.407h.368l-.3.25.115.407-.3-.25-.3.25.115-.411-.3-.25h.379zm2.071 0l.115.407h.364l-.294.25.112.407-.3-.25-.294.25.112-.411-.294-.25h.364zm2.074 0l.112.407h.368l-.3.25.115.407-.3-.25-.3.25.115-.411-.3-.25h.368z" class="prefix__cls-2" data-name="패스 84" transform="translate(-15.787 -10.632)"/></svg>