<svg xmlns="http://www.w3.org/2000/svg" id="prefix__중국" width="25" height="18.75" viewBox="0 0 25 18.75"><defs><style>.prefix__cls-2{fill:#ffde00}</style></defs><path id="prefix__패스_657" fill="#de2910" d="M0 0h25v18.75H0z" data-name="패스 657"/><path id="prefix__패스_658" d="M-70.874-66.937L-69.187-72l1.687 5.063-4.5-3.094h5.625z" class="prefix__cls-2" data-name="패스 658" transform="translate(73.874 73.875)"/><path id="prefix__패스_659" d="M.375 1.687L.937 0 1.5 1.687 0 .656h1.875z" class="prefix__cls-2" data-name="패스 659" transform="rotate(-120.93 5.427 -.988)"/><path id="prefix__패스_660" d="M.375 1.687L.937 0 1.5 1.687 0 .656h1.875z" class="prefix__cls-2" data-name="패스 660" transform="rotate(-98.1 7.31 -2.134)"/><path id="prefix__패스_661" d="M.375 1.687L.937 0 1.5 1.687 0 .656h1.875z" class="prefix__cls-2" data-name="패스 661" transform="rotate(-74.03 9.828 -3.09)"/><path id="prefix__패스_662" d="M.375 1.687L.937 0 1.5 1.687 0 .656h1.875z" class="prefix__cls-2" data-name="패스 662" transform="rotate(-51.33 12.955 -4.09)"/></svg>