<svg xmlns="http://www.w3.org/2000/svg" width="25.001" height="18.75" viewBox="0 0 25.001 18.75"><defs><clipPath id="prefix__clip-path"><path id="prefix__패스_697" fill="rgba(0,0,0,0.7)" stroke="#707070" stroke-width=".938" d="M.001 0h25v18.75h-25z" data-name="패스 697"/></clipPath><style>.prefix__cls-3{fill:#fff}.prefix__cls-3,.prefix__cls-5{fill-rule:evenodd}</style></defs><g id="prefix__한국" clip-path="url(#prefix__clip-path)"><path id="prefix__패스_682" d="M-85.384 18.375h-26.741V-.375h26.741z" class="prefix__cls-3" data-name="패스 682" transform="translate(111.253 .375)"/><path id="prefix__패스_683" d="M33.458 138.651a4.12 4.12 0 1 1-4.12-4.12 4.12 4.12 0 0 1 4.12 4.12z" class="prefix__cls-3" data-name="패스 683" transform="translate(-20.725 -129.261)"/><path id="prefix__패스_684" fill="#c70000" fill-rule="evenodd" d="M106.732 113.848a5.32 5.32 0 1 1-5.317-5.38 5.349 5.349 0 0 1 5.317 5.38z" data-name="패스 684" transform="translate(-88.832 -104.217)"/><path id="prefix__패스_685" d="M-46.312 31.385l3.062-3.541.729.626-3.065 3.545zm1 .868l3.062-3.541.729.623-3.065 3.549z" class="prefix__cls-5" data-name="패스 685" transform="translate(48.012 -26.741)"/><path id="prefix__패스_686" d="M-46.312 31.385l3.062-3.541.729.626-3.065 3.545z" class="prefix__cls-5" data-name="패스 686" transform="translate(48.012 -26.741)"/><path id="prefix__패스_687" d="M-46.312 31.385l3.062-3.541.729.626-3.065 3.545zm2.029 1.758l3.062-3.549.729.63-3.065 3.545z" class="prefix__cls-5" data-name="패스 687" transform="translate(48.012 -26.741)"/><path id="prefix__패스_688" d="M-46.312 31.385l3.062-3.541.729.626-3.065 3.545z" class="prefix__cls-5" data-name="패스 688" transform="translate(48.012 -26.741)"/><path id="prefix__패스_689" d="M-46.312 31.295l3.062-3.541.729.626-3.065 3.545zm18.632-3.545l3.04 3.567-.732.623-3.04-3.567zm-2.04 1.74l3.04 3.567-.732.623-3.04-3.567z" class="prefix__cls-5" data-name="패스 689" transform="translate(48.012 -26.651)"/><path id="prefix__패스_690" d="M391.32 63.8l2.871-2.483.538.623-3.076 2.76-.341-.9z" class="prefix__cls-3" data-name="패스 690" transform="translate(-372.519 -58.903)"/><path id="prefix__패스_691" d="M366.84 61.46l-2.94 3.508-.721-.6 2.944-3.508zm-3.018-11.678l3.04 3.567-.729.623L363.1 50.4zm4.017 12.51l-2.947 3.508-.725-.6 2.948-3.508zm-2.018-1.677l-2.944 3.508-.721-.6 2.944-3.508z" class="prefix__cls-5" data-name="패스 691" transform="translate(-344.501 -47.822)"/><path id="prefix__패스_692" fill="#3d5897" fill-rule="evenodd" d="M96.343 188.18c.168 1.355.414 2.864 2.5 3.018a2.642 2.642 0 0 0 2.82-2.314 2.628 2.628 0 0 1 4.149-1.523 2.478 2.478 0 0 1 1.073 1.967 5.288 5.288 0 0 1-2.666 4.468 5.406 5.406 0 0 1-6.053-.494 5.569 5.569 0 0 1-1.823-5.122z" data-name="패스 692" transform="translate(-89.004 -179.497)"/><path id="prefix__패스_693" d="M387.94 347.438l2.878 2.476-.535.623-3.19-2.629.842-.469z" class="prefix__cls-3" data-name="패스 693" transform="translate(-368.465 -333.851)"/><path id="prefix__패스_694" d="M-19.8 334.875l3.04 3.563-.732.623-3.04-3.563z" class="prefix__cls-5" data-name="패스 694" transform="translate(23.238 -321.779)"/><path id="prefix__패스_695" d="M-15.188 348.8l2.878-2.487.538.623-3.076 2.765-.341-.9z" class="prefix__cls-3" data-name="패스 695" transform="translate(18.103 -332.77)"/><path id="prefix__패스_696" d="M-44.1 312.844l3.04 3.563-.732.622-3.04-3.563zm-2.04 1.74l3.04 3.563-.732.623-3.04-3.563z" class="prefix__cls-5" data-name="패스 696" transform="translate(48.552 -300.609)"/></g></svg>